<?xml version="1.0" encoding="utf-8"?>
<!-- Generator: $$$/GeneralStr/196=Adobe Illustrator 27.6.0, SVG Export Plug-In . SVG Version: 6.00 Build 0)  -->
<svg version="1.1" id="Ebene_1" xmlns:serif="http://www.serif.com/"
	 xmlns="http://www.w3.org/2000/svg" xmlns:xlink="http://www.w3.org/1999/xlink" x="0px" y="0px" viewBox="0 0 1920 1080"
	 style="enable-background:new 0 0 1920 1080;" xml:space="preserve">
<style type="text/css">
	.st0{fill-rule:evenodd;clip-rule:evenodd;}
	.st1{fill-rule:evenodd;clip-rule:evenodd;fill:#A39359;}
	.st2{fill-rule:evenodd;clip-rule:evenodd;fill:#827544;fill-opacity:0.5;}
	.st3{fill-rule:evenodd;clip-rule:evenodd;fill:#827544;}
	.st4{fill-rule:evenodd;clip-rule:evenodd;fill:#020000;}
	.st5{fill-rule:evenodd;clip-rule:evenodd;fill:#50472D;}
	.st6{fill-rule:evenodd;clip-rule:evenodd;fill:#E1CE8D;}
</style>
<g id="Ebene4" transform="matrix(1,0,0,1,-6.03682,-4.50167)">
	<g transform="matrix(0.795477,0,0,1.00137,515.796,-21.9686)">
		<g>
			<rect x="544.3" y="122.4" class="st0" width="41.5" height="967.2"/>
		</g>
		<rect x="542.8" y="125.6" class="st1" width="45.8" height="963"/>
		<rect x="574.1" y="126.7" class="st2" width="13" height="960.6"/>
	</g>
	<path class="st3" d="M948.2,304.5c0.4,6.1-0.4,17.7,0.4,23.1c0.6,4.6,27.8-0.2,34.2-1.9c0.8-0.2-0.2-8.5,0-10.5
		c0.4-4.8,0.3-13.7,0.3-13.7s0-0.2-2.2,0C969.9,302.4,958.9,304.5,948.2,304.5z"/>
	<path class="st3" d="M950.8,505.6c-2.1,0.2-1.7,6.9-1.8,11.3c-0.1,2.8,0,9.4,0,12.2c-0.1,3.1,28.9-6.7,34-8.9
		c1-0.4,0.6-13.6,0.6-20.1c0-2.3-0.3-5-0.3-7.2c0-0.1-8.6,3.3-16.5,6.7C961,502.2,956.3,502.8,950.8,505.6z"/>
	<path class="st3" d="M961.4,710.1c-1.8-0.1-13.4-0.5-13.3,0.5c0.3,2.4,0.3,15.7,0.7,15.8c4.2,0.6,9.2,1.9,14.5,3.1
		c6.3,1.4,15.6,3.2,19.3,3.2c0.5,0,0.3-11.8,0.3-16.7c0-1.8-5.9-3-6.8-3C969.8,713.4,967.6,710.6,961.4,710.1z"/>
	<path class="st3" d="M948.6,947.2c0.1,6.2-0.3,22.5,0,22.6c5.2,1,10.4,0.4,15.9-0.6c3.4-0.6,18.7-3.8,18.7-5
		c-0.1-7.5,0.1-23.5-0.6-22.8C981.3,942.6,948.5,940.2,948.6,947.2z"/>
</g>
<g id="Ebene1" transform="matrix(-2.08979,0.513994,0.513994,2.08979,4604.48,-6504.96)">
	<path class="st4" d="M2427.7,2581c0-0.3-0.7-4.2-0.4-4.2c1.5,0,3,0,4.1,0c3,0,4.6,0,6.8,0c1.3,0,2.8,0,2.8,0.1
		c1.2,2.1,3.2,5.1,4.9,6.7c11,10.5,19.7,19.3,30.8,28.2c2.6,2.1,4.8,3.6,7.6,6c0.9,0.8,3.6,3,3.6,3.1c0,1.4-5.8,7.5-7.3,8.9
		c-1.3,1.3-4.1,4.7-5.8,7.1c-2.3,3.1-14.4,19.1-22.1,29.9c-1.5,2.1-4.1,5.7-5.3,8.1c-0.8,1.6-2.1,3.2-2.8,4.8
		c-0.2,0.3-2.9,0.4-4.1,0.3c-1.7,0-3.8,0-5.4-0.6c-0.2-0.1-0.2-2.2-0.3-3.4c-0.2-3.6-0.5-9.3-0.5-10.5c0-0.3,0-2.3,0-2.3
		s-5.5,0.8-10,1.6c-8.1,1.4-15.1,3.3-23.2,4.6c-10.8,1.7-14.6,2-26.2,4.4c-3.7,0.8-12.8,2.9-17.2,4.5c-1.3,0.5-4.5,1-5.9,1.3
		c-0.3,0.1-4.9-2.5-8.4-4.5c-1.7-1-1.9-1.1-2.5-2.9c-0.5-1.6-1.6-5.8-2.6-11.8c-0.4-2.6-0.7-6-1.8-13.2c-0.5-2.8-0.7-4.2-2.3-11.8
		c-0.7-3.4-1.5-10.2-4.2-15.4c0-0.1,6.1,0,16.1-2.6c16.3-4.2,24.6-6.6,29.2-7.9c7.6-2,19.8-4.7,26.5-6.1c9.5-2,17.2-3.8,27.6-6
		C2429.8,2597.4,2428.6,2586.2,2427.7,2581z"/>
	<path class="st0" d="M2429.1,2597c-0.2-2.2-1.2-11.4-1.9-16c0-0.2-0.5-2.9-0.5-3.9c0-0.4,0.1-0.6,0.1-0.7c0.1-0.2,0.3-0.2,0.5-0.2
		c1.5,0,2.9,0,4.1,0c3,0,4.6,0,6.8,0c1.1,0,2.3,0,2.7,0.1c0.4,0,0.5,0.2,0.6,0.3c1.2,2.1,3.1,5,4.8,6.6c11,10.5,19.7,19.3,30.8,28.1
		c2.6,2.1,4.8,3.6,7.6,6.1c0.8,0.7,3.1,2.6,3.6,3.1c0.2,0.2,0.2,0.4,0.2,0.5c0,0.2-0.1,0.4-0.2,0.7c-0.2,0.5-0.7,1.1-1.2,1.9
		c-1.8,2.4-5,5.7-6,6.7c-1.3,1.3-4.1,4.7-5.8,7c-2.3,3.1-14.4,19.1-22.1,29.8c-1.5,2.1-4.1,5.7-5.2,8c-0.8,1.6-2,3.2-2.8,4.8
		c0,0.1-0.1,0.2-0.2,0.3c-0.1,0.1-0.3,0.1-0.5,0.2c-0.9,0.2-2.9,0.2-3.9,0.2c-1.8,0-3.9,0-5.6-0.6c-0.1,0-0.2-0.1-0.3-0.2
		c0-0.1-0.1-0.2-0.2-0.5c-0.1-0.6-0.1-2.2-0.2-3.2c-0.2-3.6-0.5-9.3-0.5-10.6c0-0.2,0-1.1,0-1.7c-1.5,0.2-5.8,0.9-9.4,1.5
		c-8.1,1.4-15.1,3.3-23.2,4.6c-10.8,1.7-14.6,2-26.2,4.3c-3.7,0.8-12.8,2.9-17.1,4.4c-1.3,0.5-4.5,1-6,1.3c-0.1,0-0.2,0-0.3,0
		c-0.1,0-0.4-0.1-0.7-0.3c-1.5-0.7-5-2.6-7.8-4.2c-1.2-0.7-1.7-1-2-1.5c-0.2-0.4-0.4-0.9-0.6-1.6c-0.5-1.6-1.6-5.8-2.6-11.9
		c-0.4-2.6-0.7-6-1.8-13.2c-0.5-2.8-0.7-4.2-2.3-11.8c-0.7-3.3-1.4-10.1-4.1-15.3c-0.1-0.2-0.1-0.4,0.1-0.6c0,0,0.1-0.1,0.2-0.1
		c0,0,0.1,0,0.3-0.1c1-0.1,6.9-0.2,15.8-2.5c16.3-4.2,24.6-6.6,29.2-7.9c7.6-2,19.8-4.7,26.5-6.1
		C2411.4,2601,2419,2599.1,2429.1,2597z M2427.8,2577.3c0.1,0.9,0.4,3.4,0.4,3.6c0.8,4.7,1.8,14.3,2,16.2c0,0.3,0,0.4,0,0.5
		c-0.1,0.3-0.3,0.4-0.4,0.4c-10.4,2.2-18.1,4-27.6,6c-6.8,1.4-18.9,4.1-26.5,6.1c-4.6,1.2-12.9,3.7-29.2,7.9
		c-7.9,2-13.4,2.4-15.4,2.5c2.4,5.1,3.2,11.6,3.8,14.8c1.6,7.6,1.8,9,2.3,11.8c1.2,7.2,1.4,10.6,1.8,13.2c0.9,6,2.1,10.2,2.6,11.8
		c0.2,0.6,0.3,1,0.5,1.3c0.3,0.5,0.8,0.7,1.7,1.2c3.1,1.8,7.2,4,8.1,4.4l0,0c1.5-0.3,4.5-0.8,5.7-1.3c4.4-1.6,13.5-3.7,17.3-4.5
		c11.6-2.4,15.5-2.7,26.2-4.4c8.1-1.2,15.1-3.2,23.2-4.6c4.5-0.8,10-1.6,10-1.6c0.2,0,0.3,0,0.4,0.1c0.1,0.1,0.2,0.2,0.2,0.4
		c0,0,0,2,0,2.3c0,1.2,0.2,6.9,0.4,10.5c0.1,0.9,0.1,2.5,0.2,3c1.5,0.4,3.4,0.4,5,0.4c0.7,0,2.1,0,3-0.1c0.3,0,0.6-0.1,0.7-0.1
		c0.8-1.5,2-3.1,2.7-4.6c1.2-2.4,3.8-6,5.3-8.1c7.7-10.7,19.8-26.7,22.1-29.9c1.7-2.4,4.5-5.8,5.9-7.1c1-1,4.2-4.3,5.9-6.6
		c0.4-0.6,0.8-1.1,1-1.5c0.1-0.1,0.1-0.2,0.1-0.3c-0.6-0.6-2.7-2.3-3.4-2.9c-2.8-2.4-5-4-7.6-6c-11.1-8.9-19.8-17.7-30.8-28.2
		c-1.7-1.6-3.7-4.5-4.9-6.7c-0.4,0-1.6-0.1-2.5-0.1c-2.2,0-3.8,0-6.8,0C2430.4,2577.2,2429.1,2577.3,2427.8,2577.3z"/>
	<g transform="matrix(0.993875,-0.00502703,0.00506111,1.00061,-2.86201,9.93159)">
		<path class="st5" d="M2448.4,2622c0.1,0,43.8-0.3,43.8-0.2c0,1.4-5.8,7.5-7.3,8.9c-1.3,1.3-4.1,4.7-5.8,7.1
			c-2.3,3.1-14.4,19.1-22.1,29.9c-1.5,2.1-4.1,5.7-5.3,8.1c-0.8,1.6-2.1,3.2-2.8,4.8c-0.2,0.3-2.9,0.4-4.1,0.3c-1.7,0-3.8,0-5.4-0.5
			c-0.2-0.1-0.2-2.2-0.3-3.4c-0.2-3.6-0.5-9.3-0.5-10.5c0-0.3,2-16.5,2-16.5s-29.7,3.7-37.8,5c-10.8,1.7-15.9,0.6-27.5,2.9
			c-3.7,0.8-12.1,2.2-16.5,3.7c-1.3,0.5-3.1-18.5,6.9-21.1c16.3-4.2,19.6-2.3,24.2-3.5C2397.7,2634.9,2438,2624.2,2448.4,2622z"/>
		<path class="st0" d="M2448.3,2621.5c0.1,0,28.1-0.2,39.4-0.2c2.5,0,4.2,0,4.5,0c0.5,0,0.5,0.5,0.5,0.5c0,0.2-0.1,0.4-0.2,0.7
			c-0.2,0.5-0.7,1.1-1.2,1.9c-1.8,2.4-5,5.7-6,6.7c-1.3,1.3-4,4.7-5.8,7c-2.3,3.1-14.4,19.1-22.1,29.8c-1.5,2.1-4.1,5.7-5.2,8
			c-0.8,1.6-2,3.2-2.8,4.8c0,0.1-0.1,0.2-0.2,0.3c-0.1,0.1-0.3,0.1-0.5,0.2c-0.9,0.2-2.9,0.2-3.9,0.2c-1.8,0-3.9,0-5.6-0.6
			c-0.1,0-0.2-0.1-0.3-0.2c0-0.1-0.1-0.2-0.2-0.5c-0.1-0.6-0.1-2.2-0.2-3.2c-0.2-3.6-0.5-9.3-0.5-10.6c0-0.3,1.6-12.8,1.9-15.9
			c-4.5,0.6-29.7,3.7-37.1,4.9c-10.8,1.7-15.9,0.6-27.5,2.9c-3.7,0.8-12.1,2.1-16.4,3.7c-0.3,0.1-0.6,0.1-0.8-0.3
			c-0.2-0.3-0.5-0.9-0.6-1.9c-0.5-2.9-0.5-8.7,1.3-13.3c1.3-3.2,3.4-5.8,6.8-6.7c9.9-2.5,15-2.8,18.5-3c2.3-0.1,3.9,0,5.7-0.5
			C2397.6,2634.4,2437.9,2623.7,2448.3,2621.5z M2359.1,2660.9c4.5-1.5,12.6-2.9,16.3-3.6c11.6-2.4,16.8-1.3,27.5-3
			c8.1-1.2,37.8-5,37.8-5c0.2,0,0.3,0,0.4,0.1c0.1,0.1,0.2,0.3,0.2,0.4c0,0-2,16.1-2,16.5c0,1.2,0.2,6.9,0.5,10.5
			c0.1,0.9,0.1,2.5,0.2,3c1.5,0.4,3.4,0.4,5,0.4c0.7,0,2.1,0,3-0.1c0.3,0,0.5-0.1,0.7-0.1c0.8-1.5,2-3.1,2.7-4.6
			c1.2-2.4,3.8-6,5.3-8.1c7.7-10.7,19.8-26.7,22.1-29.9c1.7-2.3,4.5-5.8,5.9-7.1c1-1,4.1-4.3,5.9-6.6c0.4-0.5,0.8-1,1-1.4
			c-0.2,0-0.3,0-0.5,0c-7.1-0.1-42.4,0.2-42.5,0.2c-10.4,2.2-50.7,12.9-58.3,14.9c-1.4,0.4-2.7,0.5-4.3,0.5c-3.6,0.1-8.5,0-19.9,3
			c-3,0.8-4.9,3.2-6,6c-1.8,4.4-1.7,10-1.3,12.7C2358.8,2660.2,2359,2660.7,2359.1,2660.9z"/>
	</g>
	<path class="st1" d="M2427.7,2581c0-0.3-0.7-4.2-0.4-4.2c1.5,0,3.9,3.4,6.1,5.7c4.9,4.9,7.3,7.1,9.8,9.3c5.7,5,11.9,10.2,22.5,19.6
		c3.3,2.9,5.9,5.7,8.6,8.3c2.6,2.5,3.1,2.2,1.9,3.8c-2.1,2.8-3.9,5.2-5.4,6.7c-1.3,1.3-3.5,5.1-5.2,7.5c-2.3,3.1-5.5,7.3-13.2,18.1
		c-1.5,2.1-7.9,9-9.1,11.4c-0.8,1.6-6.7,11-8.3,10.4c-0.2-0.1-0.2-0.2-0.2-1.4c-0.2-3.6-0.5-9.3-0.5-10.5c0-0.3,0.3-8.9,0.3-8.9
		s-7.7,1.8-12.2,2.5c-8.1,1.4-14.5,2.6-22.7,3.8c-10.8,1.7-14.8,2.5-26.4,4.9c-3.7,0.8-25.4,4-30.1,4.9c-2,0.4-1.8,1.2-2.3-0.6
		c-0.5-1.6-1.6-5.8-2.6-11.8c-0.4-2.6-0.7-6-1.8-13.2c-0.5-2.8-0.7-4.2-2.3-11.8c-0.7-3.4-1.5-10.2-4.2-15.4c0-0.1,6.1,0,16.1-2.6
		c16.3-4.2,24.6-6.6,29.2-7.9c7.6-2,19.8-4.7,26.5-6.1c9.5-2,17.2-3.8,27.6-6C2429.8,2597.4,2428.6,2586.2,2427.7,2581z"/>
	<path class="st4" d="M2429.1,2597c-0.2-2.2-1.2-11.4-1.9-16c0-0.2-0.5-2.9-0.5-3.9c0-0.4,0.1-0.6,0.1-0.7c0.1-0.2,0.3-0.2,0.5-0.2
		c0.5,0,1.2,0.3,1.9,0.9c1.4,1.1,3,3.3,4.6,4.9c4.8,4.9,7.3,7.1,9.8,9.3c5.7,5,11.9,10.2,22.5,19.6c3.3,2.9,6,5.7,8.7,8.3
		c1.1,1.1,1.9,1.6,2.2,2.1c0.4,0.4,0.5,0.8,0.4,1.2c-0.1,0.3-0.3,0.7-0.7,1.3c-2.1,2.8-3.9,5.2-5.4,6.7c-1.3,1.3-3.4,5.1-5.2,7.4
		c-2.3,3.1-5.5,7.3-13.2,18.1c-1.5,2.1-7.9,9-9,11.3c-0.6,1.3-4.6,7.6-7,9.8c-0.4,0.4-0.8,0.6-1.1,0.8c-0.3,0.1-0.6,0.1-0.8,0.1
		c-0.1,0-0.2-0.1-0.3-0.2c-0.1-0.1-0.1-0.2-0.2-0.3c0-0.2-0.1-0.5-0.1-1.3c-0.2-3.6-0.5-9.3-0.5-10.6c0-0.3,0.2-6.2,0.3-8.2
		c-2,0.4-7.9,1.8-11.6,2.4c-8.1,1.4-14.5,2.6-22.7,3.8c-10.8,1.7-14.8,2.5-26.4,4.9c-3.7,0.8-25.4,4-30.1,4.9
		c-0.8,0.1-1.2,0.4-1.5,0.4c-0.3,0.1-0.5,0.1-0.7,0c-0.1-0.1-0.2-0.2-0.3-0.3c-0.1-0.2-0.2-0.5-0.4-1.1c-0.5-1.6-1.6-5.8-2.6-11.9
		c-0.4-2.6-0.7-6-1.8-13.2c-0.5-2.8-0.7-4.2-2.3-11.8c-0.7-3.3-1.4-10.1-4.1-15.3c-0.1-0.2-0.1-0.4,0.1-0.6c0,0,0.1-0.1,0.2-0.1
		c0,0,0.1,0,0.3-0.1c1-0.1,6.9-0.2,15.8-2.5c16.3-4.2,24.6-6.6,29.2-7.9c7.6-2,19.8-4.7,26.5-6.1
		C2411.4,2601,2419,2599.1,2429.1,2597z M2427.8,2577.4c0.1,1,0.4,3.3,0.4,3.4c0.8,4.7,1.8,14.3,2,16.2c0,0.3,0,0.4,0,0.5
		c-0.1,0.3-0.3,0.4-0.4,0.4c-10.4,2.2-18.1,4-27.6,6c-6.8,1.4-18.9,4.1-26.5,6.1c-4.6,1.2-12.9,3.7-29.2,7.9
		c-7.9,2-13.4,2.4-15.4,2.5c2.4,5.1,3.2,11.6,3.8,14.8c1.6,7.6,1.8,9,2.3,11.8c1.2,7.2,1.4,10.6,1.8,13.2c0.9,6,2.1,10.2,2.6,11.8
		c0.1,0.3,0.2,0.5,0.2,0.7c0,0,0.1,0,0.1,0c0.3-0.1,0.7-0.3,1.4-0.4c4.7-0.8,26.4-4.1,30.1-4.9c11.6-2.4,15.6-3.3,26.4-4.9
		c8.1-1.2,14.6-2.4,22.7-3.8c4.5-0.8,12.2-2.5,12.2-2.5c0.2,0,0.3,0,0.5,0.1c0.1,0.1,0.2,0.3,0.2,0.4c0,0-0.3,8.5-0.3,8.8
		c0,1.2,0.2,6.9,0.4,10.5c0,0.3,0,0.6,0.1,0.8c0,0,0.1,0,0.1-0.1c0.4-0.3,0.9-0.8,1.5-1.4c2.3-2.6,5.3-7.5,5.8-8.6
		c1.2-2.4,7.6-9.3,9.1-11.4c7.7-10.7,10.9-15,13.2-18.1c1.7-2.3,3.9-6.2,5.3-7.5c1.5-1.5,3.3-3.8,5.3-6.6c0.2-0.3,0.3-0.5,0.4-0.6
		c0-0.1,0.1-0.2,0.1-0.2c0-0.1-0.1-0.1-0.1-0.2c-0.1-0.1-0.2-0.3-0.4-0.4c-0.4-0.4-1-0.9-1.8-1.6c-2.7-2.6-5.3-5.4-8.6-8.3
		c-10.6-9.4-16.8-14.6-22.5-19.6c-2.5-2.2-5-4.4-9.9-9.3c-1.3-1.4-2.7-3.1-4-4.3c-0.4-0.4-0.7-0.7-1.1-0.9
		C2427.9,2577.5,2427.9,2577.5,2427.8,2577.4z"/>
	<g transform="matrix(0.46467,0,0,0.46467,972.685,1339.24)">
		<path class="st6" d="M3144,2675.4c-3.2-2.6-13.4-11.6-12.8-11.8c3-1.2,14.7-0.4,17.8-0.2c4.7,0.3,9.4-0.6,10.1,0.8
			c1.3,2.1,9,10.8,11.6,13.5c7.9,8.2,15.2,16.5,22.7,23.5c12.6,11.7,19.5,18.1,33.3,28.7c3.7,2.9,16.7,13.7,19.7,16.1
			c2,1.7,8.7,7.1,10,8.5c0.3,0.3,4.4,3.6,3.9,3.9c-1.1,0.8-9.8,1-14.8,1c-1.4,0-8,0.7-8.1,0.7c-2.3-2.3-5.3-4-7.9-6.8
			c-6.2-6.8-14.5-14-22.5-21.3c-2.1-1.9-4.3-4-6.4-5.9c-3.3-2.9-13.2-10.6-14.5-12.4c-3.6-4.9-9.4-8.6-13.7-12.8
			c-3.6-3.6-8.8-7.2-12.6-10.5C3154.1,2685.4,3149.9,2680.2,3144,2675.4z"/>
		<path class="st0" d="M3143.2,2676.2c-2.9-2.4-11.6-10-12.9-11.7c-0.8-1.1,0-1.9,0.4-2c1-0.4,2.8-0.6,4.9-0.7
			c4.7-0.2,11.1,0.3,13.4,0.4c3.3,0.2,6.6-0.1,8.5,0.1c1.3,0.1,2.1,0.6,2.5,1.2c1.3,2.1,8.9,10.7,11.4,13.3
			c7.8,8.2,15.2,16.4,22.7,23.4c12.5,11.7,19.5,18.1,33.2,28.7c3.7,2.9,16.8,13.7,19.7,16.2c2,1.7,8.8,7.2,10.1,8.6
			c0.2,0.2,3,2.4,3.8,3.5c0.3,0.4,0.5,0.9,0.5,1.1c0,0.5-0.2,0.8-0.5,1c-0.2,0.1-0.5,0.3-0.8,0.4c-0.5,0.2-1.4,0.3-2.5,0.4
			c-3.3,0.3-8.7,0.4-12.2,0.4c-1.2,0-6.7,0.6-7.8,0.7c-0.7,0-1.1-0.3-1.1-0.3c-2.3-2.3-5.3-4-7.9-6.8c-6.2-6.8-14.5-14-22.4-21.3
			c-2.1-1.9-4.2-4-6.4-5.9c-3.3-2.9-13.3-10.7-14.7-12.6c-3.5-4.9-9.4-8.5-13.6-12.7c-3.5-3.5-8.8-7.2-12.6-10.4
			C3153.4,2686.2,3149.2,2681.1,3143.2,2676.2z M3133.2,2664.2c2.6,2.6,9.1,8.3,11.5,10.3c5.9,4.9,10.2,10,16,15
			c3.8,3.3,9.1,7,12.7,10.5c4.3,4.3,10.2,8,13.8,13c1.3,1.8,11.1,9.3,14.3,12.2c2.1,1.9,4.3,3.9,6.4,5.9c8,7.4,16.3,14.6,22.6,21.4
			c2.4,2.7,5.2,4.3,7.5,6.4c1.6-0.1,6.4-0.7,7.6-0.7c3.5,0,8.7-0.1,12-0.4c0.3,0,0.7-0.1,1-0.1c-1.1-1.1-2.6-2.3-2.8-2.4
			c-1.3-1.3-8-6.8-10-8.4c-3-2.4-16-13.3-19.7-16.1c-13.8-10.6-20.8-17.1-33.4-28.8c-7.5-7-14.9-15.3-22.8-23.5
			c-2.6-2.7-10.3-11.4-11.7-13.6c0,0-0.2-0.1-0.3-0.1c-0.4-0.1-0.8-0.1-1.4-0.2c-2-0.1-4.8,0.2-7.6,0c-2.2-0.2-8.5-0.6-13.1-0.4
			C3134.8,2664.1,3133.9,2664.1,3133.2,2664.2z"/>
	</g>
	<g id="Ebene2" transform="matrix(0.46467,0,0,0.46467,972.685,1339.24)">
		<path class="st0" d="M2933.5,2801.4c0.2-0.1,0.5-0.2,0.8-0.4c0.4-0.1,0.8-0.3,1.3-0.4c1-0.3,2.1-0.7,3.3-1
			c3.1-0.9,6.6-1.8,8.2-2.3c3.6-1.1,9.1-2.5,13.4-3.5c1.5-0.4,2.9-0.7,4-0.9c0.6-0.1,1.1-0.4,1.5-0.3c0.1,0,0.1,0,0.2,0.1
			c0.2-0.1,0.5,0,0.6,0.3c0.1,0.2,0,0.5-0.3,0.6c-0.1,0.1-0.1,0.1-0.1,0.2c-0.4,0.3-0.9,0.4-1.5,0.6c-1.1,0.4-2.5,0.8-4,1.2
			c-4.3,1.2-9.8,2.4-13.4,3.5c-1.6,0.5-5.1,1.4-8.3,2.1c-1.2,0.3-2.4,0.5-3.4,0.7c-0.5,0.1-1,0.2-1.4,0.2c-0.4,0-0.7,0-0.9,0.1
			c-0.2,0-0.3-0.1-0.4-0.2C2933.2,2801.6,2933.3,2801.4,2933.5,2801.4z"/>
		<path class="st0" d="M2987.7,2788.2c0.6-0.3,1.4-0.7,2.4-1c0.2-0.1,0.4-0.1,0.6-0.2c1.4-0.4,3-0.7,4.3-1c1.3-0.2,2.3-0.4,3-0.5
			c0.3-0.1,0.6,0.2,0.7,0.5c0.1,0.3-0.2,0.6-0.5,0.7c-0.6,0.1-1.6,0.4-2.8,0.8c-1.3,0.3-2.9,0.7-4.3,1.1c-0.2,0-0.4,0.1-0.6,0.1
			c-1,0.1-1.9,0.2-2.5,0.2c-0.2,0-0.4-0.1-0.4-0.3C2987.4,2788.5,2987.5,2788.3,2987.7,2788.2z"/>
		<path class="st0" d="M2945.4,2824.2c0,0-0.1,0.1-0.1,0.1c-0.2,0.1-0.5,0-0.6-0.3c0-0.1-0.1-0.4,0.3-0.6c0.1-0.1,0.3-0.2,0.7-0.3
			c0.5-0.2,1.1-0.4,1.9-0.7c1.2-0.4,2.8-0.9,4.6-1.3c0.9-0.2,1.8-0.4,2.6-0.6c1.4-0.3,2.7-0.5,4-0.8c0.6-0.1,1.2-0.2,1.8-0.3
			c1.1-0.1,2.1-0.2,2.7-0.2c0.2,0,0.4,0.1,0.4,0.3s-0.1,0.4-0.3,0.4c-0.8,0.1-1.9,0.4-3.3,0.8c-1.5,0.4-3.2,0.8-4.9,1.2
			c-1.1,0.3-2.2,0.5-3.3,0.8c-1.9,0.4-3.7,0.8-4.9,1.1C2946.3,2824,2945.7,2824.1,2945.4,2824.2
			C2945.4,2824.2,2945.4,2824.2,2945.4,2824.2z"/>
		<path class="st0" d="M2941.3,2848.1c0,0,0.4,0,0.9-0.3c0.1,0,0.2-0.1,0.3-0.2c0.3-0.1,0.7-0.3,1.1-0.4c1.7-0.5,3.9-1.2,5.3-1.6
			c1.7-0.5,3.6-1,5.4-1.4c4.3-0.9,8.8-1.7,12.7-2.6c6.9-1.6,12.9-2.9,19-4c6.1-1.2,12.1-2.2,19.1-3.4c2.2-0.3,5.5-0.9,8.9-1.3
			c3.2-0.4,6.5-0.8,9-0.9c0.3,0,0.6,0.2,0.7,0.6c0,0.3-0.2,0.6-0.6,0.7c-1.5,0.2-3.3,0.4-5.3,0.8c-4.4,0.7-9.4,1.6-12.3,2.2
			c-7,1.1-13,2.2-19,3.4c-6,1.2-12,2.4-19,3.9c-4,0.8-8.5,1.6-12.8,2.4c-1.9,0.4-3.7,0.7-5.4,1.2c-1.4,0.4-3.7,1-5.4,1.3
			c-0.4,0.1-0.8,0.2-1.1,0.2c-0.1,0-0.2,0-0.3,0c-0.6,0.1-0.9,0.3-0.9,0.3c-0.2,0.1-0.5-0.1-0.5-0.3
			C2941,2848.4,2941.1,2848.1,2941.3,2848.1z"/>
		<path class="st0" d="M3018.7,2814.9c-0.2,0-0.3-0.1-0.3-0.2c-0.1-0.1,0-0.3,0.3-0.4c0,0,0,0,0,0c0.1,0,0.2,0,0.4-0.1
			c1-0.2,3.8-0.8,4.5-1.1c1.6-0.6,3.2-1.2,4.9-1.6c2.5-0.7,5-1.2,7.5-1.8c6.1-1.4,12.1-2.8,18.2-4.2c6-1.4,12.1-2.9,18.1-4.4
			c4.1-1,8.1-2,12.2-2.8c4.8-1,9.5-1.9,14.3-2.9c4.8-0.9,9.5-1.9,14.3-2.9c1.5-0.3,3.6-0.8,6-1.4c4.2-0.9,9.4-1.9,14.1-2.9
			c6.5-1.4,12.1-2.8,13.3-3.1c6.1-1.7,13.7-3.5,21.1-4.9c2.9-0.5,5.8-1,8.5-1.4c2-0.3,3.9-0.5,5.7-0.7c0.3,0,0.6,0.2,0.7,0.5
			c0,0.3-0.2,0.6-0.5,0.7c-2,0.3-4.1,0.7-6.4,1.1c-2.4,0.4-4.9,0.9-7.4,1.3c-2.5,0.4-5,0.9-7.4,1.3c-5,1-9.9,2-14,3.1
			c-1.2,0.3-6.9,1.6-13.3,3.1c-4.7,1.1-9.8,2.5-13.9,3.5c-2.4,0.6-4.5,1-6,1.4c-4.3,1-8.7,1.9-13.1,2.8c-6.6,1.3-13.1,2.4-19.7,3.8
			c-2.7,0.6-5.4,1.2-8.1,1.8c-4.9,1.2-9.7,2.3-14.6,3.4c-7.3,1.6-14.6,3.2-21.9,4.8c-2.5,0.5-5,1-7.5,1.7c-1.6,0.4-3.3,0.9-4.8,1.5
			c-0.8,0.3-3.6,0.9-4.7,1.1C3019,2814.9,3018.8,2814.9,3018.7,2814.9C3018.7,2814.9,3018.7,2814.9,3018.7,2814.9z"/>
		<path class="st0" d="M3057.7,2825.2C3057.7,2825.2,3057.7,2825.3,3057.7,2825.2C3057.7,2825.2,3057.7,2825.2,3057.7,2825.2
			L3057.7,2825.2C3057.7,2825.2,3057.7,2825.2,3057.7,2825.2L3057.7,2825.2L3057.7,2825.2
			C3057.7,2825.2,3057.7,2825.2,3057.7,2825.2L3057.7,2825.2L3057.7,2825.2c-0.1,0.1-0.2,0.2-0.3,0.2c-0.2,0-0.3-0.1-0.3-0.3
			c0-0.2,0.2-0.5,0.8-0.9c0.9-0.5,3-1.2,5.5-1.8c0.4-0.1,0.9-0.2,1.4-0.3c0.9-0.2,1.8-0.4,2.8-0.6c2.3-0.4,4.6-0.8,6.5-1
			c0.3,0,0.6-0.1,0.9-0.1c0.5,0,1,0.1,1.5,0.1c0.2,0,0.5,0.1,0.5,0.4c0,0.2-0.1,0.5-0.4,0.5c-0.4,0.2-0.8,0.4-1.3,0.5
			c-0.2,0.1-0.4,0.1-0.6,0.1c-2.1,0.4-4.7,0.9-7.3,1.4c-1.1,0.2-2.1,0.4-3.1,0.6c-2.8,0.5-5.1,0.9-6.2,1.2
			C3057.9,2825.2,3057.7,2825.2,3057.7,2825.2z"/>
		<path class="st0" d="M3106,2813.5c1.6-0.6,3.3-1.3,5.1-1.8c2.6-0.8,5.2-1.5,7.8-2c3.2-0.7,6.4-1.2,9.3-1.4c1.4-0.1,2.8-0.1,4.1,0
			c0.4,0,0.7,0.3,0.7,0.7c0,0.4-0.3,0.7-0.7,0.7c-1.3,0-2.6,0.2-4,0.3c-2.9,0.3-6,0.6-9.2,1.2c-2.6,0.5-5.2,1.1-7.8,1.7
			c-1.8,0.5-3.5,0.9-5.1,1.5c-0.2,0.1-0.4,0-0.5-0.2C3105.7,2813.8,3105.8,2813.6,3106,2813.5z"/>
		<path class="st0" d="M3175.4,2802.6c0.2,0,0.4,0,0.5,0c0.1,0,0.1,0,0.2,0c0.1,0,0.1-0.1,0.2-0.1c0.6-0.2,1.1-0.2,1.7-0.3
			c0.9-0.2,1.8-0.3,2.6-0.6c2.7-0.7,5.1-1.5,7.7-2.4c4.7-1.5,8.9-3.3,11.6-4.3c0.9-0.3,1.6-0.6,2.1-0.7c0.5-0.1,0.9-0.2,1.2-0.1
			c0.4,0,0.8,0.4,0.8,0.8s-0.4,0.8-0.8,0.8c-0.1,0-0.3,0.1-0.6,0.2c-0.4,0.2-1,0.4-1.8,0.7c-1.6,0.6-3.7,1.4-6.1,2.2
			c-1.8,0.6-3.8,1.3-6,1.9c-2.6,0.7-5.2,1.5-7.9,2c-0.9,0.2-1.8,0.3-2.7,0.4c-0.6,0.1-1.2,0.2-1.8,0.1c-0.1,0-0.1-0.1-0.2-0.1
			c-0.1,0-0.1,0-0.2,0c-0.2,0-0.4,0-0.5,0c-0.2,0-0.3-0.1-0.3-0.3C3175.1,2802.8,3175.2,2802.6,3175.4,2802.6z"/>
		<path class="st0" d="M3203.8,2772.1c2-0.4,3.3-0.8,5.2-1.2c0.7-0.1,1.4-0.3,2.2-0.4l6.9-1.5c0.5-0.1,1,0.2,1.1,0.6
			c0.1,0.5-0.2,1-0.6,1.1c-0.1,0-0.2,0.1-0.3,0.1c-0.8,0.3-1.7,0.4-2.6,0.5c-2,0.3-4,0.5-4.3,0.6l-7.5,0.9c-0.2,0-0.4-0.1-0.4-0.3
			C3203.4,2772.3,3203.6,2772.1,3203.8,2772.1z"/>
		<path class="st0" d="M3148.3,2734.1L3148.3,2734.1C3148.3,2734.1,3148.3,2734.1,3148.3,2734.1L3148.3,2734.1L3148.3,2734.1
			L3148.3,2734.1C3148.3,2734.1,3148.3,2734.1,3148.3,2734.1c0.3-0.3,0.7-0.3,1-0.2c0.1,0,0.2,0.1,0.3,0.2c0.3,0.2,0.4,0.7-0.1,1.3
			c-0.1,0.1-0.2,0.2-0.5,0.4c-0.1,0.1-0.3,0.1-0.4,0.2c-1.4,0.6-4.6,1.6-8.1,2.2c-3.2,0.5-6.7,1.2-10.1,1.8c-1.5,0.3-3,0.5-4.3,0.7
			c-0.2,0-0.3-0.1-0.4-0.3c0-0.2,0.1-0.3,0.2-0.4l14.2-3.4c3.3-0.7,6.3-1.9,7.7-2.5c0.1,0,0.2-0.1,0.3-0.1
			C3148.1,2734.1,3148.2,2734.1,3148.3,2734.1z M3148.1,2734.9c0,0.1,0.1,0.2,0.1,0.3C3148.1,2735.1,3148.1,2735,3148.1,2734.9z
			 M3148.1,2734.4L3148.1,2734.4c0,0,0,0.1,0,0.2L3148.1,2734.4C3148.1,2734.5,3148.1,2734.5,3148.1,2734.4z"/>
		<path class="st0" d="M3163.6,2731.5l15-4.8c4-1.3,7.1-2.2,10.1-2.8c3.3-0.7,6.5-1.1,10.4-1.5c3.2-0.3,9.7-1,15.1-1.3
			c0.6,0,1.1,0,1.7,0c0.4,0,0.7,0.2,0.7,0.6c0,0.4-0.2,0.7-0.6,0.7c-0.5,0.1-1.1,0.2-1.7,0.2c-5.4,0.6-11.9,1-15.1,1.2
			c-3.9,0.3-7,0.7-10.3,1.4c-3,0.6-6.1,1.5-10.1,2.7c-3.2,0.9-7,2.1-10.6,3c-1.6,0.4-3.2,0.8-4.6,1.2c-0.2,0-0.3,0-0.4-0.2
			C3163.3,2731.7,3163.4,2731.5,3163.6,2731.5z"/>
		<path class="st0" d="M3223.2,2768.3c0.6-0.2,1.1-0.4,1.7-0.5c0.4-0.1,0.8-0.2,1.1-0.2c1.5-0.2,2.9-0.4,4.4-0.5
			c0.4,0,0.8,0.3,0.8,0.7c0,0.4-0.3,0.8-0.7,0.8c-1.7,0.1-3.3,0.3-5,0.4c-0.7,0-1.4,0-2.2,0c-0.2,0-0.4-0.1-0.4-0.3
			C3222.9,2768.4,3223.1,2768.3,3223.2,2768.3z"/>
	</g>
</g>
<g id="Ebene11" transform="matrix(2.11714,-0.386162,0.332413,1.82246,-3202.35,-3014.66)" serif:id="Ebene1">
	<path class="st4" d="M1636.9,2182.8c0-0.3-0.7-4.2-0.4-4.2c1.5,0,3,0,4.1,0c3,0,4.6,0,6.8,0c1.3,0,2.8,0,2.8,0.1
		c1.2,2.1,3.2,5.1,4.9,6.7c11,10.5,19.7,19.3,30.8,28.2c2.6,2.1,4.8,3.6,7.6,6c0.9,0.8,3.6,3,3.6,3.1c0,1.4-5.8,7.5-7.3,8.9
		c-1.3,1.3-4.1,4.7-5.8,7.1c-2.3,3.1-14.4,19.1-22.1,29.9c-1.5,2.1-4.1,5.7-5.3,8.1c-0.8,1.6-2.1,3.2-2.8,4.8
		c-0.2,0.3-2.9,0.4-4.1,0.3c-1.7,0-3.8,0-5.4-0.5c-0.2-0.1-0.2-2.2-0.3-3.4c-0.2-3.6-0.5-9.3-0.5-10.5c0-0.3,0-2.3,0-2.3
		s-5.5,0.8-10,1.6c-8.1,1.4-15.1,3.3-23.2,4.6c-10.8,1.7-14.6,2-26.2,4.4c-3.7,0.8-12.8,2.9-17.2,4.5c-1.3,0.5-4.5,1-5.9,1.3
		c-0.3,0.1-4.9-2.5-8.4-4.5c-1.7-1-1.9-1.1-2.5-2.9c-0.5-1.6-1.6-5.8-2.6-11.8c-0.4-2.6-0.7-6-1.8-13.2c-0.5-2.8-0.7-4.2-2.3-11.8
		c-0.7-3.4-1.5-10.2-4.2-15.4c0-0.1,6.1,0,16.1-2.6c16.3-4.2,24.6-6.6,29.2-7.9c7.6-2,19.8-4.7,26.5-6.1c9.5-2,17.2-3.8,27.6-6
		C1638.9,2199.3,1637.7,2188.1,1636.9,2182.8z"/>
	<path class="st0" d="M1638.3,2198.8c-10.2,2.1-17.7,3.9-27.1,5.9c-6.8,1.4-18.9,4.1-26.5,6.1c-4.6,1.2-12.9,3.7-29.2,7.9
		c-9,2.3-14.8,2.5-15.8,2.5c-0.3,0-0.5,0.2-0.5,0.2c-0.1,0.1-0.1,0.2-0.2,0.3c0,0.1,0,0.3,0.1,0.5c2.7,5.1,3.4,11.9,4.1,15.2
		c1.6,7.6,1.8,9,2.3,11.8c1.2,7.2,1.4,10.6,1.8,13.2c1,6.1,2.1,10.3,2.6,11.9c0.2,0.8,0.4,1.3,0.7,1.7c0.4,0.6,0.9,0.9,2.1,1.5
		c2.8,1.6,6.4,3.6,7.8,4.2c0.3,0.2,0.6,0.3,0.7,0.3c0.1,0,0.2,0,0.3,0c1.4-0.4,4.6-0.8,6-1.3c4.4-1.6,13.4-3.7,17.1-4.4
		c11.6-2.4,15.4-2.7,26.2-4.3c8.1-1.3,15.1-3.2,23.2-4.6c3.6-0.6,7.9-1.3,9.4-1.5c0,0.6,0,1.4,0,1.6c0,1.2,0.2,6.9,0.5,10.6
		c0.1,1,0.1,2.6,0.2,3.2c0,0.3,0.1,0.5,0.2,0.5c0.1,0.1,0.2,0.2,0.3,0.2c1.6,0.5,3.8,0.5,5.5,0.6c1,0,3,0,3.8-0.2
		c0.2,0,0.4-0.1,0.5-0.2c0.1-0.1,0.2-0.2,0.3-0.3c0.7-1.5,2-3.2,2.8-4.8c1.2-2.3,3.7-5.9,5.2-8c7.7-10.7,19.8-26.7,22.1-29.8
		c1.7-2.3,4.4-5.7,5.8-7c1-1,4.2-4.4,6-6.7c0.6-0.8,1-1.4,1.2-1.9c0.1-0.3,0.2-0.6,0.2-0.8c0-0.1,0-0.3-0.2-0.6
		c-0.5-0.5-2.8-2.4-3.6-3.1c-2.8-2.5-5.1-4-7.6-6.1c-11.1-8.8-19.7-17.6-30.8-28.1c-1.7-1.6-3.6-4.5-4.8-6.6c0-0.1-0.1-0.2-0.4-0.3
		c-0.3-0.1-1.6-0.1-2.9-0.1c-2.2,0-3.8,0-6.8,0c-1.1,0-2.6,0-4.1,0c-0.2,0-0.5,0.1-0.6,0.6c0,0.2,0,0.7,0,1.3c0.1,1.2,0.4,2.9,0.4,3
		C1637.1,2187.5,1638.1,2196.5,1638.3,2198.8z M1649.9,2179.3c1.2,2.1,3.2,5,4.9,6.7c11.1,10.5,19.7,19.3,30.8,28.2
		c2.6,2.1,4.8,3.6,7.6,6c0.7,0.6,2.7,2.2,3.3,2.8c0,0.1-0.1,0.1-0.1,0.2c-0.2,0.4-0.6,0.9-1,1.5c-1.8,2.3-4.9,5.6-5.9,6.6
		c-1.3,1.3-4.1,4.8-5.9,7.1c-2.3,3.1-14.4,19.1-22.1,29.9c-1.5,2.1-4.1,5.8-5.3,8.1c-0.8,1.5-2,3.1-2.7,4.6c-0.4,0-2.8,0.2-3.7,0.2
		c-1.6,0-3.5,0-5-0.4c0-0.6-0.1-2.1-0.2-3c-0.2-3.6-0.4-9.2-0.4-10.5c0-0.3,0-2.3,0-2.3c0-0.2-0.1-0.3-0.2-0.5
		c-0.1-0.1-0.3-0.2-0.4-0.1c0,0-5.5,0.8-10,1.6c-8.1,1.4-15.1,3.3-23.2,4.6c-10.8,1.7-14.6,2-26.2,4.4c-3.8,0.8-12.9,2.9-17.3,4.5
		c-1.3,0.5-4.3,0.9-5.8,1.3c-0.1,0-0.3-0.1-0.4-0.2c-1.4-0.7-5-2.6-7.7-4.2c-0.9-0.5-1.4-0.7-1.7-1.2c-0.2-0.3-0.3-0.7-0.5-1.3
		c-0.5-1.6-1.6-5.8-2.6-11.8c-0.4-2.6-0.7-6-1.8-13.2c-0.5-2.8-0.7-4.2-2.3-11.8c-0.7-3.2-1.4-9.6-3.8-14.7c2-0.1,7.5-0.5,15.3-2.5
		c16.3-4.2,24.6-6.6,29.2-7.9c7.6-2,19.7-4.7,26.5-6.1c9.5-2,17.2-3.8,27.6-6c0.1,0,0.3-0.1,0.4-0.5c0,0,0-0.2,0-0.5
		c-0.1-1.9-1.2-11.5-2-16.2c0-0.2-0.3-1.8-0.4-3c0-0.2,0-0.4,0-0.5c1.3,0,2.6,0,3.6,0c3,0,4.7,0,6.8,0
		C1648.3,2179.2,1649.5,2179.2,1649.9,2179.3z"/>
	<path class="st1" d="M1636.9,2182.8c0-0.3-0.7-4.2-0.4-4.2c1.5,0,3.9,3.4,6.1,5.7c4.9,4.9,7.3,7.1,9.8,9.3
		c5.7,5,11.9,10.2,22.5,19.6c3.3,2.9,5.9,5.7,8.6,8.3c2.6,2.5,3.1,2.2,1.9,3.8c-2.1,2.8-3.9,5.2-5.4,6.7c-1.3,1.3-3.5,5.1-5.2,7.5
		c-2.3,3.1-5.5,7.3-13.2,18.1c-1.5,2.1-7.9,9-9.1,11.4c-0.8,1.6-6.7,11-8.3,10.4c-0.2-0.1-0.2-0.2-0.2-1.4
		c-0.2-3.6-0.5-9.3-0.5-10.5c0-0.3,0.3-8.9,0.3-8.9s-7.7,1.8-12.2,2.5c-8.1,1.4-14.5,2.6-22.7,3.8c-10.8,1.7-14.8,2.5-26.4,4.9
		c-3.7,0.8-25.4,4-30.1,4.9c-2,0.4-1.8,1.2-2.3-0.6c-0.5-1.6-1.6-5.8-2.6-11.8c-0.4-2.6-0.7-6-1.8-13.2c-0.5-2.8-0.7-4.2-2.3-11.8
		c-0.7-3.4-1.5-10.2-4.2-15.4c0-0.1,6.1,0,16.1-2.6c16.3-4.2,24.6-6.6,29.2-7.9c7.6-2,19.8-4.7,26.5-6.1c9.5-2,17.2-3.8,27.6-6
		C1638.9,2199.3,1637.7,2188.1,1636.9,2182.8z"/>
	<path class="st4" d="M1638.3,2198.8c-10.2,2.1-17.7,3.9-27.1,5.9c-6.8,1.4-18.9,4.1-26.5,6.1c-4.6,1.2-12.9,3.7-29.2,7.9
		c-9,2.3-14.8,2.5-15.8,2.5c-0.3,0-0.5,0.2-0.5,0.2c-0.1,0.1-0.1,0.2-0.2,0.3c0,0.1,0,0.3,0.1,0.5c2.7,5.1,3.4,11.9,4.1,15.2
		c1.6,7.6,1.8,9,2.3,11.8c1.2,7.2,1.4,10.6,1.8,13.2c1,6.1,2.1,10.3,2.6,11.9c0.1,0.5,0.2,0.8,0.3,1c0.1,0.3,0.3,0.4,0.4,0.5
		c0.2,0.1,0.4,0.1,0.6,0c0.3-0.1,0.7-0.3,1.5-0.4c4.7-0.8,26.4-4.1,30.1-4.9c11.6-2.4,15.6-3.3,26.4-4.9c8.1-1.3,14.6-2.4,22.7-3.8
		c3.7-0.6,9.6-2,11.6-2.4c-0.1,2.1-0.2,7.8-0.2,8.1c0,1.2,0.2,6.9,0.5,10.6c0,0.8,0.1,1.2,0.1,1.4c0,0.2,0.1,0.3,0.2,0.4
		c0.1,0.1,0.2,0.1,0.3,0.2c0.2,0.1,0.5,0.1,0.9-0.1c0.5-0.3,1.2-0.9,2-1.8c2.4-2.7,5.4-7.7,6-8.8c1.2-2.3,7.5-9.2,9-11.3
		c7.7-10.7,10.9-14.9,13.2-18c1.7-2.3,3.8-6.1,5.2-7.4c1.5-1.5,3.3-3.9,5.4-6.7c0.4-0.6,0.7-1,0.7-1.3c0.1-0.4,0-0.7-0.2-1
		c-0.3-0.5-1.1-1-2.4-2.3c-2.7-2.6-5.3-5.4-8.7-8.3c-10.6-9.4-16.8-14.6-22.5-19.6c-2.5-2.2-5-4.4-9.8-9.3c-1.6-1.6-3.2-3.7-4.6-4.9
		c-0.7-0.6-1.3-0.9-1.8-0.9c-0.2,0-0.5,0.1-0.6,0.6c0,0.2,0,0.7,0,1.3c0.1,1.2,0.4,2.9,0.4,3
		C1637.1,2187.5,1638.1,2196.5,1638.3,2198.8z M1637,2179.4c0.1,0,0.2,0.1,0.2,0.1c0.3,0.2,0.7,0.5,1.1,0.9c1.2,1.2,2.6,2.9,4,4.3
		c4.9,4.9,7.3,7.1,9.9,9.3c5.7,5,11.9,10.2,22.5,19.6c3.3,2.9,5.9,5.7,8.6,8.3c0.8,0.8,1.4,1.3,1.8,1.6c0.2,0.2,0.5,0.5,0.5,0.5
		c0,0,0,0.1-0.1,0.2c-0.1,0.2-0.2,0.4-0.4,0.6c-2.1,2.8-3.9,5.1-5.3,6.6c-1.3,1.3-3.5,5.2-5.3,7.5c-2.3,3.1-5.5,7.3-13.2,18.1
		c-1.5,2.1-8,9.1-9.1,11.4c-0.5,1.1-3.6,5.9-5.8,8.6c-0.6,0.6-1.1,1.1-1.5,1.4c0,0-0.1,0.1-0.1,0.1c0-0.2,0-0.4-0.1-0.8
		c-0.2-3.6-0.4-9.2-0.4-10.5c0-0.3,0.3-8.8,0.3-8.8c0-0.2-0.1-0.4-0.2-0.5c-0.1-0.1-0.3-0.2-0.4-0.1c0,0-7.7,1.8-12.2,2.5
		c-8.1,1.4-14.5,2.6-22.7,3.8c-10.8,1.7-14.8,2.5-26.4,4.9c-3.7,0.8-25.4,4-30.1,4.9c-0.6,0.1-1.1,0.3-1.3,0.4c0,0-0.1,0-0.1,0
		c-0.1-0.1-0.1-0.4-0.2-0.7c-0.5-1.6-1.6-5.8-2.6-11.8c-0.4-2.6-0.7-6-1.8-13.2c-0.5-2.8-0.7-4.2-2.3-11.8
		c-0.7-3.2-1.4-9.6-3.8-14.7c2-0.1,7.5-0.5,15.3-2.5c16.3-4.2,24.6-6.6,29.2-7.9c7.6-2,19.7-4.7,26.5-6.1c9.5-2,17.2-3.8,27.6-6
		c0.1,0,0.3-0.1,0.4-0.5c0,0,0-0.2,0-0.5c-0.1-1.9-1.2-11.5-2-16.2c0-0.2-0.3-1.8-0.4-3C1637,2179.6,1637,2179.5,1637,2179.4z"/>
	<g transform="matrix(0.46467,0,0,0.46467,972.685,1339.24)">
		<path class="st6" d="M1442,1818.6c-3.2-2.6-13.4-11.6-12.8-11.8c3-1.2,14.7-0.4,17.8-0.2c4.7,0.3,9.4-0.6,10.1,0.8
			c1.3,2.1,9,10.8,11.6,13.5c7.9,8.2,15.2,16.5,22.7,23.5c12.6,11.7,19.5,18.1,33.3,28.7c3.7,2.9,16.7,13.7,19.7,16.1
			c2,1.7,8.7,7.1,10,8.5c0.3,0.3,4.4,3.6,3.9,3.9c-1.1,0.8-9.8,1-14.8,1c-1.4,0-8,0.7-8.1,0.7c-2.3-2.3-5.3-4-7.9-6.8
			c-6.2-6.8-14.5-14-22.5-21.3c-2.1-1.9-4.3-4-6.4-5.9c-3.3-2.9-13.2-10.6-14.5-12.4c-3.6-4.9-9.4-8.6-13.7-12.8
			c-3.6-3.6-8.8-7.2-12.6-10.5C1452.2,1828.6,1448,1823.4,1442,1818.6z"/>
		<path class="st0" d="M1441.4,1819.6c5.9,4.8,10.2,10,16,15c3.8,3.2,9,6.9,12.6,10.4c4.2,4.2,10.1,7.8,13.6,12.7
			c1.3,1.8,11.3,9.7,14.7,12.6c2.1,1.8,4.3,3.9,6.4,5.9c7.9,7.3,16.2,14.5,22.4,21.3c2.6,2.8,5.6,4.5,7.9,6.8c0,0,0.4,0.4,1,0.3
			c1.1-0.1,6.5-0.7,7.8-0.7c3.5,0,8.9-0.1,12.2-0.4c1.7-0.2,2.9-0.5,3.3-0.8c0.4-0.3,0.9-1.4,0-2.5c-0.8-1.1-3.6-3.3-3.8-3.5
			c-1.4-1.4-8.1-6.9-10.1-8.6c-3-2.4-16-13.3-19.7-16.2c-13.8-10.6-20.7-17-33.2-28.7c-7.5-7-14.8-15.2-22.7-23.4
			c-2.5-2.6-10.2-11.1-11.4-13.3c-0.4-0.6-1.2-1.1-2.5-1.3c-1.9-0.2-5.2,0.2-8.5-0.1c-2.2-0.2-8.7-0.6-13.4-0.4
			c-2.1,0.1-3.9,0.3-4.9,0.7c-0.4,0.2-1.3,1.1-0.4,2.4C1429.8,1809.6,1438.5,1817.3,1441.4,1819.6z M1456.3,1808.2
			c1.4,2.3,9.2,11,11.7,13.6c7.9,8.2,15.3,16.5,22.8,23.5c12.6,11.7,19.6,18.2,33.4,28.8c3.7,2.8,16.7,13.7,19.7,16.1
			c2,1.6,8.6,7.1,10,8.4c0.1,0.1,1.4,1.2,2.5,2.1c-0.2,0-0.5,0.1-0.7,0.1c-3.2,0.3-8.5,0.4-12,0.4c-1.2,0-6.1,0.5-7.7,0.7
			c-2.2-2.1-5-3.8-7.5-6.4c-6.3-6.9-14.6-14.1-22.6-21.4c-2.1-1.9-4.3-4-6.4-5.9c-3.2-2.8-13-10.4-14.3-12.2c-3.6-5-9.5-8.7-13.8-13
			c-3.6-3.6-8.9-7.3-12.7-10.6c-5.8-5-10.1-10.1-16-15c-2.3-1.9-8.4-7.2-11.2-9.9c0.7-0.1,1.5-0.1,2.3-0.1c4.6-0.2,11,0.3,13.1,0.4
			c2.8,0.2,5.7,0,7.6,0c0.6,0,1.1,0.1,1.4,0.2C1456.1,1808.1,1456.3,1808.1,1456.3,1808.2z"/>
	</g>
	<g id="Ebene21" transform="matrix(0.432796,-0.196479,-0.145591,-0.432796,1549.58,4902.36)" serif:id="Ebene2">
		<path class="st0" d="M1778.7,5305.8c0.2-0.1,0.5-0.2,0.9-0.4c0.4-0.2,0.8-0.3,1.3-0.5c1-0.3,2.1-0.7,3.3-1.1
			c3.1-0.9,6.6-1.8,8.2-2.3c3.6-1.1,9.1-2.5,13.4-3.5c1.5-0.4,2.9-0.7,4-0.9c0.6-0.1,1.1-0.4,1.5-0.3c0.1,0,0.1,0.1,0.2,0.1
			c0.2-0.1,0.5,0.1,0.6,0.3c0.1,0.3-0.1,0.6-0.3,0.6c-0.1,0.1-0.1,0.1-0.1,0.2c-0.4,0.3-0.9,0.4-1.5,0.6c-1.1,0.4-2.5,0.8-4,1.2
			c-4.3,1.2-9.8,2.4-13.4,3.5c-1.6,0.5-5.1,1.4-8.3,2.1c-1.2,0.3-2.4,0.5-3.4,0.6c-0.5,0.1-0.9,0.2-1.4,0.2c-0.4,0-0.7,0-0.9,0
			c-0.2,0-0.3-0.1-0.4-0.3C1778.4,5306,1778.5,5305.8,1778.7,5305.8z"/>
		<path class="st0" d="M1833,5292.6c0.6-0.3,1.4-0.7,2.4-1.1c0.2-0.1,0.4-0.1,0.6-0.2c1.4-0.4,3-0.7,4.3-1c1.3-0.2,2.3-0.4,2.9-0.4
			c0.3-0.1,0.6,0.2,0.7,0.6c0,0.4-0.2,0.7-0.5,0.8c-0.6,0.1-1.6,0.5-2.8,0.8c-1.3,0.4-2.9,0.8-4.3,1.1c-0.2,0-0.4,0.1-0.6,0.1
			c-1,0.1-1.9,0.1-2.5,0.2c-0.2,0-0.4-0.1-0.4-0.3C1832.7,5292.9,1832.8,5292.7,1833,5292.6z"/>
		<path class="st0" d="M1790.6,5328.7C1790.6,5328.8,1790.5,5328.8,1790.6,5328.7c-0.3,0.2-0.6,0-0.7-0.3c0-0.1-0.1-0.5,0.3-0.8
			c0.1-0.1,0.3-0.2,0.7-0.3c0.5-0.2,1.1-0.5,1.9-0.7c1.3-0.4,2.9-0.9,4.6-1.4c0.9-0.2,1.8-0.4,2.6-0.6c1.4-0.3,2.7-0.5,4-0.7
			c0.6-0.1,1.2-0.2,1.8-0.2c1.1-0.1,2-0.1,2.7-0.1c0.2,0,0.4,0.2,0.4,0.4c0,0.2-0.1,0.5-0.4,0.5c-0.8,0.1-1.9,0.5-3.3,0.8
			c-1.5,0.4-3.2,0.8-4.9,1.2c-1.1,0.3-2.2,0.5-3.3,0.8c-1.9,0.4-3.7,0.8-4.9,1C1791.5,5328.5,1790.9,5328.6,1790.6,5328.7
			C1790.6,5328.7,1790.6,5328.8,1790.6,5328.7z M1790.8,5328.5c0-0.1,0-0.2,0-0.3C1790.8,5328.3,1790.8,5328.4,1790.8,5328.5z"/>
		<path class="st0" d="M1786.6,5352.4c0,0,0.4,0,0.9-0.3c0.1,0,0.2-0.1,0.3-0.2c0.3-0.2,0.7-0.3,1.1-0.4c1.7-0.6,3.9-1.2,5.3-1.6
			c1.7-0.5,3.6-1,5.5-1.4c4.3-1,8.8-1.7,12.7-2.7c6.9-1.6,13-2.9,19-4c6-1.2,12.1-2.2,19.1-3.3c2.2-0.3,5.5-0.9,8.9-1.3
			c3.2-0.4,6.5-0.8,8.9-0.9c0.3,0,0.6,0.3,0.6,0.7c0,0.4-0.2,0.7-0.6,0.8c-1.5,0.2-3.3,0.5-5.3,0.8c-4.4,0.7-9.4,1.7-12.3,2.2
			c-7,1.1-13,2.2-19,3.4c-6,1.2-12.1,2.4-19,3.9c-4,0.8-8.5,1.5-12.8,2.4c-1.9,0.4-3.7,0.7-5.4,1.2c-1.4,0.4-3.7,1-5.4,1.3
			c-0.4,0.1-0.8,0.2-1.1,0.2c-0.1,0-0.2,0-0.3,0c-0.6,0.1-0.9,0.3-0.9,0.3c-0.2,0.1-0.4-0.1-0.5-0.4
			C1786.2,5352.8,1786.3,5352.5,1786.6,5352.4z"/>
		<path class="st0" d="M1863.9,5319.4c-0.2,0-0.3-0.1-0.3-0.2c-0.1-0.1,0-0.3,0.3-0.4c0,0,0,0,0,0c0.1,0,0.2,0,0.4-0.1
			c1-0.2,3.8-0.8,4.6-1.2c1.6-0.7,3.2-1.2,4.9-1.6c2.5-0.7,5-1.2,7.5-1.8c6.1-1.4,12.1-2.8,18.2-4.2c6-1.4,12.1-2.9,18.1-4.5
			c4.1-1,8.1-2,12.2-2.8c4.8-1,9.5-1.9,14.3-2.9c4.8-0.9,9.5-1.9,14.3-2.9c1.5-0.3,3.6-0.8,6-1.3c4.2-0.9,9.4-1.8,14.1-2.9
			c6.5-1.4,12.1-2.8,13.3-3.1c6.1-1.8,13.7-3.6,21.1-5c2.9-0.6,5.8-1,8.5-1.4c2-0.3,3.9-0.5,5.7-0.7c0.3,0,0.6,0.2,0.7,0.6
			c0,0.4-0.2,0.7-0.5,0.8c-2,0.3-4.1,0.8-6.4,1.2c-2.4,0.4-4.9,0.9-7.4,1.3c-2.5,0.4-5,0.9-7.4,1.3c-5,0.9-9.9,2-14.1,3
			c-1.2,0.3-6.9,1.5-13.3,3.1c-4.7,1.1-9.8,2.5-13.9,3.5c-2.4,0.6-4.5,1-6,1.4c-4.3,1-8.7,1.9-13.1,2.8c-6.5,1.3-13.1,2.4-19.6,3.8
			c-2.7,0.6-5.4,1.2-8.1,1.8c-4.9,1.2-9.7,2.3-14.6,3.4c-7.3,1.6-14.6,3.2-21.9,4.8c-2.5,0.5-5,1-7.4,1.7c-1.6,0.4-3.3,0.9-4.9,1.5
			c-0.8,0.3-3.6,0.9-4.7,1.1C1864.2,5319.3,1864,5319.4,1863.9,5319.4C1864,5319.4,1863.9,5319.4,1863.9,5319.4z"/>
		<path class="st0" d="M1902.9,5329.7c0,0.1-0.1,0.2-0.3,0.2c-0.2,0-0.3-0.1-0.3-0.3c0-0.2,0.2-0.6,0.8-1c1-0.5,3-1.2,5.5-1.9
			c0.4-0.1,0.9-0.2,1.4-0.3c0.9-0.2,1.8-0.4,2.8-0.6c2.3-0.4,4.6-0.8,6.5-1c0.3,0,0.6-0.1,0.9-0.1c0.5,0,1,0.1,1.4,0.1
			c0.2,0,0.5,0.2,0.5,0.5c0,0.3-0.1,0.5-0.4,0.6c-0.5,0.2-0.9,0.4-1.5,0.6c-0.7,0.2-1.5,0.3-2.3,0.5c-1.7,0.3-3.6,0.7-5.5,1.1
			c-1.3,0.2-2.5,0.5-3.7,0.6c-2.5,0.4-4.5,0.8-5.5,1C1903.1,5329.7,1902.9,5329.8,1902.9,5329.7L1902.9,5329.7z"/>
		<path class="st0" d="M1951.2,5317.9c1.6-0.6,3.4-1.3,5.1-1.8c2.6-0.8,5.2-1.5,7.8-2.1c3.2-0.7,6.4-1.3,9.3-1.5
			c1.4-0.1,2.8-0.1,4,0c0.4,0,0.7,0.3,0.7,0.8c0,0.4-0.3,0.8-0.7,0.8c-1.3,0-2.6,0.2-3.9,0.3c-2.9,0.3-6,0.6-9.2,1.2
			c-2.6,0.5-5.3,1.1-7.8,1.7c-1.8,0.5-3.5,0.9-5.2,1.4c-0.2,0.1-0.4-0.1-0.5-0.3C1950.9,5318.2,1951,5318,1951.2,5317.9z"/>
		<path class="st0" d="M2020.6,5307c0.2,0,0.4,0,0.5,0c0.1,0,0.1,0,0.2,0c0.1,0,0.1-0.1,0.2-0.1c0.6-0.2,1.1-0.2,1.7-0.3
			c0.9-0.2,1.8-0.4,2.6-0.6c2.7-0.7,5.2-1.5,7.7-2.4c4.7-1.5,8.9-3.3,11.6-4.3c0.9-0.3,1.6-0.6,2.1-0.7c0.5-0.1,0.9-0.1,1.1-0.1
			c0.4,0,0.8,0.4,0.8,0.9c0,0.5-0.4,0.9-0.8,0.9c-0.1,0-0.3,0.2-0.6,0.3c-0.4,0.2-1.1,0.4-1.8,0.7c-1.6,0.6-3.7,1.4-6.2,2.2
			c-1.8,0.6-3.8,1.3-5.9,1.9c-2.6,0.7-5.2,1.5-7.9,1.9c-0.9,0.2-1.8,0.3-2.7,0.4c-0.6,0-1.2,0.2-1.7,0.1c-0.1,0-0.1-0.1-0.2-0.1
			c-0.1,0-0.1,0-0.2,0c-0.2,0-0.4,0-0.5,0c-0.2,0-0.3-0.1-0.3-0.3C2020.3,5307.2,2020.5,5307,2020.6,5307z"/>
		<path class="st0" d="M2049,5276.4c2-0.5,3.3-0.9,5.2-1.3c0.7-0.2,1.4-0.3,2.2-0.4l6.9-1.5c0.5-0.1,1,0.2,1.1,0.8
			c0.1,0.6-0.2,1.2-0.7,1.3c-0.1,0.1-0.2,0.1-0.3,0.1c-0.8,0.3-1.7,0.4-2.6,0.5c-2,0.3-3.9,0.5-4.3,0.5l-7.5,0.8
			c-0.2,0-0.4-0.1-0.4-0.4C2048.6,5276.7,2048.8,5276.5,2049,5276.4z"/>
		<path class="st0" d="M1993.6,5238.4L1993.6,5238.4C1993.6,5238.4,1993.6,5238.4,1993.6,5238.4L1993.6,5238.4L1993.6,5238.4
			L1993.6,5238.4L1993.6,5238.4C1993.6,5238.4,1993.6,5238.4,1993.6,5238.4c0.3-0.2,0.6-0.3,0.9-0.2c0.1,0,0.2,0.1,0.3,0.2
			c0.2,0.1,0.2,0.4,0.3,0.7c0,0.2,0,0.5-0.4,1c-0.1,0.1-0.2,0.2-0.5,0.4c-0.1,0.1-0.3,0.1-0.4,0.2c-1.4,0.6-4.6,1.6-8.1,2.1
			c-3.2,0.5-6.7,1.2-10.1,1.8c-1.5,0.2-3,0.5-4.3,0.6c-0.2,0-0.3-0.1-0.4-0.3c0-0.2,0.1-0.4,0.3-0.4l14.2-3.5
			c3.3-0.7,6.3-1.9,7.7-2.5c0.1,0,0.2-0.1,0.3-0.1C1993.4,5238.4,1993.5,5238.4,1993.6,5238.4z M1993.3,5238.9c0-0.1,0-0.1,0-0.2
			c0,0,0-0.1,0-0.1C1993.3,5238.7,1993.3,5238.8,1993.3,5238.9z M1993.4,5239.7c-0.1-0.1-0.1-0.3-0.1-0.4
			C1993.3,5239.4,1993.3,5239.6,1993.4,5239.7z"/>
		<path class="st0" d="M2008.8,5235.8l15-4.9c4-1.3,7.2-2.2,10.2-2.8c3.3-0.7,6.4-1.1,10.4-1.5c3.2-0.3,9.7-1,15.1-1.3
			c0.6,0,1.1,0,1.7,0c0.4,0,0.7,0.3,0.7,0.7c0,0.4-0.2,0.8-0.6,0.8c-0.5,0.1-1.1,0.2-1.7,0.2c-5.4,0.6-11.9,1-15.1,1.2
			c-3.9,0.3-7,0.7-10.3,1.4c-3,0.6-6.1,1.5-10.1,2.6c-3.2,0.9-7,2-10.6,3c-1.6,0.4-3.1,0.8-4.6,1.1c-0.2,0-0.3-0.1-0.4-0.3
			C2008.6,5236.1,2008.7,5235.9,2008.8,5235.8z"/>
		<path class="st0" d="M2068.5,5272.6c0.6-0.2,1.1-0.4,1.7-0.5c0.4-0.1,0.8-0.2,1.1-0.2c1.5-0.3,2.9-0.4,4.4-0.5
			c0.4,0,0.8,0.3,0.8,0.8c0,0.5-0.3,0.9-0.7,0.9c-1.7,0.1-3.3,0.3-5,0.4c-0.7,0-1.4,0-2.2-0.1c-0.2,0-0.4-0.1-0.4-0.3
			C2068.1,5272.8,2068.3,5272.6,2068.5,5272.6z"/>
	</g>
</g>
<g id="Ebene12" transform="matrix(-2.15207,0,0,2.15207,6399.21,-3907.95)" serif:id="Ebene1">
	<g id="Ebene3" transform="matrix(-0.480455,0,0,0.374382,3037.86,2072.84)">
		<g transform="matrix(-2.15207,0,0,2.15207,6399.21,-3907.95)">
			<path class="st5" d="M2506.9,1817.7c0-0.3-0.7-4.2-0.4-4.2c1.5,0,3,0,4.1,0c3,0,4.6,0,6.8,0c1.3,0,2.8,0,2.8,0.1
				c1.2,2.1,3.2,5.1,4.9,6.7c11,10.5,19.7,19.3,30.8,28.2c2.6,2.1,4.8,3.6,7.6,6c0.9,0.8,3.6,3,3.6,3.1c0,1.4-5.8,7.5-7.3,8.9
				c-1.3,1.3-4.1,4.7-5.8,7.1c-2.3,3.1-14.4,19.1-22.1,29.9c-1.5,2.1-4.1,5.7-5.3,8.1c-0.8,1.6-2.1,3.2-2.8,4.8
				c-0.2,0.3-2.9,0.4-4.1,0.3c-1.7,0-3.8,0-5.4-0.5c-0.2-0.1-0.2-2.2-0.3-3.4c-0.2-3.6-0.5-9.3-0.5-10.5c0-0.3,0-2.3,0-2.3
				s-5.5,0.8-10,1.6c-8.1,1.4-15.1,3.3-23.2,4.6c-10.8,1.7-14.6,2-26.2,4.4c-3.7,0.8-12.8,2.9-17.2,4.5c-1.3,0.5-4.5,1-5.9,1.3
				c-0.3,0.1-4.9-2.5-8.4-4.5c-1.7-1-1.9-1.1-2.5-2.9c-0.5-1.6-1.6-5.8-2.6-11.8c-0.4-2.6-0.7-6-1.8-13.2c-0.5-2.8-0.7-4.2-2.3-11.8
				c-0.7-3.4-1.5-10.2-4.2-15.4c0-0.1,6.1,0,16.1-2.6c16.3-4.2,24.6-6.6,29.2-7.9c7.6-2,19.8-4.7,26.5-6.1c9.5-2,17.2-3.8,27.6-6
				C2509,1834.1,2507.8,1822.9,2506.9,1817.7z"/>
			<path class="st0" d="M2508.4,1833.6c-0.2-2.4-1.2-11.3-1.9-15.8l0,0c0-0.2-0.5-2.9-0.5-3.9c0-0.4,0.1-0.7,0.2-0.8
				c0.1-0.2,0.3-0.2,0.4-0.2c1.5,0,3,0,4.1,0c3,0,4.6,0,6.8,0c1.3,0,2.6,0,2.9,0.1c0.2,0.1,0.3,0.2,0.4,0.3c1.2,2.1,3.1,5,4.8,6.6
				c11,10.5,19.7,19.3,30.8,28.1c2.6,2.1,4.8,3.6,7.6,6.1c0.8,0.7,3.1,2.6,3.6,3.1c0.2,0.3,0.3,0.5,0.3,0.6c0,0.2,0,0.3-0.1,0.6
				c-0.1,0.3-0.3,0.7-0.6,1.2c-1.6,2.3-5.5,6.5-6.7,7.7c-1.3,1.3-4,4.7-5.8,7c-2.3,3.1-14.4,19.1-22.1,29.8c-1.5,2.1-4.1,5.7-5.2,8
				c-0.8,1.6-2,3.2-2.8,4.8c0,0.1-0.1,0.2-0.3,0.3c-0.1,0.1-0.2,0.1-0.5,0.2c-0.8,0.2-2.9,0.2-3.8,0.2c-1.8,0-3.9,0-5.5-0.6
				c-0.1,0-0.2-0.1-0.3-0.2c-0.1-0.1-0.1-0.3-0.2-0.6c-0.1-0.6-0.1-2.2-0.2-3.2c-0.2-3.7-0.5-9.3-0.5-10.6c0-0.2,0-1,0-1.6
				c-1.5,0.2-5.8,0.9-9.4,1.5c-8.1,1.4-15.1,3.3-23.2,4.6c-10.8,1.7-14.6,2-26.2,4.4c-3.7,0.8-12.8,2.9-17.1,4.4
				c-1.3,0.5-4.5,1-6,1.3c0,0-0.1,0-0.2,0c-0.1,0-0.4-0.1-0.7-0.3c-1.5-0.7-5-2.6-7.8-4.2c-1.2-0.7-1.7-1-2.1-1.5
				c-0.3-0.4-0.4-0.9-0.7-1.7c-0.5-1.6-1.6-5.8-2.6-11.9c-0.4-2.6-0.7-6-1.8-13.2c-0.5-2.8-0.7-4.2-2.3-11.7
				c-0.7-3.3-1.4-10.1-4.1-15.2c-0.1-0.1-0.1-0.3-0.1-0.4c0-0.1,0-0.3,0.2-0.5c0,0,0.2-0.1,0.5-0.2c1-0.1,6.9-0.2,15.8-2.5
				c16.3-4.2,24.6-6.6,29.2-7.9c7.6-2,19.8-4.7,26.5-6.1C2490.6,1837.5,2498.2,1835.7,2508.4,1833.6z M2507,1814.1
				c0,0.2,0,0.3,0,0.5c0.1,1.2,0.4,2.8,0.4,3c0.8,4.8,1.8,14.3,2,16.2c0,0.3,0,0.5,0,0.6c-0.1,0.4-0.3,0.5-0.4,0.5
				c-10.4,2.2-18.1,4-27.6,6c-6.8,1.4-18.9,4.1-26.5,6.1c-4.6,1.2-12.9,3.7-29.2,7.9c-7.8,2-13.3,2.4-15.3,2.5
				c2.4,5.1,3.1,11.5,3.8,14.6c1.6,7.6,1.8,9,2.3,11.8c1.2,7.2,1.4,10.6,1.8,13.2c0.9,6,2.1,10.1,2.6,11.7c0.2,0.6,0.3,1,0.5,1.3
				c0.3,0.5,0.8,0.7,1.7,1.2c2.8,1.6,6.3,3.5,7.7,4.2c0.2,0.1,0.4,0.2,0.5,0.2c1.4-0.3,4.5-0.8,5.8-1.3c4.4-1.6,13.5-3.7,17.3-4.5
				c11.6-2.4,15.5-2.7,26.2-4.4c8.1-1.3,15.1-3.2,23.2-4.6c4.5-0.8,10-1.6,10-1.6c0.1,0,0.3,0,0.4,0.2c0.1,0.1,0.2,0.3,0.2,0.5
				c0,0,0,2,0,2.3c0,1.2,0.2,6.9,0.5,10.5c0,0.8,0.1,1.9,0.1,2.6c0,0.1,0,0.2,0,0.3c1.5,0.4,3.4,0.4,5,0.4c0.9,0,3.3-0.2,3.8-0.2
				c0.8-1.5,2-3.1,2.7-4.6c1.2-2.4,3.8-6,5.3-8.1c7.7-10.7,19.8-26.7,22.1-29.9c1.8-2.4,4.5-5.8,5.9-7.1c1-1,4.1-4.3,5.9-6.6
				c0.4-0.6,0.8-1.1,1-1.5c0,0,0-0.1,0.1-0.1c-0.7-0.7-2.6-2.2-3.3-2.8c-2.8-2.4-5-4-7.6-6c-11.1-8.9-19.8-17.7-30.8-28.2
				c-1.7-1.6-3.7-4.5-4.9-6.7c-0.4,0-1.6-0.1-2.5-0.1c-2.2,0-3.8,0-6.8,0C2509.6,1814.1,2508.3,1814.1,2507,1814.1z"/>
		</g>
		<g transform="matrix(-2.15207,0,0,2.15207,6399.21,-3907.95)">
			<path class="st4" d="M2506.9,1817.7c0-0.3-0.7-4.2-0.4-4.2c1.5,0,3,0,4.1,0c3,0,4.6,0,6.8,0c1.3,0,2.8,0,2.8,0.1
				c1.2,2.1,3.2,5.1,4.9,6.7c11,10.5,19.7,19.3,30.8,28.2c2.6,2.1,4.8,3.6,7.6,6c0.9,0.8,3.6,3,3.6,3.1c0,1.4-18.9-3.2-20.4-1.7
				c-1.3,1.3-33.1,44-33.1,44s-5.5,0.8-10,1.6c-8.1,1.4-15.1,3.3-23.2,4.6c-10.8,1.7-14.6,2-26.2,4.4c-3.7,0.8-12.8,2.9-17.2,4.5
				c-1.3,0.5-4.5,1-5.9,1.3c-0.3,0.1-4.9-2.5-8.4-4.5c-1.7-1-1.9-1.1-2.5-2.9c-0.5-1.6-1.6-5.8-2.6-11.8c-0.4-2.6-0.7-6-1.8-13.2
				c-0.5-2.8-0.7-4.2-2.3-11.8c-0.7-3.4-1.5-10.2-4.2-15.4c0-0.1,6.1,0,16.1-2.6c16.3-4.2,24.6-6.6,29.2-7.9
				c7.6-2,19.8-4.7,26.5-6.1c9.5-2,17.2-3.8,27.6-6C2509,1834.1,2507.8,1822.9,2506.9,1817.7z"/>
			<path class="st0" d="M2508.4,1833.6c-0.2-2.4-1.2-11.3-1.9-15.8c0-0.2-0.5-2.9-0.5-3.9c0-0.4,0.1-0.7,0.2-0.8
				c0.1-0.2,0.3-0.2,0.4-0.2c1.5,0,3,0,4.1,0c3,0,4.6,0,6.8,0c1.3,0,2.6,0,2.9,0.1c0.2,0.1,0.3,0.2,0.4,0.3c1.2,2.1,3.1,5,4.8,6.6
				c11,10.5,19.7,19.3,30.8,28.1c2.6,2.1,4.8,3.6,7.6,6.1c0.8,0.7,3.1,2.6,3.6,3.1c0.2,0.3,0.3,0.5,0.3,0.6c0,0.3-0.1,0.5-0.4,0.7
				c-0.1,0.1-0.3,0.1-0.5,0.2c-0.4,0-0.9,0-1.7,0c-3.4-0.3-10.5-1.7-14.9-2.1c-1.1-0.1-2-0.1-2.6-0.1c-0.2,0-0.3,0-0.5,0.1
				c-0.1,0-0.1,0-0.1,0c-1.3,1.3-33,43.9-33,43.9c-0.1,0.1-0.2,0.2-0.3,0.2c0,0-5.5,0.8-10,1.6c-8.1,1.4-15.1,3.3-23.2,4.6
				c-10.8,1.7-14.6,2-26.2,4.4c-3.7,0.8-12.8,2.9-17.1,4.4c-1.3,0.5-4.5,1-6,1.3c0,0-0.1,0-0.2,0c-0.1,0-0.4-0.1-0.7-0.3
				c-1.5-0.7-5-2.6-7.8-4.2c-1.2-0.7-1.7-1-2.1-1.5c-0.3-0.4-0.4-0.9-0.7-1.7c-0.5-1.6-1.6-5.8-2.6-11.9c-0.4-2.6-0.7-6-1.8-13.2
				c-0.5-2.8-0.7-4.2-2.3-11.7c-0.7-3.3-1.4-10.1-4.1-15.2c-0.1-0.1-0.1-0.3-0.1-0.4c0-0.1,0-0.3,0.2-0.5c0,0,0.2-0.1,0.5-0.2
				c1-0.1,6.9-0.2,15.8-2.5c16.3-4.2,24.6-6.6,29.2-7.9c7.6-2,19.8-4.7,26.5-6.1C2490.6,1837.5,2498.2,1835.7,2508.4,1833.6z
				 M2507,1814.1c0,0.2,0,0.3,0,0.5c0.1,1.2,0.4,2.8,0.4,3c0.8,4.8,1.8,14.3,2,16.2c0,0.3,0,0.5,0,0.6c-0.1,0.4-0.3,0.5-0.4,0.5
				c-10.4,2.2-18.1,4-27.6,6c-6.8,1.4-18.9,4.1-26.5,6.1c-4.6,1.2-12.9,3.7-29.2,7.9c-7.8,2-13.3,2.4-15.3,2.5
				c2.4,5.1,3.1,11.5,3.8,14.6c1.6,7.6,1.8,9,2.3,11.8c1.2,7.2,1.4,10.6,1.8,13.2c0.9,6,2.1,10.1,2.6,11.7c0.2,0.6,0.3,1,0.5,1.3
				c0.3,0.5,0.8,0.7,1.7,1.2c2.8,1.6,6.3,3.5,7.7,4.2c0.2,0.1,0.4,0.2,0.5,0.2c1.4-0.3,4.5-0.8,5.8-1.3c4.4-1.6,13.5-3.7,17.3-4.5
				c11.6-2.4,15.5-2.7,26.2-4.4c8.1-1.3,15.1-3.2,23.2-4.6c4-0.7,8.8-1.4,9.8-1.6c2.2-2.9,31.7-42.6,33-43.9
				c0.1-0.1,0.3-0.2,0.5-0.3c0.4-0.1,1-0.2,1.7-0.1c3.9,0.1,12.6,1.9,16.5,2.2c0.2,0,0.5,0,0.7,0c-0.9-0.7-2.1-1.7-2.6-2.2
				c-2.8-2.4-5-4-7.6-6c-11.1-8.9-19.8-17.7-30.8-28.2c-1.7-1.6-3.7-4.5-4.9-6.7c-0.4,0-1.6-0.1-2.5-0.1c-2.2,0-3.8,0-6.8,0
				C2509.6,1814.1,2508.3,1814.1,2507,1814.1z"/>
		</g>
		<g transform="matrix(-1,0,0,1,4305.93,-1025.81)">
			<path class="st6" d="M3314.4,1032.7c-3.2-2.6-13.4-11.6-12.8-11.8c3-1.2,14.7-0.4,17.8-0.2c4.7,0.3,9.4-0.6,10.1,0.8
				c1.3,2.1,9,10.8,11.6,13.5c7.9,8.2,15.2,16.5,22.7,23.5c12.6,11.7,19.5,18.1,33.3,28.7c3.7,2.9,16.7,13.7,19.7,16.1
				c2,1.7,8.7,7.1,10,8.5c0.3,0.3,4.4,3.6,3.9,3.9c-1.1,0.8-9.8,1-14.8,1c-1.4,0-8,0.7-8.1,0.7c-2.3-2.3-5.3-4-7.9-6.8
				c-6.2-6.8-14.5-14-22.5-21.3c-2.1-1.9-4.3-4-6.4-5.9c-3.3-2.9-13.2-10.6-14.5-12.4c-3.6-4.9-9.4-8.6-13.7-12.8
				c-3.6-3.6-8.8-7.2-12.6-10.5C3324.6,1042.7,3320.4,1037.6,3314.4,1032.7z"/>
			<path class="st0" d="M3313.8,1033.9c-2.9-2.4-11.6-10-12.9-11.7c-0.4-0.5-0.4-1-0.4-1.2c0-0.7,0.2-1.2,0.8-1.4
				c3-1.2,15-0.4,18.2-0.2c3.3,0.2,6.6-0.1,8.5,0.1c1.2,0.1,2.1,0.6,2.4,1.2c1.2,2.1,8.9,10.6,11.4,13.3
				c7.8,8.2,15.2,16.4,22.7,23.4c12.5,11.7,19.5,18.1,33.2,28.7c3.7,2.9,16.8,13.7,19.7,16.2c2,1.7,8.8,7.2,10.1,8.6
				c0.2,0.2,1.9,1.5,3,2.6c0.7,0.7,1.1,1.3,1.3,1.6c0.2,0.5,0.1,0.9,0.1,1.2c-0.1,0.3-0.2,0.6-0.5,0.8c-0.4,0.3-1.6,0.6-3.2,0.8
				c-3.3,0.3-8.6,0.4-12.2,0.4c-1.2,0-6.7,0.6-7.8,0.7c-0.6,0-0.9-0.3-0.9-0.3c-2.3-2.3-5.3-4-7.9-6.8c-6.2-6.8-14.5-14-22.4-21.3
				c-2.1-1.9-4.2-4-6.4-5.9c-3.3-2.9-13.4-10.7-14.7-12.6c-3.5-4.9-9.4-8.5-13.6-12.7c-3.5-3.5-8.8-7.2-12.6-10.4
				C3324,1043.9,3319.8,1038.8,3313.8,1033.9z M3304,1021.8c2.9,2.8,8.7,7.9,11,9.7c5.9,4.9,10.2,10,16,15c3.8,3.3,9.1,7,12.7,10.5
				c4.3,4.3,10.2,8,13.8,13c1.3,1.8,11.1,9.3,14.3,12.2c2.1,1.9,4.3,3.9,6.4,5.9c8,7.4,16.3,14.6,22.6,21.4c2.4,2.7,5.3,4.3,7.5,6.4
				c1.5-0.1,6.5-0.7,7.7-0.7c3.5,0,8.7-0.1,12-0.4c0.2,0,0.4,0,0.5-0.1c-1-0.9-2.1-1.8-2.3-1.9c-1.3-1.3-8-6.8-10-8.4
				c-3-2.4-16-13.3-19.7-16.1c-13.8-10.6-20.8-17.1-33.4-28.8c-7.5-7-14.9-15.3-22.8-23.5c-2.6-2.7-10.3-11.3-11.7-13.6
				c-0.1,0-0.2-0.1-0.3-0.1c-0.4-0.1-0.9-0.1-1.5-0.2c-2-0.1-4.8,0.2-7.6,0C3316.8,1021.9,3308.4,1021.3,3304,1021.8z"/>
		</g>
		<g transform="matrix(-2.15207,0,0,2.15207,6398.62,-3907.48)">
			<path class="st1" d="M2506.7,1817.5c0-0.3-0.7-4.2-0.4-4.2c1.5,0,3.9,3.4,6.1,5.7c4.9,4.9,7.3,7.1,9.8,9.3
				c5.7,5,11.9,10.2,22.5,19.6c3.3,2.9,5.9,5.7,8.6,8.3c2.6,2.5,3.1,2.2,1.9,3.8c-2.1,2.8-3.9,5.2-5.4,6.7c-1.3,1.3-3.5,5.1-5.2,7.5
				c-2.3,3.1-5.5,7.3-13.2,18.1c-1.5,2.1-7.9,9-9.1,11.4c-0.8,1.6-6.7,11-8.3,10.4c-0.2-0.1-0.2-0.2-0.2-1.4
				c-0.2-3.6-0.5-9.3-0.5-10.5c0-0.3,0.3-8.9,0.3-8.9s-7.7,1.8-12.2,2.5c-8.1,1.4-14.5,2.6-22.7,3.8c-10.8,1.7-14.8,2.5-26.4,4.9
				c-3.7,0.8-25.4,4-30.1,4.9c-2,0.4-1.8,1.2-2.3-0.6c-0.5-1.6-1.6-5.8-2.6-11.8c-0.4-2.6-0.7-6-1.8-13.2c-0.5-2.8-0.7-4.2-2.3-11.8
				c-0.7-3.4-1.5-10.2-4.2-15.4c0-0.1,6.1,0,16.1-2.6c16.3-4.2,24.6-6.6,29.2-7.9c7.6-2,19.8-4.7,26.5-6.1c9.5-2,17.2-3.8,27.6-6
				C2508.8,1834,2507.6,1822.8,2506.7,1817.5z"/>
			<path class="st4" d="M2508.1,1833.4c-0.2-2.4-1.2-11.3-1.9-15.8c0-0.2-0.5-2.9-0.5-3.9c0-0.4,0.1-0.7,0.2-0.8
				c0.1-0.2,0.3-0.2,0.4-0.2c0.7,0,1.5,0.6,2.4,1.5c1.2,1.2,2.6,2.9,4,4.3c4.8,4.9,7.3,7.1,9.8,9.3c5.7,5,11.9,10.2,22.5,19.6
				c3.3,2.9,6,5.7,8.7,8.3c1.3,1.3,2.1,1.9,2.4,2.3c0.3,0.4,0.3,0.7,0.3,1.1c-0.1,0.3-0.3,0.7-0.7,1.3c-2.1,2.8-3.9,5.2-5.4,6.7
				c-1.3,1.3-3.4,5.1-5.2,7.4c-2.3,3.1-5.5,7.3-13.2,18.1c-1.5,2.1-7.9,9-9,11.3c-0.6,1.1-3.7,6.1-6,8.8c-0.8,0.9-1.4,1.5-2,1.8
				c-0.3,0.2-0.6,0.2-0.8,0.1c-0.2-0.1-0.4-0.2-0.5-0.6c0-0.2-0.1-0.6-0.1-1.4c-0.2-3.7-0.5-9.3-0.5-10.6c0-0.3,0.2-5.9,0.2-8.1
				c-1.9,0.4-7.9,1.8-11.6,2.4c-8.1,1.4-14.5,2.6-22.7,3.8c-10.8,1.7-14.8,2.5-26.4,4.9c-3.7,0.8-25.4,4-30.1,4.9
				c-1,0.2-1.4,0.5-1.7,0.5c-0.3,0-0.5-0.1-0.7-0.4c-0.1-0.2-0.2-0.5-0.4-1.2c-0.5-1.6-1.6-5.8-2.6-11.9c-0.4-2.6-0.7-6-1.8-13.2
				c-0.5-2.8-0.7-4.2-2.3-11.7c-0.7-3.3-1.4-10.1-4.1-15.2c-0.1-0.1-0.1-0.3-0.1-0.4c0-0.1,0-0.3,0.2-0.5c0,0,0.2-0.1,0.5-0.2
				c1-0.1,6.9-0.2,15.8-2.5c16.3-4.2,24.6-6.6,29.2-7.9c7.6-2,19.8-4.7,26.5-6.1C2490.4,1837.4,2498,1835.6,2508.1,1833.4z
				 M2506.8,1814.1c0,0.1,0,0.2,0,0.4c0.1,1.2,0.4,2.8,0.4,3l0,0c0.8,4.8,1.8,14.3,2,16.2c0,0.3,0,0.5,0,0.6
				c-0.1,0.4-0.3,0.5-0.4,0.5c-10.4,2.2-18.1,4-27.6,6c-6.8,1.4-18.9,4.1-26.5,6.1c-4.6,1.2-12.9,3.7-29.2,7.9
				c-7.8,2-13.3,2.4-15.3,2.5c2.4,5.1,3.1,11.5,3.8,14.6c1.6,7.6,1.8,9,2.3,11.8c1.2,7.2,1.4,10.6,1.8,13.2c0.9,6,2.1,10.1,2.6,11.7
				c0.1,0.3,0.1,0.5,0.2,0.6c0.2-0.1,0.8-0.3,1.5-0.4c4.7-0.8,26.4-4.1,30.1-4.9c11.6-2.4,15.6-3.3,26.4-4.9
				c8.1-1.2,14.6-2.4,22.7-3.8c4.5-0.8,12.2-2.5,12.2-2.5c0.2,0,0.3,0,0.4,0.2c0.1,0.1,0.2,0.3,0.2,0.5c0,0-0.3,8.5-0.3,8.8
				c0,1.2,0.2,6.9,0.5,10.5c0,0.3,0,0.6,0.1,0.7c0.1,0,0.1-0.1,0.2-0.1c0.4-0.3,0.9-0.8,1.5-1.4c2.3-2.6,5.3-7.5,5.8-8.6
				c1.2-2.4,7.6-9.3,9.1-11.5c7.7-10.7,10.9-15,13.2-18.1c1.8-2.4,3.9-6.2,5.3-7.5c1.5-1.5,3.2-3.8,5.3-6.6c0.2-0.3,0.4-0.6,0.5-0.7
				c0,0-0.1-0.1-0.1-0.1c-0.1-0.1-0.2-0.2-0.4-0.4c-0.4-0.4-1-0.9-1.8-1.6c-2.7-2.6-5.3-5.4-8.6-8.3c-10.6-9.4-16.8-14.6-22.5-19.6
				c-2.5-2.2-5-4.4-9.9-9.3c-1.3-1.4-2.7-3.1-4-4.3C2507.6,1814.7,2507.2,1814.3,2506.8,1814.1z"/>
		</g>
	</g>
	<g id="Ebene22" transform="matrix(0.46467,0,0,0.46467,1012.29,1356.62)" serif:id="Ebene2">
		<path class="st0" d="M3125.3,1643.1c0.2-0.1,0.5-0.2,0.8-0.4c0.4-0.1,0.8-0.3,1.3-0.4c1-0.3,2.1-0.7,3.3-1
			c3.1-0.9,6.6-1.8,8.2-2.3c3.6-1.1,9.1-2.5,13.4-3.5c1.5-0.4,2.9-0.7,4-0.9c0.6-0.1,1.1-0.4,1.5-0.3c0.1,0,0.1,0,0.2,0.1
			c0.2-0.1,0.5,0,0.6,0.3c0.1,0.2,0,0.5-0.3,0.6c-0.1,0.1-0.1,0.1-0.1,0.2c-0.4,0.3-0.9,0.4-1.5,0.6c-1.1,0.4-2.5,0.8-4,1.2
			c-4.3,1.2-9.8,2.4-13.4,3.5c-1.6,0.5-5.1,1.4-8.3,2.1c-1.2,0.3-2.4,0.5-3.4,0.7c-0.5,0.1-1,0.2-1.4,0.2c-0.4,0-0.7,0-0.9,0.1
			c-0.2,0-0.3-0.1-0.4-0.2C3125,1643.3,3125.1,1643.2,3125.3,1643.1z"/>
		<path class="st0" d="M3137.2,1666c0,0-0.1,0.1-0.1,0.1c-0.2,0.1-0.5,0-0.6-0.3c0-0.1-0.1-0.4,0.3-0.6c0.1-0.1,0.3-0.2,0.7-0.3
			c0.5-0.2,1.1-0.4,1.9-0.7c1.2-0.4,2.8-0.9,4.6-1.3c0.9-0.2,1.8-0.4,2.6-0.6c1.4-0.3,2.7-0.5,4-0.8c0.6-0.1,1.2-0.2,1.8-0.3
			c1.1-0.1,2.1-0.2,2.7-0.2c0.2,0,0.4,0.1,0.4,0.3c0,0.2-0.1,0.4-0.3,0.4c-0.8,0.1-1.9,0.4-3.3,0.8c-1.5,0.4-3.2,0.8-4.9,1.2
			c-1.1,0.3-2.2,0.5-3.3,0.8c-1.9,0.4-3.7,0.8-4.9,1.1C3138.1,1665.8,3137.5,1665.9,3137.2,1666
			C3137.3,1666,3137.2,1666,3137.2,1666z"/>
		<g transform="matrix(1,0,0,1,106.412,-18.0837)">
			<path class="st0" d="M3050.8,1703.8c0,0,0.4,0,0.9-0.3c0.1,0,0.2-0.1,0.3-0.2c0.3-0.1,0.7-0.3,1.1-0.4c1.7-0.5,3.9-1.2,5.3-1.6
				c1.7-0.5,3.6-1,5.4-1.4c4.3-0.9,8.8-1.7,12.7-2.6c6.9-1.6,12.9-2.9,19-4c6.1-1.2,12.1-2.2,19.1-3.4c2.2-0.3,5.5-0.9,8.9-1.3
				c3.2-0.4,6.5-0.8,9-0.9c0.3,0,0.6,0.2,0.7,0.6c0,0.3-0.2,0.6-0.6,0.7c-1.5,0.2-3.3,0.4-5.3,0.8c-4.4,0.7-9.4,1.6-12.3,2.2
				c-7,1.1-13,2.2-19,3.4c-6,1.2-12,2.4-19,3.9c-4,0.8-8.5,1.6-12.8,2.4c-1.9,0.4-3.7,0.7-5.4,1.2c-1.4,0.4-3.7,1-5.4,1.3
				c-0.4,0.1-0.8,0.2-1.1,0.2c-0.1,0-0.2,0-0.3,0c-0.6,0.1-0.9,0.3-0.9,0.3c-0.2,0.1-0.5-0.1-0.5-0.3
				C3050.5,1704.1,3050.6,1703.9,3050.8,1703.8z"/>
		</g>
		<path class="st0" d="M3210.5,1656.6c-0.2,0-0.3-0.1-0.3-0.2c-0.1-0.1,0-0.3,0.3-0.4c0,0,0,0,0,0c0.1,0,0.2,0,0.4-0.1
			c1-0.2,3.8-0.8,4.5-1.1c1.6-0.6,3.2-1.2,4.9-1.6c2.5-0.7,5-1.2,7.5-1.8c6.1-1.4,12.1-2.8,18.2-4.2c6-1.4,12.1-2.9,18.1-4.4
			c4.1-1,8.1-2,12.2-2.8c4.8-1,9.5-1.9,14.3-2.9c4.8-0.9,9.5-1.9,14.3-2.9c1.5-0.3,3.6-0.8,6-1.4c4.2-0.9,9.4-1.9,14.1-2.9
			c6.5-1.4,12.1-2.8,13.3-3.1c6.1-1.7,13.7-3.5,21.1-4.9c2.9-0.5,5.8-1,8.5-1.4c2-0.3,3.9-0.5,5.7-0.7c0.3,0,0.6,0.2,0.7,0.5
			c0,0.3-0.2,0.6-0.5,0.7c-2,0.3-4.1,0.7-6.4,1.1c-2.4,0.4-4.9,0.9-7.4,1.3c-2.5,0.4-5,0.9-7.4,1.3c-5,1-9.9,2-14,3.1
			c-1.2,0.3-6.9,1.6-13.3,3.1c-4.7,1.1-9.8,2.5-13.9,3.5c-2.4,0.6-4.5,1-6,1.4c-4.3,1-8.7,1.9-13.1,2.8c-6.6,1.3-13.1,2.4-19.7,3.8
			c-2.7,0.6-5.4,1.2-8.1,1.8c-4.9,1.2-9.7,2.3-14.6,3.4c-7.3,1.6-14.6,3.2-21.9,4.8c-2.5,0.5-5,1-7.5,1.7c-1.6,0.4-3.3,0.9-4.8,1.5
			c-0.8,0.3-3.6,0.9-4.7,1.1C3210.8,1656.6,3210.6,1656.6,3210.5,1656.6C3210.6,1656.6,3210.5,1656.6,3210.5,1656.6z"/>
		<g transform="matrix(1,0,0,1,-61.3205,-223.264)">
			<path class="st0" d="M3296.9,1839.7C3296.9,1839.7,3296.9,1839.7,3296.9,1839.7C3296.9,1839.7,3296.9,1839.7,3296.9,1839.7
				L3296.9,1839.7C3296.9,1839.7,3296.9,1839.7,3296.9,1839.7L3296.9,1839.7L3296.9,1839.7
				C3296.9,1839.6,3296.9,1839.7,3296.9,1839.7L3296.9,1839.7L3296.9,1839.7c-0.1,0.1-0.2,0.2-0.3,0.2c-0.2,0-0.3-0.1-0.3-0.3
				c0-0.2,0.2-0.5,0.8-0.9c0.9-0.5,3-1.2,5.5-1.8c0.4-0.1,0.9-0.2,1.4-0.3c0.9-0.2,1.8-0.4,2.8-0.6c2.3-0.4,4.6-0.8,6.5-1
				c0.3,0,0.6-0.1,0.9-0.1c0.5,0,1,0.1,1.5,0.1c0.2,0,0.5,0.1,0.5,0.4c0,0.2-0.1,0.5-0.4,0.5c-0.4,0.2-0.8,0.4-1.3,0.5
				c-0.2,0.1-0.4,0.1-0.6,0.1c-2.1,0.4-4.7,0.9-7.3,1.4c-1.1,0.2-2.1,0.4-3.1,0.6c-2.8,0.5-5.1,0.9-6.2,1.2
				C3297.2,1839.6,3297,1839.6,3296.9,1839.7z"/>
		</g>
		<g transform="matrix(1,0,0,1,-123.655,-205.844)">
			<path class="st0" d="M3393.5,1814.5c1.6-0.6,3.3-1.3,5.1-1.8c2.6-0.8,5.2-1.5,7.8-2c3.2-0.7,6.4-1.2,9.3-1.4
				c1.4-0.1,2.8-0.1,4.1,0c0.4,0,0.7,0.3,0.7,0.7c0,0.4-0.3,0.7-0.7,0.7c-1.3,0-2.6,0.2-4,0.3c-2.9,0.3-6,0.6-9.2,1.2
				c-2.6,0.5-5.2,1.1-7.8,1.7c-1.8,0.5-3.5,0.9-5.1,1.5c-0.2,0.1-0.4,0-0.5-0.2C3393.2,1814.8,3393.3,1814.6,3393.5,1814.5z"/>
		</g>
		<path class="st0" d="M3367.2,1644.3c0.2,0,0.4,0,0.5,0c0.1,0,0.1,0,0.2,0c0.1,0,0.1-0.1,0.2-0.1c0.6-0.2,1.1-0.2,1.7-0.3
			c0.9-0.2,1.8-0.3,2.6-0.6c2.7-0.7,5.1-1.5,7.7-2.4c4.7-1.5,8.9-3.3,11.6-4.3c0.9-0.3,1.6-0.6,2.1-0.7c0.5-0.1,0.9-0.2,1.2-0.1
			c0.4,0,0.8,0.4,0.8,0.8s-0.4,0.8-0.8,0.8c-0.1,0-0.3,0.1-0.6,0.2c-0.4,0.2-1,0.4-1.8,0.7c-1.6,0.6-3.7,1.4-6.1,2.2
			c-1.8,0.6-3.8,1.3-6,1.9c-2.6,0.7-5.2,1.5-7.9,2c-0.9,0.2-1.8,0.3-2.7,0.4c-0.6,0.1-1.2,0.2-1.8,0.1c-0.1,0-0.1-0.1-0.2-0.1
			c-0.1,0-0.1,0-0.2,0c-0.2,0-0.4,0-0.5,0c-0.2,0-0.3-0.1-0.3-0.3C3366.9,1644.5,3367.1,1644.4,3367.2,1644.3z"/>
		<g transform="matrix(-0.916202,0.400717,0.400717,0.916202,3937.5,-916.513)">
			<path class="st0" d="M1501.4,2082.7l7.5-0.9c0.4,0,2.3-0.2,4.3-0.6c0.9-0.1,1.8-0.2,2.6-0.5c0.1,0,0.2-0.1,0.3-0.1
				c0.5-0.1,0.8-0.6,0.6-1.1c-0.1-0.5-0.6-0.8-1.1-0.6l-6.9,1.5c-0.8,0.1-1.6,0.3-2.2,0.4c-1.8,0.4-3.2,0.8-5.2,1.2
				c-0.2,0-0.3,0.2-0.3,0.4C1501,2082.6,1501.2,2082.7,1501.4,2082.7z"/>
		</g>
		<g transform="matrix(0.997174,0.0751227,-0.0751227,0.997174,196.584,-284.705)">
			<path class="st0" d="M3335.1,1630.7c0.2-0.1,0.5-0.2,0.7-0.2c1-0.2,1.9-0.4,2.9-0.5c1.2-0.1,2.4-0.1,3.7-0.2
				c0.2,0,0.4,0.1,0.4,0.4c0,0.2-0.1,0.4-0.4,0.4c-1,0.1-2,0.3-3,0.4c-0.4,0.1-0.9,0.1-1.3,0.2c-0.8,0.1-1.5,0.2-2.3,0.2
				c-0.2,0-0.4,0-0.6,0c-0.2,0-0.4-0.1-0.4-0.3C3334.8,1630.9,3334.9,1630.7,3335.1,1630.7z"/>
		</g>
	</g>
</g>
<g id="Ebene13" transform="matrix(2.15207,0,0,2.15207,-2093.28,-2882.14)" serif:id="Ebene1">
	<path class="st4" d="M1461.2,1687.4c0-0.3-0.7-4.2-0.4-4.2c1.5,0,3,0,4.1,0c3,0,4.6,0,6.8,0c1.3,0,2.8,0,2.8,0.1
		c1.2,2.1,3.2,5.1,4.9,6.7c11,10.5,19.7,19.3,30.8,28.2c2.6,2.1,4.8,3.6,7.6,6c0.9,0.8,3.6,3,3.6,3.1c0,1.4-5.8,7.5-7.3,8.9
		c-1.3,1.3-4.1,4.7-5.8,7.1c-2.3,3.1-14.4,19.1-22.1,29.9c-1.5,2.1-4.1,5.7-5.3,8.1c-0.8,1.6-2.1,3.2-2.8,4.8
		c-0.2,0.3-2.9,0.4-4.1,0.3c-1.7,0-3.8,0-5.4-0.5c-0.2-0.1-0.2-2.2-0.3-3.4c-0.2-3.6-0.5-9.3-0.5-10.5c0-0.3,0-2.3,0-2.3
		s-5.5,0.8-10,1.6c-8.1,1.4-15.1,3.3-23.2,4.6c-10.8,1.7-14.6,2-26.2,4.4c-3.7,0.8-12.8,2.9-17.2,4.5c-1.3,0.5-4.5,1-5.9,1.3
		c-0.3,0.1-4.9-2.5-8.4-4.5c-1.7-1-1.9-1.1-2.5-2.9c-0.5-1.6-1.6-5.8-2.6-11.8c-0.4-2.6-0.7-6-1.8-13.2c-0.5-2.8-0.7-4.2-2.3-11.8
		c-0.7-3.4-1.5-10.2-4.2-15.4c0-0.1,6.1,0,16.1-2.6c16.3-4.2,24.6-6.6,29.2-7.9c7.6-2,19.8-4.7,26.5-6.1c9.5-2,17.2-3.8,27.6-6
		C1463.2,1703.9,1462,1692.7,1461.2,1687.4z"/>
	<path class="st0" d="M1462.6,1703.5c-10.2,2.1-17.8,3.9-27.1,5.9c-6.8,1.4-18.9,4.1-26.5,6.1c-4.6,1.2-12.9,3.7-29.2,7.9
		c-9,2.3-14.8,2.5-15.8,2.5c-0.2,0-0.3,0-0.3,0.1c-0.1,0-0.1,0.1-0.2,0.1c-0.2,0.2-0.2,0.4-0.1,0.6c2.7,5.1,3.4,11.9,4.1,15.3
		c1.6,7.6,1.8,9,2.3,11.8c1.2,7.2,1.4,10.6,1.8,13.2c1,6.1,2.1,10.3,2.6,11.9c0.2,0.8,0.4,1.3,0.6,1.6c0.4,0.6,0.9,0.9,2,1.5
		c2.8,1.6,6.4,3.6,7.8,4.2c0.3,0.2,0.6,0.3,0.7,0.3c0.1,0,0.2,0,0.3,0c1.4-0.4,4.6-0.9,6-1.3c4.4-1.6,13.4-3.7,17.1-4.4
		c11.6-2.4,15.4-2.7,26.2-4.3c8.1-1.3,15.1-3.2,23.2-4.6c3.6-0.6,7.8-1.3,9.4-1.5c0,0.6,0,1.5,0,1.7c0,1.2,0.2,6.9,0.5,10.6
		c0.1,1,0.1,2.6,0.2,3.2c0,0.2,0.1,0.4,0.2,0.5c0.1,0.1,0.2,0.2,0.3,0.2c1.6,0.5,3.8,0.5,5.6,0.6c1,0,3,0,3.9-0.2
		c0.2,0,0.4-0.1,0.5-0.2c0.1-0.1,0.2-0.2,0.2-0.3c0.7-1.5,2-3.2,2.8-4.8c1.2-2.3,3.7-5.9,5.2-8c7.7-10.7,19.8-26.7,22.1-29.8
		c1.7-2.3,4.4-5.7,5.8-7c1-1,4.2-4.4,6-6.7c0.6-0.7,1-1.4,1.2-1.9c0.1-0.3,0.2-0.5,0.2-0.7c0-0.1,0-0.3-0.2-0.5
		c-0.5-0.5-2.8-2.4-3.6-3.1c-2.8-2.4-5-4-7.6-6.1c-11.1-8.8-19.7-17.6-30.8-28.1c-1.7-1.6-3.6-4.6-4.8-6.6c0-0.1-0.2-0.3-0.6-0.3
		c-0.5-0.1-1.6-0.1-2.7-0.1c-2.2,0-3.8,0-6.8,0c-1.1,0-2.6,0-4.1,0c-0.2,0-0.5,0.1-0.6,0.6c-0.1,0.7,0.4,4,0.5,4.3l0,0
		C1461.4,1692.1,1462.4,1701.3,1462.6,1703.5z M1474.1,1683.7c1.2,2.1,3.2,5,4.9,6.7c11.1,10.5,19.7,19.3,30.8,28.2
		c2.6,2.1,4.8,3.6,7.6,6c0.7,0.6,2.8,2.3,3.4,2.9c0,0.1-0.1,0.2-0.1,0.3c-0.2,0.4-0.6,0.9-1,1.5c-1.8,2.3-4.9,5.6-5.9,6.6
		c-1.3,1.3-4.1,4.8-5.9,7.1c-2.3,3.1-14.4,19.1-22.1,29.9c-1.5,2.1-4.1,5.8-5.3,8.1c-0.8,1.5-2,3.1-2.7,4.6c-0.1,0-0.4,0.1-0.7,0.1
		c-0.9,0.1-2.3,0.1-3,0.1c-1.6,0-3.5,0-5-0.4c0-0.5-0.1-2.2-0.2-3c-0.2-3.6-0.4-9.2-0.4-10.5c0-0.3,0-2.3,0-2.3
		c0-0.2-0.1-0.3-0.2-0.4c-0.1-0.1-0.3-0.1-0.4-0.1c0,0-5.5,0.8-10,1.6c-8.1,1.4-15.1,3.3-23.2,4.6c-10.8,1.7-14.6,2-26.2,4.4
		c-3.8,0.8-12.9,2.9-17.3,4.5c-1.3,0.5-4.3,0.9-5.7,1.3l0,0c-1-0.4-5-2.6-8.1-4.4c-0.9-0.5-1.4-0.8-1.7-1.2
		c-0.2-0.3-0.3-0.7-0.5-1.3c-0.5-1.6-1.6-5.8-2.6-11.8c-0.4-2.6-0.7-6-1.8-13.2c-0.5-2.8-0.7-4.2-2.3-11.8
		c-0.7-3.2-1.4-9.7-3.8-14.8c2-0.1,7.5-0.5,15.4-2.5c16.3-4.2,24.6-6.6,29.2-7.9c7.6-2,19.7-4.7,26.5-6.1c9.5-2,17.2-3.8,27.6-6
		c0.1,0,0.3-0.1,0.4-0.4c0,0,0-0.2,0-0.5c-0.1-1.9-1.2-11.4-2-16.2l0,0c0-0.2-0.3-2.7-0.4-3.6c1.3,0,2.6,0,3.6,0c3,0,4.7,0,6.8,0
		C1472.6,1683.7,1473.8,1683.7,1474.1,1683.7z"/>
	<path class="st1" d="M1461.2,1687.4c0-0.3-0.7-4.2-0.4-4.2c1.5,0,3.9,3.4,6.1,5.7c4.9,4.9,7.3,7.1,9.8,9.3
		c5.7,5,11.9,10.2,22.5,19.6c3.3,2.9,5.9,5.7,8.6,8.3c2.6,2.5,3.1,2.2,1.9,3.8c-2.1,2.8-3.9,5.2-5.4,6.7c-1.3,1.3-3.5,5.1-5.2,7.5
		c-2.3,3.1-5.5,7.3-13.2,18.1c-1.5,2.1-7.9,9-9.1,11.4c-0.8,1.6-6.7,11-8.3,10.4c-0.2-0.1-0.2-0.2-0.2-1.4
		c-0.2-3.6-0.5-9.3-0.5-10.5c0-0.3,0.3-8.9,0.3-8.9s-7.7,1.8-12.2,2.5c-8.1,1.4-14.5,2.6-22.7,3.8c-10.8,1.7-14.8,2.5-26.4,4.9
		c-3.7,0.8-25.4,4-30.1,4.9c-2,0.4-1.8,1.2-2.3-0.6c-0.5-1.6-1.6-5.8-2.6-11.8c-0.4-2.6-0.7-6-1.8-13.2c-0.5-2.8-0.7-4.2-2.3-11.8
		c-0.7-3.4-1.5-10.2-4.2-15.4c0-0.1,6.1,0,16.1-2.6c16.3-4.2,24.6-6.6,29.2-7.9c7.6-2,19.8-4.7,26.5-6.1c9.5-2,17.2-3.8,27.6-6
		C1463.2,1703.9,1462,1692.7,1461.2,1687.4z"/>
	<path class="st4" d="M1462.6,1703.5c-10.2,2.1-17.8,3.9-27.1,5.9c-6.8,1.4-18.9,4.1-26.5,6.1c-4.6,1.2-12.9,3.7-29.2,7.9
		c-9,2.3-14.8,2.5-15.8,2.5c-0.2,0-0.3,0-0.3,0.1c-0.1,0-0.1,0.1-0.2,0.1c-0.2,0.2-0.2,0.4-0.1,0.6c2.7,5.1,3.4,11.9,4.1,15.3
		c1.6,7.6,1.8,9,2.3,11.8c1.2,7.2,1.4,10.6,1.8,13.2c1,6.1,2.1,10.3,2.6,11.9c0.2,0.6,0.3,0.9,0.4,1.1c0.1,0.2,0.2,0.3,0.3,0.3
		c0.2,0.1,0.4,0.1,0.7,0c0.3-0.1,0.7-0.3,1.5-0.4c4.7-0.8,26.4-4.1,30.1-4.9c11.6-2.4,15.6-3.3,26.4-4.9c8.1-1.3,14.6-2.4,22.7-3.8
		c3.7-0.6,9.6-2,11.6-2.4c-0.1,2-0.3,7.9-0.3,8.2c0,1.2,0.2,6.9,0.5,10.6c0,0.8,0.1,1.1,0.1,1.3c0,0.2,0.1,0.3,0.2,0.3
		c0.1,0.1,0.2,0.1,0.3,0.2c0.2,0.1,0.5,0.1,0.8-0.1c0.3-0.1,0.7-0.4,1.1-0.8c2.4-2.2,6.3-8.6,7-9.8c1.2-2.3,7.5-9.2,9-11.3
		c7.7-10.7,10.9-14.9,13.2-18.1c1.7-2.3,3.8-6.1,5.2-7.4c1.5-1.5,3.3-3.9,5.4-6.7c0.4-0.6,0.6-1,0.7-1.3c0.1-0.4,0-0.7-0.4-1.2
		c-0.4-0.4-1.1-1-2.2-2.1c-2.7-2.6-5.3-5.4-8.7-8.3c-10.6-9.4-16.8-14.6-22.5-19.6c-2.5-2.2-5-4.4-9.8-9.3c-1.6-1.6-3.2-3.7-4.6-4.9
		c-0.7-0.6-1.3-0.9-1.9-0.9c-0.2,0-0.5,0.1-0.6,0.6c-0.1,0.7,0.4,4,0.5,4.3l0,0C1461.4,1692.1,1462.4,1701.3,1462.6,1703.5z
		 M1461.3,1683.9c0.1,0,0.1,0.1,0.2,0.1c0.3,0.2,0.7,0.5,1.1,0.9c1.2,1.2,2.6,2.9,4,4.3c4.9,4.9,7.3,7.1,9.9,9.3
		c5.7,5,11.9,10.2,22.5,19.6c3.3,2.9,5.9,5.7,8.6,8.3c0.8,0.8,1.4,1.3,1.8,1.6c0.2,0.2,0.3,0.3,0.4,0.4c0.1,0.1,0.1,0.1,0.1,0.2
		c0,0.1,0,0.1-0.1,0.2c-0.1,0.2-0.2,0.4-0.4,0.6c-2.1,2.8-3.9,5.1-5.3,6.6c-1.3,1.3-3.5,5.2-5.3,7.5c-2.3,3.1-5.5,7.3-13.2,18.1
		c-1.5,2.1-7.9,9.1-9.1,11.4c-0.5,1.1-3.6,6-5.8,8.6c-0.6,0.6-1.1,1.1-1.5,1.4c0,0-0.1,0-0.1,0.1c0-0.2,0-0.5-0.1-0.8
		c-0.2-3.6-0.4-9.2-0.4-10.5c0-0.3,0.3-8.8,0.3-8.8c0-0.2-0.1-0.3-0.2-0.4c-0.1-0.1-0.3-0.1-0.5-0.1c0,0-7.7,1.8-12.2,2.5
		c-8.1,1.4-14.5,2.6-22.7,3.8c-10.8,1.7-14.8,2.5-26.4,4.9c-3.7,0.8-25.4,4-30.1,4.9c-0.6,0.1-1.1,0.3-1.4,0.4c0,0-0.1,0-0.1,0
		c-0.1-0.2-0.1-0.4-0.2-0.7c-0.5-1.6-1.6-5.8-2.6-11.8c-0.4-2.6-0.7-6-1.8-13.2c-0.5-2.8-0.7-4.2-2.3-11.8
		c-0.7-3.2-1.4-9.7-3.8-14.8c2-0.1,7.5-0.5,15.4-2.5c16.3-4.2,24.6-6.6,29.2-7.9c7.6-2,19.7-4.7,26.5-6.1c9.5-2,17.2-3.8,27.6-6
		c0.1,0,0.3-0.1,0.4-0.4c0,0,0-0.2,0-0.5c-0.1-1.9-1.2-11.4-2-16.2l0,0C1461.7,1687.1,1461.4,1684.9,1461.3,1683.9z"/>
	<g transform="matrix(0.46467,0,0,0.46467,972.685,1339.24)">
		<path class="st6" d="M1063.9,752.4c-3.2-2.6-13.4-11.6-12.8-11.8c3-1.2,14.7-0.4,17.8-0.2c4.7,0.3,9.4-0.6,10.1,0.8
			c1.3,2.1,9,10.8,11.6,13.5c7.9,8.2,15.2,16.5,22.7,23.5c12.6,11.7,19.5,18.1,33.3,28.7c3.7,2.9,16.7,13.7,19.7,16.1
			c2,1.7,8.7,7.1,10,8.5c0.3,0.3,4.4,3.6,3.9,3.9c-1.1,0.8-9.8,1-14.8,1c-1.4,0-8,0.7-8.1,0.7c-2.3-2.3-5.3-4-7.9-6.8
			c-6.2-6.8-14.5-14-22.5-21.3c-2.1-1.9-4.3-4-6.4-5.9c-3.3-2.9-13.2-10.6-14.5-12.4c-3.6-4.9-9.4-8.6-13.7-12.8
			c-3.6-3.6-8.8-7.2-12.6-10.5C1074.1,762.4,1069.8,757.2,1063.9,752.4z"/>
		<path class="st0" d="M1063.2,753.2c5.9,4.8,10.2,10,16,15c3.8,3.2,9,6.9,12.6,10.4c4.2,4.2,10.1,7.8,13.6,12.7
			c1.3,1.8,11.3,9.6,14.7,12.6c2.1,1.8,4.3,3.9,6.4,5.9c8,7.3,16.2,14.5,22.4,21.3c2.6,2.8,5.6,4.5,7.9,6.8c0,0,0.4,0.4,1.1,0.3
			c1.1-0.1,6.5-0.7,7.8-0.7c3.5,0,8.9-0.1,12.2-0.4c1.1-0.1,1.9-0.2,2.5-0.4c0.4-0.1,0.7-0.3,0.8-0.4c0.3-0.2,0.5-0.6,0.5-1
			c0-0.2-0.1-0.6-0.5-1.1c-0.8-1.1-3.6-3.3-3.8-3.5c-1.4-1.4-8.1-6.9-10.1-8.6c-3-2.4-16-13.3-19.7-16.2
			c-13.8-10.6-20.7-17-33.2-28.7c-7.5-7-14.8-15.2-22.7-23.4c-2.5-2.6-10.2-11.2-11.4-13.3c-0.4-0.6-1.2-1.1-2.5-1.2
			c-1.9-0.2-5.2,0.2-8.5-0.1c-2.2-0.2-8.7-0.6-13.4-0.4c-2.2,0.1-4,0.3-4.9,0.7c-0.4,0.2-1.2,0.9-0.4,2
			C1051.6,743.2,1060.3,750.9,1063.2,753.2L1063.2,753.2z M1078.1,741.8c1.4,2.3,9.2,11,11.7,13.6c7.9,8.2,15.3,16.5,22.8,23.5
			c12.6,11.7,19.6,18.2,33.4,28.8c3.7,2.8,16.7,13.7,19.7,16.1c2,1.6,8.6,7.1,10,8.4c0.2,0.2,1.7,1.4,2.8,2.4
			c-0.3,0.1-0.6,0.1-1,0.1c-3.2,0.3-8.5,0.4-12,0.4c-1.2,0-6,0.5-7.6,0.7c-2.2-2.1-5-3.8-7.5-6.4c-6.3-6.9-14.6-14.1-22.6-21.4
			c-2.1-1.9-4.3-4-6.4-5.9c-3.3-2.8-13-10.4-14.3-12.2c-3.6-5-9.5-8.7-13.8-13c-3.6-3.6-8.9-7.3-12.7-10.5c-5.8-5-10.1-10.1-16-15
			l0,0c-2.4-2-8.9-7.6-11.5-10.3c0.7-0.1,1.6-0.1,2.6-0.2c4.6-0.2,11,0.3,13.1,0.4c2.8,0.2,5.7,0,7.6,0c0.6,0,1,0.1,1.4,0.2
			C1078,741.7,1078.1,741.8,1078.1,741.8z"/>
	</g>
	<g id="Ebene23" transform="matrix(0.46467,0,0,0.46467,972.685,1339.24)" serif:id="Ebene2">
		<path class="st0" d="M853.5,879c0.3,0,0.6,0,0.9-0.1c0.4,0,0.9-0.1,1.4-0.2c1-0.2,2.2-0.4,3.4-0.7c3.2-0.7,6.7-1.7,8.3-2.1
			c3.6-1.1,9.1-2.3,13.4-3.5c1.5-0.4,2.9-0.8,4-1.2c0.6-0.2,1.2-0.3,1.5-0.6c0.1-0.1,0.1-0.1,0.1-0.2c0.2-0.1,0.4-0.3,0.3-0.6
			c-0.1-0.2-0.3-0.4-0.6-0.3c-0.1,0-0.1-0.1-0.2-0.1c-0.4,0-1,0.2-1.5,0.3c-1.1,0.2-2.5,0.6-4,0.9c-4.4,1-9.9,2.4-13.4,3.5
			c-1.6,0.5-5.1,1.4-8.2,2.3c-1.2,0.3-2.3,0.7-3.3,1c-0.5,0.2-0.9,0.3-1.3,0.4c-0.3,0.1-0.6,0.3-0.8,0.4c-0.2,0-0.3,0.2-0.2,0.4
			C853.2,878.9,853.4,879.1,853.5,879z"/>
		<path class="st0" d="M907.9,865.9c0.7-0.1,1.6-0.1,2.5-0.2c0.2,0,0.4-0.1,0.6-0.1c1.4-0.3,3-0.7,4.3-1.1c1.2-0.3,2.2-0.6,2.8-0.8
			c0.3-0.1,0.5-0.4,0.5-0.7c-0.1-0.3-0.4-0.5-0.7-0.5c-0.6,0.1-1.7,0.2-3,0.5c-1.4,0.3-2.9,0.6-4.3,1c-0.2,0.1-0.4,0.1-0.6,0.2
			c-0.9,0.3-1.7,0.7-2.4,1c-0.2,0-0.3,0.2-0.3,0.4C907.5,865.9,907.7,866,907.9,865.9z"/>
		<path class="st0" d="M865.3,901.2C865.4,901.2,865.4,901.2,865.3,901.2c0.3-0.1,0.9-0.2,1.6-0.4c1.2-0.3,3-0.6,4.9-1.1
			c1.1-0.2,2.2-0.5,3.3-0.8c1.7-0.4,3.4-0.8,4.9-1.2c1.3-0.3,2.5-0.6,3.3-0.8c0.2,0,0.4-0.2,0.3-0.4c0-0.2-0.2-0.4-0.4-0.3
			c-0.7,0-1.6,0-2.7,0.2c-0.6,0.1-1.2,0.2-1.8,0.3c-1.3,0.2-2.6,0.5-4,0.8c-0.9,0.2-1.8,0.4-2.6,0.6c-2,0.5-3.8,1.1-5.1,1.5
			c-1,0.3-1.6,0.6-1.9,0.8c-0.5,0.2-0.5,0.6-0.5,0.7c0.1,0.2,0.4,0.4,0.6,0.3C865.3,901.3,865.3,901.3,865.3,901.2z"/>
		<path class="st0" d="M861.5,925.9c0,0,0.3-0.2,0.9-0.3c0.1,0,0.2,0,0.3,0c0.3,0,0.7-0.1,1.1-0.2c1.7-0.4,4-1,5.4-1.3
			c1.7-0.4,3.5-0.8,5.4-1.2c4.3-0.8,8.8-1.5,12.8-2.4c6.9-1.5,12.9-2.8,19-3.9c6-1.2,12.1-2.3,19-3.4c2.9-0.5,7.9-1.5,12.3-2.2
			c1.9-0.3,3.8-0.6,5.3-0.8c0.3,0,0.6-0.3,0.6-0.7c0-0.3-0.3-0.6-0.7-0.6c-2.4,0.1-5.7,0.5-9,0.9c-3.4,0.5-6.7,1-8.9,1.3
			c-7,1.1-13.1,2.2-19.1,3.4c-6,1.2-12.1,2.5-19,4c-4,0.9-8.5,1.7-12.7,2.6c-1.9,0.4-3.7,0.9-5.4,1.4c-1.4,0.4-3.7,1.1-5.3,1.6
			c-0.4,0.1-0.8,0.2-1.1,0.4c-0.1,0-0.2,0.1-0.3,0.2c-0.5,0.2-0.9,0.3-0.9,0.3c-0.2,0.1-0.4,0.3-0.3,0.5
			C861,925.8,861.3,925.9,861.5,925.9z"/>
		<path class="st0" d="M938.6,891.4c-0.3,0.1-0.4,0.3-0.3,0.4c0,0.1,0.1,0.2,0.3,0.2c0,0,0.1,0,0.1,0c0.1,0,0.2,0,0.4-0.1
			c1.1-0.2,3.9-0.8,4.7-1.1c1.6-0.6,3.2-1.1,4.8-1.5c2.5-0.6,5-1.2,7.5-1.7c7.3-1.6,14.6-3.1,21.9-4.8c4.9-1.1,9.7-2.2,14.6-3.4
			c2.7-0.7,5.4-1.3,8.1-1.8c6.5-1.4,13.1-2.5,19.7-3.8c4.4-0.8,8.7-1.8,13.1-2.8c1.5-0.4,3.6-0.8,6-1.4c4.2-1,9.3-2.4,13.9-3.5
			c6.5-1.5,12.1-2.8,13.3-3.1c4.2-1.1,9-2.1,14-3.1c2.5-0.5,5-0.9,7.4-1.3c2.5-0.5,5-0.9,7.4-1.3c2.2-0.4,4.4-0.8,6.4-1.1
			c0.3,0,0.6-0.4,0.5-0.7c0-0.3-0.4-0.6-0.7-0.5c-1.8,0.2-3.7,0.4-5.7,0.7c-2.7,0.4-5.6,0.9-8.5,1.4c-7.4,1.4-15,3.2-21.1,4.9
			c-1.2,0.3-6.8,1.7-13.3,3.1c-4.7,1-9.9,2-14.1,2.9c-2.4,0.5-4.5,1-6,1.4c-4.7,1.1-9.5,2-14.3,2.9c-4.8,0.9-9.6,1.9-14.3,2.9
			c-4.1,0.9-8.2,1.8-12.2,2.8c-6,1.6-12.1,3-18.1,4.4c-6.1,1.4-12.1,2.8-18.2,4.2c-2.5,0.6-5,1.1-7.5,1.8c-1.7,0.5-3.3,1-4.9,1.6
			c-0.7,0.3-3.5,0.9-4.5,1.1C938.8,891.3,938.7,891.3,938.6,891.4C938.6,891.3,938.6,891.3,938.6,891.4z"/>
		<path class="st0" d="M977.6,902.2L977.6,902.2L977.6,902.2C977.6,902.2,977.6,902.2,977.6,902.2L977.6,902.2L977.6,902.2
			C977.6,902.2,977.6,902.2,977.6,902.2L977.6,902.2C977.6,902.2,977.6,902.2,977.6,902.2C977.6,902.3,977.6,902.2,977.6,902.2
			c0.1-0.1,0.3-0.1,0.4-0.1c1.1-0.3,3.4-0.7,6.2-1.2c1-0.2,2.1-0.4,3.1-0.6c2.6-0.5,5.2-1,7.3-1.4c0.2,0,0.4-0.1,0.6-0.1
			c0.5-0.1,0.9-0.3,1.3-0.5c0.2,0,0.4-0.3,0.4-0.5c0-0.2-0.3-0.4-0.5-0.4c-0.5,0-0.9-0.1-1.5-0.1c-0.3,0-0.6,0.1-0.9,0.1
			c-1.9,0.2-4.3,0.6-6.5,1c-0.9,0.2-1.9,0.4-2.8,0.6c-0.5,0.1-0.9,0.2-1.4,0.3c-2.5,0.7-4.5,1.3-5.5,1.8c-0.6,0.3-0.8,0.7-0.8,0.9
			c0,0.2,0.2,0.3,0.3,0.3C977.4,902.4,977.6,902.3,977.6,902.2z"/>
		<path class="st0" d="M1026.2,891.2c1.6-0.5,3.4-1,5.1-1.5c2.6-0.7,5.2-1.3,7.8-1.7c3.2-0.6,6.3-0.9,9.2-1.2c1.4-0.1,2.7-0.3,4-0.3
			c0.4,0,0.7-0.3,0.7-0.7c0-0.4-0.3-0.7-0.7-0.7c-1.3,0-2.7-0.1-4.1,0c-3,0.2-6.1,0.8-9.3,1.4c-2.6,0.6-5.3,1.2-7.8,2
			c-1.8,0.5-3.4,1.2-5.1,1.8c-0.2,0.1-0.3,0.3-0.2,0.5C1025.8,891.2,1026,891.3,1026.2,891.2z"/>
		<path class="st0" d="M1095.4,880.2c0.2,0,0.4,0,0.5,0c0.1,0,0.1,0,0.2,0c0.1,0,0.1,0.1,0.2,0.1c0.6,0.1,1.2,0,1.8-0.1
			c0.9-0.1,1.8-0.2,2.7-0.4c2.8-0.5,5.3-1.2,7.9-2c2.1-0.6,4.1-1.3,6-1.9c2.5-0.9,4.6-1.6,6.1-2.2c0.7-0.3,1.3-0.5,1.8-0.7
			c0.3-0.1,0.4-0.2,0.6-0.2c0.4,0,0.8-0.4,0.8-0.8s-0.4-0.8-0.8-0.8c-0.2,0-0.6,0-1.2,0.1c-0.5,0.1-1.3,0.4-2.1,0.7
			c-2.7,1-6.9,2.8-11.6,4.3c-2.6,0.9-5,1.7-7.7,2.4c-0.8,0.2-1.7,0.4-2.6,0.6c-0.5,0.1-1.1,0.1-1.7,0.3c-0.1,0-0.1,0.1-0.2,0.1
			c-0.1,0-0.1,0-0.2,0c-0.2,0-0.4,0-0.5,0c-0.2,0-0.3,0.2-0.3,0.3C1095.1,880.1,1095.2,880.3,1095.4,880.2z"/>
		<path class="st0" d="M1123.8,849.8l7.5-0.9c0.4,0,2.3-0.2,4.3-0.6c0.9-0.1,1.8-0.2,2.6-0.5c0.1,0,0.2-0.1,0.3-0.1
			c0.5-0.1,0.8-0.6,0.6-1.1c-0.1-0.5-0.6-0.8-1.1-0.6l-6.9,1.5c-0.8,0.1-1.6,0.3-2.2,0.4c-1.8,0.4-3.2,0.8-5.2,1.2
			c-0.2,0-0.3,0.2-0.3,0.4C1123.4,849.7,1123.6,849.9,1123.8,849.8z"/>
		<path class="st0" d="M1068.3,811.1C1068.3,811.1,1068.2,811.1,1068.3,811.1L1068.3,811.1L1068.3,811.1L1068.3,811.1
			C1068.2,811.1,1068.2,811.1,1068.3,811.1L1068.3,811.1c-0.1,0-0.2,0-0.3,0c-0.1,0-0.2,0.1-0.3,0.1c-1.4,0.6-4.4,1.7-7.7,2.5
			l-14.2,3.4c-0.2,0-0.3,0.2-0.2,0.4c0,0.2,0.2,0.3,0.4,0.3c1.4-0.2,2.8-0.4,4.3-0.7c3.3-0.6,6.9-1.3,10.1-1.8
			c3.5-0.6,6.7-1.6,8.1-2.2c0.2-0.1,0.3-0.1,0.4-0.2c0.3-0.2,0.4-0.3,0.5-0.4c0.6-0.7,0.4-1.1,0.1-1.3c-0.1-0.1-0.1-0.2-0.3-0.2
			C1068.9,810.8,1068.5,810.9,1068.3,811.1z M1068,811.7c0,0.2,0,0.3,0.1,0.4C1068,812,1068,811.9,1068,811.7z"/>
		<path class="st0" d="M1083.7,809.1c1.4-0.4,3-0.7,4.6-1.2c3.6-1,7.4-2.1,10.6-3c4-1.2,7.1-2,10.1-2.7c3.2-0.7,6.3-1.1,10.3-1.4
			c3.2-0.3,9.7-0.7,15.1-1.2c0.6-0.1,1.1-0.2,1.7-0.2c0.4,0,0.6-0.3,0.6-0.7c0-0.4-0.3-0.6-0.7-0.6c-0.6,0-1.1,0-1.7,0
			c-5.5,0.3-11.9,1-15.1,1.3c-4,0.3-7.2,0.8-10.4,1.5c-3,0.7-6.1,1.6-10.1,2.8l-15,4.8c-0.2,0-0.3,0.2-0.2,0.4
			C1083.4,809,1083.5,809.1,1083.7,809.1z"/>
		<path class="st0" d="M1143.3,845.9c0.8,0,1.5,0.1,2.2,0c1.7-0.1,3.3-0.3,5-0.4c0.4,0,0.7-0.4,0.7-0.8c0-0.4-0.4-0.7-0.8-0.7
			c-1.5,0.1-2.9,0.2-4.4,0.5c-0.4,0.1-0.8,0.1-1.1,0.2c-0.6,0.1-1.1,0.3-1.7,0.5c-0.2,0-0.3,0.2-0.3,0.4
			C1142.9,845.8,1143.1,845.9,1143.3,845.9z"/>
	</g>
</g>
</svg>
