<?xml version="1.0" encoding="UTF-8" standalone="no"?>
<!DOCTYPE svg PUBLIC "-//W3C//DTD SVG 1.1//EN" "http://www.w3.org/Graphics/SVG/1.1/DTD/svg11.dtd">
<svg width="100%" height="100%" viewBox="0 0 1703 318" version="1.1" xmlns="http://www.w3.org/2000/svg" xmlns:xlink="http://www.w3.org/1999/xlink" xml:space="preserve" xmlns:serif="http://www.serif.com/" style="fill-rule:evenodd;clip-rule:evenodd;stroke-linejoin:round;stroke-miterlimit:2;">
    <g transform="matrix(1,0,0,1,-1374.49,-4412.31)">
        <g transform="matrix(1,0,0,1,-0.944037,915.399)">
            <g id="Ebene7" transform="matrix(-1,0,0,-1,4878.21,7357.69)">
                <g transform="matrix(-1,0,0,-1,7183.13,6308.32)">
                    <path d="M5369,2728C5369.16,2719.89 5339.7,2709.42 5334.01,2696.78C5328.71,2685.02 5320.37,2654.14 5324.44,2648.43C5335,2633.62 5356.52,2670.04 5362.95,2677.76C5367.09,2682.71 5377.76,2689.07 5377.56,2684.31C5377.25,2677.18 5374.82,2664.82 5374.9,2623.32C5374.96,2591.04 5372.99,2540.43 5372.99,2527.28C5372.99,2518.06 5380.03,2476.7 5368.14,2478.48C5349.31,2481.3 5299.26,2485.15 5279.28,2489.15C5233.46,2498.31 5198.63,2495.44 5139.92,2482.3C5104.09,2474.28 5086.93,2475.43 5052.15,2475.76C5021.99,2476.05 4948.56,2478.62 4927.35,2481.85C4887.32,2487.95 4216.41,2489.56 4175.78,2490.56C4133.11,2491.61 4090.88,2487.08 4049.06,2482.16C3995.34,2475.84 3937.08,2464.12 3882.87,2461.1C3838.78,2458.65 3786.33,2451.59 3741.57,2452.64C3724.14,2453.05 3693.07,2456.55 3686.2,2477.16C3684.31,2482.84 3685.74,2493.34 3686.02,2507.92C3686.24,2519.29 3692.5,2571.37 3692.25,2590.17C3692.03,2606.45 3686.06,2634.44 3686.01,2641.36C3685.85,2667.24 3686.98,2684.61 3688.03,2713.08C3688.39,2722.6 3690.91,2741.69 3708.53,2750.37C3715.1,2753.6 3727.78,2757.21 3741.95,2758.33C3756.53,2759.48 3776.03,2763.06 3776.46,2755.97C3776.83,2749.69 3778.62,2721.13 3778.62,2721.13C3778.62,2721.13 3796.07,2730.62 3809.26,2734.3C3850.16,2745.7 3870.34,2741.24 3903.72,2741.24C3966.42,2741.24 4036.97,2741.64 4099.13,2746.34C4129.24,2748.62 4181.02,2753.25 4190.37,2752.94C4198.62,2752.67 4879.74,2757.49 4893,2757.49C4920.97,2757.49 4948.65,2756.43 4976.14,2754.47C5016.2,2751.61 5068.74,2742.94 5109,2742.15C5130.01,2741.73 5211.43,2742.51 5246.23,2744.15C5280.05,2745.75 5321.73,2745.23 5354.77,2749.78C5370.28,2751.91 5368.58,2749.5 5369,2728ZM5296.03,2713.08C5299.87,2717.19 5310.3,2714.05 5313.17,2707.33C5316.27,2700.06 5309.19,2693.86 5299.79,2690.21C5290.41,2686.56 5287.06,2703.48 5296.03,2713.08Z" style="fill:rgb(254,202,103);"/>
                </g>
                <g transform="matrix(-0.80088,0,0,-0.920265,4790.36,6811.25)">
                    <path d="M1621.22,3310.95C1621.13,3288.48 1622.59,3244.59 1624.6,3244.59C1637.16,3244.59 1642.15,3252.94 1651.25,3271.04C1658.07,3284.6 1665.53,3301.44 1668.54,3316.45C1671.65,3332.01 1676.92,3366.5 1679.39,3384.87C1683.32,3414.14 1690.19,3445.45 1688.24,3473.34C1686.99,3491.11 1688.41,3491.83 1680.89,3491.48C1676.23,3491.26 1662.17,3492.17 1654.71,3492.6C1643.82,3493.23 1633.56,3500.62 1627.88,3506.11C1623.9,3509.95 1619.44,3504.23 1619.44,3502.32C1619.44,3495.51 1619.65,3483.68 1619.65,3476.77C1619.65,3457.82 1619.9,3436.56 1619.9,3417.6C1619.9,3381.18 1621.37,3346.59 1621.22,3310.95Z" style="fill:rgb(253,222,154);"/>
                </g>
                <g transform="matrix(-1,0,0,-1,7183.13,6308.32)">
                    <path d="M5224.39,2737.48C5206.55,2737.16 5147.73,2736.89 5150.01,2735.47C5158.89,2729.92 5170.29,2726.04 5179.73,2719.41C5190.3,2711.99 5206.07,2701 5214.81,2691.63C5222.21,2683.7 5228.99,2676.39 5232.96,2666.05C5237.67,2653.8 5236.77,2643.99 5231.41,2632.58C5229.08,2627.61 5221.49,2614.17 5219.1,2609.2C5212.37,2595.26 5210.56,2586.85 5198.54,2579.12C5193.41,2575.82 5188.62,2572.04 5183.32,2569.05C5176.69,2565.32 5151.19,2548.13 5145.75,2542.29C5134.44,2530.14 5117.12,2514.21 5118.74,2497.11C5119.13,2492.95 5129.62,2491.3 5132.08,2491.85C5134.98,2492.49 5161.28,2497.2 5169.34,2497.1C5172.39,2497.06 5194.51,2497.21 5200.42,2496.9C5204.99,2496.66 5233.34,2497.08 5237.88,2496.32C5271.89,2490.66 5282.26,2486.92 5307.14,2484.87C5319.26,2483.87 5328.6,2482.25 5341.61,2481.58C5355.67,2480.85 5356.14,2485.06 5356.22,2491.98C5356.33,2500.72 5355.99,2513.64 5355.99,2522.49C5355.99,2540.16 5355.97,2569.32 5356.07,2573.47C5356.52,2591.96 5356.5,2606.74 5356.22,2624.62C5355.99,2639.75 5355.28,2650.86 5354.73,2665.68C5354.55,2670.6 5350.86,2674.94 5346.2,2668.42C5339.24,2658.66 5338.19,2654.05 5328.11,2645.98C5321.52,2640.7 5311.16,2639.21 5310.62,2647.86C5310.05,2656.8 5311,2665.25 5310.54,2673.27C5309.88,2684.83 5318.9,2694.21 5325.36,2702.69C5330.42,2709.34 5338.01,2714.76 5341.13,2717.88C5347.43,2724.18 5355.8,2728.96 5354.97,2737.22C5354.71,2739.79 5354.65,2746.28 5353.69,2748.67C5352.28,2752.18 5342.12,2749.97 5332.51,2749.41C5321.41,2748.76 5298.5,2744.49 5285.11,2744.15C5268.24,2743.72 5229.41,2737.57 5224.39,2737.48ZM5296.03,2713.08C5299.87,2717.19 5310.3,2714.05 5313.17,2707.33C5316.27,2700.06 5309.19,2693.86 5299.79,2690.21C5290.41,2686.56 5287.06,2703.48 5296.03,2713.08Z" style="fill:rgb(234,187,97);"/>
                </g>
                <g transform="matrix(0.878655,-0,-0,0.749607,330.034,447.209)">
                    <path d="M1776.26,4195.02C1773.35,4191.37 1768.57,4189.76 1763.38,4190.74C1756.92,4191.96 1750.06,4197.2 1747.36,4204.63C1744.67,4212.03 1746.15,4218.94 1750.6,4224.88C1754.02,4229.45 1759.47,4233.44 1765.76,4236.31C1769.7,4238.1 1773.13,4237.65 1775.95,4235.94C1778.56,4234.36 1780.74,4231.55 1782.11,4227.75C1785.21,4219.21 1784.08,4204.84 1776.26,4195.02ZM1767.94,4204.12C1771.71,4208.86 1772.93,4215.38 1772.19,4220.29C1771.88,4222.34 1771.53,4224.62 1769.89,4223.87C1765.48,4221.86 1761.55,4219.28 1759.15,4216.08C1757.77,4214.23 1756.99,4212.16 1757.83,4209.86C1759.04,4206.53 1762.29,4204.45 1765.19,4203.91C1766.26,4203.71 1767.34,4203.37 1767.94,4204.12Z" style="fill:rgb(35,31,32);"/>
                </g>
                <g transform="matrix(-1,0,0,-1,5923.95,8315.51)">
                    <path d="M2435.85,4745.78C2435.85,4745.78 2441.97,4726.4 2457.13,4720.49C2469.75,4715.58 2485.17,4716.06 2495.94,4718.89C2513.95,4723.62 2520.37,4729.62 2530.76,4734.2" style="fill:rgb(234,187,97);"/>
                </g>
                <g transform="matrix(-1,0,0,-1,5923.95,8315.51)">
                    <path d="M2440.62,4747.29C2440.62,4747.29 2445.77,4730.29 2458.95,4725.15C2470.56,4720.63 2484.76,4721.12 2494.67,4723.72C2512.31,4728.36 2518.57,4734.29 2528.75,4738.77C2531.28,4739.88 2534.23,4738.74 2535.34,4736.21C2536.45,4733.68 2535.3,4730.73 2532.78,4729.62C2522.17,4724.95 2515.59,4718.88 2497.21,4714.05C2485.59,4711 2468.94,4710.53 2455.32,4715.84C2438.18,4722.51 2431.09,4744.28 2431.09,4744.28C2430.26,4746.91 2431.72,4749.72 2434.35,4750.55C2436.98,4751.38 2439.79,4749.92 2440.62,4747.29Z" style="fill:rgb(35,31,32);"/>
                </g>
                <g transform="matrix(1,-0,-0,1,12.581,-511.809)">
                    <path d="M1841.92,4168.95C1841.5,4169.53 1841.08,4169.95 1840.57,4170.13C1839.62,4170.45 1838.62,4169.97 1837.53,4169.41C1836.1,4168.66 1834.63,4167.56 1833.15,4166.25C1824.25,4158.39 1815.21,4143.7 1811.43,4139.17C1807.86,4134.88 1800.2,4129.94 1796.09,4129.26C1793.18,4128.78 1791.04,4129.73 1789.73,4131.12C1788.7,4132.21 1787.9,4133.76 1788,4136.03C1788.3,4143.14 1790.73,4155.45 1790.65,4196.8C1790.58,4229.09 1792.56,4279.69 1792.56,4292.85C1792.56,4299.43 1789.13,4322.08 1791.18,4334.45C1792.62,4343.15 1797.18,4347.48 1803.14,4346.59C1822.03,4343.76 1872.22,4339.89 1892.25,4335.88C1937.38,4326.85 1971.7,4329.77 2029.54,4342.7C2065.83,4350.83 2083.21,4349.7 2118.44,4349.37C2148.77,4349.08 2222.62,4346.47 2243.95,4343.22C2283.94,4337.12 2954.29,4335.57 2994.89,4334.57C3037.32,4333.52 3079.32,4338.04 3120.91,4342.94C3174.72,4349.27 3233.09,4361 3287.4,4364.02C3331.61,4366.47 3384.21,4373.53 3429.09,4372.49C3440.1,4372.23 3456.24,4370.72 3468.98,4364.94C3478.36,4360.68 3485.9,4354.13 3489.09,4344.55C3491.09,4338.56 3489.82,4327.49 3489.53,4312.12C3489.31,4300.76 3483.04,4248.79 3483.29,4230.02C3483.51,4213.74 3489.49,4185.73 3489.53,4178.8C3489.7,4152.84 3488.56,4135.42 3487.51,4106.86C3487.12,4096.2 3483.96,4074.99 3464.23,4065.28C3457.29,4061.86 3443.94,4057.99 3428.99,4056.81C3418.33,4055.97 3405.14,4054.03 3398.03,4055.39C3392.27,4056.5 3389.35,4059.65 3389.1,4063.86C3388.85,4068.05 3387.97,4082.15 3387.41,4091.08C3380.91,4087.88 3370.95,4083.33 3362.63,4081.01C3321.14,4069.45 3300.69,4073.89 3266.83,4073.89C3204.25,4073.89 3133.83,4073.49 3071.8,4068.8C3041.5,4066.51 2989.41,4061.88 2980.01,4062.19C2971.76,4062.46 2290.8,4057.64 2277.54,4057.64C2249.46,4057.64 2221.66,4058.7 2194.05,4060.67C2154.07,4063.53 2101.63,4072.19 2061.45,4072.98C2040.49,4073.4 1959.27,4072.62 1924.56,4070.98C1890.87,4069.39 1849.37,4069.93 1816.45,4065.39C1812.2,4064.81 1809.08,4064.58 1806.79,4064.83C1804.33,4065.09 1802.51,4065.85 1801.08,4066.98C1799.1,4068.55 1797.7,4070.98 1797.13,4074.93C1796.61,4078.53 1796.7,4084 1796.55,4092.03C1796.51,4093.95 1797.14,4096 1798.61,4098.05C1799.96,4099.95 1802.18,4101.99 1804.98,4104.07C1810.34,4108.05 1818.09,4112.43 1824.29,4117.2C1827.7,4119.83 1830.67,4122.49 1831.98,4125.4C1835.55,4133.31 1840.54,4150.22 1841.87,4161.54C1842.13,4163.73 1842.25,4165.69 1842.16,4167.29C1842.13,4167.9 1841.96,4168.74 1841.92,4168.95ZM1802.18,4336.63C1802.06,4336.42 1801.92,4336.15 1801.84,4335.94C1801.49,4335.05 1801.24,4333.99 1801.05,4332.82C1799.08,4320.93 1802.56,4299.17 1802.56,4292.85C1802.56,4279.7 1800.58,4229.1 1800.65,4196.82C1800.71,4164.5 1799.26,4149.79 1798.46,4141.47C1800.46,4142.73 1802.68,4144.29 1803.75,4145.57C1807.69,4150.3 1817.24,4165.54 1826.53,4173.74C1832.33,4178.86 1838.35,4181.16 1843.25,4179.76C1845.74,4179.05 1848.13,4177.47 1850.18,4174.6C1850.88,4173.61 1851.48,4172.26 1851.82,4170.55C1852.31,4168.1 1852.3,4164.54 1851.81,4160.37C1850.36,4148.13 1844.95,4129.84 1841.1,4121.29C1839.47,4117.66 1836.29,4114.1 1832.26,4110.77C1827.08,4106.49 1820.46,4102.49 1814.93,4098.81C1812.2,4097 1809.76,4095.29 1808.02,4093.64C1807.43,4093.09 1806.75,4092.17 1806.55,4091.9C1806.67,4085.74 1806.6,4081.21 1806.86,4077.93C1806.95,4076.78 1807.27,4075.36 1807.4,4074.86C1807.67,4074.81 1808.15,4074.74 1808.52,4074.73C1810.19,4074.68 1812.34,4074.92 1815.09,4075.3C1848.28,4079.87 1890.12,4079.36 1924.09,4080.97C1958.96,4082.62 2040.58,4083.4 2061.65,4082.98C2101.98,4082.18 2154.62,4073.51 2194.77,4070.64C2222.14,4068.69 2249.7,4067.64 2277.54,4067.64C2290.81,4067.64 2972.09,4072.45 2980.34,4072.18C2989.63,4071.88 3041.1,4076.51 3071.04,4078.77C3133.32,4083.48 3204.01,4083.89 3266.83,4083.89C3299.74,4083.89 3319.63,4079.41 3359.94,4090.65C3372.69,4094.2 3389.54,4103.39 3389.54,4103.39C3391.04,4104.21 3392.85,4104.2 3394.35,4103.38C3395.84,4102.55 3396.81,4101.02 3396.92,4099.31C3396.92,4099.31 3398.53,4073.44 3399.01,4065.52C3399.8,4065.32 3401.29,4064.99 3402.49,4064.93C3409.42,4064.55 3419.68,4066.11 3428.2,4066.78C3441.6,4067.84 3453.6,4071.19 3459.81,4074.25C3475.31,4081.88 3477.21,4098.85 3477.52,4107.23C3478.56,4135.61 3479.7,4152.93 3479.53,4178.73C3479.49,4185.65 3473.51,4213.63 3473.3,4229.89C3473.04,4248.73 3479.31,4300.91 3479.53,4312.31C3479.7,4321.02 3480.28,4328.28 3480.31,4333.91C3480.33,4337.01 3480.23,4339.52 3479.6,4341.39C3477.3,4348.3 3471.6,4352.76 3464.84,4355.84C3453.36,4361.05 3438.78,4362.26 3428.86,4362.49C3384.23,4363.53 3331.92,4356.48 3287.95,4354.03C3233.84,4351.03 3175.69,4339.31 3122.08,4333.01C3080.02,4328.06 3037.55,4323.51 2994.64,4324.57C2953.97,4325.57 2282.51,4327.23 2242.44,4333.33C2221.36,4336.55 2148.33,4339.08 2118.35,4339.37C2084.02,4339.69 2067.09,4340.86 2031.72,4332.95C1972.14,4319.62 1936.78,4316.78 1890.28,4326.07C1870.54,4330.02 1821.34,4333.82 1802.18,4336.63Z" style="fill:rgb(35,31,32);"/>
                </g>
            </g>
        </g>
    </g>
</svg>
