<?xml version="1.0" encoding="UTF-8" standalone="no"?>
<!DOCTYPE svg PUBLIC "-//W3C//DTD SVG 1.1//EN" "http://www.w3.org/Graphics/SVG/1.1/DTD/svg11.dtd">
<svg width="100%" height="100%" viewBox="0 0 1681 345" version="1.1" xmlns="http://www.w3.org/2000/svg" xmlns:xlink="http://www.w3.org/1999/xlink" xml:space="preserve" xmlns:serif="http://www.serif.com/" style="fill-rule:evenodd;clip-rule:evenodd;stroke-linejoin:round;stroke-miterlimit:2;">
    <g transform="matrix(1,0,0,1,-1378.01,-2164.69)">
        <g transform="matrix(1,0,0,1,-0.944037,915.399)">
            <g id="Ebene6" transform="matrix(0.929307,0,0,0.929307,-1329.89,-2392.68)">
                <g transform="matrix(1.04463,0,0,1.04463,1238.55,582.91)">
                    <path d="M1677.4,3501.93C1672.41,3508.73 1674.92,3517.01 1674.92,3526.3C1674.92,3528.15 1673.23,3537.16 1673.23,3537.16C1673.23,3537.16 1651.17,3539.29 1631.72,3538.45C1619.49,3537.93 1604.57,3534.41 1615.41,3513.49C1622.5,3499.81 1664.02,3498.58 1677.4,3501.93C1705.63,3508.99 1719.68,3514.65 1750.74,3517.05C1785.86,3519.76 1825.82,3526.35 1862.7,3531.18C1884.1,3533.98 1970.94,3534.58 1995.11,3534.66C2065.2,3534.88 2143.12,3515.13 2238.23,3522.87C2298.55,3527.78 2445.53,3531.64 2506.03,3533.59C2554.01,3535.14 2595.05,3520.5 2642.9,3517.35C2683.42,3514.69 2717.67,3515.51 2753.26,3515.51C2770.32,3515.51 2826.4,3509.16 2826.4,3509.16C2826.4,3509.16 2808.32,3496.94 2814.32,3488.4C2826.95,3470.41 2872.46,3489.74 2866.8,3500.48C2864.09,3505.62 2853.73,3507.41 2838.23,3524.27C2822.77,3541.1 2847.24,3543.89 2851.75,3542.38C2869.91,3536.3 2877.32,3532.53 2887.91,3527.33C2903.19,3519.83 2912.24,3518.28 2925.16,3518.31C2936.41,3518.33 2959.45,3517.44 2978.57,3521.48C3004.66,3527 3028.62,3531.09 3066.43,3531.12C3096.44,3531.14 3129.26,3533.76 3158.93,3533.04C3187.17,3532.37 3256.8,3533.65 3270.75,3533.36C3283.64,3533.09 3305.94,3533.92 3312.86,3517.87C3317.84,3506.29 3321.06,3492.07 3321.72,3482.26C3323,3463.18 3324.23,3448.66 3324.49,3431.75C3325.14,3389.88 3329.96,3279.14 3328.64,3230.56C3328.14,3212.03 3294.8,3205.42 3283.1,3201.09C3271.39,3196.75 3269.29,3196.13 3269.79,3206.79C3270.05,3212.41 3269.65,3215.83 3269.65,3215.83C3269.65,3215.83 3253.8,3213.22 3239.33,3213.14C3214.97,3213.01 3189.62,3212 3164.39,3211.33C3146.78,3210.86 3130.86,3210.25 3112.91,3208.87C3096.7,3207.63 3079.67,3207.67 3062.87,3206.73C3045.12,3205.74 3005.9,3229.84 2988.6,3225.41C2983.01,3223.98 2986.41,3220.44 2982.04,3216.93C2978.4,3214.01 2961.12,3222.32 2951.6,3215.18C2936.75,3204.05 2934.7,3198.97 2933.47,3198.92C2912.36,3198.09 2893.89,3200.39 2874.54,3200.39C2838.21,3200.39 2801.06,3203.24 2764.77,3205.52C2737.6,3207.22 2720.3,3206.27 2686.99,3206.16C2683.55,3206.15 2675.86,3207.05 2671.47,3210.39C2666.94,3213.84 2660.23,3222.09 2652.69,3220.32C2645.78,3218.7 2653.78,3205.97 2648.5,3203.32C2644.04,3201.09 2565.78,3202.52 2546.68,3201.5C2519.61,3200.05 2510.28,3208.23 2405.05,3207.11C2374.36,3206.79 2245.21,3206.04 2214.47,3205.96C2173.67,3205.84 2126.91,3203.67 2085.66,3203.86C2015.26,3204.19 1949.53,3208.41 1878.58,3209.61C1831.94,3210.4 1802.66,3205.73 1756.58,3206.55C1729.12,3207.05 1688.36,3207.68 1661.31,3210.39C1646.09,3211.91 1642.65,3206.1 1628.58,3213.14C1626.55,3214.15 1614.5,3225.11 1614.43,3229.79C1614.08,3253.03 1612,3272.04 1611.16,3295.99C1609.14,3354.02 1610.83,3415.44 1609.9,3461.24C1609.71,3470.5 1611.63,3524.93 1611.66,3525.63" style="fill:rgb(238,230,177);"/>
                </g>
                <g transform="matrix(1,0,0,1.02888,1385.61,637.237)">
                    <path d="M3326.21,3216.75C3322.36,3211.87 3273.77,3189.41 3273.04,3202.98C3271.83,3225.31 3271.74,3290.65 3271.83,3302.73C3271.9,3313.03 3271.98,3331.82 3271.86,3342.07C3271.44,3376.45 3267.85,3385.22 3259.56,3418.39C3256.61,3430.18 3255.37,3449.07 3253.85,3461.2C3252.53,3471.75 3251.92,3482.37 3254.12,3483.12C3257.61,3484.31 3265.24,3483.49 3273.61,3487.28C3280.54,3490.42 3307.57,3490.86 3310.02,3498.23C3310.39,3499.33 3316.35,3506.28 3317.71,3504.93C3327.5,3495.14 3325.39,3476.82 3326.32,3462.62C3329.4,3415.24 3330.42,3337.4 3329.08,3285.61C3328.94,3280.24 3332,3224.07 3326.21,3216.75Z" style="fill:rgb(253,247,210);fill-opacity:0.95;"/>
                </g>
                <g transform="matrix(1,0,0,1,1355.02,747.365)">
                    <path d="M2936.03,3295.99C2930.16,3296.51 2920.5,3309.38 2920.42,3315.21C2920.22,3329.73 2942.98,3335.05 2950.19,3323.45C2957.93,3311.01 2948.34,3294.9 2936.03,3295.99Z" style="fill:rgb(227,215,160);"/>
                </g>
                <g transform="matrix(1,0,0,1,1349.28,744.988)">
                    <path d="M2847.94,3250.41C2838.7,3256.04 2834.22,3263.6 2833.85,3272.43C2833.47,3281.77 2836.86,3289.81 2837.26,3297.13C2838.47,3319.16 2849.95,3327.07 2873.09,3320.89C2890.5,3316.25 2898.85,3304.22 2901.76,3298.93C2911.64,3280.93 2907.62,3250.28 2878.92,3244.64C2866.73,3242.24 2854.09,3246.65 2847.94,3250.41Z" style="fill:rgb(227,215,160);"/>
                </g>
                <g transform="matrix(1,0,0,1,1361.42,741.435)">
                    <path d="M2421.01,3527.59C2405.83,3525.46 2403.82,3524.91 2406.75,3518.53C2408.52,3514.68 2430.88,3483.57 2441.78,3471.74C2455.91,3456.38 2469.62,3443.28 2493.53,3429.47C2504,3423.43 2565,3407.51 2585.66,3398.65C2593.61,3395.24 2628.61,3378.83 2643.83,3369.84C2661.75,3359.25 2680.4,3350.06 2699.78,3342.31C2708,3339.02 2715.82,3336.79 2724.66,3335.61C2748.39,3332.45 2788.65,3335.13 2806.8,3347.98C2811.98,3351.64 2853.09,3372.48 2859.84,3376.86C2873.62,3385.8 2903.81,3396.91 2922.93,3398.11C2939.48,3399.14 2956.89,3399.65 2973.28,3399.65C2984.58,3399.65 2993.64,3399.42 3005.49,3398.88C3029.05,3397.81 3051.11,3392.73 3074.15,3398.88C3085.95,3402.03 3109.1,3413.39 3119.31,3420.68C3149.29,3442.1 3175,3479.97 3178.28,3486.53C3183.52,3497.02 3200.62,3529.71 3189.3,3532.56C3182.33,3534.32 3173.25,3532.3 3163.44,3533.29C3156.41,3534 3103.74,3533.31 3094.48,3532.64C3077.22,3531.41 3001.53,3525.74 2972.55,3522.51C2953.68,3520.4 2921.57,3511.88 2902.32,3522.58C2888.78,3530.1 2856.33,3542.34 2848.72,3542.73C2839.11,3543.22 2838.67,3535.72 2841,3531.35C2849.29,3515.77 2889.6,3503.59 2861.68,3487.64C2851.81,3481.99 2845.3,3480.77 2833.84,3480.81C2819.02,3480.87 2816.76,3492.66 2819.09,3506.06C2820.23,3512.6 2764.92,3509.05 2710.31,3512.17C2691.48,3513.25 2624.14,3517.93 2604.93,3518.39C2583.92,3518.91 2553.59,3524.79 2535.34,3527.37C2515.99,3530.11 2496.94,3529.51 2475.13,3529.25" style="fill:rgb(254,246,211);"/>
                </g>
                <g transform="matrix(1.04676,0,0,1.04676,1232.93,576.562)">
                    <path d="M1610.01,3317.43C1609.92,3294.96 1611.38,3251.08 1613.39,3251.08C1625.94,3251.08 1630.94,3259.42 1640.04,3277.52C1646.85,3291.08 1654.32,3307.92 1657.32,3322.93C1660.44,3338.5 1665.71,3372.98 1668.18,3391.35C1672.11,3420.63 1678.98,3451.93 1677.03,3479.82C1675.78,3497.59 1677.2,3498.32 1669.68,3497.96C1665.02,3497.75 1650.96,3498.65 1643.5,3499.08C1632.6,3499.71 1622.34,3507.11 1616.67,3512.6C1612.69,3516.44 1608.23,3510.72 1608.23,3508.81C1608.23,3501.99 1608.44,3490.17 1608.44,3483.25C1608.44,3464.3 1608.69,3443.04 1608.69,3424.08C1608.69,3387.66 1610.15,3353.07 1610.01,3317.43Z" style="fill:rgb(252,248,210);"/>
                </g>
                <g transform="matrix(1.04676,0,0,1.04676,1232.93,576.562)">
                    <path d="M1674.32,3208.17C1668.23,3208.12 1701.31,3225.49 1703.93,3227.03C1714.53,3233.27 1768.4,3259.79 1780.48,3263.23C1807.46,3270.9 1849.02,3278.96 1871.91,3283.33C1896.55,3288.02 1948.07,3292.45 1973.41,3291.49C2011.5,3290.05 2089.16,3279.78 2111.32,3269.53C2141.96,3255.34 2168.74,3238.6 2174.69,3232.78C2184.18,3223.5 2199.66,3213.85 2196.07,3204.68C2194.96,3201.86 2120.62,3205.12 2088.13,3204.62C2065.39,3204.28 1949.34,3208.74 1909.3,3208.51C1886.36,3208.37 1806.13,3208.61 1788.77,3208.68C1752.51,3208.85 1690.53,3208.31 1674.32,3208.17Z" style="fill:rgb(224,216,158);"/>
                </g>
                <g transform="matrix(1.04577,0,0,1.04577,1236.7,579.25)">
                    <path d="M2654.88,3215.43C2654.96,3214.19 2655.13,3211.96 2655.29,3210.56C2655.9,3205.16 2654.6,3200.67 2650.71,3198.72C2650.16,3198.45 2649.11,3198.08 2647.55,3197.86C2645.65,3197.59 2642.38,3197.38 2638.12,3197.23C2615.22,3196.42 2562.13,3197.18 2546.86,3196.36C2519.76,3194.91 2510.41,3203.08 2405.01,3201.96C2374.31,3201.64 2245.23,3200.9 2214.49,3200.81C2173.67,3200.7 2126.89,3198.52 2085.63,3198.72C2015.21,3199.05 1949.46,3203.27 1878.49,3204.47C1831.85,3205.25 1802.57,3200.58 1756.49,3201.41C1728.91,3201.91 1687.97,3202.55 1660.8,3205.27C1653.62,3205.99 1649.22,3204.93 1644.95,3204.57C1639.65,3204.12 1634.51,3204.42 1626.28,3208.53C1624.65,3209.35 1617.26,3215.61 1613.03,3221.22C1610.62,3224.41 1609.32,3227.58 1609.28,3229.71C1608.93,3252.91 1606.86,3271.89 1606.02,3295.82C1604,3353.87 1605.69,3415.32 1604.76,3461.13C1604.57,3470.45 1606.49,3525.14 1606.52,3525.85C1606.53,3525.96 1606.54,3526.07 1606.55,3526.18C1606.59,3529.18 1607.32,3531.66 1608.46,3533.68C1610.25,3536.88 1613.14,3539.21 1616.74,3540.77C1621.05,3542.64 1626.47,3543.38 1631.5,3543.6C1651.29,3544.45 1673.73,3542.28 1673.73,3542.28C1676.01,3542.06 1677.87,3540.35 1678.29,3538.1C1678.29,3538.1 1680.07,3528.31 1680.07,3526.3C1680.07,3521.65 1679.44,3517.26 1679.43,3513.17C1679.43,3511.34 1679.55,3509.58 1680.07,3507.91C1706.08,3514.59 1720.4,3519.87 1750.34,3522.18C1785.38,3524.88 1825.24,3531.46 1862.03,3536.28C1883.54,3539.1 1970.8,3539.73 1995.09,3539.8C2065.07,3540.02 2142.86,3520.28 2237.81,3528C2298.19,3532.91 2445.22,3536.78 2505.77,3538.73C2553.92,3540.28 2595.12,3525.64 2643.15,3522.48C2683.54,3519.83 2717.69,3520.66 2753.17,3520.66C2770.37,3520.66 2826.89,3514.27 2826.89,3514.27C2829.03,3514.03 2830.79,3512.48 2831.3,3510.39C2831.82,3508.29 2830.97,3506.1 2829.19,3504.9C2829.19,3504.9 2823.47,3501.06 2820.05,3496.36C2819.33,3495.38 2818.71,3494.37 2818.37,3493.33C2818.14,3492.66 2818.01,3491.97 2818.44,3491.35C2821.07,3487.6 2825.77,3486.34 2830.87,3486.2C2840.1,3485.94 2850.8,3489.56 2857.39,3494C2859.01,3495.09 2860.36,3496.21 2861.29,3497.36C2861.54,3497.66 2861.81,3498.14 2861.95,3498.41C2861.09,3499.67 2859.36,3500.48 2857.16,3501.89C2851.87,3505.28 2844.08,3510.2 2834.35,3520.79C2827.8,3527.92 2827.19,3533.59 2828.51,3537.52C2829.84,3541.5 2833.53,3544.49 2838.12,3546.13C2843.89,3548.18 2850.86,3548.07 2853.29,3547.25C2871.77,3541.07 2879.3,3537.24 2890.09,3531.95C2904.43,3524.9 2912.93,3523.43 2925.06,3523.45C2936.09,3523.47 2958.68,3522.55 2977.41,3526.51C3003.82,3532.1 3028.07,3536.24 3066.34,3536.26C3096.39,3536.28 3129.25,3538.9 3158.96,3538.18C3187.2,3537.51 3256.81,3538.79 3270.77,3538.5C3278.95,3538.33 3290.71,3538.47 3300.39,3535.02C3307.83,3532.38 3314.11,3527.73 3317.49,3519.9C3322.71,3507.77 3326.07,3492.88 3326.76,3482.6C3328.05,3463.43 3329.28,3448.83 3329.54,3431.83C3330.2,3389.91 3335.02,3279.05 3333.69,3230.42C3333.5,3223.44 3331.53,3218.61 3328.67,3215.04C3325.83,3211.49 3322.01,3209.17 3317.71,3207.47C3313.08,3205.64 3307.83,3204.58 3303.12,3202.84C3295.62,3200.06 3284.75,3196.3 3277.4,3196.1C3272.92,3195.98 3269.43,3197.2 3267.31,3199.34C3265.55,3201.11 3264.42,3203.57 3264.58,3207.03C3264.63,3208.08 3264.66,3209.05 3264.66,3209.92C3258.6,3209.13 3248.64,3208.04 3239.26,3207.99C3214.94,3207.87 3189.63,3206.85 3164.43,3206.18C3146.91,3205.72 3131.07,3205.11 3113.21,3203.74C3096.97,3202.49 3079.91,3202.53 3063.06,3201.59C3053.71,3201.07 3038.62,3206.9 3023.66,3212.54C3015.43,3215.64 3007.23,3218.62 3000.17,3220.02C2996.18,3220.82 2992.62,3221.15 2989.78,3220.42L2989.7,3220.4C2989.55,3219.82 2989.29,3218.89 2989.07,3218.27C2988.44,3216.56 2987.42,3214.72 2985.17,3212.91C2984.26,3212.18 2983.08,3211.61 2981.6,3211.34C2979.95,3211.03 2977.6,3211.12 2974.84,3211.52C2971.53,3211.99 2967.39,3212.86 2963.27,3213C2960.15,3213.1 2957,3212.87 2954.59,3211.06C2943.13,3202.46 2939.58,3197.6 2938.01,3195.98C2936.23,3194.14 2934.66,3193.82 2933.58,3193.78C2912.4,3192.94 2893.87,3195.24 2874.45,3195.24C2838.01,3195.24 2800.76,3198.1 2764.36,3200.38C2737.3,3202.08 2720.08,3201.12 2686.92,3201.02C2682.76,3201 2673.55,3202.27 2668.27,3206.29C2666.03,3207.99 2663.27,3210.88 2660.13,3213.12C2658.49,3214.29 2656.76,3215.42 2654.88,3215.43ZM2931.34,3204C2911.07,3203.36 2893.18,3205.53 2874.45,3205.53C2838.22,3205.53 2801.19,3208.38 2765,3210.65C2737.71,3212.36 2720.33,3211.41 2686.89,3211.31C2684.14,3211.3 2677.98,3211.83 2674.5,3214.48C2671.64,3216.65 2667.94,3220.59 2663.75,3223.03C2659.93,3225.25 2655.75,3226.34 2651.42,3225.32C2645.89,3224.03 2644.12,3219.73 2644.53,3214.03C2644.64,3212.47 2644.91,3210.8 2645.09,3209.2C2645.12,3208.86 2645.14,3208.41 2645.14,3207.99C2643.48,3207.84 2640.66,3207.62 2637.76,3207.51C2614.81,3206.7 2561.61,3207.45 2546.31,3206.64C2519.29,3205.19 2509.97,3213.37 2404.9,3212.25C2374.22,3211.93 2245.19,3211.19 2214.46,3211.1C2173.67,3210.99 2126.92,3208.81 2085.68,3209.01C2015.31,3209.34 1949.59,3213.56 1878.66,3214.76C1832.03,3215.54 1802.75,3210.87 1756.68,3211.7C1729.33,3212.19 1688.75,3212.81 1661.82,3215.51C1655.25,3216.16 1650.71,3215.58 1646.66,3215.1C1641.93,3214.53 1638.05,3214.18 1631,3217.68C1630.85,3217.81 1625.67,3222.17 1622.75,3225.56C1621.35,3227.18 1619.77,3229.79 1619.57,3230.13C1619.21,3253.28 1617.14,3272.27 1616.31,3296.17C1614.28,3354.18 1615.98,3415.57 1615.05,3461.34C1614.93,3466.87 1615.58,3488.53 1616.12,3505.16C1619.19,3502.82 1623.2,3500.88 1627.86,3499.42C1644.19,3494.31 1668.59,3494.46 1678.55,3496.91L1678.58,3496.92L1678.63,3496.93L1678.64,3496.94C1706.56,3503.91 1720.44,3509.55 1751.13,3511.92C1786.34,3514.64 1826.4,3521.23 1863.37,3526.08C1884.66,3528.87 1971.07,3529.44 1995.13,3529.51C2065.34,3529.73 2143.38,3509.99 2238.65,3517.74C2298.91,3522.65 2445.67,3526.49 2506.1,3528.44C2553.91,3529.99 2594.8,3515.35 2642.47,3512.22C2683.11,3509.55 2717.47,3510.37 2753.17,3510.37C2765.23,3510.37 2796.93,3507.16 2814.17,3505.31C2812.37,3503.35 2810.7,3501.17 2809.59,3498.95C2807.3,3494.37 2807.07,3489.64 2810.02,3485.44C2814.46,3479.12 2821.99,3476.15 2830.58,3475.91C2841.9,3475.59 2855.04,3480.02 2863.13,3485.46C2867.25,3488.23 2870.11,3491.37 2871.38,3494.23C2872.73,3497.26 2872.67,3500.2 2871.26,3502.88C2870.11,3505.05 2868.14,3506.94 2865.15,3508.96C2860.39,3512.18 2852.36,3516.4 2841.93,3527.75C2840.47,3529.34 2839.44,3530.74 2838.8,3532.02C2838.35,3532.93 2838.06,3533.63 2838.27,3534.25C2838.68,3535.47 2840.16,3535.93 2841.58,3536.43C2844.81,3537.59 2848.67,3537.95 2850.03,3537.5C2867.87,3531.53 2875.14,3527.82 2885.55,3522.71C2901.76,3514.75 2911.37,3513.14 2925.08,3513.16C2936.56,3513.18 2960.05,3512.32 2979.54,3516.45C3005.32,3521.89 3028.99,3525.95 3066.35,3525.97C3096.31,3525.99 3129.09,3528.61 3158.72,3527.9C3186.96,3527.22 3256.6,3528.51 3270.56,3528.22C3276.71,3528.09 3285.12,3528.27 3292.81,3526.51C3299.25,3525.05 3305.27,3522.25 3308.04,3515.83C3312.79,3504.8 3315.87,3491.26 3316.49,3481.91C3317.76,3462.94 3318.99,3448.49 3319.26,3431.67C3319.91,3389.84 3324.73,3279.22 3323.41,3230.7C3323.3,3226.55 3322.35,3223.6 3320.65,3221.48C3318.93,3219.33 3316.53,3218.07 3313.93,3217.04C3309.37,3215.24 3304.19,3214.21 3299.55,3212.49C3293.97,3210.43 3286.35,3207.65 3280.16,3206.69C3278.62,3206.45 3277.19,3206.32 3275.95,3206.4C3275.62,3206.43 3275.17,3206.52 3274.86,3206.59C3275.14,3212.7 3274.7,3216.42 3274.7,3216.42C3274.53,3217.81 3273.81,3219.08 3272.68,3219.93C3271.56,3220.78 3270.14,3221.13 3268.75,3220.9C3268.75,3220.9 3253.3,3218.36 3239.21,3218.28C3214.81,3218.16 3189.43,3217.14 3164.16,3216.47C3146.46,3216 3130.46,3215.39 3112.42,3214C3096.25,3212.76 3079.26,3212.8 3062.49,3211.87C3058.71,3211.65 3053.86,3212.83 3048.42,3214.52C3039.27,3217.37 3028.71,3221.8 3018.72,3225.31C3006.42,3229.64 2994.87,3232.34 2987.24,3230.39C2982.57,3229.2 2981.15,3227 2980.25,3224.68C2980.05,3224.16 2979.89,3223.61 2979.74,3223.03C2979.62,3222.58 2979.6,3222.03 2979.24,3221.48C2978.17,3221.58 2975.39,3221.84 2973.22,3222.19C2965.28,3223.47 2955.22,3224.39 2948.42,3219.3C2938.68,3211.99 2933.2,3206.12 2931.34,3204ZM1669.95,3505.93C1661.23,3505.06 1648.37,3505.38 1637.46,3507.59C1633,3508.49 1628.88,3509.7 1625.56,3511.33C1623.02,3512.58 1620.95,3513.97 1619.97,3515.86C1618.12,3519.45 1617.04,3522.29 1616.77,3524.58L1616.8,3525.41C1616.82,3525.75 1616.8,3526.09 1616.75,3526.42C1616.83,3527.24 1617.06,3527.98 1617.43,3528.65C1618.39,3530.35 1620.26,3531.22 1622.33,3531.89C1625.29,3532.84 1628.72,3533.18 1631.94,3533.32C1646.17,3533.93 1661.82,3532.92 1668.89,3532.36C1669.32,3529.98 1669.78,3527.2 1669.78,3526.3C1669.78,3521.66 1669.15,3517.27 1669.15,3513.19C1669.14,3510.66 1669.36,3508.24 1669.95,3505.93Z" style="fill:rgb(35,31,32);"/>
                </g>
                <g transform="matrix(1.04577,0,0,1.04577,1236.82,578.508)">
                    <path d="M3317.02,3521.73C3317.02,3521.73 3320.04,3511.59 3317.9,3503.33C3316.51,3497.99 3313.95,3492.75 3310.61,3489.45C3308.46,3487.33 3303.69,3485.25 3297.6,3483.82C3285.71,3481.03 3268.38,3479.79 3262.09,3479.99C3259.76,3480.07 3258.1,3479.93 3257.03,3479.09C3256.35,3478.55 3256.12,3477.7 3255.92,3476.71C3255.68,3475.47 3255.61,3474.07 3255.62,3472.51C3255.66,3467.15 3256.61,3460.39 3256.8,3452.83C3257.29,3433.43 3259,3425.92 3263.23,3408.98C3267.65,3391.27 3272.9,3383.37 3274.15,3356.73C3275.48,3328.49 3272.22,3294.22 3271.49,3269.95C3271.2,3260.44 3275.03,3218.9 3275.15,3208.43C3275.18,3205.59 3272.9,3203.26 3270.06,3203.23C3267.22,3203.2 3264.89,3205.48 3264.86,3208.32C3264.74,3218.86 3260.91,3260.69 3261.2,3270.26C3261.93,3294.31 3265.19,3328.27 3263.88,3356.25C3262.67,3381.87 3257.5,3389.45 3253.24,3406.49C3248.8,3424.29 3247.03,3432.18 3246.52,3452.57C3246.27,3462.36 3244.85,3470.85 3245.54,3476.83C3246.04,3481.21 3247.58,3484.56 3250.3,3486.87C3252.84,3489.04 3256.63,3490.46 3262.41,3490.28C3268.23,3490.09 3284.25,3491.26 3295.24,3493.84C3298.96,3494.71 3302.07,3495.48 3303.38,3496.78C3305.56,3498.92 3307.04,3502.43 3307.94,3505.91C3309.43,3511.66 3307.18,3518.72 3307.18,3518.72C3306.35,3521.43 3307.88,3524.31 3310.59,3525.14C3313.31,3525.97 3316.19,3524.44 3317.02,3521.73Z" style="fill:rgb(35,31,32);"/>
                </g>
            </g>
        </g>
    </g>
</svg>
