<?xml version="1.0" encoding="UTF-8"?>
<svg id="Ebene_2" data-name="Ebene 2" xmlns="http://www.w3.org/2000/svg" viewBox="0 0 165.07 49.49">
  <defs>
    <style>
      .cls-1 {
        fill: #eabb61;
      }

      .cls-1, .cls-2, .cls-3, .cls-4, .cls-5, .cls-6 {
        fill-rule: evenodd;
      }

      .cls-2 {
        fill: #fefffe;
      }

      .cls-3 {
        fill: #fdde9a;
      }

      .cls-4 {
        fill: #231f20;
      }

      .cls-5 {
        fill: #ebbd62;
      }

      .cls-6 {
        fill: #feca67;
      }
    </style>
  </defs>
  <g id="Ebene_1-2" data-name="Ebene 1">
    <g id="Ebene5">
      <g id="Ebene7">
        <path class="cls-6" d="m2.09,7.05c-.02,1.25,4.07,3.63,5.27,5.11,1.24,1.55,1.65,5.44,1.2,6.43-1.23,2.68-4.54-2.61-5.53-3.8-.64-.76-2.28-1.74-2.25-1.01.05,1.1.42,3,.41,9.39-.01,4.97.29,12.76.29,14.78,0,1.42-1.09,7.78.75,7.51,2.9-.43,10.6-1.03,13.68-1.64,7.05-1.41,12.42-.97,21.45,1.05,5.52,1.23,8.16,1.06,13.51,1.01,4.64-.04,15.95-.44,19.21-.94,6.16-.94,12.48-1.91,18.74-2.07,6.57-.16,13.07.54,19.51,1.29,8.27.97,17.24,2.78,25.58,3.24,6.79.38,14.86,1.46,21.75,1.3,2.68-.06,7.47-.6,8.52-3.77.29-.87.07-2.49.03-4.73-.06-3.04-.58-12.72-.56-15.24.02-3.98.42-11.96.25-16.34-.05-1.47-.13-1.72-1.09-2.43-1.91-1.43-5.05-3.73-6.11-4.34-.96-.56-2.17-1.12-3.3-1.07-.51.02-1.87-.05-1.87.47,0,.97.04,1.54-.03,2.87-.02.3-4.31.44-5.42.44-5.18,0-10.25-.27-15.39-.27-9.65,0-20.51-.06-30.08-.79-4.64-.35-12.61-1.06-14.04-1.02-1.27.04-9.17.02-11.21.02-4.3,0-8.56.16-12.8.46-6.17.44-14.25,1.77-20.45,1.9-3.23.06-15.77-.06-21.12-.31-5.21-.25-11.62-.16-16.71-.87-2.39-.33-2.13.04-2.19,3.35Z"/>
        <path class="cls-1" d="m22.21,5.69c2.75.05,11.8.09,11.45.31-1.37.86-3.12,1.45-4.58,2.47-1.63,1.14-4.05,2.84-5.4,4.28-1.14,1.22-2.18,2.35-2.8,3.94-.73,1.89-.59,3.4.24,5.15.36.76,1.53,2.83,1.9,3.6,1.04,2.15,1.31,3.44,3.16,4.63.79.51,1.53,1.09,2.34,1.55,1.02.57,4.95,3.22,5.78,4.12,1.74,1.87,4.41,4.32,4.16,6.95-.06.64-1.68.89-2.05.81-.45-.1-4.49-.82-5.74-.81-.47,0-3.87-.02-4.79.03-.7.04-5.07-.03-5.77.09-5.23.87-6.83,1.45-10.66,1.76-1.87.15-3.3.4-5.31.51-2.16.11-2.24-.54-2.25-1.6-.02-1.35.04-3.33.04-4.7,0-2.72,0-7.21-.01-7.85-.07-2.85-.06-5.12-.02-7.87.04-2.33.14-4.04.23-6.32.03-.76.6-1.43,1.31-.42,1.07,1.5,1.23,2.21,2.78,3.45,1.01.81,2.61,1.04,2.69-.29.09-1.37-.06-2.68.01-3.91.1-1.78-1.29-3.22-2.28-4.53-.78-1.02-1.95-1.86-2.43-2.34-.97-.97-2.26-1.7-2.13-2.98.04-.4.05-1.4.2-1.76.22-.54,1.78-.2,3.26-.11,1.71.1,5.24.76,7.3.81,2.6.07,8.57,1.01,9.35,1.03Z"/>
        <path class="cls-5" d="m111.75,4.82c-2.81.01-8.3-.92-8.88.05-.56.95,3,2.96,3.72,3.63,2.71,2.53,5.15,5.17,8.18,6.55,1.67.76,5.1,2.8,6.43,3.24,4.34,1.45,9.05,2.13,13.65,2.33,4.95.21,7.33.13,11.09,3.33,1.64,1.39,5.26,1.95,6.84,1.96,1.94.02,4.53-2.01,4.84-2.79.44-1.11,1.05-4.57.92-5.71-.3-2.59.16-8.36-.72-10.82-.77-2.15-5.67-1.64-8.71-1.58-4.86.1-13.53.04-17.44.02-4.29-.03-15.63-.25-19.93-.23Z"/>
        <path class="cls-3" d="m152.73,15.9c-.31-.42.04-4.57-.02-5.63-.11-1.98-.59-5.19-.56-7.17.05-3.04.99-3.01,2.3-2.29,1.5.82,2.82,1.42,4.42,2.27,1.49.8,2.68.9,3.56,2.3,1.11,1.77,1.14,4.46,1.21,6.9.06,2.22.07,4.83.04,7.16-.02,1.59-.86,4.3-.99,5.88-.13,1.69-.4,2.03-.28,3.73.08,1.12.77,3.44.7,4.97-.1,2.25.38,2.73.63,4.96.12,1.07.07,2.81.05,3.21-.04,1.05-1.87-.28-3.08-1.12-1.54-1.08-3.12-.88-4.86-.88-.8,0-2.28-.01-2.15-1.32.18-1.78.13-3.82.01-5.62-.02-.38-.22-.8-.73-1.83-.68-1.37-1.03-1.79-.95-3.62.06-1.34,0-3.41,0-4.75,0-.47,0-.91,0-1.39,0-.3.46-.57,1.02-.53,1.37.09,3.02.25,3.59-1.2.37-.94-.04-1.83-.88-2.67-.21-.21-2.55-.75-3.02-1.39Z"/>
        <path class="cls-4" d="m151.53,20.96s0,.18-.02.32c-.04.57-.13,1.58-.03,3.24.15,2.54-.11,3.52.38,5.97.14.72.42,1.35.72,2.03.38.86.8,1.8.88,3.25.07,1.19-.51,2.53-.68,3.39-.15.74,0,1.28.28,1.57.12.13.4.29.8.38.83.2,2.53.3,2.86.37.29.06,1.77.22,3.12.48.77.15,1.5.31,1.83.54.44.3.82.58,1.07,1.02.25.44.36,1.03.32,1.88-.02.44.32.82.77.84.44.02.82-.32.84-.77.05-1.25-.16-2.09-.53-2.74-.37-.65-.91-1.12-1.57-1.56-.35-.23-.99-.46-1.74-.63-1.49-.35-3.45-.56-3.79-.63-.28-.06-2.02-.28-2.69-.37.02-.13.05-.3.09-.43.26-.96.69-2.26.62-3.43-.09-1.43-.43-2.44-.81-3.32-.32-.76-.67-1.4-.83-2.18-.47-2.36-.2-3.31-.35-5.75-.08-1.35-.04-2.26,0-2.86l.71.19c.56.15,1.17.26,1.72.23.72-.04,1.35-.3,1.8-.9.42-.58.62-1.17.57-1.81-.05-.58-.3-1.23-.89-1.95-.38-.47-1.09-.88-1.86-1.18-.66-.25-1.36-.44-1.84-.55.01-1.9.28-5.1.06-6.1-.27-1.28-.04-4.37-.21-7.72-.02-.44-.4-.78-.84-.76-.44.02-.78.4-.76.84.18,3.45-.04,6.64.24,7.96.23,1.08-.15,4.76-.09,6.43,0,.06.05.62.69.78.29.07,1.27.27,2.17.62.48.19.95.39,1.18.69.37.47.57.84.54,1.21-.02.21-.12.4-.26.6-.14.18-.34.23-.55.25-.23.02-.48-.01-.73-.06-.83-.15-1.65-.47-2.08-.5-.47-.03-.77.16-.94.37-.14.17-.24.42-.19.76Zm1.59-.11s0-.07,0-.12c0,.03,0,.07,0,.12Z"/>
        <g>
          <path class="cls-2" d="m10.74,23.43c-.59-.63-2.2-.15-2.64.89-.48,1.12.61,2.07,2.06,2.64,1.44.56,1.96-2.04.58-3.52Z"/>
          <path class="cls-4" d="m11.31,22.9c-.39-.42-1.04-.61-1.74-.49-.87.14-1.8.75-2.17,1.6-.36.85-.16,1.65.44,2.34.46.53,1.2.99,2.05,1.32.53.21,1,.16,1.38-.04.35-.18.65-.51.83-.95.42-.99.27-2.64-.79-3.78Zm-1.13,1.05c.51.55.68,1.3.57,1.87-.04.24-.09.5-.31.41-.6-.23-1.13-.53-1.45-.9-.19-.21-.29-.45-.18-.72.16-.38.6-.62,1-.69.14-.02.29-.06.37.02Z"/>
        </g>
        <path class="cls-4" d="m150.75,3.5c-1.03.08-3.9.28-4.67.28-5.18,0-10.25-.27-15.39-.27-9.63,0-20.47-.06-30.02-.78-4.66-.35-12.68-1.07-14.13-1.02-1.27.04-9.14.02-11.18.02-4.32,0-8.6.16-12.85.47-6.15.44-14.23,1.77-20.41,1.89-3.23.06-15.73-.06-21.07-.31-5.19-.25-11.57-.16-16.64-.86-.65-.09-1.14-.13-1.49-.09-.38.04-.66.16-.88.33-.3.24-.52.62-.61,1.22-.08.55-.07,1.4-.09,2.63,0,.3.09.61.32.93.21.29.55.61.98.93.83.61,2.02,1.29,2.97,2.02.52.4.98.81,1.18,1.26.55,1.22,1.32,3.82,1.52,5.56.04.34.06.64.04.89,0,.09-.03.22-.04.26-.06.09-.13.15-.21.18-.15.05-.3-.02-.47-.11-.22-.12-.45-.28-.67-.49-1.37-1.21-2.76-3.47-3.34-4.17-.55-.66-1.73-1.42-2.36-1.53-.45-.07-.78.07-.98.29-.16.17-.28.41-.27.76.05,1.09.42,2.99.41,9.35-.01,4.97.29,12.76.29,14.79,0,1.01-.53,4.5-.21,6.4.22,1.34.92,2.01,1.84,1.87,2.91-.44,10.63-1.03,13.72-1.65,6.95-1.39,12.23-.94,21.13,1.05,5.59,1.25,8.26,1.08,13.68,1.03,4.67-.04,16.04-.45,19.32-.95,6.13-.93,12.42-1.9,18.64-2.06,6.53-.16,13,.54,19.4,1.29,8.28.97,17.27,2.78,25.63,3.24,6.81.38,14.9,1.47,21.81,1.3,1.69-.04,4.18-.27,6.14-1.16,1.44-.66,2.6-1.66,3.1-3.14.31-.92.11-2.63.07-4.99-.03-1.75-1-9.75-.96-12.64.03-2.51.95-6.82.96-7.89.03-4-.15-6.68-.31-11.07-.04-1.08-.14-1.62-.43-2.08-.2-.31-.49-.59-.97-.95-1.93-1.44-5.11-3.77-6.18-4.39-1.08-.63-2.45-1.23-3.72-1.17-.41.02-1.3,0-1.8.19-.55.2-.81.59-.81,1.05,0,.8.03,1.33,0,2.26ZM2.18,44.68s-.04-.07-.05-.1c-.05-.14-.09-.3-.12-.48-.3-1.83.23-5.18.23-6.15,0-2.02-.3-9.81-.29-14.78,0-4.98-.21-7.24-.34-8.52.31.19.65.43.81.63.61.73,2.08,3.07,3.51,4.34.89.79,1.82,1.14,2.57.93.38-.11.75-.35,1.07-.79.11-.15.2-.36.25-.62.08-.38.07-.93,0-1.57-.22-1.88-1.05-4.7-1.65-6.02-.25-.56-.74-1.11-1.36-1.62-.8-.66-1.82-1.27-2.67-1.84-.42-.28-.8-.54-1.06-.8-.09-.08-.2-.23-.23-.27.02-.95,0-1.65.05-2.15.01-.18.06-.4.08-.47.04,0,.12-.02.17-.02.26,0,.59.03,1.01.09,5.11.7,11.55.62,16.78.87,5.37.25,17.93.37,21.18.31,6.21-.12,14.31-1.46,20.49-1.9,4.21-.3,8.46-.46,12.74-.46,2.05,0,9.96.02,11.23-.02,1.43-.05,9.35.67,13.96,1.01,9.59.72,20.47.79,30.14.79,5.14,0,10.21.27,15.39.27,1.05,0,4.79-.14,5.54-.39.52-.18.63-.57.64-.77.06-1.17.04-1.76.04-2.53.31-.03.91-.07,1.13-.08.99-.04,2.04.48,2.88.97,1.05.61,4.15,2.88,6.03,4.29.28.21.47.36.59.54.18.28.16.63.19,1.31.16,4.37.34,7.03.31,11.01,0,1.07-.93,5.37-.96,7.87-.04,2.9.93,10.93.96,12.69.02,1.34.12,2.46.12,3.33,0,.48-.01.86-.11,1.15-.35,1.06-1.23,1.75-2.27,2.22-1.77.8-4.01.99-5.54,1.02-6.87.16-14.92-.93-21.69-1.3-8.33-.46-17.28-2.27-25.53-3.24-6.47-.76-13.01-1.46-19.62-1.3-6.29.16-12.64,1.13-18.84,2.07-3.24.5-14.49.89-19.1.93-5.28.05-7.89.23-13.34-.99-9.17-2.05-14.61-2.49-21.77-1.06-3.04.61-10.61,1.19-13.56,1.62Z"/>
        <path class="cls-4" d="m133.91,9.41c1.65.04,3.05.4,4.64.72.42.08.82-.19.91-.6.08-.42-.19-.82-.6-.91-1.69-.34-3.17-.71-4.91-.75-.42,0-.78.33-.79.75,0,.42.33.78.75.79Z"/>
        <path class="cls-4" d="m141.79,8.59c.26-.04.56-.06.84-.02.18.03.36.07.48.19.3.3.79.3,1.09,0,.3-.3.3-.79,0-1.09-.63-.63-1.76-.73-2.63-.6-.42.06-.71.45-.65.87.06.42.45.71.87.65Z"/>
      </g>
    </g>
  </g>
</svg>