<?xml version="1.0" encoding="UTF-8"?>
<svg id="Ebene_2" data-name="Ebene 2" xmlns="http://www.w3.org/2000/svg" viewBox="0 0 365.1 139.38">
  <defs>
    <style>
      .cls-1 {
        fill: #e3d7a0;
      }

      .cls-1, .cls-2, .cls-3, .cls-4, .cls-5, .cls-6, .cls-7 {
        fill-rule: evenodd;
      }

      .cls-2 {
        fill: #fcf8d2;
      }

      .cls-3 {
        fill: #e0d89e;
      }

      .cls-4 {
        fill: #231f20;
      }

      .cls-5 {
        fill: #fef6d3;
      }

      .cls-6 {
        fill: rgba(253, 247, 210, .95);
      }

      .cls-7 {
        fill: #eee6b1;
      }
    </style>
  </defs>
  <g id="Ebene_1-2" data-name="Ebene 1">
    <g id="Ebene5">
      <g id="Ebene61">
        <path class="cls-7" d="m17.57,130.54c-1.11,1.51-.55,3.34-.55,5.4,0,.41-.37,2.4-.37,2.4,0,0-4.89.47-9.2.29-2.71-.12-6.02-.9-3.62-5.53,1.57-3.03,10.77-3.3,13.74-2.56,6.26,1.56,9.37,2.82,16.26,3.35,7.78.6,16.64,2.06,24.82,3.13,4.74.62,23.99.75,29.35.77,15.54.05,32.8-4.33,53.89-2.61,13.37,1.09,27.44,1.36,40.84,1.79,10.63.34,19.73-2.9,30.34-3.6,8.98-.59,16.57-.41,24.46-.41,3.78,0,16.21-1.41,16.21-1.41,0,0-4.01-2.71-2.68-4.6,2.8-3.99,12.89.3,11.63,2.68-.6,1.14-2.9,1.53-6.33,5.27-3.43,3.73,2,4.35,3,4.01,4.03-1.35,5.67-2.18,8.01-3.34,3.39-1.66,5.39-2.01,8.26-2,2.49,0,7.6-.19,11.84.7,5.78,1.22,11.1,2.13,19.48,2.13,6.65,0,13.93.59,20.5.43,6.26-.15,21.69.14,24.78.07,2.86-.06,7.8.12,9.33-3.44,1.11-2.56,1.82-5.72,1.96-7.89.28-4.23.56-7.45.61-11.19.15-9.28-.82-95.13-1.11-105.9-.11-4.11-2.83-6.08-5.42-7.04-2.6-.96-3.06-1.1-2.95,1.26.06,1.24-.03,2-.03,2,0,0-8.19-.07-11.4-.08-5.4-.03-11.02-.25-16.61-.4-3.9-.1-7.43-.24-11.41-.55-3.59-.28-7.37-.27-11.09-.47-3.93-.22-12.62,5.12-16.46,4.14-1.24-.32-.49-1.1-1.46-1.88-.8-.65-4.64,1.19-6.75-.39-3.29-2.47-3.74-3.59-4.02-3.6-4.68-.18-8.77.33-13.06.33-8.05,0-16.29.63-24.33,1.14-6.02.38-9.86.17-17.24.14-.76,0-2.47.2-3.44.94-1.01.76-2.49,2.59-4.16,2.2-1.53-.36.24-3.18-.93-3.77-.99-.49-18.33-.18-22.57-.4-6-.32-8.07,1.49-31.39,1.24-6.8-.07-16.92.35-23.73.33-9.04-.03-19.41-.51-28.55-.47-15.6.07-30.17,1.01-45.9,1.27-10.34.18-16.83-.86-27.04-.68-6.09.11-15.12.25-21.12.85-3.37.34-4.14-.95-7.25.61-.45.22-3.12,2.65-3.14,3.69-.08,5.15-.54,9.36-.72,14.67-.45,12.86,1.96,87.78,1.75,97.94-.04,2.05.38,14.11.39,14.27"/>
        <path class="cls-6" d="m361.79,6.21c-.82-1.06-6.44-6.47-6.6-3.51-.26,4.87-.27,19.12-.26,21.75.01,2.25,2.45,65.78,2.43,68.01-.09,7.5-.85,9.41-2.61,16.64-.63,2.57-.89,6.69-1.21,9.34-.28,2.3-.41,4.62.06,4.78.74.26,2.36.08,4.13.91,1.47.69,2.52,1.29,3.04,2.9.08.24,1.34,1.76,1.63,1.46,2.07-2.13,1.63-6.13,1.82-9.23.65-10.33-1.55-86.74-1.84-98.03-.03-1.17.62-13.42-.61-15.02Z"/>
        <path class="cls-1" d="m272.61,26.66c-1.25.11-3.29,2.84-3.31,4.07-.04,3.08,4.78,4.2,6.31,1.75,1.64-2.64-.39-6.05-3-5.82Z"/>
        <path class="cls-1" d="m252.72,16.49c-1.96,1.2-2.91,2.8-2.99,4.67-.08,1.98.64,3.68.72,5.24.25,4.67,2.69,6.35,7.59,5.04,3.69-.99,5.46-3.54,6.08-4.66,2.09-3.82,1.24-10.31-4.84-11.51-2.58-.51-5.26.43-6.57,1.22Z"/>
        <path class="cls-5" d="m167.34,135.33c-3.22-.45-3.64-.57-3.02-1.92.38-.82,5.11-7.41,7.42-9.92,3-3.26,5.9-6.03,10.97-8.96,2.22-1.28,15.15-4.66,19.52-6.53,1.69-.72,9.11-4.2,12.33-6.11,3.8-2.24,7.75-4.19,11.86-5.83,1.74-.7,3.4-1.17,5.27-1.42,5.03-.67,13.56-.1,17.41,2.62,1.1.78,9.81,5.19,11.24,6.12,2.92,1.89,9.32,4.25,13.37,4.5,3.51.22,7.2.33,10.67.33,2.39,0,4.31-.05,6.82-.16,5-.23,9.67-1.3,14.55,0,2.5.67,7.41,3.08,9.57,4.62,6.35,4.54,11.8,12.56,12.5,13.95,1.11,2.22,4.73,9.15,2.34,9.76-1.48.37-3.4-.06-5.48.15-1.49.15-12.65,0-14.62-.14-3.66-.26-19.7-1.46-25.84-2.15-4-.45-10.8-2.25-14.88.01-2.87,1.59-9.75,4.19-11.36,4.27-2.04.11-2.13-1.49-1.64-2.41,1.76-3.3,10.3-5.88,4.38-9.26-2.09-1.2-3.47-1.46-5.9-1.45-3.14.01-3.62,2.51-3.13,5.35.24,1.38-11.48.63-23.06,1.29-3.99.23-18.26,1.22-22.33,1.32-4.45.11-10.88,1.35-14.75,1.9-4.1.58-8.14.45-12.76.4"/>
        <path class="cls-2" d="m.73,58.66c-.02-4.99.3-14.72.75-14.72,2.78,0,3.89,1.85,5.91,5.87,1.51,3.01,3.17,6.74,3.83,10.07.69,3.45,4.79,40.35,5.34,44.43.87,6.49,2.4,13.44,1.96,19.63-.28,3.94.04,4.1-1.63,4.02-1.03-.05-4.15.15-5.81.25-2.42.14-4.69,1.78-5.95,3-.88.85-1.87-.42-1.87-.84,0-1.51.05-4.14.05-5.67,0-4.2.06-8.92.06-13.13,0-8.08-2.61-45-2.64-52.91Z"/>
        <path class="cls-3" d="m14.4,4.22c-1.35-.01,5.99,3.84,6.57,4.18,2.35,1.38,14.3,7.27,16.98,8.03,5.99,1.7,15.21,3.49,20.28,4.46,5.47,1.04,16.9,2.02,22.52,1.81,8.45-.32,25.68-2.6,30.6-4.87,6.8-3.15,12.74-6.86,14.06-8.15,2.11-2.06,5.54-4.2,4.74-6.23-.25-.63-16.74.1-23.95-.01-5.04-.08-30.79.91-39.67.86-5.09-.03-22.89.02-26.74.04-8.04.04-21.8-.08-25.39-.11Z"/>
        <path class="cls-4" d="m2.36,135.47c0,.61.15,1.11.38,1.53.36.65.95,1.11,1.68,1.43.92.4,2.08.55,3.15.6,4.36.19,9.31-.29,9.31-.29.36-.03.65-.3.71-.65,0,0,.39-2.12.39-2.55,0-1.03-.14-2-.14-2.91,0-.56.05-1.08.27-1.57,5.93,1.51,9.09,2.71,15.81,3.23,7.77.6,16.61,2.06,24.77,3.13,4.76.62,24.07.76,29.45.78,15.52.05,32.77-4.33,53.82-2.62,13.38,1.09,27.46,1.36,40.88,1.8,10.66.34,19.78-2.9,30.42-3.6,8.96-.59,16.54-.41,24.41-.41,3.8,0,16.3-1.41,16.3-1.41.33-.04.61-.28.69-.61.08-.33-.05-.67-.33-.86,0,0-1.32-.89-2.11-1.97-.18-.25-.33-.5-.42-.76-.08-.25-.1-.51.06-.74.64-.92,1.78-1.25,3.02-1.29,2.11-.06,4.56.77,6.08,1.79.47.32.85.65,1.06.98.08.13.17.25.1.36-.19.36-.63.59-1.22.97-1.16.74-2.86,1.82-4.99,4.13-1.33,1.44-1.49,2.58-1.22,3.37.27.79,1.01,1.37,1.92,1.7,1.2.43,2.64.42,3.14.25,4.07-1.36,5.74-2.21,8.11-3.38,3.24-1.59,5.16-1.92,7.9-1.92,2.46,0,7.49-.2,11.67.68,5.83,1.23,11.19,2.15,19.64,2.15,6.66,0,13.94.59,20.52.43,6.26-.15,21.69.13,24.78.07,1.78-.04,4.35,0,6.46-.75,1.56-.55,2.89-1.52,3.59-3.17,1.14-2.65,1.88-5.91,2.03-8.16.28-4.24.56-7.47.62-11.24.14-9.28-.98-94.76-1.27-105.53-.12-4.52-3.09-6.72-5.94-7.77-1.02-.38-1.74-.63-2.23-.68-.62-.07-1.04.1-1.34.41-.18.19-.33.46-.41.84-.07.35-.09.84-.06,1.49.02.46.02.85.02,1.15-2.11-.02-8.03-.06-10.64-.08-5.39-.03-11-.25-16.59-.4-3.89-.1-7.41-.24-11.37-.54-3.6-.28-7.38-.27-11.11-.48-2.04-.11-5.33,1.18-8.59,2.41-1.84.69-3.68,1.36-5.26,1.67-.94.19-1.78.25-2.45.08-.11-.03-.18-.02-.21-.07-.04-.07-.05-.15-.07-.23-.03-.12-.06-.25-.11-.38-.12-.33-.32-.69-.76-1.04-.2-.16-.48-.27-.84-.31-.31-.03-.72,0-1.19.07-.74.11-1.68.3-2.6.33-.77.03-1.54-.05-2.13-.5-2.57-1.93-3.36-3.01-3.72-3.38-.3-.31-.57-.38-.75-.39-4.69-.18-8.79.32-13.09.32-8.07,0-16.32.63-24.38,1.14-6,.38-9.83.17-17.19.14-.87,0-2.82.25-3.93,1.1-.5.38-1.11,1.02-1.81,1.52-.51.37-1.07.68-1.68.54-.05-.01-.03-.07-.03-.11,0-.07,0-.14,0-.21,0-.34.08-.73.12-1.09.06-.52.06-1.01-.07-1.39-.13-.39-.37-.7-.76-.9-.1-.05-.3-.12-.59-.16-.41-.06-1.13-.1-2.06-.14-5.08-.18-16.85-.01-20.23-.19-6.01-.32-8.08,1.49-31.43,1.24-6.8-.07-16.92.35-23.74.33-9.05-.03-19.41-.51-28.56-.47-15.61.07-30.18,1.01-45.91,1.27-10.34.18-16.83-.86-27.04-.68-6.11.11-15.17.25-21.18.85-1.62.16-2.61-.07-3.58-.15-1.12-.1-2.21-.03-3.96.84-.35.17-1.92,1.52-2.82,2.71-.48.63-.76,1.26-.76,1.68-.08,5.14-.54,9.35-.72,14.66-.45,12.86,2.11,87.38,1.91,97.54-.04,2.06.39,14.17.39,14.32,0,.02,0,.04,0,.06ZM355.47,1.62s-.02.1-.02.15c-.02.24-.02.54,0,.91.06,1.33-.03,2.13-.03,2.13-.05.41-.39.71-.8.71,0,0-8.19-.07-11.39-.08-5.41-.03-11.03-.25-16.63-.4-3.92-.1-7.46-.24-11.45-.55-3.59-.27-7.35-.26-11.07-.47-.87-.05-1.99.21-3.24.6-2.03.63-4.38,1.62-6.59,2.4-2.65.93-5.14,1.54-6.78,1.12-.87-.22-1.15-.63-1.32-1.06-.06-.14-.09-.29-.13-.45-.04-.15-.08-.31-.26-.47-.06,0-.2-.01-.31,0-.34.02-.76.09-1.23.17-1.68.27-3.81.5-5.24-.58-2.15-1.61-3.12-2.67-3.62-3.23l-.2-.22c-4.56-.16-8.57.33-12.77.33-8.04,0-16.25.63-24.28,1.13-6.04.38-9.89.17-17.29.15-.65,0-2.12.14-2.95.77-.62.47-1.43,1.34-2.35,1.87-.77.45-1.61.68-2.48.47-1.04-.24-1.35-1.07-1.27-2.15.03-.46.14-.97.15-1.41,0-.08-.01-.19-.02-.25-.28-.03-1.1-.11-1.95-.14-5.09-.18-16.87-.01-20.26-.19-5.99-.32-8.06,1.49-31.36,1.24-6.8-.07-16.91.35-23.72.33-9.04-.02-19.41-.51-28.55-.46-15.6.07-30.17,1.01-45.89,1.27-10.34.18-16.83-.86-27.04-.68-6.07.11-15.08.25-21.05.84-1.43.14-2.41.01-3.29-.09-1.11-.13-2.02-.21-3.69.62-.24.12-1.18.97-1.91,1.81-.24.28-.46.56-.61.82-.09.14-.17.25-.17.35-.08,5.16-.54,9.38-.72,14.69-.45,12.86,2.12,87.36,1.91,97.51-.02,1.31.14,6.68.26,10.44.68-.7,1.74-1.27,3.02-1.67,3.56-1.11,8.89-1.08,11.06-.55h.01s0,0,0,0c6.21,1.55,9.3,2.8,16.12,3.33,7.8.6,16.67,2.06,24.86,3.14,4.73.62,23.91.75,29.25.76,15.56.05,32.84-4.33,53.95-2.61,13.36,1.09,27.41,1.36,40.8,1.79,10.61.34,19.68-2.9,30.26-3.6,9-.59,16.61-.41,24.51-.41,2.85,0,10.62-.8,14.23-1.19-.34-.33-.69-.7-.98-1.1-.8-1.09-1.11-2.33-.38-3.37.92-1.32,2.5-1.92,4.29-1.97,2.44-.07,5.27.89,7.02,2.06.85.57,1.45,1.21,1.71,1.8.25.57.25,1.12-.02,1.62-.23.44-.64.82-1.24,1.23-1.07.72-2.87,1.67-5.21,4.22-.43.46-.7.86-.83,1.21-.08.22-.11.4-.05.56.12.36.53.55.94.69.8.29,1.76.35,2.09.24,3.98-1.33,5.6-2.15,7.91-3.29,3.53-1.73,5.63-2.09,8.61-2.08,2.53,0,7.7-.19,12,.72,5.73,1.21,11,2.11,19.31,2.12,6.64,0,13.91.59,20.48.43,6.26-.15,21.69.14,24.79.07,1.38-.03,3.27,0,5-.39,1.53-.35,2.95-1.04,3.61-2.56,1.07-2.48,1.76-5.53,1.9-7.63.28-4.21.55-7.42.61-11.15.14-9.28-.98-94.69-1.27-105.46-.1-3.69-2.56-5.45-4.89-6.31-.62-.23-1.11-.41-1.5-.52-.12-.03-.25-.06-.34-.07ZM16.51,130.73c-1.96-.25-5.08-.21-7.71.33-1.21.24-2.31.59-3.13,1.08-.44.26-.79.57-.98.93-.46.88-.7,1.59-.74,2.15v.13c0,.06,0,.11,0,.16.01.27.08.5.19.7.25.45.73.7,1.27.88.68.22,1.48.3,2.22.33,3.36.14,7.07-.12,8.49-.23.11-.59.25-1.42.25-1.66,0-1.03-.14-2-.14-2.91,0-.67.07-1.3.28-1.9Z"/>
        <path class="cls-4" d="m362.77,132.71s.65-2.15.19-3.9c-.29-1.12-.83-2.23-1.53-2.92-1.42-1.4-3.71-2.58-5.84-2.51-.64.02-1.08-.05-1.36-.29-.26-.22-.34-.56-.38-.97-.14-1.26.18-3.05.23-5.11.11-4.34.49-6.02,1.44-9.8.97-3.91,2.14-5.65,2.41-11.52.3-6.24-2.9-73.43-3.06-78.79-.06-2.11.69-11.31.72-13.64,0-.44-.35-.81-.8-.81-.44,0-.81.35-.81.79-.03,2.34-.78,11.58-.72,13.7.16,5.36,3.36,72.44,3.07,78.67-.27,5.72-1.42,7.41-2.37,11.21-.98,3.92-1.37,5.66-1.48,10.15-.05,2.15-.37,4.02-.22,5.33.1.88.4,1.55.94,2.01.52.44,1.29.71,2.46.67,1.71-.06,3.52.93,4.66,2.05.52.51.89,1.35,1.1,2.18.35,1.36-.17,3.02-.17,3.02-.13.43.11.87.53,1,.42.13.87-.11,1-.53Z"/>
      </g>
    </g>
  </g>
</svg>