<?xml version="1.0" encoding="UTF-8" standalone="no"?>
<!DOCTYPE svg PUBLIC "-//W3C//DTD SVG 1.1//EN" "http://www.w3.org/Graphics/SVG/1.1/DTD/svg11.dtd">
<svg width="100%" height="100%" viewBox="0 0 274 276" version="1.1" xmlns="http://www.w3.org/2000/svg" xmlns:xlink="http://www.w3.org/1999/xlink" xml:space="preserve" xmlns:serif="http://www.serif.com/" style="fill-rule:evenodd;clip-rule:evenodd;stroke-linejoin:round;stroke-miterlimit:2;">
    <g transform="matrix(1,0,0,1,-2086.43,-4103.18)">
        <g transform="matrix(1,0,0,1,-0.944037,915.399)">
            <g id="Ebene6">
                <g transform="matrix(1,0,0,1,-21.5328,78.2901)">
                    <path d="M2255.59,3212.3C2232,3198.56 2219.15,3138.4 2217.59,3138.8C2186.77,3146.66 2168.35,3156.38 2153.91,3180.36C2131.39,3217.73 2130.08,3235.91 2134.29,3281.19C2138.9,3330.79 2192.26,3384.29 2258.25,3384.54C2308.06,3384.73 2357.97,3354.6 2374.99,3300.83C2404.93,3206.24 2336.61,3157.84 2312.79,3145.7C2298.28,3138.31 2285.91,3193.16 2276.65,3212.56C2268.55,3229.53 2267.01,3218.95 2255.59,3212.3Z" style="fill:rgb(2,0,0);"/>
                </g>
                <g transform="matrix(1,0,0,1,-40.0028,58.1126)">
                    <path d="M2255.59,3212.3C2242.11,3188.39 2231.84,3134.28 2230.28,3134.68C2199.46,3142.55 2168.35,3156.38 2153.91,3180.36C2131.39,3217.73 2130.08,3235.91 2134.29,3281.19C2138.9,3330.79 2192.26,3384.29 2258.25,3384.54C2308.06,3384.73 2357.97,3354.6 2374.99,3300.83C2404.93,3206.24 2336.61,3157.84 2312.79,3145.7C2298.28,3138.31 2285.91,3193.16 2276.65,3212.56C2268.55,3229.53 2262.08,3223.82 2255.59,3212.3Z" style="fill:rgb(163,147,89);"/>
                    <clipPath id="_clip1">
                        <path d="M2255.59,3212.3C2242.11,3188.39 2231.84,3134.28 2230.28,3134.68C2199.46,3142.55 2168.35,3156.38 2153.91,3180.36C2131.39,3217.73 2130.08,3235.91 2134.29,3281.19C2138.9,3330.79 2192.26,3384.29 2258.25,3384.54C2308.06,3384.73 2357.97,3354.6 2374.99,3300.83C2404.93,3206.24 2336.61,3157.84 2312.79,3145.7C2298.28,3138.31 2285.91,3193.16 2276.65,3212.56C2268.55,3229.53 2262.08,3223.82 2255.59,3212.3Z"/>
                    </clipPath>
                    <g clip-path="url(#_clip1)">
                        <g transform="matrix(1,0,0,1,40.0028,-58.1126)">
                            <path d="M2222.98,3325.12C2221.72,3326.41 2221.89,3332.1 2222.78,3333.31C2224.93,3336.19 2228.32,3334.59 2229.58,3333.31C2230.84,3332.03 2230.72,3327.25 2230.32,3325.62C2229.42,3321.99 2224.23,3323.84 2222.98,3325.12Z"/>
                        </g>
                        <g transform="matrix(1,0,0,1,40.0028,-58.1126)">
                            <path d="M2214.17,3296.65C2198.43,3295.26 2187.4,3306.89 2183.99,3321.68C2181.04,3334.47 2183.92,3349.45 2194.08,3359.32C2200.81,3365.85 2210.75,3370.24 2224.48,3370.07C2251.58,3369.73 2266.18,3354.09 2268.55,3337.56C2270.95,3320.82 2260.95,3302.55 2237.69,3296.94C2235.46,3296.4 2233.2,3297.78 2232.66,3300.01C2232.13,3302.25 2233.5,3304.5 2235.74,3305.04C2253.89,3309.42 2262.18,3323.31 2260.3,3336.37C2258.39,3349.65 2246.14,3361.47 2224.38,3361.74C2213.35,3361.87 2205.29,3358.58 2199.89,3353.34C2191.86,3345.54 2189.78,3333.66 2192.11,3323.55C2194.57,3312.88 2202.08,3303.95 2213.44,3304.95C2215.73,3305.16 2217.76,3303.46 2217.96,3301.17C2218.16,3298.88 2216.46,3296.85 2214.17,3296.65Z"/>
                        </g>
                        <g transform="matrix(1,0,0,1,40.0028,-58.1126)">
                            <path d="M2185.84,3261.51C2117.35,3302.17 2153.84,3411.45 2237.46,3396.24C2239.72,3395.83 2241.23,3393.66 2240.82,3391.4C2240.4,3389.13 2238.23,3387.63 2235.97,3388.04C2161.86,3401.52 2129.39,3304.71 2190.09,3268.68C2192.07,3267.51 2192.72,3264.95 2191.55,3262.97C2190.37,3260.99 2187.82,3260.34 2185.84,3261.51Z"/>
                        </g>
                        <g transform="matrix(1,0,0,1,40.0028,-58.1126)">
                            <path d="M2128.51,3263.44C2112.87,3299.57 2113.24,3330.03 2123.51,3354.34C2138.9,3390.75 2176.78,3413.55 2218.02,3420.75C2255.38,3427.27 2291.31,3405.39 2308.54,3383.04C2323.46,3363.69 2328.47,3332.76 2323.03,3303.49C2317.58,3274.13 2301.67,3246.58 2275.5,3233.91C2273.43,3232.91 2270.94,3233.78 2269.94,3235.85C2268.93,3237.92 2269.8,3240.41 2271.87,3241.42C2295.71,3252.95 2309.87,3278.27 2314.84,3305.01C2319.83,3331.83 2315.61,3360.22 2301.94,3377.95C2286.22,3398.34 2253.53,3418.49 2219.45,3412.54C2181.06,3405.83 2145.52,3384.99 2131.19,3351.1C2121.65,3328.54 2121.64,3300.28 2136.16,3266.75C2137.07,3264.64 2136.1,3262.19 2133.99,3261.27C2131.88,3260.36 2129.43,3261.33 2128.51,3263.44Z"/>
                        </g>
                    </g>
                </g>
                <g transform="matrix(1,0,0,1,-40.0028,58.1126)">
                    <path d="M2259.94,3209.84C2247.96,3188.58 2238.63,3143.11 2235.74,3134.52C2234.68,3131.36 2232.73,3130.26 2232.16,3130.03C2231.07,3129.6 2230.03,3129.59 2229.05,3129.84C2196.92,3138.04 2164.68,3152.78 2149.62,3177.78C2126.43,3216.28 2124.97,3235 2129.31,3281.65C2134.12,3333.32 2189.49,3389.28 2258.23,3389.54C2310.1,3389.74 2362.03,3358.33 2379.76,3302.34C2410.85,3204.09 2339.8,3153.86 2315.06,3141.25C2308.73,3138.03 2301.82,3141.35 2296.09,3150.58C2286.81,3165.52 2278.68,3196.71 2272.14,3210.4C2270.77,3213.28 2269.49,3215.41 2268.21,3216.86C2267.6,3217.56 2267.13,3218.1 2266.55,3218.23C2266.35,3218.27 2266.21,3218.07 2266.02,3217.95C2265.66,3217.71 2265.32,3217.42 2264.97,3217.08C2263.26,3215.39 2261.62,3212.83 2259.94,3209.84L2259.94,3209.84ZM2227.15,3140.68C2230.88,3154.13 2239.99,3194.81 2251.23,3214.75L2251.23,3214.75C2253.96,3219.6 2256.8,3223.49 2259.62,3225.66C2262.54,3227.9 2265.58,3228.67 2268.66,3228C2272.37,3227.2 2276.91,3223.62 2281.16,3214.71C2285.83,3204.95 2291.29,3186.26 2297.4,3170.94C2300.24,3163.82 2303.18,3157.45 2306.31,3153.33C2307.25,3152.08 2308.17,3151.07 2309.15,3150.43C2309.6,3150.13 2310.04,3149.92 2310.52,3150.16C2333.41,3161.83 2399,3208.39 2370.22,3299.32C2353.91,3350.88 2306.03,3379.72 2258.27,3379.54C2195.02,3379.3 2143.69,3328.26 2139.27,3280.73C2135.19,3236.82 2136.36,3219.17 2158.19,3182.94C2171.34,3161.11 2199.09,3148.36 2227.15,3140.68Z"/>
                </g>
            </g>
        </g>
    </g>
</svg>
