<?xml version="1.0" encoding="UTF-8" standalone="no"?>
<!DOCTYPE svg PUBLIC "-//W3C//DTD SVG 1.1//EN" "http://www.w3.org/Graphics/SVG/1.1/DTD/svg11.dtd">
<svg width="100%" height="100%" viewBox="0 0 280 277" version="1.1" xmlns="http://www.w3.org/2000/svg" xmlns:xlink="http://www.w3.org/1999/xlink" xml:space="preserve" xmlns:serif="http://www.serif.com/" style="fill-rule:evenodd;clip-rule:evenodd;stroke-linejoin:round;stroke-miterlimit:2;">
    <g transform="matrix(1,0,0,1,-2081.44,-3172.27)">
        <g transform="matrix(1,0,0,1,-0.944037,915.399)">
            <g id="Ebene5">
                <g transform="matrix(1,0,0,1,18.47,20.1774)">
                    <path d="M2124.55,2301.64C2078.06,2333.46 2077.72,2416 2109.4,2462.06C2157.77,2532.38 2276.7,2527.2 2317.28,2468.5C2345.1,2428.26 2365.36,2371.54 2301.54,2296.68C2267.41,2256.66 2215.34,2260.97 2198.01,2263.2C2181.55,2265.32 2195.82,2296.42 2198.88,2325.96C2200.22,2338.77 2198.66,2340.82 2188.38,2332.64C2171.34,2319.07 2145.74,2287.14 2124.55,2301.64Z" style="fill:rgb(2,0,0);"/>
                </g>
                <path d="M2124.55,2301.64C2078.06,2333.46 2077.72,2416 2109.4,2462.06C2157.77,2532.38 2276.7,2527.2 2317.28,2468.5C2345.1,2428.26 2365.36,2371.54 2301.54,2296.68C2267.41,2256.66 2215.34,2260.97 2198.01,2263.2C2181.55,2265.32 2195.82,2296.42 2198.88,2325.96C2200.22,2338.77 2198.66,2340.82 2188.38,2332.64C2171.34,2319.07 2145.74,2287.14 2124.55,2301.64Z" style="fill:rgb(163,147,89);"/>
                <clipPath id="_clip1">
                    <path d="M2124.55,2301.64C2078.06,2333.46 2077.72,2416 2109.4,2462.06C2157.77,2532.38 2276.7,2527.2 2317.28,2468.5C2345.1,2428.26 2365.36,2371.54 2301.54,2296.68C2267.41,2256.66 2215.34,2260.97 2198.01,2263.2C2181.55,2265.32 2195.82,2296.42 2198.88,2325.96C2200.22,2338.77 2198.66,2340.82 2188.38,2332.64C2171.34,2319.07 2145.74,2287.14 2124.55,2301.64Z"/>
                </clipPath>
                <g clip-path="url(#_clip1)">
                    <path d="M2223.31,2385.84C2214.87,2385.1 2209.99,2387.66 2207.49,2390.94C2204.9,2394.34 2204.51,2398.92 2206.06,2403.35C2208.12,2409.23 2213.63,2414.66 2220.11,2415.7C2226.46,2416.72 2234.33,2413.88 2240.44,2401.66C2241.47,2399.61 2240.64,2397.1 2238.58,2396.07C2236.52,2395.04 2234.02,2395.88 2232.99,2397.94C2229.28,2405.35 2225.28,2408.09 2221.43,2407.47C2217.26,2406.8 2213.97,2402.65 2213.52,2398.88C2213.39,2397.83 2213.5,2396.8 2214.12,2395.99C2215.42,2394.28 2218.18,2393.76 2222.57,2394.14C2224.86,2394.35 2226.89,2392.65 2227.09,2390.36C2227.29,2388.07 2225.6,2386.05 2223.31,2385.84Z"/>
                    <path d="M2224.81,2367.01C2225.51,2366.7 2226.78,2366.18 2227.89,2365.94C2233.65,2364.7 2242.7,2364.88 2250.17,2367.84C2263.77,2373.22 2268.2,2390.03 2264.86,2402.73C2262.79,2410.62 2257.55,2417.07 2248.99,2417.43C2246.69,2417.52 2244.91,2419.47 2245,2421.77C2245.1,2424.06 2247.04,2425.85 2249.34,2425.75C2261.81,2425.23 2269.9,2416.34 2272.92,2404.85C2277.23,2388.45 2270.8,2367.04 2253.23,2360.09C2242.53,2355.86 2229.18,2356.37 2222.69,2358.78C2217.36,2360.77 2215.79,2364.54 2216.72,2367.54C2217.41,2369.74 2219.74,2370.97 2221.94,2370.28C2223.48,2369.8 2224.55,2368.5 2224.81,2367.01Z"/>
                    <path d="M2186.2,2347.24C2173.09,2349.99 2164.66,2358.5 2160.13,2369.64C2153.72,2385.41 2155.39,2406.69 2162.7,2423.27C2177.07,2455.89 2222.27,2470.44 2266.99,2441.62C2268.92,2440.37 2269.48,2437.79 2268.23,2435.86C2266.99,2433.93 2264.41,2433.37 2262.47,2434.61C2223.06,2460.02 2182.99,2448.65 2170.32,2419.91C2164.95,2407.71 2162.92,2392.63 2165.68,2379.89C2168.26,2367.96 2175.14,2358.08 2187.91,2355.4C2190.16,2354.92 2191.6,2352.71 2191.13,2350.46C2190.66,2348.21 2188.45,2346.77 2186.2,2347.24Z"/>
                    <path d="M2223.06,2319.52C2247.47,2319.26 2270.82,2328.66 2286.7,2340.11C2296.77,2347.37 2303.88,2355.33 2305.84,2362.21C2313.4,2388.68 2311.3,2413.01 2300.41,2433.27C2289.46,2453.62 2269.7,2469.8 2242.33,2480.07C2202.21,2495.11 2160.94,2476.84 2137.56,2447.03C2114.4,2417.49 2108.85,2376.36 2140.26,2344.95C2141.88,2343.32 2141.88,2340.68 2140.26,2339.05C2138.63,2337.43 2135.99,2337.43 2134.37,2339.05C2099.56,2373.86 2105.34,2419.43 2131.01,2452.18C2156.47,2484.66 2201.54,2504.26 2245.25,2487.87C2274.78,2476.8 2295.94,2459.16 2307.75,2437.21C2319.6,2415.17 2322.08,2388.72 2313.85,2359.92C2311.52,2351.76 2303.51,2341.96 2291.57,2333.35C2274.45,2321.01 2249.28,2310.91 2222.97,2311.19C2220.67,2311.22 2218.82,2313.1 2218.85,2315.4C2218.87,2317.7 2220.76,2319.55 2223.06,2319.52Z"/>
                </g>
                <path d="M2194.26,2330.82C2193.43,2330.23 2192.51,2329.53 2191.5,2328.73C2181.09,2320.44 2167.49,2305.48 2153.65,2297.98C2142.83,2292.12 2131.85,2290.58 2121.73,2297.51C2102.08,2310.96 2090.11,2332.9 2085.11,2357.6C2077.75,2393.96 2085.57,2436.23 2105.28,2464.89C2130.41,2501.42 2173.79,2518.5 2216.24,2518.66C2258.81,2518.83 2300.25,2501.93 2321.39,2471.34C2335.82,2450.47 2348.19,2425.3 2348.78,2395.67C2349.36,2366.16 2338.31,2332.1 2305.35,2293.44C2269.73,2251.66 2215.46,2255.91 2197.37,2258.24C2194.24,2258.64 2191.85,2259.79 2190.01,2261.43C2187.44,2263.72 2185.86,2267.12 2185.39,2271.57C2184.84,2276.66 2185.75,2283.43 2187.29,2291.15C2189.4,2301.71 2192.64,2314.23 2193.91,2326.48C2194.08,2328.12 2194.2,2329.56 2194.26,2330.82ZM2127.38,2305.76C2134.2,2301.09 2141.59,2302.82 2148.88,2306.77C2162.22,2314.01 2175.23,2328.56 2185.27,2336.55C2189.79,2340.15 2193.11,2341.93 2195.26,2342.35C2197.63,2342.82 2199.46,2342.28 2200.92,2341.22C2202.15,2340.33 2203.24,2338.93 2203.81,2336.75C2204.39,2334.53 2204.41,2330.77 2203.86,2325.44C2202.02,2307.78 2196.16,2289.56 2195.31,2277.35C2195.17,2275.32 2195.17,2273.49 2195.43,2271.91C2195.75,2269.89 2196.56,2268.43 2198.64,2268.16C2215.22,2266.02 2265.1,2261.65 2297.74,2299.93C2328.6,2336.12 2339.32,2367.85 2338.78,2395.47C2338.23,2422.98 2326.56,2446.28 2313.17,2465.65C2293.73,2493.77 2255.41,2508.81 2216.28,2508.66C2177.02,2508.51 2136.76,2493.01 2113.52,2459.22C2095.22,2432.62 2088.07,2393.35 2094.91,2359.58C2099.38,2337.52 2109.83,2317.78 2127.38,2305.76Z"/>
            </g>
        </g>
    </g>
</svg>
