<?xml version="1.0" encoding="UTF-8" standalone="no"?>
<!DOCTYPE svg PUBLIC "-//W3C//DTD SVG 1.1//EN" "http://www.w3.org/Graphics/SVG/1.1/DTD/svg11.dtd">
<svg width="100%" height="100%" viewBox="0 0 272 279" version="1.1" xmlns="http://www.w3.org/2000/svg" xmlns:xlink="http://www.w3.org/1999/xlink" xml:space="preserve" xmlns:serif="http://www.serif.com/" style="fill-rule:evenodd;clip-rule:evenodd;stroke-linejoin:round;stroke-miterlimit:2;">
    <g transform="matrix(1,0,0,1,-2088.34,-3636.82)">
        <g transform="matrix(1,0,0,1,-0.944037,915.399)">
            <g id="Ebene8">
                <g transform="matrix(1,0,0,1,18.47,20.1774)">
                    <path d="M2215.58,2726.43C2175.86,2726.69 2097.92,2767.62 2094.81,2826.25C2091.43,2889.96 2104.64,2920.69 2128.21,2943.86C2163.21,2978.26 2240.94,3005.94 2309.62,2940.4C2345.63,2906.03 2347.93,2852.8 2335.06,2808.53C2320.48,2758.35 2263.12,2726.11 2215.58,2726.43Z" style="fill:rgb(2,0,0);"/>
                </g>
                <path d="M2215.58,2726.43C2175.86,2726.69 2097.92,2767.62 2094.81,2826.25C2091.43,2889.96 2104.64,2920.69 2128.21,2943.86C2163.21,2978.26 2240.94,3005.94 2309.62,2940.4C2345.63,2906.03 2347.93,2852.8 2335.06,2808.53C2320.48,2758.35 2263.12,2726.11 2215.58,2726.43Z" style="fill:rgb(163,147,89);"/>
                <clipPath id="_clip1">
                    <path d="M2215.58,2726.43C2175.86,2726.69 2097.92,2767.62 2094.81,2826.25C2091.43,2889.96 2104.64,2920.69 2128.21,2943.86C2163.21,2978.26 2240.94,3005.94 2309.62,2940.4C2345.63,2906.03 2347.93,2852.8 2335.06,2808.53C2320.48,2758.35 2263.12,2726.11 2215.58,2726.43Z"/>
                </clipPath>
                <g clip-path="url(#_clip1)">
                    <path d="M2231.96,2849.75C2233.71,2847.16 2233.27,2843.6 2230.84,2841.52C2228.21,2839.28 2224.26,2839.59 2222.02,2842.21C2222.08,2842.14 2222.25,2841.96 2222.25,2841.96C2222.25,2841.96 2220.17,2844.22 2219.69,2845.26C2218.66,2847.48 2218.98,2849.48 2219.71,2850.98C2220.45,2852.47 2221.9,2854.67 2225.86,2854.67C2228.85,2854.67 2231.35,2852.56 2231.96,2849.75ZM2226.52,2842.2C2226.93,2842.24 2227.32,2842.33 2227.7,2842.45C2227.35,2842.33 2226.96,2842.24 2226.52,2842.2ZM2226.25,2842.18L2226.48,2842.2L2226.34,2842.18L2226.25,2842.18Z"/>
                    <path d="M2226.22,2825.08C2218.44,2823.91 2209.87,2829.42 2204.98,2837.31C2199.99,2845.35 2199.03,2855.36 2205.04,2862.04C2218.49,2877.02 2244.23,2870.8 2249.77,2850.49C2251.12,2845.55 2249.36,2840.41 2245.58,2836.02C2240.76,2830.41 2232.65,2826.06 2226.23,2825.08L2226.22,2825.08ZM2224.98,2833.32C2229.73,2834.04 2235.69,2837.3 2239.26,2841.45C2241.08,2843.57 2242.39,2845.91 2241.73,2848.29C2237.94,2862.17 2220.43,2866.71 2211.24,2856.47C2207.64,2852.47 2209.08,2846.51 2212.06,2841.7C2215.14,2836.75 2220.09,2832.58 2224.98,2833.32L2224.98,2833.32Z"/>
                    <path d="M2161.1,2820.57C2147.97,2841.28 2146.33,2859.34 2151.52,2874.11C2159.23,2896.03 2182.5,2910.99 2207.8,2916.63C2236.02,2922.92 2266.38,2917.43 2279.94,2898.79C2296.49,2876.04 2299.8,2854.77 2295.22,2836.97C2289.86,2816.12 2273.53,2799.86 2253.99,2791.39C2234.41,2782.89 2211.69,2782.25 2193.75,2792.22C2191.74,2793.33 2191.01,2795.87 2192.13,2797.88C2193.24,2799.89 2195.78,2800.62 2197.79,2799.5C2213.54,2790.76 2233.49,2791.58 2250.67,2799.03C2267.89,2806.5 2282.43,2820.68 2287.15,2839.04C2291.22,2854.86 2287.91,2873.67 2273.2,2893.88C2261.3,2910.26 2234.39,2914.02 2209.61,2908.5C2187.2,2903.5 2166.21,2890.76 2159.38,2871.34C2154.89,2858.55 2156.76,2842.98 2168.14,2825.03C2169.37,2823.08 2168.8,2820.51 2166.85,2819.28C2164.91,2818.05 2162.34,2818.62 2161.1,2820.57Z"/>
                    <path d="M2125.01,2817.24C2104.52,2873.07 2127.13,2923.14 2162.95,2938.89C2195.95,2953.41 2234.28,2953.21 2264.76,2942.15C2285.44,2934.65 2302.5,2922.15 2312.11,2906.01C2320.41,2892.05 2325.23,2864.07 2323.91,2838.8C2323.02,2821.63 2319.25,2805.74 2312.25,2796.12C2296.61,2774.62 2225.67,2712.07 2161.7,2775.21C2160.06,2776.83 2160.04,2779.47 2161.66,2781.1C2163.27,2782.74 2165.91,2782.76 2167.55,2781.14C2226.21,2723.24 2291.17,2781.3 2305.51,2801.02C2311.76,2809.61 2314.79,2823.89 2315.59,2839.23C2316.81,2862.72 2312.66,2888.78 2304.95,2901.74C2296.24,2916.37 2280.65,2927.52 2261.92,2934.32C2233.29,2944.7 2197.29,2944.9 2166.3,2931.27C2133.67,2916.91 2114.17,2870.97 2132.83,2820.11C2133.63,2817.95 2132.52,2815.55 2130.36,2814.76C2128.2,2813.97 2125.8,2815.08 2125.01,2817.24Z"/>
                </g>
                <path d="M2215.55,2721.43C2190.84,2721.59 2151.79,2736.78 2123.86,2762.16C2104.91,2779.38 2091.13,2801.24 2089.82,2825.99C2086.33,2891.83 2100.35,2923.48 2124.71,2947.43C2161.05,2983.14 2241.76,3012.07 2313.07,2944.02C2350.47,2908.32 2353.22,2853.11 2339.86,2807.14C2324.67,2754.87 2265.06,2721.1 2215.55,2721.43L2215.55,2721.43ZM2215.62,2731.43C2261.18,2731.12 2316.28,2761.83 2330.26,2809.93C2342.63,2852.49 2340.79,2903.73 2306.16,2936.78C2240.12,2999.81 2165.37,2973.38 2131.72,2940.29C2108.93,2917.9 2096.54,2888.09 2099.8,2826.52C2100.98,2804.36 2113.63,2784.97 2130.59,2769.56C2156.53,2745.98 2192.66,2731.58 2215.62,2731.43L2215.62,2731.43Z"/>
            </g>
        </g>
    </g>
</svg>
