<?xml version="1.0" encoding="UTF-8" standalone="no"?>
<!DOCTYPE svg PUBLIC "-//W3C//DTD SVG 1.1//EN" "http://www.w3.org/Graphics/SVG/1.1/DTD/svg11.dtd">
<svg width="100%" height="100%" viewBox="0 0 89 86" version="1.1" xmlns="http://www.w3.org/2000/svg" xmlns:xlink="http://www.w3.org/1999/xlink" xml:space="preserve" xmlns:serif="http://www.serif.com/" style="fill-rule:evenodd;clip-rule:evenodd;stroke-linejoin:round;stroke-miterlimit:2;">
    <g transform="matrix(1,0,0,1,-915.921,-605.959)">
        <g id="Ebene1" transform="matrix(0.478087,0,0,0.478087,707.417,467.687)">
            <g transform="matrix(2.3489,0,0,2.98464,-891.758,-2927.52)">
                <ellipse cx="608.815" cy="1110.36" rx="35.01" ry="27.553" style="fill:rgb(29,29,27);"/>
            </g>
            <g transform="matrix(3.08893,0,0,2.71496,-1414.72,-2581.97)">
                <ellipse cx="627.427" cy="1089.67" rx="26.623" ry="30.29" style="fill:rgb(164,147,88);"/>
            </g>
            <g transform="matrix(3.08893,0,0,2.71496,-1414.72,-2581.97)">
                <path d="M627.427,1057.54C611.841,1057.54 599.186,1071.94 599.186,1089.67C599.186,1107.41 611.841,1121.81 627.427,1121.81C643.014,1121.81 655.669,1107.41 655.669,1089.67C655.669,1071.94 643.014,1057.54 627.427,1057.54ZM627.427,1061.23C641.227,1061.23 652.431,1073.97 652.431,1089.67C652.431,1105.38 641.227,1118.12 627.427,1118.12C613.627,1118.12 602.423,1105.38 602.423,1089.67C602.423,1073.97 613.627,1061.23 627.427,1061.23Z" style="fill:rgb(29,29,27);"/>
            </g>
            <g transform="matrix(-0.266479,0.0655827,0.0775626,0.315157,687.231,-806.638)">
                <path d="M1575.49,3556.88C1576.56,3556.31 1577.64,3555.59 1579.13,3554.89C1580.77,3554.11 1582.65,3553.4 1584.76,3552.61C1588.97,3551.02 1593.83,3549.22 1599.02,3547.58C1612.77,3543.24 1628.19,3539.36 1635.05,3537.17C1650.92,3532.39 1675.13,3525.96 1694.58,3521.6C1701.32,3520.08 1707.45,3518.86 1712.47,3517.94C1715.12,3517.46 1717.42,3516.5 1719.33,3516.87C1720,3517 1719.82,3517.22 1720.36,3517.56C1722.05,3516.97 1723.89,3517.86 1724.48,3519.55C1725.07,3521.24 1724.18,3523.09 1722.49,3523.68C1722.27,3524.3 1722.49,3524.35 1722.02,3524.88C1720.65,3526.41 1717.99,3526.9 1715.33,3527.95C1710.51,3529.86 1704.44,3531.83 1697.69,3533.77C1678.69,3539.22 1654.4,3544.45 1638.66,3549.19C1631.64,3551.16 1616.13,3555.55 1601.81,3558.43C1596.45,3559.51 1591.29,3560.26 1586.81,3560.84C1584.56,3561.13 1582.54,3561.38 1580.71,3561.44C1579.05,3561.49 1577.74,3561.36 1576.51,3561.31C1575.29,3561.59 1574.07,3560.83 1573.79,3559.61C1573.51,3558.38 1574.27,3557.16 1575.49,3556.88Z"/>
            </g>
            <g transform="matrix(-0.304493,0.0477705,0.0414205,0.264018,936.665,-624.114)">
                <path d="M1629.05,3659.88C1628.81,3660.04 1628.55,3660.18 1628.26,3660.27C1626.48,3660.88 1624.54,3659.93 1623.93,3658.14C1623.59,3657.43 1623.38,3655.48 1625.73,3653.81C1626.21,3653.46 1627.35,3652.93 1629.03,3652.16C1631.04,3651.25 1633.89,3649.94 1637.53,3648.6C1643,3646.59 1650.03,3644.32 1657.66,3642.28C1661.46,3641.26 1665.42,3640.38 1669.39,3639.59C1675.5,3638.36 1681.6,3637.36 1687.24,3636.58C1690.06,3636.19 1692.75,3635.84 1695.28,3635.65C1700.3,3635.28 1704.5,3635.33 1707.64,3635.48C1709.18,3635.34 1710.54,3636.48 1710.67,3638.01C1710.81,3639.55 1709.67,3640.9 1708.14,3641.04C1704.95,3641.76 1700.74,3643.27 1695.59,3644.74C1689.91,3646.37 1683.32,3648.09 1676.5,3649.89C1671.18,3651.29 1665.74,3652.72 1660.49,3653.9C1654.68,3655.21 1649.12,3656.26 1644.29,3657.15C1637.54,3658.39 1632.3,3659.11 1629.84,3659.71C1629.51,3659.79 1629.12,3660.05 1629.05,3659.88ZM1630.57,3656.91C1630.63,3657.48 1630.58,3658.07 1630.16,3658.66C1630.45,3658.13 1630.6,3657.53 1630.57,3656.91Z"/>
            </g>
            <g transform="matrix(-0.344681,0.0587039,0.0437345,0.256787,1115.26,-735.313)">
                <path d="M2125.39,3663.57L2125.4,3663.5L2125.4,3662.94C2125.23,3663.95 2124.37,3664.75 2123.3,3664.81C2122.05,3664.88 2120.97,3663.93 2120.9,3662.68C2120.57,3661.71 2121.53,3659.72 2124.71,3657.65C2128.78,3654.99 2137.81,3651.72 2148.8,3648.42C2150.76,3647.83 2152.81,3647.33 2154.9,3646.82C2158.88,3645.85 2163.01,3644.88 2167.2,3644.1C2177.3,3642.2 2187.59,3640.73 2196.23,3639.82C2197.68,3639.67 2199.08,3639.41 2200.43,3639.49C2202.99,3639.64 2204.88,3640.35 2206.99,3640.79C2208.78,3640.55 2210.42,3641.8 2210.67,3643.58C2210.91,3645.37 2209.66,3647.01 2207.87,3647.26C2206.04,3648.22 2204.53,3649.43 2202.24,3650.3C2201.45,3650.6 2200.59,3650.7 2199.72,3650.88C2189.98,3652.91 2177.76,3655.55 2165.94,3657.75C2160.68,3658.73 2155.49,3659.54 2150.64,3660.22C2140.78,3661.58 2132.54,3662.55 2127.9,3663.45C2126.99,3663.62 2125.85,3663.46 2125.39,3663.57ZM2125.39,3663.57C2125.22,3663.6 2125.15,3663.68 2125.21,3663.82C2125.35,3664.13 2125.39,3663.92 2125.39,3663.57Z"/>
            </g>
            <g transform="matrix(-0.326759,0.0541841,0.046192,0.278562,1093.06,-801.385)">
                <path d="M2337.66,3610.36C2344.83,3607.38 2352.28,3604.46 2360.02,3601.9C2371.28,3598.18 2383.01,3595.11 2394.65,3592.5C2408.89,3589.31 2422.98,3586.55 2436.16,3585.73C2442.49,3585.34 2448.58,3585.61 2454.35,3585.91C2457.03,3585.91 2459.21,3588.1 2459.21,3590.78C2459.21,3593.47 2457.03,3595.65 2454.35,3595.65C2448.84,3595.94 2443.09,3596.73 2437.05,3597.29C2424.3,3598.48 2410.5,3599.72 2396.56,3602.12C2385.04,3604.1 2373.46,3606.66 2362.16,3609.39C2354.37,3611.28 2346.73,3613.15 2339.41,3615.31C2338.05,3615.79 2336.55,3615.07 2336.06,3613.71C2335.58,3612.34 2336.3,3610.84 2337.66,3610.36Z"/>
            </g>
            <g transform="matrix(1,0,0,1,-686.531,19.5339)">
                <path d="M1188.26,401.855C1187.38,400.467 1185.82,399.547 1184.05,399.547C1181.11,399.547 1179.88,401.256 1179.29,402.528C1178.79,403.621 1178.5,405.075 1179.28,406.816C1179.56,407.434 1180.54,408.881 1182.66,410.257C1186.64,412.837 1196.87,417.433 1208.16,417.108C1218.15,416.82 1228.64,413.071 1235.64,404.2C1240.2,398.409 1243.35,390.373 1243.64,379.467C1244.08,362.805 1231.74,349.463 1208.39,347.689C1201.89,347.194 1194.53,345.27 1190.06,339.914C1187.21,336.49 1185.7,331.656 1186.24,325.056C1187.36,311.105 1198.45,306.579 1208.36,306.723C1214.81,306.816 1220.97,308.573 1223.4,311.624C1225.12,313.781 1228.27,314.134 1230.43,312.413C1232.59,310.692 1232.94,307.543 1231.22,305.386C1227.48,300.698 1218.41,296.868 1208.5,296.724C1193.88,296.512 1177.92,303.671 1176.27,324.254C1175.47,334.104 1178.12,341.21 1182.39,346.32C1188.6,353.765 1198.59,356.973 1207.64,357.66C1224.25,358.923 1233.96,367.344 1233.64,379.2C1233.42,387.464 1231.25,393.618 1227.78,398.007C1222.74,404.406 1215.08,406.904 1207.87,407.112C1199.76,407.346 1190.79,403.133 1188.26,401.855ZM1187.06,408.539C1186.22,409.172 1185.18,409.547 1184.05,409.547C1185.43,409.547 1186.39,409.117 1187.06,408.539Z" style="fill:rgb(29,29,27);"/>
            </g>
        </g>
    </g>
</svg>
