<?xml version="1.0" encoding="UTF-8" standalone="no"?>
<!DOCTYPE svg PUBLIC "-//W3C//DTD SVG 1.1//EN" "http://www.w3.org/Graphics/SVG/1.1/DTD/svg11.dtd">
<svg width="100%" height="100%" viewBox="0 0 110 110" version="1.1" xmlns="http://www.w3.org/2000/svg" xmlns:xlink="http://www.w3.org/1999/xlink" xml:space="preserve" xmlns:serif="http://www.serif.com/" style="fill-rule:evenodd;clip-rule:evenodd;stroke-linejoin:round;stroke-miterlimit:2;">
    <g transform="matrix(1,0,0,1,-286.728,-47.8748)">
        <g id="Ebene2" transform="matrix(0.574902,0,0,0.574902,18.141,-401.25)">
            <g transform="matrix(1.05499,0,0,1.13616,-237.133,700.693)">
                <path d="M758.277,99.356C726.888,99.356 701.405,123.02 701.405,152.166C701.405,181.313 726.888,204.976 758.277,204.976C789.666,204.976 815.149,181.313 815.149,152.166C815.149,123.02 789.666,99.356 758.277,99.356ZM758.277,108.158C784.434,108.158 805.671,127.877 805.671,152.166C805.671,176.455 784.434,196.174 758.277,196.174C732.12,196.174 710.883,176.455 710.883,152.166C710.883,127.877 732.12,108.158 758.277,108.158Z" style="fill:rgb(29,29,27);"/>
            </g>
            <g transform="matrix(1,0,0,1,-633.659,549.788)">
                <path d="M1175.85,302.2C1174.84,309.585 1175.84,333.629 1175.8,342.124C1175.74,357.201 1175.8,369.904 1175.8,384.752C1175.8,388.771 1176.76,399.817 1180.73,408.085C1183.99,414.876 1189.21,419.754 1196.59,419.906C1203.45,420.048 1208.69,415.513 1212.08,408.744C1216.12,400.69 1217.54,389.523 1217.58,384.363C1217.7,371.494 1217.58,354.033 1217.58,343.092L1217.58,302.563C1217.58,299.804 1215.34,297.563 1212.58,297.563C1209.82,297.563 1207.58,299.804 1207.58,302.563L1207.58,343.092C1207.58,354.008 1207.7,371.429 1207.58,384.269C1207.54,388.498 1206.45,397.664 1203.14,404.263C1201.63,407.274 1199.85,409.972 1196.8,409.908C1193.31,409.836 1191.29,406.97 1189.74,403.757C1186.51,397.028 1185.8,388.023 1185.8,384.752C1185.8,369.918 1185.74,357.227 1185.8,342.165C1185.83,333.949 1184.78,310.693 1185.75,303.55C1186.13,300.815 1184.21,298.293 1181.48,297.92C1178.74,297.548 1176.22,299.465 1175.85,302.2Z" style="fill:rgb(29,29,27);"/>
            </g>
            <g transform="matrix(1.54983,0,0,1.03351,-1306.01,431.246)">
                <ellipse cx="1205.85" cy="350.783" rx="6.452" ry="9.118" style="fill:rgb(29,29,27);"/>
            </g>
            <g transform="matrix(1.76185,0,0,1.59133,325.933,714.567)">
                <rect x="80.174" y="41.885" width="108.6" height="120.237" style="fill:none;"/>
            </g>
        </g>
    </g>
</svg>
