<?xml version="1.0" encoding="UTF-8" standalone="no"?>
<!DOCTYPE svg PUBLIC "-//W3C//DTD SVG 1.1//EN" "http://www.w3.org/Graphics/SVG/1.1/DTD/svg11.dtd">
<svg width="100%" height="100%" viewBox="0 0 110 110" version="1.1" xmlns="http://www.w3.org/2000/svg" xmlns:xlink="http://www.w3.org/1999/xlink" xml:space="preserve" xmlns:serif="http://www.serif.com/" style="fill-rule:evenodd;clip-rule:evenodd;stroke-linejoin:round;stroke-miterlimit:2;">
    <g transform="matrix(1,0,0,1,-625.02,-47.8748)">
        <g id="Ebene10" transform="matrix(0.574902,0,0,0.574902,-236.781,-191.778)">
            <g transform="matrix(1.05499,0,0,1.13616,816.373,339.644)">
                <path d="M758.277,99.356C726.888,99.356 701.405,123.02 701.405,152.166C701.405,181.313 726.888,204.976 758.277,204.976C789.666,204.976 815.149,181.313 815.149,152.166C815.149,123.02 789.666,99.356 758.277,99.356ZM758.277,108.158C784.434,108.158 805.671,127.877 805.671,152.166C805.671,176.455 784.434,196.174 758.277,196.174C732.12,196.174 710.883,176.455 710.883,152.166C710.883,127.877 732.12,108.158 758.277,108.158Z" style="fill:rgb(29,29,27);"/>
            </g>
            <g transform="matrix(1.05081,0,0,0.936967,1012.02,155.408)">
                <path d="M535.188,327.229C537.017,325.99 537.885,323.537 537.312,321.229C536.739,318.921 534.865,317.324 532.728,317.324C501.215,317.324 475.63,346.018 475.63,381.361C475.63,416.703 501.215,445.397 532.728,445.397C534.865,445.397 536.739,443.801 537.312,441.493C537.885,439.185 537.017,436.731 535.188,435.493C521.897,426.49 511.316,405.269 511.316,381.361C511.316,357.452 521.897,336.231 535.188,327.229ZM517.465,330.807C508.21,343.459 501.8,361.561 501.8,381.361C501.8,401.16 508.21,419.261 517.465,431.914C498.681,424.776 485.146,404.827 485.146,381.361C485.146,357.894 498.681,337.945 517.466,330.806L517.465,330.807Z" style="fill:rgb(29,29,27);"/>
            </g>
            <g transform="matrix(1,0,0,1,406.46,155.404)">
                <path d="M1188.26,401.855C1187.38,400.467 1185.82,399.547 1184.05,399.547C1181.11,399.547 1179.88,401.256 1179.29,402.528C1178.79,403.621 1178.5,405.075 1179.28,406.816C1179.56,407.434 1180.54,408.881 1182.66,410.257C1186.64,412.837 1196.87,417.433 1208.16,417.108C1218.15,416.82 1228.64,413.071 1235.64,404.2C1240.2,398.409 1243.35,390.373 1243.64,379.467C1244.08,362.805 1231.74,349.463 1208.39,347.689C1201.89,347.194 1194.53,345.27 1190.06,339.914C1187.21,336.49 1185.7,331.656 1186.24,325.056C1187.36,311.105 1198.45,306.579 1208.36,306.723C1214.81,306.816 1220.97,308.573 1223.4,311.624C1225.12,313.781 1228.27,314.134 1230.43,312.413C1232.59,310.692 1232.94,307.543 1231.22,305.386C1227.48,300.698 1218.41,296.868 1208.5,296.724C1193.88,296.512 1177.92,303.671 1176.27,324.254C1175.47,334.104 1178.12,341.21 1182.39,346.32C1188.6,353.765 1198.59,356.973 1207.64,357.66C1224.25,358.923 1233.96,367.344 1233.64,379.2C1233.42,387.464 1231.25,393.618 1227.78,398.007C1222.74,404.406 1215.08,406.904 1207.87,407.112C1199.76,407.346 1190.79,403.133 1188.26,401.855ZM1187.06,408.539C1186.22,409.172 1185.18,409.547 1184.05,409.547C1185.43,409.547 1186.39,409.117 1187.06,408.539Z" style="fill:rgb(29,29,27);"/>
            </g>
            <g transform="matrix(1.76185,0,0,1.59133,1357.78,350.207)">
                <rect x="80.174" y="41.885" width="108.6" height="120.237" style="fill:none;"/>
            </g>
        </g>
    </g>
</svg>
