<?xml version="1.0" encoding="UTF-8" standalone="no"?>
<!DOCTYPE svg PUBLIC "-//W3C//DTD SVG 1.1//EN" "http://www.w3.org/Graphics/SVG/1.1/DTD/svg11.dtd">
<svg width="100%" height="100%" viewBox="0 0 110 110" version="1.1" xmlns="http://www.w3.org/2000/svg" xmlns:xlink="http://www.w3.org/1999/xlink" xml:space="preserve" xmlns:serif="http://www.serif.com/" style="fill-rule:evenodd;clip-rule:evenodd;stroke-linejoin:round;stroke-miterlimit:2;">
    <g transform="matrix(1,0,0,1,-59.041,-47.8748)">
        <g id="Ebene13" transform="matrix(0.574902,0,0,0.574902,-479.25,-157.111)">
            <g transform="matrix(-1.08015,0,0,0.947611,1818.44,64.3228)">
                <path d="M751.239,319.264C753.795,319.264 755.868,321.626 755.868,324.54L755.868,440.622C755.868,443.536 753.795,445.898 751.239,445.898C720.581,445.898 695.691,417.527 695.691,382.581C695.691,347.635 720.581,319.264 751.239,319.264ZM746.61,330.078C723.232,332.729 704.949,355.24 704.949,382.581C704.949,409.922 723.232,432.433 746.61,435.084L746.61,330.078Z" style="fill:rgb(29,29,27);"/>
            </g>
            <g transform="matrix(1.07427,0,0,1.09691,464.029,333.999)">
                <path d="M532.797,81.182C531.987,79.701 530.41,78.776 528.695,78.776C526.979,78.776 525.402,79.701 524.592,81.182C524.592,81.182 510.734,106.524 502.417,129.331C498.689,139.555 496.114,149.312 496.114,156.267C496.114,173.877 510.713,188.174 528.695,188.174C546.676,188.174 561.275,173.877 561.275,156.267C561.275,149.312 558.7,139.555 554.972,129.331C546.655,106.524 532.797,81.182 532.797,81.182ZM528.695,93.296C533.331,102.353 540.919,117.9 546.205,132.397C549.514,141.472 551.966,150.094 551.966,156.267C551.966,168.845 541.539,179.058 528.695,179.058C515.851,179.058 505.423,168.845 505.423,156.267C505.423,150.094 507.875,141.472 511.184,132.397C516.47,117.9 524.058,102.353 528.695,93.296Z" style="fill:rgb(29,29,27);"/>
            </g>
            <g transform="matrix(1.54983,0,0,1.09668,-836.882,123.246)">
                <ellipse cx="1205.85" cy="350.783" rx="6.452" ry="9.118" style="fill:rgb(29,29,27);"/>
            </g>
            <g transform="matrix(1.76185,0,0,1.59133,795.063,289.906)">
                <rect x="80.174" y="41.885" width="108.6" height="120.237" style="fill:none;"/>
            </g>
        </g>
    </g>
</svg>
