<?xml version="1.0" encoding="UTF-8" standalone="no"?>
<!DOCTYPE svg PUBLIC "-//W3C//DTD SVG 1.1//EN" "http://www.w3.org/Graphics/SVG/1.1/DTD/svg11.dtd">
<svg width="100%" height="100%" viewBox="0 0 110 110" version="1.1" xmlns="http://www.w3.org/2000/svg" xmlns:xlink="http://www.w3.org/1999/xlink" xml:space="preserve" xmlns:serif="http://www.serif.com/" style="fill-rule:evenodd;clip-rule:evenodd;stroke-linejoin:round;stroke-miterlimit:2;">
    <g transform="matrix(1,0,0,1,-511.834,-47.8748)">
        <g id="Ebene4" transform="matrix(0.574902,0,0,0.574902,-176.96,-440.578)">
            <g transform="matrix(1.07427,0,0,1.09691,750.815,773.736)">
                <path d="M532.797,81.182C531.987,79.701 530.41,78.776 528.695,78.776C526.979,78.776 525.402,79.701 524.592,81.182C524.592,81.182 510.734,106.524 502.417,129.331C498.689,139.555 496.114,149.312 496.114,156.267C496.114,173.877 510.713,188.174 528.695,188.174C546.676,188.174 561.275,173.877 561.275,156.267C561.275,149.312 558.7,139.555 554.972,129.331C546.655,106.524 532.797,81.182 532.797,81.182ZM528.695,93.296C533.331,102.353 540.919,117.9 546.205,132.397C549.514,141.472 551.966,150.094 551.966,156.267C551.966,168.845 541.539,179.058 528.695,179.058C515.851,179.058 505.423,168.845 505.423,156.267C505.423,150.094 507.875,141.472 511.184,132.397C516.47,117.9 524.058,102.353 528.695,93.296Z" style="fill:rgb(29,29,27);"/>
            </g>
            <g transform="matrix(5.3881e-17,-0.879944,1.00026,6.12482e-17,1181.59,1634.07)">
                <path d="M811.557,137.15C811.557,135.824 810.958,134.553 809.893,133.616C808.827,132.678 807.382,132.152 805.876,132.152C785.054,132.152 713.052,132.152 692.23,132.152C690.723,132.152 689.278,132.678 688.213,133.616C687.147,134.553 686.549,135.824 686.549,137.15C686.549,137.15 686.549,137.151 686.549,137.151C686.549,138.477 687.147,139.748 688.213,140.685C689.278,141.623 690.723,142.149 692.23,142.149C713.052,142.149 785.054,142.149 805.876,142.149C807.382,142.149 808.827,141.623 809.893,140.685C810.958,139.748 811.557,138.477 811.557,137.151C811.557,137.151 811.557,137.15 811.557,137.15Z" style="fill:rgb(29,29,27);"/>
            </g>
            <g transform="matrix(1,0,0,1,50.1254,563.022)">
                <path d="M1188.26,401.855C1187.38,400.467 1185.82,399.547 1184.05,399.547C1181.11,399.547 1179.88,401.256 1179.29,402.528C1178.79,403.621 1178.5,405.075 1179.28,406.816C1179.56,407.434 1180.54,408.881 1182.66,410.257C1186.64,412.837 1196.87,417.433 1208.16,417.108C1218.15,416.82 1228.64,413.071 1235.64,404.2C1240.2,398.409 1243.35,390.373 1243.64,379.467C1244.08,362.805 1231.74,349.463 1208.39,347.689C1201.89,347.194 1194.53,345.27 1190.06,339.914C1187.21,336.49 1185.7,331.656 1186.24,325.056C1187.36,311.105 1198.45,306.579 1208.36,306.723C1214.81,306.816 1220.97,308.573 1223.4,311.624C1225.12,313.781 1228.27,314.134 1230.43,312.413C1232.59,310.692 1232.94,307.543 1231.22,305.386C1227.48,300.698 1218.41,296.868 1208.5,296.724C1193.88,296.512 1177.92,303.671 1176.27,324.254C1175.47,334.104 1178.12,341.21 1182.39,346.32C1188.6,353.765 1198.59,356.973 1207.64,357.66C1224.25,358.923 1233.96,367.344 1233.64,379.2C1233.42,387.464 1231.25,393.618 1227.78,398.007C1222.74,404.406 1215.08,406.904 1207.87,407.112C1199.76,407.346 1190.79,403.133 1188.26,401.855ZM1187.06,408.539C1186.22,409.172 1185.18,409.547 1184.05,409.547C1185.43,409.547 1186.39,409.117 1187.06,408.539Z" style="fill:rgb(29,29,27);"/>
            </g>
            <g transform="matrix(1.76185,0,0,1.59133,1056.85,782.976)">
                <rect x="80.174" y="41.885" width="108.6" height="120.237" style="fill:none;"/>
            </g>
        </g>
    </g>
</svg>
