<?xml version="1.0" encoding="UTF-8" standalone="no"?>
<!DOCTYPE svg PUBLIC "-//W3C//DTD SVG 1.1//EN" "http://www.w3.org/Graphics/SVG/1.1/DTD/svg11.dtd">
<svg width="100%" height="100%" viewBox="0 0 110 110" version="1.1" xmlns="http://www.w3.org/2000/svg" xmlns:xlink="http://www.w3.org/1999/xlink" xml:space="preserve" xmlns:serif="http://www.serif.com/" style="fill-rule:evenodd;clip-rule:evenodd;stroke-linejoin:round;stroke-miterlimit:2;">
    <g transform="matrix(1,0,0,1,-172.2,-47.8748)">
        <g id="Ebene5" transform="matrix(0.574902,0,0,0.574902,-6.69712,-402.84)">
            <g transform="matrix(1.76185,0,0,1.59133,169.923,717.333)">
                <rect x="80.174" y="41.885" width="108.6" height="120.237" style="fill:none;"/>
            </g>
            <g transform="matrix(1.54983,0,0,1.09668,-1444.85,494.957)">
                <ellipse cx="1205.85" cy="350.783" rx="6.452" ry="9.118" style="fill:rgb(29,29,27);"/>
            </g>
            <g transform="matrix(1,0,0,1,-647.662,231.223)">
                <path d="M1064.61,593.431L1016.68,641.36C1012.78,645.265 1012.78,651.597 1016.68,655.502L1064.61,703.431C1068.52,707.336 1074.85,707.336 1078.75,703.431L1126.68,655.502C1130.59,651.597 1130.59,645.265 1126.68,641.36L1078.75,593.431C1074.85,589.526 1068.52,589.526 1064.61,593.431ZM1023.75,648.431L1071.68,600.502L1071.68,600.502L1119.61,648.431L1071.68,696.36L1023.75,648.431Z" style="fill:rgb(29,29,27);"/>
            </g>
            <g transform="matrix(1.05081,0,0,0.936967,-170.776,522.332)">
                <path d="M535.188,327.229C537.017,325.99 537.885,323.537 537.312,321.229C536.739,318.921 534.865,317.324 532.728,317.324C501.215,317.324 475.63,346.018 475.63,381.361C475.63,416.703 501.215,445.397 532.728,445.397C534.865,445.397 536.739,443.801 537.312,441.493C537.885,439.185 537.017,436.731 535.188,435.493C521.897,426.49 511.316,405.269 511.316,381.361C511.316,357.452 521.897,336.231 535.188,327.229ZM517.465,330.807C508.21,343.459 501.8,361.561 501.8,381.361C501.8,401.16 508.21,419.261 517.465,431.914C498.681,424.776 485.146,404.827 485.146,381.361C485.146,357.894 498.681,337.945 517.466,330.806L517.465,330.807Z" style="fill:rgb(29,29,27);"/>
            </g>
        </g>
    </g>
</svg>
