<?xml version="1.0" encoding="UTF-8"?>
<svg id="Ebene_2" data-name="Ebene 2" xmlns="http://www.w3.org/2000/svg" viewBox="0 0 40.78 40.59">
  <defs>
    <style>
      .cls-1 {
        fill: #fcef9b;
      }

      .cls-1, .cls-2 {
        fill-rule: evenodd;
      }

      .cls-2 {
        fill: #86a56d;
      }
    </style>
  </defs>
  <g id="Ebene_1-2" data-name="Ebene 1">
    <g id="Ebene91">
      <g id="Ebene17">
        <path class="cls-2" d="m39.37,10.66c0-5.11-4.16-9.25-9.3-9.25H10.71C5.57,1.41,1.41,5.55,1.41,10.66v19.27c0,5.11,4.16,9.25,9.3,9.25h19.37c5.14,0,9.3-4.14,9.3-9.25V10.66Z"/>
        <path class="cls-2" d="m40.78,10.66c0-5.88-4.79-10.66-10.71-10.66H10.71C4.79,0,0,4.77,0,10.66v19.27c0,5.88,4.79,10.66,10.71,10.66h19.37c5.91,0,10.71-4.77,10.71-10.66V10.66Zm-2.81,0v19.27c0,4.34-3.54,7.85-7.89,7.85H10.71c-4.36,0-7.89-3.51-7.89-7.85V10.66c0-4.34,3.54-7.85,7.89-7.85h19.37c4.36,0,7.89,3.51,7.89,7.85Z"/>
        <g id="Ebene13">
          <path class="cls-1" d="m14.65,23.29c-.62.37-1.73-2.19-2.69-3.82-1.34-2.28-3.1-5.62-4.45-8.35-.86-1.75.05-4.29,2.42-5.49,1.84-.94,4.58-.77,5.48,1.61,1.27,3.36,2.1,5.68,3.08,8.78.54,1.71,1.77,4.49,1.07,4.82-.25.12-3.67,1.7-4.91,2.45Z"/>
          <path class="cls-1" d="m13.89,33.64c-.98.87-2.97-.54-1.99-2.16,1.02-1.68,1.68-2.96,3.01-4.16,1.69-1.52,3.35-2.54,6.04-3.32,2.64-.76,4.91-.93,7.46-.19,1.81.53,3.47,1.14,4.44,2.46.69.94-.08,2.82-1.87,1.94-.68-.33-1.55-.7-2.93-1.08-2.03-.57-4.82-.41-6.32-.06-1.47.35-3.73,1.71-4.9,2.75-1.06.94-1.84,2.84-2.94,3.82Z"/>
          <path class="cls-1" d="m15.09,22.01c.43.93,1.95,4.38,1.95,4.38l3.2-1.5-2.03-4.45s-4.04,2.03-3.12,1.57Z"/>
          <path class="cls-1" d="m17.24,33.83c-.96,0,.17-.98.82-1.43.99-.68,1.67-1.11,2.96-1.57.84-.3,2.28-.81,3.82-.77,1.29.03,3.08.28,4.09.67,1.04.39,2.81,1.35,3.63,2.18.93.94.7,1.02-.98.99-3.46-.04-6.14-.04-9.56-.02-1.77,0-3.57-.04-4.79-.04Z"/>
        </g>
      </g>
    </g>
  </g>
</svg>