<?xml version="1.0" encoding="UTF-8"?>
<svg id="Ebene_2" data-name="Ebene 2" xmlns="http://www.w3.org/2000/svg" viewBox="0 0 43.53 42.01">
  <defs>
    <style>
      .cls-1 {
        fill: #fcef9b;
      }

      .cls-1, .cls-2 {
        fill-rule: evenodd;
      }

      .cls-2 {
        fill: #86a56d;
      }
    </style>
  </defs>
  <g id="Ebene_1-2" data-name="Ebene 1">
    <g id="Ebene91">
      <g id="Ebene5">
        <path class="cls-2" d="m21.76,8.14C26.06.02,34.64.02,38.94,4.08c4.29,4.06,4.29,12.17,0,20.29-3.01,6.09-10.73,12.17-17.17,16.23-6.44-4.06-14.17-10.14-17.17-16.23C.3,16.25.3,8.14,4.59,4.08,8.89.02,17.47.02,21.76,8.14Z"/>
        <path class="cls-2" d="m21.76,5.47C16.66-1.61,8.08-1.15,3.63,3.06c-4.65,4.39-4.93,13.18-.28,21.97,3.1,6.26,11.03,12.58,17.67,16.77.46.29,1.04.29,1.5,0,6.65-4.19,14.58-10.51,17.68-16.79,4.63-8.77,4.35-17.55-.29-21.94-4.45-4.21-13.03-4.67-18.14,2.41h0Zm-1.24,3.33c.24.46.72.75,1.24.75s1-.29,1.24-.75c3.75-7.09,11.21-7.24,14.96-3.69h0c1.49,1.41,2.36,3.4,2.66,5.72.48,3.75-.52,8.32-2.94,12.89,0,.01-.01.02-.02.03-2.79,5.66-9.84,11.27-15.91,15.19-6.07-3.91-13.12-9.53-15.91-15.19,0-.01-.01-.02-.02-.03-2.42-4.58-3.42-9.14-2.94-12.89.3-2.31,1.17-4.3,2.66-5.72,3.75-3.54,11.21-3.4,14.96,3.69Z"/>
        <g id="Ebene11">
          <path class="cls-1" d="m14.67,21.05c-.62.37-1.73-2.19-2.69-3.82-1.34-2.28-3.1-5.62-4.45-8.35-.86-1.75.05-4.29,2.42-5.49,1.84-.94,4.58-.77,5.48,1.61,1.27,3.36,2.1,5.68,3.08,8.78.54,1.71,1.77,4.49,1.07,4.82-.25.12-3.67,1.7-4.91,2.45Z"/>
          <path class="cls-1" d="m13.91,31.4c-.98.87-2.97-.54-1.99-2.16,1.02-1.68,1.68-2.96,3.01-4.16,1.69-1.52,3.35-2.54,6.04-3.32,2.64-.76,4.91-.93,7.46-.19,1.81.53,3.47,1.14,4.44,2.46.69.94-.08,2.82-1.87,1.94-.68-.33-1.55-.7-2.93-1.08-2.03-.57-4.82-.41-6.32-.06-1.47.35-3.73,1.71-4.9,2.75-1.06.94-1.84,2.84-2.94,3.82Z"/>
          <path class="cls-1" d="m15.11,19.78c.43.93,1.95,4.38,1.95,4.38l3.2-1.5-2.03-4.45s-4.04,2.03-3.12,1.57Z"/>
          <path class="cls-1" d="m17.26,31.6c-.96,0,.17-.98.82-1.43.99-.68,1.67-1.11,2.96-1.57.84-.3,2.28-.81,3.82-.77,1.29.03,3.08.28,4.09.67,1.04.39,2.81,1.35,3.63,2.18.93.94.7,1.02-.98.99-3.46-.04-6.14-.04-9.56-.02-1.77,0-3.57-.04-4.79-.04Z"/>
        </g>
      </g>
    </g>
  </g>
</svg>