<?xml version="1.0" encoding="UTF-8"?>
<svg id="Ebene_2" data-name="Ebene 2" xmlns="http://www.w3.org/2000/svg" viewBox="0 0 45.81 131.9">
  <defs>
    <style>
      .cls-1 {
        fill: #71663d;
      }

      .cls-2 {
        fill: #1d1d1b;
      }

      .cls-2, .cls-3, .cls-4 {
        fill-rule: evenodd;
      }

      .cls-3 {
        fill: #a49358;
      }
    </style>
  </defs>
  <g id="Ebene_1-2" data-name="Ebene 1">
    <g id="Ebene91">
      <g id="Ebene27">
        <rect class="cls-1" x="12.43" width="16.06" height="131.9"/>
        <path class="cls-2" d="m25.43,56.83c4.29-8.11,12.87-8.11,17.16-4.06,4.29,4.06,4.29,12.17,0,20.28-3,6.08-10.73,12.17-17.16,16.22-6.44-4.06-14.16-10.14-17.16-16.22-4.29-8.11-4.29-16.22,0-20.28,4.29-4.06,12.87-4.06,17.16,4.06Z"/>
        <path class="cls-3" d="m21.75,54.33c4.29-8.11,12.87-8.11,17.16-4.06,4.29,4.06,4.29,12.17,0,20.28-3,6.08-10.73,12.17-17.16,16.22-6.44-4.06-14.16-10.14-17.16-16.22C.3,62.44.3,54.33,4.59,50.27c4.29-4.06,12.87-4.06,17.16,4.06Z"/>
        <path class="cls-4" d="m20.91,74.7c-.08-.02-.17-.06-.29-.09-.13-.03-.27-.05-.42-.07-.31-.04-.67-.09-1.05-.11-1-.06-2.1-.05-2.6-.09-1.15-.05-2.88-.07-4.25,0-.47.02-.9.05-1.25.08-.18.02-.36-.01-.47.06-.04.02-.02.04-.05.08-.12-.01-.22.1-.21.25s.12.28.24.3c.03.05.02.06.06.09.13.1.31.08.51.11.36.05.8.09,1.29.1,1.37.04,3.07-.05,4.21,0,.5.01,1.62.04,2.62-.03.37-.03.73-.07,1.03-.12.15-.02.29-.05.41-.08.11-.03.19-.07.27-.1.09,0,.14-.09.13-.2-.02-.11-.1-.19-.18-.19Z"/>
        <path class="cls-4" d="m30.78,75.71s.05.02.07.03c.16.03.26-.13.24-.36,0-.09-.06-.33-.3-.47-.05-.03-.16-.06-.31-.11-.19-.06-.45-.14-.77-.21-.49-.1-1.1-.2-1.74-.25-.32-.03-.65-.03-.98-.03-.5,0-1,.04-1.45.08-.22.02-.44.05-.63.09-.39.08-.7.19-.93.28-.12.02-.18.19-.13.37.05.19.19.32.31.3.27,0,.64.08,1.08.13.49.05,1.04.09,1.62.14.45.03.91.07,1.35.08.48.01.94,0,1.33-.02.55-.02.97-.06,1.17-.05.03,0,.07.02.07,0Zm-.23-.31c.02.07.04.14.1.2-.04-.06-.08-.12-.1-.2Z"/>
        <path class="cls-4" d="m20.72,58.91h0s0-.05,0-.05c.03.08.11.14.2.13.11-.01.19-.11.17-.21.01-.09-.1-.24-.39-.37-.38-.17-1.2-.32-2.18-.44-.17-.02-.36-.04-.54-.05-.35-.03-.72-.05-1.08-.06-.89-.02-1.78,0-2.53.05-.13,0-.25,0-.36.03-.22.05-.37.14-.54.2-.16,0-.28.13-.27.29,0,.16.13.28.29.27.17.06.31.14.52.18.07.01.15.01.22.01.86.03,1.93.09,2.97.11.46,0,.91,0,1.34,0,.86-.02,1.57-.06,1.98-.05.08,0,.17-.03.22-.03Zm0,0s.02,0,.02.02c0,.03-.01.01-.02-.02Z"/>
        <path class="cls-4" d="m13.01,55.37c-.62-.17-1.26-.33-1.92-.45-.96-.18-1.95-.29-2.93-.37-1.19-.09-2.37-.15-3.44-.04-.52.05-1,.16-1.46.26-.22.04-.36.26-.32.49s.25.4.46.36c.45-.05.92-.06,1.42-.09,1.04-.07,2.17-.14,3.33-.11.96.02,1.93.09,2.88.18.65.06,1.3.13,1.92.22.12.02.23-.06.25-.19.02-.13-.06-.25-.18-.27Z"/>
        <path class="cls-2" d="m21.75,51.66c-5.11-7.08-13.68-6.62-18.13-2.41-4.65,4.39-4.92,13.17-.28,21.95,3.1,6.26,11.02,12.57,17.66,16.76.46.29,1.04.29,1.5,0,6.64-4.19,14.57-10.51,17.67-16.78,4.63-8.76,4.35-17.54-.29-21.93-4.45-4.21-13.02-4.67-18.13,2.41h0Zm-1.24,3.32c.24.46.72.75,1.24.75s1-.29,1.24-.75c3.75-7.08,11.21-7.23,14.95-3.69h0c1.49,1.41,2.36,3.4,2.66,5.71.48,3.75-.52,8.31-2.94,12.89,0,.01-.01.02-.02.03-2.79,5.65-9.83,11.26-15.9,15.18-6.07-3.91-13.11-9.52-15.9-15.18,0-.01-.01-.02-.02-.03-2.42-4.57-3.42-9.14-2.94-12.89.3-2.31,1.17-4.3,2.66-5.71,3.75-3.54,11.21-3.39,14.95,3.69Z"/>
      </g>
    </g>
  </g>
</svg>