<?xml version="1.0" encoding="UTF-8"?>
<svg id="Ebene_2" data-name="Ebene 2" xmlns="http://www.w3.org/2000/svg" viewBox="0 0 43.59 43.39">
  <defs>
    <style>
      .cls-1 {
        fill: #8ca767;
        fill-rule: evenodd;
      }
    </style>
  </defs>
  <g id="Ebene_1-2" data-name="Ebene 1">
    <g id="Ebene9">
      <g id="Ebene20">
        <g id="Ebene16">
          <path class="cls-1" d="m21.8,0C9.76,0,0,9.72,0,21.69s9.76,21.69,21.8,21.69,21.8-9.72,21.8-21.69S33.83,0,21.8,0Zm0,2.81c10.48,0,18.98,8.46,18.98,18.88s-8.51,18.88-18.98,18.88S2.81,32.12,2.81,21.69,11.32,2.81,21.8,2.81Zm0,7.33c-6.41,0-11.6,5.18-11.6,11.55s5.2,11.55,11.6,11.55,11.6-5.18,11.6-11.55-5.2-11.55-11.6-11.55Zm0,2.81c4.85,0,8.79,3.91,8.79,8.74s-3.94,8.74-8.79,8.74-8.79-3.91-8.79-8.74,3.94-8.74,8.79-8.74Z"/>
          <g id="Ebene33">
            <path class="cls-1" d="m27.3,23.68c-.67-.27.45-2.85,1-4.69.77-2.58,2.03-6.2,3.12-9.09.69-1.84,3.12-2.73,5.53-1.54,1.87.92,3.53,3.29,2.4,5.58-1.59,3.22-2.72,5.41-4.31,8.23-.88,1.55-2.08,4.37-2.78,4-.25-.13-3.61-1.94-4.95-2.49Z"/>
            <path class="cls-1" d="m15.38,31.43c-1.27.23-2.35-2.08-.72-2.96,1.69-.91,2.87-1.67,4.59-1.99,2.19-.41,4.13-.4,6.85.38,2.67.76,4.73,1.85,6.61,3.88,1.33,1.44,2.5,2.87,2.73,4.55.17,1.19-1.4,2.41-2.54.67-.44-.66-1.03-1.45-2.06-2.53-1.51-1.59-4.02-2.97-5.51-3.47-1.45-.49-4.07-.53-5.58-.26-1.37.24-2.95,1.47-4.37,1.73Z"/>
            <path class="cls-1" d="m28.5,23.21c-.39.95-1.89,4.45-1.89,4.45l3.16,1.68,1.88-4.56s-4.09-2.04-3.15-1.57Z"/>
            <path class="cls-1" d="m14.22,36.76c-.97,0,.17-.99.83-1.44,1-.68,1.69-1.11,2.99-1.58.85-.3,2.3-.81,3.86-.78,1.3.03,3.11.29,4.13.67,1.05.39,2.84,1.35,3.67,2.19.94.94.71,1.02-.99,1-3.5-.04-6.2-.04-9.66-.02-1.79,0-3.61-.04-4.84-.04Z"/>
          </g>
        </g>
      </g>
    </g>
  </g>
</svg>