<?xml version="1.0" encoding="UTF-8"?>
<svg id="Ebene_2" data-name="Ebene 2" xmlns="http://www.w3.org/2000/svg" viewBox="0 0 43.32 43.73">
  <defs>
    <style>
      .cls-1 {
        fill: #8ca767;
        fill-rule: evenodd;
      }
    </style>
  </defs>
  <g id="Ebene_1-2" data-name="Ebene 1">
    <g id="Ebene9">
      <g id="Ebene20">
        <g id="Ebene18">
          <path class="cls-1" d="m14.92,2.27c-3.29,2.5-7.35,5.59-10.56,8.02C.67,13.1-.88,17.92.5,22.34c1.28,4.11,2.93,9.43,4.22,13.6,1.44,4.63,5.74,7.79,10.61,7.79h12.66c4.87,0,9.17-3.16,10.61-7.79,1.3-4.18,2.95-9.5,4.23-13.6,1.38-4.43-.17-9.24-3.87-12.05-3.2-2.43-7.27-5.52-10.56-8.02-3.98-3.02-9.5-3.02-13.48,0Zm1.7,2.24c2.97-2.26,7.1-2.26,10.07,0,3.29,2.5,7.35,5.59,10.56,8.02,2.76,2.1,3.91,5.68,2.89,8.98-1.28,4.11-2.93,9.43-4.23,13.6-1.07,3.46-4.29,5.81-7.92,5.81h-12.66c-3.64,0-6.85-2.35-7.92-5.81-1.3-4.18-2.95-9.5-4.22-13.6-1.02-3.3.13-6.88,2.89-8.98,3.2-2.43,7.27-5.52,10.56-8.02Z"/>
          <g id="Ebene31">
            <path class="cls-1" d="m23.25,26.81c-.67-.27.45-2.85,1-4.69.77-2.58,2.03-6.2,3.12-9.09.69-1.84,3.12-2.73,5.53-1.54,1.87.92,3.53,3.29,2.4,5.58-1.59,3.22-2.72,5.41-4.31,8.23-.88,1.55-2.08,4.37-2.78,4-.25-.13-3.61-1.94-4.95-2.49Z"/>
            <path class="cls-1" d="m11.33,34.57c-1.27.23-2.35-2.08-.72-2.96,1.69-.91,2.87-1.67,4.59-1.99,2.19-.41,4.13-.4,6.85.38,2.67.76,4.73,1.85,6.61,3.88,1.33,1.44,2.5,2.87,2.73,4.55.17,1.19-1.4,2.41-2.54.67-.44-.66-1.03-1.45-2.06-2.53-1.51-1.59-4.02-2.97-5.51-3.47-1.45-.49-4.07-.53-5.58-.26-1.37.24-2.95,1.47-4.37,1.73Z"/>
            <path class="cls-1" d="m24.45,26.35c-.39.95-1.89,4.45-1.89,4.45l3.16,1.68,1.88-4.56s-4.09-2.04-3.15-1.57Z"/>
            <path class="cls-1" d="m10.17,39.89c-.97,0,.17-.99.83-1.44,1-.68,1.69-1.11,2.99-1.58.85-.3,2.3-.81,3.86-.78,1.3.03,3.11.29,4.13.67,1.05.39,2.84,1.35,3.67,2.19.94.94.71,1.02-.99,1-3.5-.04-6.2-.04-9.66-.02-1.79,0-3.61-.04-4.84-.04Z"/>
          </g>
        </g>
      </g>
    </g>
  </g>
</svg>