<?xml version="1.0" encoding="UTF-8"?>
<svg id="Ebene_2" data-name="Ebene 2" xmlns="http://www.w3.org/2000/svg" viewBox="0 0 43.58 43.58">
  <defs>
    <style>
      .cls-1 {
        fill: #fcef9b;
      }

      .cls-1, .cls-2 {
        fill-rule: evenodd;
      }

      .cls-2 {
        fill: #86a56d;
      }
    </style>
  </defs>
  <g id="Ebene_1-2" data-name="Ebene 1">
    <g id="Ebene91">
      <g id="Ebene151">
        <path class="cls-2" d="m16.19,4.87c1.06-2.12,3.23-3.46,5.6-3.46s4.54,1.34,5.6,3.46c4.29,8.58,10.13,20.26,14.12,28.25.97,1.94.87,4.24-.27,6.09-1.14,1.85-3.15,2.97-5.32,2.97H7.66c-2.17,0-4.18-1.12-5.32-2.97-1.14-1.84-1.24-4.15-.27-6.09,4-7.99,9.84-19.67,14.12-28.25Z"/>
        <path class="cls-2" d="m14.93,4.24C10.65,12.81,4.81,24.49.81,32.49c-1.19,2.37-1.06,5.2.34,7.46,1.4,2.26,3.86,3.64,6.52,3.64h28.25c2.66,0,5.12-1.38,6.52-3.64,1.4-2.26,1.52-5.08.34-7.46-4-7.99-9.84-19.67-14.12-28.25-1.3-2.6-3.95-4.24-6.86-4.24s-5.56,1.64-6.86,4.24Zm2.52,1.26c.82-1.64,2.5-2.68,4.34-2.68s3.52,1.04,4.34,2.68c4.29,8.58,10.13,20.26,14.12,28.25.75,1.5.67,3.29-.21,4.72-.88,1.43-2.45,2.3-4.13,2.3H7.66c-1.68,0-3.24-.87-4.13-2.3-.88-1.43-.96-3.22-.21-4.72,4-7.99,9.84-19.67,14.12-28.25Z"/>
        <g id="Ebene111">
          <path class="cls-1" d="m20.1,29.93c-.62.38-1.73-2.2-2.69-3.84-1.34-2.29-3.1-5.65-4.45-8.4-.86-1.75.05-4.31,2.42-5.52,1.84-.94,4.58-.78,5.48,1.62,1.27,3.38,2.1,5.71,3.08,8.83.54,1.72,1.77,4.52,1.07,4.85-.25.12-3.67,1.71-4.91,2.46Z"/>
          <path class="cls-1" d="m19.34,40.33c-.98.88-2.97-.54-1.99-2.17,1.02-1.69,1.68-2.98,3.01-4.18,1.69-1.53,3.35-2.55,6.04-3.34,2.64-.77,4.91-.93,7.46-.19,1.81.53,3.47,1.15,4.44,2.48.69.94-.08,2.83-1.87,1.95-.68-.34-1.55-.7-2.93-1.09-2.03-.57-4.82-.42-6.32-.06-1.47.35-3.73,1.72-4.9,2.76-1.06.95-1.84,2.85-2.94,3.84Z"/>
          <path class="cls-1" d="m20.54,28.65c.43.93,1.95,4.41,1.95,4.41l3.2-1.51-2.03-4.47s-4.04,2.04-3.12,1.57Z"/>
          <path class="cls-1" d="m22.69,40.53c-.96,0,.17-.99.82-1.44.99-.68,1.67-1.11,2.96-1.58.84-.3,2.28-.81,3.82-.78,1.29.03,3.08.29,4.09.67,1.04.39,2.81,1.35,3.63,2.19.93.94.7,1.02-.98,1-3.46-.04-6.14-.04-9.56-.02-1.77,0-3.57-.04-4.79-.04Z"/>
        </g>
      </g>
    </g>
  </g>
</svg>