<?xml version="1.0" encoding="UTF-8"?>
<svg id="Ebene_2" data-name="Ebene 2" xmlns="http://www.w3.org/2000/svg" viewBox="0 0 43.32 43.73">
  <defs>
    <style>
      .cls-1 {
        fill: #fcef9b;
      }

      .cls-1, .cls-2 {
        fill-rule: evenodd;
      }

      .cls-2 {
        fill: #86a56d;
      }
    </style>
  </defs>
  <g id="Ebene_1-2" data-name="Ebene 1">
    <g id="Ebene91">
      <g id="Ebene4">
        <path class="cls-2" d="m15.77,3.39c3.48-2.64,8.3-2.64,11.77,0,3.29,2.5,7.35,5.59,10.56,8.02,3.23,2.45,4.58,6.65,3.38,10.52-1.28,4.11-2.93,9.43-4.23,13.6-1.25,4.04-5.01,6.8-9.26,6.8h-12.66c-4.25,0-8.01-2.76-9.26-6.8-1.3-4.18-2.95-9.5-4.22-13.6-1.2-3.86.15-8.06,3.38-10.52,3.2-2.43,7.27-5.52,10.56-8.02Z"/>
        <path class="cls-2" d="m14.92,2.27c-3.29,2.5-7.35,5.59-10.56,8.02C.67,13.1-.88,17.92.5,22.34c1.28,4.11,2.93,9.43,4.22,13.6,1.44,4.63,5.74,7.79,10.61,7.79h12.66c4.87,0,9.17-3.16,10.61-7.79,1.3-4.18,2.95-9.5,4.23-13.6,1.38-4.43-.17-9.24-3.87-12.05-3.2-2.43-7.27-5.52-10.56-8.02-3.98-3.02-9.5-3.02-13.48,0Zm1.7,2.24c2.97-2.26,7.1-2.26,10.07,0,3.29,2.5,7.35,5.59,10.56,8.02,2.76,2.1,3.91,5.68,2.89,8.98-1.28,4.11-2.93,9.43-4.23,13.6-1.07,3.46-4.29,5.81-7.92,5.81h-12.66c-3.64,0-6.85-2.35-7.92-5.81-1.3-4.18-2.95-9.5-4.22-13.6-1.02-3.3.13-6.88,2.89-8.98,3.2-2.43,7.27-5.52,10.56-8.02Z"/>
        <g id="Ebene12">
          <path class="cls-1" d="m13.85,29.14c-.62.37-1.73-2.18-2.69-3.81-1.34-2.28-3.1-5.62-4.45-8.35-.86-1.75.05-4.29,2.42-5.49,1.84-.94,4.57-.77,5.48,1.61,1.27,3.36,2.1,5.67,3.08,8.78.54,1.71,1.77,4.49,1.06,4.82-.25.12-3.67,1.7-4.91,2.45Z"/>
          <path class="cls-1" d="m13.09,39.48c-.98.87-2.97-.54-1.99-2.16,1.02-1.68,1.68-2.96,3.01-4.16,1.69-1.52,3.35-2.54,6.04-3.32,2.63-.76,4.91-.93,7.45-.19,1.81.53,3.46,1.14,4.44,2.46.69.94-.08,2.82-1.86,1.94-.68-.33-1.55-.7-2.93-1.08-2.02-.57-4.82-.41-6.32-.06-1.47.35-3.73,1.71-4.89,2.75-1.06.94-1.84,2.84-2.94,3.82Z"/>
          <path class="cls-1" d="m14.28,27.86c.43.93,1.95,4.38,1.95,4.38l3.19-1.5-2.03-4.45s-4.04,2.03-3.12,1.56Z"/>
          <path class="cls-1" d="m16.44,39.68c-.96,0,.17-.98.82-1.43.99-.68,1.67-1.11,2.96-1.57.84-.3,2.28-.81,3.82-.77,1.29.03,3.08.28,4.09.67,1.04.39,2.81,1.35,3.63,2.18.93.94.7,1.02-.97.99-3.46-.04-6.14-.04-9.55-.02-1.77,0-3.57-.04-4.79-.04Z"/>
        </g>
      </g>
    </g>
  </g>
</svg>