<?xml version="1.0" encoding="UTF-8"?>
<svg id="Ebene_2" data-name="Ebene 2" xmlns="http://www.w3.org/2000/svg" viewBox="0 0 43.53 42.01">
  <defs>
    <style>
      .cls-1 {
        fill: #8ca767;
        fill-rule: evenodd;
      }
    </style>
  </defs>
  <g id="Ebene_1-2" data-name="Ebene 1">
    <g id="Ebene9">
      <g id="Ebene20">
        <g id="Ebene19">
          <path class="cls-1" d="m21.77,5.47C16.66-1.61,8.08-1.15,3.63,3.06c-4.65,4.39-4.93,13.18-.28,21.97,3.1,6.26,11.03,12.58,17.67,16.77.46.29,1.04.29,1.5,0,6.65-4.19,14.58-10.51,17.68-16.79,4.63-8.77,4.35-17.55-.29-21.94-4.45-4.21-13.03-4.67-18.14,2.41h0Zm-1.24,3.33c.24.46.72.75,1.24.75s1-.29,1.24-.75c3.75-7.09,11.21-7.24,14.96-3.69h0c1.49,1.41,2.36,3.4,2.66,5.72.48,3.75-.52,8.32-2.94,12.89,0,.01-.01.02-.02.03-2.79,5.66-9.84,11.27-15.91,15.19-6.07-3.91-13.12-9.53-15.91-15.19,0-.01-.01-.02-.02-.03-2.42-4.58-3.42-9.14-2.94-12.89.3-2.31,1.17-4.3,2.66-5.72,3.75-3.54,11.21-3.4,14.96,3.69Z"/>
          <g id="Ebene3">
            <path class="cls-1" d="m24.34,18.73c-.67-.27.45-2.85,1-4.69.77-2.58,2.03-6.2,3.12-9.09.69-1.84,3.12-2.73,5.53-1.54,1.87.92,3.53,3.29,2.4,5.58-1.59,3.22-2.72,5.41-4.31,8.23-.88,1.55-2.08,4.37-2.78,4-.25-.13-3.61-1.94-4.95-2.49Z"/>
            <path class="cls-1" d="m12.42,26.49c-1.27.23-2.35-2.08-.72-2.96,1.69-.91,2.87-1.67,4.59-1.99,2.19-.41,4.13-.4,6.85.38,2.67.76,4.73,1.85,6.61,3.88,1.33,1.44,2.5,2.87,2.73,4.55.17,1.19-1.4,2.41-2.54.67-.44-.66-1.03-1.45-2.06-2.53-1.51-1.59-4.02-2.97-5.51-3.47-1.45-.49-4.07-.53-5.58-.26-1.37.24-2.95,1.47-4.37,1.73Z"/>
            <path class="cls-1" d="m25.54,18.27c-.39.95-1.89,4.45-1.89,4.45l3.16,1.68,1.88-4.56s-4.09-2.04-3.15-1.57Z"/>
            <path class="cls-1" d="m11.26,31.81c-.97,0,.17-.99.83-1.44,1-.68,1.69-1.11,2.99-1.58.85-.3,2.3-.81,3.86-.78,1.3.03,3.11.29,4.13.67,1.05.39,2.84,1.35,3.67,2.19.94.94.71,1.02-.99,1-3.5-.04-6.2-.04-9.66-.02-1.79,0-3.61-.04-4.84-.04Z"/>
          </g>
        </g>
      </g>
    </g>
  </g>
</svg>