<?xml version="1.0" encoding="UTF-8"?>
<svg id="Ebene_2" data-name="Ebene 2" xmlns="http://www.w3.org/2000/svg" viewBox="0 0 42.33 104.94">
  <defs>
    <style>
      .cls-1 {
        fill: #71663d;
      }

      .cls-2 {
        fill: #1d1d1b;
      }

      .cls-2, .cls-3, .cls-4 {
        fill-rule: evenodd;
      }

      .cls-3 {
        fill: #a49358;
      }
    </style>
  </defs>
  <g id="Ebene_1-2" data-name="Ebene 1">
    <g id="Ebene91">
      <g id="Ebene22">
        <rect class="cls-1" x="10.7" width="16.06" height="104.94"/>
        <path class="cls-2" d="m42.33,46.82c0-5.01-4.08-9.07-9.12-9.07H14.22c-5.03,0-9.12,4.06-9.12,9.07v18.89c0,5.01,4.08,9.07,9.12,9.07h18.99c5.03,0,9.12-4.06,9.12-9.07v-18.89Z"/>
        <path class="cls-3" d="m38.63,44.31c0-5.01-4.08-9.07-9.12-9.07H10.52c-5.03,0-9.12,4.06-9.12,9.07v18.89c0,5.01,4.08,9.07,9.12,9.07h18.99c5.03,0,9.12-4.06,9.12-9.07v-18.89Z"/>
        <path class="cls-4" d="m27.85,64.49c-.08-.02-.17-.06-.29-.09-.13-.03-.27-.05-.43-.07-.32-.04-.68-.09-1.06-.11-1.01-.06-2.11-.05-2.61-.09-1.16-.05-2.9-.07-4.27,0-.48.02-.91.05-1.26.08-.18.02-.36-.01-.47.06-.04.03-.02.04-.05.08-.13-.01-.22.1-.21.25s.12.29.24.3c.03.05.02.06.06.09.13.1.32.08.52.11.36.05.81.09,1.3.1,1.38.04,3.09-.05,4.24,0,.51.01,1.63.04,2.63-.03.38-.03.73-.07,1.04-.12.15-.02.29-.05.41-.08.11-.03.19-.07.27-.1.09,0,.14-.09.13-.2-.02-.11-.1-.19-.18-.19Z"/>
        <path class="cls-4" d="m36.58,65.76s.05.02.07.03c.16.03.26-.13.24-.36,0-.09-.06-.33-.31-.47-.05-.03-.16-.06-.31-.11-.19-.06-.45-.14-.78-.21-.49-.1-1.1-.2-1.76-.25-.32-.03-.66-.03-.98-.03-.51,0-1,.04-1.45.08-.23.02-.44.05-.64.09-.39.08-.7.19-.93.29-.12.02-.18.19-.13.38.05.19.19.32.31.3.27,0,.64.08,1.09.13.49.05,1.05.09,1.63.14.45.03.92.07,1.36.08.49.01.94,0,1.34-.02.55-.02.97-.06,1.18-.05.03,0,.07.02.07,0Zm-.23-.32c.02.07.05.14.1.2-.04-.06-.08-.12-.1-.2Z"/>
        <path class="cls-4" d="m22.25,44.3h0s0-.05,0-.05c.03.08.11.14.21.13.11-.01.19-.11.18-.22.01-.09-.1-.24-.4-.38-.39-.17-1.2-.32-2.19-.45-.18-.02-.36-.04-.54-.05-.35-.03-.72-.05-1.09-.06-.89-.02-1.79,0-2.54.05-.13,0-.25,0-.36.03-.22.05-.37.14-.54.2-.16,0-.28.13-.28.29,0,.16.13.28.29.27.17.06.32.14.52.18.07.01.15.01.22.01.86.04,1.94.09,2.99.11.46,0,.92,0,1.34,0,.86-.02,1.58-.06,1.99-.05.08,0,.18-.03.22-.03Zm0,0s.02,0,.02.02c0,.03-.01.01-.02-.02Z"/>
        <path class="cls-4" d="m13.33,43.34c-.62-.17-1.27-.33-1.94-.45-.97-.18-1.96-.29-2.95-.37-1.2-.09-2.38-.15-3.46-.04-.52.05-1.01.16-1.47.26-.22.04-.36.26-.32.5s.25.4.47.37c.45-.05.93-.06,1.43-.09,1.05-.07,2.19-.14,3.35-.12.96.02,1.94.09,2.9.18.66.06,1.31.13,1.93.22.12.02.23-.06.25-.19.02-.13-.06-.25-.18-.28Z"/>
        <path class="cls-2" d="m40.03,44.31c0-5.78-4.71-10.48-10.52-10.48H10.52c-5.81,0-10.52,4.69-10.52,10.48v18.89c0,5.78,4.71,10.48,10.52,10.48h18.99c5.81,0,10.52-4.69,10.52-10.48v-18.89Zm-2.81,0v18.89c0,4.23-3.45,7.66-7.71,7.66H10.52c-4.26,0-7.71-3.43-7.71-7.66v-18.89c0-4.23,3.45-7.66,7.71-7.66h18.99c4.26,0,7.71,3.43,7.71,7.66Z"/>
      </g>
    </g>
  </g>
</svg>