<?xml version="1.0" encoding="UTF-8" standalone="no"?>
<!DOCTYPE svg PUBLIC "-//W3C//DTD SVG 1.1//EN" "http://www.w3.org/Graphics/SVG/1.1/DTD/svg11.dtd">
<svg width="100%" height="100%" viewBox="0 0 261 346" version="1.1" xmlns="http://www.w3.org/2000/svg" xmlns:xlink="http://www.w3.org/1999/xlink" xml:space="preserve" xmlns:serif="http://www.serif.com/" style="fill-rule:evenodd;clip-rule:evenodd;stroke-linejoin:round;stroke-miterlimit:2;">
    <g transform="matrix(1,0,0,1,-1282.18,-241.946)">
        <g id="Ebene2" transform="matrix(0.952955,0,0,0.952955,-173.585,-623.406)">
            <g transform="matrix(0.80555,0,0,0.80555,297.049,175.33)">
                <path d="M1640.03,1052.66C1628.31,1059.88 1625.18,1063.1 1633.68,1080C1644.3,1101.15 1655.17,1123.36 1666.4,1145.47C1692.49,1196.82 1713.57,1236.07 1739.06,1285.96C1748.62,1304.66 1760.92,1333.51 1770.25,1347.97C1776.68,1357.92 1781.27,1358.81 1790.28,1354.4C1797.48,1350.88 1833.82,1329.29 1850.26,1321.35C1864.56,1314.45 1865.99,1311.9 1861.92,1305.02C1859.6,1301.1 1850.13,1289.52 1844.53,1281.28C1839.85,1274.4 1835.38,1273.69 1826.9,1280.84C1819.04,1287.46 1814.26,1297.78 1808.94,1300.83C1808.65,1300.99 1802.23,1301.91 1798.54,1296.88C1796.82,1294.53 1788.45,1278.77 1787.2,1276.11C1785.17,1271.78 1783.23,1267.34 1789.46,1262.95C1799.2,1256.1 1820.71,1249.9 1827.89,1245.23C1831.59,1242.83 1831.72,1239.4 1827.4,1234.02C1824.33,1230.2 1813.59,1216.03 1810.19,1211.26C1809.02,1209.61 1803.98,1208.5 1800.01,1211.25C1789.04,1218.85 1781.7,1224.97 1770.66,1232.84C1764.77,1237.03 1760.63,1241.04 1756.4,1235.94C1752.79,1231.6 1726.73,1188.1 1717.92,1169.77C1706.22,1145.44 1694,1122.09 1682.01,1098.1C1679.72,1093.53 1669.38,1070.22 1662.1,1056.82C1654.01,1041.93 1650.48,1046.21 1640.03,1052.66Z" style="fill:rgb(178,126,45);"/>
            </g>
            <g transform="matrix(0.80555,0,0,0.80555,297.049,175.33)">
                <path d="M1640.03,1052.66C1628.31,1059.88 1625.18,1063.1 1633.68,1080C1644.3,1101.15 1655.17,1123.36 1666.4,1145.47C1692.49,1196.82 1713.57,1236.07 1739.06,1285.96C1748.62,1304.66 1760.92,1333.51 1770.25,1347.97C1776.68,1357.92 1785.72,1361.65 1818.02,1338.35C1820.54,1336.54 1790.51,1344.8 1780.88,1333.03C1765.61,1314.39 1714.12,1207.15 1705.31,1188.82C1693.6,1164.49 1653.01,1083.41 1645.73,1070.01C1637.64,1055.12 1650.48,1046.21 1640.03,1052.66Z" style="fill:rgb(209,150,60);"/>
            </g>
            <g transform="matrix(0.80555,0,0,0.80555,297.049,175.33)">
                <path d="M1807.89,1297.95C1806.84,1297.97 1802.98,1297.87 1800.96,1295.11C1799.28,1292.82 1791.14,1277.42 1789.92,1274.84C1788.99,1272.86 1787.86,1270.9 1788.32,1268.89C1788.58,1267.7 1789.5,1266.6 1791.19,1265.41C1800.9,1258.57 1822.37,1252.4 1829.53,1247.75C1831.79,1246.28 1833.07,1244.47 1833.5,1242.41C1834.05,1239.78 1833.12,1236.35 1829.74,1232.14C1826.69,1228.34 1816.02,1214.26 1812.63,1209.52C1812,1208.63 1810.82,1207.72 1809.18,1207.17C1806.36,1206.22 1801.98,1206.24 1798.3,1208.79C1787.32,1216.4 1779.98,1222.52 1768.92,1230.39C1766.67,1231.99 1764.7,1233.58 1762.87,1234.58C1762.04,1235.04 1761.29,1235.4 1760.53,1235.33C1759.88,1235.26 1759.34,1234.79 1758.71,1234.03C1755.14,1229.73 1729.35,1186.62 1720.62,1168.47C1708.91,1144.13 1696.69,1120.76 1684.69,1096.76C1682.4,1092.18 1672.04,1068.82 1664.74,1055.38C1660.97,1048.45 1657.79,1045.3 1654.87,1044.24C1652.69,1043.45 1650.5,1043.6 1648.08,1044.53C1645.44,1045.55 1642.41,1047.66 1638.45,1050.1L1638.45,1050.1C1631.76,1054.23 1627.76,1057.45 1626.41,1061.81C1625.08,1066.11 1626.22,1071.85 1631,1081.35C1641.62,1102.5 1652.49,1124.72 1663.72,1146.83C1689.81,1198.18 1710.89,1237.43 1736.39,1287.33C1745.99,1306.1 1758.36,1335.08 1767.73,1349.59C1771.48,1355.4 1774.86,1358.38 1778.44,1359.45C1782.12,1360.54 1786.22,1359.73 1791.6,1357.1C1798.8,1353.58 1835.13,1331.99 1851.57,1324.06C1857,1321.43 1860.66,1319.37 1862.94,1317.51C1864.95,1315.87 1866.05,1314.26 1866.56,1312.65C1867.37,1310.06 1866.7,1307.2 1864.51,1303.5C1862.17,1299.55 1852.65,1287.89 1847.01,1279.59C1844,1275.16 1840.86,1272.99 1837.3,1272.8C1834,1272.63 1830.02,1274.28 1824.96,1278.54C1820.08,1282.66 1816.32,1288.13 1812.92,1292.55C1811.17,1294.83 1809.58,1296.82 1807.89,1297.95ZM1807.84,1213.12C1811.35,1218.03 1822,1232.08 1825.06,1235.9C1826.14,1237.24 1826.9,1238.41 1827.33,1239.48C1827.59,1240.12 1827.73,1240.68 1827.62,1241.19C1827.49,1241.82 1826.95,1242.26 1826.26,1242.72C1819.06,1247.4 1797.5,1253.63 1787.73,1260.5C1784.43,1262.82 1782.98,1265.25 1782.46,1267.58C1781.73,1270.85 1782.98,1274.17 1784.49,1277.39C1785.77,1280.11 1794.36,1296.25 1796.12,1298.65C1799.44,1303.17 1804.43,1304.01 1807.28,1304C1809.09,1303.99 1810.27,1303.52 1810.43,1303.43C1812.84,1302.06 1815.2,1299.42 1817.68,1296.21C1820.84,1292.1 1824.29,1286.96 1828.83,1283.13C1832.26,1280.24 1834.75,1278.68 1836.98,1278.8C1838.95,1278.9 1840.38,1280.52 1842.05,1282.97C1847.62,1291.16 1857.04,1302.66 1859.34,1306.55C1860.23,1308.06 1860.88,1309.23 1860.9,1310.34C1860.92,1311.32 1860.19,1312.03 1859,1312.98C1856.94,1314.61 1853.69,1316.37 1848.96,1318.65C1832.52,1326.59 1796.16,1348.19 1788.96,1351.71C1785.33,1353.49 1782.64,1354.43 1780.16,1353.7C1777.59,1352.93 1775.46,1350.5 1772.78,1346.34C1763.48,1331.95 1751.25,1303.21 1741.73,1284.6C1716.24,1234.71 1695.16,1195.46 1669.07,1144.11C1657.84,1122.01 1646.98,1099.8 1636.36,1078.65C1634.36,1074.67 1633.02,1071.5 1632.34,1068.87C1631.8,1066.73 1631.69,1065.05 1632.14,1063.59C1632.58,1062.18 1633.54,1061.03 1634.87,1059.86C1636.58,1058.37 1638.84,1056.91 1641.6,1055.21L1641.6,1055.21C1644.64,1053.34 1647.07,1051.64 1649.2,1050.59C1650.55,1049.92 1651.67,1049.47 1652.83,1049.88C1653.69,1050.2 1654.5,1050.91 1655.42,1051.99C1656.66,1053.45 1657.97,1055.5 1659.46,1058.25C1666.73,1071.62 1677.04,1094.88 1679.32,1099.44C1691.31,1123.42 1703.52,1146.76 1715.22,1171.07C1724.11,1189.57 1750.45,1233.48 1754.09,1237.86C1755.65,1239.74 1757.26,1240.7 1758.84,1241.1C1760.5,1241.53 1762.21,1241.36 1763.99,1240.67C1766.47,1239.71 1769.22,1237.55 1772.4,1235.28C1783.43,1227.43 1790.76,1221.31 1801.72,1213.72C1803.35,1212.59 1805.24,1212.41 1806.66,1212.69C1807.11,1212.78 1807.7,1213.06 1807.84,1213.12Z" style="fill:rgb(2,3,3);"/>
            </g>
            <g transform="matrix(0.80555,0,0,0.80555,297.049,175.33)">
                <path d="M1667.41,930.749C1645.72,911.699 1592.93,904.972 1567.88,923.608C1537.21,946.418 1531.59,963.829 1530.67,993.156C1529.99,1014.75 1540.93,1034.63 1551.24,1044.86C1569.65,1063.11 1584.18,1070.68 1610.44,1069.96C1629.75,1069.44 1656.94,1061.46 1674.32,1044.83C1687.88,1031.85 1696.69,1020.07 1697.09,992.103C1697.51,963.272 1693.44,953.612 1667.41,930.749ZM1588.88,967.921C1573.92,977.144 1564.63,1005.34 1585.28,1022.64C1601.2,1035.98 1632.19,1034.2 1642.29,1021.55C1658.67,1001.01 1654.64,982.608 1637.3,967.649C1625.71,957.651 1602.25,959.682 1588.88,967.921Z" style="fill:rgb(178,126,45);"/>
            </g>
            <g transform="matrix(0.80555,0,0,0.80555,297.049,175.33)">
                <path d="M1613.88,1057.54C1570.09,1058.69 1551.68,1016.32 1548.32,987.339C1546.72,973.551 1559.97,948.217 1577.87,930.329C1600.53,907.678 1562.83,919.769 1553.4,934.371C1534.55,963.552 1531.59,963.829 1530.67,993.156C1529.99,1014.75 1540.93,1034.63 1551.24,1044.86C1569.65,1063.11 1587.92,1074.06 1613.88,1070.01C1671.76,1060.99 1651.01,1056.56 1613.88,1057.54Z" style="fill:rgb(209,150,60);"/>
            </g>
            <g transform="matrix(-0.216518,0.3507,0.3507,0.216518,1604.87,196.556)">
                <path d="M1613.88,1057.54C1570.09,1058.69 1551.68,1016.32 1548.32,987.339C1546.72,973.551 1558.33,940.306 1576.22,922.418C1598.88,899.768 1561.18,911.859 1551.75,926.46C1532.91,955.641 1531.59,963.829 1530.67,993.156C1529.99,1014.75 1540.93,1034.63 1551.24,1044.86C1569.65,1063.11 1587.92,1074.06 1613.88,1070.01C1671.76,1060.99 1651.01,1056.56 1613.88,1057.54Z" style="fill:rgb(209,150,60);"/>
            </g>
            <g transform="matrix(0.80555,0,0,0.80555,297.049,175.33)">
                <path d="M1669.51,928.529C1658.28,918.661 1639.02,911.888 1619.3,910.092C1599.48,908.288 1579.25,911.534 1566.21,921.234C1534.6,944.742 1528.62,962.838 1527.67,993.061C1526.96,1015.59 1538.37,1036.32 1549.12,1046.99C1568.21,1065.91 1583.3,1073.71 1610.52,1072.96C1630.44,1072.42 1658.47,1064.15 1676.39,1047C1690.51,1033.5 1699.67,1021.24 1700.09,992.146C1700.52,962.362 1696.39,952.147 1669.51,928.529L1669.51,928.529ZM1665.55,933.036C1690.71,955.143 1694.49,964.182 1694.09,992.06C1693.71,1018.9 1685.26,1030.21 1672.25,1042.66C1655.41,1058.77 1629.06,1066.45 1610.35,1066.96C1585.06,1067.66 1571.08,1060.31 1553.35,1042.73C1543.48,1032.94 1533.01,1013.92 1533.67,993.25C1534.56,964.82 1540.06,948.161 1569.79,926.049C1581.8,917.113 1600.49,914.405 1618.75,916.067C1637.11,917.739 1655.09,923.854 1665.55,933.036ZM1587.31,965.367C1571.02,975.409 1560.88,1006.11 1583.35,1024.94C1593.53,1033.46 1609.45,1036.3 1622.9,1034.2C1632.16,1032.77 1640.2,1028.98 1644.63,1023.42C1653.44,1012.37 1656.63,1001.86 1655.42,992.135C1654.2,982.429 1648.57,973.41 1639.26,965.378C1634.17,960.99 1627.04,958.634 1619.32,958.061C1608.15,957.23 1595.81,960.128 1587.31,965.367L1587.31,965.367ZM1590.46,970.474C1598,965.826 1608.97,963.307 1618.88,964.044C1625.23,964.516 1631.15,966.309 1635.34,969.92C1643.37,976.847 1648.42,984.509 1649.46,992.878C1650.51,1001.23 1647.52,1010.18 1639.94,1019.68C1636.3,1024.24 1629.58,1027.1 1621.98,1028.28C1610.17,1030.11 1596.14,1027.82 1587.2,1020.34C1568.39,1004.58 1576.82,978.88 1590.46,970.474L1590.46,970.474Z" style="fill:rgb(2,3,3);"/>
            </g>
            <g transform="matrix(1.04937,0,0,1.04937,238.763,684.856)">
                <path d="M1265.1,231.072C1262.3,233.002 1259.07,235.567 1256.37,238.284C1254.38,240.282 1252.68,242.369 1251.57,244.28C1249.75,247.469 1247.84,251.114 1246.48,255.006C1245.15,258.788 1244.33,262.792 1244.41,266.768C1244.41,267.143 1244.72,267.447 1245.09,267.447C1245.46,267.447 1245.77,267.143 1245.77,266.768C1245.83,263.733 1246.49,260.72 1247.43,257.801C1248.9,253.242 1251.1,248.92 1253.25,245.248C1254.51,243.024 1256.63,240.584 1258.97,238.25C1261.23,236.005 1263.68,233.856 1265.9,232.183C1266.21,231.962 1266.28,231.534 1266.06,231.228C1265.84,230.921 1265.41,230.851 1265.1,231.072Z" style="fill:rgb(2,3,3);"/>
            </g>
            <g transform="matrix(1.04937,0,0,1.04937,238.763,684.856)">
                <path d="M1254.7,305.796C1256.41,308.574 1259.37,311.896 1262.84,314.877C1266.03,317.614 1269.63,320.049 1272.88,321.715C1273.16,321.87 1273.53,321.76 1273.68,321.47C1273.84,321.18 1273.73,320.819 1273.44,320.664C1270.33,318.939 1266.95,316.381 1263.87,313.686C1260.55,310.783 1257.57,307.708 1255.89,305.055C1255.69,304.726 1255.26,304.626 1254.93,304.83C1254.6,305.035 1254.5,305.468 1254.7,305.796Z" style="fill:rgb(2,3,3);"/>
            </g>
            <g transform="matrix(1.04937,0,0,1.04937,235.881,682.138)">
                <path d="M1324.86,348.373C1326.22,350.936 1330.63,360.015 1335.4,369.44C1339.39,377.325 1343.67,385.434 1346.2,390.391C1346.33,390.662 1346.66,390.772 1346.93,390.637C1347.2,390.502 1347.32,390.172 1347.18,389.902C1344.75,384.895 1340.78,376.624 1336.79,368.736C1332.01,359.296 1327.24,350.385 1325.83,347.845C1325.68,347.577 1325.35,347.478 1325.08,347.624C1324.81,347.769 1324.71,348.105 1324.86,348.373Z" style="fill:rgb(2,3,3);"/>
            </g>
            <g transform="matrix(1.04937,0,0,1.04937,238.763,684.856)">
                <path d="M1436.74,541.248C1434.6,541.138 1432.99,541.028 1431.7,540.87C1430.35,540.704 1429.38,540.485 1428.56,540.184C1426.61,539.459 1424.9,537.916 1423.29,535.972C1421.65,533.996 1420.19,531.561 1418.73,529.058C1417.3,526.601 1415.84,524.093 1414.51,521.721L1406.43,507.916C1406.28,507.655 1405.95,507.563 1405.69,507.712C1405.43,507.86 1405.33,508.193 1405.48,508.454C1405.48,508.454 1406.66,510.584 1408.45,514.1C1409.64,516.431 1411.08,519.373 1412.68,522.686C1413.72,524.803 1414.77,527.073 1415.97,529.24C1417.21,531.469 1418.59,533.601 1420.05,535.465C1422.45,538.525 1425.14,540.835 1428.07,541.682C1429,541.956 1430.07,542.125 1431.58,542.223C1432.89,542.308 1434.53,542.349 1436.71,542.352C1437.01,542.361 1437.27,542.12 1437.27,541.815C1437.28,541.51 1437.04,541.256 1436.74,541.248Z" style="fill:rgb(2,3,3);"/>
            </g>
        </g>
    </g>
</svg>
