<?xml version="1.0" encoding="UTF-8" standalone="no"?>
<!DOCTYPE svg PUBLIC "-//W3C//DTD SVG 1.1//EN" "http://www.w3.org/Graphics/SVG/1.1/DTD/svg11.dtd">
<svg width="100%" height="100%" viewBox="0 0 346 357" version="1.1" xmlns="http://www.w3.org/2000/svg" xmlns:xlink="http://www.w3.org/1999/xlink" xml:space="preserve" xmlns:serif="http://www.serif.com/" style="fill-rule:evenodd;clip-rule:evenodd;stroke-linejoin:round;stroke-miterlimit:2;">
    <g transform="matrix(1,0,0,1,-2293.91,-145.725)">
        <g id="Ebene3" transform="matrix(0.632169,0,0,0.632169,1189.92,-496.831)">
            <g transform="matrix(1,0,0,1,-1.85579,-6.80297)">
                <path d="M2288.68,1275.58C2289.12,1315.01 2291.72,1385.32 2288.68,1392.75C2274.81,1426.69 2263.45,1443.6 2240.33,1473.98C2195.13,1533.38 2124.34,1563.28 2080.93,1575.07C2035.7,1587.36 1977.27,1580.42 1944.85,1575.46C1914.35,1570.8 1872.65,1547.77 1846.32,1534.72C1828.2,1525.73 1811.69,1501.08 1801.48,1478.87C1799.97,1475.59 1777.15,1410.41 1769.42,1377.88" style="fill:rgb(99,120,116);"/>
            </g>
            <g transform="matrix(1,0,0,1,-1.85579,-6.80297)">
                <path d="M2284.72,1275.62C2285.03,1303.2 2286.4,1345.89 2286.15,1371.58C2286.05,1381.83 2285.87,1389.18 2285.02,1391.25C2271.3,1424.82 2260.05,1441.53 2237.18,1471.59C2192.6,1530.18 2122.71,1559.62 2079.9,1571.26C2035.33,1583.36 1989.74,1578.93 1957.23,1574.01C1927.89,1569.57 1889.45,1553.45 1862.42,1539.93C1844.67,1531.06 1826.38,1513.08 1813.02,1494.11C1810.97,1491.2 1783.29,1425.44 1775.66,1393.35C1775.16,1391.23 1773.03,1389.91 1770.9,1390.42C1768.78,1390.92 1767.47,1393.05 1767.97,1395.18C1775.81,1428.16 1804.45,1495.67 1806.56,1498.67C1820.43,1518.38 1839.08,1537.97 1857.88,1546.41C1887.57,1559.76 1924.07,1577.34 1955.28,1581.67C1989.64,1586.45 2036.06,1591.36 2081.97,1578.89C2125.96,1566.94 2197.67,1536.57 2243.48,1476.38C2266.85,1445.66 2278.32,1428.56 2292.34,1394.24C2293.02,1392.58 2293.59,1388.11 2293.84,1381.64C2294.72,1358.54 2292.99,1307.14 2292.63,1275.53C2292.61,1273.35 2290.82,1271.6 2288.63,1271.62C2286.45,1271.64 2284.7,1273.44 2284.72,1275.62Z" style="fill:rgb(2,3,3);"/>
            </g>
            <g transform="matrix(1.12008,-0.658353,0.607933,1.0343,-1033.09,1276.8)">
                <path d="M2025.09,1080C2140.93,1080 2234.97,1174.04 2234.97,1289.88C2234.97,1405.71 2140.93,1499.76 2025.09,1499.76C1909.26,1499.76 1804.38,1399.22 1806.45,1283.4C1808.12,1189.99 1909.26,1080 2025.09,1080Z" style="fill:rgb(157,156,150);"/>
            </g>
            <g transform="matrix(1.12008,-0.658353,0.607933,1.0343,-1033.09,1276.8)">
                <path d="M2025.09,1076.7C1907.51,1076.7 1802.84,1193.94 1805.03,1289.69C1807.52,1399.05 1907.51,1503.06 2025.09,1503.06C2142.67,1503.06 2238.01,1407.46 2238.01,1289.88C2238.01,1172.3 2142.67,1076.7 2025.09,1076.7ZM2025.09,1083.3C2139.18,1083.3 2231.93,1175.79 2231.93,1289.88C2231.93,1403.97 2139.18,1496.46 2025.09,1496.46C1911,1496.46 1813.1,1390.11 1811.12,1289.69C1809.42,1203.71 1911,1083.3 2025.09,1083.3Z" style="fill:rgb(2,3,3);"/>
            </g>
            <g transform="matrix(0.987558,-0.58046,0.536006,0.911926,-671.943,1276.91)">
                <path d="M2025.09,1080C2140.93,1080 2239.43,1185.37 2243.71,1294.58C2247.55,1392.33 2140.93,1499.76 2025.09,1499.76C1909.26,1499.76 1809.1,1406.47 1811.23,1290.66C1812.94,1197.43 1909.26,1080 2025.09,1080Z" style="fill:rgb(92,91,85);"/>
            </g>
            <g transform="matrix(0.987558,-0.58046,0.536006,0.911926,-671.943,1276.91)">
                <path d="M2025.09,1076.26C1907.28,1076.26 1803.76,1199.57 1805.52,1292.13C1807.76,1409.92 1907.28,1503.5 2025.09,1503.5C2142.91,1503.5 2245.67,1406.96 2246.66,1289.15C2247.48,1190.35 2142.91,1076.26 2025.09,1076.26L2025.09,1076.26ZM2025.09,1083.74C2138.95,1083.74 2239.53,1194.98 2239.75,1289.15C2240.01,1403.01 2138.95,1496.02 2025.09,1496.02C1911.23,1496.02 1814.78,1405.96 1812.42,1292.13C1810.63,1205.59 1911.23,1083.74 2025.09,1083.74L2025.09,1083.74Z" style="fill:rgb(2,3,3);"/>
            </g>
            <g transform="matrix(0.925181,-0.543796,0.50215,0.854326,-500.724,1290.17)">
                <path d="M2025.09,1080C2140.93,1080 2238.41,1190.66 2240.6,1289.93C2242.3,1367.25 2140.93,1499.76 2025.09,1499.76C1909.26,1499.76 1815.21,1405.71 1815.21,1289.88C1815.21,1174.04 1909.26,1080 2025.09,1080Z" style="fill:rgb(208,206,206);"/>
            </g>
            <g transform="matrix(0.925181,-0.543796,0.50215,0.854326,-500.724,1290.17)">
                <path d="M2025.09,1076.01C1907.14,1076.01 1811.53,1171.93 1811.53,1289.88C1811.53,1407.83 1907.14,1503.75 2025.09,1503.75C2143.04,1503.75 2241.88,1375.35 2244.54,1290.84C2247.46,1198.11 2143.04,1076.01 2025.09,1076.01L2025.09,1076.01ZM2025.09,1083.99C2138.82,1083.99 2239.52,1203.42 2237.17,1290.84C2235.03,1370.29 2138.82,1495.77 2025.09,1495.77C1911.37,1495.77 1818.9,1403.6 1818.9,1289.88C1818.9,1176.15 1911.37,1083.99 2025.09,1083.99L2025.09,1083.99Z" style="fill:rgb(2,3,3);"/>
            </g>
            <g id="Ebene5">
                <g transform="matrix(1,0,0,1,3.34259,-5.61582)">
                    <path d="M2214.94,1141.21C2212.53,1146.34 2206.37,1163.8 2206.37,1169.18C2206.37,1171.37 2208.15,1173.14 2210.33,1173.14C2212.51,1173.14 2214.28,1171.37 2214.28,1169.18C2214.28,1164.43 2219.97,1149.1 2222.1,1144.58C2223.03,1142.6 2222.18,1140.25 2220.2,1139.32C2218.23,1138.39 2215.87,1139.24 2214.94,1141.21Z" style="fill:rgb(2,3,3);"/>
                </g>
                <g transform="matrix(1,0,0,1,5.16439,-9.15461)">
                    <path d="M2224.84,1163.8C2222.71,1171.44 2221.18,1180.98 2218.48,1190.7C2217.89,1192.8 2219.13,1194.98 2221.23,1195.57C2223.33,1196.15 2225.06,1197.2 2226.1,1192.81C2228.46,1182.84 2230.18,1173.61 2232.42,1166.04C2233.04,1163.95 2231.85,1161.75 2229.76,1161.13C2227.66,1160.51 2225.96,1159.77 2224.84,1163.8Z" style="fill:rgb(2,3,3);"/>
                </g>
                <g transform="matrix(1,0,0,1,4.80913,-3.08565)">
                    <path d="M2229.99,1210.66C2233.72,1204.34 2238.61,1185.36 2241.51,1181.36C2241.9,1180.82 2246.82,1203.95 2247.74,1208.52C2252.16,1230.64 2254.93,1254.19 2253.31,1276.96C2251.97,1295.75 2246.16,1326.5 2241.51,1338.12C2235.41,1353.38 2222.85,1374.87 2221.01,1377.03C2217.14,1381.56 2175.73,1436.15 2178.3,1430.43C2182.53,1421.01 2215.24,1356.54 2215.94,1353.01C2219.69,1334.26 2228.89,1310.59 2230.09,1291.5C2230.92,1278.23 2232.88,1250.44 2232.94,1235.37C2232.97,1229.71 2228.67,1212.89 2229.99,1210.66Z" style="fill:rgb(2,3,3);"/>
                </g>
                <path d="M1782.24,1313.16C1784.91,1315.25 1793.81,1320.66 1797.24,1323.24C1798.98,1324.56 1801.46,1324.21 1802.78,1322.47C1804.09,1320.73 1803.74,1318.24 1802,1316.93C1798.6,1314.36 1789.76,1309 1787.11,1306.93C1785.39,1305.59 1782.9,1305.89 1781.56,1307.61C1780.21,1309.33 1780.52,1311.82 1782.24,1313.16Z" style="fill:rgb(2,3,3);"/>
                <path d="M1785.98,1341.11C1792.67,1346.94 1795.69,1348.88 1801.96,1352.51C1803.85,1353.61 1806.27,1352.97 1807.37,1351.08C1808.46,1349.19 1807.82,1346.77 1805.93,1345.67C1800.14,1342.32 1797.35,1340.53 1791.17,1335.14C1789.53,1333.71 1787.03,1333.88 1785.59,1335.53C1784.16,1337.17 1784.33,1339.67 1785.98,1341.11Z" style="fill:rgb(2,3,3);"/>
                <path d="M1792.15,1364.74C1792.06,1362.54 1810.16,1374.62 1812.28,1377.63C1815.87,1382.73 1820.79,1397.2 1823.75,1401.44C1824.88,1403.06 1835.03,1423.78 1853.01,1442.05C1872.56,1461.9 1900.47,1479.66 1912.63,1488.26C1922.95,1495.55 1874.53,1469.65 1879.47,1473.58C1886.8,1479.42 1849.89,1453.61 1848.28,1452.49C1836.91,1444.57 1807.79,1405 1803.57,1398.51C1799.29,1391.93 1792.24,1366.95 1792.15,1364.74Z" style="fill:rgb(2,3,3);"/>
                <g transform="matrix(1,0,0,1,-5.16854,10.092)">
                    <path d="M2027.5,1145.96C2027.64,1141.48 2027.7,1136.77 2027.95,1132.05C2028.12,1128.93 2028.31,1125.82 2028.64,1122.77C2029.58,1113.94 2030.98,1105.87 2031.81,1099.57C2031.83,1096.45 2029.31,1093.9 2026.19,1093.89C2023.07,1093.88 2020.53,1096.4 2020.51,1099.52C2021.29,1105.81 2022.54,1113.89 2023.3,1122.72C2023.56,1125.77 2023.68,1128.88 2023.79,1132C2023.94,1136.73 2023.9,1141.45 2023.96,1145.93C2023.95,1146.91 2024.74,1147.71 2025.72,1147.72C2026.69,1147.73 2027.49,1146.94 2027.5,1145.96Z" style="fill:rgb(2,3,3);"/>
                </g>
                <g transform="matrix(1,0,0,1,0.295029,4.73771)">
                    <path d="M2146.45,1287.94C2149.3,1288.01 2155.67,1287.83 2163.13,1287.84C2166.68,1287.85 2170.45,1287.87 2174.23,1288.02C2187.33,1288.56 2200.07,1289.62 2202.44,1289.59C2205.54,1289.22 2207.75,1286.4 2207.38,1283.31C2207.01,1280.21 2204.19,1278 2201.1,1278.37C2198.86,1278.89 2186.65,1281.17 2174.02,1282.68C2170.28,1283.13 2166.52,1283.43 2162.99,1283.68C2155.61,1284.2 2149.29,1284.36 2146.47,1284.4C2145.49,1284.39 2144.69,1285.18 2144.69,1286.16C2144.68,1287.13 2145.47,1287.93 2146.45,1287.94Z" style="fill:rgb(2,3,3);"/>
                </g>
                <g transform="matrix(-1,0,0,1,4043.5,8.32948)">
                    <path d="M2146.45,1287.94C2149.3,1288.01 2155.67,1287.83 2163.13,1287.84C2166.68,1287.85 2170.45,1287.87 2174.23,1288.02C2187.33,1288.56 2200.07,1289.62 2202.44,1289.59C2205.54,1289.22 2207.75,1286.4 2207.38,1283.31C2207.01,1280.21 2204.19,1278 2201.1,1278.37C2198.86,1278.89 2186.65,1281.17 2174.02,1282.68C2170.28,1283.13 2166.52,1283.43 2162.99,1283.68C2155.61,1284.2 2149.29,1284.36 2146.47,1284.4C2145.49,1284.39 2144.69,1285.18 2144.69,1286.16C2144.68,1287.13 2145.47,1287.93 2146.45,1287.94Z" style="fill:rgb(2,3,3);"/>
                </g>
                <g transform="matrix(1,0,0,1,-2.47713,4.55413)">
                    <path d="M2022.29,1397.07C2022.44,1403.41 2022.34,1411.01 2021.67,1418.76C2021.3,1423.15 2020.7,1427.53 2020.11,1431.8C2019.09,1439.23 2017.97,1446.06 2017.41,1451.68C2017.46,1454.8 2020.03,1457.29 2023.14,1457.25C2026.26,1457.2 2028.76,1454.63 2028.71,1451.51C2027.93,1445.51 2027.17,1437.97 2026.73,1429.87C2026.5,1425.52 2026.32,1421.09 2026.25,1416.71C2026.12,1409.6 2026.24,1402.72 2025.83,1396.9C2025.78,1395.92 2024.95,1395.17 2023.98,1395.21C2023,1395.26 2022.25,1396.09 2022.29,1397.07Z" style="fill:rgb(2,3,3);"/>
                </g>
            </g>
        </g>
    </g>
</svg>
