<?xml version="1.0" encoding="UTF-8" standalone="no"?>
<!DOCTYPE svg PUBLIC "-//W3C//DTD SVG 1.1//EN" "http://www.w3.org/Graphics/SVG/1.1/DTD/svg11.dtd">
<svg width="100%" height="100%" viewBox="0 0 83 114" version="1.1" xmlns="http://www.w3.org/2000/svg" xmlns:xlink="http://www.w3.org/1999/xlink" xml:space="preserve" xmlns:serif="http://www.serif.com/" style="fill-rule:evenodd;clip-rule:evenodd;stroke-linejoin:round;stroke-miterlimit:2;">
    <g transform="matrix(1,0,0,1,-2441.34,-231.481)">
        <g id="Ebene4" transform="matrix(0.632169,0,0,0.632169,1189.16,-492.842)">
            <g transform="matrix(0.680374,0.425934,-0.438288,0.700108,1178.16,-483.902)">
                <path d="M2060.22,1080L2099.87,1270.84L2020.56,1270.84L2060.22,1080Z" style="fill:rgb(200,98,59);"/>
            </g>
            <g transform="matrix(0.680374,0.425934,-0.438288,0.700108,1178.16,-483.902)">
                <path d="M2065.05,1079.05C2064.58,1076.82 2062.56,1075.21 2060.22,1075.21C2057.87,1075.21 2055.85,1076.82 2055.39,1079.05L2015.74,1269.89C2015.44,1271.3 2015.82,1272.76 2016.75,1273.87C2017.69,1274.98 2019.09,1275.62 2020.56,1275.62L2099.87,1275.62C2101.35,1275.62 2102.75,1274.98 2103.68,1273.87C2104.62,1272.76 2104.99,1271.3 2104.7,1269.89L2065.05,1079.05ZM2060.22,1104.19L2093.85,1266.05C2093.85,1266.05 2026.59,1266.05 2026.59,1266.05L2060.22,1104.19Z" style="fill:rgb(2,3,3);"/>
            </g>
            <g transform="matrix(0.15698,-0.0922689,0.0852024,0.144958,1594.41,1284.47)">
                <circle cx="2025.09" cy="1289.88" r="209.879" style="fill:rgb(200,98,59);"/>
            </g>
            <g transform="matrix(0.15698,-0.0922689,0.0852024,0.144958,1594.41,1284.47)">
                <path d="M2025.09,1056.48C1896.81,1056.48 1793.49,1161.6 1793.49,1289.88C1793.49,1418.16 1896.81,1523.28 2025.09,1523.28C2153.37,1523.28 2256.69,1418.16 2256.69,1289.88C2256.69,1161.6 2153.37,1056.48 2025.09,1056.48L2025.09,1056.48ZM2025.09,1103.52C2128.48,1103.52 2213.25,1186.49 2213.25,1289.88C2213.25,1393.27 2128.48,1476.24 2025.09,1476.24C1921.7,1476.24 1836.93,1393.27 1836.93,1289.88C1836.93,1186.49 1921.7,1103.52 2025.09,1103.52L2025.09,1103.52Z" style="fill:rgb(2,3,3);"/>
            </g>
        </g>
    </g>
</svg>
