<?xml version="1.0" encoding="UTF-8" standalone="no"?>
<!DOCTYPE svg PUBLIC "-//W3C//DTD SVG 1.1//EN" "http://www.w3.org/Graphics/SVG/1.1/DTD/svg11.dtd">
<svg width="100%" height="100%" viewBox="0 0 346 357" version="1.1" xmlns="http://www.w3.org/2000/svg" xmlns:xlink="http://www.w3.org/1999/xlink" xml:space="preserve" xmlns:serif="http://www.serif.com/" style="fill-rule:evenodd;clip-rule:evenodd;stroke-linejoin:round;stroke-miterlimit:2;">
    <g transform="matrix(1,0,0,1,-2293.91,-145.725)">
        <g id="Ebene3" transform="matrix(0.632169,0,0,0.632169,1189.92,-496.831)">
            <g transform="matrix(1,0,0,1,-1.85579,-6.80297)">
                <path d="M2288.68,1275.58C2289.12,1315.01 2291.72,1385.32 2288.68,1392.75C2274.81,1426.69 2263.45,1443.6 2240.33,1473.98C2195.13,1533.38 2124.34,1563.28 2080.93,1575.07C2035.7,1587.36 1977.27,1580.42 1944.85,1575.46C1914.35,1570.8 1872.65,1547.77 1846.32,1534.72C1828.2,1525.73 1811.69,1501.08 1801.48,1478.87C1799.97,1475.59 1777.15,1410.41 1769.42,1377.88" style="fill:rgb(99,120,116);"/>
            </g>
            <g transform="matrix(1,0,0,1,-1.85579,-6.80297)">
                <path d="M2284.72,1275.62C2285.03,1303.2 2286.4,1345.89 2286.15,1371.58C2286.05,1381.83 2285.87,1389.18 2285.02,1391.25C2271.3,1424.82 2260.05,1441.53 2237.18,1471.59C2192.6,1530.18 2122.71,1559.62 2079.9,1571.26C2035.33,1583.36 1989.74,1578.93 1957.23,1574.01C1927.89,1569.57 1889.45,1553.45 1862.42,1539.93C1844.67,1531.06 1826.38,1513.08 1813.02,1494.11C1810.97,1491.2 1783.29,1425.44 1775.66,1393.35C1775.16,1391.23 1773.03,1389.91 1770.9,1390.42C1768.78,1390.92 1767.47,1393.05 1767.97,1395.18C1775.81,1428.16 1804.45,1495.67 1806.56,1498.67C1820.43,1518.38 1839.08,1537.97 1857.88,1546.41C1887.57,1559.76 1924.07,1577.34 1955.28,1581.67C1989.64,1586.45 2036.06,1591.36 2081.97,1578.89C2125.96,1566.94 2197.67,1536.57 2243.48,1476.38C2266.85,1445.66 2278.32,1428.56 2292.34,1394.24C2293.02,1392.58 2293.59,1388.11 2293.84,1381.64C2294.72,1358.54 2292.99,1307.14 2292.63,1275.53C2292.61,1273.35 2290.82,1271.6 2288.63,1271.62C2286.45,1271.64 2284.7,1273.44 2284.72,1275.62Z" style="fill:rgb(2,3,3);"/>
            </g>
            <g transform="matrix(1.12008,-0.658353,0.607933,1.0343,-1033.09,1276.8)">
                <path d="M2025.09,1080C2140.93,1080 2234.97,1174.04 2234.97,1289.88C2234.97,1405.71 2140.93,1499.76 2025.09,1499.76C1909.26,1499.76 1804.38,1399.22 1806.45,1283.4C1808.12,1189.99 1909.26,1080 2025.09,1080Z" style="fill:rgb(157,156,150);"/>
            </g>
            <g transform="matrix(1.12008,-0.658353,0.607933,1.0343,-1033.09,1276.8)">
                <path d="M2025.09,1076.7C1907.51,1076.7 1802.84,1193.94 1805.03,1289.69C1807.52,1399.05 1907.51,1503.06 2025.09,1503.06C2142.67,1503.06 2238.01,1407.46 2238.01,1289.88C2238.01,1172.3 2142.67,1076.7 2025.09,1076.7ZM2025.09,1083.3C2139.18,1083.3 2231.93,1175.79 2231.93,1289.88C2231.93,1403.97 2139.18,1496.46 2025.09,1496.46C1911,1496.46 1813.1,1390.11 1811.12,1289.69C1809.42,1203.71 1911,1083.3 2025.09,1083.3Z" style="fill:rgb(2,3,3);"/>
            </g>
            <g transform="matrix(0.987558,-0.58046,0.536006,0.911926,-671.943,1276.91)">
                <path d="M2025.09,1080C2140.93,1080 2239.43,1185.37 2243.71,1294.58C2247.55,1392.33 2140.93,1499.76 2025.09,1499.76C1909.26,1499.76 1809.1,1406.47 1811.23,1290.66C1812.94,1197.43 1909.26,1080 2025.09,1080Z" style="fill:rgb(92,91,85);"/>
            </g>
            <g transform="matrix(0.987558,-0.58046,0.536006,0.911926,-671.943,1276.91)">
                <path d="M2025.09,1076.26C1907.28,1076.26 1803.76,1199.57 1805.52,1292.13C1807.76,1409.92 1907.28,1503.5 2025.09,1503.5C2142.91,1503.5 2245.67,1406.96 2246.66,1289.15C2247.48,1190.35 2142.91,1076.26 2025.09,1076.26L2025.09,1076.26ZM2025.09,1083.74C2138.95,1083.74 2239.53,1194.98 2239.75,1289.15C2240.01,1403.01 2138.95,1496.02 2025.09,1496.02C1911.23,1496.02 1814.78,1405.96 1812.42,1292.13C1810.63,1205.59 1911.23,1083.74 2025.09,1083.74L2025.09,1083.74Z" style="fill:rgb(2,3,3);"/>
            </g>
            <g transform="matrix(0.925181,-0.543796,0.50215,0.854326,-500.724,1290.17)">
                <path d="M2025.09,1080C2140.93,1080 2238.41,1190.66 2240.6,1289.93C2242.3,1367.25 2140.93,1499.76 2025.09,1499.76C1909.26,1499.76 1815.21,1405.71 1815.21,1289.88C1815.21,1174.04 1909.26,1080 2025.09,1080Z" style="fill:rgb(208,206,206);"/>
            </g>
            <g transform="matrix(0.925181,-0.543796,0.50215,0.854326,-500.724,1290.17)">
                <path d="M2025.09,1076.01C1907.14,1076.01 1811.53,1171.93 1811.53,1289.88C1811.53,1407.83 1907.14,1503.75 2025.09,1503.75C2143.04,1503.75 2241.88,1375.35 2244.54,1290.84C2247.46,1198.11 2143.04,1076.01 2025.09,1076.01L2025.09,1076.01ZM2025.09,1083.99C2138.82,1083.99 2239.52,1203.42 2237.17,1290.84C2235.03,1370.29 2138.82,1495.77 2025.09,1495.77C1911.37,1495.77 1818.9,1403.6 1818.9,1289.88C1818.9,1176.15 1911.37,1083.99 2025.09,1083.99L2025.09,1083.99Z" style="fill:rgb(2,3,3);"/>
            </g>
            <g id="Ebene5" transform="matrix(1.00158,0,0,1.00158,80.0494,5.09326)">
                <g transform="matrix(1,0,0,1,-78.7337,-11.7896)">
                    <path d="M2214.94,1141.21C2212.53,1146.34 2206.37,1163.8 2206.37,1169.18C2206.37,1171.37 2208.15,1173.14 2210.33,1173.14C2212.51,1173.14 2214.28,1171.37 2214.28,1169.18C2214.28,1164.43 2219.97,1149.1 2222.1,1144.58C2223.03,1142.6 2222.18,1140.25 2220.2,1139.32C2218.23,1138.39 2215.87,1139.24 2214.94,1141.21Z" style="fill:rgb(2,3,3);"/>
                </g>
                <g transform="matrix(1,0,0,1,-76.9119,-15.3284)">
                    <path d="M2224.84,1163.8C2222.71,1171.44 2221.18,1180.98 2218.48,1190.7C2217.89,1192.8 2219.13,1194.98 2221.23,1195.57C2223.33,1196.15 2225.06,1197.2 2226.1,1192.81C2228.46,1182.84 2230.18,1173.61 2232.42,1166.04C2233.04,1163.95 2231.85,1161.75 2229.76,1161.13C2227.66,1160.51 2225.96,1159.77 2224.84,1163.8Z" style="fill:rgb(2,3,3);"/>
                </g>
                <g transform="matrix(1,0,0,1,-77.2672,-9.25943)">
                    <path d="M2229.99,1210.66C2233.72,1204.34 2238.61,1185.36 2241.51,1181.36C2241.9,1180.82 2246.82,1203.95 2247.74,1208.52C2252.16,1230.64 2254.93,1254.19 2253.31,1276.96C2251.97,1295.75 2246.16,1326.5 2241.51,1338.12C2235.41,1353.38 2222.85,1374.87 2221.01,1377.03C2217.14,1381.56 2175.73,1436.15 2178.3,1430.43C2182.53,1421.01 2215.24,1356.54 2215.94,1353.01C2219.69,1334.26 2228.89,1310.59 2230.09,1291.5C2230.92,1278.23 2232.88,1250.44 2232.94,1235.37C2232.97,1229.71 2228.67,1212.89 2229.99,1210.66Z" style="fill:rgb(2,3,3);"/>
                </g>
                <g transform="matrix(1,0,0,1,-82.0763,-6.17378)">
                    <path d="M1782.24,1313.16C1784.91,1315.25 1793.81,1320.66 1797.24,1323.24C1798.98,1324.56 1801.46,1324.21 1802.78,1322.47C1804.09,1320.73 1803.74,1318.24 1802,1316.93C1798.6,1314.36 1789.76,1309 1787.11,1306.93C1785.39,1305.59 1782.9,1305.89 1781.56,1307.61C1780.21,1309.33 1780.52,1311.82 1782.24,1313.16Z" style="fill:rgb(2,3,3);"/>
                </g>
                <g transform="matrix(1,0,0,1,-82.0763,-6.17378)">
                    <path d="M1785.98,1341.11C1792.67,1346.94 1795.69,1348.88 1801.96,1352.51C1803.85,1353.61 1806.27,1352.97 1807.37,1351.08C1808.46,1349.19 1807.82,1346.77 1805.93,1345.67C1800.14,1342.32 1797.35,1340.53 1791.17,1335.14C1789.53,1333.71 1787.03,1333.88 1785.59,1335.53C1784.16,1337.17 1784.33,1339.67 1785.98,1341.11Z" style="fill:rgb(2,3,3);"/>
                </g>
                <g transform="matrix(1,0,0,1,-82.0763,-6.17378)">
                    <path d="M1792.15,1364.74C1792.06,1362.54 1810.16,1374.62 1812.28,1377.63C1815.87,1382.73 1820.79,1397.2 1823.75,1401.44C1824.88,1403.06 1835.03,1423.78 1853.01,1442.05C1872.56,1461.9 1900.47,1479.66 1912.63,1488.26C1922.95,1495.55 1874.53,1469.65 1879.47,1473.58C1886.8,1479.42 1849.89,1453.61 1848.28,1452.49C1836.91,1444.57 1807.79,1405 1803.57,1398.51C1799.29,1391.93 1792.24,1366.95 1792.15,1364.74Z" style="fill:rgb(2,3,3);"/>
                </g>
                <g transform="matrix(1,0,0,1,-89.5529,-9.22867)">
                    <path d="M2027.5,1140.19C2027.63,1135.71 2027.69,1131 2027.94,1126.28C2028.11,1123.16 2028.31,1120.06 2028.63,1117.01C2029.57,1108.17 2030.98,1105.87 2031.81,1099.57C2031.83,1096.45 2029.31,1093.9 2026.19,1093.89C2023.07,1093.88 2020.53,1096.4 2020.51,1099.52C2021.29,1105.81 2022.53,1108.12 2023.29,1116.95C2023.55,1120.01 2023.68,1123.12 2023.78,1126.24C2023.93,1130.96 2023.89,1135.68 2023.95,1140.16C2023.94,1141.14 2024.73,1141.94 2025.71,1141.95C2026.69,1141.96 2027.49,1141.17 2027.5,1140.19Z" style="fill:rgb(2,3,3);"/>
                </g>
                <g transform="matrix(1,0,0,1,-62.2429,2.13613)">
                    <path d="M2157.92,1287.1C2160.77,1287.17 2167.14,1287.17 2174.6,1287C2189.33,1286.67 2200.07,1289.62 2202.44,1289.59C2205.54,1289.22 2207.75,1286.4 2207.38,1283.31C2207.01,1280.21 2204.19,1278 2201.1,1278.37C2198.86,1278.89 2192.84,1280.99 2185.49,1281.85C2181.75,1282.28 2177.99,1282.59 2174.46,1282.84C2167.08,1283.36 2160.76,1283.52 2157.94,1283.56C2156.96,1283.55 2156.16,1284.34 2156.16,1285.32C2156.15,1286.3 2156.94,1287.09 2157.92,1287.1Z" style="fill:rgb(2,3,3);"/>
                </g>
                <g transform="matrix(-1,0,0,1,3931.86,3.83028)">
                    <path d="M2158.95,1288C2161.8,1288.07 2168.17,1287.89 2175.63,1287.91C2179.18,1287.91 2182.97,1287.68 2186.73,1288.09C2196.05,1289.11 2200.5,1290.29 2202.87,1290.26C2205.96,1289.89 2208.18,1287.07 2207.8,1283.97C2207.43,1280.88 2204.62,1278.66 2201.52,1279.04C2199.28,1279.55 2184.65,1283.38 2175.49,1283.74C2168.1,1284.03 2161.79,1284.42 2158.97,1284.46C2157.99,1284.45 2157.19,1285.24 2157.19,1286.22C2157.18,1287.2 2157.97,1288 2158.95,1288Z" style="fill:rgb(2,3,3);"/>
                </g>
                <g transform="matrix(1,0,0,1,-86.449,30.593)">
                    <path d="M2022.21,1402.85C2022.35,1409.19 2022.25,1416.8 2021.59,1424.54C2021.21,1428.93 2020.61,1433.31 2020.02,1437.59C2019,1445.01 2017.97,1446.06 2017.41,1451.68C2017.46,1454.8 2020.03,1457.29 2023.14,1457.25C2026.26,1457.2 2028.78,1454.17 2028.71,1451.51C2028.52,1444.42 2026.59,1437.65 2026.15,1425.83C2025.88,1418.72 2026.15,1408.5 2025.74,1402.68C2025.69,1401.7 2024.87,1400.95 2023.89,1401C2022.91,1401.04 2022.16,1401.87 2022.21,1402.85Z" style="fill:rgb(2,3,3);"/>
                </g>
                <g transform="matrix(3.2535,0.0405843,-0.0405843,3.2535,-627.058,-3759.16)">
                    <path d="M809.708,1514.36C809.388,1514.36 808.732,1512.71 807.74,1509.41C806.62,1505.56 805.652,1502.02 804.836,1498.78L804.836,1506.65C804.836,1507.33 804.9,1508.47 805.028,1510.09C805.14,1511.85 805.196,1512.98 805.196,1513.5C805.196,1513.64 805.108,1513.76 804.932,1513.87C804.756,1513.97 804.556,1514.02 804.332,1514.02C803.996,1514.02 803.828,1513.89 803.828,1513.64L803.876,1512.94C803.908,1512.43 803.924,1512.1 803.924,1511.93C803.924,1511.09 803.876,1509.74 803.78,1507.9C803.684,1506.03 803.636,1504.89 803.636,1504.5L803.636,1501.42C803.636,1500.93 803.66,1500.19 803.708,1499.21C803.772,1498.37 803.804,1497.63 803.804,1497.01L803.804,1496.86C803.804,1496.06 803.98,1495.66 804.332,1495.66C804.54,1495.66 804.804,1496.02 805.124,1496.72C805.652,1497.87 806.324,1499.93 807.14,1502.91C807.604,1504.64 808.148,1506.86 808.772,1509.58C808.756,1509.52 808.884,1510.07 809.156,1511.24L809.18,1511.36C809.18,1509.81 809.196,1508.41 809.228,1507.18L809.276,1503.01L809.276,1495.9C809.34,1495.5 809.596,1495.3 810.044,1495.3C810.476,1495.3 810.692,1495.62 810.692,1496.24L810.692,1496.38C810.596,1496.58 810.548,1496.81 810.548,1497.08C810.548,1498.06 810.524,1499.53 810.476,1501.5C810.428,1503.48 810.404,1504.97 810.404,1505.96L810.404,1513.28C810.404,1513.54 810.336,1513.78 810.2,1514.01C810.064,1514.24 809.9,1514.36 809.708,1514.36Z" style="fill:rgb(197,92,52);fill-rule:nonzero;"/>
                </g>
                <g transform="matrix(3.2535,0.0405843,-0.0405843,3.2535,-488.615,-3640.94)">
                    <path d="M806.924,1514.67C806.492,1514.67 806.1,1514.53 805.748,1514.24C805.396,1513.95 805.092,1513.56 804.836,1513.06C804.372,1512.2 804.028,1511.02 803.804,1509.51C803.644,1508.47 803.524,1507.27 803.444,1505.91L803.42,1504.64L803.42,1503.34C803.404,1502.93 803.396,1502.42 803.396,1501.83C803.396,1500.87 803.436,1500.02 803.516,1499.29C803.58,1498.52 803.74,1497.76 803.996,1497.01C804.252,1496.35 804.62,1495.89 805.1,1495.62C805.388,1495.49 805.676,1495.42 805.964,1495.42C806.812,1495.42 807.484,1495.76 807.98,1496.43C808.524,1497.18 808.884,1498.02 809.06,1498.95C809.316,1500.07 809.46,1501.14 809.492,1502.17C809.556,1503.3 809.588,1504.38 809.588,1505.38L809.588,1506.75C809.588,1507.02 809.548,1507.54 809.468,1508.29C809.404,1508.88 809.372,1509.38 809.372,1509.8L809.372,1509.89C809.276,1510.34 809.228,1510.87 809.228,1511.48C809.228,1511.93 809.132,1512.39 808.94,1512.87C808.748,1513.35 808.476,1513.76 808.124,1514.1C807.772,1514.48 807.372,1514.67 806.924,1514.67ZM806.972,1513.35C807.292,1513.35 807.564,1513.06 807.788,1512.46C807.98,1511.93 808.12,1511.29 808.208,1510.53C808.296,1509.77 808.372,1508.91 808.436,1507.95C808.468,1507.54 808.484,1507 808.484,1506.34L808.46,1504.13C808.428,1503.27 808.332,1502.19 808.172,1500.89C808.044,1499.79 807.804,1498.82 807.452,1497.97C807.292,1497.57 807.092,1497.26 806.852,1497.03C806.612,1496.81 806.356,1496.69 806.084,1496.69C805.684,1496.69 805.388,1497.01 805.196,1497.63C804.956,1498.29 804.796,1499.01 804.716,1499.79C804.62,1500.64 804.564,1501.45 804.548,1502.21L804.524,1503.01C804.508,1503.23 804.5,1503.54 804.5,1503.92L804.5,1504.02C804.5,1505.09 804.612,1506.41 804.836,1507.98C805.092,1510.1 805.468,1511.62 805.964,1512.51C806.284,1513.07 806.62,1513.35 806.972,1513.35Z" style="fill:rgb(197,92,52);fill-rule:nonzero;"/>
                </g>
                <g transform="matrix(3.2535,0.0405843,-0.0405843,3.2535,-623.843,-3534.87)">
                    <path d="M805.148,1514.53C804.572,1514.53 804.076,1514.42 803.66,1514.21C803.404,1514.07 803.276,1513.9 803.276,1513.71C803.276,1513.52 803.324,1513.36 803.42,1513.24C803.516,1513.12 803.652,1513.06 803.828,1513.06C803.988,1513.06 804.22,1513.13 804.524,1513.26C804.86,1513.38 805.068,1513.45 805.148,1513.45C805.452,1513.45 805.728,1513.32 805.976,1513.05C806.224,1512.79 806.42,1512.44 806.564,1512.01C806.852,1511.21 806.996,1510.49 806.996,1509.85C806.996,1509.16 806.888,1508.43 806.672,1507.67C806.456,1506.91 806.164,1506.17 805.796,1505.45L805.412,1504.69C805.012,1503.89 804.704,1503.26 804.488,1502.79C804.272,1502.33 804.084,1501.82 803.924,1501.28C803.684,1500.51 803.564,1499.77 803.564,1499.05C803.564,1498.47 803.664,1497.93 803.864,1497.41C804.064,1496.9 804.364,1496.47 804.764,1496.12C805.164,1495.74 805.66,1495.54 806.252,1495.54C806.54,1495.54 806.82,1495.63 807.092,1495.8C807.364,1495.96 807.556,1496.17 807.668,1496.43L807.26,1496.93C806.844,1496.93 806.532,1496.86 806.324,1496.69C806.036,1496.73 805.784,1496.87 805.568,1497.12C805.352,1497.36 805.188,1497.65 805.076,1497.97C804.98,1498.27 804.932,1498.58 804.932,1498.88C804.932,1499.49 805.016,1500.11 805.184,1500.74C805.352,1501.37 805.572,1501.97 805.844,1502.53L807.524,1505.89C807.796,1506.46 808.012,1507.11 808.172,1507.83C808.332,1508.55 808.412,1509.27 808.412,1509.99C808.412,1511.05 808.156,1512.04 807.644,1512.97C807.372,1513.45 807.02,1513.83 806.588,1514.11C806.156,1514.39 805.676,1514.53 805.148,1514.53Z" style="fill:rgb(197,92,52);fill-rule:nonzero;"/>
                </g>
                <g transform="matrix(3.2535,0.0405843,-0.0405843,3.2535,-771.544,-3642.83)">
                    <path d="M806.18,1514.34C805.588,1514.34 805.292,1513.73 805.292,1512.51C805.292,1511.74 804.96,1509 804.296,1504.27C803.632,1499.54 803.212,1496.96 803.036,1496.53C803.244,1496.14 803.524,1495.95 803.876,1495.95C804.244,1495.95 804.588,1496.78 804.908,1498.45C805.212,1500.21 805.468,1502.22 805.676,1504.5L805.844,1506.44C805.94,1507.53 805.996,1508.08 806.012,1508.1L806.252,1506.08L806.396,1504.83C806.604,1503.01 806.74,1501.72 806.804,1500.97C806.884,1499.98 806.924,1499.3 806.924,1498.93L806.924,1498.47C806.924,1498.3 806.988,1498.13 807.116,1497.97C807.244,1497.81 807.388,1497.73 807.548,1497.73C808.124,1497.73 808.412,1497.97 808.412,1498.45L808.412,1498.81C808.412,1499.72 808.504,1500.7 808.688,1501.75C808.872,1502.8 809.14,1504.05 809.492,1505.5C809.716,1506.35 809.94,1507.38 810.164,1508.6C810.212,1508.07 810.364,1506.79 810.62,1504.76C810.876,1502.9 811.064,1501.32 811.184,1500.02C811.304,1498.71 811.364,1497.5 811.364,1496.36C811.364,1495.99 811.424,1495.73 811.544,1495.58C811.664,1495.43 811.892,1495.35 812.228,1495.35C812.42,1495.35 812.592,1495.41 812.744,1495.53C812.896,1495.65 812.972,1495.81 812.972,1496C812.972,1496.17 812.892,1496.36 812.732,1496.55C812.732,1497.7 812.644,1499.05 812.468,1500.6C812.292,1502.14 812.076,1503.61 811.82,1505C811.564,1506.36 811.348,1507.82 811.172,1509.38C810.996,1510.94 810.908,1512.31 810.908,1513.5C810.908,1513.75 810.848,1513.95 810.728,1514.11C810.608,1514.26 810.428,1514.34 810.188,1514.34C810.012,1514.34 809.804,1514.01 809.564,1513.35C809.26,1512.44 808.884,1510.62 808.436,1507.9L808.004,1505.1L807.788,1503.54C807.58,1504.99 807.424,1506.16 807.32,1507.05C807.216,1507.94 807.116,1508.99 807.02,1510.21C806.908,1511.38 806.852,1512.53 806.852,1513.66C806.852,1513.82 806.784,1513.98 806.648,1514.12C806.512,1514.26 806.356,1514.34 806.18,1514.34Z" style="fill:rgb(197,92,52);fill-rule:nonzero;"/>
                </g>
            </g>
        </g>
    </g>
</svg>
