<?xml version="1.0" encoding="UTF-8" standalone="no"?>
<!DOCTYPE svg PUBLIC "-//W3C//DTD SVG 1.1//EN" "http://www.w3.org/Graphics/SVG/1.1/DTD/svg11.dtd">
<svg width="100%" height="100%" viewBox="0 0 660 94" version="1.1" xmlns="http://www.w3.org/2000/svg" xmlns:xlink="http://www.w3.org/1999/xlink" xml:space="preserve" xmlns:serif="http://www.serif.com/" style="fill-rule:evenodd;clip-rule:evenodd;stroke-linejoin:round;stroke-miterlimit:2;">
    <g transform="matrix(1,0,0,1,-232.532,-258.083)">
        <g transform="matrix(-0.793929,0,0,0.793929,920.724,32.9733)">
            <path d="M140.023,304.214C139.851,304.389 139.636,304.527 139.386,304.607C138.559,304.875 137.671,304.421 137.403,303.594C137.27,303.184 137.286,302.762 137.499,302.333C137.636,302.057 138.07,301.522 139.061,301.201C143.252,299.843 167.026,297.43 194.155,295.071C260.734,289.281 452.478,289.976 579.653,295.369C633.04,297.633 776.667,293.033 828.916,304.812C853.154,310.276 868.488,329.744 866.672,348.301C865.459,360.699 856.657,372.852 837.503,380.197C806.589,392.052 775.482,395.335 722.808,399.325C674.075,403.017 384.554,399.985 334.593,398.558C265.257,396.577 209.888,397.091 140.498,398.507C120.196,398.921 84.204,397.973 64.415,393.088C46.259,388.607 37.385,377.799 36.013,365.447C33.988,347.217 48.627,325.197 75.066,314.836C100.71,304.786 116.218,299.907 139.286,295.421C177.728,287.947 221.553,286.211 260.628,283.542C261.495,283.483 262.247,284.139 262.306,285.006C262.365,285.873 261.71,286.625 260.843,286.684C221.892,289.344 178.206,291.062 139.887,298.512C117.015,302.96 101.641,307.803 76.215,317.767C51.349,327.512 37.238,347.955 39.143,365.1C40.39,376.332 48.659,385.956 65.17,390.031C84.745,394.863 120.351,395.768 140.434,395.359C209.878,393.941 265.292,393.427 334.683,395.41C384.602,396.836 673.879,399.874 722.57,396.185C774.831,392.226 805.704,389.019 836.376,377.257C854.068,370.472 862.418,359.447 863.538,347.994C865.223,330.775 850.715,312.954 828.224,307.884C776.092,296.131 632.787,300.774 579.519,298.515C452.478,293.127 260.937,292.424 194.427,298.208C170.538,300.285 149.272,302.375 141.925,303.76C141.135,303.909 140.365,304.117 140.023,304.214ZM140.467,302.939L140.468,302.953L140.467,302.939ZM140.459,302.877L140.465,302.927L140.456,302.861L140.459,302.877ZM140.448,302.814L140.455,302.854L140.442,302.786L140.448,302.814ZM140.434,302.751L140.44,302.775L140.425,302.712L140.434,302.751ZM140.421,302.698L140.399,302.625C140.407,302.649 140.414,302.673 140.421,302.698Z" style="fill:rgb(0,89,166);"/>
        </g>
    </g>
</svg>
