<?xml version="1.0" encoding="UTF-8" standalone="no"?>
<!DOCTYPE svg PUBLIC "-//W3C//DTD SVG 1.1//EN" "http://www.w3.org/Graphics/SVG/1.1/DTD/svg11.dtd">
<svg width="100%" height="100%" viewBox="0 0 143 143" version="1.1" xmlns="http://www.w3.org/2000/svg" xmlns:xlink="http://www.w3.org/1999/xlink" xml:space="preserve" xmlns:serif="http://www.serif.com/" style="fill-rule:evenodd;clip-rule:evenodd;stroke-linejoin:round;stroke-miterlimit:2;">
    <g transform="matrix(1,0,0,1,-1120.72,-428.03)">
        <g transform="matrix(0.462555,0,0,0.462555,-368.294,-153.661)">
            <path d="M3522.85,1306.21C3522.85,1282.33 3503.49,1262.97 3479.61,1262.97L3267.74,1262.97C3243.86,1262.97 3224.51,1282.33 3224.51,1306.21L3224.51,1518.07C3224.51,1541.95 3243.86,1561.31 3267.74,1561.31L3479.61,1561.31C3503.49,1561.31 3522.85,1541.95 3522.85,1518.07L3522.85,1306.21Z" style="fill:rgb(134,162,113);"/>
        </g>
        <g transform="matrix(0.462555,0,0,0.462555,-368.294,-153.661)">
            <path d="M3528.25,1306.21C3528.25,1279.34 3506.47,1257.56 3479.61,1257.56C3423.01,1257.56 3324.35,1257.56 3267.74,1257.56C3240.88,1257.56 3219.1,1279.34 3219.1,1306.21C3219.1,1362.81 3219.1,1461.47 3219.1,1518.07C3219.1,1544.94 3240.88,1566.72 3267.74,1566.72C3324.35,1566.72 3423.01,1566.72 3479.61,1566.72C3506.47,1566.72 3528.25,1544.94 3528.25,1518.07L3528.25,1306.21ZM3517.44,1306.21L3517.44,1518.07C3517.44,1538.97 3500.51,1555.91 3479.61,1555.91C3479.61,1555.91 3267.74,1555.91 3267.74,1555.91C3246.85,1555.91 3229.91,1538.97 3229.91,1518.07C3229.91,1518.07 3229.91,1306.21 3229.91,1306.21C3229.91,1285.31 3246.85,1268.37 3267.74,1268.37C3267.74,1268.37 3479.61,1268.37 3479.61,1268.37C3500.51,1268.37 3517.44,1285.31 3517.44,1306.21Z" style="fill:rgb(135,165,110);"/>
        </g>
        <g transform="matrix(2.08932,0,0,1.88874,-647.954,-388.053)">
            <path d="M861.923,469.641C861.492,468.936 858.739,470.704 859.072,471.521C859.389,472.301 859.879,473.606 860.187,474.377C861.107,476.678 861.774,478.66 862.752,480.942C863.946,483.727 864.363,484.447 865.826,487.312C866.802,489.221 870.35,496.786 871.58,499.246C872.727,501.54 872.79,502.741 875.473,503.042C876.402,503.146 877.003,503.232 877.324,503.207C878.508,503.115 877.821,501.297 877.936,500.383C878.241,497.938 878.518,495.436 879.247,493.048C880.845,487.813 882.666,483.119 884.513,478.402C886.255,473.955 887.014,470.123 888.637,466.066C889.427,464.092 890.62,461.085 891.471,459.152C894.044,453.307 895.608,450.235 899.004,444.292C900.245,442.121 900.593,441.059 901.959,439.107C902.304,438.613 902.772,438.485 902.165,437.78C901.62,437.147 901.174,436.313 899.441,436.812C896.984,437.52 895.823,441.343 894.34,443.961C893.795,444.923 892.236,448.324 891.746,449.305C890.949,450.9 889.808,453.403 889.06,455.053C886.955,459.692 886.751,459.788 884.866,464.5C882.525,470.352 879.95,479.604 878.641,484.373C877.677,487.882 877.112,489.732 875.972,493.032C875.506,494.381 875.398,495.417 875.007,496.751C874.763,497.583 873.294,495.286 872.597,493.928C871.447,491.689 868.928,485.133 868.312,483.591C867.544,481.672 866.716,478.83 865.895,476.894C864.305,473.144 863.46,472.155 861.923,469.641Z" style="fill:white;"/>
        </g>
    </g>
</svg>
