<?xml version="1.0" encoding="UTF-8" standalone="no"?>
<!DOCTYPE svg PUBLIC "-//W3C//DTD SVG 1.1//EN" "http://www.w3.org/Graphics/SVG/1.1/DTD/svg11.dtd">
<svg width="100%" height="100%" viewBox="0 0 143 143" version="1.1" xmlns="http://www.w3.org/2000/svg" xmlns:xlink="http://www.w3.org/1999/xlink" xml:space="preserve" xmlns:serif="http://www.serif.com/" style="fill-rule:evenodd;clip-rule:evenodd;stroke-linejoin:round;stroke-miterlimit:2;">
    <g transform="matrix(1,0,0,1,-1120.72,-428.03)">
        <g transform="matrix(0.462555,0,0,0.462555,-368.294,-153.661)">
            <path d="M3522.85,1306.21C3522.85,1282.33 3503.49,1262.97 3479.61,1262.97L3267.74,1262.97C3243.86,1262.97 3224.51,1282.33 3224.51,1306.21L3224.51,1518.07C3224.51,1541.95 3243.86,1561.31 3267.74,1561.31L3479.61,1561.31C3503.49,1561.31 3522.85,1541.95 3522.85,1518.07L3522.85,1306.21Z" style="fill:rgb(134,162,113);"/>
        </g>
        <g transform="matrix(0.462555,0,0,0.462555,-368.294,-153.661)">
            <path d="M3528.25,1306.21C3528.25,1279.34 3506.47,1257.56 3479.61,1257.56C3423.01,1257.56 3324.35,1257.56 3267.74,1257.56C3240.88,1257.56 3219.1,1279.34 3219.1,1306.21C3219.1,1362.81 3219.1,1461.47 3219.1,1518.07C3219.1,1544.94 3240.88,1566.72 3267.74,1566.72C3324.35,1566.72 3423.01,1566.72 3479.61,1566.72C3506.47,1566.72 3528.25,1544.94 3528.25,1518.07L3528.25,1306.21ZM3517.44,1306.21L3517.44,1518.07C3517.44,1538.97 3500.51,1555.91 3479.61,1555.91C3479.61,1555.91 3267.74,1555.91 3267.74,1555.91C3246.85,1555.91 3229.91,1538.97 3229.91,1518.07C3229.91,1518.07 3229.91,1306.21 3229.91,1306.21C3229.91,1285.31 3246.85,1268.37 3267.74,1268.37C3267.74,1268.37 3479.61,1268.37 3479.61,1268.37C3500.51,1268.37 3517.44,1285.31 3517.44,1306.21Z" style="fill:rgb(135,165,110);"/>
        </g>
    </g>
</svg>
