<?xml version="1.0" encoding="UTF-8" standalone="no"?>
<!DOCTYPE svg PUBLIC "-//W3C//DTD SVG 1.1//EN" "http://www.w3.org/Graphics/SVG/1.1/DTD/svg11.dtd">
<svg width="100%" height="100%" viewBox="0 0 660 17" version="1.1" xmlns="http://www.w3.org/2000/svg" xmlns:xlink="http://www.w3.org/1999/xlink" xml:space="preserve" xmlns:serif="http://www.serif.com/" style="fill-rule:evenodd;clip-rule:evenodd;stroke-linejoin:round;stroke-miterlimit:2;">
    <g transform="matrix(1,0,0,1,-232.531,-192.99)">
        <g transform="matrix(0.793929,0,0,0.793929,196.542,-69.7376)">
            <path d="M47.411,350.333C56.744,347.163 67.224,347.493 76.487,348.539C86.069,349.621 94.395,351.454 99.015,351.262C153.563,348.989 208.286,348.852 262.883,348.852C386.797,348.852 511.26,327.699 635.648,335.991C718.971,341.546 792.655,350.417 874.749,350.417C875.618,350.417 876.324,349.711 876.324,348.842C876.324,347.973 875.618,347.268 874.749,347.268C792.727,347.268 719.108,338.4 635.858,332.85C511.4,324.552 386.867,345.704 262.883,345.704C208.242,345.704 153.476,345.841 98.884,348.116C94.362,348.304 86.218,346.469 76.84,345.41C67.141,344.315 56.17,344.032 46.398,347.352C45.576,347.631 45.134,348.526 45.414,349.349C45.694,350.172 46.588,350.613 47.411,350.333Z" style="fill:rgb(0,89,166);"/>
        </g>
    </g>
</svg>
