<?xml version="1.0" encoding="UTF-8" standalone="no"?>
<!DOCTYPE svg PUBLIC "-//W3C//DTD SVG 1.1//EN" "http://www.w3.org/Graphics/SVG/1.1/DTD/svg11.dtd">
<svg width="100%" height="100%" viewBox="0 0 636 670" version="1.1" xmlns="http://www.w3.org/2000/svg" xmlns:xlink="http://www.w3.org/1999/xlink" xml:space="preserve" xmlns:serif="http://www.serif.com/" style="fill-rule:evenodd;clip-rule:evenodd;stroke-linejoin:round;stroke-miterlimit:2;">
    <g transform="matrix(1,0,0,1,-255.888,-224.454)">
        <g id="Ebene13" transform="matrix(0.793929,0,0,0.793929,196.542,-69.7376)">
            <g transform="matrix(1.79428,0,0,0.460817,-86.1248,900.78)">
                <rect x="90.135" y="402.77" width="445.862" height="10.827" style="fill:rgb(135,165,110);"/>
            </g>
            <g transform="matrix(1.79428,0,0,0.460817,-86.1248,1023.26)">
                <rect x="90.135" y="402.77" width="445.862" height="10.827" style="fill:rgb(135,165,110);"/>
            </g>
            <g transform="matrix(1.79428,0,0,0.460817,-86.1248,788.406)">
                <rect x="90.135" y="402.77" width="445.862" height="10.827" style="fill:rgb(135,165,110);"/>
            </g>
            <g id="Ebene12">
            </g>
            <g transform="matrix(1.79428,0,0,0.460817,-86.1248,665.563)">
                <rect x="90.135" y="402.77" width="445.862" height="10.827" style="fill:rgb(135,165,110);"/>
            </g>
            <g transform="matrix(1.79428,0,0,0.460817,-86.1248,542.719)">
                <rect x="90.135" y="402.77" width="445.862" height="10.827" style="fill:rgb(135,165,110);"/>
            </g>
            <g id="Ebene121" serif:id="Ebene12">
            </g>
            <g transform="matrix(1.79428,0,0,0.460817,-86.9775,420.165)">
                <rect x="90.135" y="402.77" width="445.862" height="10.827" style="fill:rgb(135,165,110);"/>
            </g>
            <g transform="matrix(1.79428,0,0,0.460817,-86.9775,307.791)">
                <rect x="90.135" y="402.77" width="445.862" height="10.827" style="fill:rgb(135,165,110);"/>
            </g>
            <g transform="matrix(1.79428,0,0,0.460817,-86.9775,184.948)">
                <rect x="90.135" y="402.77" width="445.862" height="10.827" style="fill:rgb(135,165,110);"/>
            </g>
        </g>
    </g>
</svg>
