<?xml version="1.0" encoding="UTF-8" standalone="no"?>
<!DOCTYPE svg PUBLIC "-//W3C//DTD SVG 1.1//EN" "http://www.w3.org/Graphics/SVG/1.1/DTD/svg11.dtd">
<svg width="100%" height="100%" viewBox="0 0 744 812" version="1.1" xmlns="http://www.w3.org/2000/svg" xmlns:xlink="http://www.w3.org/1999/xlink" xml:space="preserve" xmlns:serif="http://www.serif.com/" style="fill-rule:evenodd;clip-rule:evenodd;stroke-linejoin:round;stroke-miterlimit:2;">
    <g transform="matrix(1,0,0,1,-985.716,-134.168)">
        <g transform="matrix(1.17702,0,0,0.365856,907.615,53.1192)">
            <rect x="90.135" y="402.77" width="445.862" height="10.827" style="fill:rgb(135,165,110);"/>
        </g>
        <g transform="matrix(1.07487,0,0,1.24431,-214.377,-347.176)">
            <path d="M1805.13,405.806C1805.15,401.203 1803,397.03 1799.52,394.001C1796.04,390.964 1791.2,389.08 1785.86,389.062C1748.69,388.941 1660.11,388.588 1559.27,388.327C1527.7,388.245 1494.93,388.131 1462.16,388.14C1429.39,388.149 1396.62,388.291 1365.05,388.379C1264.21,388.662 1175.63,388.976 1138.46,389.093C1133.13,389.11 1128.3,390.989 1124.82,394.02C1121.34,397.043 1119.2,401.21 1119.22,405.806C1119.27,423.147 1119.43,453.499 1119.46,491.816C1119.47,503.419 1119.45,515.753 1119.43,528.678C1119.38,553.098 1119.3,579.625 1119.22,607.315C1118.89,712.698 1118.38,834.915 1118.13,921.866C1118.07,944.129 1118.02,964.08 1118.01,980.844C1117.99,997.294 1118.02,1010.68 1118.03,1020.16C1118.03,1025.04 1120.32,1029.44 1124.03,1032.63C1127.72,1035.82 1132.83,1037.78 1138.46,1037.77C1194.97,1037.65 1370.31,1037.17 1526.9,1036.92C1540.89,1036.9 1554.74,1036.87 1568.33,1036.88C1589.8,1036.89 1610.64,1036.96 1630.48,1037.01C1700.36,1037.18 1757.78,1037.39 1785.86,1037.47C1791.4,1037.49 1796.42,1035.56 1800.06,1032.43C1803.71,1029.3 1805.98,1024.96 1806,1020.16C1806.06,1002.18 1806.27,970.199 1806.3,929.853C1806.31,917.663 1806.27,904.71 1806.24,891.148C1805.99,802.361 1805.21,687.499 1805.1,590.113C1804.99,506.78 1805.31,436.247 1805.35,405.806L1805.13,405.806ZM1803.58,405.806C1803.62,436.247 1803.94,506.78 1803.84,590.113C1803.72,687.499 1802.94,802.361 1802.7,891.148C1802.66,904.709 1802.62,917.663 1802.63,929.852C1802.66,970.198 1802.87,1002.18 1802.93,1020.16C1802.95,1024.24 1801.05,1027.94 1797.97,1030.62C1794.88,1033.32 1790.6,1034.99 1785.86,1035C1757.78,1035.09 1700.36,1035.29 1630.48,1035.46C1610.64,1035.52 1589.8,1035.58 1568.33,1035.6C1554.74,1035.6 1540.89,1035.58 1526.9,1035.55C1370.31,1035.3 1194.97,1034.82 1138.46,1034.7C1133.82,1034.69 1129.62,1033.06 1126.58,1030.42C1123.55,1027.8 1121.68,1024.17 1121.68,1020.16C1121.69,1010.68 1121.72,997.294 1121.7,980.844C1121.69,964.08 1121.64,944.129 1121.58,921.866C1121.33,834.915 1120.82,712.698 1120.49,607.315C1120.41,579.625 1120.33,553.098 1120.28,528.678C1120.26,515.754 1120.24,503.42 1120.25,491.816C1120.28,453.499 1120.44,423.147 1120.49,405.806C1120.51,401.526 1122.53,397.656 1125.79,394.861C1129.04,392.074 1133.52,390.358 1138.46,390.373C1175.63,390.49 1264.21,390.804 1365.05,391.087C1396.62,391.175 1429.39,391.317 1462.16,391.326C1494.93,391.335 1527.7,391.221 1559.27,391.139C1660.11,390.878 1748.69,390.525 1785.86,390.404C1790.79,390.387 1795.26,392.1 1798.51,394.88C1801.76,397.67 1803.78,401.532 1803.8,405.806L1803.58,405.806Z" style="fill:rgb(135,165,110);"/>
        </g>
    </g>
</svg>
