<?xml version="1.0" encoding="UTF-8" standalone="no"?>
<!DOCTYPE svg PUBLIC "-//W3C//DTD SVG 1.1//EN" "http://www.w3.org/Graphics/SVG/1.1/DTD/svg11.dtd">
<svg width="100%" height="100%" viewBox="0 0 143 143" version="1.1" xmlns="http://www.w3.org/2000/svg" xmlns:xlink="http://www.w3.org/1999/xlink" xml:space="preserve" xmlns:serif="http://www.serif.com/" style="fill-rule:evenodd;clip-rule:evenodd;stroke-linejoin:round;stroke-miterlimit:2;">
    <g transform="matrix(1,0,0,1,-936.235,-428.03)">
        <g transform="matrix(0.462555,0,0,0.462555,-552.775,-153.661)">
            <path d="M3522.85,1306.21C3522.85,1282.33 3503.49,1262.97 3479.61,1262.97L3267.74,1262.97C3243.86,1262.97 3224.51,1282.33 3224.51,1306.21L3224.51,1518.07C3224.51,1541.95 3243.86,1561.31 3267.74,1561.31L3479.61,1561.31C3503.49,1561.31 3522.85,1541.95 3522.85,1518.07L3522.85,1306.21Z" style="fill:rgb(134,162,113);"/>
        </g>
        <g transform="matrix(0.462555,0,0,0.462555,-552.775,-153.661)">
            <path d="M3528.25,1306.21C3528.25,1279.34 3506.47,1257.56 3479.61,1257.56C3423.01,1257.56 3324.35,1257.56 3267.74,1257.56C3240.88,1257.56 3219.1,1279.34 3219.1,1306.21C3219.1,1362.81 3219.1,1461.47 3219.1,1518.07C3219.1,1544.94 3240.88,1566.72 3267.74,1566.72C3324.35,1566.72 3423.01,1566.72 3479.61,1566.72C3506.47,1566.72 3528.25,1544.94 3528.25,1518.07L3528.25,1306.21ZM3517.44,1306.21L3517.44,1518.07C3517.44,1538.97 3500.51,1555.91 3479.61,1555.91C3479.61,1555.91 3267.74,1555.91 3267.74,1555.91C3246.85,1555.91 3229.91,1538.97 3229.91,1518.07C3229.91,1518.07 3229.91,1306.21 3229.91,1306.21C3229.91,1285.31 3246.85,1268.37 3267.74,1268.37C3267.74,1268.37 3479.61,1268.37 3479.61,1268.37C3500.51,1268.37 3517.44,1285.31 3517.44,1306.21Z" style="fill:rgb(135,165,110);"/>
        </g>
        <g transform="matrix(0.737679,0,0,0.737679,261.783,204.578)">
            <path d="M1012.53,445.144C1011.18,445.144 1009.9,443.459 1008.69,440.088C1007.47,436.582 1006.87,431.39 1006.87,424.514C1006.87,422.087 1007,417.502 1007.27,410.76C1007.54,405.771 1007.68,400.243 1007.68,394.175L1006.87,327.834C1006.87,325.676 1007.74,323.822 1009.5,322.272C1011.25,320.721 1013.2,319.946 1015.36,319.946C1016.71,319.946 1017.86,320.418 1018.8,321.362C1019.74,322.305 1020.22,323.519 1020.22,325.002C1020.22,336.868 1019.54,352.981 1018.19,373.342C1016.71,395.86 1015.97,411.974 1015.97,421.682C1015.97,428.828 1015.87,433.986 1015.67,437.155C1015.46,440.324 1015.12,442.447 1014.65,443.526C1014.18,444.605 1013.47,445.144 1012.53,445.144ZM1008.89,479.73C1007.27,479.73 1005.75,478.989 1004.34,477.505C1002.92,476.022 1002.21,474.202 1002.21,472.044C1002.21,469.617 1003.02,467.494 1004.64,465.673C1006.26,463.853 1008.22,462.943 1010.51,462.943C1012.93,462.943 1014.92,463.853 1016.47,465.673C1018.02,467.494 1018.8,469.82 1018.8,472.651C1018.8,477.371 1015.5,479.73 1008.89,479.73Z" style="fill:white;fill-rule:nonzero;"/>
        </g>
    </g>
</svg>
