<?xml version="1.0" encoding="UTF-8"?>
<svg id="Ebene_2" data-name="Ebene 2" xmlns="http://www.w3.org/2000/svg" viewBox="0 0 183.2 183.2">
  <defs>
    <style>
      .cls-1 {
        fill: #fcef9b;
      }

      .cls-1, .cls-2 {
        fill-rule: evenodd;
      }

      .cls-2 {
        fill: rgba(77, 127, 33, .5);
      }
    </style>
  </defs>
  <g id="Ebene_1-2" data-name="Ebene 1">
    <g id="Ebene9">
      <g id="Ebene8">
        <path class="cls-2" d="m66.45,15.55c4.76-9.53,14.5-15.55,25.16-15.55s20.39,6.02,25.16,15.55c19.27,38.54,45.52,91.04,63.48,126.95,4.36,8.72,3.89,19.08-1.23,27.36-5.12,8.29-14.18,13.34-23.92,13.34H28.13c-9.75,0-18.8-5.05-23.92-13.34-5.12-8.29-5.59-18.64-1.23-27.36C20.93,106.58,47.18,54.09,66.45,15.55Z"/>
        <g id="Ebene34">
          <path class="cls-1" d="m76.75,117.32c-3.11-1.27,2.08-13.28,4.63-21.89,3.57-12.03,9.43-28.92,14.48-42.36,3.22-8.6,14.48-12.71,25.63-7.2,8.66,4.28,16.38,15.35,11.13,26.03-7.38,15.03-12.62,25.22-20.01,38.37-4.07,7.24-9.66,20.39-12.89,18.65-1.14-.61-16.76-9.07-22.97-11.6Z"/>
          <path class="cls-1" d="m21.47,153.48c-5.88,1.07-10.88-9.7-3.35-13.79,7.82-4.25,13.3-7.77,21.29-9.28,10.17-1.92,19.14-1.85,31.76,1.78,12.36,3.55,21.97,8.65,30.67,18.07,6.19,6.7,11.58,13.38,12.65,21.21.77,5.57-6.48,11.22-11.79,3.15-2.02-3.07-4.78-6.74-9.54-11.81-6.98-7.42-18.67-13.86-25.54-16.19-6.74-2.29-18.87-2.46-25.86-1.21-6.38,1.14-13.67,6.86-20.27,8.07Z"/>
          <path class="cls-1" d="m82.32,115.15c-1.8,4.45-8.75,20.75-8.75,20.75l14.64,7.83,8.74-21.24s-18.95-9.51-14.63-7.34Z"/>
          <path class="cls-1" d="m16.07,178.32c-4.52-.03.78-4.61,3.85-6.7,4.66-3.18,7.85-5.19,13.87-7.35,3.93-1.41,10.67-3.8,17.91-3.62,6.04.15,14.43,1.33,19.18,3.12,4.86,1.83,13.19,6.31,17.04,10.2,4.34,4.39,3.28,4.76-4.57,4.66-16.23-.2-28.79-.17-44.8-.11-8.31.03-16.74-.18-22.47-.21Z"/>
        </g>
      </g>
    </g>
  </g>
</svg>