<?xml version="1.0" encoding="UTF-8"?>
<svg id="Ebene_2" data-name="Ebene 2" xmlns="http://www.w3.org/2000/svg" viewBox="0 0 43.67 131.91">
  <defs>
    <style>
      .cls-1 {
        fill: #efe5b0;
      }

      .cls-2 {
        fill: #a49358;
        fill-rule: evenodd;
      }
    </style>
  </defs>
  <g id="Ebene_1-2" data-name="Ebene 1">
    <g id="Ebene9">
      <g id="Ebene28">
        <rect class="cls-1" x="12.43" width="16.06" height="131.91"/>
        <path class="cls-2" d="m21.84,51.69c-5.12-7.11-13.73-6.65-18.2-2.43-4.66,4.41-4.94,13.22-.28,22.04,3.11,6.28,11.06,12.62,17.72,16.82.46.29,1.04.29,1.5,0,6.67-4.2,14.63-10.55,17.74-16.85,4.65-8.8,4.37-17.6-.29-22.01-4.47-4.22-13.07-4.68-18.2,2.43h0Zm-1.24,3.33c.24.46.72.75,1.24.75s1-.29,1.24-.75c3.76-7.12,11.26-7.27,15.02-3.71h0c1.5,1.42,2.37,3.41,2.67,5.74.49,3.77-.52,8.35-2.95,12.94,0,.01-.01.02-.02.03-2.8,5.68-9.87,11.31-15.97,15.24-6.1-3.93-13.17-9.56-15.97-15.24,0-.01-.01-.02-.02-.03-2.43-4.59-3.44-9.18-2.95-12.94.3-2.32,1.17-4.32,2.67-5.74,3.76-3.56,11.26-3.41,15.02,3.71Z"/>
      </g>
    </g>
  </g>
</svg>