<?xml version="1.0" encoding="UTF-8"?>
<svg id="Ebene_2" data-name="Ebene 2" xmlns="http://www.w3.org/2000/svg" viewBox="0 0 114.78 41.46">
  <defs>
    <style>
      .cls-1 {
        fill: #efe5b0;
      }

      .cls-2 {
        fill: #a49358;
        fill-rule: evenodd;
      }
    </style>
  </defs>
  <g id="Ebene_1-2" data-name="Ebene 1">
    <g id="Ebene9">
      <g id="Ebene281">
        <rect class="cls-1" y="11.28" width="114.78" height="16.06"/>
        <path class="cls-2" d="m51.48,2.16c-3.1,2.36-6.94,5.28-9.97,7.58-3.52,2.68-4.99,7.25-3.68,11.47,1.2,3.88,2.76,8.9,3.99,12.85,1.37,4.4,5.46,7.41,10.09,7.41h11.96c4.63,0,8.72-3.01,10.09-7.41,1.22-3.94,2.78-8.97,3.99-12.85,1.31-4.21-.16-8.79-3.68-11.47-3.02-2.3-6.86-5.22-9.97-7.58-3.78-2.88-9.03-2.88-12.82,0Zm1.7,2.24c2.78-2.11,6.64-2.11,9.41,0,3.1,2.36,6.94,5.28,9.97,7.58,2.58,1.96,3.66,5.31,2.7,8.39-1.2,3.88-2.76,8.9-3.99,12.84-1,3.23-4.01,5.43-7.41,5.43h-11.96c-3.4,0-6.4-2.2-7.41-5.43-1.23-3.94-2.79-8.97-3.99-12.84-.96-3.08.12-6.43,2.7-8.39,3.02-2.3,6.86-5.22,9.97-7.58Z"/>
      </g>
    </g>
  </g>
</svg>