<?xml version="1.0" encoding="UTF-8"?>
<svg id="Ebene_2" data-name="Ebene 2" xmlns="http://www.w3.org/2000/svg" viewBox="0 0 117.94 43.53">
  <defs>
    <style>
      .cls-1 {
        fill: #efe5b0;
      }

      .cls-2 {
        fill: #a49358;
        fill-rule: evenodd;
      }
    </style>
  </defs>
  <g id="Ebene_1-2" data-name="Ebene 1">
    <g id="Ebene9">
      <g id="Ebene30">
        <rect class="cls-1" y="13.69" width="117.94" height="16.06"/>
        <path class="cls-2" d="m59.75,0c-12.07,0-21.87,9.75-21.87,21.76s9.8,21.76,21.87,21.76,21.87-9.75,21.87-21.76S71.82,0,59.75,0Zm0,2.81c10.51,0,19.05,8.49,19.05,18.95s-8.54,18.95-19.05,18.95-19.05-8.49-19.05-18.95S49.24,2.81,59.75,2.81Zm0,7.37c-6.42,0-11.64,5.19-11.64,11.59s5.21,11.59,11.64,11.59,11.64-5.19,11.64-11.59-5.21-11.59-11.64-11.59Zm0,2.81c4.87,0,8.82,3.93,8.82,8.77s-3.96,8.77-8.82,8.77-8.82-3.93-8.82-8.77,3.96-8.77,8.82-8.77Z"/>
      </g>
    </g>
  </g>
</svg>