<?xml version="1.0" encoding="UTF-8"?>
<svg id="Ebene_2" data-name="Ebene 2" xmlns="http://www.w3.org/2000/svg" viewBox="0 0 45.84 44.45">
  <defs>
    <style>
      .cls-1 {
        fill: #1d1d1b;
      }

      .cls-1, .cls-2, .cls-3 {
        fill-rule: evenodd;
      }

      .cls-2 {
        fill: #a49358;
      }
    </style>
  </defs>
  <g id="Ebene_1-2" data-name="Ebene 1">
    <g id="Ebene91">
      <g id="Ebene25">
        <path class="cls-1" d="m25.46,3.9c11.25,0,20.38,9.09,20.38,20.28s-9.13,20.28-20.38,20.28S5.09,35.37,5.09,24.18,14.22,3.9,25.46,3.9Zm0,10.14c5.62,0,10.19,4.54,10.19,10.14s-4.57,10.14-10.19,10.14-10.19-4.54-10.19-10.14,4.57-10.14,10.19-10.14Z"/>
        <path class="cls-2" d="m21.79,1.41c11.25,0,20.38,9.09,20.38,20.28s-9.13,20.28-20.38,20.28S1.41,32.87,1.41,21.68,10.54,1.41,21.79,1.41Zm0,10.14c5.62,0,10.19,4.54,10.19,10.14s-4.57,10.14-10.19,10.14-10.19-4.54-10.19-10.14,4.57-10.14,10.19-10.14Z"/>
        <path class="cls-3" d="m22.46,35.27c-.08-.02-.17-.06-.29-.09-.13-.03-.27-.05-.42-.07-.31-.04-.67-.09-1.05-.11-1-.06-2.1-.05-2.6-.09-1.15-.05-2.88-.07-4.25,0-.47.02-.9.05-1.25.08-.18.02-.36-.01-.47.06-.04.02-.02.04-.05.08-.12-.01-.22.1-.21.25s.12.28.24.3c.03.05.02.06.06.09.13.1.31.08.51.11.36.05.8.09,1.29.1,1.37.04,3.07-.05,4.21,0,.5.01,1.62.04,2.62-.03.37-.03.73-.07,1.03-.12.15-.02.29-.05.41-.08.11-.03.19-.07.27-.1.09,0,.14-.09.13-.2-.02-.11-.1-.19-.18-.19Z"/>
        <path class="cls-3" d="m33.88,36.85s.05.02.07.03c.16.03.26-.13.24-.36,0-.09-.06-.33-.3-.47-.05-.03-.16-.06-.31-.11-.19-.06-.45-.14-.77-.21-.49-.1-1.1-.2-1.74-.25-.32-.03-.65-.03-.98-.03-.5,0-1,.04-1.45.08-.22.02-.44.05-.63.09-.39.08-.7.19-.93.28-.12.02-.18.19-.13.37.05.19.19.32.31.3.27,0,.64.08,1.08.13.49.05,1.04.09,1.62.14.45.03.91.07,1.35.08.48.01.94,0,1.33-.02.55-.02.97-.06,1.17-.05.03,0,.07.02.07,0Zm-.23-.31c.02.07.04.14.1.2-.04-.06-.08-.12-.1-.2Z"/>
        <path class="cls-3" d="m30.19,8.08h0s0-.05,0-.05c.03.08.11.14.2.13.11-.01.19-.11.17-.21.01-.09-.1-.24-.39-.37-.38-.17-1.2-.32-2.18-.44-.17-.02-.36-.04-.54-.05-.35-.03-.72-.05-1.08-.06-.89-.02-1.78,0-2.53.05-.13,0-.25,0-.36.03-.22.05-.37.14-.54.2-.16,0-.28.13-.27.29,0,.16.13.28.29.27.17.06.31.14.52.18.07.01.15.01.22.01.86.03,1.93.09,2.97.11.46,0,.91,0,1.34,0,.86-.02,1.57-.06,1.98-.05.08,0,.17-.03.22-.03Zm0,0s.02,0,.02.02c0,.03-.01.01-.02-.02Z"/>
        <path class="cls-3" d="m18.7,7.12c-.62-.17-1.26-.33-1.92-.45-.96-.18-1.95-.29-2.93-.37-1.19-.09-2.37-.15-3.44-.04-.52.05-1,.16-1.46.26-.22.04-.36.26-.32.49s.25.4.46.36c.45-.05.92-.06,1.42-.09,1.04-.07,2.17-.14,3.33-.11.96.02,1.93.09,2.88.18.65.06,1.3.13,1.92.22.12.02.23-.06.25-.19.02-.13-.06-.25-.18-.27Z"/>
        <path class="cls-1" d="m21.79,0C9.76,0,0,9.72,0,21.68s9.76,21.68,21.79,21.68,21.79-9.72,21.79-21.68S33.81,0,21.79,0Zm0,2.81c10.47,0,18.97,8.45,18.97,18.87s-8.5,18.87-18.97,18.87S2.81,32.1,2.81,21.68,11.32,2.81,21.79,2.81Zm0,7.33c-6.4,0-11.6,5.17-11.6,11.54s5.19,11.54,11.6,11.54,11.6-5.17,11.6-11.54-5.19-11.54-11.6-11.54Zm0,2.81c4.85,0,8.78,3.91,8.78,8.73s-3.94,8.73-8.78,8.73-8.78-3.91-8.78-8.73,3.94-8.73,8.78-8.73Z"/>
      </g>
    </g>
  </g>
</svg>