<?xml version="1.0" encoding="UTF-8"?>
<svg id="Ebene_2" data-name="Ebene 2" xmlns="http://www.w3.org/2000/svg" viewBox="0 0 43.58 43.58">
  <defs>
    <style>
      .cls-1 {
        fill: #8ca767;
        fill-rule: evenodd;
      }
    </style>
  </defs>
  <g id="Ebene_1-2" data-name="Ebene 1">
    <g id="Ebene9">
      <g id="Ebene20">
        <g id="Ebene8">
          <path class="cls-1" d="m14.93,4.24C10.65,12.81,4.81,24.49.81,32.49c-1.19,2.37-1.06,5.2.34,7.46,1.4,2.26,3.86,3.64,6.52,3.64h28.25c2.66,0,5.12-1.38,6.52-3.64,1.4-2.26,1.52-5.08.34-7.46-4-7.99-9.84-19.67-14.12-28.25-1.3-2.6-3.95-4.24-6.86-4.24s-5.56,1.64-6.86,4.24Zm2.52,1.26c.82-1.64,2.5-2.68,4.34-2.68s3.52,1.04,4.34,2.68c4.29,8.58,10.13,20.26,14.12,28.25.75,1.5.67,3.29-.21,4.72-.88,1.43-2.45,2.3-4.13,2.3H7.66c-1.68,0-3.24-.87-4.13-2.3-.88-1.43-.96-3.22-.21-4.72,4-7.99,9.84-19.67,14.12-28.25Z"/>
          <g id="Ebene34">
            <path class="cls-1" d="m18.65,26.86c-.67-.27.45-2.86,1-4.72.77-2.59,2.03-6.23,3.12-9.13.69-1.85,3.12-2.74,5.53-1.55,1.87.92,3.53,3.31,2.4,5.61-1.59,3.24-2.72,5.44-4.31,8.27-.88,1.56-2.08,4.39-2.78,4.02-.25-.13-3.61-1.95-4.95-2.5Z"/>
            <path class="cls-1" d="m6.74,34.66c-1.27.23-2.35-2.09-.72-2.97,1.69-.92,2.87-1.67,4.59-2,2.19-.41,4.13-.4,6.85.38,2.67.77,4.73,1.86,6.61,3.9,1.33,1.45,2.5,2.88,2.73,4.57.17,1.2-1.4,2.42-2.54.68-.44-.66-1.03-1.45-2.06-2.54-1.51-1.6-4.02-2.99-5.51-3.49-1.45-.49-4.07-.53-5.58-.26-1.37.25-2.95,1.48-4.37,1.74Z"/>
            <path class="cls-1" d="m19.85,26.39c-.39.96-1.89,4.47-1.89,4.47l3.16,1.69,1.88-4.58s-4.09-2.05-3.15-1.58Z"/>
            <path class="cls-1" d="m5.57,40.01c-.97,0,.17-.99.83-1.44,1-.69,1.69-1.12,2.99-1.58.85-.3,2.3-.82,3.86-.78,1.3.03,3.11.29,4.13.67,1.05.39,2.84,1.36,3.67,2.2.94.95.71,1.03-.99,1.01-3.5-.04-6.2-.04-9.66-.02-1.79,0-3.61-.04-4.84-.04Z"/>
          </g>
        </g>
      </g>
    </g>
  </g>
</svg>