<?xml version="1.0" encoding="UTF-8"?>
<svg id="Ebene_2" data-name="Ebene 2" xmlns="http://www.w3.org/2000/svg" viewBox="0 0 172.26 172.26">
  <defs>
    <style>
      .cls-1 {
        fill: #fcef9b;
      }

      .cls-1, .cls-2 {
        fill-rule: evenodd;
      }

      .cls-2 {
        fill: rgba(77, 127, 33, .5);
      }
    </style>
  </defs>
  <g id="Ebene_1-2" data-name="Ebene 1">
    <g id="Ebene9">
      <g id="Ebene2">
        <path class="cls-2" d="m172.26,42.19c0-23.3-18.89-42.19-42.19-42.19H42.19C18.89,0,0,18.89,0,42.19v87.88c0,23.3,18.89,42.19,42.19,42.19h87.88c23.3,0,42.19-18.89,42.19-42.19V42.19Z"/>
        <g id="Ebene1">
          <path class="cls-1" d="m60.99,101.8c-2.88,1.74-8.03-10.19-12.47-17.79-6.2-10.62-14.37-26.23-20.64-38.95-4.01-8.14.25-20,11.23-25.62,8.53-4.37,21.23-3.61,25.42,7.51,5.89,15.66,9.74,26.47,14.3,40.94,2.51,7.96,8.22,20.96,4.94,22.49-1.16.54-17.05,7.95-22.79,11.42Z"/>
          <path class="cls-1" d="m57.47,150.05c-4.55,4.08-13.78-2.52-9.22-10.08,4.74-7.85,7.81-13.82,13.96-19.4,7.83-7.11,15.55-11.85,28.03-15.48,12.23-3.57,22.8-4.33,34.59-.87,8.39,2.46,16.08,5.32,20.61,11.49,3.22,4.38-.38,13.14-8.65,9.03-3.14-1.56-7.2-3.24-13.61-5.05-9.4-2.64-22.37-1.93-29.34-.26-6.82,1.64-17.29,7.99-22.71,12.82-4.94,4.4-8.55,13.24-13.65,17.81Z"/>
          <path class="cls-1" d="m63.01,95.84c1.99,4.32,9.05,20.44,9.05,20.44l14.83-7-9.4-20.75s-18.76,9.46-14.48,7.3Z"/>
          <path class="cls-1" d="m73.01,150.96c-4.47-.03.77-4.58,3.81-6.67,4.61-3.16,7.77-5.16,13.73-7.31,3.89-1.4,10.56-3.78,17.72-3.6,5.98.15,14.28,1.33,18.98,3.11,4.81,1.82,13.05,6.28,16.86,10.15,4.29,4.37,3.25,4.74-4.52,4.64-16.06-.2-28.49-.17-44.33-.11-8.23.03-16.56-.17-22.24-.21Z"/>
        </g>
      </g>
    </g>
  </g>
</svg>