<?xml version="1.0" encoding="UTF-8"?>
<svg id="Ebene_2" data-name="Ebene 2" xmlns="http://www.w3.org/2000/svg" viewBox="0 0 189.84 189.84">
  <defs>
    <style>
      .cls-1 {
        fill: #fcef9b;
      }

      .cls-1, .cls-2 {
        fill-rule: evenodd;
      }

      .cls-2 {
        fill: rgba(77, 127, 33, .5);
      }
    </style>
  </defs>
  <g id="Ebene_1-2" data-name="Ebene 1">
    <g id="Ebene9">
      <g id="Ebene6">
        <path class="cls-2" d="m94.92,0c52.39,0,94.92,42.53,94.92,94.92s-42.53,94.92-94.92,94.92S0,147.31,0,94.92,42.53,0,94.92,0Zm0,47.46c26.19,0,47.46,21.27,47.46,47.46s-21.27,47.46-47.46,47.46-47.46-21.27-47.46-47.46,21.27-47.46,47.46-47.46Z"/>
        <g id="Ebene33">
          <path class="cls-1" d="m102.06,103.76c-3.11-1.27,2.08-13.28,4.63-21.89,3.57-12.03,9.43-28.92,14.48-42.36,3.22-8.6,14.48-12.71,25.63-7.2,8.66,4.28,16.38,15.35,11.13,26.03-7.38,15.03-12.62,25.22-20.01,38.37-4.07,7.24-9.66,20.39-12.89,18.65-1.14-.61-16.76-9.07-22.97-11.6Z"/>
          <path class="cls-1" d="m46.78,139.93c-5.88,1.07-10.88-9.7-3.35-13.79,7.82-4.25,13.3-7.77,21.29-9.28,10.17-1.92,19.14-1.85,31.76,1.78,12.36,3.55,21.97,8.65,30.67,18.07,6.19,6.7,11.58,13.38,12.65,21.21.77,5.57-6.48,11.22-11.79,3.15-2.02-3.07-4.78-6.74-9.54-11.81-6.98-7.42-18.67-13.86-25.54-16.19-6.74-2.29-18.87-2.46-25.86-1.21-6.38,1.14-13.67,6.86-20.27,8.07Z"/>
          <path class="cls-1" d="m107.63,101.6c-1.8,4.45-8.75,20.75-8.75,20.75l14.64,7.83,8.74-21.24s-18.95-9.51-14.63-7.34Z"/>
          <path class="cls-1" d="m41.38,164.77c-4.52-.03.78-4.61,3.85-6.7,4.66-3.18,7.85-5.19,13.87-7.35,3.93-1.41,10.67-3.8,17.91-3.62,6.04.15,14.43,1.33,19.18,3.12,4.86,1.83,13.19,6.31,17.04,10.2,4.34,4.39,3.28,4.76-4.57,4.66-16.23-.2-28.79-.17-44.8-.11-8.31.03-16.74-.18-22.47-.21Z"/>
        </g>
      </g>
    </g>
  </g>
</svg>