<?xml version="1.0" encoding="UTF-8" standalone="no"?>
<!DOCTYPE svg PUBLIC "-//W3C//DTD SVG 1.1//EN" "http://www.w3.org/Graphics/SVG/1.1/DTD/svg11.dtd">
<svg width="100%" height="100%" viewBox="0 0 1626 900" version="1.1" xmlns="http://www.w3.org/2000/svg" xmlns:xlink="http://www.w3.org/1999/xlink" xml:space="preserve" xmlns:serif="http://www.serif.com/" style="fill-rule:evenodd;clip-rule:evenodd;stroke-linejoin:round;stroke-miterlimit:2;">
    <g transform="matrix(1,0,0,1,-147.017,-90)">
        <g transform="matrix(1.04456,0,0,1.08375,-101.512,-95.838)">
            <path d="M1794.53,180.704C1794.53,178.256 1793.52,175.909 1791.72,174.179C1789.93,172.449 1787.49,171.476 1784.95,171.476C1660.93,171.476 371.522,171.476 247.499,171.476C244.96,171.476 242.525,172.449 240.729,174.179C238.934,175.909 237.925,178.256 237.925,180.704C237.925,265.49 237.925,907.91 237.925,992.697C237.925,995.144 238.934,997.491 240.729,999.221C242.525,1000.95 244.96,1001.92 247.499,1001.92C371.522,1001.92 1660.93,1001.92 1784.95,1001.92C1787.49,1001.92 1789.93,1000.95 1791.72,999.221C1793.52,997.491 1794.53,995.144 1794.53,992.697C1794.53,907.91 1794.53,265.49 1794.53,180.704Z" style="fill:rgb(241,233,214);"/>
        </g>
    </g>
</svg>
