<?xml version="1.0" encoding="UTF-8" standalone="no"?>
<!DOCTYPE svg PUBLIC "-//W3C//DTD SVG 1.1//EN" "http://www.w3.org/Graphics/SVG/1.1/DTD/svg11.dtd">
<svg width="100%" height="100%" viewBox="0 0 281 73" version="1.1" xmlns="http://www.w3.org/2000/svg" xmlns:xlink="http://www.w3.org/1999/xlink" xml:space="preserve" xmlns:serif="http://www.serif.com/" style="fill-rule:evenodd;clip-rule:evenodd;stroke-linejoin:round;stroke-miterlimit:2;">
    <g transform="matrix(1,0,0,1,-1277.64,-847.42)">
        <g id="Ebene15">
            <g id="Ebene13" transform="matrix(1.14977,0,0,1,-65.612,82.2699)">
                <g transform="matrix(-0.227971,-3.08149e-33,6.16298e-33,-0.227971,1965.96,1760.72)">
                    <path d="M2440.37,4090.87C2440.21,4098.98 2454.51,4117.97 2452.01,4136.62C2449.91,4152.31 2434.55,4154.04 2434.47,4195.55C2434.4,4227.83 2444.39,4273.46 2444.39,4286.62C2444.39,4295.83 2429.33,4342.16 2441.22,4340.38C2460.06,4337.56 2510.11,4333.71 2530.08,4329.72C2575.9,4320.55 2610.74,4323.43 2669.45,4336.57C2705.28,4344.58 2722.43,4343.43 2757.22,4343.11C2787.37,4342.82 2860.81,4340.25 2882.02,4337.02C2922.05,4330.92 2963.11,4324.6 3003.74,4323.6C3046.41,4322.55 3088.65,4327.09 3130.47,4332.01C3184.18,4338.32 3242.44,4350.05 3296.66,4353.06C3340.75,4355.51 3393.2,4362.57 3437.95,4361.52C3455.39,4361.11 3486.46,4357.61 3493.33,4337C3495.22,4331.32 3493.79,4320.82 3493.51,4306.24C3493.29,4294.87 3487.02,4242.8 3487.27,4223.99C3487.49,4207.72 3493.47,4179.73 3493.51,4172.8C3493.68,4146.92 3492.54,4129.55 3491.49,4101.08C3491.14,4091.56 3488.61,4072.47 3471,4063.8C3464.42,4060.56 3451.75,4056.95 3437.58,4055.83C3423,4054.68 3403.49,4051.1 3403.07,4058.19C3402.69,4064.47 3400.91,4093.03 3400.91,4093.03C3400.91,4093.03 3383.46,4083.54 3370.26,4079.86C3329.36,4068.46 3309.19,4072.92 3275.81,4072.92C3260.85,4072.92 3215.99,4078.45 3215.86,4083.57C3215.6,4093.8 3199.24,4088.26 3194.58,4087.86C3184.34,4086.98 3175.65,4082.41 3170.99,4079.93C3142.91,4064.97 3110.14,4070.07 3080.4,4067.82C3050.28,4065.55 2998.5,4060.91 2989.16,4061.22C2980.9,4061.49 2929.62,4061.38 2916.36,4061.38C2888.4,4061.38 2860.72,4062.43 2833.23,4064.4C2793.17,4067.26 2740.63,4075.93 2700.37,4076.72C2679.36,4077.14 2597.93,4076.36 2563.14,4074.71C2529.31,4073.11 2487.64,4073.64 2454.59,4069.09C2439.09,4066.95 2440.78,4069.36 2440.37,4090.87Z" style="fill:rgb(253,201,104);"/>
                </g>
                <g transform="matrix(-0.227971,-3.08149e-33,6.16298e-33,-0.227971,1965.96,1760.72)">
                    <path d="M2571.1,4082.06C2588.95,4082.38 2647.76,4082.65 2645.49,4084.07C2636.6,4089.63 2625.2,4093.5 2615.76,4100.13C2605.2,4107.55 2589.43,4118.55 2580.69,4127.91C2573.28,4135.85 2566.51,4143.15 2562.53,4153.49C2557.82,4165.74 2558.72,4175.56 2564.08,4186.97C2566.41,4191.93 2574,4205.37 2576.4,4210.34C2583.13,4224.28 2584.93,4232.69 2596.96,4240.42C2602.08,4243.72 2606.87,4247.5 2612.18,4250.49C2618.81,4254.22 2644.31,4271.41 2649.75,4277.25C2661.05,4289.4 2678.37,4305.34 2676.76,4322.43C2676.36,4326.6 2665.87,4328.24 2663.42,4327.69C2660.52,4327.05 2634.22,4322.34 2626.16,4322.45C2623.1,4322.48 2600.99,4322.33 2595.07,4322.64C2590.5,4322.88 2562.16,4322.46 2557.61,4323.22C2523.61,4328.89 2513.24,4332.62 2488.36,4334.67C2476.24,4335.67 2466.9,4337.29 2453.88,4337.97C2439.83,4338.69 2439.36,4334.48 2439.27,4327.56C2439.17,4318.82 2439.51,4305.91 2439.51,4297.05C2439.51,4279.38 2439.53,4250.22 2439.42,4246.07C2438.97,4227.58 2439,4212.8 2439.27,4194.92C2439.51,4179.79 2440.21,4168.68 2440.76,4153.86C2440.94,4148.94 2444.63,4144.6 2449.29,4151.12C2456.26,4160.88 2457.3,4165.49 2467.38,4173.56C2473.97,4178.84 2484.33,4180.33 2484.88,4171.68C2485.45,4162.75 2484.49,4154.29 2484.95,4146.27C2485.61,4134.71 2476.59,4125.33 2470.13,4116.85C2465.08,4110.2 2457.49,4104.78 2454.37,4101.66C2448.07,4095.36 2439.7,4090.59 2440.53,4082.33C2440.78,4079.75 2440.85,4073.26 2441.81,4070.87C2443.22,4067.37 2453.37,4069.57 2462.98,4070.13C2474.08,4070.78 2496.99,4075.05 2510.39,4075.39C2527.25,4075.83 2566.09,4081.97 2571.1,4082.06Z" style="fill:rgb(235,187,95);"/>
                </g>
                <g transform="matrix(0.182577,4.62223e-33,-6.16298e-33,0.209794,876.771,91.2799)">
                    <path d="M1610.01,3317.43C1609.92,3294.96 1611.38,3251.08 1613.39,3251.08C1625.94,3251.08 1630.94,3259.42 1640.04,3277.52C1646.85,3291.08 1654.32,3307.92 1657.32,3322.93C1660.44,3338.5 1665.71,3372.98 1668.18,3391.35C1672.11,3420.63 1678.98,3451.93 1677.03,3479.82C1675.78,3497.59 1677.2,3498.32 1669.68,3497.96C1665.02,3497.75 1650.96,3498.65 1643.5,3499.08C1632.6,3499.71 1622.34,3507.11 1616.67,3512.6C1612.69,3516.44 1608.23,3510.72 1608.23,3508.81C1608.23,3501.99 1608.44,3490.17 1608.44,3483.25C1608.44,3464.3 1608.69,3443.04 1608.69,3424.08C1608.69,3387.66 1610.15,3353.07 1610.01,3317.43Z" style="fill:rgb(253,220,153);"/>
                </g>
                <g transform="matrix(-0.200308,-4.62223e-33,6.16298e-33,-0.170889,1900.29,1501.89)">
                    <path d="M2499.14,4197.89C2494.77,4192.41 2482.9,4196.59 2479.64,4205.57C2476.11,4215.27 2492.82,4226.31 2504.1,4228.77C2517.3,4231.65 2509.35,4210.7 2499.14,4197.89Z" style="fill:rgb(239,229,176);"/>
                </g>
                <g transform="matrix(-0.200308,-4.62223e-33,6.16298e-33,-0.170889,1900.29,1501.89)">
                    <path d="M2502.84,4192.53C2500.07,4189.07 2495.51,4187.46 2490.57,4188.4C2484.18,4189.6 2477.44,4194.98 2474.76,4202.35C2472.76,4207.86 2473.58,4213.78 2477.17,4219.24C2482.22,4226.94 2494.2,4234.02 2503.24,4235.99C2507.84,4236.99 2510.91,4235.69 2512.82,4233.81C2515.39,4231.3 2516.73,4227.38 2516.4,4222.21C2515.91,4214.4 2510.05,4201.58 2502.84,4192.53ZM2505.16,4221.58L2504.97,4221.55C2500.94,4220.67 2496.14,4218.55 2492.02,4215.78C2489.74,4214.25 2487.66,4212.53 2486.13,4210.67C2485.57,4209.99 2484.95,4208.83 2484.69,4208.33C2486.05,4205.21 2489.26,4203.42 2492.08,4202.88C2493.4,4202.64 2494.7,4202.32 2495.44,4203.24C2499.05,4207.77 2502.36,4213.43 2504.26,4218.45C2504.62,4219.38 2504.93,4220.57 2505.16,4221.58Z" style="fill:rgb(35,30,30);"/>
                </g>
                <g transform="matrix(0.227971,3.08149e-33,-6.16298e-33,0.227971,618.343,-251.647)">
                    <path d="M2426.88,4751.75C2426.88,4751.75 2432.99,4732.37 2448.16,4726.46C2460.77,4721.55 2476.19,4722.03 2486.96,4724.85C2504.97,4729.59 2511.39,4735.59 2521.79,4740.16" style="fill:rgb(235,187,95);"/>
                </g>
                <g transform="matrix(0.227971,3.08149e-33,-6.16298e-33,0.227971,618.343,-251.647)">
                    <path d="M2431.36,4753.62C2431.36,4753.62 2436.57,4736.76 2449.68,4731.65C2461.46,4727.07 2475.85,4727.56 2485.89,4730.2C2503.58,4734.85 2509.87,4740.79 2520.08,4745.28C2522.54,4746.36 2525.3,4744.95 2526.24,4742.12C2527.18,4739.3 2525.95,4736.12 2523.49,4735.04C2512.91,4730.38 2506.36,4724.32 2488.02,4719.51C2476.54,4716.49 2460.08,4716.03 2446.62,4721.27C2429.42,4727.97 2422.39,4749.88 2422.39,4749.88C2421.49,4752.72 2422.77,4755.87 2425.25,4756.9C2427.72,4757.93 2430.46,4756.46 2431.36,4753.62Z" style="fill:rgb(35,30,30);"/>
                </g>
                <g transform="matrix(-0.227971,-3.08149e-33,9.24446e-33,-0.227971,1965.96,1760.72)">
                    <path d="M2435.6,4090.74C2435.56,4092.71 2436.02,4095.01 2436.99,4097.53C2438.02,4100.21 2439.66,4103.32 2441.45,4106.77C2445.13,4113.87 2449.82,4122.68 2448.5,4132.52C2447.76,4138 2444.83,4141.86 2441.79,4146.98C2436.2,4156.4 2429.75,4168.94 2429.7,4195.54C2429.63,4227.82 2439.62,4273.46 2439.62,4286.62C2439.62,4288.97 2438.45,4293.94 2437.14,4299.87C2434.9,4310.05 2432.11,4322.66 2431.9,4331.14C2431.63,4341.47 2435.51,4346.77 2441.84,4345.82C2460.72,4342.99 2510.88,4339.12 2530.9,4335.12C2576.15,4326.07 2610.55,4328.98 2668.54,4341.95C2704.76,4350.05 2722.1,4348.92 2757.26,4348.59C2787.55,4348.3 2861.34,4345.7 2882.64,4342.45C2922.5,4336.38 2963.39,4330.08 3003.84,4329.08C3046.32,4328.04 3088.36,4332.56 3129.99,4337.46C3183.78,4343.79 3242.13,4355.52 3296.43,4358.53C3340.62,4360.99 3393.19,4368.05 3438.05,4367C3448.97,4366.75 3465,4365.26 3477.64,4359.52C3487.05,4355.25 3494.58,4348.58 3497.78,4338.97C3498.7,4336.19 3499.08,4332.49 3499.06,4327.89C3499.03,4322.21 3498.44,4314.9 3498.27,4306.12C3498.06,4294.78 3491.79,4242.83 3492.04,4224.07C3492.26,4207.79 3498.24,4179.77 3498.28,4172.84C3498.45,4146.86 3497.31,4129.43 3496.26,4100.85C3495.86,4090.07 3492.82,4068.58 3472.88,4058.76C3465.99,4055.37 3452.73,4051.53 3437.9,4050.36C3427.32,4049.53 3414.22,4047.57 3407.17,4048.93C3401.39,4050.04 3398.56,4053.59 3398.31,4057.81C3398.06,4061.97 3397.19,4075.91 3396.64,4084.84C3390.18,4081.64 3379.92,4076.91 3371.39,4074.54C3330,4062.99 3309.59,4067.44 3275.81,4067.44C3263.6,4067.44 3232.34,4069.12 3220.26,4072.44C3217.24,4073.27 3215.13,4074.4 3214.08,4075.38C3212.43,4076.92 3211.87,4078.73 3211.83,4080.37C3211.78,4082.51 3210.43,4083.95 3208.86,4085.04C3205.42,4087.41 3200.57,4088.17 3197.53,4087.39C3187.98,4084.94 3177.48,4077.35 3172.99,4074.95C3144.38,4059.71 3111.02,4064.64 3080.71,4062.35C3050.45,4060.06 2998.41,4055.43 2989.02,4055.74C2980.78,4056.01 2929.6,4055.89 2916.36,4055.89C2888.3,4055.89 2860.52,4056.95 2832.93,4058.92C2792.93,4061.78 2740.48,4070.45 2700.29,4071.24C2679.32,4071.65 2598.06,4070.88 2563.34,4069.24C2529.62,4067.64 2488.1,4068.18 2455.16,4063.64C2451,4063.07 2447.94,4062.84 2445.7,4063.08C2443.38,4063.32 2441.65,4064.06 2440.3,4065.12C2438.21,4066.78 2436.8,4069.32 2436.19,4073.49C2435.67,4077.12 2435.76,4082.64 2435.6,4090.74ZM2441.73,4334.78C2441.64,4332.99 2441.51,4328.91 2441.92,4325.68C2443.72,4311.56 2449.16,4292.26 2449.16,4286.62C2449.16,4273.47 2439.17,4227.84 2439.23,4195.56C2439.29,4168.3 2446.94,4157.83 2452.19,4148.95C2455.01,4144.18 2457.18,4139.73 2457.93,4134.19C2459.61,4121.66 2454.33,4110.19 2449.64,4101.15C2448.31,4098.59 2447.06,4096.25 2446.15,4094.16C2445.61,4092.93 2445.12,4091.9 2445.14,4090.99C2445.24,4085.68 2445.21,4081.55 2445.35,4078.37C2445.42,4076.71 2445.76,4074.8 2445.88,4074.15C2446.2,4074.08 2446.83,4073.96 2447.32,4073.95C2449.02,4073.9 2451.21,4074.14 2454.03,4074.53C2487.19,4079.1 2529,4078.59 2562.95,4080.19C2597.81,4081.84 2679.39,4082.62 2700.45,4082.2C2740.77,4081.41 2793.4,4072.73 2833.53,4069.87C2860.92,4067.91 2888.5,4066.86 2916.36,4066.86C2929.65,4066.86 2981.03,4066.97 2989.29,4066.7C2998.59,4066.39 3050.12,4071.03 3080.09,4073.29C3109.26,4075.5 3141.43,4070.23 3168.98,4084.9C3173.81,4087.48 3185.18,4095.46 3195.45,4098.09C3200.37,4099.35 3208.22,4098.27 3213.77,4094.44C3217.44,4091.91 3220.13,4088.29 3221.03,4083.7C3223.06,4083.14 3227.62,4081.94 3231.68,4081.36C3245.78,4079.38 3266.51,4078.41 3275.81,4078.41C3308.79,4078.41 3328.73,4073.93 3369.14,4085.19C3381.94,4088.76 3398.87,4097.99 3398.87,4097.99C3400.29,4098.76 3401.95,4098.68 3403.31,4097.77C3404.67,4096.86 3405.55,4095.23 3405.66,4093.43C3405.66,4093.43 3407.22,4068.52 3407.73,4060.1C3408.6,4059.87 3410.15,4059.51 3411.43,4059.44C3418.39,4059.06 3428.68,4060.63 3437.25,4061.3C3450.76,4062.37 3462.85,4065.75 3469.12,4068.84C3484.4,4076.36 3486.42,4093.05 3486.73,4101.31C3487.77,4129.67 3488.91,4146.98 3488.74,4172.76C3488.7,4179.68 3482.72,4207.65 3482.51,4223.91C3482.25,4242.76 3488.52,4294.96 3488.74,4306.37C3488.91,4315.08 3489.49,4322.32 3489.52,4327.95C3489.53,4330.89 3489.46,4333.27 3488.87,4335.04C3486.58,4341.92 3480.87,4346.26 3474.14,4349.32C3462.56,4354.58 3447.86,4355.81 3437.86,4356.04C3393.2,4357.08 3340.87,4350.02 3296.89,4347.58C3242.76,4344.57 3184.59,4332.86 3130.96,4326.55C3088.94,4321.61 3046.51,4317.06 3003.64,4318.12C2962.83,4319.12 2921.59,4325.45 2881.39,4331.58C2860.28,4334.8 2787.19,4337.34 2757.18,4337.62C2722.77,4337.95 2705.8,4339.11 2670.36,4331.18C2610.92,4317.89 2575.65,4315.04 2529.27,4324.32C2509.72,4328.23 2461.32,4331.98 2441.73,4334.78Z" style="fill:rgb(35,30,30);"/>
                </g>
                <g transform="matrix(-0.227971,-3.08149e-33,-9.24446e-33,0.227971,1963.05,-335.944)">
                    <path d="M2480.96,5084.48C2486.77,5088.08 2500.34,5096.29 2507.04,5099.97C2509.41,5101.27 2510.42,5104.55 2509.29,5107.28C2508.16,5110.01 2505.31,5111.17 2502.93,5109.87C2496.13,5106.13 2482.35,5097.79 2476.44,5094.14C2474.12,5092.71 2473.25,5089.38 2474.5,5086.72C2475.74,5084.05 2478.64,5083.05 2480.96,5084.48Z" style="fill:rgb(35,30,30);"/>
                </g>
                <g transform="matrix(-0.227971,-3.08149e-33,-9.24446e-33,0.227971,1963.05,-335.944)">
                    <path d="M2518.02,5077.04C2523.56,5080.29 2532.46,5086.19 2536.91,5089.4C2539.14,5091.01 2539.81,5094.4 2538.41,5096.96C2537.01,5099.52 2534.07,5100.3 2531.84,5098.69C2527.57,5095.6 2519.01,5089.93 2513.69,5086.8C2511.34,5085.43 2510.41,5082.12 2511.61,5079.43C2512.8,5076.73 2515.68,5075.66 2518.02,5077.04Z" style="fill:rgb(35,30,30);"/>
                </g>
                <g transform="matrix(-0.227971,-3.08149e-33,-9.24446e-33,0.227971,1963.05,-335.944)">
                    <path d="M2594.3,4886.01C2607.26,4888.45 2618.46,4888.08 2631.49,4885.48C2634.08,4884.96 2636.55,4886.96 2637,4889.94C2637.45,4892.92 2635.72,4895.76 2633.12,4896.28C2618.98,4899.11 2606.83,4899.48 2592.76,4896.83C2590.16,4896.34 2588.4,4893.52 2588.82,4890.53C2589.25,4887.55 2591.7,4885.52 2594.3,4886.01Z" style="fill:rgb(35,30,30);"/>
                </g>
            </g>
            <g transform="matrix(0.258656,0,0,0.156037,1201.14,766.184)">
                <path d="M608.473,853.913C606.153,853.913 604.153,853.048 602.471,851.318C600.789,849.587 599.948,847.184 599.948,844.108C602.5,839.878 603.776,828.631 603.776,810.366C603.776,799.407 603.254,783.45 602.21,762.493C601.05,742.498 600.47,726.732 600.47,715.197L600.818,699.335C600.934,694.721 600.992,689.434 600.992,683.474C600.992,678.09 600.412,671.265 599.252,662.998C597.86,654.346 597.164,648.29 597.164,644.829C597.164,638.1 601.63,634.735 610.561,634.735L613.17,634.735C619.433,634.735 624.885,637.908 629.524,644.252C633.236,649.635 636.367,657.422 638.919,667.612C640.659,674.533 642.166,684.146 643.442,696.451C644.138,707.218 644.486,715.677 644.486,721.83L644.486,744.613C644.254,745.382 644.138,746.151 644.138,746.92C644.138,748.458 644.196,749.611 644.312,750.381C644.428,751.15 644.486,752.111 644.486,753.264C644.486,759.417 643.935,766.771 642.833,775.326C641.731,783.882 640.137,792.582 638.049,801.426C632.83,822.575 626.972,837.571 620.477,846.415C616.65,851.414 612.648,853.913 608.473,853.913ZM612.126,837.187C616.418,832.765 620.187,826.372 623.435,818.009C626.682,809.645 629.176,800.369 630.916,790.179C634.047,771.337 635.613,752.303 635.613,733.077C635.613,722.695 635.033,711.351 633.873,699.047C632.598,687.126 629.872,676.36 625.697,666.747C623.725,662.132 621.231,658.528 618.216,655.932C615.2,653.337 611.778,652.039 607.951,652.039L607.951,652.327C607.951,669.631 608.647,695.778 610.039,730.77C611.431,765.569 612.126,791.909 612.126,809.789L612.126,837.187Z" style="fill-rule:nonzero;"/>
                <path d="M696.157,858.239C693.605,858.239 691.286,853.625 689.198,844.396C686.762,834.399 684.964,824.113 683.805,813.538L682.587,803.733C679.223,776.24 677.077,760.57 676.15,756.725L674.062,756.725C674.062,762.301 674.004,767.396 673.888,772.01L673.888,787.872C673.888,813.635 674.99,833.726 677.193,848.146L675.28,855.932L670.408,855.932L668.147,851.606L668.321,832.284C668.321,814.98 667.799,788.737 666.755,753.553C665.827,716.062 665.363,689.818 665.363,674.822C665.363,665.593 667.277,660.979 671.104,660.979C677.367,660.979 682.5,663.671 686.501,669.054C690.503,674.437 692.503,681.935 692.503,691.548L692.503,711.736C692.503,714.62 692.213,717.936 691.633,721.685C691.054,725.435 690.416,728.463 689.72,730.77L686.414,741.152L683.631,749.804L684.5,756.725L686.936,777.201C688.56,792.005 690.126,804.021 691.633,813.25C693.141,822.479 694.997,830.842 697.201,838.34L698.245,841.801C699.404,845.646 699.984,848.722 699.984,851.029C699.984,852.952 699.636,854.634 698.94,856.076C698.245,857.518 697.317,858.239 696.157,858.239ZM674.758,742.594C677.309,740.479 679.484,734.663 681.282,725.146C683.08,715.629 683.979,706.833 683.979,698.758C683.979,692.606 683.515,686.838 682.587,681.455C682.007,678.379 681.05,676.023 679.716,674.389C678.382,672.755 676.73,671.938 674.758,671.938L674.41,673.38L674.062,675.975L674.41,710.006C674.642,720.003 674.758,730.866 674.758,742.594Z" style="fill-rule:nonzero;"/>
                <path d="M737.389,858.816C734.374,858.816 731.59,857.23 729.038,854.058C726.487,850.885 724.399,846.607 722.775,841.224C719.412,829.496 717.324,816.711 716.512,802.868C715.468,789.794 714.946,777.201 714.946,765.089C714.946,762.781 715.004,760.859 715.12,759.321L715.12,754.13C715.12,753.168 715.062,752.688 714.946,752.688L714.946,747.497L715.12,727.309C715.236,721.157 715.7,711.351 716.512,697.893C717.092,688.665 718.426,679.724 720.514,671.073C721.325,667.227 722.369,664.295 723.645,662.277C724.921,660.258 726.371,659.249 727.994,659.249C732.634,659.249 736.809,660.642 740.521,663.43C744.232,666.218 747.364,670.111 749.915,675.11C752.235,679.917 754.207,685.829 755.831,692.846C757.454,699.864 758.614,707.314 759.31,715.197C760.006,723.272 760.354,731.827 760.354,740.864L760.354,743.171C760.354,749.131 760.412,754.514 760.528,759.321L760.702,775.759C760.702,831.13 752.931,858.816 737.389,858.816ZM736.693,846.704C738.781,846.704 740.695,845.31 742.435,842.522C744.174,839.734 745.508,835.937 746.436,831.13C748.64,821.325 749.973,810.751 750.437,799.407C751.017,789.602 751.307,781.142 751.307,774.029C751.307,765.377 750.901,754.033 750.089,739.998C749.394,725.194 749.046,714.139 749.046,706.833L749.046,701.642C748.814,694.336 747.335,687.992 744.609,682.608C741.884,677.225 738.549,674.533 734.606,674.533C730.662,674.533 728.052,678.282 726.777,685.781C725.617,691.741 725.037,699.431 725.037,708.852C725.037,712.505 725.095,715.581 725.211,718.081L725.211,725.867L724.863,739.133C724.631,743.171 724.515,747.593 724.515,752.399C724.515,762.781 724.689,773.067 725.037,783.257C725.501,797.677 726.661,811.712 728.516,825.363C730.372,839.59 733.098,846.704 736.693,846.704Z" style="fill-rule:nonzero;"/>
                <path d="M783.493,855.355C781.985,845.165 781.231,831.034 781.231,812.962L781.579,787.295C781.811,779.604 781.927,771.049 781.927,761.628C781.231,758.936 780.883,756.533 780.883,754.418L780.883,753.553C782.043,749.9 782.623,741.633 782.623,728.751L782.797,715.485C782.913,711.255 782.971,706.545 782.971,701.354C782.971,690.01 782.507,681.07 781.579,674.533C781.927,671.842 782.507,669.486 783.319,667.468C784.131,665.449 785.117,664.44 786.276,664.44L793.931,664.44C797.179,664.44 800.021,665.641 802.456,668.045C804.892,670.448 806.748,673.86 808.023,678.282C810.343,686.165 811.503,695.49 811.503,706.256C811.503,713.947 811.445,720.003 811.329,724.425C811.097,730.001 810.517,735.096 809.589,739.71C809.241,742.209 808.748,744.276 808.11,745.91C807.473,747.545 806.574,749.515 805.414,751.822C803.79,755.091 801.122,758.167 797.411,761.051C795.903,762.397 793.931,763.647 791.496,764.8L791.496,795.658L791.844,814.115L792.192,823.055C792.656,833.822 792.888,842.954 792.888,850.453C792.888,852.76 792.308,854.73 791.148,856.365C789.988,857.999 788.654,858.816 787.146,858.816L783.493,855.355ZM791.67,752.976C798.513,751.246 801.934,735 801.934,704.238C801.934,698.662 801.76,694.336 801.412,691.26C801.064,688.953 800.601,687.078 800.021,685.636C799.441,684.194 798.571,682.993 797.411,682.032C796.135,680.878 794.743,680.301 793.236,680.301C793.236,680.109 792.598,680.013 791.322,680.013L791.322,696.451C791.322,707.795 791.38,717.888 791.496,726.732C791.496,736.73 791.554,743.267 791.67,746.343L791.67,752.976Z" style="fill-rule:nonzero;"/>
                <path d="M871.177,853.048C861.202,853.048 856.215,850.164 856.215,844.396C856.215,839.782 857.955,837.475 861.434,837.475L863.522,837.475C863.986,837.667 864.508,837.763 865.088,837.763C866.016,837.763 866.682,837.283 867.088,836.321C867.494,835.36 867.697,833.63 867.697,831.13C867.697,814.788 867.117,792.486 865.958,764.223C864.914,734.807 864.392,712.601 864.392,697.605C864.392,692.221 864.45,687.319 864.566,682.897L864.74,668.189C864.74,661.844 864.566,656.557 864.218,652.327C862.942,653.096 861.608,653.481 860.216,653.481C857.549,653.481 856.215,651.174 856.215,646.559C856.215,644.252 857.056,642.233 858.738,640.503C860.419,638.773 862.594,637.523 865.262,636.754C870.133,635.408 874.25,634.735 877.614,634.735C879.006,634.735 880.195,635.504 881.18,637.042C882.166,638.58 882.659,640.407 882.659,642.522C882.659,644.637 882.282,646.463 881.528,648.001C880.774,649.539 879.818,650.308 878.658,650.308C877.962,650.308 877.382,650.212 876.918,650.02L875.526,650.02C874.366,650.02 873.525,650.453 873.004,651.318C872.482,652.183 872.221,653.769 872.221,656.076C872.221,676.456 872.975,704.526 874.482,740.287C875.874,777.778 876.57,805.944 876.57,824.786L876.57,835.745C877.382,835.552 878.542,835.456 880.05,835.456C884.921,835.456 887.357,838.821 887.357,845.55L887.357,847.28L883.007,852.183C882.891,852.183 882.543,852.231 881.963,852.327C881.383,852.423 880.224,852.471 878.484,852.471C874.54,852.856 872.105,853.048 871.177,853.048Z" style="fill-rule:nonzero;"/>
                <path d="M914.845,848.722L914.671,837.475C914.555,834.207 914.497,830.554 914.497,826.516L914.671,816.711C914.323,814.596 913.453,793.543 912.061,753.553C910.669,713.562 909.857,687.896 909.626,676.552C902.898,676.168 898.607,675.014 896.751,673.091C895.475,671.553 894.838,669.823 894.838,667.9C894.838,666.362 895.446,664.968 896.664,663.719C897.882,662.469 899.129,661.844 900.405,661.844C903.652,661.844 907.596,662.229 912.235,662.998C916.643,663.959 920.586,664.44 924.066,664.44L926.849,664.44C930.445,664.44 932.242,666.747 932.242,671.361C932.242,673.668 931.662,675.543 930.503,676.985C929.343,678.427 928.009,679.148 926.501,679.148C925.457,679.148 923.95,678.859 921.978,678.282L918.498,677.129L918.15,680.013C918.15,697.124 919.136,724.425 921.108,761.916C922.964,797.1 923.892,824.401 923.892,843.82C923.892,846.127 923.283,848.146 922.065,849.876C920.847,851.606 919.484,852.471 917.976,852.471L914.845,848.722Z" style="fill-rule:nonzero;"/>
                <path d="M957.643,857.086C956.135,857.086 954.772,856.22 953.554,854.49C952.337,852.76 951.67,850.645 951.554,848.146L951.554,834.879C951.438,833.149 951.38,831.13 951.38,828.823C951.38,824.786 951.206,818.633 950.858,810.366L950.51,791.909C950.51,782.488 950.684,768.453 951.032,749.804C951.496,733.077 951.728,719.042 951.728,707.698C951.728,705.007 951.554,700.969 951.206,695.586C950.858,690.01 950.684,685.973 950.684,683.474C950.684,669.823 953.12,662.998 957.991,662.998C961.818,662.998 966.255,664.247 971.3,666.747C976.345,669.246 978.868,672.226 978.868,675.687C978.868,677.61 978.375,679.388 977.389,681.022C976.403,682.656 975.214,683.954 973.823,684.915C968.951,682.032 964.544,680.109 960.601,679.148C960.716,682.032 960.774,686.165 960.774,691.548C960.774,699.239 960.716,706.16 960.601,712.313C960.253,721.541 960.079,728.463 960.079,733.077L960.601,737.691L963.384,737.403C964.312,737.211 965.472,737.114 966.864,737.114C972.431,737.114 975.214,739.806 975.214,745.189C975.214,747.304 974.693,749.083 973.649,750.525C972.605,751.967 971.271,752.688 969.647,752.688C967.56,752.688 965.936,752.495 964.776,752.111L960.427,752.111C960.658,757.11 960.774,764.416 960.774,774.029C960.774,783.642 960.716,792.294 960.601,799.984C960.253,811.712 960.079,820.46 960.079,826.228C960.079,836.994 960.195,842.378 960.427,842.378L966.168,842.089C968.139,841.897 970.517,841.801 973.301,841.801C977.708,841.801 979.912,844.108 979.912,848.722C979.912,851.414 979.187,853.481 977.737,854.923C976.287,856.365 974.519,857.086 972.431,857.086L957.643,857.086Z" style="fill-rule:nonzero;"/>
                <path d="M1069.16,868.333C1065.57,868.333 1063.77,862.373 1063.77,850.453L1063.77,813.538C1063.77,803.925 1063.36,791.332 1062.55,775.759C1061.62,758.263 1061.16,746.247 1061.16,739.71L1061.51,721.83C1061.74,716.639 1061.86,710.775 1061.86,704.238C1061.39,706.737 1059.48,720.003 1056.11,744.036C1052.75,767.3 1049.27,788.833 1045.67,808.636C1042.19,827.67 1039.35,837.187 1037.15,837.187C1034.95,837.187 1033.18,836.081 1031.84,833.87C1030.51,831.659 1029.84,828.631 1029.84,824.786C1029.84,816.326 1027.78,798.35 1023.67,770.856C1019.55,743.363 1015.81,720.868 1012.45,703.373L1011.4,735.961C1010.47,763.454 1009.84,786.333 1009.49,804.598C1009.26,822.286 1009.14,834.399 1009.14,840.936C1009.14,842.474 1009.2,843.916 1009.31,845.262L1009.31,849.299C1009.31,852.568 1008.91,855.019 1008.1,856.653C1007.28,858.287 1005.78,859.104 1003.57,859.104C1002.41,859.104 1001.31,858.383 1000.27,856.941C999.223,855.5 998.701,853.913 998.701,852.183C998.701,832.572 999.571,803.156 1001.31,763.935C1003.05,724.714 1003.92,695.298 1003.92,675.687C1003.23,673.957 1002.88,672.13 1002.88,670.207C1002.88,667.9 1003.54,666.122 1004.88,664.872C1006.21,663.622 1007.81,662.998 1009.66,662.998C1011.17,662.998 1013.95,672.034 1018.01,690.107C1022.07,708.179 1026.13,728.655 1030.19,751.534C1034.25,774.413 1036.86,790.948 1038.02,801.138C1038.95,795.947 1039.7,791.14 1040.28,786.718L1041.33,779.797C1045.04,752.88 1048.75,728.559 1052.46,706.833C1054.66,693.567 1056.81,683.185 1058.9,675.687C1060.99,667.612 1062.9,663.574 1064.64,663.574C1066.26,663.574 1067.74,664.295 1069.08,665.737C1070.41,667.179 1071.08,669.054 1071.08,671.361C1071.08,685.204 1071.42,705.968 1072.12,733.654C1072.93,759.417 1073.34,779.412 1073.34,793.639L1073.16,808.924L1072.82,824.209C1072.82,826.516 1072.99,829.977 1073.34,834.591L1073.86,844.685C1073.97,846.415 1074.06,847.761 1074.12,848.722C1074.18,849.684 1074.21,850.26 1074.21,850.453C1074.79,852.952 1075.08,854.779 1075.08,855.932C1075.08,859.201 1074.5,862.084 1073.34,864.584C1072.18,867.083 1070.79,868.333 1069.16,868.333Z" style="fill-rule:nonzero;"/>
            </g>
        </g>
    </g>
</svg>
