<?xml version="1.0" encoding="UTF-8" standalone="no"?>
<!DOCTYPE svg PUBLIC "-//W3C//DTD SVG 1.1//EN" "http://www.w3.org/Graphics/SVG/1.1/DTD/svg11.dtd">
<svg width="100%" height="100%" viewBox="0 0 200 199" version="1.1" xmlns="http://www.w3.org/2000/svg" xmlns:xlink="http://www.w3.org/1999/xlink" xml:space="preserve" xmlns:serif="http://www.serif.com/" style="fill-rule:evenodd;clip-rule:evenodd;stroke-linejoin:round;stroke-miterlimit:2;">
    <g transform="matrix(1,0,0,1,-833.923,-760.173)">
        <g transform="matrix(1,0,0,1,-34.9589,-7.94948)">
            <g id="Ebene12" transform="matrix(0.619877,0,0,0.619877,-1129.92,-14.7626)">
                <g transform="matrix(1,0,0,1,24.2427,21.3415)">
                    <path d="M3522.85,1327.5C3522.85,1291.86 3493.96,1262.97 3458.32,1262.97L3289.03,1262.97C3253.4,1262.97 3224.51,1291.86 3224.51,1327.5L3224.51,1496.78C3224.51,1532.42 3253.4,1561.31 3289.03,1561.31L3458.32,1561.31C3493.96,1561.31 3522.85,1532.42 3522.85,1496.78L3522.85,1327.5Z" style="fill:rgb(35,30,30);"/>
                </g>
                <path d="M3522.85,1327.5C3522.85,1291.86 3493.96,1262.97 3458.32,1262.97L3289.03,1262.97C3253.4,1262.97 3224.51,1291.86 3224.51,1327.5L3224.51,1496.78C3224.51,1532.42 3253.4,1561.31 3289.03,1561.31L3458.32,1561.31C3493.96,1561.31 3522.85,1532.42 3522.85,1496.78L3522.85,1327.5Z" style="fill:rgb(163,147,89);"/>
                <clipPath id="_clip1">
                    <path d="M3522.85,1327.5C3522.85,1291.86 3493.96,1262.97 3458.32,1262.97L3289.03,1262.97C3253.4,1262.97 3224.51,1291.86 3224.51,1327.5L3224.51,1496.78C3224.51,1532.42 3253.4,1561.31 3289.03,1561.31L3458.32,1561.31C3493.96,1561.31 3522.85,1532.42 3522.85,1496.78L3522.85,1327.5Z"/>
                </clipPath>
                <g clip-path="url(#_clip1)">
                    <path d="M3522.85,1327.5C3522.85,1291.86 3493.96,1262.97 3458.32,1262.97L3289.03,1262.97C3253.4,1262.97 3224.51,1291.86 3224.51,1327.5L3224.51,1496.78C3224.51,1532.42 3253.4,1561.31 3289.03,1561.31L3458.32,1561.31C3493.96,1561.31 3522.85,1532.42 3522.85,1496.78L3522.85,1327.5ZM3518.01,1327.5L3518.01,1496.78C3518.01,1529.75 3491.28,1556.47 3458.32,1556.47L3289.03,1556.47C3256.07,1556.47 3229.35,1529.75 3229.35,1496.78L3229.35,1327.5C3229.35,1294.53 3256.07,1267.81 3289.03,1267.81L3458.32,1267.81C3491.28,1267.81 3518.01,1294.53 3518.01,1327.5Z" style="fill:rgb(35,30,30);"/>
                </g>
            </g>
        </g>
    </g>
</svg>
