<?xml version="1.0" encoding="UTF-8" standalone="no"?>
<!DOCTYPE svg PUBLIC "-//W3C//DTD SVG 1.1//EN" "http://www.w3.org/Graphics/SVG/1.1/DTD/svg11.dtd">
<svg width="100%" height="100%" viewBox="0 0 647 849" version="1.1" xmlns="http://www.w3.org/2000/svg" xmlns:xlink="http://www.w3.org/1999/xlink" xml:space="preserve" xmlns:serif="http://www.serif.com/" style="fill-rule:evenodd;clip-rule:evenodd;stroke-linejoin:round;stroke-miterlimit:2;">
    <g transform="matrix(1,0,0,1,-1094.18,-116.069)">
        <g id="Ebene14">
            <g id="Ebene6" transform="matrix(3.56421e-17,-0.494337,0.606842,3.95699e-17,-1282.5,2407.16)">
                <g transform="matrix(1.04577,0,0,1.04577,1236.7,579.557)">
                    <path d="M1681.68,4170.19C1676.69,4176.99 1679.2,4185.27 1679.2,4194.56C1679.2,4196.4 1677.51,4205.41 1677.51,4205.41C1677.51,4205.41 1655.45,4207.55 1636,4206.71C1623.77,4206.19 1608.85,4202.67 1619.69,4181.75C1626.78,4168.07 1668.31,4166.84 1681.68,4170.19C1709.92,4177.24 1723.97,4182.91 1755.02,4185.31C1790.14,4188.02 1830.1,4194.6 1866.98,4199.44C1888.38,4202.24 1975.22,4202.84 1999.39,4202.92C2069.49,4203.14 2147.4,4183.39 2242.51,4191.13C2302.83,4196.04 2366.3,4197.27 2426.8,4199.22C2474.77,4200.76 2515.82,4186.13 2563.67,4182.98C2604.18,4180.32 2638.44,4181.14 2674.03,4181.14C2691.09,4181.14 2747.17,4174.79 2747.17,4174.79C2747.17,4174.79 2729.09,4162.57 2735.09,4154.03C2747.72,4136.03 2793.23,4155.37 2787.57,4166.11C2784.85,4171.25 2774.5,4173.03 2759,4189.9C2743.53,4206.72 2768.01,4209.51 2772.52,4208.01C2790.68,4201.93 2798.08,4198.16 2808.68,4192.96C2823.96,4185.46 2833.01,4183.91 2845.93,4183.94C2857.18,4183.96 2880.22,4183.07 2899.34,4187.11C2925.43,4192.63 2949.39,4196.72 2987.2,4196.74C3017.21,4196.76 3050.03,4199.38 3079.7,4198.67C3107.94,4197.99 3177.56,4199.28 3191.52,4198.99C3204.41,4198.72 3226.7,4199.55 3233.62,4183.49C3238.61,4171.92 3241.83,4157.7 3242.49,4147.88C3243.76,4128.81 3244.99,4114.29 3245.26,4097.38C3245.91,4055.51 3246.45,3276.51 3245.13,3227.93C3244.62,3209.4 3232.38,3200.49 3220.69,3196.16C3208.97,3191.82 3206.88,3191.2 3207.38,3201.86C3207.64,3207.47 3207.24,3210.89 3207.24,3210.89C3207.24,3210.89 3170.29,3210.59 3155.82,3210.51C3131.45,3210.38 3106.11,3209.37 3080.87,3208.7C3063.26,3208.23 3047.34,3207.62 3029.39,3206.24C3013.18,3204.99 2996.16,3205.04 2979.35,3204.1C2961.61,3203.11 2922.39,3227.2 2905.09,3222.78C2899.5,3221.35 2902.9,3217.81 2898.52,3214.3C2894.89,3211.38 2877.6,3219.69 2868.08,3212.55C2853.23,3201.41 2851.19,3196.34 2849.96,3196.29C2828.85,3195.46 2810.38,3197.76 2791.03,3197.76C2754.7,3197.76 2717.55,3200.61 2681.26,3202.89C2654.08,3204.59 2636.78,3203.64 2603.48,3203.53C2600.03,3203.52 2592.34,3204.42 2587.96,3207.76C2583.42,3211.21 2576.72,3219.45 2569.17,3217.69C2562.27,3216.07 2570.27,3203.33 2564.98,3200.69C2560.52,3198.46 2482.27,3199.89 2463.16,3198.87C2436.1,3197.42 2426.77,3205.6 2321.53,3204.48C2290.84,3204.16 2245.21,3206.04 2214.47,3205.96C2173.67,3205.84 2126.91,3203.67 2085.66,3203.86C2015.26,3204.19 1949.53,3208.41 1878.58,3209.61C1831.94,3210.4 1802.66,3205.73 1756.58,3206.55C1729.12,3207.05 1688.36,3207.68 1661.31,3210.39C1646.09,3211.91 1642.65,3206.1 1628.58,3213.14C1626.55,3214.15 1614.5,3225.11 1614.43,3229.79C1614.08,3253.03 1612,3272.04 1611.16,3295.99C1609.14,3354.02 1615.12,4083.7 1614.18,4129.5C1614,4138.76 1615.91,4193.18 1615.94,4193.89" style="fill:rgb(239,229,176);"/>
                </g>
                <g transform="matrix(1,0,0,1.02888,1385.6,637.545)">
                    <path d="M3238.97,3214.08C3235.12,3209.2 3208.57,3184.4 3207.84,3197.97C3206.63,3220.3 3206.55,3285.64 3206.63,3297.72C3206.7,3308.02 3213.1,3997.44 3212.98,4007.69C3212.56,4042.07 3208.97,4050.84 3200.68,4084.01C3197.73,4095.81 3196.49,4114.69 3194.97,4126.82C3193.65,4137.37 3193.04,4147.99 3195.24,4148.74C3198.73,4149.93 3206.36,4149.11 3214.74,4152.9C3221.66,4156.04 3226.64,4158.82 3229.1,4166.19C3229.47,4167.29 3235.43,4174.24 3236.78,4172.89C3246.58,4163.1 3244.47,4144.78 3245.39,4130.57C3248.47,4083.2 3243.18,3334.73 3241.84,3282.94C3241.7,3277.57 3244.76,3221.4 3238.97,3214.08Z" style="fill:rgb(253,246,211);fill-opacity:0.95;"/>
                </g>
                <g transform="matrix(1,0,0,1,1355.02,747.672)">
                    <path d="M2848.79,3293.24C2842.91,3293.76 2833.26,3306.63 2833.18,3312.46C2832.98,3326.98 2855.74,3332.3 2862.95,3320.7C2870.68,3308.26 2861.1,3292.15 2848.79,3293.24Z" style="fill:rgb(229,214,159);"/>
                </g>
                <g transform="matrix(2.54686e-16,3.18173,-3.90585,2.29405e-16,5884.48,640.893)">
                    <path d="M1349.28,743.476C1349.58,742.73 1349.08,740.439 1349.49,740.419C1351.5,740.318 1353.88,740.489 1355.88,740.558C1358.88,740.663 1361.75,740.456 1361.77,740.661C1361.99,742.378 1362.03,745.393 1362.26,747.033C1362.43,748.246 1362.3,753.766 1361.79,755.038C1360.01,759.492 1353.48,759.187 1351.26,754.207C1350.42,752.308 1348.5,745.435 1349.28,743.476Z" style="fill:rgb(225,216,156);"/>
                </g>
                <g transform="matrix(1,0,0,1,1349.27,745.295)">
                    <path d="M2760.7,3247.66C2751.46,3253.3 2746.97,3260.85 2746.61,3269.68C2746.23,3279.02 2749.62,3287.06 2750.02,3294.38C2751.22,3316.42 2762.7,3324.32 2785.85,3318.15C2803.26,3313.5 2811.61,3301.47 2814.52,3296.18C2824.4,3278.18 2820.38,3247.53 2791.68,3241.89C2779.49,3239.49 2766.85,3243.91 2760.7,3247.66Z" style="fill:rgb(229,214,159);"/>
                </g>
                <g transform="matrix(1,0,0,1,1373.36,1028.83)">
                    <path d="M2328.66,3934.41C2313.48,3932.29 2311.47,3931.74 2314.4,3925.36C2316.17,3921.51 2338.53,3890.4 2349.42,3878.57C2363.56,3863.21 2377.27,3850.11 2401.18,3836.3C2411.64,3830.26 2472.64,3814.34 2493.3,3805.48C2501.26,3802.07 2536.26,3785.66 2551.48,3776.67C2569.39,3766.08 2588.05,3756.89 2607.43,3749.14C2615.65,3745.85 2623.47,3743.62 2632.31,3742.44C2656.04,3739.28 2696.29,3741.96 2714.45,3754.81C2719.62,3758.47 2760.74,3779.31 2767.49,3783.69C2781.27,3792.63 2811.46,3803.74 2830.58,3804.93C2847.13,3805.97 2864.53,3806.48 2880.93,3806.48C2892.23,3806.48 2901.28,3806.24 2913.13,3805.71C2936.7,3804.64 2958.75,3799.56 2981.8,3805.71C2993.6,3808.85 3016.75,3820.22 3026.96,3827.51C3056.94,3848.92 3082.64,3886.8 3085.93,3893.36C3091.17,3903.85 3108.27,3936.54 3096.95,3939.39C3089.98,3941.15 3080.9,3939.12 3071.09,3940.12C3064.05,3940.83 3011.39,3940.14 3002.13,3939.47C2984.87,3938.24 2909.18,3932.57 2880.2,3929.34C2861.32,3927.23 2829.22,3918.71 2809.97,3929.41C2796.43,3936.93 2763.97,3949.17 2756.37,3949.56C2746.76,3950.05 2746.32,3942.55 2748.64,3938.18C2756.93,3922.6 2797.25,3910.42 2769.33,3894.47C2759.46,3888.82 2752.95,3887.6 2741.49,3887.64C2726.67,3887.7 2724.41,3899.49 2726.74,3912.89C2727.88,3919.43 2672.56,3915.88 2617.95,3919C2599.13,3920.08 2531.79,3924.76 2512.58,3925.22C2491.57,3925.73 2461.24,3931.62 2442.98,3934.2C2423.64,3936.94 2404.59,3936.34 2382.78,3936.08" style="fill:rgb(254,245,212);"/>
                </g>
                <g transform="matrix(1.04676,0,0,1.04676,1235.72,719.375)">
                    <path d="M1614.18,3707.92C1614.09,3685.46 1609.05,3641.85 1614.87,3643.16C1626.97,3645.91 1626.06,3650.7 1635.15,3668.8C1641.97,3682.36 1649.44,3699.2 1652.44,3714.21C1655.55,3729.78 1674.05,3896.09 1676.52,3914.46C1680.45,3943.73 1687.32,3975.04 1685.37,4002.93C1684.12,4020.7 1685.51,4028.23 1677.99,4027.87C1673.33,4027.66 1666.44,4026.7 1651.38,4027.42C1640.47,4027.94 1628.43,4033.64 1622.75,4039.13C1618.78,4042.97 1616.57,4033.82 1616.57,4031.91C1616.57,4025.09 1616.78,4013.27 1616.78,4006.36C1616.78,3987.41 1617.03,3966.14 1617.03,3947.18C1617.03,3910.76 1614.32,3743.57 1614.18,3707.92Z" style="fill:rgb(252,247,211);"/>
                </g>
                <g transform="matrix(1.04676,0,0,1.04676,1232.93,576.869)">
                    <path d="M1674.32,3208.17C1668.23,3208.12 1701.31,3225.49 1703.93,3227.03C1714.53,3233.27 1768.4,3259.79 1780.48,3263.23C1807.46,3270.9 1849.02,3278.96 1871.91,3283.33C1896.55,3288.02 1948.07,3292.45 1973.41,3291.49C2011.5,3290.05 2089.16,3279.78 2111.32,3269.53C2141.96,3255.34 2168.74,3238.6 2174.69,3232.78C2184.18,3223.5 2199.66,3213.85 2196.07,3204.68C2194.96,3201.86 2120.62,3205.12 2088.13,3204.62C2065.39,3204.28 1949.34,3208.74 1909.3,3208.51C1886.36,3208.37 1806.13,3208.61 1788.77,3208.68C1752.51,3208.85 1690.53,3208.31 1674.32,3208.17Z" style="fill:rgb(225,216,156);"/>
                </g>
                <g transform="matrix(1.04577,1.2326e-32,-2.46519e-32,1.04577,1236.7,579.557)">
                    <path d="M1613.78,4192.31C1613.78,4194.79 1614.35,4196.85 1615.3,4198.56C1618.88,4204.94 1628.17,4206.86 1636.56,4207.23C1656.25,4208.07 1678.57,4205.91 1678.57,4205.91C1679.87,4205.79 1680.9,4204.97 1681.1,4203.92C1681.1,4203.92 1682.82,4194.62 1682.82,4192.71C1682.82,4188.06 1682.19,4183.67 1682.19,4179.59C1682.18,4176.59 1682.51,4173.78 1683.86,4171.18C1710.79,4178.02 1725.03,4183.46 1755.46,4185.81C1790.52,4188.52 1830.41,4195.1 1867.23,4199.92C1888.7,4202.74 1975.84,4203.36 2000.09,4203.43C2070.11,4203.65 2147.93,4183.9 2242.94,4191.64C2303.32,4196.55 2366.84,4197.78 2427.39,4199.73C2475.49,4201.28 2516.65,4186.64 2564.62,4183.49C2605.04,4180.83 2639.23,4181.66 2674.74,4181.66C2691.9,4181.66 2748.28,4175.28 2748.28,4175.28C2749.42,4175.15 2750.36,4174.49 2750.67,4173.59C2750.98,4172.69 2750.62,4171.72 2749.73,4171.12C2749.73,4171.12 2743.62,4167 2739.95,4161.97C2737.9,4159.15 2736.43,4156.04 2738.32,4153.35C2741.55,4148.74 2747.39,4147.12 2753.74,4147.19C2760.7,4147.26 2768.31,4149.35 2774.44,4152.23C2779.17,4154.46 2783.03,4157.13 2784.89,4159.8C2785.75,4161.04 2786.18,4162.24 2785.61,4163.33C2784.69,4165.08 2782.6,4166.29 2779.72,4168.14C2774.54,4171.46 2766.91,4176.27 2757.39,4186.64C2751.97,4192.53 2751.07,4197.04 2752.16,4200.29C2753.51,4204.33 2758.05,4206.84 2762.9,4208.01C2767.59,4209.14 2772.44,4208.98 2774.34,4208.34C2792.69,4202.2 2800.18,4198.39 2810.89,4193.14C2825.55,4185.94 2834.24,4184.43 2846.64,4184.45C2857.74,4184.47 2880.46,4183.56 2899.32,4187.55C2925.63,4193.11 2949.79,4197.24 2987.91,4197.26C3017.95,4197.28 3050.8,4199.9 3080.5,4199.19C3108.73,4198.51 3178.35,4199.79 3192.31,4199.5C3198.95,4199.37 3208.01,4199.48 3216.31,4197.59C3225.21,4195.56 3233.25,4191.31 3237.07,4182.43C3242.15,4170.64 3245.43,4156.16 3246.1,4146.16C3247.38,4127.06 3248.61,4112.51 3248.87,4095.56C3249.53,4053.69 3249.35,3276.46 3248.03,3227.88C3247.49,3208.1 3234.37,3198.62 3221.89,3194.01C3218.18,3192.63 3215.38,3191.63 3213.3,3191.18C3211.21,3190.72 3209.59,3190.79 3208.37,3191.19C3206.87,3191.68 3205.7,3192.65 3205.04,3194.42C3204.47,3195.95 3204.31,3198.38 3204.48,3201.95C3204.61,3204.76 3204.57,3207 3204.5,3208.51C3195.65,3208.43 3167.91,3208.21 3155.83,3208.15C3131.5,3208.02 3106.18,3207 3080.97,3206.33C3063.42,3205.87 3047.55,3205.26 3029.66,3203.89C3013.43,3202.64 2996.38,3202.68 2979.55,3201.74C2975.69,3201.53 2970.88,3202.35 2965.53,3203.85C2958.07,3205.95 2949.44,3209.34 2940.84,3212.58C2932.51,3215.72 2924.2,3218.72 2917.06,3220.14C2912.79,3220.99 2908.99,3221.3 2905.96,3220.53C2904.05,3220.04 2904.24,3218.98 2903.95,3217.9C2903.52,3216.24 2902.83,3214.43 2900.56,3212.62C2899.71,3211.93 2898.53,3211.48 2896.99,3211.34C2895.58,3211.21 2893.75,3211.35 2891.64,3211.66C2888.29,3212.14 2884.08,3213.01 2879.9,3213.15C2876.35,3213.27 2872.79,3212.87 2870.05,3210.81C2858.38,3202.06 2854.77,3197.12 2853.17,3195.47C2851.96,3194.23 2850.83,3193.96 2850.1,3193.93C2828.93,3193.09 2810.43,3195.39 2791.03,3195.39C2754.62,3195.39 2717.4,3198.25 2681.03,3200.53C2653.94,3202.23 2636.69,3201.28 2603.49,3201.17C2599.59,3201.16 2590.94,3202.26 2585.98,3206.03C2583.73,3207.74 2580.94,3210.65 2577.78,3212.9C2575.38,3214.61 2572.82,3216.08 2569.97,3215.41C2569.4,3215.28 2569.31,3214.82 2569.21,3214.33C2568.94,3213.05 2569.15,3211.45 2569.36,3209.82C2569.67,3207.37 2570.01,3204.88 2569.65,3202.96C2569.29,3201.02 2568.25,3199.55 2566.5,3198.68C2566.05,3198.45 2565.19,3198.18 2563.91,3198C2562.03,3197.74 2558.82,3197.53 2554.64,3197.38C2531.73,3196.58 2478.63,3197.33 2463.35,3196.51C2436.26,3195.06 2426.92,3203.23 2321.57,3202.12C2290.87,3201.79 2245.22,3203.68 2214.48,3203.6C2173.67,3203.48 2126.9,3201.31 2085.64,3201.5C2015.23,3201.83 1949.48,3206.05 1878.52,3207.25C1831.88,3208.03 1802.59,3203.36 1756.52,3204.19C1728.97,3204.69 1688.09,3205.33 1660.96,3208.04C1653.64,3208.77 1649.16,3207.71 1644.81,3207.34C1639.78,3206.92 1634.89,3207.21 1627.06,3211.12C1625.74,3211.78 1620.45,3216.24 1616.48,3220.84C1613.62,3224.15 1611.56,3227.58 1611.53,3229.76C1611.18,3252.99 1609.1,3271.98 1608.26,3295.93C1606.24,3353.96 1612.93,4081.81 1612,4127.61C1611.81,4136.89 1613.73,4191.42 1613.76,4192.12C1613.76,4192.18 1613.77,4192.25 1613.78,4192.31ZM1683.21,4166.07L1683.24,4166.08C1711.26,4173.08 1725.19,4178.73 1756.01,4181.11C1791.18,4183.82 1831.21,4190.41 1868.16,4195.26C1889.48,4198.05 1976.03,4198.63 2000.12,4198.71C2070.29,4198.93 2148.29,4179.18 2243.51,4186.93C2303.78,4191.84 2367.19,4193.06 2427.62,4195.01C2475.48,4196.55 2516.42,4181.91 2564.15,4178.78C2604.75,4176.11 2639.08,4176.93 2674.74,4176.93C2688.31,4176.93 2726.69,4172.88 2741.52,4171.26C2739.38,4169.42 2736.88,4167.01 2734.97,4164.38C2731.8,4160.04 2730.37,4155.15 2733.28,4151.01C2736.79,4146.01 2742.46,4143.45 2749.01,4142.7C2758.08,4141.65 2768.94,4144.19 2777.34,4148.14C2783.1,4150.85 2787.68,4154.22 2789.94,4157.47C2791.81,4160.17 2792.19,4162.84 2790.95,4165.19C2789.97,4167.04 2788.24,4168.58 2785.7,4170.3C2780.84,4173.58 2772.66,4177.9 2762.03,4189.47C2758.17,4193.67 2756.98,4196.73 2757.76,4199.05C2758.58,4201.5 2761.6,4202.77 2764.55,4203.48C2767.67,4204.23 2770.87,4204.39 2772.13,4203.97C2790.09,4197.96 2797.41,4194.23 2807.89,4189.09C2823.79,4181.28 2833.21,4179.7 2846.65,4179.73C2858.05,4179.75 2881.4,4178.88 2900.78,4182.97C2926.66,4188.44 2950.42,4192.51 2987.92,4192.53C3017.89,4192.55 3050.68,4195.17 3080.33,4194.46C3108.57,4193.78 3178.2,4195.07 3192.16,4194.78C3198.41,4194.65 3206.94,4194.82 3214.74,4193.04C3221.94,4191.4 3228.51,4188.04 3231.6,4180.86C3236.49,4169.5 3239.66,4155.54 3240.3,4145.91C3241.58,4126.87 3242.81,4112.38 3243.07,4095.5C3243.72,4053.63 3243.55,3276.56 3242.23,3227.98C3241.76,3210.69 3230.4,3202.35 3219.49,3198.31C3216.17,3197.08 3213.67,3196.15 3211.81,3195.74C3211.45,3195.67 3210.98,3195.62 3210.71,3195.6C3210.6,3195.88 3210.4,3196.47 3210.33,3197C3210.18,3198.2 3210.18,3199.78 3210.28,3201.77C3210.55,3207.58 3210.13,3211.12 3210.13,3211.12C3209.99,3212.34 3208.72,3213.27 3207.21,3213.26C3207.21,3213.26 3170.27,3212.95 3155.8,3212.87C3131.41,3212.75 3106.04,3211.73 3080.78,3211.06C3063.11,3210.59 3047.13,3209.98 3029.12,3208.6C3012.93,3207.35 2995.94,3207.4 2979.15,3206.46C2975.22,3206.24 2970.16,3207.42 2964.5,3209.19C2955.34,3212.04 2944.75,3216.48 2934.74,3220C2927.82,3222.44 2921.16,3224.43 2915.4,3225.26C2911.17,3225.87 2907.37,3225.84 2904.22,3225.04C2900.71,3224.14 2899.53,3222.65 2898.86,3220.9C2898.63,3220.33 2898.49,3219.71 2898.32,3219.06C2898.09,3218.14 2897.82,3217.1 2896.61,3216.08C2896.4,3216.07 2895.64,3216.01 2895.09,3216.04C2893.54,3216.13 2891.64,3216.46 2889.54,3216.8C2886.01,3217.37 2881.98,3217.97 2878.09,3217.89C2873.72,3217.79 2869.51,3216.84 2866.12,3214.29C2856.53,3207.1 2852.16,3202.37 2849.92,3199.85C2849.49,3199.37 2849.08,3198.92 2848.8,3198.61C2828.16,3197.89 2810.02,3200.12 2791.03,3200.12C2754.77,3200.12 2717.7,3202.97 2681.48,3205.24C2654.22,3206.95 2636.87,3206 2603.47,3205.9C2600.47,3205.89 2593.75,3206.58 2589.94,3209.48C2587.14,3211.61 2583.53,3215.49 2579.42,3217.87C2576,3219.87 2572.25,3220.87 2568.37,3219.96C2564.36,3219.02 2563.05,3215.77 2563.34,3211.63C2563.49,3209.53 2563.97,3207.19 2564.01,3205.18C2564.03,3204.55 2564,3203.97 2563.87,3203.45C2563.8,3203.2 2563.77,3202.94 2563.58,3202.78C2562.92,3202.71 2558.73,3202.26 2554.39,3202.11C2531.45,3201.3 2478.27,3202.05 2462.97,3201.23C2435.94,3199.78 2426.62,3207.96 2321.5,3206.84C2290.81,3206.52 2245.19,3208.41 2214.46,3208.32C2173.67,3208.21 2126.91,3206.03 2085.67,3206.23C2015.29,3206.56 1949.57,3210.78 1878.64,3211.97C1832,3212.76 1802.72,3208.09 1756.65,3208.92C1729.27,3209.41 1688.63,3210.04 1661.66,3212.73C1655.24,3213.38 1650.81,3212.8 1646.85,3212.33C1641.8,3211.73 1637.66,3211.37 1630.09,3215.15C1628.97,3215.71 1624.62,3219.63 1621.23,3223.56C1619.88,3225.12 1618.69,3226.69 1617.95,3228.07C1617.6,3228.73 1617.34,3229.32 1617.33,3229.82C1616.98,3253.07 1614.9,3272.09 1614.07,3296.06C1612.04,3354.09 1618.73,4081.89 1617.8,4127.69C1617.67,4133.84 1618.48,4159.97 1619.05,4176.97C1622.97,4172.03 1631.13,4168.61 1640.73,4166.66C1656.03,4163.57 1674.83,4163.99 1683.19,4166.07L1683.21,4166.07ZM1678.22,4169.95C1669.51,4168.64 1654.57,4168.74 1642.13,4171.25C1633.3,4173.04 1625.62,4175.91 1623.07,4180.82C1620.8,4185.22 1619.69,4188.75 1619.54,4191.58L1619.56,4191.96C1619.56,4192.1 1619.55,4192.24 1619.53,4192.38C1619.55,4194.02 1619.91,4195.41 1620.58,4196.59C1621.82,4198.8 1624.13,4200.14 1626.81,4200.99C1629.91,4201.99 1633.5,4202.36 1636.87,4202.51C1652.44,4203.18 1669.7,4201.92 1675.69,4201.41C1676.18,4198.76 1677.02,4193.98 1677.02,4192.71C1677.02,4188.07 1676.39,4183.67 1676.38,4179.59C1676.38,4176.17 1676.81,4172.95 1678.22,4169.95Z" style="fill:rgb(35,30,30);"/>
                </g>
                <g transform="matrix(1.04664,1.2326e-32,-2.46519e-32,1.04664,1234.68,577.457)">
                    <path d="M3237.75,4178.03C3237.75,4178.03 3240.53,4168.85 3238.59,4161.37C3237.35,4156.57 3235.08,4151.82 3232.07,4148.85C3225.75,4142.62 3215.53,4137.41 3206.05,4137.71C3203.04,4137.81 3200.97,4137.39 3199.65,4136.27C3198.24,4135.07 3197.71,4133.23 3197.45,4130.96C3196.79,4125.22 3198.24,4117.08 3198.47,4107.69C3198.97,4087.98 3200.7,4080.35 3204.99,4063.14C3209.36,4045.64 3214.59,4037.84 3215.83,4011.52C3217.15,3983.4 3207.63,3289.29 3206.9,3265.12C3206.61,3255.59 3210.01,3214.07 3210.13,3203.58C3210.15,3202.27 3208.86,3201.2 3207.26,3201.19C3205.66,3201.18 3204.35,3202.23 3204.33,3203.53C3204.22,3214.05 3200.81,3255.68 3201.1,3265.23C3201.83,3289.39 3211.36,3983.23 3210.03,4011.34C3208.81,4037.28 3203.61,4044.95 3199.31,4062.2C3194.93,4079.73 3193.18,4087.51 3192.68,4107.59C3192.44,4117.2 3191.01,4125.53 3191.68,4131.4C3192.08,4134.92 3193.27,4137.66 3195.45,4139.53C3197.72,4141.46 3201.12,4142.6 3206.28,4142.43C3214.1,4142.18 3222.38,4146.71 3227.6,4151.86C3230.11,4154.33 3231.88,4158.34 3232.92,4162.35C3234.61,4168.87 3232.12,4176.89 3232.12,4176.89C3231.74,4178.15 3232.68,4179.44 3234.24,4179.75C3235.79,4180.07 3237.36,4179.3 3237.75,4178.03Z" style="fill:rgb(35,30,30);"/>
                </g>
            </g>
            <g transform="matrix(1.17702,0,0,0.365856,1032.53,59.3882)">
                <rect x="90.135" y="402.77" width="445.862" height="10.827" style="fill:rgb(135,165,110);"/>
            </g>
        </g>
    </g>
</svg>
