<?xml version="1.0" encoding="UTF-8"?>
<svg id="Ebene_2" data-name="Ebene 2" xmlns="http://www.w3.org/2000/svg" viewBox="0 0 84.71 86.18">
  <defs>
    <style>
      .cls-1 {
        fill: #fcf09a;
        fill-rule: evenodd;
      }

      .cls-2 {
        fill: #86a66e;
      }
    </style>
  </defs>
  <g id="Ebene_1-2" data-name="Ebene 1">
    <g id="X-Y-B-A">
      <g>
        <path class="cls-1" d="m37.99.37C25.44,2.47,15.17,9.39,6.31,21.25c-2.66,3.56-8,11.83-5.77,26.38.54,3.52,5.94,17.45,11.71,22.29,4.27,3.59,13.56,12.91,26.03,15.57,5.59,1.19,13.29.65,18.8-.06,3.57-.47,13.21-2.98,17.11-7.34.08-.09-1.25-.71-3.31-1.41-1.55-.53-2.34-.58-1.57-1.13,2.9-2.07,5.19-4.48,9.92-9.49,7.03-7.44,6.33-22.26,3.37-31.38-3.93-12.09-8.92-21.31-17.45-27.06C56.7,1.92,46.76-1.1,37.99.37Z"/>
        <path class="cls-2" d="m35.33,62.16l.23-7.01.23-7.01c0-2.54-.11-6.4-.34-11.57-.23-5.13-.34-8.99-.34-11.57v-.34c0-.99.19-1.9.57-2.74.46-1.03,1.67-1.54,3.65-1.54,5.32,0,9.54.86,12.65,2.57,3.12,1.71,4.67,3.97,4.67,6.78,0,1.71-.91,3.5-2.74,5.36-1.82,1.86-3.99,3.25-6.5,4.16,4.41,1.48,7.66,3.39,9.75,5.73,2.09,2.34,3.13,4.91,3.13,7.72,0,1.33-.91,2.98-2.74,4.96-2.21,2.36-5.21,4.05-9.01,5.07-2.28.57-4.79.85-7.52.85h-.46c-3.5,0-5.24-.47-5.24-1.42Zm11.4-26.22c1.14-1.06,2.2-2.36,3.19-3.88.23-.42.61-.95,1.14-1.6v-1.99c0-1.14-.84-2.24-2.51-3.31-1.67-1.06-3.57-1.6-5.7-1.6-1.07,0-1.6.59-1.6,1.77,0,2.51.08,4.75.23,6.73l.23,6.33c1.98-.23,3.65-1.04,5.02-2.45Zm4.33,22.12c2.2-1.44,3.31-3.17,3.31-5.19,0-1.75-.29-3.35-.85-4.82-.57-1.46-1.31-2.57-2.22-3.33-.84-.72-1.67-1.33-2.51-1.82-.84-.49-1.56-.82-2.17-.97l-.91-.17h-4.1c.38,4.37.57,10.66.57,18.87,3.72-.27,6.69-1.12,8.89-2.57Z"/>
      </g>
    </g>
  </g>
</svg>