<?xml version="1.0" encoding="UTF-8" standalone="no"?>
<!DOCTYPE svg PUBLIC "-//W3C//DTD SVG 1.1//EN" "http://www.w3.org/Graphics/SVG/1.1/DTD/svg11.dtd">
<svg width="100%" height="100%" viewBox="0 0 233 260" version="1.1" xmlns="http://www.w3.org/2000/svg" xmlns:xlink="http://www.w3.org/1999/xlink" xml:space="preserve" xmlns:serif="http://www.serif.com/" style="fill-rule:evenodd;clip-rule:evenodd;stroke-linejoin:round;stroke-miterlimit:2;">
    <g transform="matrix(1,0,0,1,-1089.91,-69.7461)">
        <g id="Ebene4" transform="matrix(1,0,0,1,48.1207,69.7454)">
            <g transform="matrix(2.74364,0,0,3.01642,1041.77,-0.00138562)">
                <path d="M37.99,0.37C25.44,2.47 15.17,9.39 6.31,21.25C3.65,24.81 -1.69,33.08 0.54,47.63C1.08,51.15 6.48,65.08 12.25,69.92C16.52,73.51 25.81,82.83 38.28,85.49C43.87,86.68 51.57,86.14 57.08,85.43C60.65,84.96 70.29,82.45 74.19,78.09C74.27,78 72.94,77.38 70.88,76.68C69.33,76.15 68.54,76.1 69.31,75.55C72.21,73.48 74.5,71.07 79.23,66.06C86.26,58.62 85.56,43.8 82.6,34.68C78.67,22.59 73.68,13.37 65.15,7.62C56.7,1.92 46.76,-1.1 37.99,0.37Z" style="fill:rgb(251,239,153);fill-rule:nonzero;"/>
            </g>
            <g id="E-Taste" transform="matrix(2.74364,0,0,3.01642,1025.6,-15.8542)">
                <path d="M55.77,59.53C55.77,58.42 55.33,57.36 54.55,56.58C53.77,55.8 52.71,55.36 51.6,55.36L33.11,55.36C32,55.36 30.94,55.8 30.16,56.58C29.38,57.36 28.94,58.42 28.94,59.53L28.94,78.02C28.94,79.13 29.38,80.19 30.16,80.97C30.94,81.75 32,82.19 33.11,82.19L51.6,82.19C52.71,82.19 53.77,81.75 54.55,80.97C55.33,80.19 55.77,79.13 55.77,78.02L55.77,59.53Z" style="fill:rgb(134,166,110);fill-rule:nonzero;"/>
                <path d="M47.25,77.55C47.06,77.39 46.96,77.16 46.96,76.85L46.91,73.3C46.88,73 46.86,72.49 46.86,71.79C46.8,70.3 46.76,68.62 46.76,66.75L46.76,65.53C46.47,66.3 45.98,67.38 45.27,68.77C44.57,70.21 44.07,71.39 43.78,72.32L43.78,72.46L43.64,72.92C43.58,73.27 43.42,73.63 43.16,74C42.84,74.38 42.34,74.58 41.67,74.58C40.52,74.58 39.94,73.83 39.94,72.32C39.94,71.49 39.77,70.6 39.44,69.64C39.1,68.69 38.57,67.52 37.83,66.12L36.39,63.43L36.29,66.31C36.29,67.17 36.37,68.82 36.53,71.25L36.63,72.88L36.73,76.17C36.73,76.51 36.49,76.81 36.01,77.08C35.21,77.08 34.66,76.96 34.35,76.71C34.05,76.46 33.89,76.1 33.89,75.62L33.99,73.65C34.09,72.79 34.13,72.14 34.13,71.71L34.03,67.08L33.93,62.42C33.93,61.73 33.96,60.7 34.03,59.32L35.33,58.94C35.59,58.96 35.84,59.05 36.1,59.22C36.36,59.39 36.64,59.66 36.96,60.02C37.76,61.01 38.8,63 40.08,65.97C40.27,66.39 40.4,66.73 40.46,67C40.84,67.93 41.12,68.63 41.28,69.11L42,70.96L42.34,70.17L43.25,68.2C43.76,67.05 44.19,66.04 44.52,65.18C44.86,64.32 45.18,63.38 45.5,62.37C45.85,61.17 46.08,60.17 46.17,59.37L46.17,59.23C46.23,59.02 46.43,58.86 46.75,58.74C47.07,58.62 47.45,58.56 47.9,58.56C48.19,58.56 48.44,58.62 48.67,58.75C48.89,58.88 49.01,59.01 49.01,59.16C49.01,61.08 49.15,63.95 49.44,67.78C49.6,69.65 49.71,71.48 49.78,73.28C49.84,74.1 49.88,75.13 49.88,76.38C49.88,76.75 49.69,77.08 49.3,77.36C48.91,77.64 48.48,77.79 48,77.79C47.68,77.79 47.42,77.71 47.23,77.55L47.25,77.55Z" style="fill:rgb(251,239,153);fill-rule:nonzero;"/>
            </g>
            <g id="E-Taste-2">
            </g>
            <g id="E-Taste-3" transform="matrix(2.74364,0,0,3.01642,1027.14,-17.9958)">
                <path d="M82.04,33.41C82.04,32.3 81.6,31.24 80.82,30.46C80.04,29.68 78.98,29.24 77.87,29.24L59.38,29.24C58.27,29.24 57.21,29.68 56.43,30.46C55.65,31.24 55.21,32.3 55.21,33.41L55.21,51.9C55.21,53.01 55.65,54.07 56.43,54.85C57.21,55.63 58.27,56.07 59.38,56.07L77.87,56.07C78.98,56.07 80.04,55.63 80.82,54.85C81.6,54.07 82.04,53.01 82.04,51.9L82.04,33.41Z" style="fill:rgb(134,166,110);fill-rule:nonzero;"/>
                <path d="M60.96,50.63L61.16,44.73C61.16,43.66 61.11,42.03 61.02,39.86C60.92,37.7 60.88,36.08 60.88,34.99L60.88,34.85C60.88,34.43 60.96,34.05 61.12,33.7C61.31,33.27 61.82,33.05 62.66,33.05C64.9,33.05 66.68,33.41 67.99,34.13C69.3,34.85 69.96,35.8 69.96,36.99C69.96,37.71 69.58,38.46 68.81,39.25C68.04,40.03 67.13,40.62 66.07,41C67.93,41.62 69.29,42.43 70.17,43.41C71.05,44.39 71.49,45.48 71.49,46.66C71.49,47.22 71.11,47.92 70.34,48.75C69.41,49.74 68.15,50.45 66.55,50.89C65.59,51.13 64.53,51.25 63.38,51.25L63.19,51.25C61.72,51.25 60.98,51.05 60.98,50.65L60.96,50.63ZM65.76,39.59C66.24,39.14 66.69,38.6 67.1,37.96C67.2,37.78 67.36,37.56 67.58,37.29L67.58,36.45C67.58,35.97 67.23,35.51 66.52,35.06C65.82,34.61 65.02,34.39 64.12,34.39C63.67,34.39 63.45,34.64 63.45,35.13C63.45,36.19 63.48,37.13 63.55,37.96L63.65,40.62C64.48,40.52 65.19,40.18 65.76,39.59ZM67.58,48.9C68.51,48.29 68.97,47.56 68.97,46.72C68.97,45.98 68.85,45.31 68.61,44.69C68.37,44.07 68.06,43.61 67.67,43.29C67.32,42.99 66.97,42.73 66.61,42.52C66.26,42.31 65.95,42.18 65.7,42.11L65.32,42.04L63.59,42.04C63.75,43.88 63.83,46.53 63.83,49.98C65.4,49.87 66.65,49.51 67.57,48.9L67.58,48.9Z" style="fill:rgb(251,239,153);fill-rule:nonzero;"/>
            </g>
        </g>
    </g>
</svg>
