<?xml version="1.0" encoding="UTF-8" standalone="no"?>
<!DOCTYPE svg PUBLIC "-//W3C//DTD SVG 1.1//EN" "http://www.w3.org/Graphics/SVG/1.1/DTD/svg11.dtd">
<svg width="100%" height="100%" viewBox="0 0 323 320" version="1.1" xmlns="http://www.w3.org/2000/svg" xmlns:xlink="http://www.w3.org/1999/xlink" xml:space="preserve" xmlns:serif="http://www.serif.com/" style="fill-rule:evenodd;clip-rule:evenodd;stroke-linejoin:round;stroke-miterlimit:2;">
    <g transform="matrix(1,0,0,1,-3223.56,-2178.37)">
        <g id="Ebene12" transform="matrix(1,0,0,1,-0.944037,915.399)">
            <g transform="matrix(1,0,0,1,24.2427,21.3415)">
                <path d="M3522.85,1310.21C3522.85,1297.68 3517.87,1285.66 3509.01,1276.81C3500.15,1267.94 3488.13,1262.97 3475.61,1262.97L3271.75,1262.97C3259.22,1262.97 3247.2,1267.94 3238.34,1276.81C3229.48,1285.66 3224.51,1297.68 3224.51,1310.21L3224.51,1514.07C3224.51,1526.6 3229.48,1538.61 3238.34,1547.47C3247.2,1556.33 3259.22,1561.31 3271.75,1561.31L3475.61,1561.31C3488.13,1561.31 3500.15,1556.33 3509.01,1547.47C3517.87,1538.61 3522.85,1526.6 3522.85,1514.07L3522.85,1310.21Z"/>
            </g>
            <path d="M3522.85,1310.21C3522.85,1297.68 3517.87,1285.66 3509.01,1276.81C3500.15,1267.94 3488.13,1262.97 3475.61,1262.97L3271.75,1262.97C3259.22,1262.97 3247.2,1267.94 3238.34,1276.81C3229.48,1285.66 3224.51,1297.68 3224.51,1310.21L3224.51,1514.07C3224.51,1526.6 3229.48,1538.61 3238.34,1547.47C3247.2,1556.33 3259.22,1561.31 3271.75,1561.31L3475.61,1561.31C3488.13,1561.31 3500.15,1556.33 3509.01,1547.47C3517.87,1538.61 3522.85,1526.6 3522.85,1514.07L3522.85,1310.21Z" style="fill:rgb(163,147,89);"/>
            <clipPath id="_clip1">
                <path d="M3522.85,1310.21C3522.85,1297.68 3517.87,1285.66 3509.01,1276.81C3500.15,1267.94 3488.13,1262.97 3475.61,1262.97L3271.75,1262.97C3259.22,1262.97 3247.2,1267.94 3238.34,1276.81C3229.48,1285.66 3224.51,1297.68 3224.51,1310.21L3224.51,1514.07C3224.51,1526.6 3229.48,1538.61 3238.34,1547.47C3247.2,1556.33 3259.22,1561.31 3271.75,1561.31L3475.61,1561.31C3488.13,1561.31 3500.15,1556.33 3509.01,1547.47C3517.87,1538.61 3522.85,1526.6 3522.85,1514.07L3522.85,1310.21Z"/>
            </clipPath>
            <g clip-path="url(#_clip1)">
                <g transform="matrix(4.6321,0,0,1.52432,-11383,-525.86)">
                    <path d="M3174.44,1321.54C3173.6,1321.54 3172.9,1321.24 3172.34,1320.63C3171.78,1320.03 3171.5,1319.26 3171.5,1318.32C3171.5,1316.74 3173.04,1312.84 3176.12,1306.64C3179.2,1300.44 3183.21,1292.77 3188.15,1283.62C3191.79,1276.72 3193.61,1272.85 3193.61,1272.01C3193.61,1269.5 3193.05,1266.56 3191.93,1263.2C3190.81,1259.84 3189.32,1256.44 3187.45,1252.99L3185.78,1249.63C3185.49,1248.98 3184.42,1246.83 3182.56,1243.19C3180.69,1239.55 3179.2,1236.01 3178.08,1232.56C3176.77,1229.11 3176.12,1226.12 3176.12,1223.61L3179.9,1221.23L3179.9,1221.37C3181.67,1222.21 3184.31,1226.29 3187.8,1233.61C3191.3,1240.93 3194.54,1248.84 3197.53,1257.32C3200.14,1265.16 3201.54,1270.15 3201.72,1272.29L3177.1,1321.26L3175.7,1321.4C3175.42,1321.49 3175,1321.54 3174.44,1321.54Z" style="fill-rule:nonzero;"/>
                </g>
                <g transform="matrix(-0.464279,0.0769882,0.0769882,0.464279,3904.22,-267.414)">
                    <path d="M1575.56,3557.19C1576.63,3556.66 1577.76,3555.99 1579.24,3555.35C1580.89,3554.62 1582.79,3553.93 1584.9,3553.18C1589.12,3551.66 1594.02,3549.93 1599.21,3548.34C1613.01,3544.09 1628.43,3540.18 1635.3,3538C1651.16,3533.23 1675.37,3526.88 1694.8,3522.44C1701.53,3520.9 1707.66,3519.62 1712.66,3518.64C1715.31,3518.12 1717.59,3517.14 1719.52,3517.43C1720.08,3517.51 1720.03,3517.73 1720.5,3517.98C1721.96,3517.47 1723.55,3518.24 1724.06,3519.7C1724.57,3521.15 1723.8,3522.75 1722.34,3523.26C1722.12,3523.77 1722.25,3523.9 1721.84,3524.32C1720.4,3525.78 1717.79,3526.25 1715.13,3527.26C1710.29,3529.1 1704.22,3531.02 1697.48,3532.93C1678.44,3538.3 1654.16,3543.62 1638.41,3548.35C1631.4,3550.34 1615.9,3554.69 1601.62,3557.68C1596.28,3558.79 1591.13,3559.62 1586.66,3560.27C1584.43,3560.59 1582.42,3560.88 1580.6,3560.99C1578.97,3561.08 1577.64,3561.01 1576.44,3561C1575.39,3561.24 1574.34,3560.59 1574.1,3559.53C1573.85,3558.48 1574.51,3557.43 1575.56,3557.19Z"/>
                </g>
                <g transform="matrix(-0.464279,0.0769882,0.0769882,0.464279,3976.3,-314.21)">
                    <path d="M1628.85,3659.45C1628.63,3659.61 1628.38,3659.73 1628.11,3659.83C1626.57,3660.35 1624.9,3659.53 1624.38,3657.99C1624.09,3657.36 1623.9,3655.64 1625.96,3654.22C1626.43,3653.9 1627.54,3653.39 1629.19,3652.67C1631.2,3651.79 1634.07,3650.54 1637.7,3649.25C1643.19,3647.31 1650.23,3645.1 1657.86,3643.08C1661.65,3642.08 1665.61,3641.19 1669.57,3640.38C1675.66,3639.13 1681.76,3638.1 1687.38,3637.27C1690.19,3636.85 1692.87,3636.48 1695.38,3636.26C1700.36,3635.82 1704.56,3635.78 1707.68,3635.87C1709,3635.75 1710.17,3636.72 1710.29,3638.05C1710.4,3639.37 1709.43,3640.54 1708.11,3640.66C1704.91,3641.32 1700.64,3642.71 1695.48,3644.12C1689.77,3645.67 1683.15,3647.35 1676.33,3649.11C1671,3650.49 1665.55,3651.9 1660.29,3653.09C1654.48,3654.42 1648.93,3655.52 1644.11,3656.46C1637.37,3657.77 1632.12,3658.6 1629.67,3659.24C1629.31,3659.33 1628.94,3659.57 1628.85,3659.45Z"/>
                </g>
                <g transform="matrix(-0.464279,0.0769882,0.0769882,0.464279,4081.52,-552.736)">
                    <path d="M2125.12,3663.28C2125.13,3663.59 2125.11,3663.8 2124.99,3663.55C2124.93,3663.42 2124.98,3663.33 2125.12,3663.28L2125.11,3662.8L2125.11,3662.76C2125.01,3663.69 2124.24,3664.44 2123.28,3664.5C2122.2,3664.56 2121.28,3663.74 2121.21,3662.66C2120.94,3661.75 2121.89,3659.9 2124.88,3658.06C2128.99,3655.53 2138.03,3652.39 2148.97,3649.23C2150.94,3648.66 2152.99,3648.17 2155.08,3647.67C2159.06,3646.73 2163.18,3645.78 2167.37,3644.99C2177.46,3643.09 2187.73,3641.59 2196.36,3640.62C2197.8,3640.45 2199.19,3640.2 2200.55,3640.25C2203.03,3640.32 2204.99,3640.9 2207.05,3641.24C2208.59,3641.03 2210.01,3642.11 2210.22,3643.64C2210.43,3645.18 2209.35,3646.6 2207.81,3646.81C2205.99,3647.66 2204.37,3648.77 2202.12,3649.55C2201.33,3649.82 2200.47,3649.93 2199.6,3650.11C2189.84,3652.07 2177.6,3654.64 2165.76,3656.86C2160.5,3657.84 2155.31,3658.69 2150.47,3659.41C2140.62,3660.88 2132.36,3662.01 2127.74,3663.01C2126.78,3663.22 2125.55,3663.12 2125.12,3663.28Z"/>
                </g>
                <g transform="matrix(-0.464279,0.0769882,0.0769882,0.464279,4111.8,-549.447)">
                    <path d="M2337.78,3610.7C2344.96,3607.78 2352.43,3604.93 2360.17,3602.42C2371.43,3598.76 2383.16,3595.73 2394.78,3593.17C2409,3590.03 2423.07,3587.37 2436.22,3586.53C2442.53,3586.13 2448.6,3586.33 2454.35,3586.59C2456.66,3586.59 2458.54,3588.47 2458.54,3590.78C2458.54,3593.1 2456.66,3594.98 2454.35,3594.98C2448.83,3595.22 2443.04,3595.94 2436.99,3596.49C2424.21,3597.65 2410.39,3599 2396.43,3601.45C2384.9,3603.48 2373.31,3606.07 2362.01,3608.87C2354.23,3610.8 2346.6,3612.75 2339.29,3614.96C2338.12,3615.38 2336.82,3614.76 2336.41,3613.59C2335.99,3612.41 2336.61,3611.12 2337.78,3610.7Z"/>
                </g>
                <path d="M3522.85,1310.21C3522.85,1297.68 3517.87,1285.66 3509.01,1276.81C3500.15,1267.94 3488.13,1262.97 3475.61,1262.97L3271.75,1262.97C3259.22,1262.97 3247.2,1267.94 3238.34,1276.81C3229.48,1285.66 3224.51,1297.68 3224.51,1310.21L3224.51,1514.07C3224.51,1526.6 3229.48,1538.61 3238.34,1547.47C3247.2,1556.33 3259.22,1561.31 3271.75,1561.31L3475.61,1561.31C3488.13,1561.31 3500.15,1556.33 3509.01,1547.47C3517.87,1538.61 3522.85,1526.6 3522.85,1514.07L3522.85,1310.21ZM3512.85,1310.21L3512.85,1514.07C3512.85,1523.94 3508.93,1533.42 3501.94,1540.4C3494.95,1547.39 3485.48,1551.31 3475.61,1551.31L3271.75,1551.31C3261.87,1551.31 3252.4,1547.39 3245.41,1540.4C3238.43,1533.42 3234.51,1523.94 3234.51,1514.07L3234.51,1310.21C3234.51,1300.33 3238.43,1290.86 3245.41,1283.88C3252.4,1276.89 3261.87,1272.97 3271.75,1272.97L3475.61,1272.97C3485.48,1272.97 3494.95,1276.89 3501.94,1283.88C3508.93,1290.86 3512.85,1300.33 3512.85,1310.21Z" style="fill:rgb(35,31,32);"/>
            </g>
        </g>
    </g>
</svg>
