<?xml version="1.0" encoding="UTF-8"?>
<svg id="Ebene_1" data-name="Ebene 1" xmlns="http://www.w3.org/2000/svg" viewBox="0 0 1920 1080">
  <defs>
    <style>
      .cls-1 {
        fill: #e3d7a0;
      }

      .cls-1, .cls-2, .cls-3, .cls-4, .cls-5, .cls-6, .cls-7, .cls-8, .cls-9, .cls-10, .cls-11, .cls-12, .cls-13, .cls-14, .cls-15 {
        fill-rule: evenodd;
      }

      .cls-2 {
        fill: #fff;
      }

      .cls-3 {
        fill: #fcf09a;
      }

      .cls-4 {
        fill: #fcf8d2;
      }

      .cls-5 {
        fill: #e0d89e;
      }

      .cls-6 {
        fill: #eabb61;
      }

      .cls-7 {
        fill: #fefffe;
      }

      .cls-8 {
        fill: #fdde9a;
      }

      .cls-16, .cls-10 {
        fill: #86a66e;
      }

      .cls-9 {
        fill: #231f20;
      }

      .cls-11 {
        fill: #ebbd62;
      }

      .cls-12 {
        fill: #feca67;
      }

      .cls-13 {
        fill: #fef6d3;
      }

      .cls-14 {
        fill: rgba(253, 247, 210, .95);
      }

      .cls-15 {
        fill: #eee6b1;
      }
    </style>
  </defs>
  <g id="Ebene5">
    <g id="Ebene51">
      <g>
        <path class="cls-15" d="m964.98,637.86c-1.11,1.51-.55,3.34-.55,5.4,0,.41-.37,2.4-.37,2.4,0,0-4.89.47-9.2.29-2.71-.12-6.02-.9-3.62-5.53,1.57-3.03,10.77-3.3,13.74-2.56,6.26,1.56,9.37,2.82,16.26,3.35,7.78.6,16.64,2.06,24.82,3.13,4.74.62,23.99.75,29.35.77,15.54.05,32.8-4.33,53.89-2.61,13.37,1.09,27.44,1.36,40.84,1.79,10.63.34,19.73-2.9,30.34-3.6,8.98-.59,16.57-.41,24.46-.41,3.78,0,16.21-1.41,16.21-1.41,0,0-4.01-2.71-2.68-4.6,2.8-3.99,12.89.3,11.63,2.68-.6,1.14-2.9,1.53-6.33,5.27-3.43,3.73,2,4.35,3,4.01,4.03-1.35,5.67-2.18,8.01-3.34,3.39-1.66,5.39-2.01,8.26-2,2.49,0,7.6-.19,11.84.7,5.78,1.22,11.1,2.13,19.48,2.13,6.65,0,13.93.59,20.5.43,6.26-.15,21.69.14,24.78.07,2.86-.06,7.8.12,9.33-3.44,1.11-2.56,1.82-5.72,1.96-7.89.28-4.23.56-7.45.61-11.19.15-9.28-.82-95.14-1.11-105.9-.11-4.11-2.83-6.08-5.42-7.04-2.6-.96-3.06-1.1-2.95,1.26.06,1.24-.03,2-.03,2,0,0-8.19-.07-11.4-.08-5.4-.03-11.02-.25-16.61-.4-3.9-.1-7.43-.24-11.41-.55-3.59-.28-7.37-.27-11.09-.47-3.93-.22-12.63,5.12-16.46,4.14-1.24-.32-.49-1.1-1.46-1.88-.8-.65-4.64,1.19-6.75-.39-3.29-2.47-3.74-3.59-4.02-3.6-4.68-.18-8.77.33-13.06.33-8.05,0-16.29.63-24.33,1.14-6.02.38-9.86.17-17.24.14-.76,0-2.47.2-3.44.94-1.01.76-2.49,2.59-4.16,2.2-1.53-.36.24-3.18-.93-3.77-.99-.49-18.33-.18-22.57-.4-6-.32-8.07,1.49-31.39,1.24-6.8-.07-16.92.35-23.73.33-9.04-.03-19.41-.51-28.55-.47-15.6.07-30.17,1.01-45.9,1.27-10.34.18-16.83-.86-27.04-.68-6.09.11-15.12.25-21.12.85-3.37.34-4.14-.95-7.25.61-.45.22-3.12,2.65-3.14,3.69-.08,5.15-.54,9.36-.72,14.67-.45,12.86,1.96,87.79,1.75,97.94-.04,2.05.38,14.11.39,14.27"/>
        <path class="cls-9" d="m949.65,643.2c0,.61.15,1.11.38,1.52.36.64.94,1.1,1.66,1.41.92.4,2.07.55,3.14.6,4.36.19,9.31-.29,9.31-.29.34-.03.62-.29.68-.63,0,0,.39-2.11.39-2.55,0-1.03-.14-2-.14-2.91,0-.57.05-1.11.29-1.61,5.94,1.51,9.1,2.72,15.83,3.23,7.77.6,16.61,2.06,24.78,3.13,4.76.62,24.07.76,29.45.78,15.52.05,32.77-4.33,53.83-2.62,13.38,1.09,27.46,1.36,40.88,1.8,10.66.34,19.78-2.9,30.41-3.6,8.96-.59,16.54-.41,24.41-.41,3.8,0,16.3-1.41,16.3-1.41.32-.04.59-.27.66-.58.08-.31-.05-.64-.32-.82,0,0-1.33-.89-2.12-1.98-.18-.25-.34-.51-.42-.77-.09-.26-.11-.53.06-.77.65-.92,1.79-1.26,3.05-1.3,2.12-.06,4.58.77,6.1,1.79.48.32.86.66,1.07.99.09.14.17.27.11.39-.19.37-.63.6-1.23.98-1.15.74-2.86,1.82-4.98,4.13-1.31,1.43-1.48,2.55-1.22,3.34.26.78,1,1.35,1.9,1.68,1.19.42,2.62.41,3.12.25,4.07-1.36,5.73-2.21,8.11-3.37,3.25-1.6,5.17-1.93,7.91-1.92,2.46,0,7.5-.2,11.68.69,5.83,1.23,11.18,2.15,19.63,2.15,6.66,0,13.94.58,20.52.43,6.26-.15,21.69.14,24.78.07,1.78-.04,4.34,0,6.45-.75,1.55-.55,2.87-1.52,3.57-3.15,1.14-2.65,1.88-5.9,2.03-8.15.28-4.24.56-7.47.62-11.24.14-9.28-.82-95.16-1.11-105.94-.12-4.5-3.08-6.69-5.92-7.74-1.02-.37-1.73-.62-2.23-.68-.61-.07-1.02.09-1.31.4-.18.19-.32.45-.4.83-.07.35-.09.83-.06,1.48.02.48.02.88.01,1.19-2.08-.02-8.04-.06-10.67-.08-5.39-.03-11-.25-16.59-.4-3.89-.1-7.41-.23-11.37-.54-3.6-.28-7.38-.27-11.11-.48-2.04-.11-5.32,1.17-8.58,2.4-1.84.7-3.68,1.36-5.27,1.68-.95.19-1.79.25-2.46.08-.12-.03-.2-.03-.23-.09-.04-.07-.05-.16-.07-.24-.03-.12-.06-.25-.11-.38-.12-.33-.32-.68-.75-1.03-.2-.16-.47-.27-.82-.3-.31-.03-.72,0-1.18.07-.74.11-1.68.3-2.6.33-.78.03-1.56-.05-2.16-.5-2.57-1.93-3.37-3.02-3.72-3.38-.29-.3-.55-.37-.73-.37-4.69-.19-8.79.32-13.09.32-8.07,0-16.32.63-24.38,1.14-6,.38-9.83.17-17.19.14-.87,0-2.8.25-3.91,1.09-.5.38-1.11,1.02-1.81,1.52-.52.37-1.09.69-1.71.55-.03,0-.04-.04-.05-.07-.02-.09-.02-.19-.02-.29,0-.34.08-.73.12-1.1.05-.41.06-.8,0-1.12-.1-.51-.35-.9-.81-1.13-.1-.05-.3-.12-.59-.16-.41-.06-1.13-.1-2.05-.14-5.08-.18-16.85-.01-20.23-.19-6-.32-8.08,1.49-31.43,1.24-6.8-.07-16.92.35-23.74.33-9.05-.03-19.41-.51-28.56-.47-15.61.07-30.18,1.01-45.91,1.27-10.34.18-16.83-.86-27.04-.68-6.1.11-15.17.25-21.18.85-1.62.16-2.62-.07-3.58-.16-1.12-.09-2.2-.03-3.94.84-.35.17-1.91,1.51-2.81,2.7-.47.63-.75,1.24-.76,1.66-.08,5.14-.54,9.35-.72,14.66-.45,12.86,1.96,87.8,1.75,97.95-.04,2.06.38,14.16.39,14.32,0,.02,0,.04,0,.05Zm353.22-134.29c-.01.06-.03.12-.03.18-.02.24-.02.54,0,.92.06,1.32-.04,2.13-.04,2.13-.04.39-.38.68-.77.68,0,0-8.19-.07-11.39-.09-5.41-.03-11.03-.25-16.63-.4-3.92-.1-7.46-.24-11.45-.55-3.59-.27-7.36-.26-11.08-.47-.87-.05-1.99.21-3.25.61-2.03.63-4.38,1.62-6.6,2.4-2.64.93-5.12,1.54-6.76,1.11-.86-.22-1.13-.61-1.29-1.04-.06-.14-.09-.29-.13-.45-.04-.15-.09-.33-.27-.5-.06,0-.21-.02-.33,0-.34.02-.77.09-1.23.17-1.67.27-3.79.5-5.22-.57-2.14-1.61-3.12-2.66-3.62-3.23-.07-.08-.15-.17-.21-.23-4.57-.16-8.58.33-12.79.33-8.04,0-16.25.63-24.28,1.13-6.04.38-9.89.17-17.29.15-.66,0-2.13.14-2.97.78-.62.47-1.43,1.34-2.35,1.87-.76.44-1.6.67-2.46.47-1.03-.24-1.32-1.06-1.24-2.12.03-.46.14-.97.15-1.41,0-.09,0-.17-.01-.25,0-.01,0-.02,0-.04-.25-.03-1.1-.12-1.99-.15-5.08-.18-16.87-.01-20.26-.19-5.99-.32-8.06,1.49-31.36,1.24-6.8-.07-16.91.35-23.73.33-9.04-.02-19.41-.51-28.55-.46-15.6.07-30.17,1.01-45.89,1.27-10.34.18-16.83-.86-27.04-.68-6.07.11-15.08.25-21.05.84-1.42.14-2.4.01-3.28-.09-1.12-.13-2.03-.21-3.71.62-.24.12-1.18.98-1.92,1.82-.24.28-.46.56-.62.82-.09.15-.18.27-.18.37-.08,5.16-.54,9.37-.72,14.69-.45,12.86,1.96,87.77,1.75,97.92-.03,1.32.14,6.76.26,10.52.67-.73,1.75-1.31,3.06-1.72,3.56-1.11,8.88-1.08,11.04-.55h0s0,0,0,0h0c6.21,1.55,9.3,2.81,16.13,3.33,7.8.6,16.67,2.06,24.86,3.13,4.73.62,23.91.75,29.25.77,15.55.05,32.84-4.33,53.95-2.61,13.36,1.09,27.41,1.36,40.81,1.79,10.61.34,19.68-2.9,30.26-3.6,9-.59,16.61-.41,24.51-.41,2.87,0,10.73-.82,14.31-1.2-.36-.34-.73-.73-1.03-1.15-.79-1.08-1.1-2.3-.38-3.33.92-1.31,2.49-1.9,4.27-1.95,2.43-.07,5.26.88,7,2.05.84.57,1.44,1.2,1.7,1.79.25.56.24,1.1-.02,1.59-.23.43-.63.81-1.23,1.21-1.07.72-2.87,1.67-5.21,4.22-.43.47-.7.87-.84,1.23-.09.23-.11.42-.05.58.12.37.53.56.96.72.81.29,1.78.35,2.12.24,3.98-1.33,5.6-2.16,7.92-3.3,3.52-1.73,5.61-2.08,8.6-2.08,2.53,0,7.7-.19,11.99.72,5.74,1.21,11,2.11,19.32,2.12,6.64,0,13.91.59,20.48.43,6.26-.15,21.69.14,24.79.07,1.39-.03,3.28,0,5.01-.39,1.54-.35,2.97-1.05,3.63-2.58,1.07-2.48,1.76-5.53,1.9-7.64.28-4.21.55-7.42.61-11.16.15-9.28-.82-95.1-1.11-105.87-.1-3.71-2.58-5.47-4.92-6.34-.62-.23-1.12-.41-1.51-.52-.13-.04-.28-.06-.37-.07Zm-339.05,129.52c-1.96-.25-5.11-.21-7.76.32-1.21.25-2.32.59-3.14,1.08-.45.27-.8.57-1,.94-.46.89-.7,1.6-.75,2.18v.13c0,.05,0,.11,0,.16.01.27.08.51.2.72.26.46.74.71,1.29.89.69.22,1.48.3,2.23.33,3.38.15,7.11-.12,8.52-.23.11-.59.25-1.44.25-1.69,0-1.03-.14-2-.14-2.91,0-.68.07-1.32.29-1.92Z"/>
      </g>
      <path class="cls-9" d="m1310.08,639.79s.65-2.15.19-3.9c-.29-1.12-.83-2.23-1.53-2.92-1.42-1.4-3.71-2.58-5.84-2.51-.64.02-1.08-.05-1.36-.29-.26-.22-.34-.56-.38-.97-.14-1.26.18-3.05.23-5.11.11-4.34.49-6.02,1.44-9.8.97-3.91,2.14-5.65,2.41-11.52.3-6.24-2.9-73.43-3.06-78.79-.06-2.11.69-11.31.72-13.64,0-.44-.35-.81-.8-.81-.44,0-.81.35-.81.79-.03,2.34-.78,11.58-.72,13.7.16,5.36,3.36,72.44,3.07,78.67-.27,5.72-1.42,7.41-2.37,11.21-.98,3.92-1.37,5.66-1.48,10.15-.05,2.15-.37,4.02-.22,5.33.1.88.4,1.55.94,2.01.52.44,1.29.71,2.46.67,1.71-.06,3.52.93,4.66,2.05.52.51.89,1.35,1.1,2.18.35,1.36-.17,3.02-.17,3.02-.13.43.11.87.53,1,.42.13.87-.11,1-.53Z"/>
    </g>
    <g id="Ebene7">
      <path class="cls-12" d="m947.19,388.12c-.02,1.25,4.07,3.63,5.27,5.11,1.24,1.55,1.65,5.44,1.2,6.43-1.23,2.68-4.54-2.61-5.53-3.8-.64-.76-2.28-1.74-2.25-1.01.05,1.1.42,3,.41,9.39-.01,4.97.29,12.76.29,14.78,0,1.42-1.09,7.78.75,7.51,2.9-.43,10.6-1.03,13.68-1.64,7.05-1.41,12.42-.97,21.45,1.05,5.52,1.23,8.16,1.06,13.51,1.01,4.64-.04,15.95-.44,19.21-.94,6.16-.94,12.48-1.91,18.74-2.07,6.57-.16,13.07.54,19.51,1.29,8.27.97,17.24,2.78,25.58,3.24,6.79.38,14.86,1.46,21.75,1.3,2.68-.06,7.47-.6,8.52-3.77.29-.87.07-2.49.03-4.73-.06-3.04-.58-12.72-.56-15.24.02-3.98.42-11.96.25-16.34-.05-1.47-.13-1.72-1.09-2.43-1.91-1.43-5.05-3.73-6.11-4.34-.96-.56-2.17-1.12-3.3-1.07-.51.02-1.87-.05-1.87.47,0,.97.04,1.54-.03,2.87-.02.3-4.31.44-5.42.44-5.18,0-10.25-.27-15.39-.27-9.65,0-20.51-.06-30.08-.79-4.64-.35-12.61-1.06-14.04-1.02-1.27.04-9.17.02-11.21.02-4.3,0-8.56.16-12.8.46-6.17.44-14.25,1.77-20.45,1.9-3.23.06-15.77-.06-21.12-.31-5.21-.25-11.62-.16-16.71-.87-2.39-.33-2.13.04-2.19,3.35Z"/>
      <path class="cls-6" d="m967.32,386.76c2.75.05,11.8.09,11.45.31-1.37.86-3.12,1.45-4.58,2.47-1.63,1.14-4.05,2.84-5.4,4.28-1.14,1.22-2.18,2.35-2.8,3.94-.73,1.89-.59,3.4.24,5.15.36.76,1.53,2.83,1.9,3.6,1.04,2.15,1.31,3.44,3.16,4.63.79.51,1.53,1.09,2.34,1.55,1.02.57,4.95,3.22,5.78,4.12,1.74,1.87,4.41,4.32,4.16,6.95-.06.64-1.68.89-2.05.81-.45-.1-4.49-.82-5.74-.81-.47,0-3.87-.02-4.79.03-.7.04-5.07-.03-5.77.09-5.23.87-6.83,1.45-10.66,1.76-1.87.15-3.3.4-5.31.51-2.16.11-2.24-.54-2.25-1.6-.02-1.35.04-3.33.04-4.7,0-2.72,0-7.21-.01-7.85-.07-2.85-.06-5.12-.02-7.87.04-2.33.14-4.04.23-6.32.03-.76.6-1.43,1.31-.42,1.07,1.5,1.23,2.21,2.78,3.45,1.01.81,2.61,1.04,2.69-.29.09-1.37-.06-2.68.01-3.91.1-1.78-1.29-3.22-2.28-4.53-.78-1.02-1.95-1.86-2.43-2.34-.97-.97-2.26-1.7-2.13-2.98.04-.4.05-1.4.2-1.76.22-.54,1.78-.2,3.26-.11,1.71.1,5.24.76,7.3.81,2.6.07,8.57,1.01,9.35,1.03Z"/>
      <path class="cls-11" d="m1056.86,385.9c-2.81.01-8.3-.92-8.88.05-.56.95,3,2.96,3.72,3.63,2.71,2.53,5.15,5.17,8.18,6.55,1.67.76,5.1,2.8,6.43,3.24,4.34,1.45,9.05,2.13,13.65,2.33,4.95.21,7.33.13,11.09,3.33,1.64,1.39,5.26,1.95,6.84,1.96,1.94.02,4.53-2.01,4.84-2.79.44-1.11,1.05-4.57.92-5.71-.3-2.59.16-8.36-.72-10.82-.77-2.15-5.67-1.64-8.71-1.58-4.86.1-13.53.04-17.44.02-4.29-.03-15.63-.25-19.93-.23Z"/>
      <path class="cls-8" d="m1097.84,396.98c-.31-.42.04-4.57-.02-5.63-.11-1.98-.59-5.19-.56-7.17.05-3.04.99-3.01,2.3-2.29,1.5.82,2.82,1.42,4.42,2.27,1.49.8,2.68.9,3.56,2.3,1.11,1.77,1.14,4.46,1.21,6.9.06,2.22.07,4.83.04,7.16-.02,1.59-.86,4.3-.99,5.88-.13,1.69-.4,2.03-.28,3.73.08,1.12.77,3.44.7,4.97-.1,2.25.38,2.73.63,4.96.12,1.07.07,2.81.05,3.21-.04,1.05-1.87-.28-3.08-1.12-1.54-1.08-3.12-.88-4.86-.88-.8,0-2.28-.01-2.15-1.32.18-1.78.13-3.82.01-5.62-.02-.38-.22-.8-.73-1.83-.68-1.37-1.03-1.79-.95-3.62.06-1.34,0-3.41,0-4.75,0-.47,0-.91,0-1.39,0-.3.46-.57,1.02-.53,1.37.09,3.02.25,3.59-1.2.37-.94-.04-1.83-.88-2.67-.21-.21-2.55-.75-3.02-1.39Z"/>
      <path class="cls-9" d="m1096.64,402.03s0,.18-.02.32c-.04.57-.13,1.58-.03,3.24.15,2.54-.11,3.52.38,5.97.14.72.42,1.35.72,2.03.38.86.8,1.8.88,3.25.07,1.19-.51,2.53-.68,3.39-.15.74,0,1.28.28,1.57.12.13.4.29.8.38.83.2,2.53.3,2.86.37.29.06,1.77.22,3.12.48.77.15,1.5.31,1.83.54.44.3.82.58,1.07,1.02.25.44.36,1.03.32,1.88-.02.44.32.82.77.84.44.02.82-.32.84-.77.05-1.25-.16-2.09-.53-2.74-.37-.65-.91-1.12-1.57-1.56-.35-.23-.99-.46-1.74-.63-1.49-.35-3.45-.56-3.79-.63-.28-.06-2.02-.28-2.69-.37.02-.13.05-.3.09-.43.26-.96.69-2.26.62-3.43-.09-1.43-.43-2.44-.81-3.32-.32-.76-.67-1.4-.83-2.18-.47-2.36-.2-3.31-.35-5.75-.08-1.35-.04-2.26,0-2.86l.71.19c.56.15,1.17.26,1.72.23.72-.04,1.35-.3,1.8-.9.42-.58.62-1.17.57-1.81-.05-.58-.3-1.23-.89-1.95-.38-.47-1.09-.88-1.86-1.18-.66-.25-1.36-.44-1.84-.55.01-1.9.28-5.1.06-6.1-.27-1.28-.04-4.37-.21-7.72-.02-.44-.4-.78-.84-.76-.44.02-.78.4-.76.84.18,3.45-.04,6.64.24,7.96.23,1.08-.15,4.76-.09,6.43,0,.06.05.62.69.78.29.07,1.27.27,2.17.62.48.19.95.39,1.18.69.37.47.57.84.54,1.21-.02.21-.12.4-.26.6-.14.18-.34.23-.55.25-.23.02-.48-.01-.73-.06-.83-.15-1.65-.47-2.08-.5-.47-.03-.77.16-.94.37-.14.17-.24.42-.19.76Zm1.59-.11s0-.07,0-.12c0,.03,0,.07,0,.12Z"/>
      <g>
        <path class="cls-7" d="m955.85,404.5c-.59-.63-2.2-.15-2.64.89-.48,1.12.61,2.07,2.06,2.64,1.44.56,1.96-2.04.58-3.52Z"/>
        <path class="cls-9" d="m956.41,403.98c-.39-.42-1.04-.61-1.74-.49-.87.14-1.8.75-2.17,1.6-.36.85-.16,1.65.44,2.34.46.53,1.2.99,2.05,1.32.53.21,1,.16,1.38-.04.35-.18.65-.51.83-.95.42-.99.27-2.64-.79-3.78Zm-1.13,1.05c.51.55.68,1.3.57,1.87-.04.24-.09.5-.31.41-.6-.23-1.13-.53-1.45-.9-.19-.21-.29-.45-.18-.72.16-.38.6-.62,1-.69.14-.02.29-.06.37.02Z"/>
      </g>
      <path class="cls-9" d="m1095.86,384.58c-1.03.08-3.9.28-4.67.28-5.18,0-10.25-.27-15.39-.27-9.63,0-20.47-.06-30.02-.78-4.66-.35-12.68-1.07-14.13-1.02-1.27.04-9.14.02-11.18.02-4.32,0-8.6.16-12.85.47-6.15.44-14.23,1.77-20.41,1.89-3.23.06-15.73-.06-21.07-.31-5.19-.25-11.57-.16-16.64-.86-.65-.09-1.14-.13-1.49-.09-.38.04-.66.16-.88.33-.3.24-.52.62-.61,1.22-.08.55-.07,1.4-.09,2.63,0,.3.09.61.32.93.21.29.55.61.98.93.83.61,2.02,1.29,2.97,2.02.52.4.98.81,1.18,1.26.55,1.22,1.32,3.82,1.52,5.56.04.34.06.64.04.89,0,.09-.03.22-.04.26-.06.09-.13.15-.21.18-.15.05-.3-.02-.47-.11-.22-.12-.45-.28-.67-.49-1.37-1.21-2.76-3.47-3.34-4.17-.55-.66-1.73-1.42-2.36-1.53-.45-.07-.78.07-.98.29-.16.17-.28.41-.27.76.05,1.09.42,2.99.41,9.35-.01,4.97.29,12.76.29,14.79,0,1.01-.53,4.5-.21,6.4.22,1.34.92,2.01,1.84,1.87,2.91-.44,10.63-1.03,13.72-1.65,6.95-1.39,12.23-.94,21.13,1.05,5.59,1.25,8.26,1.08,13.68,1.03,4.67-.04,16.04-.45,19.32-.95,6.13-.93,12.42-1.9,18.64-2.06,6.53-.16,13,.54,19.4,1.29,8.28.97,17.27,2.78,25.63,3.24,6.81.38,14.9,1.47,21.81,1.3,1.69-.04,4.18-.27,6.14-1.16,1.44-.66,2.6-1.66,3.1-3.14.31-.92.11-2.63.07-4.99-.03-1.75-1-9.75-.96-12.64.03-2.51.95-6.82.96-7.89.03-4-.15-6.68-.31-11.07-.04-1.08-.14-1.62-.43-2.08-.2-.31-.49-.59-.97-.95-1.93-1.44-5.11-3.77-6.18-4.39-1.08-.63-2.45-1.23-3.72-1.17-.41.02-1.3,0-1.8.19-.55.2-.81.59-.81,1.05,0,.8.03,1.33,0,2.26Zm-148.57,41.18s-.04-.07-.05-.1c-.05-.14-.09-.3-.12-.48-.3-1.83.23-5.18.23-6.15,0-2.02-.3-9.81-.29-14.78,0-4.98-.21-7.24-.34-8.52.31.19.65.43.81.63.61.73,2.08,3.07,3.51,4.34.89.79,1.82,1.14,2.57.93.38-.11.75-.35,1.07-.79.11-.15.2-.36.25-.62.08-.38.07-.93,0-1.57-.22-1.88-1.05-4.7-1.65-6.02-.25-.56-.74-1.11-1.36-1.62-.8-.66-1.82-1.27-2.67-1.84-.42-.28-.8-.54-1.06-.8-.09-.08-.2-.23-.23-.27.02-.95,0-1.65.05-2.15.01-.18.06-.4.08-.47.04,0,.12-.02.17-.02.26,0,.59.03,1.01.09,5.11.7,11.55.62,16.78.87,5.37.25,17.93.37,21.18.31,6.21-.12,14.31-1.46,20.49-1.9,4.21-.3,8.46-.46,12.74-.46,2.05,0,9.96.02,11.23-.02,1.43-.05,9.35.67,13.96,1.01,9.59.72,20.47.79,30.14.79,5.14,0,10.21.27,15.39.27,1.05,0,4.79-.14,5.54-.39.52-.18.63-.57.64-.77.06-1.17.04-1.76.04-2.53.31-.03.91-.07,1.13-.08.99-.04,2.04.48,2.88.97,1.05.61,4.15,2.88,6.03,4.29.28.21.47.36.59.54.18.28.16.63.19,1.31.16,4.37.34,7.03.31,11.01,0,1.07-.93,5.37-.96,7.87-.04,2.9.93,10.93.96,12.69.02,1.34.12,2.46.12,3.33,0,.48-.01.86-.11,1.15-.35,1.06-1.23,1.75-2.27,2.22-1.77.8-4.01.99-5.54,1.02-6.87.16-14.92-.93-21.69-1.3-8.33-.46-17.28-2.27-25.53-3.24-6.47-.76-13.01-1.46-19.62-1.3-6.29.16-12.64,1.13-18.84,2.07-3.24.5-14.49.89-19.1.93-5.28.05-7.89.23-13.34-.99-9.17-2.05-14.61-2.49-21.77-1.06-3.04.61-10.61,1.19-13.56,1.62Z"/>
      <path class="cls-9" d="m1079.01,390.49c1.65.04,3.05.4,4.64.72.42.08.82-.19.91-.6.08-.42-.19-.82-.6-.91-1.69-.34-3.17-.71-4.91-.75-.42,0-.78.33-.79.75,0,.42.33.78.75.79Z"/>
      <path class="cls-9" d="m1086.9,389.67c.26-.04.56-.06.84-.02.18.03.36.07.48.19.3.3.79.3,1.09,0,.3-.3.3-.79,0-1.09-.63-.63-1.76-.73-2.63-.6-.42.06-.71.45-.65.87.06.42.45.71.87.65Z"/>
    </g>
    <g id="Ebene71">
      <path class="cls-12" d="m1146.16,477.45c-.02-1.25.91-3.22.79-5.73-.14-2.93-1.69-3.99-1.7-10.38-.01-4.97.29-12.76.29-14.78,0-1.42-1.09-7.78.75-7.51,2.9.43,10.6,1.03,13.68,1.64,7.05,1.41,12.42.97,21.45-1.05,5.52-1.23,8.16-1.06,13.51-1.01,4.64.04,15.95.44,19.21.94,6.16.94,12.48,1.91,18.74,2.07,6.57.16,13.07-.54,19.51-1.29,4.51-.53,12.76-2.37,14.34-1.23,2.74,1.98,3.55.86,7.57-1.09,2.61-1.26,7.1-1.32,11.94-1.58,4.84-.26,10.03-.72,13.48-.64,2.68.06,7.47.6,8.52,3.77.29.87.07,2.49.03,4.73-.03,1.75-1,9.77-.96,12.66.03,2.5.95,6.81.96,7.88.03,3.98-.15,6.66-.31,11.04-.05,1.47-.13,1.72-1.09,2.43-1.91,1.43-5.05,3.73-6.11,4.34-.96.56-2.17,1.12-3.3,1.07-.51-.02-1.87.05-1.87-.47,0-.97.04-1.54-.03-2.87-.02-.3-4.31-.44-5.42-.44-5.18,0-10.25.27-15.39.27-9.65,0-20.51.06-30.08.79-4.64.35-12.61,1.06-14.04,1.02-1.27-.04-9.17-.02-11.21-.02-4.3,0-8.56-.16-12.8-.46-6.17-.44-14.25-1.77-20.45-1.9-3.23-.06-15.77.06-21.12.31-5.21.25-11.62.16-16.71.87-2.39.33-2.13-.04-2.19-3.35Z"/>
      <path class="cls-6" d="m1166.28,478.81c2.75-.05,11.8-.09,11.45-.31-1.37-.86-3.12-1.45-4.58-2.47-1.63-1.14-4.05-2.84-5.4-4.28-1.14-1.22-2.18-2.35-2.8-3.94-.73-1.89-.59-3.4.24-5.15.36-.76,1.53-2.83,1.9-3.6,1.04-2.15,1.31-3.44,3.16-4.63.79-.51,1.53-1.09,2.34-1.55,1.02-.57,4.95-3.22,5.78-4.12,1.74-1.87,4.41-4.32,4.16-6.95-.06-.64-1.68-.89-2.05-.81-.45.1-4.49.82-5.74.81-.47,0-3.87.02-4.79-.03-.7-.04-5.07.03-5.77-.09-5.23-.87-6.83-1.45-10.66-1.76-1.87-.15-3.3-.4-5.31-.51-2.16-.11-2.24.54-2.25,1.6-.02,1.35.04,3.33.04,4.7,0,2.72,0,7.21-.01,7.85-.07,2.85-.06,5.12-.02,7.87.04,2.33.14,4.04.23,6.32.03.76.6,1.43,1.31.42,1.07-1.5,1.23-2.21,2.78-3.45,1.01-.81,2.61-1.04,2.69.29.09,1.37-.06,2.68.01,3.91.1,1.78-1.29,3.22-2.28,4.53-.78,1.02-1.95,1.86-2.43,2.34-.97.97-2.26,1.7-2.13,2.98.04.4.05,1.4.2,1.76.22.54,1.78.2,3.26.11,1.71-.1,5.24-.76,7.3-.81,2.6-.07,8.57-1.01,9.35-1.03Z"/>
      <path class="cls-11" d="m1255.82,479.67c-2.81-.01-8.3.92-8.88-.05-.56-.95,3-2.96,3.72-3.63,2.71-2.53,5.15-5.17,8.18-6.55,1.67-.76,5.1-2.8,6.43-3.24,4.34-1.45,9.05-2.13,13.65-2.33,4.95-.21,7.33-.13,11.09-3.33,1.64-1.39,5.26-1.95,6.84-1.96,1.94-.02,4.53,2.01,4.84,2.79.44,1.11,1.05,4.57.92,5.71-.3,2.59.16,8.36-.72,10.82-.77,2.15-5.67,1.64-8.71,1.58-4.86-.1-13.53-.04-17.44-.02-4.29.03-15.63.25-19.93.23Z"/>
      <path class="cls-8" d="m1296.8,468.59c-.31.42.04,4.57-.02,5.63-.11,1.98-.59,5.19-.56,7.17.05,3.04.99,3.01,2.3,2.29,1.5-.82,2.82-1.42,4.42-2.27,1.49-.8,2.68-.9,3.56-2.3,1.11-1.77,1.14-4.46,1.21-6.9.06-2.22.07-4.83.04-7.16-.02-1.59-.86-4.3-.99-5.88-.13-1.69-.4-2.03-.28-3.73.08-1.12.77-3.44.7-4.97-.1-2.25.38-2.73.63-4.96.12-1.07.07-2.81.05-3.21-.04-1.05-1.87.28-3.08,1.12-1.54,1.08-3.12.88-4.86.88-.8,0-2.28.01-2.15,1.32.18,1.78.13,3.82.01,5.62-.02.38-.22.8-.73,1.83-.68,1.37-1.03,1.79-.95,3.62.06,1.34,0,3.41,0,4.75,0,.47,0,.91,0,1.39,0,.3.46.57,1.02.53,1.37-.09,3.02-.25,3.59,1.2.37.94-.04,1.83-.88,2.67-.21.21-2.55.75-3.02,1.39Z"/>
      <path class="cls-9" d="m1295.6,463.54c-.05.34.05.59.19.76.17.22.47.4.94.37.42-.03,1.24-.34,2.08-.5.25-.05.5-.08.73-.06.21.02.42.07.55.25.14.19.24.39.26.6.03.36-.16.74-.54,1.21-.24.29-.7.5-1.18.69-.9.35-1.89.54-2.17.62-.64.16-.69.72-.69.78-.06,1.67.32,5.35.09,6.43-.28,1.32-.06,4.51-.24,7.96-.02.44.32.82.76.84.44.02.82-.32.84-.76.17-3.34-.06-6.43.21-7.72.21-1.01-.05-4.2-.06-6.1.48-.12,1.18-.3,1.84-.55.77-.3,1.48-.71,1.86-1.18.58-.72.84-1.37.89-1.95.05-.64-.14-1.24-.57-1.81-.44-.6-1.08-.86-1.8-.9-.55-.03-1.16.09-1.72.23l-.71.19c-.04-.59-.08-1.51,0-2.86.15-2.44-.12-3.39.35-5.75.16-.77.51-1.42.83-2.18.37-.88.72-1.89.81-3.32.07-1.17-.36-2.46-.62-3.43-.04-.14-.07-.3-.09-.43.67-.09,2.41-.31,2.69-.37.34-.07,2.31-.28,3.79-.63.75-.17,1.39-.4,1.74-.63.66-.44,1.2-.91,1.57-1.56.37-.65.58-1.49.53-2.74-.02-.44-.39-.79-.84-.77-.44.02-.79.39-.77.84.04.85-.07,1.44-.32,1.88-.25.44-.63.73-1.07,1.02-.34.22-1.07.38-1.83.54-1.35.26-2.83.42-3.12.48-.34.07-2.03.17-2.86.37-.4.1-.67.26-.8.38-.29.29-.44.83-.28,1.57.17.86.75,2.2.68,3.39-.09,1.45-.5,2.4-.88,3.25-.3.67-.58,1.3-.72,2.03-.49,2.45-.22,3.43-.38,5.97-.1,1.66-.01,2.67.03,3.24.01.13.02.29.02.32Zm1.59.11s0,.08,0,.12c0-.04,0-.08,0-.12Z"/>
      <path class="cls-9" d="m1294.83,481c.03.93,0,1.45,0,2.26,0,.46.26.85.81,1.05.5.18,1.39.17,1.8.19,1.27.05,2.64-.55,3.72-1.17,1.07-.62,4.25-2.95,6.18-4.39.48-.36.77-.64.97-.95.29-.45.39-.99.43-2.08.16-4.39.34-7.08.31-11.07,0-1.07-.93-5.38-.96-7.89-.04-2.89.93-10.89.96-12.64.04-2.37.24-4.07-.07-4.99-.49-1.47-1.65-2.48-3.1-3.14-1.96-.89-4.45-1.12-6.14-1.16-6.89-.16-14.96,1.34-21.76,1.3-3.89-.02-5.36.86-7.44,2.74-.14.13-.47.28-.83.32-.29.03-.61-.04-.83-.36-.38-.57-.69-.9-1.06-1.09-.51-.25-1.19-.24-2.55.07-4.01.93-8.98,1.1-12.97,1.57-6.4.75-12.87,1.45-19.4,1.29-6.22-.15-12.51-1.12-18.64-2.06-3.28-.5-14.65-.9-19.32-.95-5.42-.05-8.1-.22-13.68,1.03-8.9,1.99-14.19,2.44-21.13,1.05-3.08-.62-10.81-1.21-13.72-1.65-.92-.14-1.62.53-1.84,1.87-.32,1.9.21,5.39.21,6.4,0,2.03-.3,9.82-.29,14.79,0,4.02.93,5.93,1.71,7.48.44.89.84,1.63.89,2.69.07,1.38-.54,2.66-1.01,3.71-.4.89-.7,1.67-.69,2.25.02,1.24,0,2.08.09,2.63.09.61.3.98.61,1.22.22.17.5.29.88.33.35.04.83,0,1.49-.09,5.07-.7,11.45-.61,16.64-.86,5.34-.25,17.85-.37,21.07-.31,6.19.12,14.26,1.46,20.41,1.89,4.25.3,8.53.47,12.85.47,2.04,0,9.91-.02,11.18.02,1.45.05,9.47-.67,14.13-1.02,9.55-.72,20.39-.78,30.02-.78,5.14,0,10.21-.27,15.39-.27.78,0,3.65.21,4.67.28Zm1.55,1.88c0-.77.03-1.37-.04-2.53-.01-.2-.12-.59-.64-.77-.75-.26-4.49-.39-5.54-.39-5.18,0-10.25.27-15.39.27-9.67,0-20.55.06-30.14.79-4.61.35-12.53,1.06-13.96,1.01-1.27-.04-9.18-.02-11.23-.02-4.29,0-8.53-.16-12.74-.46-6.18-.44-14.28-1.78-20.49-1.9-3.24-.06-15.81.06-21.18.31-5.23.25-11.67.17-16.78.87-.42.06-.75.1-1.01.09-.06,0-.13-.01-.17-.02-.02-.08-.07-.3-.08-.47-.04-.51-.03-1.23-.05-2.2,0-.42.27-.95.55-1.59.56-1.25,1.22-2.77,1.14-4.41-.06-1.29-.51-2.21-1.05-3.3-.7-1.41-1.54-3.15-1.55-6.8-.01-4.97.29-12.76.29-14.78,0-.97-.54-4.32-.23-6.15.03-.18.07-.34.12-.48.01-.03.03-.07.05-.1,2.95.43,10.52,1.02,13.56,1.62,7.16,1.43,12.6.99,21.77-1.06,5.44-1.22,8.05-1.04,13.34-.99,4.61.04,15.86.43,19.1.93,6.19.94,12.55,1.92,18.84,2.07,6.61.16,13.14-.54,19.62-1.3,4.04-.48,9.07-.66,13.13-1.6.5-.12.87-.19,1.17-.22.15-.01.26-.02.35.03.18.09.28.28.46.55.6.9,1.47,1.13,2.27,1.05.74-.08,1.41-.44,1.71-.71,1.78-1.61,3.05-2.36,6.39-2.34,6.79.04,14.85-1.46,21.74-1.3,1.53.04,3.77.22,5.54,1.02,1.04.47,1.92,1.16,2.27,2.22.1.29.11.67.11,1.15,0,.87-.1,1.98-.12,3.33-.03,1.75-1,9.79-.96,12.69.03,2.5.95,6.81.96,7.87.03,3.97-.15,6.64-.31,11.01-.02.68,0,1.03-.19,1.31-.12.18-.31.33-.59.54-1.89,1.41-4.99,3.69-6.03,4.29-.84.49-1.89,1.01-2.88.97-.22,0-.82-.06-1.13-.08Z"/>
      <path class="cls-9" d="m1278.01,476.62c1.74-.04,3.23-.41,4.91-.75.42-.08.69-.49.6-.91-.08-.42-.49-.69-.91-.6-1.59.32-3,.68-4.64.72-.42,0-.76.36-.75.79,0,.42.36.76.79.75Z"/>
      <path class="cls-9" d="m1285.64,477.43c.87.13,2,.03,2.63-.6.3-.3.3-.79,0-1.09-.3-.3-.79-.3-1.09,0-.12.12-.3.16-.48.19-.28.04-.58.02-.84-.02-.42-.06-.81.23-.87.65-.06.42.23.81.65.87Z"/>
    </g>
    <g id="Ebene72">
      <path class="cls-12" d="m1306.3,420.13c.02-1.25-4.51-2.86-5.39-4.8-.82-1.81-2.1-6.56-1.47-7.44,1.63-2.28,4.94,3.32,5.93,4.51.64.76,2.28,1.74,2.25,1.01-.05-1.1-.42-3-.41-9.39.01-4.97-.29-12.76-.29-14.78,0-1.42,1.09-7.78-.75-7.51-2.9.43-10.6,1.03-13.68,1.64-7.05,1.41-12.42.97-21.45-1.05-5.52-1.23-8.16-1.06-13.51-1.01-4.64.04-15.95.44-19.21.94-6.16.94-12.48,1.91-18.74,2.07-6.57.16-13.07-.54-19.51-1.29-8.27-.97-17.24-2.78-25.58-3.24-6.79-.38-14.86-1.46-21.75-1.3-2.68.06-7.47.6-8.52,3.77-.29.87-.07,2.49-.03,4.73.03,1.75,1,9.77.96,12.66-.03,2.5-.95,6.81-.96,7.88-.03,3.98.15,6.66.31,11.04.05,1.47.44,4.4,3.15,5.74,1.01.5,2.96,1.05,5.14,1.23,2.24.18,5.25.73,5.31-.36.06-.97.33-5.36.33-5.36,0,0,2.69,1.46,4.72,2.03,6.3,1.75,9.4,1.07,14.54,1.07,9.65,0,20.51.06,30.08.79,4.64.35,12.61,1.06,14.04,1.02,1.27-.04,9.17-.02,11.21-.02,4.3,0,8.56-.16,12.8-.46,6.17-.44,14.25-1.77,20.45-1.9,3.23-.06,15.77.06,21.12.31,5.21.25,11.62.16,16.71.87,2.39.33,2.13-.04,2.19-3.35Z"/>
      <path class="cls-6" d="m1286.18,421.48c-2.75-.05-11.8-.09-11.45-.31,1.37-.86,3.12-1.45,4.58-2.47,1.63-1.14,4.05-2.84,5.4-4.28,1.14-1.22,2.18-2.35,2.8-3.94.73-1.89.59-3.4-.24-5.15-.36-.76-1.53-2.83-1.9-3.6-1.04-2.15-1.31-3.44-3.16-4.63-.79-.51-1.53-1.09-2.34-1.55-1.02-.57-4.95-3.22-5.78-4.12-1.74-1.87-4.41-4.32-4.16-6.95.06-.64,1.68-.89,2.05-.81.45.1,4.49.82,5.74.81.47,0,3.87.02,4.79-.03.7-.04,5.07.03,5.77-.09,5.23-.87,6.83-1.45,10.66-1.76,1.87-.15,3.3-.4,5.31-.51,2.16-.11,2.24.54,2.25,1.6.02,1.35-.04,3.33-.04,4.7,0,2.72,0,7.21.01,7.85.07,2.85.06,5.12.02,7.87-.04,2.33-.14,4.04-.23,6.32-.03.76-.6,1.43-1.31.42-1.07-1.5-1.23-2.21-2.78-3.45-1.01-.81-2.61-1.04-2.69.29-.09,1.37.06,2.68-.01,3.91-.1,1.78,1.29,3.22,2.28,4.53.78,1.02,1.95,1.86,2.43,2.34.97.97,2.26,1.7,2.13,2.98-.04.4-.05,1.4-.2,1.76-.22.54-1.78.2-3.26.11-1.71-.1-5.24-.76-7.3-.81-2.6-.07-8.57-1.01-9.35-1.03Z"/>
      <path class="cls-8" d="m1144.98,392.53c-.01-3.18.17-9.4.42-9.4,1.55,0,2.16,1.18,3.29,3.75.84,1.92,1.76,4.31,2.13,6.43.38,2.21,1.03,7.09,1.34,9.69.48,4.15,1.33,8.58,1.09,12.53-.15,2.52.02,2.62-.91,2.57-.57-.03-2.31.1-3.23.16-1.34.09-2.61,1.14-3.31,1.92-.49.54-1.04-.27-1.04-.54,0-.97.03-2.64.03-3.62,0-2.68.03-5.7.03-8.38,0-5.16.18-10.06.16-15.11Z"/>
      <g>
        <path class="cls-7" d="m1295.07,417.83c.59.63,2.2.15,2.64-.89.48-1.12-.61-2.07-2.06-2.64-1.44-.56-1.96,2.04-.58,3.52Z"/>
        <path class="cls-9" d="m1294.51,418.36c.39.42,1.04.61,1.74.49.87-.14,1.8-.75,2.17-1.6.36-.85.16-1.65-.44-2.34-.46-.53-1.2-.99-2.05-1.32-.53-.21-1-.16-1.38.04-.35.18-.65.51-.83.95-.42.99-.27,2.64.79,3.78Zm1.13-1.05c-.51-.55-.68-1.3-.57-1.87.04-.24.09-.5.31-.41.6.23,1.13.53,1.45.9.19.21.29.45.18.72-.16.38-.6.62-1,.69-.14.02-.29.06-.37-.02Z"/>
      </g>
      <g>
        <path class="cls-6" d="m1145.58,422.48s.94-2.98,3.28-3.89c1.94-.76,4.31-.68,5.97-.25,2.77.73,3.76,1.65,5.36,2.36"/>
        <path class="cls-9" d="m1146.31,422.71s.79-2.62,2.82-3.41c1.79-.7,3.97-.62,5.5-.22,2.72.71,3.68,1.63,5.25,2.32.39.17.84,0,1.01-.39.17-.39,0-.84-.39-1.01-1.63-.72-2.65-1.65-5.48-2.4-1.79-.47-4.35-.54-6.45.27-2.64,1.03-3.73,4.38-3.73,4.38-.13.4.1.84.5.97.4.13.84-.1.97-.5Z"/>
      </g>
      <path class="cls-9" d="m1300.09,408.3c.06-.09.13-.15.21-.18.15-.05.3.02.47.11.22.12.45.28.67.49,1.37,1.21,2.76,3.47,3.34,4.17.55.66,1.73,1.42,2.36,1.53.45.07.78-.07.98-.29.16-.17.28-.41.27-.76-.05-1.09-.42-2.99-.41-9.35.01-4.97-.29-12.76-.29-14.79,0-1.01.53-4.5.21-6.4-.22-1.34-.92-2.01-1.84-1.87-2.91.44-10.63,1.03-13.72,1.65-6.95,1.39-12.23.94-21.13-1.05-5.59-1.25-8.26-1.08-13.68-1.03-4.67.04-16.04.45-19.32.95-6.13.93-12.42,1.9-18.64,2.06-6.53.16-13-.54-19.4-1.29-8.28-.97-17.27-2.78-25.63-3.24-6.81-.38-14.9-1.47-21.81-1.3-1.69.04-4.18.27-6.14,1.16-1.44.66-2.6,1.66-3.1,3.14-.31.92-.11,2.63-.07,4.99.03,1.75,1,9.75.96,12.64-.03,2.51-.95,6.82-.96,7.89-.03,4,.15,6.68.31,11.07.06,1.64.55,4.91,3.58,6.4,1.07.52,3.12,1.12,5.42,1.3,1.64.13,3.67.43,4.77.22.89-.17,1.34-.65,1.37-1.3.04-.65.17-2.82.26-4.19,1,.49,2.53,1.19,3.81,1.55,6.39,1.78,9.53,1.1,14.75,1.1,9.63,0,20.47.06,30.02.78,4.66.35,12.68,1.07,14.13,1.02,1.27-.04,9.14-.02,11.18-.02,4.32,0,8.6-.16,12.85-.47,6.15-.44,14.23-1.77,20.41-1.89,3.23-.06,15.73.06,21.07.31,5.19.25,11.57.16,16.64.86.65.09,1.14.13,1.49.09.38-.04.66-.16.88-.33.3-.24.52-.62.61-1.22.08-.55.07-1.4.09-2.63,0-.3-.09-.61-.32-.93-.21-.29-.55-.61-.98-.93-.83-.61-2.02-1.29-2.97-2.02-.52-.4-.98-.81-1.18-1.26-.55-1.22-1.32-3.82-1.52-5.56-.04-.34-.06-.64-.04-.89,0-.09.03-.22.04-.26Zm6.12-25.81s.04.07.05.1c.05.14.09.3.12.48.3,1.83-.23,5.18-.23,6.15,0,2.02.3,9.81.29,14.78,0,4.98.21,7.24.34,8.52-.31-.19-.65-.43-.81-.63-.61-.73-2.08-3.07-3.51-4.34-.89-.79-1.82-1.14-2.57-.93-.38.11-.75.35-1.07.79-.11.15-.2.36-.25.62-.08.38-.07.93,0,1.57.22,1.88,1.05,4.7,1.65,6.02.25.56.74,1.11,1.36,1.62.8.66,1.82,1.27,2.67,1.84.42.28.8.54,1.06.8.09.08.2.23.23.27-.02.95,0,1.65-.05,2.15-.01.18-.06.4-.08.47-.04,0-.12.02-.17.02-.26,0-.59-.03-1.01-.09-5.11-.7-11.55-.62-16.78-.87-5.37-.25-17.93-.37-21.18-.31-6.21.12-14.31,1.46-20.49,1.9-4.21.3-8.46.46-12.74.46-2.05,0-9.96-.02-11.23.02-1.43.05-9.35-.67-13.96-1.01-9.59-.72-20.47-.79-30.14-.79-5.06,0-8.13.69-14.33-1.04-1.96-.55-4.56-1.96-4.56-1.96-.23-.12-.51-.12-.74,0-.23.13-.38.36-.4.62,0,0-.25,3.98-.32,5.2-.12.03-.35.08-.54.09-1.07.06-2.65-.18-3.96-.29-2.06-.16-3.91-.68-4.87-1.15-2.39-1.17-2.68-3.79-2.72-5.08-.16-4.37-.34-7.03-.31-11.01,0-1.07.93-5.37.96-7.87.04-2.9-.93-10.93-.96-12.69-.02-1.34-.12-2.46-.12-3.33,0-.48.01-.86.11-1.15.35-1.06,1.23-1.75,2.27-2.22,1.77-.8,4.01-.99,5.54-1.02,6.87-.16,14.92.93,21.69,1.3,8.33.46,17.28,2.27,25.53,3.24,6.47.76,13.01,1.46,19.62,1.3,6.29-.16,12.64-1.13,18.84-2.07,3.24-.5,14.49-.89,19.1-.93,5.28-.05,7.89-.23,13.34.99,9.17,2.05,14.61,2.49,21.77,1.06,3.04-.61,10.61-1.19,13.56-1.62Z"/>
    </g>
    <g id="Ebene73">
      <path class="cls-12" d="m1108.55,482.37c.02-1.25-2.18-4.17-1.79-7.04.32-2.42,2.69-2.68,2.7-9.07.01-4.97-1.53-11.99-1.53-14.02,0-1.42,2.32-8.55.49-8.28-2.9.43-10.6,1.03-13.68,1.64-7.05,1.41-12.42.97-21.45-1.05-5.52-1.23-8.16-1.06-13.51-1.01-4.64.04-15.95.44-19.21.94-6.16.94-12.48,1.91-18.74,2.07-6.57.16-13.07-.54-19.51-1.29-8.27-.97-17.24-2.78-25.58-3.24-6.79-.38-14.86-1.46-21.75-1.3-2.68.06-7.47.6-8.52,3.77-.29.87-.07,2.49-.03,4.73.03,1.75,1,9.77.96,12.66-.03,2.5-.95,6.81-.96,7.88-.03,3.98.15,6.66.31,11.04.05,1.47.44,4.4,3.15,5.74,1.01.5,2.96,1.05,5.14,1.23,2.24.18,5.25.73,5.31-.36.06-.97.33-5.36.33-5.36,0,0,2.69,1.46,4.72,2.03,6.3,1.75,9.4,1.07,14.54,1.07,2.3,0,9.21-.85,9.23-1.64.04-1.57,2.56-.72,3.28-.66,1.58.14,2.91.84,3.63,1.22,4.32,2.3,9.37,1.52,13.94,1.86,4.64.35,12.61,1.06,14.04,1.02,1.27-.04,9.17-.02,11.21-.02,4.3,0,8.56-.16,12.8-.46,6.17-.44,14.25-1.77,20.45-1.9,3.23-.06,15.77.06,21.12.31,5.21.25,11.62.16,16.71.87,2.39.33,2.13-.04,2.19-3.35Z"/>
      <path class="cls-6" d="m1088.43,483.73c-2.75-.05-11.8-.09-11.45-.31,1.37-.86,3.12-1.45,4.58-2.47,1.63-1.14,4.05-2.84,5.4-4.28,1.14-1.22,2.18-2.35,2.8-3.94.73-1.89.59-3.4-.24-5.15-.36-.76-1.53-2.83-1.9-3.6-1.04-2.15-1.31-3.44-3.16-4.63-.79-.51-1.53-1.09-2.34-1.55-1.02-.57-4.95-3.22-5.78-4.12-1.74-1.87-4.41-4.32-4.16-6.95.06-.64,1.68-.89,2.05-.81.45.1,4.49.82,5.74.81.47,0,3.87.02,4.79-.03.7-.04,5.07.03,5.77-.09,5.23-.87,6.83-1.45,10.66-1.76,1.87-.15,3.3-.4,5.31-.51,2.16-.11,2.24.54,2.25,1.6.02,1.35-.04,3.33-.04,4.7,0,2.72,0,7.21.01,7.85.07,2.85.06,5.12.02,7.87-.04,2.33-.14,4.04-.23,6.32-.03.76-.6,1.43-1.31.42-1.07-1.5-1.23-2.21-2.78-3.45-1.01-.81-2.61-1.04-2.69.29-.09,1.37.06,2.68-.01,3.91-.1,1.78,1.29,3.22,2.28,4.53.78,1.02,1.95,1.86,2.43,2.34.97.97,2.26,1.7,2.13,2.98-.04.4-.05,1.4-.2,1.76-.22.54-1.78.2-3.26.11-1.71-.1-5.24-.76-7.3-.81-2.6-.07-8.57-1.01-9.35-1.03Z"/>
      <path class="cls-8" d="m947.23,454.78c-.01-3.18.17-9.4.42-9.4,1.55,0,2.16,1.18,3.29,3.75.84,1.92,1.76,4.31,2.13,6.43.38,2.21,1.03,7.09,1.34,9.69.48,4.15,1.33,8.58,1.09,12.53-.15,2.52.02,2.62-.91,2.57-.57-.03-2.31.1-3.23.16-1.34.09-2.61,1.14-3.31,1.92-.49.54-1.04-.27-1.04-.54,0-.97.03-2.64.03-3.62,0-2.68.03-5.7.03-8.38,0-5.16.18-10.06.16-15.11Z"/>
      <g>
        <path class="cls-7" d="m1101.84,452.93c.59.63,2.2.15,2.64-.89.48-1.12-1.78-2.39-3.31-2.68-1.79-.33-.71,2.09.67,3.56Z"/>
        <path class="cls-9" d="m1101.28,453.45c.39.42,1.04.61,1.74.49.87-.14,1.8-.75,2.17-1.6.25-.59.13-1.21-.31-1.79-.69-.9-2.33-1.72-3.56-1.95-.67-.12-1.11.04-1.38.27-.32.27-.5.68-.46,1.23.06.89.85,2.32,1.81,3.35h0Zm-.23-3.33c.79.15,1.8.6,2.4,1.14.12.11.22.22.29.34.03.05.06.09.04.14-.16.38-.6.62-1,.69-.14.02-.29.06-.37-.02h0c-.49-.53-.95-1.19-1.21-1.78-.07-.16-.12-.36-.15-.5Z"/>
      </g>
      <g>
        <path class="cls-6" d="m947.83,484.73s.94-2.98,3.28-3.89c1.94-.76,4.31-.68,5.97-.25,2.77.73,3.76,1.65,5.36,2.36"/>
        <path class="cls-9" d="m948.56,484.96s.79-2.62,2.82-3.41c1.79-.7,3.97-.62,5.5-.22,2.72.71,3.68,1.63,5.25,2.32.39.17.84,0,1.01-.39.17-.39,0-.84-.39-1.01-1.63-.72-2.65-1.65-5.48-2.4-1.79-.47-4.35-.54-6.45.27-2.64,1.03-3.73,4.38-3.73,4.38-.13.4.1.84.5.97.4.13.84-.1.97-.5Z"/>
      </g>
      <path class="cls-9" d="m1109.32,482.39c.01-.59-.38-1.41-.88-2.38-.58-1.12-1.31-2.52-1.1-4.07.12-.86.57-1.48,1.05-2.28.85-1.43,1.83-3.34,1.84-7.39.01-4.97-1.53-11.99-1.53-14.02,0-.66.53-2.59.87-4.4.26-1.36.4-2.65.25-3.41-.1-.5-.33-.84-.61-1.03-.24-.17-.54-.25-.91-.2-2.91.44-10.63,1.03-13.72,1.65-6.95,1.39-12.23.94-21.13-1.05-5.59-1.25-8.26-1.08-13.68-1.03-4.67.04-16.04.45-19.32.95-6.13.93-12.42,1.9-18.64,2.06-6.53.16-13-.54-19.4-1.29-8.28-.97-17.27-2.78-25.63-3.24-6.81-.38-14.9-1.47-21.81-1.3-1.69.04-4.18.27-6.14,1.16-1.44.66-2.6,1.66-3.1,3.14-.31.92-.11,2.63-.07,4.99.03,1.75,1,9.75.96,12.64-.03,2.51-.95,6.82-.96,7.89-.03,4,.15,6.68.31,11.07.06,1.64.55,4.91,3.58,6.4,1.07.52,3.12,1.12,5.42,1.3,1.64.13,3.67.43,4.77.22.89-.17,1.34-.65,1.37-1.3.04-.65.17-2.82.26-4.19,1,.49,2.53,1.19,3.81,1.55,6.39,1.78,9.53,1.1,14.75,1.1,1.89,0,6.72-.26,8.58-.77.48-.13.81-.31.98-.47.23-.21.31-.45.32-.68.01-.47.36-.77.74-.95.47-.22,1.02-.3,1.39-.2,1.46.38,3.07,1.54,3.75,1.91,4.42,2.35,9.57,1.6,14.25,1.95,4.66.35,12.68,1.07,14.13,1.02,1.27-.04,9.14-.02,11.18-.02,4.32,0,8.6-.16,12.85-.47,6.15-.44,14.23-1.77,20.41-1.89,3.23-.06,15.73.06,21.07.31,5.19.25,11.57.16,16.64.86.65.09,1.14.13,1.49.09.38-.04.66-.16.88-.33.3-.24.52-.62.61-1.22.08-.55.07-1.4.09-2.63Zm-1-37.63v.02c.03.16.04.35.03.57-.05,2.1-1.19,5.9-1.19,6.9,0,2.02,1.54,9.05,1.53,14.02,0,4.24-1.2,5.87-2.01,7.26-.42.72-.75,1.38-.87,2.22-.25,1.89.55,3.62,1.26,4.98.21.4.4.76.54,1.08.09.22.17.4.17.56-.02.97,0,1.69-.05,2.2-.01.18-.06.4-.08.47-.04,0-.12.02-.17.02-.26,0-.59-.03-1.01-.09-5.11-.7-11.55-.62-16.78-.87-5.37-.25-17.93-.37-21.18-.31-6.21.12-14.31,1.46-20.49,1.9-4.21.3-8.46.46-12.74.46-2.05,0-9.96-.02-11.23.02-1.43.05-9.35-.67-13.96-1.01-2.29-.17-4.7-.06-7.08-.2-2.26-.13-4.5-.48-6.56-1.58-.75-.4-2.51-1.63-4.1-2.04-.65-.17-1.62-.09-2.44.3-.79.38-1.42,1.02-1.58,1.92-.21.07-.6.18-.95.24-2.11.38-5.85.56-7.44.56-5.06,0-8.13.69-14.33-1.04-1.96-.55-4.56-1.96-4.56-1.96-.23-.12-.51-.12-.74,0-.23.13-.38.36-.4.62,0,0-.25,3.98-.32,5.2-.12.03-.35.08-.54.09-1.07.06-2.65-.18-3.96-.29-2.06-.16-3.91-.68-4.87-1.15-2.39-1.17-2.68-3.79-2.72-5.08-.16-4.37-.34-7.03-.31-11.01,0-1.07.93-5.37.96-7.87.04-2.9-.93-10.93-.96-12.69-.02-1.34-.12-2.46-.12-3.33,0-.48.01-.86.11-1.15.35-1.06,1.23-1.75,2.27-2.22,1.77-.8,4.01-.99,5.54-1.02,6.87-.16,14.92.93,21.69,1.3,8.33.46,17.28,2.27,25.53,3.24,6.47.76,13.01,1.46,19.62,1.3,6.29-.16,12.64-1.13,18.84-2.07,3.24-.5,14.49-.89,19.1-.93,5.28-.05,7.89-.23,13.34.99,9.17,2.05,14.61,2.49,21.77,1.06,2.99-.6,10.39-1.17,13.43-1.6Z"/>
      <path class="cls-9" d="m1100.28,479.12c-.89.55-2.98,1.82-4.01,2.38-.37.2-.51.67-.3,1.05.2.37.67.51,1.05.3,1.05-.57,3.17-1.86,4.08-2.42.36-.22.47-.7.25-1.06-.22-.36-.7-.47-1.06-.25Z"/>
      <path class="cls-9" d="m1094.57,477.97c-.85.5-2.23,1.41-2.91,1.91-.34.25-.42.73-.17,1.07.25.34.73.42,1.07.17.66-.47,1.97-1.35,2.79-1.83.37-.21.49-.69.27-1.05-.22-.37-.69-.49-1.05-.27Z"/>
      <path class="cls-9" d="m1082.87,448.55c-1.98.37-3.69.32-5.68-.08-.42-.08-.82.19-.91.6-.08.42.19.82.6.91,2.2.44,4.08.5,6.26.09.42-.08.69-.48.61-.9-.08-.42-.48-.69-.9-.61Z"/>
    </g>
    <g id="Ebene6">
      <path class="cls-15" d="m960.05,205.03c-1.11,1.51-.55,3.34-.55,5.4,0,.41-.37,2.41-.37,2.41,0,0-4.89.47-9.2.29-2.71-.12-6.02-.9-3.61-5.53,1.57-3.03,10.77-3.3,13.74-2.56,6.26,1.56,9.37,2.82,16.25,3.35,7.78.6,16.64,2.06,24.81,3.13,4.74.62,23.98.75,29.34.77,15.53.05,32.8-4.33,53.87-2.61,13.37,1.09,27.43,1.36,40.83,1.79,10.63.34,19.73-2.9,30.33-3.6,8.98-.59,16.57-.41,24.45-.41,3.78,0,16.2-1.41,16.2-1.41,0,0-4-2.71-2.68-4.6,2.8-3.99,12.89.3,11.63,2.68-.6,1.14-2.9,1.54-6.33,5.27-3.43,3.73,2,4.35,3,4.01,4.02-1.35,5.66-2.18,8.01-3.33,3.39-1.66,5.39-2.01,8.25-2,2.49,0,7.6-.19,11.83.7,5.78,1.22,11.09,2.13,19.47,2.14,6.65,0,13.92.58,20.5.43,6.26-.15,21.68.14,24.78.07,2.86-.06,7.8.12,9.33-3.43,1.11-2.56,1.82-5.71,1.96-7.89.28-4.23.56-7.44.62-11.19.14-9.28,1.21-33.82.92-44.58-.11-4.11-2.83-6.08-5.42-7.04-2.6-.96-3.06-1.1-2.95,1.26.06,1.24-.03,2-.03,2,0,0-8.19-.07-11.39-.08-5.4-.03-11.02-.25-16.61-.4-3.9-.1-7.43-.24-11.41-.55-3.59-.28-7.36-.27-11.09-.47-3.93-.22-12.62,5.12-16.46,4.14-1.24-.32-.49-1.1-1.46-1.88-.8-.65-4.64,1.19-6.75-.39-3.29-2.47-3.74-3.59-4.02-3.6-4.68-.18-8.77.33-13.06.33-8.05,0-16.28.63-24.32,1.14-6.02.38-9.86.17-17.24.14-.76,0-2.47.2-3.44.94-1.01.76-2.49,2.59-4.16,2.2-1.53-.36.24-3.18-.93-3.77-.99-.49-18.33-.18-22.56-.4-6-.32-8.06,1.49-31.38,1.24-6.8-.07-16.91.35-23.72.33-9.04-.03-19.4-.51-28.54-.47-15.6.07-30.16,1.01-45.89,1.27-10.33.18-16.82-.86-27.03-.68-6.08.11-15.12.25-21.11.85-3.37.34-4.13-.95-7.25.61-.45.22-3.12,2.65-3.14,3.69-.08,5.15-.54,9.36-.72,14.67-.45,12.86-.07,26.47-.28,36.62-.04,2.05.38,14.11.39,14.27"/>
      <path class="cls-14" d="m1306.61,142.03c-.82-1.07-6.45-6.48-6.6-3.52-.26,4.87-.27,19.13-.26,21.77.01,2.25.03,6.35,0,8.59-.09,7.5-.85,9.42-2.61,16.66-.63,2.57-.89,6.7-1.21,9.34-.28,2.3-.41,4.62.06,4.78.74.26,2.36.08,4.14.91,1.47.69,2.52,1.29,3.05,2.9.08.24,1.34,1.76,1.63,1.46,2.08-2.14,1.63-6.13,1.82-9.24.66-10.34.87-27.33.59-38.63-.03-1.17.62-13.43-.61-15.03Z"/>
      <path class="cls-1" d="m1217.35,162.5c-1.25.11-3.29,2.84-3.31,4.08-.04,3.08,4.79,4.21,6.31,1.75,1.64-2.64-.39-6.06-3-5.82Z"/>
      <path class="cls-1" d="m1197.45,152.32c-1.96,1.2-2.91,2.8-2.99,4.67-.08,1.98.64,3.69.72,5.24.25,4.68,2.69,6.35,7.6,5.04,3.69-.99,5.46-3.54,6.08-4.66,2.1-3.82,1.24-10.32-4.84-11.52-2.59-.51-5.27.43-6.57,1.22Z"/>
      <path class="cls-13" d="m1109.46,210.36c-3.22-.45-3.65-.57-3.02-1.92.38-.82,5.12-7.42,7.43-9.93,3-3.26,5.91-6.04,10.98-8.96,2.22-1.28,15.16-4.66,19.54-6.54,1.69-.73,9.11-4.2,12.34-6.11,3.8-2.25,7.76-4.2,11.87-5.84,1.74-.7,3.4-1.17,5.28-1.42,5.03-.67,13.57-.1,17.42,2.62,1.1.78,9.82,5.2,11.25,6.13,2.92,1.9,9.33,4.25,13.38,4.51,3.51.22,7.2.33,10.68.33,2.4,0,4.32-.05,6.83-.16,5-.23,9.68-1.3,14.57,0,2.5.67,7.41,3.08,9.58,4.63,6.36,4.54,11.81,12.57,12.51,13.97,1.11,2.23,4.74,9.16,2.34,9.77-1.48.37-3.4-.06-5.49.15-1.49.15-12.66,0-14.63-.14-3.66-.26-19.72-1.47-25.86-2.15-4-.45-10.81-2.25-14.9.01-2.87,1.6-9.76,4.19-11.37,4.27-2.04.11-2.13-1.49-1.64-2.41,1.76-3.3,10.31-5.89,4.39-9.27-2.09-1.2-3.47-1.46-5.91-1.45-3.14.01-3.62,2.51-3.13,5.36.24,1.39-11.49.63-23.08,1.3-3.99.23-18.28,1.22-22.35,1.32-4.46.11-10.89,1.36-14.76,1.9-4.1.58-8.15.45-12.77.4"/>
      <path class="cls-4" d="m944.65,164.3c-.02-4.99.3-14.73.75-14.73,2.79,0,3.9,1.85,5.92,5.87,1.51,3.01,3.17,6.75,3.84,10.08.69,3.46,1.86,11.11,2.41,15.19.87,6.5,2.4,13.45,1.97,19.64-.28,3.95.04,4.11-1.63,4.03-1.03-.05-4.16.15-5.81.25-2.42.14-4.7,1.78-5.96,3-.88.85-1.87-.42-1.87-.84,0-1.51.05-4.14.05-5.68,0-4.21.06-8.93.06-13.14,0-8.09.32-15.77.29-23.68Z"/>
      <path class="cls-5" d="m958.93,140.04c-1.35-.01,5.99,3.85,6.57,4.19,2.35,1.39,14.31,7.27,17,8.04,5.99,1.7,15.22,3.49,20.3,4.46,5.47,1.04,16.91,2.02,22.54,1.81,8.46-.32,25.7-2.6,30.62-4.88,6.8-3.15,12.75-6.87,14.07-8.16,2.11-2.06,5.54-4.2,4.75-6.24-.25-.63-16.75.1-23.97-.01-5.05-.08-30.82.91-39.71.86-5.09-.03-22.91.02-26.76.04-8.05.04-21.81-.08-25.41-.11Z"/>
      <path class="cls-9" d="m944.69,210.45c0,.61.15,1.11.38,1.53.36.65.95,1.11,1.68,1.43.92.4,2.08.55,3.15.6,4.37.19,9.32-.29,9.32-.29.36-.04.65-.3.71-.65,0,0,.39-2.12.39-2.56,0-1.03-.14-2.01-.14-2.91,0-.56.05-1.08.27-1.57,5.93,1.51,9.09,2.71,15.82,3.23,7.78.6,16.63,2.06,24.79,3.13,4.76.62,24.09.76,29.47.78,15.53.05,32.79-4.33,53.87-2.62,13.39,1.09,27.49,1.36,40.92,1.8,10.67.34,19.8-2.9,30.44-3.6,8.97-.59,16.55-.41,24.43-.41,3.81,0,16.31-1.42,16.31-1.42.33-.04.61-.28.69-.61.08-.33-.05-.67-.33-.86,0,0-1.32-.89-2.11-1.97-.18-.25-.33-.5-.42-.76-.08-.25-.1-.51.06-.74.64-.92,1.78-1.25,3.03-1.29,2.11-.06,4.57.77,6.08,1.79.47.32.85.65,1.06.98.08.13.16.25.1.36-.19.36-.63.59-1.22.97-1.16.74-2.86,1.82-4.99,4.14-1.33,1.44-1.49,2.58-1.22,3.38.27.79,1.01,1.37,1.93,1.7,1.2.43,2.64.42,3.15.25,4.08-1.36,5.74-2.21,8.12-3.38,3.25-1.59,5.17-1.92,7.91-1.92,2.46,0,7.5-.2,11.68.69,5.84,1.24,11.2,2.15,19.66,2.16,6.66,0,13.95.59,20.54.43,6.26-.15,21.71.14,24.8.07,1.79-.04,4.35,0,6.46-.75,1.56-.56,2.89-1.53,3.6-3.17,1.14-2.65,1.88-5.91,2.03-8.16.28-4.25.56-7.48.62-11.24.14-9.3,1.21-33.88.92-44.67-.12-4.53-3.09-6.72-5.95-7.78-1.02-.38-1.74-.63-2.23-.69-.62-.07-1.04.1-1.34.41-.18.19-.33.46-.41.85-.07.35-.09.84-.06,1.49.02.46.02.85.02,1.16-2.11-.02-8.03-.06-10.65-.08-5.4-.03-11.01-.26-16.61-.4-3.89-.1-7.41-.24-11.38-.54-3.6-.28-7.38-.27-11.12-.48-2.04-.11-5.33,1.18-8.6,2.41-1.85.69-3.68,1.36-5.27,1.67-.94.19-1.78.26-2.45.08-.11-.03-.18-.02-.21-.07-.04-.07-.05-.15-.07-.24-.03-.12-.06-.25-.11-.38-.12-.33-.32-.69-.76-1.04-.2-.16-.48-.28-.84-.31-.31-.03-.72,0-1.19.07-.74.11-1.68.3-2.6.33-.77.03-1.54-.05-2.14-.5-2.57-1.93-3.37-3.02-3.72-3.38-.3-.31-.57-.38-.75-.39-4.69-.18-8.8.32-13.1.32-8.08,0-16.33.63-24.4,1.14-6.01.38-9.84.17-17.2.14-.87,0-2.82.26-3.93,1.1-.5.38-1.12,1.02-1.81,1.52-.51.37-1.07.68-1.68.54-.05-.01-.03-.07-.03-.11,0-.07,0-.14,0-.21,0-.34.08-.73.12-1.1.06-.52.06-1.01-.07-1.39-.13-.39-.37-.7-.77-.9-.1-.05-.3-.12-.59-.16-.41-.06-1.13-.1-2.06-.14-5.08-.18-16.86-.01-20.25-.19-6.01-.32-8.08,1.49-31.45,1.24-6.81-.07-16.93.35-23.76.33-9.05-.03-19.43-.51-28.58-.47-15.62.07-30.2,1.01-45.95,1.28-10.35.18-16.84-.86-27.06-.68-6.11.11-15.18.25-21.2.85-1.62.16-2.62-.07-3.58-.15-1.12-.1-2.21-.03-3.96.85-.35.17-1.92,1.52-2.82,2.72-.48.63-.76,1.26-.76,1.69-.08,5.15-.54,9.36-.72,14.67-.45,12.87-.08,26.51-.28,36.67-.04,2.06.38,14.18.39,14.33,0,.02,0,.04,0,.06Zm355.6-73.01s-.02.1-.02.15c-.02.24-.02.54,0,.91.06,1.33-.03,2.13-.03,2.13-.05.41-.39.71-.81.71,0,0-8.19-.07-11.4-.08-5.41-.03-11.04-.25-16.64-.4-3.92-.1-7.46-.24-11.46-.55-3.59-.28-7.36-.26-11.08-.47-.87-.05-1.99.21-3.24.6-2.03.63-4.38,1.62-6.6,2.4-2.65.93-5.14,1.54-6.79,1.12-.87-.22-1.15-.63-1.32-1.06-.06-.14-.09-.29-.13-.45-.04-.15-.08-.31-.26-.47-.06,0-.2-.01-.31,0-.34.02-.77.09-1.23.17-1.68.27-3.81.5-5.25-.58-2.15-1.61-3.13-2.67-3.63-3.23l-.2-.22c-4.57-.16-8.58.33-12.78.33-8.04,0-16.27.63-24.3,1.14-6.04.38-9.9.17-17.3.15-.65,0-2.12.14-2.95.77-.62.47-1.43,1.34-2.35,1.87-.77.45-1.61.68-2.49.47-1.04-.24-1.35-1.08-1.27-2.15.03-.46.14-.97.15-1.41,0-.08-.01-.19-.02-.25-.28-.03-1.1-.11-1.95-.14-5.09-.18-16.89-.01-20.28-.19-6-.32-8.07,1.49-31.38,1.24-6.81-.07-16.93.35-23.74.33-9.05-.02-19.42-.51-28.57-.46-15.61.07-30.19,1.01-45.93,1.27-10.35.18-16.84-.86-27.06-.68-6.07.11-15.09.25-21.07.85-1.43.14-2.41.01-3.29-.09-1.11-.13-2.03-.21-3.69.62-.24.12-1.18.97-1.91,1.81-.24.28-.46.56-.61.82-.09.14-.17.26-.17.35-.08,5.16-.54,9.38-.73,14.7-.45,12.87-.07,26.49-.28,36.64-.03,1.31.14,6.69.26,10.45.68-.71,1.74-1.27,3.02-1.67,3.57-1.12,8.9-1.08,11.07-.55h.01s0,0,0,0c6.22,1.56,9.3,2.81,16.14,3.33,7.8.6,16.68,2.07,24.88,3.14,4.73.62,23.93.75,29.27.77,15.57.05,32.87-4.33,54-2.61,13.37,1.09,27.43,1.36,40.84,1.79,10.61.34,19.7-2.91,30.28-3.6,9.01-.59,16.62-.41,24.53-.41,2.85,0,10.63-.81,14.24-1.2-.34-.33-.69-.71-.98-1.1-.8-1.09-1.11-2.33-.38-3.37.93-1.32,2.5-1.92,4.29-1.97,2.44-.07,5.28.89,7.02,2.06.85.57,1.45,1.21,1.71,1.8.25.57.25,1.12-.02,1.62-.23.44-.64.82-1.24,1.23-1.07.72-2.87,1.67-5.21,4.22-.43.46-.7.86-.83,1.22-.08.22-.11.4-.05.56.12.36.52.55.94.69.8.29,1.76.35,2.1.24,3.98-1.33,5.6-2.16,7.92-3.3,3.54-1.73,5.63-2.09,8.62-2.08,2.53,0,7.71-.19,12.01.72,5.74,1.21,11.01,2.11,19.33,2.12,6.65,0,13.92.59,20.5.43,6.26-.15,21.71.14,24.81.07,1.39-.03,3.28,0,5-.39,1.54-.35,2.95-1.04,3.61-2.57,1.07-2.48,1.76-5.53,1.9-7.64.28-4.21.55-7.42.61-11.16.15-9.28,1.22-33.83.92-44.59-.1-3.7-2.57-5.45-4.9-6.32-.62-.23-1.12-.41-1.51-.52-.12-.03-.25-.06-.34-.07Zm-341.43,68.26c-1.96-.25-5.09-.2-7.71.33-1.21.24-2.32.59-3.13,1.08-.44.26-.79.57-.98.93-.46.89-.7,1.59-.75,2.16v.13c0,.06,0,.11,0,.17.01.27.08.5.19.7.25.45.73.7,1.28.88.69.22,1.48.3,2.22.33,3.36.14,7.07-.12,8.5-.23.1-.59.25-1.42.25-1.66,0-1.03-.14-2.01-.14-2.91,0-.67.07-1.3.28-1.9Z"/>
      <path class="cls-9" d="m1304.98,208.66s.65-2.15.19-3.9c-.29-1.12-.82-2.23-1.53-2.92-1.42-1.4-3.71-2.58-5.84-2.51-.64.02-1.08-.05-1.36-.29-.26-.22-.34-.56-.39-.97-.14-1.26.18-3.05.23-5.11.11-4.34.49-6.02,1.43-9.8.98-3.91,2.14-5.65,2.42-11.52.3-6.26-.43-13.85-.59-19.22-.06-2.11.79-11.34.81-13.66,0-.44-.35-.81-.79-.81s-.81.35-.81.79c-.03,2.34-.88,11.61-.81,13.73.16,5.34.89,12.89.59,19.1-.27,5.72-1.42,7.41-2.37,11.21-.98,3.92-1.37,5.66-1.48,10.15-.06,2.15-.37,4.02-.22,5.33.1.88.4,1.55.94,2.01.51.44,1.29.71,2.46.68,1.71-.06,3.52.93,4.66,2.05.52.51.89,1.35,1.1,2.18.35,1.36-.17,3.02-.17,3.02-.13.42.11.87.53,1,.42.13.87-.11,1-.53Z"/>
    </g>
    <g id="Ebene61">
      <path class="cls-15" d="m960.72,356.95c-1.11,1.51-.55,3.34-.55,5.4,0,.41-.37,2.4-.37,2.4,0,0-4.89.47-9.2.29-2.71-.12-6.02-.9-3.62-5.53,1.57-3.03,10.77-3.3,13.74-2.56,6.26,1.56,9.37,2.82,16.26,3.35,7.78.6,16.64,2.06,24.82,3.13,4.74.62,23.99.75,29.35.77,15.54.05,32.8-4.33,53.89-2.61,13.37,1.09,27.44,1.36,40.84,1.79,10.63.34,19.73-2.9,30.34-3.6,8.98-.59,16.57-.41,24.46-.41,3.78,0,16.21-1.41,16.21-1.41,0,0-4.01-2.71-2.68-4.6,2.8-3.99,12.89.3,11.63,2.68-.6,1.14-2.9,1.53-6.33,5.27-3.43,3.73,2,4.35,3,4.01,4.03-1.35,5.67-2.18,8.01-3.34,3.39-1.66,5.39-2.01,8.26-2,2.49,0,7.6-.19,11.84.7,5.78,1.22,11.1,2.13,19.48,2.13,6.65,0,13.93.59,20.5.43,6.26-.15,21.69.14,24.78.07,2.86-.06,7.8.12,9.33-3.44,1.11-2.56,1.82-5.72,1.96-7.89.28-4.23.56-7.45.61-11.19.15-9.28-.82-95.13-1.11-105.9-.11-4.11-2.83-6.08-5.42-7.04-2.6-.96-3.06-1.1-2.95,1.26.06,1.24-.03,2-.03,2,0,0-8.19-.07-11.4-.08-5.4-.03-11.02-.25-16.61-.4-3.9-.1-7.43-.24-11.41-.55-3.59-.28-7.37-.27-11.09-.47-3.93-.22-12.62,5.12-16.46,4.14-1.24-.32-.49-1.1-1.46-1.88-.8-.65-4.64,1.19-6.75-.39-3.29-2.47-3.74-3.59-4.02-3.6-4.68-.18-8.77.33-13.06.33-8.05,0-16.29.63-24.33,1.14-6.02.38-9.86.17-17.24.14-.76,0-2.47.2-3.44.94-1.01.76-2.49,2.59-4.16,2.2-1.53-.36.24-3.18-.93-3.77-.99-.49-18.33-.18-22.57-.4-6-.32-8.07,1.49-31.39,1.24-6.8-.07-16.92.35-23.73.33-9.04-.03-19.41-.51-28.55-.47-15.6.07-30.17,1.01-45.9,1.27-10.34.18-16.83-.86-27.04-.68-6.09.11-15.12.25-21.12.85-3.37.34-4.14-.95-7.25.61-.45.22-3.12,2.65-3.14,3.69-.08,5.15-.54,9.36-.72,14.67-.45,12.86,1.96,87.78,1.75,97.94-.04,2.05.38,14.11.39,14.27"/>
      <path class="cls-14" d="m1304.94,232.63c-.82-1.06-6.44-6.47-6.6-3.51-.26,4.87-.27,19.12-.26,21.75.01,2.25,2.45,65.78,2.43,68.01-.09,7.5-.85,9.41-2.61,16.64-.63,2.57-.89,6.69-1.21,9.34-.28,2.3-.41,4.62.06,4.78.74.26,2.36.08,4.13.91,1.47.69,2.52,1.29,3.04,2.9.08.24,1.34,1.76,1.63,1.46,2.07-2.13,1.63-6.13,1.82-9.23.65-10.33-1.55-86.74-1.84-98.03-.03-1.17.62-13.42-.61-15.02Z"/>
      <path class="cls-1" d="m1215.76,253.07c-1.25.11-3.29,2.84-3.31,4.07-.04,3.08,4.78,4.2,6.31,1.75,1.64-2.64-.39-6.05-3-5.82Z"/>
      <path class="cls-1" d="m1195.87,242.91c-1.96,1.2-2.91,2.8-2.99,4.67-.08,1.98.64,3.68.72,5.24.25,4.67,2.69,6.35,7.59,5.04,3.69-.99,5.46-3.54,6.08-4.66,2.09-3.82,1.24-10.31-4.84-11.51-2.58-.51-5.26.43-6.57,1.22Z"/>
      <path class="cls-13" d="m1110.49,361.75c-3.22-.45-3.64-.57-3.02-1.92.38-.82,5.11-7.41,7.42-9.92,3-3.26,5.9-6.03,10.97-8.96,2.22-1.28,15.15-4.66,19.52-6.53,1.69-.72,9.11-4.2,12.33-6.11,3.8-2.24,7.75-4.19,11.86-5.83,1.74-.7,3.4-1.17,5.27-1.42,5.03-.67,13.56-.1,17.41,2.62,1.1.78,9.81,5.19,11.24,6.12,2.92,1.89,9.32,4.25,13.37,4.5,3.51.22,7.2.33,10.67.33,2.39,0,4.31-.05,6.82-.16,5-.23,9.67-1.3,14.55,0,2.5.67,7.41,3.08,9.57,4.62,6.35,4.54,11.8,12.56,12.5,13.95,1.11,2.22,4.73,9.15,2.34,9.76-1.48.37-3.4-.06-5.48.15-1.49.15-12.65,0-14.62-.14-3.66-.26-19.7-1.46-25.84-2.15-4-.45-10.8-2.25-14.88.01-2.87,1.59-9.75,4.19-11.36,4.27-2.04.11-2.13-1.49-1.64-2.41,1.76-3.3,10.3-5.88,4.38-9.26-2.09-1.2-3.47-1.46-5.9-1.45-3.14.01-3.62,2.51-3.13,5.35.24,1.38-11.48.63-23.06,1.29-3.99.23-18.26,1.22-22.33,1.32-4.45.11-10.88,1.35-14.75,1.9-4.1.58-8.14.45-12.76.4"/>
      <path class="cls-4" d="m943.88,285.08c-.02-4.99.3-14.72.75-14.72,2.78,0,3.89,1.85,5.91,5.87,1.51,3.01,3.17,6.74,3.83,10.07.69,3.45,4.79,40.35,5.34,44.43.87,6.49,2.4,13.44,1.96,19.63-.28,3.94.04,4.1-1.63,4.02-1.03-.05-4.15.15-5.81.25-2.42.14-4.69,1.78-5.95,3-.88.85-1.87-.42-1.87-.84,0-1.51.05-4.14.05-5.67,0-4.2.06-8.92.06-13.13,0-8.08-2.61-45-2.64-52.91Z"/>
      <path class="cls-5" d="m957.55,230.64c-1.35-.01,5.99,3.84,6.57,4.18,2.35,1.38,14.3,7.27,16.98,8.03,5.99,1.7,15.21,3.49,20.28,4.46,5.47,1.04,16.9,2.02,22.52,1.81,8.45-.32,25.68-2.6,30.6-4.87,6.8-3.15,12.74-6.86,14.06-8.15,2.11-2.06,5.54-4.2,4.74-6.23-.25-.63-16.74.1-23.95-.01-5.04-.08-30.79.91-39.67.86-5.09-.03-22.89.02-26.74.04-8.04.04-21.8-.08-25.39-.11Z"/>
      <path class="cls-9" d="m945.51,361.89c0,.61.15,1.11.38,1.53.36.65.95,1.11,1.68,1.43.92.4,2.08.55,3.15.6,4.36.19,9.31-.29,9.31-.29.36-.03.65-.3.71-.65,0,0,.39-2.12.39-2.55,0-1.03-.14-2-.14-2.91,0-.56.05-1.08.27-1.57,5.93,1.51,9.09,2.71,15.81,3.23,7.77.6,16.61,2.06,24.77,3.13,4.76.62,24.07.76,29.45.78,15.52.05,32.77-4.33,53.82-2.62,13.38,1.09,27.46,1.36,40.88,1.8,10.66.34,19.78-2.9,30.42-3.6,8.96-.59,16.54-.41,24.41-.41,3.8,0,16.3-1.41,16.3-1.41.33-.04.61-.28.69-.61.08-.33-.05-.67-.33-.86,0,0-1.32-.89-2.11-1.97-.18-.25-.33-.5-.42-.76-.08-.25-.1-.51.06-.74.64-.92,1.78-1.25,3.02-1.29,2.11-.06,4.56.77,6.08,1.79.47.32.85.65,1.06.98.08.13.17.25.1.36-.19.36-.63.59-1.22.97-1.16.74-2.86,1.82-4.99,4.13-1.33,1.44-1.49,2.58-1.22,3.37.27.79,1.01,1.37,1.92,1.7,1.2.43,2.64.42,3.14.25,4.07-1.36,5.74-2.21,8.11-3.38,3.24-1.59,5.16-1.92,7.9-1.92,2.46,0,7.49-.2,11.67.68,5.83,1.23,11.19,2.15,19.64,2.15,6.66,0,13.94.59,20.52.43,6.26-.15,21.69.13,24.78.07,1.78-.04,4.35,0,6.46-.75,1.56-.55,2.89-1.52,3.59-3.17,1.14-2.65,1.88-5.91,2.03-8.16.28-4.24.56-7.47.62-11.24.14-9.28-.98-94.76-1.27-105.53-.12-4.52-3.09-6.72-5.94-7.77-1.02-.38-1.74-.63-2.23-.68-.62-.07-1.04.1-1.34.41-.18.19-.33.46-.41.84-.07.35-.09.84-.06,1.49.02.46.02.85.02,1.15-2.11-.02-8.03-.06-10.64-.08-5.39-.03-11-.25-16.59-.4-3.89-.1-7.41-.24-11.37-.54-3.6-.28-7.38-.27-11.11-.48-2.04-.11-5.33,1.18-8.59,2.41-1.84.69-3.68,1.36-5.26,1.67-.94.19-1.78.25-2.45.08-.11-.03-.18-.02-.21-.07-.04-.07-.05-.15-.07-.23-.03-.12-.06-.25-.11-.38-.12-.33-.32-.69-.76-1.04-.2-.16-.48-.27-.84-.31-.31-.03-.72,0-1.19.07-.74.11-1.68.3-2.6.33-.77.03-1.54-.05-2.13-.5-2.57-1.93-3.36-3.01-3.72-3.38-.3-.31-.57-.38-.75-.39-4.69-.18-8.79.32-13.09.32-8.07,0-16.32.63-24.38,1.14-6,.38-9.83.17-17.19.14-.87,0-2.82.25-3.93,1.1-.5.38-1.11,1.02-1.81,1.52-.51.37-1.07.68-1.68.54-.05-.01-.03-.07-.03-.11,0-.07,0-.14,0-.21,0-.34.08-.73.12-1.09.06-.52.06-1.01-.07-1.39-.13-.39-.37-.7-.76-.9-.1-.05-.3-.12-.59-.16-.41-.06-1.13-.1-2.06-.14-5.08-.18-16.85-.01-20.23-.19-6.01-.32-8.08,1.49-31.43,1.24-6.8-.07-16.92.35-23.74.33-9.05-.03-19.41-.51-28.56-.47-15.61.07-30.18,1.01-45.91,1.27-10.34.18-16.83-.86-27.04-.68-6.11.11-15.17.25-21.18.85-1.62.16-2.61-.07-3.58-.15-1.12-.1-2.21-.03-3.96.84-.35.17-1.92,1.52-2.82,2.71-.48.63-.76,1.26-.76,1.68-.08,5.14-.54,9.35-.72,14.66-.45,12.86,2.11,87.38,1.91,97.54-.04,2.06.39,14.17.39,14.32,0,.02,0,.04,0,.06Zm353.11-133.85s-.02.1-.02.15c-.02.24-.02.54,0,.91.06,1.33-.03,2.13-.03,2.13-.05.41-.39.71-.8.71,0,0-8.19-.07-11.39-.08-5.41-.03-11.03-.25-16.63-.4-3.92-.1-7.46-.24-11.45-.55-3.59-.27-7.35-.26-11.07-.47-.87-.05-1.99.21-3.24.6-2.03.63-4.38,1.62-6.59,2.4-2.65.93-5.14,1.54-6.78,1.12-.87-.22-1.15-.63-1.32-1.06-.06-.14-.09-.29-.13-.45-.04-.15-.08-.31-.26-.47-.06,0-.2-.01-.31,0-.34.02-.76.09-1.23.17-1.68.27-3.81.5-5.24-.58-2.15-1.61-3.12-2.67-3.62-3.23l-.2-.22c-4.56-.16-8.57.33-12.77.33-8.04,0-16.25.63-24.28,1.13-6.04.38-9.89.17-17.29.15-.65,0-2.12.14-2.95.77-.62.47-1.43,1.34-2.35,1.87-.77.45-1.61.68-2.48.47-1.04-.24-1.35-1.07-1.27-2.15.03-.46.14-.97.15-1.41,0-.08-.01-.19-.02-.25-.28-.03-1.1-.11-1.95-.14-5.09-.18-16.87-.01-20.26-.19-5.99-.32-8.06,1.49-31.36,1.24-6.8-.07-16.91.35-23.72.33-9.04-.02-19.41-.51-28.55-.46-15.6.07-30.17,1.01-45.89,1.27-10.34.18-16.83-.86-27.04-.68-6.07.11-15.08.25-21.05.84-1.43.14-2.41.01-3.29-.09-1.11-.13-2.02-.21-3.69.62-.24.12-1.18.97-1.91,1.81-.24.28-.46.56-.61.82-.09.14-.17.25-.17.35-.08,5.16-.54,9.38-.72,14.69-.45,12.86,2.12,87.36,1.91,97.51-.02,1.31.14,6.68.26,10.44.68-.7,1.74-1.27,3.02-1.67,3.56-1.11,8.89-1.08,11.06-.55h.01s0,0,0,0c6.21,1.55,9.3,2.8,16.12,3.33,7.8.6,16.67,2.06,24.86,3.14,4.73.62,23.91.75,29.25.76,15.56.05,32.84-4.33,53.95-2.61,13.36,1.09,27.41,1.36,40.8,1.79,10.61.34,19.68-2.9,30.26-3.6,9-.59,16.61-.41,24.51-.41,2.85,0,10.62-.8,14.23-1.19-.34-.33-.69-.7-.98-1.1-.8-1.09-1.11-2.33-.38-3.37.92-1.32,2.5-1.92,4.29-1.97,2.44-.07,5.27.89,7.02,2.06.85.57,1.45,1.21,1.71,1.8.25.57.25,1.12-.02,1.62-.23.44-.64.82-1.24,1.23-1.07.72-2.87,1.67-5.21,4.22-.43.46-.7.86-.83,1.21-.08.22-.11.4-.05.56.12.36.53.55.94.69.8.29,1.76.35,2.09.24,3.98-1.33,5.6-2.15,7.91-3.29,3.53-1.73,5.63-2.09,8.61-2.08,2.53,0,7.7-.19,12,.72,5.73,1.21,11,2.11,19.31,2.12,6.64,0,13.91.59,20.48.43,6.26-.15,21.69.14,24.79.07,1.38-.03,3.27,0,5-.39,1.53-.35,2.95-1.04,3.61-2.56,1.07-2.48,1.76-5.53,1.9-7.63.28-4.21.55-7.42.61-11.15.14-9.28-.98-94.69-1.27-105.46-.1-3.69-2.56-5.45-4.89-6.31-.62-.23-1.11-.41-1.5-.52-.12-.03-.25-.06-.34-.07Zm-338.96,129.11c-1.96-.25-5.08-.21-7.71.33-1.21.24-2.31.59-3.13,1.08-.44.26-.79.57-.98.93-.46.88-.7,1.59-.74,2.15v.13c0,.06,0,.11,0,.16.01.27.08.5.19.7.25.45.73.7,1.27.88.68.22,1.48.3,2.22.33,3.36.14,7.07-.12,8.49-.23.11-.59.25-1.42.25-1.66,0-1.03-.14-2-.14-2.91,0-.67.07-1.3.28-1.9Z"/>
      <path class="cls-9" d="m1305.92,359.13s.65-2.15.19-3.9c-.29-1.12-.83-2.23-1.53-2.92-1.42-1.4-3.71-2.58-5.84-2.51-.64.02-1.08-.05-1.36-.29-.26-.22-.34-.56-.38-.97-.14-1.26.18-3.05.23-5.11.11-4.34.49-6.02,1.44-9.8.97-3.91,2.14-5.65,2.41-11.52.3-6.24-2.9-73.43-3.06-78.79-.06-2.11.69-11.31.72-13.64,0-.44-.35-.81-.8-.81-.44,0-.81.35-.81.79-.03,2.34-.78,11.58-.72,13.7.16,5.36,3.36,72.44,3.07,78.67-.27,5.72-1.42,7.41-2.37,11.21-.98,3.92-1.37,5.66-1.48,10.15-.05,2.15-.37,4.02-.22,5.33.1.88.4,1.55.94,2.01.52.44,1.29.71,2.46.67,1.71-.06,3.52.93,4.66,2.05.52.51.89,1.35,1.1,2.18.35,1.36-.17,3.02-.17,3.02-.13.43.11.87.53,1,.42.13.87-.11,1-.53Z"/>
    </g>
  </g>
  <g id="Schultertasten">
    <g id="LB_original" data-name="LB original">
      <path class="cls-3" d="m732.17,203.48c-3.14-1.29-3.77-5.3-3.53-11.97.21-5.83.67-13.55,1.41-22,.28-3.17.83-7.37,2.94-9.43,3.83-3.73,6.8-5.98,8.22-6.93,5.11-3.41,15.75-7.49,22.22-8.97,9.68-2.21,17.37-2.6,26.2-2.42,8.07.17,10.38,2.58,12.19,4.13,1.99,1.7,6.79,6.44,8.52,8.72,3.04,4.01,3.76,4.08,3.69,11.33-.03,3.23-2.66,11.13-4.53,17.59-1.4,4.84-2.72,9.28-4.34,13.83-.57,1.61-3.11,4.57-4.44,5.78-1.56,1.43-5.66,2.06-10.32,2.1-7.26.06-16.37.1-19.55.12-2.75.02-17.05-.19-21.88-.12-4.81.07-12.74-.1-16.8-1.77Z"/>
      <g>
        <path class="cls-16" d="m751.46,191.8c-.64-.29-.97-.64-.97-1.03,0-.28.12-.61.37-1.01.18-.43.28-.75.28-.97,0-2.73-.31-7.97-.92-15.73-.61-6.62-.92-11.85-.92-15.69,0-.28.21-.5.64-.67.43-.17.95-.25,1.56-.25.74,0,1.38.13,1.93.39.55.26.83.58.83.94,0,1.84.18,4.6.55,8.28.31,4.08.46,6.84.46,8.28l.09.55v1.1c.18,2.67.28,6.65.28,11.96v1.2h7.08c1.29.46,1.93.92,1.93,1.38,0,.34-.23.64-.69.9-.46.26-1,.39-1.61.39-.18,0-.52-.03-1.01-.09l-.37-.05c-.37.03-.95.05-1.75.05h-1.56c-.43-.03-.92-.05-1.47-.05-.61.37-1.47.55-2.58.55-.8,0-1.52-.15-2.16-.44Z"/>
        <path class="cls-16" d="m772.48,190.95l.18-5.66.18-5.66c0-2.05-.09-5.17-.28-9.34-.18-4.14-.28-7.25-.28-9.34v-.28c0-.8.15-1.53.46-2.21.37-.83,1.35-1.24,2.94-1.24,4.29,0,7.7.69,10.21,2.07,2.51,1.38,3.77,3.21,3.77,5.47,0,1.38-.74,2.82-2.21,4.32-1.47,1.5-3.22,2.62-5.24,3.36,3.56,1.2,6.18,2.74,7.87,4.62,1.69,1.89,2.53,3.96,2.53,6.23,0,1.07-.74,2.41-2.21,4-1.78,1.9-4.2,3.27-7.27,4.09-1.84.46-3.86.69-6.07.69h-.37c-2.82,0-4.23-.38-4.23-1.15Zm9.2-21.16c.92-.86,1.78-1.9,2.58-3.13.18-.34.49-.77.92-1.29v-1.61c0-.92-.68-1.81-2.02-2.67-1.35-.86-2.88-1.29-4.6-1.29-.86,0-1.29.48-1.29,1.43,0,2.02.06,3.83.18,5.43l.18,5.11c1.59-.18,2.94-.84,4.05-1.98Zm3.5,17.85c1.78-1.17,2.67-2.56,2.67-4.19,0-1.41-.23-2.71-.69-3.89-.46-1.18-1.06-2.08-1.79-2.69-.68-.58-1.35-1.07-2.02-1.47-.68-.4-1.26-.66-1.75-.78l-.74-.14h-3.31c.31,3.53.46,8.6.46,15.23,3-.21,5.4-.9,7.18-2.07Z"/>
      </g>
    </g>
    <g id="RB_original" data-name="RB original">
      <path class="cls-3" d="m810.08,287.19c3.14-1.29,3.77-5.3,3.53-11.97-.21-5.83-.67-13.55-1.41-22-.28-3.17-.83-7.37-2.94-9.43-3.83-3.73-6.8-5.98-8.22-6.93-5.11-3.41-15.75-7.49-22.22-8.97-9.68-2.21-17.37-2.6-26.2-2.42-8.07.17-10.38,2.58-12.19,4.13-1.99,1.7-6.79,6.44-8.52,8.72-3.04,4.01-3.76,4.08-3.69,11.33.03,3.23,2.66,11.13,4.53,17.59,1.4,4.84,2.72,9.28,4.34,13.83.57,1.61,3.11,4.57,4.44,5.78,1.56,1.43,5.66,2.06,10.32,2.1,7.26.06,16.37.1,19.55.12,2.75.02,17.05-.19,21.88-.12,4.81.07,12.74-.1,16.8-1.77Z"/>
      <g>
        <path class="cls-16" d="m764.6,275.37v-.14c-.18-1.62-.74-3.43-1.66-5.43-.92-1.99-2.27-4.4-4.05-7.22-1.35-2.12-2.48-4.02-3.4-5.7v18.12c0,.49-.17.85-.51,1.08-.34.23-1,.34-1.98.34-.74,0-1.32-.11-1.75-.34-.43-.23-.64-.53-.64-.9v-.37l.18-13.52c.12-3.99.18-8.48.18-13.48v-5.66c0-.37.15-.62.46-.76.31-.14.95-.21,1.93-.21,1.53,0,2.94.15,4.23.44,1.29.29,2.39.7,3.31,1.22,1.9,1.07,3.13,2.36,3.68,3.86.24.61.37,1.32.37,2.12,0,.46-.08.97-.23,1.52-.15.55-.26.91-.32,1.06-.12.31-.4.77-.83,1.38-.43.61-.71,1.01-.83,1.2l-1.1,1.29-.92,1.2c.06,1.1.44,2.5,1.15,4.19.7,1.69,1.49,3.25,2.35,4.69.61,1.01,1.72,2.7,3.31,5.06l2.67,4.05v.09c0,.52-.09.97-.28,1.33-.18.49-.83.74-1.93.74-1.17,0-2.3-.41-3.4-1.24Zm-6.16-22.36l1.38-3.96c.06-.15.09-.37.09-.64,0-.89-.34-1.92-1.01-3.08-.37-.55-.84-1.02-1.43-1.4-.58-.38-1.18-.59-1.79-.62l-.18,4.6c-.18,2.06-.28,3.65-.28,4.78,0,1.07.03,1.78.09,2.12.86-.43,1.9-1.03,3.13-1.79Z"/>
        <path class="cls-16" d="m777.67,275.37l.18-5.66.18-5.66c0-2.05-.09-5.17-.28-9.34-.18-4.14-.28-7.25-.28-9.34v-.28c0-.8.15-1.53.46-2.21.37-.83,1.35-1.24,2.94-1.24,4.29,0,7.7.69,10.21,2.07,2.51,1.38,3.77,3.21,3.77,5.47,0,1.38-.74,2.82-2.21,4.32-1.47,1.5-3.22,2.62-5.24,3.36,3.56,1.2,6.18,2.74,7.87,4.62,1.69,1.89,2.53,3.96,2.53,6.23,0,1.07-.74,2.41-2.21,4-1.78,1.9-4.2,3.27-7.27,4.09-1.84.46-3.86.69-6.07.69h-.37c-2.82,0-4.23-.38-4.23-1.15Zm9.2-21.16c.92-.86,1.78-1.9,2.58-3.13.18-.34.49-.77.92-1.29v-1.61c0-.92-.68-1.81-2.02-2.67-1.35-.86-2.88-1.29-4.6-1.29-.86,0-1.29.48-1.29,1.43,0,2.02.06,3.83.18,5.43l.18,5.11c1.59-.18,2.94-.84,4.05-1.98Zm3.5,17.85c1.78-1.17,2.67-2.56,2.67-4.19,0-1.41-.23-2.71-.69-3.89-.46-1.18-1.06-2.08-1.79-2.69-.68-.58-1.35-1.07-2.02-1.47-.68-.4-1.26-.66-1.75-.78l-.74-.14h-3.31c.31,3.53.46,8.6.46,15.23,3-.21,5.4-.9,7.18-2.07Z"/>
      </g>
    </g>
  </g>
  <g id="Steuerkreuz">
    <g id="Ebene11">
      <path class="cls-10" d="m664.18,305.97c-2.66,0-15.32-.04-17.18-.03-4.05.03-4.05-.1-4.03-2.72.03-3.74.02-15.11.02-15.84,0-1.32-.07-1.35-1.34-1.34-1.66,0-13.11.01-15.89.02-2.66,0-2.62-.25-2.65-2.7-.03-2.66.02-14.22.02-17.04,0-4.07-.09-4.12,2.58-4.12,2.23,0,13.43.02,15.97.02,1.27,0,1.3,0,1.31-1.58,0-3.73,0-11.37.02-15.53,0-2.65.08-2.77,3.99-2.77,4.07,0,14.85,0,17.18,0,2.64,0,2.67.03,2.66,2.64-.01,3.75,0,13.51,0,15.5,0,1.91-.13,1.74.97,1.74.68,0,4.63-.02,6.71,0,1.43,0,7.6-.03,9.58-.03,2.66,0,2.67-.03,2.65,3.99-.01,2.12-.05,15.21-.03,17.27.02,2.49-.16,2.62-2.72,2.63-2.12.01-15.12-.04-15.85-.03-1.23.02-1.29.1-1.3,1.34-.02,2.67.04,12.57-.03,17.27-.02,1.3-.29,1.31-2.64,1.31Z"/>
      <path class="cls-2" d="m639.78,259c-4.11,0-12.21-.02-14.07-.02-2.08,0-3.24.38-3.96.9-.68.5-1.21,1.16-1.52,2.19-.23.75-.31,2.04-.31,4.24,0,2.82-.04,14.4-.02,17.07.02,2.41.5,3.64,1.14,4.37.69.78,1.92,1.51,4.71,1.51,2.25,0,10.19,0,14.02-.01,0,3.55,0,11.04-.02,13.95-.02,1.95.27,3.11.75,3.85.55.86,1.35,1.54,2.77,1.87.75.17,1.91.24,3.74.22,1.85-.02,14.49.03,17.15.03h0c2.77,0,3.96-.59,4.56-1.15.69-.64,1.26-1.57,1.28-3.33.06-3.94.03-11.51.03-15.45,3.82,0,12.29.04,13.96.03,2.55-.01,3.81-.59,4.53-1.28.76-.73,1.41-1.97,1.38-4.6-.02-2.05.02-15.11.03-17.22,0-1.78-.03-2.91-.18-3.63-.3-1.45-.98-2.25-1.84-2.81-.71-.47-1.85-.77-3.83-.77-1.98,0-8.14.04-9.57.03-1.21,0-3.03,0-4.49,0,0-3.46,0-10.87,0-14.02,0-2.67-.6-3.9-1.29-4.58-.68-.68-1.91-1.27-4.58-1.27-2.33,0-13.1,0-17.17,0-1.78,0-2.93.06-3.67.24-1.37.34-2.17,1-2.72,1.85-.49.75-.8,1.91-.81,3.87,0,3.62-.01,9.89-.02,13.91Zm24.4,46.96c-2.66,0-15.32-.04-17.18-.03-4.05.03-4.05-.1-4.03-2.72.03-3.74.02-15.11.02-15.84,0-1.32-.07-1.35-1.34-1.34-1.66,0-13.11.01-15.89.02-2.66,0-2.62-.25-2.65-2.7-.03-2.66.02-14.22.02-17.04,0-4.07-.09-4.12,2.58-4.12,2.23,0,13.43.02,15.97.02,1.27,0,1.3,0,1.31-1.58,0-3.73,0-11.37.02-15.53,0-2.65.08-2.77,3.99-2.77,4.07,0,14.85,0,17.18,0,2.64,0,2.67.03,2.66,2.64-.01,3.75,0,13.51,0,15.5,0,1.91-.13,1.74.97,1.74.68,0,4.63-.02,6.71,0,1.43,0,7.6-.03,9.58-.03,2.66,0,2.67-.03,2.65,3.99-.01,2.12-.05,15.21-.03,17.27.02,2.49-.16,2.62-2.72,2.63-2.12.01-15.12-.04-15.85-.03-1.23.02-1.29.1-1.3,1.34-.02,2.67.04,12.57-.03,17.27-.02,1.3-.29,1.31-2.64,1.31Z"/>
    </g>
    <g id="Ebene12">
      <path class="cls-3" d="m650.57,337.66c-12.56,2.1-22.82,9.02-31.69,20.89-2.66,3.56-8,11.83-5.77,26.38.54,3.52,5.94,17.45,11.71,22.29,4.27,3.59,13.56,12.91,26.03,15.57,5.59,1.19,13.29.65,18.8-.06,3.57-.47,13.21-2.98,17.11-7.34.08-.09-1.25-.71-3.31-1.41-1.55-.53-2.34-.58-1.57-1.13,2.9-2.07,5.19-4.48,9.92-9.49,7.03-7.44,6.33-22.26,3.37-31.38-3.93-12.09-8.92-21.31-17.45-27.06-8.43-5.68-18.37-8.7-27.14-7.24Z"/>
      <path class="cls-10" d="m664.7,413.83c-2.78,0-16.05-.04-17.99-.03-4.24.03-4.24-.1-4.22-2.85.03-3.92.02-15.82.02-16.59,0-1.38-.07-1.42-1.4-1.41-1.74,0-13.74.01-16.65.02-2.79,0-2.75-.26-2.77-2.83-.03-2.79.02-14.9.02-17.85,0-4.27-.09-4.31,2.7-4.32,2.33,0,14.07.02,16.73.02,1.34,0,1.37,0,1.37-1.66,0-3.9,0-11.91.02-16.27,0-2.77.09-2.91,4.18-2.9,4.27,0,15.55,0,18,0,2.76,0,2.8.04,2.79,2.76-.01,3.93,0,14.15,0,16.23,0,2-.14,1.82,1.02,1.82.71,0,4.85-.02,7.03,0,1.5,0,7.96-.03,10.04-.03,2.78,0,2.79-.04,2.77,4.18-.01,2.23-.05,15.94-.03,18.09.02,2.61-.16,2.75-2.85,2.76-2.22.01-15.84-.05-16.61-.03-1.29.02-1.36.11-1.36,1.4-.02,2.8.04,13.16-.03,18.09-.02,1.36-.3,1.38-2.76,1.37Z"/>
    </g>
  </g>
  <g id="X-Y-B-A">
    <g>
      <path class="cls-3" d="m773.05,438.8c-12.56,2.1-22.82,9.02-31.69,20.89-2.66,3.56-8,11.83-5.77,26.38.54,3.52,5.94,17.45,11.71,22.29,4.27,3.59,13.56,12.91,26.03,15.57,5.59,1.19,13.29.65,18.8-.06,3.57-.47,13.21-2.98,17.11-7.34.08-.09-1.25-.71-3.31-1.41-1.55-.53-2.34-.58-1.57-1.13,2.9-2.07,5.19-4.48,9.92-9.49,7.03-7.44,6.33-22.26,3.37-31.38-3.93-12.09-8.92-21.31-17.45-27.06-8.43-5.68-18.37-8.7-27.14-7.24Z"/>
      <path class="cls-16" d="m767.01,502.1c-.65-.21-.97-.46-.97-.77,0-.11.04-.17.11-.17,2.96-5.97,5.4-11.02,7.3-15.16,1.52-3.38,2.28-5.62,2.28-6.73,0-.87-.25-1.94-.74-3.19-.5-1.25-1.58-3.78-3.25-7.58l-2.74-6.16c-.23-.46-.34-.8-.34-1.03,0-.53.25-.92.74-1.17.49-.25,1.12-.37,1.88-.37,1.14,0,1.98.46,2.51,1.37.61,1.03,1.48,3.06,2.62,6.1l.46,1.03.91,2.22,1.6,4.1,2.74-6.67,2.17-5.24c.76-1.52,1.33-2.51,1.71-2.96.61-.53,1.25-.8,1.94-.8.76,0,1.41.11,1.94.34.53.23.8.53.8.91,0,.99-1.29,3.95-3.88,8.89-1.6,3-2.78,5.37-3.53,7.1-.76,1.73-1.14,2.97-1.14,3.73,0,.38.72,2.39,2.17,6.04,1.44,3.65,2.7,6.73,3.76,9.23l.8,1.6c.76,1.44,1.14,2.47,1.14,3.08,0,.99-.68,1.48-2.05,1.48-1.9,0-3-.46-3.31-1.37-.3-.76-.87-2.3-1.71-4.62l-.91-2.62c-1.44-3.99-2.51-6.71-3.19-8.15-3.8,8.51-6.08,13.45-6.84,14.82-1.07,2.01-1.98,3.02-2.74,3.02-.84,0-1.58-.1-2.22-.31Z"/>
    </g>
    <g>
      <path class="cls-3" d="m773.05,536.77c-12.56,2.1-22.82,9.02-31.69,20.89-2.66,3.56-8,11.83-5.77,26.38.54,3.52,5.94,17.45,11.71,22.29,4.27,3.59,13.56,12.91,26.03,15.57,5.59,1.19,13.29.65,18.8-.06,3.57-.47,13.21-2.98,17.11-7.34.08-.09-1.25-.71-3.31-1.41-1.55-.53-2.34-.58-1.57-1.13,2.9-2.07,5.19-4.48,9.92-9.49,7.03-7.44,6.33-22.26,3.37-31.38-3.93-12.09-8.92-21.31-17.45-27.06-8.43-5.68-18.37-8.7-27.14-7.24Z"/>
      <path class="cls-16" d="m785.72,597.46c-.57-.23-.85-.61-.85-1.14v-7.47c-.99-.34-2.85-.65-5.59-.91-2.74-.27-5.32-.44-7.75-.51-.84.8-1.44,1.77-1.82,2.91l-.46,1.14c-.08.27-.3.85-.68,1.77-.38.91-.8,1.7-1.25,2.37-.46.67-.91,1.19-1.37,1.57-2.89,0-4.56-.38-5.02-1.14.84-.61,1.78-2.39,2.85-5.36l3.76-10.43c1.67-4.94,3.21-9.16,4.62-12.65,1.41-3.5,2.91-6.42,4.5-8.78,1.75-2.62,3.42-3.93,5.02-3.93s2.81.15,3.65.46c0,1.52.72,5.19,2.17,11,1.52,5.7,2.28,9.6,2.28,11.68s.42,4.9,1.25,8.66c.76,3.84,1.14,6.9,1.14,9.18,0,1.29-1.25,1.94-3.76,1.94-1.22,0-2.11-.11-2.68-.34Zm-.97-12.08c-.23-1.67-.61-3.74-1.14-6.21-1.75-8.59-2.62-13.85-2.62-15.79v-.46c-.76.38-1.81,2.1-3.13,5.16-1.33,3.06-2.57,6.34-3.71,9.83-1.14,3.5-1.75,5.81-1.82,6.95,3.19.46,6.57.68,10.15.68.61,0,1.37-.06,2.28-.17Z"/>
    </g>
    <g>
      <path class="cls-3" d="m865.85,534.58c-12.56,2.1-22.82,9.02-31.69,20.89-2.66,3.56-8,11.83-5.77,26.38.54,3.52,5.94,17.45,11.71,22.29,4.27,3.59,13.56,12.91,26.03,15.57,5.59,1.19,13.29.65,18.8-.06,3.57-.47,13.21-2.98,17.11-7.34.08-.09-1.25-.71-3.31-1.41-1.55-.53-2.34-.58-1.57-1.13,2.9-2.07,5.19-4.48,9.92-9.49,7.03-7.44,6.33-22.26,3.37-31.38-3.93-12.09-8.92-21.31-17.45-27.06-8.43-5.68-18.37-8.7-27.14-7.24Z"/>
      <path class="cls-16" d="m863.19,596.37l.23-7.01.23-7.01c0-2.54-.11-6.4-.34-11.57-.23-5.13-.34-8.99-.34-11.57v-.34c0-.99.19-1.9.57-2.74.46-1.03,1.67-1.54,3.65-1.54,5.32,0,9.54.86,12.65,2.57,3.12,1.71,4.67,3.97,4.67,6.78,0,1.71-.91,3.5-2.74,5.36-1.82,1.86-3.99,3.25-6.5,4.16,4.41,1.48,7.66,3.39,9.75,5.73,2.09,2.34,3.13,4.91,3.13,7.72,0,1.33-.91,2.98-2.74,4.96-2.21,2.36-5.21,4.05-9.01,5.07-2.28.57-4.79.85-7.52.85h-.46c-3.5,0-5.24-.47-5.24-1.42Zm11.4-26.22c1.14-1.06,2.2-2.36,3.19-3.88.23-.42.61-.95,1.14-1.6v-1.99c0-1.14-.84-2.24-2.51-3.31-1.67-1.06-3.57-1.6-5.7-1.6-1.07,0-1.6.59-1.6,1.77,0,2.51.08,4.75.23,6.73l.23,6.33c1.98-.23,3.65-1.04,5.02-2.45Zm4.33,22.12c2.2-1.44,3.31-3.17,3.31-5.19,0-1.75-.29-3.35-.85-4.82-.57-1.46-1.31-2.57-2.22-3.33-.84-.72-1.67-1.33-2.51-1.82-.84-.49-1.56-.82-2.17-.97l-.91-.17h-4.1c.38,4.37.57,10.66.57,18.87,3.72-.27,6.69-1.12,8.89-2.57Z"/>
    </g>
    <g>
      <path class="cls-3" d="m865.85,437.93c-12.56,2.1-22.82,9.02-31.69,20.89-2.66,3.56-8,11.83-5.77,26.38.54,3.52,5.94,17.45,11.71,22.29,4.27,3.59,13.56,12.91,26.03,15.57,5.59,1.19,13.29.65,18.8-.06,3.57-.47,13.21-2.98,17.11-7.34.08-.09-1.25-.71-3.31-1.41-1.55-.53-2.34-.58-1.57-1.13,2.9-2.07,5.19-4.48,9.92-9.49,7.03-7.44,6.33-22.26,3.37-31.38-3.93-12.09-8.92-21.31-17.45-27.06-8.43-5.68-18.37-8.7-27.14-7.24Z"/>
      <path class="cls-16" d="m869.17,502.36c-.57-.27-.85-.59-.85-.97l.23-5.53c.23-2.47.34-4.31.34-5.53,0-1.1-.34-2.74-1.03-4.9-.76-2.13-1.14-3.78-1.14-4.96,0-1.44-.42-3.1-1.25-4.96-.84-1.86-1.9-3.65-3.19-5.36-1.22-1.63-2.24-3.39-3.08-5.27-.84-1.88-1.25-3.52-1.25-4.93,0-.27.3-.49.91-.68.61-.19,1.25-.28,1.94-.28.84,0,1.63.44,2.39,1.31.91.99,1.78,2.38,2.62,4.16.84,1.79,1.33,2.85,1.48,3.19l1.48,3.93,1.14,2.51c.23-.61.42-1.41.57-2.39.46-3.15,1.03-5.78,1.71-7.87.53-1.44,1.14-2.55,1.82-3.31.76-.83,1.67-1.25,2.74-1.25,2.05,0,3.08.19,3.08.57,0,2.17-.91,5.36-2.74,9.58-1.82,4.22-2.74,7.43-2.74,9.63l-.23.91c-.15.57-.19.91-.11,1.03v.91c0,1.63.11,4.14.34,7.52l.23,7.58.23,1.31.23,1.37v1.42c0,.46-.38.85-1.14,1.17-.76.32-1.67.48-2.74.48-.76,0-1.43-.13-2-.4Z"/>
    </g>
  </g>
  <g id="Tasten">
    <g id="Q-Taste">
      <path class="cls-3" d="m929.76,703.04c0-3.38-1.34-6.61-3.73-9s-5.62-3.73-9-3.73h-56.36c-3.38,0-6.61,1.34-9,3.73-2.39,2.39-3.73,5.62-3.73,9v56.36c0,3.37,1.34,6.61,3.73,9,2.39,2.39,5.62,3.73,9,3.73h56.36c3.37,0,6.61-1.34,9-3.73,2.39-2.39,3.73-5.62,3.73-9v-56.36Z"/>
      <path class="cls-16" d="m886.22,751.2v-.06c-2.05-.46-3.5-1.29-4.33-2.51-.53-.99-1.03-2.15-1.48-3.48-.3-.91-.5-1.44-.57-1.6h-4.67c-4.03-1.33-6.99-3.08-8.89-5.24-.84-.91-1.52-1.96-2.05-3.14-.53-1.18-.87-2.34-1.03-3.48-.15-.68-.23-1.86-.23-3.53l.23-4.67c.23-2.05.34-3.59.34-4.62l-.11-1.82v-2.22c0-2.28.15-4.1.46-5.47.46-1.9,1.25-3.63,2.39-5.19,1.21-1.63,3.04-2.77,5.47-3.42,1.29-.34,2.7-.51,4.22-.51,2.05,0,3.95.21,5.7.63,1.75.42,3.27.99,4.56,1.71,2.05,1.22,3.72,3.19,5.02,5.93.91,2.47,1.44,4.98,1.6,7.52.08.8.11,2.11.11,3.93v3.08c-.08.88-.11,1.79-.11,2.74v2.56c0,3.42-.44,6.08-1.31,7.98-.88,1.9-2.76,3.86-5.64,5.87l.46,1.14c.46,1.48.95,2.64,1.48,3.48.76,1.37,1.71,2.05,2.85,2.05h.46c1.37,0,2.43.04,3.19.11,1.14.19,1.71.61,1.71,1.25,0,1.18-1.67,1.77-5.02,1.77-1.29,0-2.89-.27-4.79-.8Zm-6.95-9.35c.53-.49,1.56-.74,3.08-.74v.06c2.81-1.29,4.22-3.34,4.22-6.16v-15.33c0-2.43-.11-4.46-.34-6.1-.3-2.13-.99-4.12-2.05-5.99-.53-.95-1.2-1.73-2-2.34-.8-.61-1.81-1.12-3.02-1.54-1.29-.42-2.66-.63-4.1-.63-1.37,0-2.51.99-3.42,2.96-1.52,3-2.47,7.9-2.85,14.71-.15,2.66-.23,4.39-.23,5.19,0,1.63.19,3.52.57,5.64.38,2.32,1.37,4.56,2.96,6.73.76,1.06,1.75,1.91,2.96,2.54,1.21.63,2.62.98,4.22,1.05v-.06Z"/>
    </g>
    <g id="E-Taste">
      <path class="cls-3" d="m814.35,703.26c0-3.38-1.34-6.61-3.73-9s-5.62-3.73-9-3.73h-56.36c-3.38,0-6.61,1.34-9,3.73-2.39,2.39-3.73,5.62-3.73,9v56.36c0,3.37,1.34,6.61,3.73,9,2.39,2.39,5.62,3.73,9,3.73h56.36c3.37,0,6.61-1.34,9-3.73,2.39-2.39,3.73-5.62,3.73-9v-56.36Z"/>
      <path class="cls-16" d="m753.45,744.19c-1.29-.19-1.94-.72-1.94-1.6v-33.12c0-.65-.23-1.62-.68-2.91-.53-1.18-.8-2.15-.8-2.91v-.17c1.29-1.06,2.24-1.75,2.85-2.05,1.06,0,2.47-.08,4.22-.23,1.6-.15,3-.23,4.22-.23s2.39.18,3.53.54c1.14.36,1.71.79,1.71,1.28,0,1.14-1.75,1.71-5.24,1.71h-1.6c-.46-.04-.99-.06-1.6-.06-.68,0-1.1.02-1.25.06,0,1.29.15,2.85.46,4.67l.23,1.6.23,3.13c0,.72-.11,1.82-.34,3.31l-.23,3.19,1.6-.17c1.52-.23,2.77-.34,3.76-.34.84,0,1.6.16,2.28.48.68.32,1.03.69,1.03,1.11,0,.46-.29.87-.85,1.23-.57.36-1.27.54-2.11.54l-1.37-.06h-1.48c-1.14,0-1.94.13-2.39.4v17.61l6.38-.17c4.33,0,6.5.5,6.5,1.48v.23c-.46.46-1.29.83-2.51,1.11-1.22.28-2.39.46-3.53.54l-3.76.06h-3.53c-1.44,0-2.7-.09-3.76-.28Z"/>
    </g>
  </g>
</svg>