<?xml version="1.0" encoding="UTF-8"?>
<svg id="Ebene_2" data-name="Ebene 2" xmlns="http://www.w3.org/2000/svg" viewBox="0 0 84.71 86.18">
  <defs>
    <style>
      .cls-1 {
        fill: #fcf09a;
      }

      .cls-1, .cls-2 {
        fill-rule: evenodd;
      }

      .cls-2 {
        fill: #86a66e;
      }
    </style>
  </defs>
  <g id="Ebene_1-2" data-name="Ebene 1">
    <g id="Steuerkreuz">
      <g id="Ebene12">
        <path class="cls-1" d="m37.99.37C25.44,2.47,15.17,9.39,6.31,21.25c-2.66,3.56-8,11.83-5.77,26.38.54,3.52,5.94,17.45,11.71,22.29,4.27,3.59,13.56,12.91,26.03,15.57,5.59,1.19,13.29.65,18.8-.06,3.57-.47,13.21-2.98,17.11-7.34.08-.09-1.25-.71-3.31-1.41-1.55-.53-2.34-.58-1.57-1.13,2.9-2.07,5.19-4.48,9.92-9.49,7.03-7.44,6.33-22.26,3.37-31.38-3.93-12.09-8.92-21.31-17.45-27.06C56.7,1.92,46.76-1.1,37.99.37Z"/>
        <path class="cls-2" d="m52.13,76.53c-2.78,0-16.05-.04-17.99-.03-4.24.03-4.24-.1-4.22-2.85.03-3.92.02-15.82.02-16.59,0-1.38-.07-1.42-1.4-1.41-1.74,0-13.74.01-16.65.02-2.79,0-2.75-.26-2.77-2.83-.03-2.79.02-14.9.02-17.85,0-4.27-.09-4.31,2.7-4.32,2.33,0,14.07.02,16.73.02,1.34,0,1.37,0,1.37-1.66,0-3.9,0-11.91.02-16.27,0-2.77.09-2.91,4.18-2.9,4.27,0,15.55,0,18,0,2.76,0,2.8.04,2.79,2.76-.01,3.93,0,14.15,0,16.23,0,2-.14,1.82,1.02,1.82.71,0,4.85-.02,7.03,0,1.5,0,7.96-.03,10.04-.03,2.78,0,2.79-.04,2.77,4.18-.01,2.23-.05,15.94-.03,18.09.02,2.61-.16,2.75-2.85,2.76-2.22.01-15.84-.05-16.61-.03-1.29.02-1.36.11-1.36,1.4-.02,2.8.04,13.16-.03,18.09-.02,1.36-.3,1.38-2.76,1.37Z"/>
      </g>
    </g>
  </g>
</svg>