<?xml version="1.0" encoding="UTF-8"?>
<svg id="Ebene_2" data-name="Ebene 2" xmlns="http://www.w3.org/2000/svg" viewBox="0 0 81.82 81.82">
  <defs>
    <style>
      .cls-1 {
        fill: #fcf09a;
        fill-rule: evenodd;
      }

      .cls-2 {
        fill: #86a66e;
      }
    </style>
  </defs>
  <g id="Ebene_1-2" data-name="Ebene 1">
    <g id="Tasten">
      <g id="E-Taste">
        <path class="cls-1" d="m81.82,12.73c0-3.38-1.34-6.61-3.73-9s-5.62-3.73-9-3.73H12.73c-3.38,0-6.61,1.34-9,3.73C1.34,6.11,0,9.35,0,12.73v56.36c0,3.37,1.34,6.61,3.73,9,2.39,2.39,5.62,3.73,9,3.73h56.36c3.37,0,6.61-1.34,9-3.73,2.39-2.39,3.73-5.62,3.73-9V12.73Z"/>
        <path class="cls-2" d="m20.91,53.66c-1.29-.19-1.94-.72-1.94-1.6V18.94c0-.65-.23-1.62-.68-2.91-.53-1.18-.8-2.15-.8-2.91v-.17c1.29-1.06,2.24-1.75,2.85-2.05,1.06,0,2.47-.08,4.22-.23,1.6-.15,3-.23,4.22-.23s2.39.18,3.53.54c1.14.36,1.71.79,1.71,1.28,0,1.14-1.75,1.71-5.24,1.71h-1.6c-.46-.04-.99-.06-1.6-.06-.68,0-1.1.02-1.25.06,0,1.29.15,2.85.46,4.67l.23,1.6.23,3.13c0,.72-.11,1.82-.34,3.31l-.23,3.19,1.6-.17c1.52-.23,2.77-.34,3.76-.34.84,0,1.6.16,2.28.48.68.32,1.03.69,1.03,1.11,0,.46-.29.87-.85,1.23-.57.36-1.27.54-2.11.54l-1.37-.06h-1.48c-1.14,0-1.94.13-2.39.4v17.61l6.38-.17c4.33,0,6.5.5,6.5,1.48v.23c-.46.46-1.29.83-2.51,1.11-1.22.28-2.39.46-3.53.54l-3.76.06h-3.53c-1.44,0-2.7-.09-3.76-.28Z"/>
      </g>
    </g>
  </g>
</svg>