<?xml version="1.0" encoding="UTF-8"?>
<svg id="Ebene_2" data-name="Ebene 2" xmlns="http://www.w3.org/2000/svg" viewBox="0 0 81.82 81.82">
  <defs>
    <style>
      .cls-1 {
        fill: #fcf09a;
        fill-rule: evenodd;
      }

      .cls-2 {
        fill: #86a66e;
      }
    </style>
  </defs>
  <g id="Ebene_1-2" data-name="Ebene 1">
    <g id="Tasten">
      <g>
        <path class="cls-1" d="m81.82,12.73c0-3.38-1.34-6.61-3.73-9s-5.62-3.73-9-3.73H12.73c-3.38,0-6.61,1.34-9,3.73C1.34,6.11,0,9.35,0,12.73v56.36c0,3.37,1.34,6.61,3.73,9,2.39,2.39,5.62,3.73,9,3.73h56.36c3.37,0,6.61-1.34,9-3.73,2.39-2.39,3.73-5.62,3.73-9V12.73Z"/>
        <path class="cls-2" d="m14.36,39.38c-.82-.12-1.22-.46-1.22-1.01v-20.92c0-.41-.14-1.02-.43-1.84-.34-.74-.5-1.36-.5-1.84v-.11c.82-.67,1.42-1.1,1.8-1.3.67,0,1.56-.05,2.66-.14,1.01-.1,1.9-.14,2.66-.14s1.51.11,2.23.34c.72.23,1.08.5,1.08.81,0,.72-1.1,1.08-3.31,1.08h-1.01c-.29-.02-.62-.04-1.01-.04-.43,0-.7.01-.79.04,0,.82.1,1.8.29,2.95l.14,1.01.14,1.98c0,.46-.07,1.15-.22,2.09l-.14,2.02,1.01-.11c.96-.14,1.75-.22,2.38-.22.53,0,1.01.1,1.44.31.43.2.65.44.65.7,0,.29-.18.55-.54.77-.36.23-.8.34-1.33.34l-.86-.04h-.94c-.72,0-1.22.08-1.51.25v11.12l4.03-.11c2.74,0,4.1.31,4.1.94v.14c-.29.29-.82.52-1.58.7-.77.18-1.51.29-2.23.34l-2.38.04h-2.23c-.91,0-1.7-.06-2.38-.18Z"/>
        <path class="cls-2" d="m26.89,39.67c-.77-.22-1.15-.47-1.15-.76s.14-.52.43-.7c.29-.18.69-.27,1.22-.27.48,0,1.18.1,2.09.29,1.01.19,1.63.29,1.87.29.91,0,1.74-.2,2.48-.59.74-.4,1.33-.92,1.76-1.57.86-1.2,1.3-2.28,1.3-3.24,0-1.03-.32-2.12-.97-3.26-.65-1.14-1.52-2.25-2.63-3.33l-1.15-1.15c-1.2-1.2-2.12-2.15-2.77-2.84s-1.21-1.45-1.69-2.27c-.72-1.15-1.08-2.27-1.08-3.35,0-.86.3-1.68.9-2.45.6-.77,1.5-1.42,2.7-1.94,1.2-.58,2.69-.86,4.46-.86.86,0,1.7.13,2.52.38.82.25,1.39.57,1.73.95l-1.22.76c-1.25,0-2.18-.12-2.81-.36-.86.05-1.62.26-2.27.63s-1.14.8-1.48,1.28c-.29.46-.43.91-.43,1.37,0,.91.25,1.84.76,2.79.5.95,1.16,1.84,1.98,2.68l5.04,5.04c.82.86,1.46,1.84,1.94,2.92.48,1.08.72,2.16.72,3.24,0,1.58-.77,3.07-2.3,4.46-.82.72-1.87,1.29-3.17,1.71s-2.74.63-4.32.63c-1.73,0-3.22-.16-4.46-.47Z"/>
        <path class="cls-2" d="m50.18,39.46c-1.13-.31-2.1-.73-2.92-1.26-.72-.5-1.37-1.15-1.94-1.93-.58-.78-1.01-1.59-1.3-2.43-.58-1.42-.96-3.28-1.15-5.58-.05-.55-.07-1.5-.07-2.84v-2.27c.05-.65.07-1.32.07-2.02,0-1.42.17-2.53.5-3.35-.14-.36-.22-.73-.22-1.12,0-1.44,1.08-2.6,3.24-3.49s4.9-1.33,8.21-1.33c1.25,0,2.4.17,3.46.5,1.06.34,1.58.76,1.58,1.26,0,.24-.19.43-.58.58-.38.14-.86.22-1.44.22-.48,0-1-.04-1.55-.11-.55-.07-.9-.18-1.04-.32h-.94v-.07c-1.78,0-3.27.19-4.46.58-.86.31-1.54.83-2.02,1.55-.19.26-.34.6-.43,1.01-.1.41-.14.78-.14,1.12-.05.19-.07.58-.07,1.15l.14,1.26.07,1.22c0,.36-.1.78-.29,1.26-.24.6-.36,1.02-.36,1.26v.86c0,.94.07,2.22.22,3.85.05,1.37.36,2.74.94,4.1.43,1.27,1.25,2.35,2.45,3.24,1.15.91,2.71,1.37,4.68,1.37.82,0,1.82-.22,3.02-.65,1.3-.43,2.21-.65,2.74-.65.67,0,1.37.18,2.09.54,0,.89-.67,1.57-2.02,2.05-1.25.43-2.74.71-4.46.83-.96.05-1.73.07-2.3.07-1.34,0-2.58-.16-3.71-.47Z"/>
      </g>
    </g>
  </g>
</svg>