<?xml version="1.0" encoding="UTF-8"?>
<svg id="Ebene_2" data-name="Ebene 2" xmlns="http://www.w3.org/2000/svg" viewBox="0 0 81.82 81.82">
  <defs>
    <style>
      .cls-1 {
        fill: #fcf09a;
        fill-rule: evenodd;
      }

      .cls-2 {
        fill: #86a66e;
      }
    </style>
  </defs>
  <g id="Ebene_1-2" data-name="Ebene 1">
    <g id="Tasten">
      <g>
        <path class="cls-1" d="m81.82,12.73c0-3.38-1.34-6.61-3.73-9s-5.62-3.73-9-3.73H12.73c-3.38,0-6.61,1.34-9,3.73C1.34,6.11,0,9.35,0,12.73v56.36c0,3.37,1.34,6.61,3.73,9,2.39,2.39,5.62,3.73,9,3.73h56.36c3.37,0,6.61-1.34,9-3.73,2.39-2.39,3.73-5.62,3.73-9V12.73Z"/>
        <path class="cls-2" d="m26.04,53.2c-2.21-.91-4.22-2.47-6.04-4.67-1.14-1.44-2.05-3.48-2.74-6.1-.53-2.13-.8-4.14-.8-6.04-.08-.49-.11-1.35-.11-2.56v-4.22c0-1.63.11-3.59.34-5.87.3-1.94.91-3.91,1.82-5.93.99-1.98,2.43-3.65,4.33-5.02,1.9-1.44,4.45-2.47,7.64-3.08,1.9-.27,3.69-.4,5.36-.4,3.19,0,4.79.53,4.79,1.6,0,.42-.28.75-.85,1-.57.25-1.31.37-2.22.37-.3,0-.84-.06-1.6-.17l-1.6-.11c-1.44,0-2.74.22-3.88.66-1.14.44-2.09,1.07-2.85,1.91-1.75,1.82-2.93,3.82-3.53,5.99-.84,2.66-1.29,4.98-1.37,6.95-.15,1.71-.23,3.51-.23,5.42v1.54c-.08.53-.11,1.2-.11,1.99,0,1.94.19,3.84.57,5.7.3,2.2,1.14,4.1,2.51,5.7,1.21,1.79,3.19,3.04,5.93,3.76,1.29.38,2.89.57,4.79.57,3.34,0,6.16-.8,8.44-2.39-.08-1.33-.27-2.63-.57-3.91-.3-1.27-.76-2.14-1.37-2.59-.08,0-.25,0-.51.03-.27.02-.67.05-1.2.08l-2.74.11c-2.58,0-3.88-.55-3.88-1.65,0-.34.38-.65,1.14-.91.76-.27,1.78-.46,3.08-.57,2.13-.27,4.03-.4,5.7-.4,1.52,0,2.7.29,3.53.86.84.57,1.25,1.29,1.25,2.17,0,1.25.38,2.96,1.14,5.13.76,2.13,1.14,3.82,1.14,5.07,0,.42-.27.78-.8,1.08-.53.3-1.18.46-1.94.46-1.9,0-3.19-.4-3.88-1.2v-.06l-2.51.63c-2.28.65-4.22.97-5.81.97-4.18,0-7.64-.63-10.37-1.88Z"/>
      </g>
    </g>
  </g>
</svg>