<?xml version="1.0" encoding="UTF-8"?>
<svg id="Ebene_2" data-name="Ebene 2" xmlns="http://www.w3.org/2000/svg" viewBox="0 0 84.71 86.18">
  <defs>
    <style>
      .cls-1, .cls-2 {
        fill-rule: evenodd;
      }

      .cls-1, .cls-3 {
        fill: #fcf09a;
      }

      .cls-2 {
        fill: #86a66e;
      }

      .cls-3 {
        font-family: AmaticSC-Bold, 'Amatic SC';
        font-size: 24px;
        font-weight: 700;
      }
    </style>
  </defs>
  <g id="Ebene_1-2" data-name="Ebene 1">
    <g id="Steuerkreuz">
      <g>
        <path class="cls-1" d="m37.99.37C25.44,2.47,15.17,9.39,6.31,21.25c-2.66,3.56-8,11.83-5.77,26.38.54,3.52,5.94,17.45,11.71,22.29,4.27,3.59,13.56,12.91,26.03,15.57,5.59,1.19,13.29.65,18.8-.06,3.57-.47,13.21-2.98,17.11-7.34.08-.09-1.25-.71-3.31-1.41-1.55-.53-2.34-.58-1.57-1.13,2.9-2.07,5.19-4.48,9.92-9.49,7.03-7.44,6.33-22.26,3.37-31.38-3.93-12.09-8.92-21.31-17.45-27.06C56.7,1.92,46.76-1.1,37.99.37Z"/>
        <g id="E-Taste">
          <path class="cls-2" d="m55.77,59.53c0-1.11-.44-2.17-1.22-2.95s-1.84-1.22-2.95-1.22h-18.49c-1.11,0-2.17.44-2.95,1.22-.78.78-1.22,1.84-1.22,2.95v18.49c0,1.11.44,2.17,1.22,2.95.78.78,1.84,1.22,2.95,1.22h18.49c1.11,0,2.17-.44,2.95-1.22.78-.78,1.22-1.84,1.22-2.95v-18.49Z"/>
          <text class="cls-3" transform="translate(31.31 77.17) scale(2 1)"><tspan x="0" y="0">M</tspan></text>
        </g>
        <g id="E-Taste-2" data-name="E-Taste">
          <path class="cls-2" d="m55.2,8.17c0-1.11-.44-2.17-1.22-2.95s-1.84-1.22-2.95-1.22h-18.49c-1.11,0-2.17.44-2.95,1.22-.78.78-1.22,1.84-1.22,2.95v18.49c0,1.11.44,2.17,1.22,2.95.78.78,1.84,1.22,2.95,1.22h18.49c1.11,0,2.17-.44,2.95-1.22.78-.78,1.22-1.84,1.22-2.95V8.17Z"/>
          <text class="cls-3" transform="translate(31.1 25.45) scale(2 1)"><tspan x="0" y="0">I</tspan></text>
        </g>
        <g id="E-Taste-3" data-name="E-Taste">
          <path class="cls-2" d="m82.04,33.41c0-1.11-.44-2.17-1.22-2.95s-1.84-1.22-2.95-1.22h-18.49c-1.11,0-2.17.44-2.95,1.22-.78.78-1.22,1.84-1.22,2.95v18.49c0,1.11.44,2.17,1.22,2.95.78.78,1.84,1.22,2.95,1.22h18.49c1.11,0,2.17-.44,2.95-1.22.78-.78,1.22-1.84,1.22-2.95v-18.49Z"/>
          <text class="cls-3" transform="translate(58.03 51.04) scale(2 1)"><tspan x="0" y="0">B</tspan></text>
        </g>
        <g id="E-Taste-4" data-name="E-Taste">
          <path class="cls-2" d="m29.26,33.41c0-1.11-.44-2.17-1.22-2.95s-1.84-1.22-2.95-1.22H6.6c-1.11,0-2.17.44-2.95,1.22-.78.78-1.22,1.84-1.22,2.95v18.49c0,1.11.44,2.17,1.22,2.95.78.78,1.84,1.22,2.95,1.22h18.49c1.11,0,2.17-.44,2.95-1.22.78-.78,1.22-1.84,1.22-2.95v-18.49Z"/>
        </g>
      </g>
    </g>
  </g>
</svg>