<?xml version="1.0" encoding="UTF-8"?>
<svg id="Ebene_2" data-name="Ebene 2" xmlns="http://www.w3.org/2000/svg" viewBox="0 0 84.71 86.18">
  <defs>
    <style>
      .cls-1, .cls-2 {
        fill-rule: evenodd;
      }

      .cls-1, .cls-3 {
        fill: #fcf09a;
      }

      .cls-2 {
        fill: #86a66e;
      }
    </style>
  </defs>
  <g id="Ebene_1-2" data-name="Ebene 1">
    <g id="Steuerkreuz">
      <g>
        <path class="cls-1" d="m37.99.37C25.44,2.47,15.17,9.39,6.31,21.25c-2.66,3.56-8,11.83-5.77,26.38.54,3.52,5.94,17.45,11.71,22.29,4.27,3.59,13.56,12.91,26.03,15.57,5.59,1.19,13.29.65,18.8-.06,3.57-.47,13.21-2.98,17.11-7.34.08-.09-1.25-.71-3.31-1.41-1.55-.53-2.34-.58-1.57-1.13,2.9-2.07,5.19-4.48,9.92-9.49,7.03-7.44,6.33-22.26,3.37-31.38-3.93-12.09-8.92-21.31-17.45-27.06C56.7,1.92,46.76-1.1,37.99.37Z"/>
        <g id="E-Taste">
          <path class="cls-2" d="m55.77,59.53c0-1.11-.44-2.17-1.22-2.95s-1.84-1.22-2.95-1.22h-18.49c-1.11,0-2.17.44-2.95,1.22-.78.78-1.22,1.84-1.22,2.95v18.49c0,1.11.44,2.17,1.22,2.95.78.78,1.84,1.22,2.95,1.22h18.49c1.11,0,2.17-.44,2.95-1.22.78-.78,1.22-1.84,1.22-2.95v-18.49Z"/>
          <path class="cls-3" d="m47.25,77.55c-.19-.16-.29-.39-.29-.7l-.05-3.55c-.03-.3-.05-.81-.05-1.51-.06-1.49-.1-3.17-.1-5.04v-1.22c-.29.77-.78,1.85-1.49,3.24-.7,1.44-1.2,2.62-1.49,3.55v.14l-.14.46c-.06.35-.22.71-.48,1.08-.32.38-.82.58-1.49.58-1.15,0-1.73-.75-1.73-2.26,0-.83-.17-1.72-.5-2.68-.34-.95-.87-2.12-1.61-3.52l-1.44-2.69-.1,2.88c0,.86.08,2.51.24,4.94l.1,1.63.1,3.29c0,.34-.24.64-.72.91-.8,0-1.35-.12-1.66-.37-.3-.25-.46-.61-.46-1.09l.1-1.97c.1-.86.14-1.51.14-1.94l-.1-4.63-.1-4.66c0-.69.03-1.72.1-3.1l1.3-.38c.26.02.51.11.77.28.26.17.54.44.86.8.8.99,1.84,2.98,3.12,5.95.19.42.32.76.38,1.03.38.93.66,1.63.82,2.11l.72,1.85.34-.79.91-1.97c.51-1.15.94-2.16,1.27-3.02.34-.86.66-1.8.98-2.81.35-1.2.58-2.2.67-3v-.14c.06-.21.26-.37.58-.49.32-.12.7-.18,1.15-.18.29,0,.54.06.77.19.22.13.34.26.34.41,0,1.92.14,4.79.43,8.62.16,1.87.27,3.7.34,5.5.06.82.1,1.85.1,3.1,0,.37-.19.7-.58.98s-.82.43-1.3.43c-.32,0-.58-.08-.77-.24Z"/>
        </g>
        <g id="E-Taste-2" data-name="E-Taste">
          <path class="cls-2" d="m55.2,8.17c0-1.11-.44-2.17-1.22-2.95s-1.84-1.22-2.95-1.22h-18.49c-1.11,0-2.17.44-2.95,1.22-.78.78-1.22,1.84-1.22,2.95v18.49c0,1.11.44,2.17,1.22,2.95.78.78,1.84,1.22,2.95,1.22h18.49c1.11,0,2.17-.44,2.95-1.22.78-.78,1.22-1.84,1.22-2.95V8.17Z"/>
          <path class="cls-3" d="m32.88,24.71c0-.38.48-.58,1.44-.58h.58c.13.02.27.02.43.02.26,0,.44-.04.55-.12.11-.08.17-.22.17-.43,0-1.36-.16-3.22-.48-5.57-.29-2.45-.43-4.3-.43-5.54,0-.45.02-.86.05-1.22l.05-1.22c0-.53-.05-.97-.14-1.32-.35.06-.72.1-1.1.1-.74,0-1.1-.19-1.1-.58,0-.19.23-.36.7-.5.46-.14,1.06-.25,1.8-.31,1.34-.11,2.48-.17,3.41-.17.38,0,.71.06.98.19.27.13.41.28.41.46s-.1.33-.31.46c-.21.13-.47.19-.79.19-.19,0-.35,0-.48-.02h-.38c-.32,0-.55.04-.7.11-.14.07-.22.2-.22.4,0,1.7.21,4.03.62,7.01.38,3.12.58,5.46.58,7.03v.91c.22-.02.54-.02.96-.02,1.34,0,2.02.28,2.02.84v.14l-1.2.41s-.13,0-.29.01c-.16,0-.48.01-.96.01-1.09.03-1.76.05-2.02.05-2.75,0-4.13-.24-4.13-.72Z"/>
        </g>
        <g id="E-Taste-3" data-name="E-Taste">
          <path class="cls-2" d="m82.04,33.41c0-1.11-.44-2.17-1.22-2.95s-1.84-1.22-2.95-1.22h-18.49c-1.11,0-2.17.44-2.95,1.22-.78.78-1.22,1.84-1.22,2.95v18.49c0,1.11.44,2.17,1.22,2.95.78.78,1.84,1.22,2.95,1.22h18.49c1.11,0,2.17-.44,2.95-1.22.78-.78,1.22-1.84,1.22-2.95v-18.49Z"/>
          <path class="cls-3" d="m60.96,50.63l.1-2.95.1-2.95c0-1.07-.05-2.7-.14-4.87-.1-2.16-.14-3.78-.14-4.87v-.14c0-.42.08-.8.24-1.15.19-.43.7-.65,1.54-.65,2.24,0,4.02.36,5.33,1.08,1.31.72,1.97,1.67,1.97,2.86,0,.72-.38,1.47-1.15,2.26-.77.78-1.68,1.37-2.74,1.75,1.86.62,3.22,1.43,4.1,2.41.88.98,1.32,2.07,1.32,3.25,0,.56-.38,1.26-1.15,2.09-.93.99-2.19,1.7-3.79,2.14-.96.24-2.02.36-3.17.36h-.19c-1.47,0-2.21-.2-2.21-.6Zm4.8-11.04c.48-.45.93-.99,1.34-1.63.1-.18.26-.4.48-.67v-.84c0-.48-.35-.94-1.06-1.39-.7-.45-1.5-.67-2.4-.67-.45,0-.67.25-.67.74,0,1.06.03,2,.1,2.83l.1,2.66c.83-.1,1.54-.44,2.11-1.03Zm1.82,9.31c.93-.61,1.39-1.34,1.39-2.18,0-.74-.12-1.41-.36-2.03-.24-.62-.55-1.08-.94-1.4-.35-.3-.7-.56-1.06-.77-.35-.21-.66-.34-.91-.41l-.38-.07h-1.73c.16,1.84.24,4.49.24,7.94,1.57-.11,2.82-.47,3.74-1.08Z"/>
        </g>
        <g id="E-Taste-4" data-name="E-Taste">
          <path class="cls-2" d="m29.26,33.41c0-1.11-.44-2.17-1.22-2.95s-1.84-1.22-2.95-1.22H6.6c-1.11,0-2.17.44-2.95,1.22-.78.78-1.22,1.84-1.22,2.95v18.49c0,1.11.44,2.17,1.22,2.95.78.78,1.84,1.22,2.95,1.22h18.49c1.11,0,2.17-.44,2.95-1.22.78-.78,1.22-1.84,1.22-2.95v-18.49Z"/>
        </g>
      </g>
    </g>
  </g>
</svg>