<?xml version="1.0" encoding="UTF-8" standalone="no"?>
<!DOCTYPE svg PUBLIC "-//W3C//DTD SVG 1.1//EN" "http://www.w3.org/Graphics/SVG/1.1/DTD/svg11.dtd">
<svg width="100%" height="100%" viewBox="0 0 233 260" version="1.1" xmlns="http://www.w3.org/2000/svg" xmlns:xlink="http://www.w3.org/1999/xlink" xml:space="preserve" xmlns:serif="http://www.serif.com/" style="fill-rule:evenodd;clip-rule:evenodd;stroke-linejoin:round;stroke-miterlimit:2;">
    <g transform="matrix(1,0,0,1,-1372.06,-69.7468)">
        <g id="Ebene4" transform="matrix(1,0,0,1,330.268,69.7461)">
            <g transform="matrix(2.74364,0,0,3.01642,1041.77,-0.00138562)">
                <path d="M37.99,0.37C25.44,2.47 15.17,9.39 6.31,21.25C3.65,24.81 -1.69,33.08 0.54,47.63C1.08,51.15 6.48,65.08 12.25,69.92C16.52,73.51 25.81,82.83 38.28,85.49C43.87,86.68 51.57,86.14 57.08,85.43C60.65,84.96 70.29,82.45 74.19,78.09C74.27,78 72.94,77.38 70.88,76.68C69.33,76.15 68.54,76.1 69.31,75.55C72.21,73.48 74.5,71.07 79.23,66.06C86.26,58.62 85.56,43.8 82.6,34.68C78.67,22.59 73.68,13.37 65.15,7.62C56.7,1.92 46.76,-1.1 37.99,0.37Z" style="fill:rgb(251,239,153);fill-rule:nonzero;"/>
            </g>
            <g id="E-Taste-2" transform="matrix(2.74364,0,0,3.01642,1055.18,6.1444)">
                <path d="M55.2,8.17C55.2,7.06 54.76,6 53.98,5.22C53.2,4.44 52.14,4 51.03,4L32.54,4C31.43,4 30.37,4.44 29.59,5.22C28.81,6 28.37,7.06 28.37,8.17L28.37,26.66C28.37,27.77 28.81,28.83 29.59,29.61C30.37,30.39 31.43,30.83 32.54,30.83L51.03,30.83C52.14,30.83 53.2,30.39 53.98,29.61C54.76,28.83 55.2,27.77 55.2,26.66L55.2,8.17Z" style="fill:rgb(134,166,110);fill-rule:nonzero;"/>
                <path d="M32.88,24.71C32.88,24.33 33.36,24.13 34.32,24.13L34.9,24.13C35.03,24.15 35.17,24.15 35.33,24.15C35.59,24.15 35.77,24.11 35.88,24.03C35.99,23.95 36.05,23.81 36.05,23.6C36.05,22.24 35.89,20.38 35.57,18.03C35.28,15.58 35.14,13.73 35.14,12.49C35.14,12.04 35.16,11.63 35.19,11.27L35.24,10.05C35.24,9.52 35.19,9.08 35.1,8.73C34.75,8.79 34.38,8.83 34,8.83C33.26,8.83 32.9,8.64 32.9,8.25C32.9,8.06 33.13,7.89 33.6,7.75C34.06,7.61 34.66,7.5 35.4,7.44C36.74,7.33 37.88,7.27 38.81,7.27C39.19,7.27 39.52,7.33 39.79,7.46C40.06,7.59 40.2,7.74 40.2,7.92C40.2,8.1 40.1,8.25 39.89,8.38C39.68,8.51 39.42,8.57 39.1,8.57C38.91,8.57 38.75,8.57 38.62,8.55L38.24,8.55C37.92,8.55 37.69,8.59 37.54,8.66C37.4,8.73 37.32,8.86 37.32,9.06C37.32,10.76 37.53,13.09 37.94,16.07C38.32,19.19 38.52,21.53 38.52,23.1L38.52,24.01C38.74,23.99 39.06,23.99 39.48,23.99C40.82,23.99 41.5,24.27 41.5,24.83L41.5,24.97L40.3,25.38C40.3,25.38 40.17,25.38 40.01,25.39C39.85,25.39 39.53,25.4 39.05,25.4C37.96,25.43 37.29,25.45 37.03,25.45C34.28,25.45 32.9,25.21 32.9,24.73L32.88,24.71Z" style="fill:rgb(251,239,153);fill-rule:nonzero;"/>
            </g>
            <g id="E-Taste-4" transform="matrix(2.74364,0,0,3.01642,1052.73,10.9405)">
                <path d="M29.26,33.41C29.26,32.3 28.82,31.24 28.04,30.46C27.26,29.68 26.2,29.24 25.09,29.24L6.6,29.24C5.49,29.24 4.43,29.68 3.65,30.46C2.87,31.24 2.43,32.3 2.43,33.41L2.43,51.9C2.43,53.01 2.87,54.07 3.65,54.85C4.43,55.63 5.49,56.07 6.6,56.07L25.09,56.07C26.2,56.07 27.26,55.63 28.04,54.85C28.82,54.07 29.26,53.01 29.26,51.9L29.26,33.41Z" style="fill:rgb(134,166,110);fill-rule:nonzero;"/>
                <g transform="matrix(0.570593,0,0,0.518994,-0.351292,25.7306)">
                    <path d="M22.87,50.07C22.23,49.78 21.9,49.43 21.9,49.04C21.9,48.76 22.02,48.43 22.27,48.03C22.45,47.6 22.55,47.28 22.55,47.06C22.55,44.33 22.24,39.09 21.63,31.33C21.02,24.71 20.71,19.48 20.71,15.64C20.71,15.36 20.92,15.14 21.35,14.97C21.78,14.8 22.3,14.72 22.91,14.72C23.65,14.72 24.29,14.85 24.84,15.11C25.39,15.37 25.67,15.69 25.67,16.05C25.67,17.89 25.85,20.65 26.22,24.33C26.53,28.41 26.68,31.17 26.68,32.61L26.77,33.16L26.77,34.26C26.95,36.93 27.05,40.91 27.05,46.22L27.05,47.42L34.13,47.42C35.42,47.88 36.06,48.34 36.06,48.8C36.06,49.14 35.83,49.44 35.37,49.7C34.91,49.96 34.37,50.09 33.76,50.09C33.58,50.09 33.24,50.06 32.75,50L32.38,49.95C32.01,49.98 31.43,50 30.63,50L29.07,50C28.64,49.97 28.15,49.95 27.6,49.95C26.99,50.32 26.13,50.5 25.02,50.5C24.22,50.5 23.5,50.35 22.86,50.06L22.87,50.07Z" style="fill:rgb(251,239,153);fill-rule:nonzero;"/>
                </g>
            </g>
        </g>
    </g>
</svg>
