<?xml version="1.0" encoding="UTF-8"?>
<svg id="Ebene_2" data-name="Ebene 2" xmlns="http://www.w3.org/2000/svg" viewBox="0 0 70.05 70.05">
  <defs>
    <style>
      .cls-1 {
        fill: #fff;
      }

      .cls-1, .cls-2 {
        fill-rule: evenodd;
      }

      .cls-2 {
        fill: #86a66e;
      }
    </style>
  </defs>
  <g id="Ebene_1-2" data-name="Ebene 1">
    <g id="Steuerkreuz">
      <g id="Ebene11">
        <path class="cls-2" d="m44.27,66.84c-2.66,0-15.32-.04-17.18-.03-4.05.03-4.05-.1-4.03-2.72.03-3.74.02-15.11.02-15.84,0-1.32-.07-1.35-1.34-1.34-1.66,0-13.11.01-15.89.02-2.66,0-2.62-.25-2.65-2.7-.03-2.66.02-14.22.02-17.04,0-4.07-.09-4.12,2.58-4.12,2.23,0,13.43.02,15.97.02,1.27,0,1.3,0,1.31-1.58,0-3.73,0-11.37.02-15.53,0-2.65.08-2.77,3.99-2.77,4.07,0,14.85,0,17.18,0,2.64,0,2.67.03,2.66,2.64-.01,3.75,0,13.51,0,15.5,0,1.91-.13,1.74.97,1.74.68,0,4.63-.02,6.71,0,1.43,0,7.6-.03,9.58-.03,2.66,0,2.67-.03,2.65,3.99-.01,2.12-.05,15.21-.03,17.27.02,2.49-.16,2.62-2.72,2.63-2.12.01-15.12-.04-15.85-.03-1.23.02-1.29.1-1.3,1.34-.02,2.67.04,12.57-.03,17.27-.02,1.3-.29,1.31-2.64,1.31Z"/>
        <path class="cls-1" d="m19.88,19.87c-4.11,0-12.21-.02-14.07-.02-2.08,0-3.24.38-3.96.9-.68.5-1.21,1.16-1.52,2.19-.23.75-.31,2.04-.31,4.24,0,2.82-.04,14.4-.02,17.07.02,2.41.5,3.64,1.14,4.37.69.78,1.92,1.51,4.71,1.51,2.25,0,10.19,0,14.02-.01,0,3.55,0,11.04-.02,13.95-.02,1.95.27,3.11.75,3.85.55.86,1.35,1.54,2.77,1.87.75.17,1.91.24,3.74.22,1.85-.02,14.49.03,17.15.03h0c2.77,0,3.96-.59,4.56-1.15.69-.64,1.26-1.57,1.28-3.33.06-3.94.03-11.51.03-15.45,3.82,0,12.29.04,13.96.03,2.55-.01,3.81-.59,4.53-1.28.76-.73,1.41-1.97,1.38-4.6-.02-2.05.02-15.11.03-17.22,0-1.78-.03-2.91-.18-3.63-.3-1.45-.98-2.25-1.84-2.81-.71-.47-1.85-.77-3.83-.77-1.98,0-8.14.04-9.57.03-1.21,0-3.03,0-4.49,0,0-3.46,0-10.87,0-14.02,0-2.67-.6-3.9-1.29-4.58C48.16.6,46.93,0,44.26,0c-2.33,0-13.1,0-17.17,0-1.78,0-2.93.06-3.67.24-1.37.34-2.17,1-2.72,1.85-.49.75-.8,1.91-.81,3.87,0,3.62-.01,9.89-.02,13.91Zm24.4,46.96c-2.66,0-15.32-.04-17.18-.03-4.05.03-4.05-.1-4.03-2.72.03-3.74.02-15.11.02-15.84,0-1.32-.07-1.35-1.34-1.34-1.66,0-13.11.01-15.89.02-2.66,0-2.62-.25-2.65-2.7-.03-2.66.02-14.22.02-17.04,0-4.07-.09-4.12,2.58-4.12,2.23,0,13.43.02,15.97.02,1.27,0,1.3,0,1.31-1.58,0-3.73,0-11.37.02-15.53,0-2.65.08-2.77,3.99-2.77,4.07,0,14.85,0,17.18,0,2.64,0,2.67.03,2.66,2.64-.01,3.75,0,13.51,0,15.5,0,1.91-.13,1.74.97,1.74.68,0,4.63-.02,6.71,0,1.43,0,7.6-.03,9.58-.03,2.66,0,2.67-.03,2.65,3.99-.01,2.12-.05,15.21-.03,17.27.02,2.49-.16,2.62-2.72,2.63-2.12.01-15.12-.04-15.85-.03-1.23.02-1.29.1-1.3,1.34-.02,2.67.04,12.57-.03,17.27-.02,1.3-.29,1.31-2.64,1.31Z"/>
      </g>
    </g>
  </g>
</svg>