<?xml version="1.0" encoding="UTF-8"?>
<svg id="Ebene_2" data-name="Ebene 2" xmlns="http://www.w3.org/2000/svg" viewBox="0 0 164.68 49.49">
  <defs>
    <style>
      .cls-1 {
        fill: #eabb61;
      }

      .cls-1, .cls-2, .cls-3, .cls-4, .cls-5 {
        fill-rule: evenodd;
      }

      .cls-2 {
        fill: #fdde9a;
      }

      .cls-3 {
        fill: #231f20;
      }

      .cls-4 {
        fill: #ebbd62;
      }

      .cls-5 {
        fill: #feca67;
      }
    </style>
  </defs>
  <g id="Ebene_1-2" data-name="Ebene 1">
    <g id="Ebene5">
      <g id="Ebene71">
        <path class="cls-5" d="m1.7,42.44c-.02-1.25.91-3.22.79-5.73-.14-2.93-1.69-3.99-1.7-10.38-.01-4.97.29-12.76.29-14.78C1.08,10.13,0,3.76,1.83,4.04c2.9.43,10.6,1.03,13.68,1.64,7.05,1.41,12.42.97,21.45-1.05,5.52-1.23,8.16-1.06,13.51-1.01,4.64.04,15.95.44,19.21.94,6.16.94,12.48,1.91,18.74,2.07,6.57.16,13.07-.54,19.51-1.29,4.51-.53,12.76-2.37,14.34-1.23,2.74,1.98,3.55.86,7.57-1.09,2.61-1.26,7.1-1.32,11.94-1.58,4.84-.26,10.03-.72,13.48-.64,2.68.06,7.47.6,8.52,3.77.29.87.07,2.49.03,4.73-.03,1.75-1,9.77-.96,12.66.03,2.5.95,6.81.96,7.88.03,3.98-.15,6.66-.31,11.04-.05,1.47-.13,1.72-1.09,2.43-1.91,1.43-5.05,3.73-6.11,4.34-.96.56-2.17,1.12-3.3,1.07-.51-.02-1.87.05-1.87-.47,0-.97.04-1.54-.03-2.87-.02-.3-4.31-.44-5.42-.44-5.18,0-10.25.27-15.39.27-9.65,0-20.51.06-30.08.79-4.64.35-12.61,1.06-14.04,1.02-1.27-.04-9.17-.02-11.21-.02-4.3,0-8.56-.16-12.8-.46-6.17-.44-14.25-1.77-20.45-1.9-3.23-.06-15.77.06-21.12.31-5.21.25-11.62.16-16.71.87-2.39.33-2.13-.04-2.19-3.35Z"/>
        <path class="cls-1" d="m21.82,43.8c2.75-.05,11.8-.09,11.45-.31-1.37-.86-3.12-1.45-4.58-2.47-1.63-1.14-4.05-2.84-5.4-4.28-1.14-1.22-2.18-2.35-2.8-3.94-.73-1.89-.59-3.4.24-5.15.36-.76,1.53-2.83,1.9-3.6,1.04-2.15,1.31-3.44,3.16-4.63.79-.51,1.53-1.09,2.34-1.55,1.02-.57,4.95-3.22,5.78-4.12,1.74-1.87,4.41-4.32,4.16-6.95-.06-.64-1.68-.89-2.05-.81-.45.1-4.49.82-5.74.81-.47,0-3.87.02-4.79-.03-.7-.04-5.07.03-5.77-.09-5.23-.87-6.83-1.45-10.66-1.76-1.87-.15-3.3-.4-5.31-.51-2.16-.11-2.24.54-2.25,1.6-.02,1.35.04,3.33.04,4.7,0,2.72,0,7.21-.01,7.85-.07,2.85-.06,5.12-.02,7.87.04,2.33.14,4.04.23,6.32.03.76.6,1.43,1.31.42,1.07-1.5,1.23-2.21,2.78-3.45,1.01-.81,2.61-1.04,2.69.29.09,1.37-.06,2.68.01,3.91.1,1.78-1.29,3.22-2.28,4.53-.78,1.02-1.95,1.86-2.43,2.34-.97.97-2.26,1.7-2.13,2.98.04.4.05,1.4.2,1.76.22.54,1.78.2,3.26.11,1.71-.1,5.24-.76,7.3-.81,2.6-.07,8.57-1.01,9.35-1.03Z"/>
        <path class="cls-4" d="m111.36,44.67c-2.81-.01-8.3.92-8.88-.05-.56-.95,3-2.96,3.72-3.63,2.71-2.53,5.15-5.17,8.18-6.55,1.67-.76,5.1-2.8,6.43-3.24,4.34-1.45,9.05-2.13,13.65-2.33,4.95-.21,7.33-.13,11.09-3.33,1.64-1.39,5.26-1.95,6.84-1.96,1.94-.02,4.53,2.01,4.84,2.79.44,1.11,1.05,4.57.92,5.71-.3,2.59.16,8.36-.72,10.82-.77,2.15-5.67,1.64-8.71,1.58-4.86-.1-13.53-.04-17.44-.02-4.29.03-15.63.25-19.93.23Z"/>
        <path class="cls-2" d="m152.34,33.59c-.31.42.04,4.57-.02,5.63-.11,1.98-.59,5.19-.56,7.17.05,3.04.99,3.01,2.3,2.29,1.5-.82,2.82-1.42,4.42-2.27,1.49-.8,2.68-.9,3.56-2.3,1.11-1.77,1.14-4.46,1.21-6.9.06-2.22.07-4.83.04-7.16-.02-1.59-.86-4.3-.99-5.88-.13-1.69-.4-2.03-.28-3.73.08-1.12.77-3.44.7-4.97-.1-2.25.38-2.73.63-4.96.12-1.07.07-2.81.05-3.21-.04-1.05-1.87.28-3.08,1.12-1.54,1.08-3.12.88-4.86.88-.8,0-2.28.01-2.15,1.32.18,1.78.13,3.82.01,5.62-.02.38-.22.8-.73,1.83-.68,1.37-1.03,1.79-.95,3.62.06,1.34,0,3.41,0,4.75,0,.47,0,.91,0,1.39,0,.3.46.57,1.02.53,1.37-.09,3.02-.25,3.59,1.2.37.94-.04,1.83-.88,2.67-.21.21-2.55.75-3.02,1.39Z"/>
        <path class="cls-3" d="m151.14,28.53c-.05.34.05.59.19.76.17.22.47.4.94.37.42-.03,1.24-.34,2.08-.5.25-.05.5-.08.73-.06.21.02.42.07.55.25.14.19.24.39.26.6.03.36-.16.74-.54,1.21-.24.29-.7.5-1.18.69-.9.35-1.89.54-2.17.62-.64.16-.69.72-.69.78-.06,1.67.32,5.35.09,6.43-.28,1.32-.06,4.51-.24,7.96-.02.44.32.82.76.84.44.02.82-.32.84-.76.17-3.34-.06-6.43.21-7.72.21-1.01-.05-4.2-.06-6.1.48-.12,1.18-.3,1.84-.55.77-.3,1.48-.71,1.86-1.18.58-.72.84-1.37.89-1.95.05-.64-.14-1.24-.57-1.81-.44-.6-1.08-.86-1.8-.9-.55-.03-1.16.09-1.72.23l-.71.19c-.04-.59-.08-1.51,0-2.86.15-2.44-.12-3.39.35-5.75.16-.77.51-1.42.83-2.18.37-.88.72-1.89.81-3.32.07-1.17-.36-2.46-.62-3.43-.04-.14-.07-.3-.09-.43.67-.09,2.41-.31,2.69-.37.34-.07,2.31-.28,3.79-.63.75-.17,1.39-.4,1.74-.63.66-.44,1.2-.91,1.57-1.56.37-.65.58-1.49.53-2.74-.02-.44-.39-.79-.84-.77-.44.02-.79.39-.77.84.04.85-.07,1.44-.32,1.88-.25.44-.63.73-1.07,1.02-.34.22-1.07.38-1.83.54-1.35.26-2.83.42-3.12.48-.34.07-2.03.17-2.86.37-.4.1-.67.26-.8.38-.29.29-.44.83-.28,1.57.17.86.75,2.2.68,3.39-.09,1.45-.5,2.4-.88,3.25-.3.67-.58,1.3-.72,2.03-.49,2.45-.22,3.43-.38,5.97-.1,1.66-.01,2.67.03,3.24.01.13.02.29.02.32Zm1.59.11s0,.08,0,.12c0-.04,0-.08,0-.12Z"/>
        <path class="cls-3" d="m150.36,45.99c.03.93,0,1.45,0,2.26,0,.46.26.85.81,1.05.5.18,1.39.17,1.8.19,1.27.05,2.64-.55,3.72-1.17,1.07-.62,4.25-2.95,6.18-4.39.48-.36.77-.64.97-.95.29-.45.39-.99.43-2.08.16-4.39.34-7.08.31-11.07,0-1.07-.93-5.38-.96-7.89-.04-2.89.93-10.89.96-12.64.04-2.37.24-4.07-.07-4.99-.49-1.47-1.65-2.48-3.1-3.14-1.96-.89-4.45-1.12-6.14-1.16-6.89-.16-14.96,1.34-21.76,1.3-3.89-.02-5.36.86-7.44,2.74-.14.13-.47.28-.83.32-.29.03-.61-.04-.83-.36-.38-.57-.69-.9-1.06-1.09-.51-.25-1.19-.24-2.55.07-4.01.93-8.98,1.1-12.97,1.57-6.4.75-12.87,1.45-19.4,1.29-6.22-.15-12.51-1.12-18.64-2.06-3.28-.5-14.65-.9-19.32-.95-5.42-.05-8.1-.22-13.68,1.03-8.9,1.99-14.19,2.44-21.13,1.05-3.08-.62-10.81-1.21-13.72-1.65-.92-.14-1.62.53-1.84,1.87-.32,1.9.21,5.39.21,6.4C.31,13.57,0,21.36.02,26.33c0,4.02.93,5.93,1.71,7.48.44.89.84,1.63.89,2.69.07,1.38-.54,2.66-1.01,3.71-.4.89-.7,1.67-.69,2.25.02,1.24,0,2.08.09,2.63.09.61.3.98.61,1.22.22.17.5.29.88.33.35.04.83,0,1.49-.09,5.07-.7,11.45-.61,16.64-.86,5.34-.25,17.85-.37,21.07-.31,6.19.12,14.26,1.46,20.41,1.89,4.25.3,8.53.47,12.85.47,2.04,0,9.91-.02,11.18.02,1.45.05,9.47-.67,14.13-1.02,9.55-.72,20.39-.78,30.02-.78,5.14,0,10.21-.27,15.39-.27.78,0,3.65.21,4.67.28Zm1.55,1.88c0-.77.03-1.37-.04-2.53-.01-.2-.12-.59-.64-.77-.75-.26-4.49-.39-5.54-.39-5.18,0-10.25.27-15.39.27-9.67,0-20.55.06-30.14.79-4.61.35-12.53,1.06-13.96,1.01-1.27-.04-9.18-.02-11.23-.02-4.29,0-8.53-.16-12.74-.46-6.18-.44-14.28-1.78-20.49-1.9-3.24-.06-15.81.06-21.18.31-5.23.25-11.67.17-16.78.87-.42.06-.75.1-1.01.09-.06,0-.13-.01-.17-.02-.02-.08-.07-.3-.08-.47-.04-.51-.03-1.23-.05-2.2,0-.42.27-.95.55-1.59.56-1.25,1.22-2.77,1.14-4.41-.06-1.29-.51-2.21-1.05-3.3-.7-1.41-1.54-3.15-1.55-6.8-.01-4.97.29-12.76.29-14.78,0-.97-.54-4.32-.23-6.15.03-.18.07-.34.12-.48.01-.03.03-.07.05-.1,2.95.43,10.52,1.02,13.56,1.62,7.16,1.43,12.6.99,21.77-1.06,5.44-1.22,8.05-1.04,13.34-.99,4.61.04,15.86.43,19.1.93,6.19.94,12.55,1.92,18.84,2.07,6.61.16,13.14-.54,19.62-1.3,4.04-.48,9.07-.66,13.13-1.6.5-.12.87-.19,1.17-.22.15-.01.26-.02.35.03.18.09.28.28.46.55.6.9,1.47,1.13,2.27,1.05.74-.08,1.41-.44,1.71-.71,1.78-1.61,3.05-2.36,6.39-2.34,6.79.04,14.85-1.46,21.74-1.3,1.53.04,3.77.22,5.54,1.02,1.04.47,1.92,1.16,2.27,2.22.1.29.11.67.11,1.15,0,.87-.1,1.98-.12,3.33-.03,1.75-1,9.79-.96,12.69.03,2.5.95,6.81.96,7.87.03,3.97-.15,6.64-.31,11.01-.02.68,0,1.03-.19,1.31-.12.18-.31.33-.59.54-1.89,1.41-4.99,3.69-6.03,4.29-.84.49-1.89,1.01-2.88.97-.22,0-.82-.06-1.13-.08Z"/>
        <path class="cls-3" d="m133.55,41.61c1.74-.04,3.23-.41,4.91-.75.42-.08.69-.49.6-.91-.08-.42-.49-.69-.91-.6-1.59.32-3,.68-4.64.72-.42,0-.76.36-.75.79,0,.42.36.76.79.75Z"/>
        <path class="cls-3" d="m141.17,42.42c.87.13,2,.03,2.63-.6.3-.3.3-.79,0-1.09-.3-.3-.79-.3-1.09,0-.12.12-.3.16-.48.19-.28.04-.58.02-.84-.02-.42-.06-.81.23-.87.65-.06.42.23.81.65.87Z"/>
      </g>
    </g>
  </g>
</svg>