<?xml version="1.0" encoding="UTF-8"?>
<svg id="Ebene_2" data-name="Ebene 2" xmlns="http://www.w3.org/2000/svg" viewBox="0 0 165.07 48.9">
  <defs>
    <style>
      .cls-1 {
        fill: #eabb61;
      }

      .cls-1, .cls-2, .cls-3, .cls-4, .cls-5 {
        fill-rule: evenodd;
      }

      .cls-2 {
        fill: #fefffe;
      }

      .cls-3 {
        fill: #fdde9a;
      }

      .cls-4 {
        fill: #231f20;
      }

      .cls-5 {
        fill: #feca67;
      }
    </style>
  </defs>
  <g id="Ebene_1-2" data-name="Ebene 1">
    <g id="Ebene5">
      <g id="Ebene72">
        <path class="cls-5" d="m162.99,42.45c.02-1.25-4.51-2.86-5.39-4.8-.82-1.81-2.1-6.56-1.47-7.44,1.63-2.28,4.94,3.32,5.93,4.51.64.76,2.28,1.74,2.25,1.01-.05-1.1-.42-3-.41-9.39.01-4.97-.29-12.76-.29-14.78,0-1.42,1.09-7.78-.75-7.51-2.9.43-10.6,1.03-13.68,1.64-7.05,1.41-12.42.97-21.45-1.05-5.52-1.23-8.16-1.06-13.51-1.01-4.64.04-15.95.44-19.21.94-6.16.94-12.48,1.91-18.74,2.07-6.57.16-13.07-.54-19.51-1.29-8.27-.97-17.24-2.78-25.58-3.24-6.79-.38-14.86-1.46-21.75-1.3-2.68.06-7.47.6-8.52,3.77-.29.87-.07,2.49-.03,4.73.03,1.75,1,9.77.96,12.66-.03,2.5-.95,6.81-.96,7.88-.03,3.98.15,6.66.31,11.04.05,1.47.44,4.4,3.15,5.74,1.01.5,2.96,1.05,5.14,1.23,2.24.18,5.25.73,5.31-.36.06-.97.33-5.36.33-5.36,0,0,2.69,1.46,4.72,2.03,6.3,1.75,9.4,1.07,14.54,1.07,9.65,0,20.51.06,30.08.79,4.64.35,12.61,1.06,14.04,1.02,1.27-.04,9.17-.02,11.21-.02,4.3,0,8.56-.16,12.8-.46,6.17-.44,14.25-1.77,20.45-1.9,3.23-.06,15.77.06,21.12.31,5.21.25,11.62.16,16.71.87,2.39.33,2.13-.04,2.19-3.35Z"/>
        <path class="cls-1" d="m142.86,43.8c-2.75-.05-11.8-.09-11.45-.31,1.37-.86,3.12-1.45,4.58-2.47,1.63-1.14,4.05-2.84,5.4-4.28,1.14-1.22,2.18-2.35,2.8-3.94.73-1.89.59-3.4-.24-5.15-.36-.76-1.53-2.83-1.9-3.6-1.04-2.15-1.31-3.44-3.16-4.63-.79-.51-1.53-1.09-2.34-1.55-1.02-.57-4.95-3.22-5.78-4.12-1.74-1.87-4.41-4.32-4.16-6.95.06-.64,1.68-.89,2.05-.81.45.1,4.49.82,5.74.81.47,0,3.87.02,4.79-.03.7-.04,5.07.03,5.77-.09,5.23-.87,6.83-1.45,10.66-1.76,1.87-.15,3.3-.4,5.31-.51,2.16-.11,2.24.54,2.25,1.6.02,1.35-.04,3.33-.04,4.7,0,2.72,0,7.21.01,7.85.07,2.85.06,5.12.02,7.87-.04,2.33-.14,4.04-.23,6.32-.03.76-.6,1.43-1.31.42-1.07-1.5-1.23-2.21-2.78-3.45-1.01-.81-2.61-1.04-2.69.29-.09,1.37.06,2.68-.01,3.91-.1,1.78,1.29,3.22,2.28,4.53.78,1.02,1.95,1.86,2.43,2.34.97.97,2.26,1.7,2.13,2.98-.04.4-.05,1.4-.2,1.76-.22.54-1.78.2-3.26.11-1.71-.1-5.24-.76-7.3-.81-2.6-.07-8.57-1.01-9.35-1.03Z"/>
        <path class="cls-3" d="m1.67,14.85c-.01-3.18.17-9.4.42-9.4,1.55,0,2.16,1.18,3.29,3.75.84,1.92,1.76,4.31,2.13,6.43.38,2.21,1.03,7.09,1.34,9.69.48,4.15,1.33,8.58,1.09,12.53-.15,2.52.02,2.62-.91,2.57-.57-.03-2.31.1-3.23.16-1.34.09-2.61,1.14-3.31,1.92-.49.54-1.04-.27-1.04-.54,0-.97.03-2.64.03-3.62,0-2.68.03-5.7.03-8.38,0-5.16.18-10.06.16-15.11Z"/>
        <g>
          <path class="cls-2" d="m151.75,40.15c.59.63,2.2.15,2.64-.89.48-1.12-.61-2.07-2.06-2.64-1.44-.56-1.96,2.04-.58,3.52Z"/>
          <path class="cls-4" d="m151.19,40.68c.39.42,1.04.61,1.74.49.87-.14,1.8-.75,2.17-1.6.36-.85.16-1.65-.44-2.34-.46-.53-1.2-.99-2.05-1.32-.53-.21-1-.16-1.38.04-.35.18-.65.51-.83.95-.42.99-.27,2.64.79,3.78Zm1.13-1.05c-.51-.55-.68-1.3-.57-1.87.04-.24.09-.5.31-.41.6.23,1.13.53,1.45.9.19.21.29.45.18.72-.16.38-.6.62-1,.69-.14.02-.29.06-.37-.02Z"/>
        </g>
        <g>
          <path class="cls-1" d="m2.26,44.8s.94-2.98,3.28-3.89c1.94-.76,4.31-.68,5.97-.25,2.77.73,3.76,1.65,5.36,2.36"/>
          <path class="cls-4" d="m2.99,45.03s.79-2.62,2.82-3.41c1.79-.7,3.97-.62,5.5-.22,2.72.71,3.68,1.63,5.25,2.32.39.17.84,0,1.01-.39.17-.39,0-.84-.39-1.01-1.63-.72-2.65-1.65-5.48-2.4-1.79-.47-4.35-.54-6.45.27-2.64,1.03-3.73,4.38-3.73,4.38-.13.4.1.84.5.97.4.13.84-.1.97-.5Z"/>
        </g>
        <path class="cls-4" d="m156.77,30.62c.06-.09.13-.15.21-.18.15-.05.3.02.47.11.22.12.45.28.67.49,1.37,1.21,2.76,3.47,3.34,4.17.55.66,1.73,1.42,2.36,1.53.45.07.78-.07.98-.29.16-.17.28-.41.27-.76-.05-1.09-.42-2.99-.41-9.35.01-4.97-.29-12.76-.29-14.79,0-1.01.53-4.5.21-6.4-.22-1.34-.92-2.01-1.84-1.87-2.91.44-10.63,1.03-13.72,1.65-6.95,1.39-12.23.94-21.13-1.05-5.59-1.25-8.26-1.08-13.68-1.03-4.67.04-16.04.45-19.32.95-6.13.93-12.42,1.9-18.64,2.06-6.53.16-13-.54-19.4-1.29-8.28-.97-17.27-2.78-25.63-3.24C24.41.94,16.31-.15,9.41.02c-1.69.04-4.18.27-6.14,1.16C1.82,1.83.66,2.84.17,4.32c-.31.92-.11,2.63-.07,4.99.03,1.75,1,9.75.96,12.64-.03,2.51-.95,6.82-.96,7.89-.03,4,.15,6.68.31,11.07.06,1.64.55,4.91,3.58,6.4,1.07.52,3.12,1.12,5.42,1.3,1.64.13,3.67.43,4.77.22.89-.17,1.34-.65,1.37-1.3.04-.65.17-2.82.26-4.19,1,.49,2.53,1.19,3.81,1.55,6.39,1.78,9.53,1.1,14.75,1.1,9.63,0,20.47.06,30.02.78,4.66.35,12.68,1.07,14.13,1.02,1.27-.04,9.14-.02,11.18-.02,4.32,0,8.6-.16,12.85-.47,6.15-.44,14.23-1.77,20.41-1.89,3.23-.06,15.73.06,21.07.31,5.19.25,11.57.16,16.64.86.65.09,1.14.13,1.49.09.38-.04.66-.16.88-.33.3-.24.52-.62.61-1.22.08-.55.07-1.4.09-2.63,0-.3-.09-.61-.32-.93-.21-.29-.55-.61-.98-.93-.83-.61-2.02-1.29-2.97-2.02-.52-.4-.98-.81-1.18-1.26-.55-1.22-1.32-3.82-1.52-5.56-.04-.34-.06-.64-.04-.89,0-.09.03-.22.04-.26Zm6.12-25.81s.04.07.05.1c.05.14.09.3.12.48.3,1.83-.23,5.18-.23,6.15,0,2.02.3,9.81.29,14.78,0,4.98.21,7.24.34,8.52-.31-.19-.65-.43-.81-.63-.61-.73-2.08-3.07-3.51-4.34-.89-.79-1.82-1.14-2.57-.93-.38.11-.75.35-1.07.79-.11.15-.2.36-.25.62-.08.38-.07.93,0,1.57.22,1.88,1.05,4.7,1.65,6.02.25.56.74,1.11,1.36,1.62.8.66,1.82,1.27,2.67,1.84.42.28.8.54,1.06.8.09.08.2.23.23.27-.02.95,0,1.65-.05,2.15-.01.18-.06.4-.08.47-.04,0-.12.02-.17.02-.26,0-.59-.03-1.01-.09-5.11-.7-11.55-.62-16.78-.87-5.37-.25-17.93-.37-21.18-.31-6.21.12-14.31,1.46-20.49,1.9-4.21.3-8.46.46-12.74.46-2.05,0-9.96-.02-11.23.02-1.43.05-9.35-.67-13.96-1.01-9.59-.72-20.47-.79-30.14-.79-5.06,0-8.13.69-14.33-1.04-1.96-.55-4.56-1.96-4.56-1.96-.23-.12-.51-.12-.74,0-.23.13-.38.36-.4.62,0,0-.25,3.98-.32,5.2-.12.03-.35.08-.54.09-1.07.06-2.65-.18-3.96-.29-2.06-.16-3.91-.68-4.87-1.15-2.39-1.17-2.68-3.79-2.72-5.08-.16-4.37-.34-7.03-.31-11.01,0-1.07.93-5.37.96-7.87.04-2.9-.93-10.93-.96-12.69-.02-1.34-.12-2.46-.12-3.33,0-.48.01-.86.11-1.15.35-1.06,1.23-1.75,2.27-2.22,1.77-.8,4.01-.99,5.54-1.02,6.87-.16,14.92.93,21.69,1.3,8.33.46,17.28,2.27,25.53,3.24,6.47.76,13.01,1.46,19.62,1.3,6.29-.16,12.64-1.13,18.84-2.07,3.24-.5,14.49-.89,19.1-.93,5.28-.05,7.89-.23,13.34.99,9.17,2.05,14.61,2.49,21.77,1.06,3.04-.61,10.61-1.19,13.56-1.62Z"/>
      </g>
    </g>
  </g>
</svg>