<?xml version="1.0" encoding="UTF-8"?>
<svg id="Ebene_2" data-name="Ebene 2" xmlns="http://www.w3.org/2000/svg" viewBox="0 0 364.43 78.54">
  <defs>
    <style>
      .cls-1 {
        fill: #e3d7a0;
      }

      .cls-1, .cls-2, .cls-3, .cls-4, .cls-5, .cls-6, .cls-7 {
        fill-rule: evenodd;
      }

      .cls-2 {
        fill: #fcf8d2;
      }

      .cls-3 {
        fill: #e0d89e;
      }

      .cls-4 {
        fill: #231f20;
      }

      .cls-5 {
        fill: #fef6d3;
      }

      .cls-6 {
        fill: rgba(253, 247, 210, .95);
      }

      .cls-7 {
        fill: #eee6b1;
      }
    </style>
  </defs>
  <g id="Ebene_1-2" data-name="Ebene 1">
    <g id="Ebene5">
      <g id="Ebene6">
        <path class="cls-7" d="m15.79,69.21c-1.11,1.51-.55,3.34-.55,5.4,0,.41-.37,2.41-.37,2.41,0,0-4.89.47-9.2.29-2.71-.12-6.02-.9-3.61-5.53,1.57-3.03,10.77-3.3,13.74-2.56,6.26,1.56,9.37,2.82,16.25,3.35,7.78.6,16.64,2.06,24.81,3.13,4.74.62,23.98.75,29.34.77,15.53.05,32.8-4.33,53.87-2.61,13.37,1.09,27.43,1.36,40.83,1.79,10.63.34,19.73-2.9,30.33-3.6,8.98-.59,16.57-.41,24.45-.41,3.78,0,16.2-1.41,16.2-1.41,0,0-4-2.71-2.68-4.6,2.8-3.99,12.89.3,11.63,2.68-.6,1.14-2.9,1.54-6.33,5.27-3.43,3.73,2,4.35,3,4.01,4.02-1.35,5.66-2.18,8.01-3.33,3.39-1.66,5.39-2.01,8.25-2,2.49,0,7.6-.19,11.83.7,5.78,1.22,11.09,2.13,19.47,2.14,6.65,0,13.92.58,20.5.43,6.26-.15,21.68.14,24.78.07,2.86-.06,7.8.12,9.33-3.43,1.11-2.56,1.82-5.71,1.96-7.89.28-4.23.56-7.44.62-11.19.14-9.28,1.21-33.82.92-44.58-.11-4.11-2.83-6.08-5.42-7.04-2.6-.96-3.06-1.1-2.95,1.26.06,1.24-.03,2-.03,2,0,0-8.19-.07-11.39-.08-5.4-.03-11.02-.25-16.61-.4-3.9-.1-7.43-.24-11.41-.55-3.59-.28-7.36-.27-11.09-.47-3.93-.22-12.62,5.12-16.46,4.14-1.24-.32-.49-1.1-1.46-1.88-.8-.65-4.64,1.19-6.75-.39-3.29-2.47-3.74-3.59-4.02-3.6-4.68-.18-8.77.33-13.06.33-8.05,0-16.28.63-24.32,1.14-6.02.38-9.86.17-17.24.14-.76,0-2.47.2-3.44.94-1.01.76-2.49,2.59-4.16,2.2-1.53-.36.24-3.18-.93-3.77-.99-.49-18.33-.18-22.56-.4-6-.32-8.06,1.49-31.38,1.24-6.8-.07-16.91.35-23.72.33-9.04-.03-19.4-.51-28.54-.47-15.6.07-30.16,1.01-45.89,1.27-10.33.18-16.82-.86-27.03-.68-6.08.11-15.12.25-21.11.85-3.37.34-4.13-.95-7.25.61-.45.22-3.12,2.65-3.14,3.69-.08,5.15-.54,9.36-.72,14.67-.45,12.86-.07,26.47-.28,36.62-.04,2.05.38,14.11.39,14.27"/>
        <path class="cls-6" d="m362.35,6.22c-.82-1.07-6.45-6.48-6.6-3.52-.26,4.87-.27,19.13-.26,21.77.01,2.25.03,6.35,0,8.59-.09,7.5-.85,9.42-2.61,16.66-.63,2.57-.89,6.7-1.21,9.34-.28,2.3-.41,4.62.06,4.78.74.26,2.36.08,4.14.91,1.47.69,2.52,1.29,3.05,2.9.08.24,1.34,1.76,1.63,1.46,2.08-2.14,1.63-6.13,1.82-9.24.66-10.34.87-27.33.59-38.63-.03-1.17.62-13.43-.61-15.03Z"/>
        <path class="cls-1" d="m273.09,26.68c-1.25.11-3.29,2.84-3.31,4.08-.04,3.08,4.79,4.21,6.31,1.75,1.64-2.64-.39-6.06-3-5.82Z"/>
        <path class="cls-1" d="m253.19,16.51c-1.96,1.2-2.91,2.8-2.99,4.67-.08,1.98.64,3.69.72,5.24.25,4.68,2.69,6.35,7.6,5.04,3.69-.99,5.46-3.54,6.08-4.66,2.1-3.82,1.24-10.32-4.84-11.52-2.59-.51-5.27.43-6.57,1.22Z"/>
        <path class="cls-5" d="m165.21,74.55c-3.22-.45-3.65-.57-3.02-1.92.38-.82,5.12-7.42,7.43-9.93,3-3.26,5.91-6.04,10.98-8.96,2.22-1.28,15.16-4.66,19.54-6.54,1.69-.73,9.11-4.2,12.34-6.11,3.8-2.25,7.76-4.2,11.87-5.84,1.74-.7,3.4-1.17,5.28-1.42,5.03-.67,13.57-.1,17.42,2.62,1.1.78,9.82,5.2,11.25,6.13,2.92,1.9,9.33,4.25,13.38,4.51,3.51.22,7.2.33,10.68.33,2.4,0,4.32-.05,6.83-.16,5-.23,9.68-1.3,14.57,0,2.5.67,7.41,3.08,9.58,4.63,6.36,4.54,11.81,12.57,12.51,13.97,1.11,2.23,4.74,9.16,2.34,9.77-1.48.37-3.4-.06-5.49.15-1.49.15-12.66,0-14.63-.14-3.66-.26-19.72-1.47-25.86-2.15-4-.45-10.81-2.25-14.9.01-2.87,1.6-9.76,4.19-11.37,4.27-2.04.11-2.13-1.49-1.64-2.41,1.76-3.3,10.31-5.89,4.39-9.27-2.09-1.2-3.47-1.46-5.91-1.45-3.14.01-3.62,2.51-3.13,5.36.24,1.39-11.49.63-23.08,1.3-3.99.23-18.28,1.22-22.35,1.32-4.46.11-10.89,1.36-14.76,1.9-4.1.58-8.15.45-12.77.4"/>
        <path class="cls-2" d="m.4,28.48c-.02-4.99.3-14.73.75-14.73,2.79,0,3.9,1.85,5.92,5.87,1.51,3.01,3.17,6.75,3.84,10.08.69,3.46,1.86,11.11,2.41,15.19.87,6.5,2.4,13.45,1.97,19.64-.28,3.95.04,4.11-1.63,4.03-1.03-.05-4.16.15-5.81.25-2.42.14-4.7,1.78-5.96,3-.88.85-1.87-.42-1.87-.84,0-1.51.05-4.14.05-5.68,0-4.21.06-8.93.06-13.14,0-8.09.32-15.77.29-23.68Z"/>
        <path class="cls-3" d="m14.67,4.22c-1.35-.01,5.99,3.85,6.57,4.19,2.35,1.39,14.31,7.27,17,8.04,5.99,1.7,15.22,3.49,20.3,4.46,5.47,1.04,16.91,2.02,22.54,1.81,8.46-.32,25.7-2.6,30.62-4.88,6.8-3.15,12.75-6.87,14.07-8.16,2.11-2.06,5.54-4.2,4.75-6.24-.25-.63-16.75.1-23.97-.01-5.05-.08-30.82.91-39.71.86-5.09-.03-22.91.02-26.76.04-8.05.04-21.81-.08-25.41-.11Z"/>
        <path class="cls-4" d="m.43,74.64c0,.61.15,1.11.38,1.53.36.65.95,1.11,1.68,1.43.92.4,2.08.55,3.15.6,4.37.19,9.32-.29,9.32-.29.36-.04.65-.3.71-.65,0,0,.39-2.12.39-2.56,0-1.03-.14-2.01-.14-2.91,0-.56.05-1.08.27-1.57,5.93,1.51,9.09,2.71,15.82,3.23,7.78.6,16.63,2.06,24.79,3.13,4.76.62,24.09.76,29.47.78,15.53.05,32.79-4.33,53.87-2.62,13.39,1.09,27.49,1.36,40.92,1.8,10.67.34,19.8-2.9,30.44-3.6,8.97-.59,16.55-.41,24.43-.41,3.81,0,16.31-1.42,16.31-1.42.33-.04.61-.28.69-.61.08-.33-.05-.67-.33-.86,0,0-1.32-.89-2.11-1.97-.18-.25-.33-.5-.42-.76-.08-.25-.1-.51.06-.74.64-.92,1.78-1.25,3.03-1.29,2.11-.06,4.57.77,6.08,1.79.47.32.85.65,1.06.98.08.13.16.25.1.36-.19.36-.63.59-1.22.97-1.16.74-2.86,1.82-4.99,4.14-1.33,1.44-1.49,2.58-1.22,3.38.27.79,1.01,1.37,1.93,1.7,1.2.43,2.64.42,3.15.25,4.08-1.36,5.74-2.21,8.12-3.38,3.25-1.59,5.17-1.92,7.91-1.92,2.46,0,7.5-.2,11.68.69,5.84,1.24,11.2,2.15,19.66,2.16,6.66,0,13.95.59,20.54.43,6.26-.15,21.71.14,24.8.07,1.79-.04,4.35,0,6.46-.75,1.56-.56,2.89-1.53,3.6-3.17,1.14-2.65,1.88-5.91,2.03-8.16.28-4.25.56-7.48.62-11.24.14-9.3,1.21-33.88.92-44.67-.12-4.53-3.09-6.72-5.95-7.78-1.02-.38-1.74-.63-2.23-.69-.62-.07-1.04.1-1.34.41-.18.19-.33.46-.41.85-.07.35-.09.84-.06,1.49.02.46.02.85.02,1.16-2.11-.02-8.03-.06-10.65-.08-5.4-.03-11.01-.26-16.61-.4-3.89-.1-7.41-.24-11.38-.54-3.6-.28-7.38-.27-11.12-.48-2.04-.11-5.33,1.18-8.6,2.41-1.85.69-3.68,1.36-5.27,1.67-.94.19-1.78.26-2.45.08-.11-.03-.18-.02-.21-.07-.04-.07-.05-.15-.07-.24-.03-.12-.06-.25-.11-.38-.12-.33-.32-.69-.76-1.04-.2-.16-.48-.28-.84-.31-.31-.03-.72,0-1.19.07-.74.11-1.68.3-2.6.33-.77.03-1.54-.05-2.14-.5-2.57-1.93-3.37-3.02-3.72-3.38-.3-.31-.57-.38-.75-.39-4.69-.18-8.8.32-13.1.32-8.08,0-16.33.63-24.4,1.14-6.01.38-9.84.17-17.2.14-.87,0-2.82.26-3.93,1.1-.5.38-1.12,1.02-1.81,1.52-.51.37-1.07.68-1.68.54-.05-.01-.03-.07-.03-.11,0-.07,0-.14,0-.21,0-.34.08-.73.12-1.1.06-.52.06-1.01-.07-1.39-.13-.39-.37-.7-.77-.9-.1-.05-.3-.12-.59-.16-.41-.06-1.13-.1-2.06-.14-5.08-.18-16.86-.01-20.25-.19-6.01-.32-8.08,1.49-31.45,1.24-6.81-.07-16.93.35-23.76.33-9.05-.03-19.43-.51-28.58-.47-15.62.07-30.2,1.01-45.95,1.28-10.35.18-16.84-.86-27.06-.68-6.11.11-15.18.25-21.2.85-1.62.16-2.62-.07-3.58-.15-1.12-.1-2.21-.03-3.96.85-.35.17-1.92,1.52-2.82,2.72-.48.63-.76,1.26-.76,1.69-.08,5.15-.54,9.36-.72,14.67C-.14,36.45.24,50.08.03,60.24c-.04,2.06.38,14.18.39,14.33,0,.02,0,.04,0,.06ZM356.02,1.62s-.02.1-.02.15c-.02.24-.02.54,0,.91.06,1.33-.03,2.13-.03,2.13-.05.41-.39.71-.81.71,0,0-8.19-.07-11.4-.08-5.41-.03-11.04-.25-16.64-.4-3.92-.1-7.46-.24-11.46-.55-3.59-.28-7.36-.26-11.08-.47-.87-.05-1.99.21-3.24.6-2.03.63-4.38,1.62-6.6,2.4-2.65.93-5.14,1.54-6.79,1.12-.87-.22-1.15-.63-1.32-1.06-.06-.14-.09-.29-.13-.45-.04-.15-.08-.31-.26-.47-.06,0-.2-.01-.31,0-.34.02-.77.09-1.23.17-1.68.27-3.81.5-5.25-.58-2.15-1.61-3.13-2.67-3.63-3.23l-.2-.22c-4.57-.16-8.58.33-12.78.33-8.04,0-16.27.63-24.3,1.14-6.04.38-9.9.17-17.3.15-.65,0-2.12.14-2.95.77-.62.47-1.43,1.34-2.35,1.87-.77.45-1.61.68-2.49.47-1.04-.24-1.35-1.08-1.27-2.15.03-.46.14-.97.15-1.41,0-.08-.01-.19-.02-.25-.28-.03-1.1-.11-1.95-.14-5.09-.18-16.89-.01-20.28-.19-6-.32-8.07,1.49-31.38,1.24-6.81-.07-16.93.35-23.74.33-9.05-.02-19.42-.51-28.57-.46-15.61.07-30.19,1.01-45.93,1.27-10.35.18-16.84-.86-27.06-.68-6.07.11-15.09.25-21.07.85-1.43.14-2.41.01-3.29-.09-1.11-.13-2.03-.21-3.69.62-.24.12-1.18.97-1.91,1.81-.24.28-.46.56-.61.82-.09.14-.17.26-.17.35-.08,5.16-.54,9.38-.73,14.7-.45,12.87-.07,26.49-.28,36.64-.03,1.31.14,6.69.26,10.45.68-.71,1.74-1.27,3.02-1.67,3.57-1.12,8.9-1.08,11.07-.55h.01s0,0,0,0c6.22,1.56,9.3,2.81,16.14,3.33,7.8.6,16.68,2.07,24.88,3.14,4.73.62,23.93.75,29.27.77,15.57.05,32.87-4.33,54-2.61,13.37,1.09,27.43,1.36,40.84,1.79,10.61.34,19.7-2.91,30.28-3.6,9.01-.59,16.62-.41,24.53-.41,2.85,0,10.63-.81,14.24-1.2-.34-.33-.69-.71-.98-1.1-.8-1.09-1.11-2.33-.38-3.37.93-1.32,2.5-1.92,4.29-1.97,2.44-.07,5.28.89,7.02,2.06.85.57,1.45,1.21,1.71,1.8.25.57.25,1.12-.02,1.62-.23.44-.64.82-1.24,1.23-1.07.72-2.87,1.67-5.21,4.22-.43.46-.7.86-.83,1.22-.08.22-.11.4-.05.56.12.36.52.55.94.69.8.29,1.76.35,2.1.24,3.98-1.33,5.6-2.16,7.92-3.3,3.54-1.73,5.63-2.09,8.62-2.08,2.53,0,7.71-.19,12.01.72,5.74,1.21,11.01,2.11,19.33,2.12,6.65,0,13.92.59,20.5.43,6.26-.15,21.71.14,24.81.07,1.39-.03,3.28,0,5-.39,1.54-.35,2.95-1.04,3.61-2.57,1.07-2.48,1.76-5.53,1.9-7.64.28-4.21.55-7.42.61-11.16.15-9.28,1.22-33.83.92-44.59-.1-3.7-2.57-5.45-4.9-6.32-.62-.23-1.12-.41-1.51-.52-.12-.03-.25-.06-.34-.07ZM14.59,69.88c-1.96-.25-5.09-.2-7.71.33-1.21.24-2.32.59-3.13,1.08-.44.26-.79.57-.98.93-.46.89-.7,1.59-.75,2.16v.13c0,.06,0,.11,0,.17.01.27.08.5.19.7.25.45.73.7,1.28.88.69.22,1.48.3,2.22.33,3.36.14,7.07-.12,8.5-.23.1-.59.25-1.42.25-1.66,0-1.03-.14-2.01-.14-2.91,0-.67.07-1.3.28-1.9Z"/>
        <path class="cls-4" d="m360.72,72.84s.65-2.15.19-3.9c-.29-1.12-.82-2.23-1.53-2.92-1.42-1.4-3.71-2.58-5.84-2.51-.64.02-1.08-.05-1.36-.29-.26-.22-.34-.56-.39-.97-.14-1.26.18-3.05.23-5.11.11-4.34.49-6.02,1.43-9.8.98-3.91,2.14-5.65,2.42-11.52.3-6.26-.43-13.85-.59-19.22-.06-2.11.79-11.34.81-13.66,0-.44-.35-.81-.79-.81s-.81.35-.81.79c-.03,2.34-.88,11.61-.81,13.73.16,5.34.89,12.89.59,19.1-.27,5.72-1.42,7.41-2.37,11.21-.98,3.92-1.37,5.66-1.48,10.15-.06,2.15-.37,4.02-.22,5.33.1.88.4,1.55.94,2.01.51.44,1.29.71,2.46.68,1.71-.06,3.52.93,4.66,2.05.52.51.89,1.35,1.1,2.18.35,1.36-.17,3.02-.17,3.02-.13.42.11.87.53,1,.42.13.87-.11,1-.53Z"/>
      </g>
    </g>
  </g>
</svg>