<?xml version="1.0" encoding="UTF-8"?>
<svg id="Ebene_2" data-name="Ebene 2" xmlns="http://www.w3.org/2000/svg" viewBox="0 0 197.22 82.03">
  <defs>
    <style>
      .cls-1 {
        fill: #fcf09a;
        fill-rule: evenodd;
      }

      .cls-2 {
        fill: #86a66e;
      }
    </style>
  </defs>
  <g id="Ebene_1-2" data-name="Ebene 1">
    <g id="Tasten">
      <g id="Q-Taste">
        <path class="cls-1" d="m197.22,12.73c0-3.38-1.34-6.61-3.73-9s-5.62-3.73-9-3.73h-56.36c-3.38,0-6.61,1.34-9,3.73-2.39,2.39-3.73,5.62-3.73,9v56.36c0,3.37,1.34,6.61,3.73,9,2.39,2.39,5.62,3.73,9,3.73h56.36c3.37,0,6.61-1.34,9-3.73,2.39-2.39,3.73-5.62,3.73-9V12.73Z"/>
        <path class="cls-2" d="m153.68,60.88v-.06c-2.05-.46-3.5-1.29-4.33-2.51-.53-.99-1.03-2.15-1.48-3.48-.3-.91-.5-1.44-.57-1.6h-4.67c-4.03-1.33-6.99-3.08-8.89-5.24-.84-.91-1.52-1.96-2.05-3.14-.53-1.18-.87-2.34-1.03-3.48-.15-.68-.23-1.86-.23-3.53l.23-4.67c.23-2.05.34-3.59.34-4.62l-.11-1.82v-2.22c0-2.28.15-4.1.46-5.47.46-1.9,1.25-3.63,2.39-5.19,1.21-1.63,3.04-2.77,5.47-3.42,1.29-.34,2.7-.51,4.22-.51,2.05,0,3.95.21,5.7.63,1.75.42,3.27.99,4.56,1.71,2.05,1.22,3.72,3.19,5.02,5.93.91,2.47,1.44,4.98,1.6,7.52.08.8.11,2.11.11,3.93v3.08c-.08.88-.11,1.79-.11,2.74v2.56c0,3.42-.44,6.08-1.31,7.98-.88,1.9-2.76,3.86-5.64,5.87l.46,1.14c.46,1.48.95,2.64,1.48,3.48.76,1.37,1.71,2.05,2.85,2.05h.46c1.37,0,2.43.04,3.19.11,1.14.19,1.71.61,1.71,1.25,0,1.18-1.67,1.77-5.02,1.77-1.29,0-2.89-.27-4.79-.8Zm-6.95-9.35c.53-.49,1.56-.74,3.08-.74v.06c2.81-1.29,4.22-3.34,4.22-6.16v-15.33c0-2.43-.11-4.46-.34-6.1-.3-2.13-.99-4.12-2.05-5.99-.53-.95-1.2-1.73-2-2.34-.8-.61-1.81-1.12-3.02-1.54-1.29-.42-2.66-.63-4.1-.63-1.37,0-2.51.99-3.42,2.96-1.52,3-2.47,7.9-2.85,14.71-.15,2.66-.23,4.39-.23,5.19,0,1.63.19,3.52.57,5.64.38,2.32,1.37,4.56,2.96,6.73.76,1.06,1.75,1.91,2.96,2.54,1.21.63,2.62.98,4.22,1.05v-.06Z"/>
      </g>
      <g id="E-Taste">
        <path class="cls-1" d="m81.82,12.95c0-3.38-1.34-6.61-3.73-9S72.46.22,69.09.22H12.73C9.35.22,6.11,1.56,3.73,3.95,1.34,6.33,0,9.57,0,12.95v56.36c0,3.37,1.34,6.61,3.73,9,2.39,2.39,5.62,3.73,9,3.73h56.36c3.37,0,6.61-1.34,9-3.73,2.39-2.39,3.73-5.62,3.73-9V12.95Z"/>
        <path class="cls-2" d="m20.91,53.87c-1.29-.19-1.94-.72-1.94-1.6V19.16c0-.65-.23-1.62-.68-2.91-.53-1.18-.8-2.15-.8-2.91v-.17c1.29-1.06,2.24-1.75,2.85-2.05,1.06,0,2.47-.08,4.22-.23,1.6-.15,3-.23,4.22-.23s2.39.18,3.53.54c1.14.36,1.71.79,1.71,1.28,0,1.14-1.75,1.71-5.24,1.71h-1.6c-.46-.04-.99-.06-1.6-.06-.68,0-1.1.02-1.25.06,0,1.29.15,2.85.46,4.67l.23,1.6.23,3.13c0,.72-.11,1.82-.34,3.31l-.23,3.19,1.6-.17c1.52-.23,2.77-.34,3.76-.34.84,0,1.6.16,2.28.48.68.32,1.03.69,1.03,1.11,0,.46-.29.87-.85,1.23-.57.36-1.27.54-2.11.54l-1.37-.06h-1.48c-1.14,0-1.94.13-2.39.4v17.61l6.38-.17c4.33,0,6.5.5,6.5,1.48v.23c-.46.46-1.29.83-2.51,1.11-1.22.28-2.39.46-3.53.54l-3.76.06h-3.53c-1.44,0-2.7-.09-3.76-.28Z"/>
      </g>
    </g>
  </g>
</svg>