<?xml version="1.0" encoding="UTF-8"?>
<svg id="Ebene_2" data-name="Ebene 2" xmlns="http://www.w3.org/2000/svg" viewBox="0 0 81.82 81.82">
  <defs>
    <style>
      .cls-1 {
        fill: #fcf09a;
        fill-rule: evenodd;
      }

      .cls-2 {
        fill: #86a66e;
      }
    </style>
  </defs>
  <g id="Ebene_1-2" data-name="Ebene 1">
    <g id="Tasten">
      <g id="Q-Taste">
        <path class="cls-1" d="m81.82,12.73c0-3.38-1.34-6.61-3.73-9s-5.62-3.73-9-3.73H12.73c-3.38,0-6.61,1.34-9,3.73C1.34,6.11,0,9.35,0,12.73v56.36c0,3.37,1.34,6.61,3.73,9,2.39,2.39,5.62,3.73,9,3.73h56.36c3.37,0,6.61-1.34,9-3.73,2.39-2.39,3.73-5.62,3.73-9V12.73Z"/>
        <path class="cls-2" d="m38.28,60.88v-.06c-2.05-.46-3.5-1.29-4.33-2.51-.53-.99-1.03-2.15-1.48-3.48-.3-.91-.5-1.44-.57-1.6h-4.67c-4.03-1.33-6.99-3.08-8.89-5.24-.84-.91-1.52-1.96-2.05-3.14-.53-1.18-.87-2.34-1.03-3.48-.15-.68-.23-1.86-.23-3.53l.23-4.67c.23-2.05.34-3.59.34-4.62l-.11-1.82v-2.22c0-2.28.15-4.1.46-5.47.46-1.9,1.25-3.63,2.39-5.19,1.21-1.63,3.04-2.77,5.47-3.42,1.29-.34,2.7-.51,4.22-.51,2.05,0,3.95.21,5.7.63,1.75.42,3.27.99,4.56,1.71,2.05,1.22,3.72,3.19,5.02,5.93.91,2.47,1.44,4.98,1.6,7.52.08.8.11,2.11.11,3.93v3.08c-.08.88-.11,1.79-.11,2.74v2.56c0,3.42-.44,6.08-1.31,7.98-.88,1.9-2.76,3.86-5.64,5.87l.46,1.14c.46,1.48.95,2.64,1.48,3.48.76,1.37,1.71,2.05,2.85,2.05h.46c1.37,0,2.43.04,3.19.11,1.14.19,1.71.61,1.71,1.25,0,1.18-1.67,1.77-5.02,1.77-1.29,0-2.89-.27-4.79-.8Zm-6.95-9.35c.53-.49,1.56-.74,3.08-.74v.06c2.81-1.29,4.22-3.34,4.22-6.16v-15.33c0-2.43-.11-4.46-.34-6.1-.3-2.13-.99-4.12-2.05-5.99-.53-.95-1.2-1.73-2-2.34-.8-.61-1.81-1.12-3.02-1.54-1.29-.42-2.66-.63-4.1-.63-1.37,0-2.51.99-3.42,2.96-1.52,3-2.47,7.9-2.85,14.71-.15,2.66-.23,4.39-.23,5.19,0,1.63.19,3.52.57,5.64.38,2.32,1.37,4.56,2.96,6.73.76,1.06,1.75,1.91,2.96,2.54,1.21.63,2.62.98,4.22,1.05v-.06Z"/>
      </g>
    </g>
  </g>
</svg>