<?xml version="1.0" encoding="UTF-8"?>
<svg id="Ebene_2" data-name="Ebene 2" xmlns="http://www.w3.org/2000/svg" viewBox="0 0 85.44 63.63">
  <defs>
    <style>
      .cls-1 {
        fill: #fcf09a;
        fill-rule: evenodd;
      }

      .cls-2 {
        fill: #86a66e;
      }
    </style>
  </defs>
  <g id="Ebene_1-2" data-name="Ebene 1">
    <g id="Schultertasten">
      <g id="RB_original" data-name="RB original">
        <path class="cls-1" d="m81.87,61.75c3.14-1.29,3.77-5.3,3.53-11.97-.21-5.83-.67-13.55-1.41-22-.28-3.17-.83-7.37-2.94-9.43-3.83-3.73-6.8-5.98-8.22-6.93-5.11-3.41-15.75-7.49-22.22-8.97C40.93.25,33.23-.15,24.41.04c-8.07.17-10.38,2.58-12.19,4.13-1.99,1.7-6.79,6.44-8.52,8.72C.65,16.9-.07,16.97,0,24.22c.03,3.23,2.66,11.13,4.53,17.59,1.4,4.84,2.72,9.28,4.34,13.83.57,1.61,3.11,4.57,4.44,5.78,1.56,1.43,5.66,2.06,10.32,2.1,7.26.06,16.37.1,19.55.12,2.75.02,17.05-.19,21.88-.12,4.81.07,12.74-.1,16.8-1.77Z"/>
        <g>
          <path class="cls-2" d="m36.39,49.92v-.14c-.18-1.62-.74-3.43-1.66-5.43-.92-1.99-2.27-4.4-4.05-7.22-1.35-2.12-2.48-4.02-3.4-5.7v18.12c0,.49-.17.85-.51,1.08-.34.23-1,.34-1.98.34-.74,0-1.32-.11-1.75-.34-.43-.23-.64-.53-.64-.9v-.37l.18-13.52c.12-3.99.18-8.48.18-13.48v-5.66c0-.37.15-.62.46-.76.31-.14.95-.21,1.93-.21,1.53,0,2.94.15,4.23.44,1.29.29,2.39.7,3.31,1.22,1.9,1.07,3.13,2.36,3.68,3.86.24.61.37,1.32.37,2.12,0,.46-.08.97-.23,1.52-.15.55-.26.91-.32,1.06-.12.31-.4.77-.83,1.38-.43.61-.71,1.01-.83,1.2l-1.1,1.29-.92,1.2c.06,1.1.44,2.5,1.15,4.19.7,1.69,1.49,3.25,2.35,4.69.61,1.01,1.72,2.7,3.31,5.06l2.67,4.05v.09c0,.52-.09.97-.28,1.33-.18.49-.83.74-1.93.74-1.17,0-2.3-.41-3.4-1.24Zm-6.16-22.36l1.38-3.96c.06-.15.09-.37.09-.64,0-.89-.34-1.92-1.01-3.08-.37-.55-.84-1.02-1.43-1.4-.58-.38-1.18-.59-1.79-.62l-.18,4.6c-.18,2.06-.28,3.65-.28,4.78,0,1.07.03,1.78.09,2.12.86-.43,1.9-1.03,3.13-1.79Z"/>
          <path class="cls-2" d="m49.45,49.92l.18-5.66.18-5.66c0-2.05-.09-5.17-.28-9.34-.18-4.14-.28-7.25-.28-9.34v-.28c0-.8.15-1.53.46-2.21.37-.83,1.35-1.24,2.94-1.24,4.29,0,7.7.69,10.21,2.07,2.51,1.38,3.77,3.21,3.77,5.47,0,1.38-.74,2.82-2.21,4.32-1.47,1.5-3.22,2.62-5.24,3.36,3.56,1.2,6.18,2.74,7.87,4.62,1.69,1.89,2.53,3.96,2.53,6.23,0,1.07-.74,2.41-2.21,4-1.78,1.9-4.2,3.27-7.27,4.09-1.84.46-3.86.69-6.07.69h-.37c-2.82,0-4.23-.38-4.23-1.15Zm9.2-21.16c.92-.86,1.78-1.9,2.58-3.13.18-.34.49-.77.92-1.29v-1.61c0-.92-.68-1.81-2.02-2.67-1.35-.86-2.88-1.29-4.6-1.29-.86,0-1.29.48-1.29,1.43,0,2.02.06,3.83.18,5.43l.18,5.11c1.59-.18,2.94-.84,4.05-1.98Zm3.5,17.85c1.78-1.17,2.67-2.56,2.67-4.19,0-1.41-.23-2.71-.69-3.89-.46-1.18-1.06-2.08-1.79-2.69-.68-.58-1.35-1.07-2.02-1.47-.68-.4-1.26-.66-1.75-.78l-.74-.14h-3.31c.31,3.53.46,8.6.46,15.23,3-.21,5.4-.9,7.18-2.07Z"/>
        </g>
      </g>
    </g>
  </g>
</svg>