<?xml version="1.0" encoding="UTF-8" standalone="no"?>
<!DOCTYPE svg PUBLIC "-//W3C//DTD SVG 1.1//EN" "http://www.w3.org/Graphics/SVG/1.1/DTD/svg11.dtd">
<svg width="100%" height="100%" viewBox="0 0 2274 95" version="1.1" xmlns="http://www.w3.org/2000/svg" xmlns:xlink="http://www.w3.org/1999/xlink" xml:space="preserve" xmlns:serif="http://www.serif.com/" style="fill-rule:evenodd;clip-rule:evenodd;stroke-linejoin:round;stroke-miterlimit:2;">
    <g transform="matrix(1,0,0,1,-1078.38,-3728.83)">
        <g transform="matrix(1,0,0,1,-0.944037,915.399)">
            <g id="Ebene9" transform="matrix(1,0,0,1,0,472.387)">
                <g transform="matrix(1.00372,0,0,1.63354,-18.123,-1544.23)">
                    <path d="M3353.15,2407.23C3353.15,2393.01 3334.39,2381.49 3311.25,2381.49L1140.27,2381.49C1117.13,2381.49 1098.37,2393.01 1098.37,2407.23C1098.37,2407.23 1098.37,2407.23 1098.37,2407.23C1098.37,2421.45 1117.13,2432.98 1140.27,2432.98L3311.25,2432.98C3334.39,2432.98 3353.15,2421.45 3353.15,2407.23L3353.15,2407.23Z" style="fill:rgb(225,206,141);"/>
                </g>
                <g transform="matrix(1.00372,0,0,1.63354,-18.123,-1544.23)">
                    <path d="M3358.13,2407.23C3358.13,2391.33 3337.14,2378.43 3311.25,2378.43L1140.27,2378.43C1114.38,2378.43 1093.39,2391.33 1093.39,2407.23C1093.39,2407.23 1093.39,2407.23 1093.39,2407.23C1093.39,2423.14 1114.38,2436.04 1140.27,2436.04L3311.25,2436.04C3337.14,2436.04 3358.13,2423.14 3358.13,2407.23L3358.13,2407.23ZM3348.17,2407.23L3348.17,2407.23C3348.17,2419.76 3331.64,2429.92 3311.25,2429.92L1140.27,2429.92C1119.88,2429.92 1103.35,2419.76 1103.35,2407.24C1103.35,2407.23 1103.35,2407.23 1103.35,2407.23C1103.35,2394.71 1119.88,2384.55 1140.27,2384.55L3311.25,2384.55C3331.64,2384.55 3348.17,2394.71 3348.17,2407.23Z"/>
                </g>
            </g>
        </g>
    </g>
</svg>
