<?xml version="1.0" encoding="UTF-8"?>
<svg id="Ebene_2" data-name="Ebene 2" xmlns="http://www.w3.org/2000/svg" viewBox="0 0 84.71 287.83">
  <defs>
    <style>
      .cls-1 {
        fill: #fff;
      }

      .cls-1, .cls-2, .cls-3 {
        fill-rule: evenodd;
      }

      .cls-2, .cls-4 {
        fill: #fcf09a;
      }

      .cls-3 {
        fill: #86a66e;
      }

      .cls-4 {
        font-family: AmaticSC-Bold, 'Amatic SC';
        font-size: 24px;
        font-weight: 700;
      }
    </style>
  </defs>
  <g id="Ebene_1-2" data-name="Ebene 1">
    <g id="Steuerkreuz">
      <g id="Ebene11">
        <path class="cls-3" d="m51.61,170.31c-2.66,0-15.32-.04-17.18-.03-4.05.03-4.05-.1-4.03-2.72.03-3.74.02-15.11.02-15.84,0-1.32-.07-1.35-1.34-1.34-1.66,0-13.11.01-15.89.02-2.66,0-2.62-.25-2.65-2.7-.03-2.66.02-14.22.02-17.04,0-4.07-.09-4.12,2.58-4.12,2.23,0,13.43.02,15.97.02,1.27,0,1.3,0,1.31-1.58,0-3.73,0-11.37.02-15.53,0-2.65.08-2.77,3.99-2.77,4.07,0,14.85,0,17.18,0,2.64,0,2.67.03,2.66,2.64-.01,3.75,0,13.51,0,15.5,0,1.91-.13,1.74.97,1.74.68,0,4.63-.02,6.71,0,1.43,0,7.6-.03,9.58-.03,2.66,0,2.67-.03,2.65,3.99-.01,2.12-.05,15.21-.03,17.27.02,2.49-.16,2.62-2.72,2.63-2.12.01-15.12-.04-15.85-.03-1.23.02-1.29.1-1.3,1.34-.02,2.67.04,12.57-.03,17.27-.02,1.3-.29,1.31-2.64,1.31Z"/>
        <path class="cls-1" d="m27.21,123.35c-4.11,0-12.21-.02-14.07-.02-2.08,0-3.24.38-3.96.9-.68.5-1.21,1.16-1.52,2.19-.23.75-.31,2.04-.31,4.24,0,2.82-.04,14.4-.02,17.07.02,2.41.5,3.64,1.14,4.37.69.78,1.92,1.51,4.71,1.51,2.25,0,10.19,0,14.02-.01,0,3.55,0,11.04-.02,13.95-.02,1.95.27,3.11.75,3.85.55.86,1.35,1.54,2.77,1.87.75.17,1.91.24,3.74.22,1.85-.02,14.49.03,17.15.03h0c2.77,0,3.96-.59,4.56-1.15.69-.64,1.26-1.57,1.28-3.33.06-3.94.03-11.51.03-15.45,3.82,0,12.29.04,13.96.03,2.55-.01,3.81-.59,4.53-1.28.76-.73,1.41-1.97,1.38-4.6-.02-2.05.02-15.11.03-17.22,0-1.78-.03-2.91-.18-3.63-.3-1.45-.98-2.25-1.84-2.81-.71-.47-1.85-.77-3.83-.77-1.98,0-8.14.04-9.57.03-1.21,0-3.03,0-4.49,0,0-3.46,0-10.87,0-14.02,0-2.67-.6-3.9-1.29-4.58-.68-.68-1.91-1.27-4.58-1.27-2.33,0-13.1,0-17.17,0-1.78,0-2.93.06-3.67.24-1.37.34-2.17,1-2.72,1.85-.49.75-.8,1.91-.81,3.87,0,3.62-.01,9.89-.02,13.91Zm24.4,46.96c-2.66,0-15.32-.04-17.18-.03-4.05.03-4.05-.1-4.03-2.72.03-3.74.02-15.11.02-15.84,0-1.32-.07-1.35-1.34-1.34-1.66,0-13.11.01-15.89.02-2.66,0-2.62-.25-2.65-2.7-.03-2.66.02-14.22.02-17.04,0-4.07-.09-4.12,2.58-4.12,2.23,0,13.43.02,15.97.02,1.27,0,1.3,0,1.31-1.58,0-3.73,0-11.37.02-15.53,0-2.65.08-2.77,3.99-2.77,4.07,0,14.85,0,17.18,0,2.64,0,2.67.03,2.66,2.64-.01,3.75,0,13.51,0,15.5,0,1.91-.13,1.74.97,1.74.68,0,4.63-.02,6.71,0,1.43,0,7.6-.03,9.58-.03,2.66,0,2.67-.03,2.65,3.99-.01,2.12-.05,15.21-.03,17.27.02,2.49-.16,2.62-2.72,2.63-2.12.01-15.12-.04-15.85-.03-1.23.02-1.29.1-1.3,1.34-.02,2.67.04,12.57-.03,17.27-.02,1.3-.29,1.31-2.64,1.31Z"/>
      </g>
      <g id="Ebene12">
        <path class="cls-2" d="m37.99,202.01c-12.56,2.1-22.82,9.02-31.69,20.89-2.66,3.56-8,11.83-5.77,26.38.54,3.52,5.94,17.45,11.71,22.29,4.27,3.59,13.56,12.91,26.03,15.57,5.59,1.19,13.29.65,18.8-.06,3.57-.47,13.21-2.98,17.11-7.34.08-.09-1.25-.71-3.31-1.41-1.55-.53-2.34-.58-1.57-1.13,2.9-2.07,5.19-4.48,9.92-9.49,7.03-7.44,6.33-22.26,3.37-31.38-3.93-12.09-8.92-21.31-17.45-27.06-8.43-5.68-18.37-8.7-27.14-7.24Z"/>
        <path class="cls-3" d="m52.13,278.18c-2.78,0-16.05-.04-17.99-.03-4.24.03-4.24-.1-4.22-2.85.03-3.92.02-15.82.02-16.59,0-1.38-.07-1.42-1.4-1.41-1.74,0-13.74.01-16.65.02-2.79,0-2.75-.26-2.77-2.83-.03-2.79.02-14.9.02-17.85,0-4.27-.09-4.31,2.7-4.32,2.33,0,14.07.02,16.73.02,1.34,0,1.37,0,1.37-1.66,0-3.9,0-11.91.02-16.27,0-2.77.09-2.91,4.18-2.9,4.27,0,15.55,0,18,0,2.76,0,2.8.04,2.79,2.76-.01,3.93,0,14.15,0,16.23,0,2-.14,1.82,1.02,1.82.71,0,4.85-.02,7.03,0,1.5,0,7.96-.03,10.04-.03,2.78,0,2.79-.04,2.77,4.18-.01,2.23-.05,15.94-.03,18.09.02,2.61-.16,2.75-2.85,2.76-2.22.01-15.84-.05-16.61-.03-1.29.02-1.36.11-1.36,1.4-.02,2.8.04,13.16-.03,18.09-.02,1.36-.3,1.38-2.76,1.37Z"/>
      </g>
      <g>
        <path class="cls-2" d="m37.99.37C25.44,2.47,15.17,9.39,6.31,21.25c-2.66,3.56-8,11.83-5.77,26.38.54,3.52,5.94,17.45,11.71,22.29,4.27,3.59,13.56,12.91,26.03,15.57,5.59,1.19,13.29.65,18.8-.06,3.57-.47,13.21-2.98,17.11-7.34.08-.09-1.25-.71-3.31-1.41-1.55-.53-2.34-.58-1.57-1.13,2.9-2.07,5.19-4.48,9.92-9.49,7.03-7.44,6.33-22.26,3.37-31.38-3.93-12.09-8.92-21.31-17.45-27.06C56.7,1.92,46.76-1.1,37.99.37Z"/>
        <g id="E-Taste">
          <path class="cls-3" d="m55.77,59.53c0-1.11-.44-2.17-1.22-2.95s-1.84-1.22-2.95-1.22h-18.49c-1.11,0-2.17.44-2.95,1.22-.78.78-1.22,1.84-1.22,2.95v18.49c0,1.11.44,2.17,1.22,2.95.78.78,1.84,1.22,2.95,1.22h18.49c1.11,0,2.17-.44,2.95-1.22.78-.78,1.22-1.84,1.22-2.95v-18.49Z"/>
          <text class="cls-4" transform="translate(31.31 77.17) scale(2 1)"><tspan x="0" y="0">M</tspan></text>
        </g>
        <g id="E-Taste-2" data-name="E-Taste">
          <path class="cls-3" d="m55.2,8.17c0-1.11-.44-2.17-1.22-2.95s-1.84-1.22-2.95-1.22h-18.49c-1.11,0-2.17.44-2.95,1.22-.78.78-1.22,1.84-1.22,2.95v18.49c0,1.11.44,2.17,1.22,2.95.78.78,1.84,1.22,2.95,1.22h18.49c1.11,0,2.17-.44,2.95-1.22.78-.78,1.22-1.84,1.22-2.95V8.17Z"/>
          <text class="cls-4" transform="translate(31.1 25.45) scale(2 1)"><tspan x="0" y="0">I</tspan></text>
        </g>
        <g id="E-Taste-3" data-name="E-Taste">
          <path class="cls-3" d="m82.04,33.41c0-1.11-.44-2.17-1.22-2.95s-1.84-1.22-2.95-1.22h-18.49c-1.11,0-2.17.44-2.95,1.22-.78.78-1.22,1.84-1.22,2.95v18.49c0,1.11.44,2.17,1.22,2.95.78.78,1.84,1.22,2.95,1.22h18.49c1.11,0,2.17-.44,2.95-1.22.78-.78,1.22-1.84,1.22-2.95v-18.49Z"/>
          <text class="cls-4" transform="translate(58.03 51.04) scale(2 1)"><tspan x="0" y="0">B</tspan></text>
        </g>
        <g id="E-Taste-4" data-name="E-Taste">
          <path class="cls-3" d="m29.26,33.41c0-1.11-.44-2.17-1.22-2.95s-1.84-1.22-2.95-1.22H6.6c-1.11,0-2.17.44-2.95,1.22-.78.78-1.22,1.84-1.22,2.95v18.49c0,1.11.44,2.17,1.22,2.95.78.78,1.84,1.22,2.95,1.22h18.49c1.11,0,2.17-.44,2.95-1.22.78-.78,1.22-1.84,1.22-2.95v-18.49Z"/>
        </g>
      </g>
    </g>
  </g>
</svg>