<?xml version="1.0" encoding="UTF-8" standalone="no"?>
<!DOCTYPE svg PUBLIC "-//W3C//DTD SVG 1.1//EN" "http://www.w3.org/Graphics/SVG/1.1/DTD/svg11.dtd">
<svg width="100%" height="100%" viewBox="0 0 1682 493" version="1.1" xmlns="http://www.w3.org/2000/svg" xmlns:xlink="http://www.w3.org/1999/xlink" xml:space="preserve" xmlns:serif="http://www.serif.com/" style="fill-rule:evenodd;clip-rule:evenodd;stroke-linejoin:round;stroke-miterlimit:2;">
    <g transform="matrix(1,0,0,1,-1374.41,-4919.44)">
        <g transform="matrix(1,0,0,1,-0.944037,915.399)">
            <g id="Ebene7" transform="matrix(1.57662,0,0,-1.57662,-2437.82,10078.7)">
                <g transform="matrix(1,0,0,1,-12.581,-511.809)">
                    <path d="M2440.37,4090.87C2440.21,4098.98 2446.31,4111.77 2445.51,4128.11C2444.59,4147.16 2434.55,4154.04 2434.47,4195.55C2434.4,4227.83 2436.38,4278.44 2436.38,4291.59C2436.38,4300.8 2429.33,4342.16 2441.22,4340.38C2460.06,4337.56 2510.11,4333.71 2530.08,4329.72C2575.9,4320.55 2610.74,4323.43 2669.45,4336.57C2705.28,4344.58 2722.43,4343.43 2757.22,4343.11C2787.37,4342.82 2860.81,4340.25 2882.02,4337.02C2922.05,4330.92 2963.11,4324.6 3003.74,4323.6C3046.41,4322.55 3088.65,4327.09 3130.47,4332.01C3159.74,4335.45 3213.38,4347.4 3223.64,4340C3241.47,4327.12 3246.67,4334.43 3272.82,4347.09C3289.77,4355.3 3318.95,4355.69 3350.37,4357.38C3381.84,4359.07 3415.55,4362.05 3437.95,4361.52C3455.39,4361.11 3486.46,4357.61 3493.33,4337C3495.22,4331.32 3493.79,4320.82 3493.51,4306.24C3493.29,4294.87 3487.02,4242.8 3487.27,4223.99C3487.49,4207.72 3493.47,4179.73 3493.51,4172.8C3493.68,4146.92 3492.54,4129.55 3491.49,4101.08C3491.14,4091.56 3490.64,4089.91 3484.44,4085.28C3472.04,4076.01 3466.73,4066.36 3459.85,4062.35C3453.62,4058.74 3445.77,4055.1 3438.43,4055.41C3435.09,4055.55 3431.06,4055.11 3431.06,4058.46C3431.06,4064.76 3431.32,4068.48 3430.85,4077.13C3430.74,4079.11 3382.99,4074.69 3375.78,4074.69C3342.16,4074.69 3309.19,4072.92 3275.81,4072.92C3213.11,4072.92 3142.55,4072.52 3080.4,4067.82C3050.28,4065.55 2998.5,4060.91 2989.16,4061.22C2980.9,4061.49 2929.62,4061.38 2916.36,4061.38C2888.4,4061.38 2860.72,4062.43 2833.23,4064.4C2793.17,4067.26 2740.63,4075.93 2700.37,4076.72C2679.36,4077.14 2597.93,4076.36 2563.14,4074.71C2529.31,4073.11 2487.64,4073.64 2454.59,4069.09C2439.09,4066.95 2440.78,4069.36 2440.37,4090.87Z" style="fill:rgb(254,202,103);"/>
                </g>
                <g transform="matrix(1,0,0,1,-12.581,-511.809)">
                    <path d="M2571.1,4082.06C2588.95,4082.38 2647.76,4082.65 2645.49,4084.07C2636.6,4089.63 2625.2,4093.5 2615.76,4100.13C2605.2,4107.55 2589.43,4118.55 2580.69,4127.91C2573.28,4135.85 2566.51,4143.15 2562.53,4153.49C2557.82,4165.74 2558.72,4175.56 2564.08,4186.97C2566.41,4191.93 2574,4205.37 2576.4,4210.34C2583.13,4224.28 2584.93,4232.69 2596.96,4240.42C2602.08,4243.72 2606.87,4247.5 2612.18,4250.49C2618.81,4254.22 2644.31,4271.41 2649.75,4277.25C2661.05,4289.4 2678.37,4305.34 2676.76,4322.43C2676.36,4326.6 2665.87,4328.24 2663.42,4327.69C2660.52,4327.05 2634.22,4322.34 2626.16,4322.45C2623.1,4322.48 2600.99,4322.33 2595.07,4322.64C2590.5,4322.88 2562.16,4322.46 2557.61,4323.22C2523.61,4328.89 2513.24,4332.62 2488.36,4334.67C2476.24,4335.67 2466.9,4337.29 2453.88,4337.97C2439.83,4338.69 2439.36,4334.48 2439.27,4327.56C2439.17,4318.82 2439.51,4305.91 2439.51,4297.05C2439.51,4279.38 2439.53,4250.22 2439.42,4246.07C2438.97,4227.58 2439,4212.8 2439.27,4194.92C2439.51,4179.79 2440.21,4168.68 2440.76,4153.86C2440.94,4148.94 2444.63,4144.6 2449.29,4151.12C2456.26,4160.88 2457.3,4165.49 2467.38,4173.56C2473.97,4178.84 2484.33,4180.33 2484.88,4171.68C2485.45,4162.75 2484.49,4154.29 2484.95,4146.27C2485.61,4134.71 2476.59,4125.33 2470.13,4116.85C2465.08,4110.2 2457.49,4104.78 2454.37,4101.66C2448.07,4095.36 2439.7,4090.59 2440.53,4082.33C2440.78,4079.75 2440.85,4073.26 2441.81,4070.87C2443.22,4067.37 2453.37,4069.57 2462.98,4070.13C2474.08,4070.78 2496.99,4075.05 2510.39,4075.39C2527.25,4075.83 2566.09,4081.97 2571.1,4082.06Z" style="fill:rgb(234,187,97);"/>
                </g>
                <g transform="matrix(1,0,0,1,-10.0978,-511.262)">
                    <path d="M3150.27,4075.88C3132,4075.95 3096.32,4069.89 3092.6,4076.22C3088.95,4082.42 3112.09,4095.43 3116.76,4099.79C3134.37,4116.24 3150.23,4133.4 3169.93,4142.36C3180.8,4147.31 3203.08,4160.57 3211.7,4163.44C3239.91,4172.85 3270.49,4177.3 3300.4,4178.6C3332.56,4179.99 3348,4179.43 3372.46,4200.24C3383.1,4209.3 3421.71,4218.21 3431.98,4218.29C3444.57,4218.39 3461.4,4205.2 3463.41,4200.19C3466.29,4192.98 3470.24,4170.53 3469.39,4163.11C3467.45,4146.27 3470.42,4108.78 3464.71,4092.82C3459.72,4078.87 3412.8,4076.88 3393.03,4077.27C3361.47,4077.91 3305.15,4077.55 3279.73,4077.4C3251.88,4077.23 3178.22,4075.76 3150.27,4075.88Z" style="fill:rgb(235,189,98);"/>
                </g>
                <g transform="matrix(1,0,0,1,-12.1944,-509.482)">
                    <path d="M3434.07,4153.7C3432.07,4150.98 3434.31,4124.04 3433.93,4117.11C3433.21,4104.27 3430.06,4083.4 3430.28,4070.54C3430.6,4050.77 3436.72,4051.01 3445.21,4055.68C3454.94,4061.03 3465.85,4063.4 3473.32,4072.46C3481.02,4081.81 3480.53,4075.36 3486.24,4084.5C3493.44,4096.03 3489.35,4109.04 3489.8,4124.92C3490.21,4139.35 3490.25,4156.29 3490.04,4171.43C3489.91,4181.78 3484.43,4199.35 3483.62,4209.65C3482.75,4220.66 3481.01,4222.81 3481.83,4233.91C3482.37,4241.18 3486.83,4256.28 3486.39,4266.22C3485.74,4280.84 3488.89,4283.98 3490.5,4298.47C3491.28,4305.45 3490.93,4316.7 3490.81,4319.34C3490.52,4326.14 3482.48,4319.2 3473.47,4315.87C3465.91,4313.08 3465.63,4311.61 3454.3,4311.61C3449.11,4311.61 3439.46,4311.53 3440.31,4303.06C3441.46,4291.49 3441.16,4278.25 3440.39,4266.58C3440.22,4264.1 3438.96,4261.39 3435.62,4254.68C3431.17,4245.76 3428.92,4243.03 3429.43,4231.18C3429.81,4222.5 3429.46,4209 3429.46,4200.31C3429.46,4197.23 3429.41,4194.37 3429.41,4191.3C3429.4,4189.35 3432.32,4182.06 3435.93,4182.29C3444.81,4182.86 3455.64,4189.46 3459.38,4180.03C3461.79,4173.94 3459.14,4168.16 3453.68,4162.7C3452.29,4161.31 3437.13,4157.85 3434.07,4153.7Z" style="fill:rgb(253,222,154);"/>
                </g>
                <g transform="matrix(1,0,0,1,-12.581,-511.809)">
                    <path d="M3435.67,4153.29C3438.65,4153.98 3443.98,4155.26 3448.95,4157.17C3453.6,4158.96 3457.89,4161.37 3460.17,4164.21C3463.61,4168.49 3465.2,4172.29 3465.47,4175.74C3465.76,4179.44 3464.61,4182.84 3462.17,4186.14C3459.76,4189.4 3456.34,4190.85 3452.47,4191.15C3447.72,4191.5 3442.22,4189.97 3437.86,4188.7C3436.76,4188.38 3435.5,4188.09 3434.53,4187.87C3434.28,4191.32 3433.62,4197.91 3434.3,4209.15C3435.27,4225.14 3433.51,4231.34 3436.6,4246.77C3437.41,4250.84 3439.03,4254.36 3440.72,4258.17C3443.53,4264.48 3446.53,4271.49 3447.17,4282.21C3447.61,4289.58 3444.82,4297.75 3443.19,4303.84C3442.74,4305.54 3442.38,4307.05 3442.3,4308.28C3442.29,4308.46 3442.3,4308.69 3442.31,4308.88C3442.97,4309.08 3444.32,4309.46 3445.44,4309.66C3451.16,4310.66 3459.77,4311.19 3461.66,4311.57C3465,4312.24 3475.63,4314.68 3482.37,4319.22C3484.52,4320.66 3486.4,4321.66 3487.96,4322.73C3489.97,4324.09 3491.54,4325.57 3492.67,4327.75C3494.02,4330.34 3494.76,4334.06 3494.49,4340.32C3494.41,4342.07 3492.93,4343.43 3491.18,4343.35C3489.44,4343.27 3488.08,4341.79 3488.15,4340.05C3488.36,4335.4 3488.05,4332.6 3487.05,4330.68C3486.42,4329.48 3485.5,4328.72 3484.39,4327.97C3482.84,4326.91 3480.97,4325.92 3478.83,4324.48C3472.85,4320.45 3463.38,4318.38 3460.42,4317.79C3458.55,4317.41 3450.01,4316.9 3444.34,4315.9C3442.34,4315.55 3440.65,4315.12 3439.56,4314.66C3438.69,4314.29 3438.07,4313.85 3437.66,4313.44C3436.82,4312.61 3436.25,4311.49 3436.04,4310.06C3435.84,4308.76 3435.97,4307.07 3436.36,4305.11C3437.53,4299.4 3441.31,4290.51 3440.84,4282.59C3440.25,4272.84 3437.48,4266.48 3434.93,4260.74C3433.04,4256.5 3431.28,4252.56 3430.38,4248.01C3427.22,4232.23 3428.97,4225.89 3427.97,4209.53C3427.33,4198.9 3427.89,4192.39 3428.18,4188.76C3428.27,4187.61 3428.38,4186.84 3428.31,4186.4C3428.13,4185.31 3428.29,4184.45 3428.57,4183.77C3429.05,4182.66 3429.89,4181.86 3431.18,4181.44C3432.26,4181.1 3434.1,4181.15 3436.41,4181.72C3439.56,4182.5 3444.08,4184.14 3448.46,4184.69C3451.79,4185.11 3455.1,4185.03 3457.07,4182.37C3458.51,4180.41 3459.32,4178.43 3459.15,4176.24C3458.96,4173.8 3457.65,4171.2 3455.22,4168.18C3453.51,4166.05 3450.16,4164.44 3446.67,4163.09C3440.72,4160.8 3434.22,4159.49 3432.33,4159.02C3431.12,4158.71 3430.52,4158.21 3430.39,4158.09C3429.57,4157.33 3429.39,4156.51 3429.37,4155.87C3428.99,4144.92 3431.4,4120.81 3429.91,4113.76C3428.11,4105.22 3429.53,4084.62 3428.37,4062.35C3428.28,4060.6 3429.63,4059.11 3431.37,4059.01C3433.12,4058.92 3434.62,4060.27 3434.7,4062.02C3435.84,4083.87 3434.36,4104.07 3436.12,4112.46C3437.54,4119.21 3435.61,4141.27 3435.67,4153.29ZM3434.58,4185.51L3434.57,4185.39C3434.57,4185.43 3434.58,4185.47 3434.58,4185.51Z" style="fill:rgb(35,31,32);"/>
                </g>
                <g transform="matrix(1,0,0,1,-12.581,-511.809)">
                    <path d="M3427.8,4074.49C3428.1,4067.64 3427.89,4064.09 3427.89,4058.49C3427.89,4055.57 3429.31,4053.98 3431.46,4053.07C3433.23,4052.33 3435.91,4052.34 3438.3,4052.24C3446.22,4051.91 3454.73,4055.71 3461.44,4059.61C3464.43,4061.35 3467.18,4064.04 3470.23,4067.33C3474.33,4071.75 3479.09,4077.32 3486.34,4082.74C3489.23,4084.89 3491,4086.55 3492.18,4088.4C3493.92,4091.14 3494.42,4094.41 3494.66,4100.97C3495.71,4129.49 3496.85,4146.89 3496.68,4172.82C3496.64,4179.75 3490.66,4207.75 3490.45,4224.03C3490.19,4242.82 3496.46,4294.82 3496.68,4306.19C3496.97,4321.27 3498.3,4332.12 3496.33,4338.01C3493.3,4347.1 3486.1,4353.27 3477.2,4357.31C3464.7,4362.99 3448.83,4364.44 3438.03,4364.69C3393.25,4365.74 3340.85,4355.96 3296.68,4356.23C3272.05,4356.38 3262.73,4350.8 3249.6,4338.91C3248.5,4337.92 3245.95,4336.68 3243.18,4336.4C3240.68,4336.14 3237.94,4336.77 3236.09,4339.58C3233.87,4342.94 3232.06,4344.92 3229.89,4345.99C3226.83,4347.52 3222.75,4347.29 3214.53,4345.39C3188.44,4339.36 3156.07,4338.21 3130.1,4335.15C3088.43,4330.25 3046.34,4325.73 3003.82,4326.77C2963.32,4327.77 2922.39,4334.07 2882.49,4340.15C2861.21,4343.4 2787.51,4345.99 2757.25,4346.28C2722.18,4346.61 2704.88,4347.74 2668.75,4339.66C2610.6,4326.65 2576.09,4323.75 2530.71,4332.83C2510.7,4336.83 2460.56,4340.69 2441.69,4343.52C2436.61,4344.28 2433.03,4340.3 2431.8,4332.89C2429.77,4320.61 2433.21,4298.12 2433.21,4291.59C2433.21,4278.43 2431.23,4227.83 2431.29,4195.54C2431.34,4169.88 2437.26,4157.66 2442.19,4147.75C2445.18,4141.75 2447.84,4136.7 2448.18,4129.56C2448.63,4120.28 2444.64,4111.69 2441.5,4104.63C2439.05,4099.13 2437.13,4094.39 2437.2,4090.81L2437.2,4090.81C2437.35,4082.88 2437.24,4077.49 2437.76,4073.93C2438.25,4070.58 2439.36,4068.49 2441.04,4067.15C2442.22,4066.21 2443.75,4065.6 2445.8,4065.38C2447.99,4065.15 2450.97,4065.39 2455.03,4065.95C2487.99,4070.48 2529.55,4069.95 2563.29,4071.55C2598.03,4073.19 2679.33,4073.97 2700.31,4073.55C2740.51,4072.76 2792.99,4064.09 2833.01,4061.23C2860.57,4059.26 2888.33,4058.2 2916.36,4058.2C2929.61,4058.2 2980.81,4058.32 2989.05,4058.05C2998.43,4057.74 3050.41,4062.38 3080.64,4064.66C3142.72,4069.35 3213.18,4069.75 3275.81,4069.75C3309.19,4069.75 3342.16,4071.52 3375.78,4071.52C3381.91,4071.52 3417.57,4074.79 3427.8,4074.49ZM3434.23,4058.88C3434.24,4065 3434.49,4068.79 3434.01,4077.33C3433.97,4078.14 3433.67,4078.96 3432.87,4079.66C3432.49,4080 3431.48,4080.57 3429.76,4080.73C3421.84,4081.46 3382.3,4077.86 3375.78,4077.86C3342.16,4077.86 3309.19,4076.1 3275.81,4076.1C3213.03,4076.1 3142.39,4075.68 3080.16,4070.98C3050.16,4068.72 2998.57,4064.08 2989.26,4064.39C2981,4064.66 2929.64,4064.55 2916.36,4064.55C2888.48,4064.55 2860.87,4065.6 2833.46,4067.56C2793.34,4070.42 2740.74,4079.1 2700.43,4079.89C2679.39,4080.31 2597.84,4079.53 2562.99,4077.88C2529.08,4076.28 2487.3,4076.79 2454.16,4072.23C2451.28,4071.83 2449.04,4071.59 2447.29,4071.64C2446.27,4071.67 2445.5,4071.71 2444.98,4072.12C2444.59,4072.43 2444.44,4072.94 2444.28,4073.58C2444.07,4074.4 2443.95,4075.37 2443.86,4076.52C2443.59,4079.89 2443.66,4084.56 2443.54,4090.93L2443.54,4090.93C2443.48,4093.83 2445.3,4097.59 2447.29,4102.05C2450.8,4109.91 2455.02,4119.53 2454.52,4129.87C2454.12,4137.97 2451.26,4143.76 2447.87,4150.58C2443.24,4159.9 2437.68,4171.41 2437.64,4195.56C2437.57,4227.84 2439.55,4278.44 2439.55,4291.59C2439.55,4297.96 2436.08,4319.88 2438.06,4331.85C2438.34,4333.55 2438.72,4335.02 2439.3,4336.12C2439.66,4336.8 2440.04,4337.36 2440.75,4337.25C2459.56,4334.43 2509.52,4330.6 2529.46,4326.61C2575.71,4317.36 2610.88,4320.21 2670.14,4333.47C2705.68,4341.42 2722.69,4340.26 2757.19,4339.93C2787.23,4339.65 2860.41,4337.1 2881.54,4333.88C2921.7,4327.76 2962.9,4321.44 3003.66,4320.43C3046.49,4319.38 3088.87,4323.92 3130.84,4328.86C3157.02,4331.94 3189.66,4333.13 3215.96,4339.21C3219.32,4339.98 3221.82,4340.51 3223.79,4340.68C3225.17,4340.79 3226.2,4340.75 3227.07,4340.32C3228.43,4339.64 3229.39,4338.21 3230.79,4336.08C3234.21,4330.9 3239.2,4329.62 3243.82,4330.09C3248.18,4330.53 3252.13,4332.65 3253.86,4334.21C3265.78,4345.01 3274.27,4350.02 3296.64,4349.89C3340.78,4349.62 3393.14,4359.4 3437.88,4358.35C3448,4358.12 3462.87,4356.85 3474.58,4351.53C3481.82,4348.24 3487.85,4343.4 3490.32,4336C3490.99,4333.98 3491.14,4331.28 3491.12,4327.94C3491.09,4322.3 3490.5,4315.03 3490.34,4306.31C3490.12,4294.91 3483.85,4242.78 3484.1,4223.95C3484.32,4207.68 3490.3,4179.7 3490.34,4172.78C3490.51,4146.95 3489.37,4129.61 3488.32,4101.2C3488.14,4096.33 3488.11,4093.84 3486.82,4091.8C3485.98,4090.47 3484.62,4089.37 3482.55,4087.82C3474.92,4082.12 3469.89,4076.29 3465.58,4071.64C3463.02,4068.88 3460.76,4066.56 3458.25,4065.1C3452.52,4061.76 3445.33,4058.29 3438.56,4058.58C3437.88,4058.6 3437.17,4058.61 3436.47,4058.63C3435.76,4058.65 3434.75,4058.8 3434.23,4058.88Z" style="fill:rgb(35,31,32);"/>
                </g>
                <g transform="matrix(1,0,0,1,-23.938,-532.041)">
                    <path d="M3308.23,4118.32C3319.45,4118.56 3328.99,4120.99 3339.83,4123.16C3341.55,4123.5 3342.66,4125.17 3342.32,4126.89C3341.97,4128.6 3340.3,4129.72 3338.59,4129.38C3328.12,4127.28 3318.92,4124.89 3308.09,4124.66C3306.34,4124.62 3304.95,4123.17 3304.99,4121.42C3305.03,4119.67 3306.48,4118.28 3308.23,4118.32Z" style="fill:rgb(35,31,32);"/>
                </g>
                <g transform="matrix(1,0,0,1,-26.8183,-525.904)">
                    <path d="M3360.95,4106.92C3366.08,4106.16 3372.78,4106.61 3376.48,4110.32C3377.72,4111.55 3377.72,4113.56 3376.48,4114.8C3375.24,4116.04 3373.23,4116.04 3371.99,4114.8C3370.94,4113.75 3369.41,4113.3 3367.83,4113.07C3365.83,4112.79 3363.71,4112.92 3361.88,4113.19C3360.15,4113.45 3358.53,4112.25 3358.28,4110.52C3358.02,4108.79 3359.22,4107.18 3360.95,4106.92Z" style="fill:rgb(35,31,32);"/>
                </g>
            </g>
        </g>
    </g>
</svg>
