<?xml version="1.0" encoding="UTF-8"?>
<svg id="Ebene_2" data-name="Ebene 2" xmlns="http://www.w3.org/2000/svg" viewBox="0 0 84.71 86.18">
  <defs>
    <style>
      .cls-1 {
        fill: #fcf09a;
        fill-rule: evenodd;
      }

      .cls-2 {
        fill: #86a66e;
      }
    </style>
  </defs>
  <g id="Ebene_1-2" data-name="Ebene 1">
    <g id="X-Y-B-A">
      <g>
        <path class="cls-1" d="m37.99.37C25.44,2.47,15.17,9.39,6.31,21.25c-2.66,3.56-8,11.83-5.77,26.38.54,3.52,5.94,17.45,11.71,22.29,4.27,3.59,13.56,12.91,26.03,15.57,5.59,1.19,13.29.65,18.8-.06,3.57-.47,13.21-2.98,17.11-7.34.08-.09-1.25-.71-3.31-1.41-1.55-.53-2.34-.58-1.57-1.13,2.9-2.07,5.19-4.48,9.92-9.49,7.03-7.44,6.33-22.26,3.37-31.38-3.93-12.09-8.92-21.31-17.45-27.06C56.7,1.92,46.76-1.1,37.99.37Z"/>
        <path class="cls-2" d="m31.95,63.67c-.65-.21-.97-.46-.97-.77,0-.11.04-.17.11-.17,2.96-5.97,5.4-11.02,7.3-15.16,1.52-3.38,2.28-5.62,2.28-6.73,0-.87-.25-1.94-.74-3.19-.5-1.25-1.58-3.78-3.25-7.58l-2.74-6.16c-.23-.46-.34-.8-.34-1.03,0-.53.25-.92.74-1.17.49-.25,1.12-.37,1.88-.37,1.14,0,1.98.46,2.51,1.37.61,1.03,1.48,3.06,2.62,6.1l.46,1.03.91,2.22,1.6,4.1,2.74-6.67,2.17-5.24c.76-1.52,1.33-2.51,1.71-2.96.61-.53,1.25-.8,1.94-.8.76,0,1.41.11,1.94.34.53.23.8.53.8.91,0,.99-1.29,3.95-3.88,8.89-1.6,3-2.78,5.37-3.53,7.1-.76,1.73-1.14,2.97-1.14,3.73,0,.38.72,2.39,2.17,6.04,1.44,3.65,2.7,6.73,3.76,9.23l.8,1.6c.76,1.44,1.14,2.47,1.14,3.08,0,.99-.68,1.48-2.05,1.48-1.9,0-3-.46-3.31-1.37-.3-.76-.87-2.3-1.71-4.62l-.91-2.62c-1.44-3.99-2.51-6.71-3.19-8.15-3.8,8.51-6.08,13.45-6.84,14.82-1.07,2.01-1.98,3.02-2.74,3.02-.84,0-1.58-.1-2.22-.31Z"/>
      </g>
    </g>
  </g>
</svg>