<?xml version="1.0" encoding="UTF-8"?>
<svg id="Ebene_2" data-name="Ebene 2" xmlns="http://www.w3.org/2000/svg" viewBox="0 0 84.71 86.18">
  <defs>
    <style>
      .cls-1 {
        fill: #fcf09a;
        fill-rule: evenodd;
      }

      .cls-2 {
        fill: #86a66e;
      }
    </style>
  </defs>
  <g id="Ebene_1-2" data-name="Ebene 1">
    <g id="X-Y-B-A">
      <g>
        <path class="cls-1" d="m37.99.37C25.44,2.47,15.17,9.39,6.31,21.25c-2.66,3.56-8,11.83-5.77,26.38.54,3.52,5.94,17.45,11.71,22.29,4.27,3.59,13.56,12.91,26.03,15.57,5.59,1.19,13.29.65,18.8-.06,3.57-.47,13.21-2.98,17.11-7.34.08-.09-1.25-.71-3.31-1.41-1.55-.53-2.34-.58-1.57-1.13,2.9-2.07,5.19-4.48,9.92-9.49,7.03-7.44,6.33-22.26,3.37-31.38-3.93-12.09-8.92-21.31-17.45-27.06C56.7,1.92,46.76-1.1,37.99.37Z"/>
        <path class="cls-2" d="m41.32,64.79c-.57-.27-.85-.59-.85-.97l.23-5.53c.23-2.47.34-4.31.34-5.53,0-1.1-.34-2.74-1.03-4.9-.76-2.13-1.14-3.78-1.14-4.96,0-1.44-.42-3.1-1.25-4.96-.84-1.86-1.9-3.65-3.19-5.36-1.22-1.63-2.24-3.39-3.08-5.27-.84-1.88-1.25-3.52-1.25-4.93,0-.27.3-.49.91-.68.61-.19,1.25-.28,1.94-.28.84,0,1.63.44,2.39,1.31.91.99,1.78,2.38,2.62,4.16.84,1.79,1.33,2.85,1.48,3.19l1.48,3.93,1.14,2.51c.23-.61.42-1.41.57-2.39.46-3.15,1.03-5.78,1.71-7.87.53-1.44,1.14-2.55,1.82-3.31.76-.83,1.67-1.25,2.74-1.25,2.05,0,3.08.19,3.08.57,0,2.17-.91,5.36-2.74,9.58-1.82,4.22-2.74,7.43-2.74,9.63l-.23.91c-.15.57-.19.91-.11,1.03v.91c0,1.63.11,4.14.34,7.52l.23,7.58.23,1.31.23,1.37v1.42c0,.46-.38.85-1.14,1.17-.76.32-1.67.48-2.74.48-.76,0-1.43-.13-2-.4Z"/>
      </g>
    </g>
  </g>
</svg>