<?xml version="1.0" encoding="UTF-8"?>
<svg id="Ebene_2" data-name="Ebene 2" xmlns="http://www.w3.org/2000/svg" viewBox="0 0 84.71 86.18">
  <defs>
    <style>
      .cls-1 {
        fill: #fcf09a;
        fill-rule: evenodd;
      }

      .cls-2 {
        fill: #86a66e;
      }
    </style>
  </defs>
  <g id="Ebene_1-2" data-name="Ebene 1">
    <g id="X-Y-B-A">
      <g>
        <path class="cls-1" d="m37.99.37C25.44,2.47,15.17,9.39,6.31,21.25c-2.66,3.56-8,11.83-5.77,26.38.54,3.52,5.94,17.45,11.71,22.29,4.27,3.59,13.56,12.91,26.03,15.57,5.59,1.19,13.29.65,18.8-.06,3.57-.47,13.21-2.98,17.11-7.34.08-.09-1.25-.71-3.31-1.41-1.55-.53-2.34-.58-1.57-1.13,2.9-2.07,5.19-4.48,9.92-9.49,7.03-7.44,6.33-22.26,3.37-31.38-3.93-12.09-8.92-21.31-17.45-27.06C56.7,1.92,46.76-1.1,37.99.37Z"/>
        <path class="cls-2" d="m50.66,61.06c-.57-.23-.85-.61-.85-1.14v-7.47c-.99-.34-2.85-.65-5.59-.91-2.74-.27-5.32-.44-7.75-.51-.84.8-1.44,1.77-1.82,2.91l-.46,1.14c-.08.27-.3.85-.68,1.77-.38.91-.8,1.7-1.25,2.37-.46.67-.91,1.19-1.37,1.57-2.89,0-4.56-.38-5.02-1.14.84-.61,1.78-2.39,2.85-5.36l3.76-10.43c1.67-4.94,3.21-9.16,4.62-12.65,1.41-3.5,2.91-6.42,4.5-8.78,1.75-2.62,3.42-3.93,5.02-3.93s2.81.15,3.65.46c0,1.52.72,5.19,2.17,11,1.52,5.7,2.28,9.6,2.28,11.68s.42,4.9,1.25,8.66c.76,3.84,1.14,6.9,1.14,9.18,0,1.29-1.25,1.94-3.76,1.94-1.22,0-2.11-.11-2.68-.34Zm-.97-12.08c-.23-1.67-.61-3.74-1.14-6.21-1.75-8.59-2.62-13.85-2.62-15.79v-.46c-.76.38-1.81,2.1-3.13,5.16-1.33,3.06-2.57,6.34-3.71,9.83-1.14,3.5-1.75,5.81-1.82,6.95,3.19.46,6.57.68,10.15.68.61,0,1.37-.06,2.28-.17Z"/>
      </g>
    </g>
  </g>
</svg>