<?xml version="1.0" encoding="UTF-8"?>
<svg id="Ebene_2" data-name="Ebene 2" xmlns="http://www.w3.org/2000/svg" viewBox="0 0 177.51 185.02">
  <defs>
    <style>
      .cls-1 {
        fill: #fcf09a;
        fill-rule: evenodd;
      }

      .cls-2 {
        fill: #86a66e;
      }
    </style>
  </defs>
  <g id="Ebene_1-2" data-name="Ebene 1">
    <g id="X-Y-B-A">
      <g>
        <path class="cls-1" d="m37.99,1.23C25.44,3.33,15.17,10.26,6.31,22.12c-2.66,3.56-8,11.83-5.77,26.38.54,3.52,5.94,17.45,11.71,22.29,4.27,3.59,13.56,12.91,26.03,15.57,5.59,1.19,13.29.65,18.8-.06,3.57-.47,13.21-2.98,17.11-7.34.08-.09-1.25-.71-3.31-1.41-1.55-.53-2.34-.58-1.57-1.13,2.9-2.07,5.19-4.48,9.92-9.49,7.03-7.44,6.33-22.26,3.37-31.38-3.93-12.09-8.92-21.31-17.45-27.06C56.7,2.79,46.76-.23,37.99,1.23Z"/>
        <path class="cls-2" d="m31.95,64.54c-.65-.21-.97-.46-.97-.77,0-.11.04-.17.11-.17,2.96-5.97,5.4-11.02,7.3-15.16,1.52-3.38,2.28-5.62,2.28-6.73,0-.87-.25-1.94-.74-3.19-.5-1.25-1.58-3.78-3.25-7.58l-2.74-6.16c-.23-.46-.34-.8-.34-1.03,0-.53.25-.92.74-1.17.49-.25,1.12-.37,1.88-.37,1.14,0,1.98.46,2.51,1.37.61,1.03,1.48,3.06,2.62,6.1l.46,1.03.91,2.22,1.6,4.1,2.74-6.67,2.17-5.24c.76-1.52,1.33-2.51,1.71-2.96.61-.53,1.25-.8,1.94-.8.76,0,1.41.11,1.94.34.53.23.8.53.8.91,0,.99-1.29,3.95-3.88,8.89-1.6,3-2.78,5.37-3.53,7.1-.76,1.73-1.14,2.97-1.14,3.73,0,.38.72,2.39,2.17,6.04,1.44,3.65,2.7,6.73,3.76,9.23l.8,1.6c.76,1.44,1.14,2.47,1.14,3.08,0,.99-.68,1.48-2.05,1.48-1.9,0-3-.46-3.31-1.37-.3-.76-.87-2.3-1.71-4.62l-.91-2.62c-1.44-3.99-2.51-6.71-3.19-8.15-3.8,8.51-6.08,13.45-6.84,14.82-1.07,2.01-1.98,3.02-2.74,3.02-.84,0-1.58-.1-2.22-.31Z"/>
      </g>
      <g>
        <path class="cls-1" d="m37.99,99.2c-12.56,2.1-22.82,9.02-31.69,20.89-2.66,3.56-8,11.83-5.77,26.38.54,3.52,5.94,17.45,11.71,22.29,4.27,3.59,13.56,12.91,26.03,15.57,5.59,1.19,13.29.65,18.8-.06,3.57-.47,13.21-2.98,17.11-7.34.08-.09-1.25-.71-3.31-1.41-1.55-.53-2.34-.58-1.57-1.13,2.9-2.07,5.19-4.48,9.92-9.49,7.03-7.44,6.33-22.26,3.37-31.38-3.93-12.09-8.92-21.31-17.45-27.06-8.43-5.68-18.37-8.7-27.14-7.24Z"/>
        <path class="cls-2" d="m50.66,159.89c-.57-.23-.85-.61-.85-1.14v-7.47c-.99-.34-2.85-.65-5.59-.91-2.74-.27-5.32-.44-7.75-.51-.84.8-1.44,1.77-1.82,2.91l-.46,1.14c-.08.27-.3.85-.68,1.77-.38.91-.8,1.7-1.25,2.37-.46.67-.91,1.19-1.37,1.57-2.89,0-4.56-.38-5.02-1.14.84-.61,1.78-2.39,2.85-5.36l3.76-10.43c1.67-4.94,3.21-9.16,4.62-12.65,1.41-3.5,2.91-6.42,4.5-8.78,1.75-2.62,3.42-3.93,5.02-3.93s2.81.15,3.65.46c0,1.52.72,5.19,2.17,11,1.52,5.7,2.28,9.6,2.28,11.68s.42,4.9,1.25,8.66c.76,3.84,1.14,6.9,1.14,9.18,0,1.29-1.25,1.94-3.76,1.94-1.22,0-2.11-.11-2.68-.34Zm-.97-12.08c-.23-1.67-.61-3.74-1.14-6.21-1.75-8.59-2.62-13.85-2.62-15.79v-.46c-.76.38-1.81,2.1-3.13,5.16-1.33,3.06-2.57,6.34-3.71,9.83-1.14,3.5-1.75,5.81-1.82,6.95,3.19.46,6.57.68,10.15.68.61,0,1.37-.06,2.28-.17Z"/>
      </g>
      <g>
        <path class="cls-1" d="m130.79,97.02c-12.56,2.1-22.82,9.02-31.69,20.89-2.66,3.56-8,11.83-5.77,26.38.54,3.52,5.94,17.45,11.71,22.29,4.27,3.59,13.56,12.91,26.03,15.57,5.59,1.19,13.29.65,18.8-.06,3.57-.47,13.21-2.98,17.11-7.34.08-.09-1.25-.71-3.31-1.41-1.55-.53-2.34-.58-1.57-1.13,2.9-2.07,5.19-4.48,9.92-9.49,7.03-7.44,6.33-22.26,3.37-31.38-3.93-12.09-8.92-21.31-17.45-27.06-8.43-5.68-18.37-8.7-27.14-7.24Z"/>
        <path class="cls-2" d="m128.13,158.81l.23-7.01.23-7.01c0-2.54-.11-6.4-.34-11.57-.23-5.13-.34-8.99-.34-11.57v-.34c0-.99.19-1.9.57-2.74.46-1.03,1.67-1.54,3.65-1.54,5.32,0,9.54.86,12.65,2.57,3.12,1.71,4.67,3.97,4.67,6.78,0,1.71-.91,3.5-2.74,5.36-1.82,1.86-3.99,3.25-6.5,4.16,4.41,1.48,7.66,3.39,9.75,5.73,2.09,2.34,3.13,4.91,3.13,7.72,0,1.33-.91,2.98-2.74,4.96-2.21,2.36-5.21,4.05-9.01,5.07-2.28.57-4.79.85-7.52.85h-.46c-3.5,0-5.24-.47-5.24-1.42Zm11.4-26.22c1.14-1.06,2.2-2.36,3.19-3.88.23-.42.61-.95,1.14-1.6v-1.99c0-1.14-.84-2.24-2.51-3.31-1.67-1.06-3.57-1.6-5.7-1.6-1.07,0-1.6.59-1.6,1.77,0,2.51.08,4.75.23,6.73l.23,6.33c1.98-.23,3.65-1.04,5.02-2.45Zm4.33,22.12c2.2-1.44,3.31-3.17,3.31-5.19,0-1.75-.29-3.35-.85-4.82-.57-1.46-1.31-2.57-2.22-3.33-.84-.72-1.67-1.33-2.51-1.82-.84-.49-1.56-.82-2.17-.97l-.91-.17h-4.1c.38,4.37.57,10.66.57,18.87,3.72-.27,6.69-1.12,8.89-2.57Z"/>
      </g>
      <g>
        <path class="cls-1" d="m130.79.37c-12.56,2.1-22.82,9.02-31.69,20.89-2.66,3.56-8,11.83-5.77,26.38.54,3.52,5.94,17.45,11.71,22.29,4.27,3.59,13.56,12.91,26.03,15.57,5.59,1.19,13.29.65,18.8-.06,3.57-.47,13.21-2.98,17.11-7.34.08-.09-1.25-.71-3.31-1.41-1.55-.53-2.34-.58-1.57-1.13,2.9-2.07,5.19-4.48,9.92-9.49,7.03-7.44,6.33-22.26,3.37-31.38-3.93-12.09-8.92-21.31-17.45-27.06-8.43-5.68-18.37-8.7-27.14-7.24Z"/>
        <path class="cls-2" d="m134.11,64.79c-.57-.27-.85-.59-.85-.97l.23-5.53c.23-2.47.34-4.31.34-5.53,0-1.1-.34-2.74-1.03-4.9-.76-2.13-1.14-3.78-1.14-4.96,0-1.44-.42-3.1-1.25-4.96-.84-1.86-1.9-3.65-3.19-5.36-1.22-1.63-2.24-3.39-3.08-5.27-.84-1.88-1.25-3.52-1.25-4.93,0-.27.3-.49.91-.68.61-.19,1.25-.28,1.94-.28.84,0,1.63.44,2.39,1.31.91.99,1.78,2.38,2.62,4.16.84,1.79,1.33,2.85,1.48,3.19l1.48,3.93,1.14,2.51c.23-.61.42-1.41.57-2.39.46-3.15,1.03-5.78,1.71-7.87.53-1.44,1.14-2.55,1.82-3.31.76-.83,1.67-1.25,2.74-1.25,2.05,0,3.08.19,3.08.57,0,2.17-.91,5.36-2.74,9.58-1.82,4.22-2.74,7.43-2.74,9.63l-.23.91c-.15.57-.19.91-.11,1.03v.91c0,1.63.11,4.14.34,7.52l.23,7.58.23,1.31.23,1.37v1.42c0,.46-.38.85-1.14,1.17-.76.32-1.67.48-2.74.48-.76,0-1.43-.13-2-.4Z"/>
      </g>
    </g>
  </g>
</svg>