<?xml version="1.0" encoding="UTF-8"?>
<svg id="Ebene_2" data-name="Ebene 2" xmlns="http://www.w3.org/2000/svg" viewBox="0 0 49.22 49.22">
  <defs>
    <style>
      .cls-1 {
        fill: rgba(219, 212, 163, .05);
      }

      .cls-2, .cls-3 {
        fill: #86a56d;
      }

      .cls-4 {
        fill: #fcef9b;
      }

      .cls-4, .cls-3 {
        fill-rule: evenodd;
      }
    </style>
  </defs>
  <g id="Ebene_1-2" data-name="Ebene 1">
    <g id="Ebene91">
      <g id="Ebene62">
        <rect class="cls-1" width="49.22" height="49.22"/>
        <circle class="cls-2" cx="24.61" cy="24.61" r="20.39"/>
        <path class="cls-3" d="m24.61,2.81C12.58,2.81,2.81,12.58,2.81,24.61s9.77,21.8,21.79,21.8,21.79-9.77,21.79-21.8S36.64,2.81,24.61,2.81Zm0,2.81c10.48,0,18.99,8.51,18.99,18.98s-8.51,18.98-18.99,18.98S5.63,35.09,5.63,24.61,14.13,5.62,24.61,5.62Z"/>
        <g id="Ebene15">
          <path class="cls-4" d="m19.44,28.94c-.62.37-1.74-2.19-2.69-3.82-1.34-2.28-3.1-5.64-4.46-8.37-.87-1.75.05-4.3,2.43-5.51,1.84-.94,4.59-.78,5.49,1.62,1.27,3.37,2.1,5.69,3.09,8.8.54,1.71,1.77,4.5,1.07,4.83-.25.12-3.68,1.71-4.92,2.45Z"/>
          <path class="cls-4" d="m18.68,39.31c-.98.88-2.98-.54-1.99-2.17,1.02-1.69,1.69-2.97,3.02-4.17,1.69-1.53,3.36-2.55,6.05-3.33,2.64-.77,4.92-.93,7.47-.19,1.81.53,3.47,1.14,4.45,2.47.7.94-.08,2.82-1.87,1.94-.68-.34-1.55-.7-2.94-1.09-2.03-.57-4.83-.41-6.34-.06-1.47.35-3.74,1.72-4.91,2.75-1.07.94-1.85,2.84-2.95,3.83Z"/>
          <path class="cls-4" d="m19.87,27.66c.43.93,1.96,4.39,1.96,4.39l3.2-1.5-2.03-4.46s-4.05,2.03-3.13,1.57Z"/>
          <path class="cls-4" d="m22.03,39.5c-.97,0,.17-.99.82-1.43,1-.68,1.68-1.11,2.96-1.57.84-.3,2.28-.81,3.83-.77,1.29.03,3.08.28,4.1.67,1.04.39,2.82,1.35,3.64,2.18.93.94.7,1.02-.98,1-3.47-.04-6.15-.04-9.58-.02-1.78,0-3.58-.04-4.8-.04Z"/>
        </g>
      </g>
    </g>
  </g>
</svg>