<?xml version="1.0" encoding="UTF-8"?>
<svg id="Ebene_2" data-name="Ebene 2" xmlns="http://www.w3.org/2000/svg" viewBox="0 0 49.22 49.22">
  <defs>
    <style>
      .cls-1 {
        fill: rgba(219, 212, 163, .05);
      }

      .cls-2 {
        fill: #fcef9c;
      }

      .cls-2, .cls-3 {
        fill-rule: evenodd;
      }

      .cls-3 {
        fill: #86a56d;
      }
    </style>
  </defs>
  <g id="Ebene_1-2" data-name="Ebene 1">
    <g id="Ebene91">
      <g id="Ebene63">
        <rect class="cls-1" width="49.22" height="49.22"/>
        <path class="cls-3" d="m24.61,4.32c11.25,0,20.39,9.09,20.39,20.29s-9.14,20.29-20.39,20.29S4.22,35.81,4.22,24.61,13.35,4.32,24.61,4.32Zm0,10.14c5.63,0,10.2,4.55,10.2,10.14s-4.57,10.14-10.2,10.14-10.2-4.55-10.2-10.14,4.57-10.14,10.2-10.14Z"/>
        <path class="cls-3" d="m24.61,2.92C12.58,2.92,2.81,12.64,2.81,24.61s9.76,21.69,21.8,21.69,21.8-9.72,21.8-21.69S36.64,2.92,24.61,2.92Zm0,2.81c10.48,0,18.98,8.46,18.98,18.88s-8.51,18.88-18.98,18.88S5.62,35.03,5.62,24.61,14.13,5.73,24.61,5.73Zm0,7.33c-6.41,0-11.6,5.18-11.6,11.55s5.2,11.55,11.6,11.55,11.6-5.18,11.6-11.55-5.2-11.55-11.6-11.55Zm0,2.81c4.85,0,8.79,3.91,8.79,8.74s-3.94,8.74-8.79,8.74-8.79-3.91-8.79-8.74,3.94-8.74,8.79-8.74Z"/>
        <g id="Ebene110">
          <path class="cls-2" d="m19.61,28.99c-.62.37-1.73-2.19-2.69-3.82-1.34-2.28-3.1-5.62-4.45-8.35-.86-1.75.05-4.29,2.42-5.49,1.84-.94,4.58-.77,5.48,1.61,1.27,3.36,2.1,5.68,3.08,8.78.54,1.71,1.77,4.49,1.07,4.82-.25.12-3.67,1.7-4.91,2.45Z"/>
          <path class="cls-2" d="m18.85,39.34c-.98.87-2.97-.54-1.99-2.16,1.02-1.68,1.68-2.96,3.01-4.16,1.69-1.52,3.35-2.54,6.04-3.32,2.64-.76,4.91-.93,7.46-.19,1.81.53,3.47,1.14,4.44,2.46.69.94-.08,2.82-1.87,1.94-.68-.33-1.55-.7-2.93-1.08-2.03-.57-4.82-.41-6.32-.06-1.47.35-3.73,1.71-4.9,2.75-1.06.94-1.84,2.84-2.94,3.82Z"/>
          <path class="cls-2" d="m20.05,27.71c.43.93,1.95,4.38,1.95,4.38l3.2-1.5-2.03-4.45s-4.04,2.03-3.12,1.57Z"/>
          <path class="cls-2" d="m22.2,39.54c-.96,0,.17-.98.82-1.43.99-.68,1.67-1.11,2.96-1.57.84-.3,2.28-.81,3.82-.77,1.29.03,3.08.28,4.09.67,1.04.39,2.81,1.35,3.63,2.18.93.94.7,1.02-.98.99-3.46-.04-6.14-.04-9.56-.02-1.77,0-3.57-.04-4.79-.04Z"/>
        </g>
      </g>
    </g>
  </g>
</svg>