<?xml version="1.0" encoding="UTF-8"?>
<svg id="Ebene_2" data-name="Ebene 2" xmlns="http://www.w3.org/2000/svg" viewBox="0 0 889.25 889.12">
  <defs>
    <style>
      .cls-1 {
        fill: #fef5d4;
      }

      .cls-1, .cls-2, .cls-3, .cls-4, .cls-5, .cls-6, .cls-7, .cls-8 {
        fill-rule: evenodd;
      }

      .cls-2 {
        fill: rgba(253, 246, 211, .95);
      }

      .cls-9, .cls-8 {
        fill: rgba(130, 128, 93, .75);
      }

      .cls-3 {
        fill: #e5d69f;
      }

      .cls-4 {
        fill: #e1d89c;
      }

      .cls-5 {
        fill: #231e1e;
      }

      .cls-6 {
        fill: #efe5b0;
      }

      .cls-7 {
        fill: #fcf7d3;
      }
    </style>
  </defs>
  <g id="Ebene_1-2" data-name="Ebene 1">
    <g id="Ebene6">
      <path class="cls-6" d="m867.46,846.79c3.68,2.69,8.16,1.33,13.17,1.32,1,0,5.87.9,5.87.9,0,0,1.18,11.92.74,22.43-.27,6.61-2.16,14.67-13.47,8.84-7.4-3.82-8.1-26.25-6.31-33.48,3.79-15.26,6.84-22.86,8.1-39.64,1.43-18.98,4.95-40.58,7.53-60.51,1.5-11.57,1.74-58.49,1.75-71.55.05-37.88-10.69-79.95-6.6-131.35,2.59-32.6,3.19-66.89,4.19-99.58.79-25.93-7.16-48.09-8.9-73.94-1.48-21.89-1.07-40.4-1.1-59.63-.02-9.22-3.51-39.51-3.51-39.51,0,0-6.59,9.78-11.21,6.55-9.73-6.81.67-31.42,6.48-28.37,2.79,1.46,3.76,7.06,12.89,15.41,9.1,8.34,10.59-4.89,9.77-7.33-3.3-9.81-5.34-13.8-8.17-19.52-4.07-8.24-4.91-13.14-4.91-20.12,0-6.08-.5-18.53,1.67-28.86,2.95-14.1,5.14-27.05,5.12-47.48-.02-16.22,1.37-33.95.95-49.98-.39-15.25.24-52.88.07-60.42-.16-6.96.27-19.01-8.42-22.73-6.26-2.69-13.94-4.41-19.25-4.75-10.31-.67-18.15-1.32-27.29-1.45C804,1.7,50.9.55,24.65,1.31c-10.01.29-14.81,6.91-17.14,13.24-2.33,6.33-2.67,7.47,3.09,7.19,3.03-.15,4.88.06,4.88.06,0,0-.13,19.97-.16,27.79-.05,13.16-.57,26.86-.91,40.5-.24,9.51-.55,18.11-1.28,27.81-.65,8.76-.62,17.96-1.11,27.04-.52,9.59,12.54,30.76,10.16,40.11-.77,3.02-2.68,1.19-4.58,3.55-1.57,1.97,2.93,11.3-.92,16.45-6.01,8.03-8.74,9.15-8.77,9.81-.43,11.41.83,21.38.85,31.84.03,19.63,1.61,39.7,2.88,59.31.94,14.68.45,24.03.42,42.03,0,1.86.49,6.01,2.3,8.38,1.87,2.45,6.33,6.06,5.38,10.14-.87,3.73-7.76-.58-9.18,2.27-1.2,2.41-.35,44.7-.89,55.02-.76,14.63,3.67,19.66,3.17,76.52-.14,16.58.92,41.24.9,57.85-.02,22.05-1.15,47.31-1.01,69.6.25,38.04,2.59,73.55,3.3,111.89.47,25.2-2.02,41.03-1.53,65.92.29,14.84.67,36.87,2.16,51.48.84,8.22-2.3,10.09,1.52,17.68.55,1.1,6.48,7.6,9.01,7.63,12.56.17,22.83,1.27,35.77,1.7,31.36,1.04,757.81-1.28,782.55-.82,5.01.09,34.41-1,34.79-1.01"/>
      <path class="cls-3" d="m70.26,222.59c.27,3.04,6.93,8.01,9.94,8.05,7.5.09,10.23-11.67,4.23-15.39-6.43-3.98-14.75.98-14.18,7.34Z"/>
      <path class="cls-3" d="m45.56,271.12c2.92,4.77,6.83,7.08,11.39,7.26,4.83.19,8.98-1.57,12.76-1.78,11.38-.64,15.46-6.58,12.24-18.53-2.41-8.99-8.64-13.3-11.37-14.79-9.31-5.09-25.14-2.99-28.03,11.85-1.23,6.31,1.06,12.83,3.01,16Z"/>
      <path class="cls-1" d="m879.45,482.62c-1.08,7.84-1.37,8.88-4.67,7.38-1.99-.91-18.09-12.44-24.21-18.06-7.95-7.29-14.73-14.36-21.88-26.7-3.14-5.4-11.42-36.91-16.01-47.57-1.77-4.1-10.28-22.17-14.94-30.03-5.49-9.25-10.25-18.88-14.28-28.88-1.71-4.24-2.86-8.29-3.48-12.85-1.66-12.26-.31-33.06,6.31-42.46,1.89-2.67,12.62-23.94,14.87-27.43,4.61-7.12,10.32-22.73,10.92-32.62.52-8.55.76-17.54.75-26.01-.01-5.84-.14-10.52-.43-16.64-.57-12.18-3.21-23.57-.06-35.48,1.62-6.1,7.47-18.07,11.23-23.36,11.03-15.5,30.58-28.82,33.97-30.52,5.42-2.72,22.28-11.59,23.77-5.74.91,3.6-.12,8.29.4,13.36.38,3.63.06,30.85-.27,35.63-.62,8.92-3.49,48.04-5.13,63.01-1.07,9.76-5.44,26.36.1,36.29,3.9,6.99,10.25,23.74,10.46,27.67.27,4.96-3.61,5.2-5.87,4-8.06-4.27-14.39-25.09-22.6-10.65-2.91,5.11-3.53,8.47-3.5,14.39.04,7.66,6.13,8.81,13.06,7.6,3.37-.59,1.59,27.99,3.26,56.2.57,9.73,3.05,44.51,3.31,54.44.28,10.85,3.35,26.52,4.7,35.95,1.43,10,1.14,19.84,1.03,31.11"/>
      <path class="cls-7" d="m693.26,889.12c-12.15.07-324.68-3.19-324.68-4.28-.01-6.79,4.49-9.5,14.27-14.44,7.33-3.7,305.22-5.24,313.34-6.87,8.42-1.7,98.35-11.86,108.28-13.21,15.83-2.15,32.75-5.9,47.84-4.87,9.61.65,10-.11,9.82,3.95-.11,2.52.39,10.12.63,14.16.35,5.89,4.36,11.44,7.33,14.5,2.08,2.14-1.01,4.56-2.04,4.56-3.69,0-10.08-.09-13.82-.08-10.25.02-21.75-.1-32-.08-19.7.03-109.69,6.55-128.97,6.66Z"/>
      <path class="cls-4" d="m16.67,852.14c-.02,3.29,9.34-14.61,10.17-16.03,3.36-5.74,17.66-34.9,19.5-41.44,4.13-14.6,8.45-37.08,10.78-49.47,2.51-13.33,4.87-41.19,4.32-54.9-.82-20.6-6.44-62.59-12.01-74.57-7.7-16.56-16.78-31.03-19.94-34.24-5.02-5.12-10.26-13.49-15.22-11.54-1.52.6.31,40.81.08,58.38-.17,12.3,2.36,75.06,2.27,96.71-.05,12.41.15,55.8.21,65.18.12,19.62-.11,53.14-.17,61.9Z"/>
    </g>
    <g id="Ebene14">
      <rect class="cls-9" x="507.9" y="520.45" width="16.06" height="362.15"/>
      <path class="cls-8" d="m142.8,400.49h-16.06v235.37c0,3.11,2.52,5.63,5.62,5.63h4.81c3.11,0,5.63-2.52,5.63-5.63v-235.37Z"/>
      <rect class="cls-9" x="142.8" y="504.38" width="238.93" height="16.06"/>
      <path class="cls-8" d="m382.21,632.94h-126.14v10.44c0,1.49.59,2.93,1.65,3.98,1.06,1.06,2.49,1.66,3.98,1.66h120.52v-16.07Z"/>
      <path class="cls-8" d="m765.61,400.49h-16.06v351.38c0,3.1,2.52,5.62,5.63,5.62h4.82c3.1,0,5.62-2.52,5.62-5.62v-351.38Z"/>
      <path class="cls-8" d="m765.61,390.19c0-3.11-2.52-5.62-5.62-5.62H132.37c-3.11,0-5.62,2.52-5.62,5.62v10.44h638.87v-10.44Z"/>
      <rect class="cls-9" x="381.73" y="400.49" width="16.06" height="482.1"/>
      <path class="cls-8" d="m395.09,254.79H8.8v16.06h380.67c3.11,0,5.63-2.52,5.63-5.62v-10.44Z"/>
      <rect class="cls-9" x="379.03" y="1.73" width="16.06" height="253.12"/>
      <rect class="cls-9" x="507.99" y="1.73" width="16.06" height="382.89"/>
      <path class="cls-8" d="m649.77,510.01c0-3.11-2.52-5.62-5.62-5.62h-130.53c-3.11,0-5.63,2.52-5.63,5.62v10.44h141.78v-10.44Z"/>
      <path class="cls-8" d="m649.77,520.45h-16.06v231.38c0,3.1,2.51,5.62,5.62,5.62h4.81c3.11,0,5.63-2.52,5.63-5.62v-231.38Z"/>
      <rect class="cls-9" x="523.63" y="632.95" width="126.14" height="16.06"/>
      <rect class="cls-9" x="18.17" y="749.43" width="363.56" height="16.06"/>
      <rect class="cls-9" x="645.07" y="254.8" width="207.84" height="16.06"/>
      <path class="cls-8" d="m645.07,133.64h-10.44c-3.11,0-5.62,2.52-5.62,5.62v125.97c0,3.11,2.52,5.63,5.62,5.63h10.44v-137.22Z"/>
      <path class="cls-8" d="m142.81,133.63h-10.44c-3.11,0-5.62,2.52-5.62,5.62v115.6h16.06v-121.22Z"/>
      <rect class="cls-9" x="256.19" y="520.45" width="16.06" height="112.5"/>
      <path class="cls-8" d="m765.61,139.26c0-3.11-2.52-5.62-5.62-5.62h-114.92v16.06h114.92c3.11,0,5.62-2.52,5.62-5.62v-4.81Z"/>
      <path class="cls-8" d="m263.35,139.26c0-3.11-2.52-5.62-5.62-5.62h-114.92v16.06h114.92c3.11,0,5.62-2.52,5.62-5.62v-4.81Z"/>
    </g>
    <g id="Ebene21">
      <path class="cls-2" d="m15,5.75c-2.59,2-17.69,24.68-10.47,25.05,11.87.6,53.37-1.1,59.79-1.16,1.91-.01,294.6,2.4,306.03,5.04,9.67,2.23,336.06,4.89,338.92-6.84,1.43-5.87,12.64-10.98,9.89-.44-2.08,7.97,17.82,5.71,34.65,8.15,17.71,2.56,29.87,5.5,49.27,4.36,12.66-.75,28-6.2,34.45-5.43,5.61.67,14.35.75,14.51-.44.72-5.37,1.6-10.5,2.82-15.11,2.04-7.67,8.91-11.11,8.18-11.81-5.21-5.05-16.05-3.93-23.6-4.4C814.24,1.16,87.84.71,60.31,1.46c-2.85.08-41.42,1.3-45.31,4.3Z"/>
      <path class="cls-5" d="m849.99,33.95c-.32-.05-.72-.13-1.05-.22-2.35-.62-5.52-1.68-8.36-1.5-6.4.39-27.7,5.01-43.05,5.67-17.65.77-65.62-6.7-69.53-6.46-3.28.2-5.52.11-6.96.01l.46-1.74c.36-1.36.63-2.84.56-4.19-.09-1.75-.74-3.3-2.21-4.38-1.4-1.03-2.85-1.51-4.42-1.38-1.42.12-2.99.75-4.74,2.17-1.15.93-2.15,2.65-2.87,4.54-.62,1.61-1.06,3.33-1.34,4.51-23.15.4-312.2,5.02-335.64,3.05-5.21-.44-275.45-6.6-291.7-6.05-34.36,1.18-49.94,1.87-55.4,2.05-4.38.14-10.99.37-19.29.81-1.08.06-1.9.98-1.85,2.06.06,1.08.98,1.9,2.06,1.85,8.26-.44,14.85-.67,19.2-.81,5.46-.17,21.05-.87,55.41-2.04,16.23-.55,286.05,5.59,291.24,6.03,24.4,2.05,335.83-3.01,337.58-3.07.14,0,1.5-.13,1.9-1.69.17-.7.65-3.1,1.49-5.3.45-1.17.95-2.31,1.67-2.89,1.13-.91,2.05-1.39,2.94-1.31.51.04.98.28,1.46.63.44.33.57.82.61,1.35.05.57-.02,1.18-.14,1.79-.38,2.03-1.15,4.03-1.21,5.06-.07,1.14.38,1.86.91,2.28.43.34,1.02.59,1.86.47.06,0,.45.02.77.04,1.39.11,3.86.32,7.9.06,3.91-.24,51.83,7.23,69.46,6.46,15.37-.67,36.71-5.28,43.12-5.68,2.9-.18,6.16,1.23,8.26,1.65,1.8.36,3.12,0,3.82-.7.31-.31.7-.97.93-1.95.5-2.03.73-6.17.89-6.99.14-.71.53-4.32,1.16-7.6.36-1.88.75-3.65,1.3-4.48,1.58-2.35,5.19-7.83,12.75-6.91,1.07.13,2.05-.63,2.18-1.7.13-1.07-.63-2.05-1.7-2.18-9.69-1.18-14.45,5.6-16.47,8.62-.57.85-1.11,2.41-1.54,4.24-.84,3.63-1.34,8.42-1.51,9.25-.14.69-.68,4.93-.89,6.56Zm-130.71-2.59c-.09,0-.18,0-.28.02.08-.01.17-.02.28-.02Z"/>
      <path class="cls-5" d="m880.52,884.82c1.49-.01,2.71-.37,3.72-.94,1.57-.88,2.71-2.32,3.47-4.09.97-2.24,1.34-5.07,1.45-7.68.44-10.65-.75-22.7-.75-22.7-.09-.87-.74-1.58-1.59-1.74,0,0-5.17-.94-6.23-.93-2.51,0-4.88.35-7.09.36-1.35,0-2.63-.12-3.82-.65,3.65-14.47,6.56-22.17,7.8-38.56,1.43-18.95,4.94-40.51,7.52-60.41,1.5-11.6,1.75-58.69,1.77-71.8.05-37.83-10.69-79.86-6.61-131.2,2.6-32.63,3.2-66.96,4.2-99.68.79-25.99-7.16-48.21-8.91-74.13-1.48-21.84-1.06-40.31-1.09-59.5-.02-9.27-3.51-39.73-3.51-39.73-.09-.82-.69-1.48-1.48-1.68-.79-.2-1.63.13-2.08.8,0,0-2.16,3.22-4.8,5.16-.6.44-1.23.81-1.86,1.02-.62.21-1.24.25-1.8-.14-2.24-1.56-3.06-4.33-3.15-7.36-.15-5.15,1.86-11.13,4.33-14.82.77-1.15,1.57-2.07,2.38-2.59.32-.2.6-.41.88-.26.88.46,1.44,1.53,2.37,2.97,1.82,2.82,4.44,6.97,10.1,12.15,3.52,3.22,6.28,3.62,8.23,2.97,1.93-.65,3.33-2.47,4.13-4.7,1.03-2.92,1-6.44.59-7.66-3.34-9.93-5.41-13.97-8.26-19.77-3.89-7.89-4.71-12.57-4.71-19.25,0-5.99-.51-18.27,1.62-28.46,2.98-14.23,5.19-27.29,5.16-47.89-.02-16.23,1.37-33.98.95-50.03-.39-15.26.24-52.88.07-60.42-.1-4.35-.02-10.6-1.86-15.74-1.36-3.81-3.73-7.03-7.74-8.75-6.47-2.78-14.41-4.55-19.89-4.91-10.34-.67-18.22-1.33-27.39-1.45C803.99.34,51.8-.43,25.55.32,14.66.64,8.78,7.03,5.24,13.45,3.03,17.45-.26,25.39.02,29.79c.1,1.68.69,2.97,1.63,3.78.71.6,1.64,1,2.87,1.01,2.58.03,7.11,0,9.69-.03.05,3.32.14,10.29.13,16-.05,13.15-.57,26.83-.91,40.46-.24,9.48-.55,18.05-1.28,27.72-.66,8.77-.62,17.98-1.11,27.08-.27,4.98,2.89,12.99,5.9,20.94,1.7,4.49,3.33,8.96,4.1,12.81.46,2.3.63,4.34.22,5.98-.06.26-.05.45-.17.51-.17.1-.37.12-.57.17-.3.08-.61.16-.93.28-.82.3-1.68.79-2.54,1.85-.39.49-.67,1.17-.75,2.05-.07.76.01,1.76.18,2.9.26,1.81.74,4.08.82,6.34.07,1.88-.11,3.76-1.2,5.21-4.68,6.27-7.33,8.22-8.22,9.08-.76.74-.92,1.38-.94,1.83-.43,11.43.83,21.43.85,31.92.03,19.67,1.62,39.78,2.88,59.43.94,14.64.45,23.96.42,41.9,0,2.13.63,6.86,2.7,9.57.93,1.21,2.5,2.71,3.71,4.41.9,1.25,1.67,2.61,1.32,4.1-.03.12-.16.07-.28.08-.16.02-.33.02-.51.02-.84-.02-1.78-.19-2.67-.29-1.26-.14-2.45-.14-3.38.17-.96.32-1.71.91-2.19,1.87-.12.25-.28.74-.38,1.45-.14,1.01-.25,2.75-.33,5.01-.41,12.38.05,41.08-.38,49.33-.75,14.64,3.67,19.68,3.17,76.6-.15,16.59.92,41.25.9,57.87-.03,22.05-1.15,47.32-1.01,69.62.25,38.04,2.59,73.57,3.3,111.91.47,25.2-2.03,41.03-1.54,65.92.3,14.89.68,36.98,2.17,51.64.4,3.94-.17,6.37-.36,8.72-.23,2.73-.06,5.39,2.08,9.65.42.85,3.7,4.66,6.63,6.86,1.55,1.16,3.07,1.83,4.11,1.85,12.54.17,22.8,1.27,35.74,1.7,31.36,1.04,756.84-1.66,781.58-1.2,5.03.09,34.53-1,34.91-1.02.05,0,.1,0,.15-.01Zm-15-37.9h0c3.76-15.15,6.8-22.68,8.05-39.32,1.44-19.01,4.96-40.65,7.54-60.61,1.49-11.53,1.72-58.29,1.74-71.3.05-37.92-10.69-80.05-6.59-131.51,2.59-32.56,3.19-66.83,4.18-99.48.79-25.86-7.16-47.96-8.9-73.75-1.48-21.93-1.07-40.49-1.1-59.76-.01-6.94-2.01-25.89-2.97-34.69-.8.84-1.72,1.69-2.68,2.4-2.66,1.94-5.68,2.71-8.22.93-3.21-2.25-4.68-6.09-4.82-10.46-.18-5.94,2.14-12.85,4.99-17.11,1.39-2.07,2.94-3.53,4.37-4.17,1.39-.62,2.73-.61,3.96.04,1.07.57,1.99,1.55,2.99,3.03,1.77,2.6,4.08,6.98,10.3,12.68,1.13,1.04,2.1,1.69,2.96,2.02.54.2.98.26,1.37.13.88-.3,1.33-1.28,1.69-2.3.69-1.95.85-4.28.57-5.1-3.26-9.69-5.28-13.63-8.06-19.28-4.25-8.61-5.11-13.7-5.12-20.99,0-6.17-.49-18.78,1.7-29.26,2.93-13.98,5.11-26.82,5.08-47.08-.02-16.2,1.37-33.92.95-49.93-.39-15.26.24-52.89.07-60.43-.08-3.37,0-7.98-.96-12.19-.86-3.73-2.54-7.19-6.27-8.79-6.05-2.59-13.48-4.27-18.61-4.6-10.27-.67-18.09-1.32-27.19-1.45-22.62-.31-774.65-1.08-800.89-.32-9.14.26-14.02,5.72-16.99,11.1-1.69,3.05-4.16,8.64-4.68,12.64-.11.85-.13,1.6.01,2.21.04.17.07.32.18.42.09.08.22.06.36.06,3.73.04,11.55-.05,11.55-.05,1.08-.01,1.96.84,1.98,1.92,0,0,.19,10.19.16,18.03-.04,13.18-.57,26.89-.91,40.54-.24,9.55-.55,18.18-1.29,27.92-.65,8.75-.61,17.93-1.1,27-.12,2.11.53,4.84,1.48,7.89,1.55,4.95,3.96,10.66,5.87,16.06,2.29,6.46,3.77,12.52,2.75,16.53-.54,2.13-1.52,2.8-2.58,3.21-.34.14-.71.22-1.1.32-.36.09-.76.2-1.16.63-.01.15-.03.5-.01.76.05.84.23,1.86.42,2.99.67,4.09,1.23,9.28-1.39,12.78-3.91,5.23-6.49,7.62-7.86,8.85l-.54.49c-.36,11.12.85,20.9.87,31.14.03,19.59,1.61,39.61,2.87,59.18.95,14.73.45,24.1.43,42.16,0,1.59.35,5.16,1.89,7.19,1.16,1.52,3.27,3.48,4.57,5.71,1.09,1.88,1.66,3.93,1.16,6.06-.59,2.55-2.61,3.28-5.24,3.1-1.12-.08-2.37-.33-3.44-.36-.19,0-.45.03-.62.06-.07.68-.27,2.69-.34,4.76-.41,12.4.05,41.13-.38,49.4-.76,14.61,3.67,19.63,3.17,76.43-.14,16.58.92,41.23.9,57.84-.02,22.04-1.15,47.3-1.01,69.59.25,38.03,2.58,73.53,3.3,111.86.47,25.19-2.02,41.03-1.53,65.92.29,14.79.67,36.75,2.15,51.31.36,3.47.04,5.87-.21,8.02-.31,2.71-.51,4.93,1.53,8.99.29.59,2.37,2.87,4.43,4.64.68.59,1.36,1.12,1.99,1.49.34.21.62.41.87.42,12.57.17,22.86,1.27,35.82,1.7,31.36,1.04,756.78-1.66,781.53-1.21,3.19.06,16.3-.36,25.44-.68-1.72-1.66-3.1-4.23-4.08-7.35-2.73-8.68-2.69-21.67-1.38-26.95h0s0-.03,0-.03Zm3.36,3.42c-.6,4.77-.48,12.39.83,18.79.6,2.95,1.45,5.64,2.63,7.61.65,1.07,1.38,1.93,2.28,2.4,2.16,1.11,3.88,1.7,5.26,1.81h.32c.14-.02.27-.01.4,0,.65-.03,1.22-.19,1.72-.47,1.09-.61,1.7-1.79,2.12-3.11.53-1.67.73-3.61.8-5.42.34-8.18-.31-17.23-.6-20.69-1.42-.26-3.45-.6-4.05-.6-2.51,0-4.88.34-7.08.35-1.63,0-3.17-.17-4.63-.67Z"/>
    </g>
  </g>
</svg>