<?xml version="1.0" encoding="UTF-8"?>
<svg id="Ebene_2" data-name="Ebene 2" xmlns="http://www.w3.org/2000/svg" viewBox="0 0 56.25 112.5">
  <defs>
    <style>
      .cls-1 {
        fill: rgba(219, 212, 163, .05);
      }

      .cls-2 {
        fill: #dbd4a3;
      }

      .cls-3 {
        fill: #a49358;
        fill-rule: evenodd;
      }
    </style>
  </defs>
  <g id="Ebene_1-2" data-name="Ebene 1">
    <g id="Ebene9">
      <g id="Ebene283">
        <rect class="cls-1" y="0" width="56.25" height="112.5"/>
        <rect class="cls-2" x="20.13" width="16.03" height="112.5"/>
        <path class="cls-3" d="m21.67,39.86c-3.99,7.99-9.43,18.87-13.16,26.31-1.12,2.24-1,4.91.32,7.04,1.32,2.13,3.65,3.43,6.15,3.43h26.31c2.51,0,4.84-1.3,6.15-3.43,1.32-2.13,1.44-4.8.32-7.04-3.72-7.44-9.16-18.32-13.16-26.31-1.23-2.45-3.73-4-6.47-4s-5.25,1.55-6.47,4Zm2.52,1.26c.75-1.5,2.28-2.44,3.96-2.44s3.21.95,3.96,2.44c3.99,7.99,9.43,18.87,13.16,26.31.69,1.37.61,3-.19,4.3-.81,1.3-2.23,2.1-3.76,2.1H14.99c-1.53,0-2.96-.79-3.76-2.1-.81-1.3-.88-2.93-.19-4.3,3.72-7.45,9.16-18.32,13.16-26.31Z"/>
      </g>
    </g>
  </g>
</svg>