<?xml version="1.0" encoding="UTF-8"?>
<svg id="Ebene_2" data-name="Ebene 2" xmlns="http://www.w3.org/2000/svg" viewBox="0 0 49.22 49.22">
  <defs>
    <style>
      .cls-1 {
        fill: rgba(219, 212, 163, .05);
      }

      .cls-2 {
        fill: #8ca767;
        fill-rule: evenodd;
      }
    </style>
  </defs>
  <g id="Ebene_1-2" data-name="Ebene 1">
    <g id="Ebene9">
      <g id="Ebene20">
        <g id="Ebene2">
          <rect class="cls-1" width="49.22" height="49.22"/>
          <path class="cls-2" d="m45,14.97c0-5.88-4.79-10.66-10.71-10.66H14.92c-5.91,0-10.71,4.77-10.71,10.66v19.27c0,5.88,4.79,10.66,10.71,10.66h19.37c5.91,0,10.71-4.77,10.71-10.66V14.97Zm-2.81,0v19.27c0,4.34-3.54,7.85-7.89,7.85H14.92c-4.36,0-7.89-3.51-7.89-7.85V14.97c0-4.34,3.54-7.85,7.89-7.85h19.37c4.36,0,7.89,3.51,7.89,7.85Z"/>
          <g id="Ebene32">
            <path class="cls-2" d="m27.03,25.43c-.67-.27.45-2.85,1-4.69.77-2.58,2.03-6.2,3.12-9.09.69-1.84,3.12-2.73,5.53-1.54,1.87.92,3.53,3.29,2.4,5.58-1.59,3.22-2.72,5.41-4.31,8.23-.88,1.55-2.08,4.37-2.78,4-.25-.13-3.61-1.94-4.95-2.49Z"/>
            <path class="cls-2" d="m15.11,33.19c-1.27.23-2.35-2.08-.72-2.96,1.69-.91,2.87-1.67,4.59-1.99,2.19-.41,4.13-.4,6.85.38,2.67.76,4.73,1.85,6.61,3.88,1.33,1.44,2.5,2.87,2.73,4.55.17,1.19-1.4,2.41-2.54.67-.44-.66-1.03-1.45-2.06-2.53-1.51-1.59-4.02-2.97-5.51-3.47-1.45-.49-4.07-.53-5.58-.26-1.37.24-2.95,1.47-4.37,1.73Z"/>
            <path class="cls-2" d="m28.23,24.97c-.39.95-1.89,4.45-1.89,4.45l3.16,1.68,1.88-4.56s-4.09-2.04-3.15-1.57Z"/>
            <path class="cls-2" d="m13.95,38.52c-.97,0,.17-.99.83-1.44,1-.68,1.69-1.11,2.99-1.58.85-.3,2.3-.81,3.86-.78,1.3.03,3.11.29,4.13.67,1.05.39,2.84,1.35,3.67,2.19.94.94.71,1.02-.99,1-3.5-.04-6.2-.04-9.66-.02-1.79,0-3.61-.04-4.84-.04Z"/>
          </g>
        </g>
      </g>
    </g>
  </g>
</svg>