<?xml version="1.0" encoding="UTF-8"?>
<svg id="Ebene_2" data-name="Ebene 2" xmlns="http://www.w3.org/2000/svg" viewBox="0 0 56.25 112.5">
  <defs>
    <style>
      .cls-1 {
        fill: rgba(219, 212, 163, .05);
      }

      .cls-2 {
        fill: #71663d;
      }

      .cls-3 {
        fill: #1d1d1b;
      }

      .cls-3, .cls-4, .cls-5 {
        fill-rule: evenodd;
      }

      .cls-4 {
        fill: #a49358;
      }
    </style>
  </defs>
  <g id="Ebene_1-2" data-name="Ebene 1">
    <g id="Ebene91">
      <g id="Ebene24">
        <rect class="cls-1" width="56.25" height="112.5"/>
        <rect class="cls-2" x="20.1" y="0" width="16.06" height="112.5"/>
        <path class="cls-3" d="m25.49,42.53c.98-1.97,2.99-3.21,5.19-3.21s4.21,1.24,5.19,3.21c3.97,7.95,9.39,18.77,13.09,26.18.9,1.8.8,3.93-.25,5.64-1.06,1.71-2.92,2.75-4.93,2.75h-26.18c-2.01,0-3.88-1.04-4.93-2.75-1.06-1.71-1.15-3.84-.25-5.64,3.7-7.41,9.12-18.23,13.09-26.18Z"/>
        <path class="cls-4" d="m21.79,40.02c.98-1.97,2.99-3.21,5.19-3.21s4.21,1.24,5.19,3.21c3.97,7.95,9.39,18.77,13.09,26.18.9,1.8.8,3.93-.25,5.64-1.06,1.71-2.92,2.75-4.93,2.75H13.89c-2.01,0-3.88-1.04-4.93-2.75-1.06-1.71-1.15-3.84-.25-5.64,3.7-7.41,9.12-18.23,13.09-26.18Z"/>
        <path class="cls-5" d="m35.17,68.36c-.08-.02-.17-.06-.29-.09-.13-.03-.27-.05-.43-.07-.32-.04-.68-.09-1.06-.11-1.01-.06-2.11-.05-2.61-.09-1.16-.05-2.9-.07-4.27,0-.48.02-.91.05-1.26.08-.18.02-.36-.01-.47.06-.04.03-.02.04-.05.08-.13-.01-.22.1-.21.25s.12.29.24.3c.03.05.02.06.06.09.13.1.32.08.52.11.36.05.81.09,1.3.1,1.38.04,3.09-.05,4.24,0,.51.01,1.63.04,2.63-.03.38-.03.73-.07,1.04-.12.15-.02.29-.05.41-.08.11-.03.19-.07.27-.1.09,0,.14-.09.13-.2-.02-.11-.1-.19-.18-.19Z"/>
        <path class="cls-5" d="m43.9,69.63s.05.02.07.03c.16.03.26-.13.24-.36,0-.09-.06-.33-.31-.47-.05-.03-.16-.06-.31-.11-.19-.06-.45-.14-.78-.21-.49-.1-1.1-.2-1.76-.25-.32-.03-.66-.03-.98-.03-.51,0-1,.04-1.45.08-.23.02-.44.05-.64.09-.39.08-.7.19-.93.29-.12.02-.18.19-.13.38.05.19.19.32.31.3.27,0,.64.08,1.09.13.49.05,1.05.09,1.63.14.45.03.92.07,1.36.08.49.01.94,0,1.34-.02.55-.02.97-.06,1.18-.05.03,0,.07.02.07,0Zm-.23-.32c.02.07.05.14.1.2-.04-.06-.08-.12-.1-.2Z"/>
        <path class="cls-5" d="m33.54,46.2h0s0-.05,0-.05c.03.08.11.14.21.13.11-.01.19-.11.18-.22.01-.09-.1-.24-.4-.38-.39-.17-1.21-.32-2.19-.45-.18-.02-.36-.04-.54-.05-.35-.03-.72-.05-1.09-.06-.89-.02-1.79,0-2.54.05-.13,0-.25,0-.36.03-.22.05-.37.14-.54.2-.16,0-.28.13-.28.29,0,.16.14.28.29.27.17.06.32.14.52.18.07.01.15.01.22.01.86.04,1.95.09,2.99.11.46,0,.92,0,1.34,0,.86-.02,1.58-.06,1.99-.05.08,0,.18-.03.22-.03Zm0,0s.02,0,.02.02c0,.03-.01.01-.02-.02Z"/>
        <path class="cls-5" d="m27.61,51.09c-.63-.17-1.27-.33-1.94-.45-.97-.18-1.96-.29-2.95-.37-1.2-.09-2.38-.15-3.46-.04-.52.05-1.01.16-1.47.26-.22.04-.36.26-.32.5s.25.4.47.37c.45-.05.93-.06,1.43-.09,1.05-.07,2.19-.14,3.35-.12.96.02,1.94.09,2.9.18.66.06,1.31.13,1.93.22.12.02.23-.06.25-.19.02-.13-.06-.25-.18-.28Z"/>
        <path class="cls-3" d="m20.53,39.39c-3.97,7.95-9.39,18.77-13.09,26.18-1.12,2.23-1,4.89.32,7.01,1.31,2.12,3.63,3.42,6.13,3.42h26.18c2.5,0,4.82-1.29,6.13-3.42,1.31-2.12,1.43-4.78.32-7.01-3.7-7.41-9.12-18.23-13.09-26.18-1.22-2.44-3.72-3.98-6.45-3.98s-5.22,1.54-6.45,3.98Zm2.52,1.26c.74-1.49,2.27-2.43,3.93-2.43s3.19.94,3.93,2.43c3.97,7.95,9.39,18.77,13.09,26.18.68,1.36.61,2.98-.19,4.28-.8,1.29-2.21,2.08-3.74,2.08H13.89c-1.52,0-2.94-.79-3.74-2.08-.8-1.3-.87-2.91-.19-4.28,3.7-7.41,9.12-18.23,13.09-26.18Z"/>
      </g>
    </g>
  </g>
</svg>