<?xml version="1.0" encoding="UTF-8"?>
<svg id="Ebene_2" data-name="Ebene 2" xmlns="http://www.w3.org/2000/svg" viewBox="0 0 112.5 56.25">
  <defs>
    <style>
      .cls-1 {
        fill: rgba(219, 212, 163, .05);
      }

      .cls-2 {
        fill: #a49358;
      }

      .cls-3 {
        fill: #71663d;
      }

      .cls-4, .cls-5 {
        fill: #1d1d1b;
      }

      .cls-4, .cls-6 {
        fill-rule: evenodd;
      }
    </style>
  </defs>
  <g id="Ebene_1-2" data-name="Ebene 1">
    <g id="Ebene91">
      <g id="Ebene23">
        <rect class="cls-1" width="112.5" height="56.25"/>
        <rect class="cls-3" x="0" y="20.09" width="112.5" height="16.06"/>
        <circle class="cls-5" cx="59.9" cy="30.31" r="20.31"/>
        <circle class="cls-2" cx="56.21" cy="27.82" r="20.31"/>
        <path class="cls-6" d="m61.24,37.83c-.08-.02-.17-.06-.29-.09-.13-.03-.27-.05-.42-.07-.31-.04-.68-.09-1.05-.11-1-.06-2.1-.05-2.6-.09-1.15-.05-2.88-.07-4.25,0-.47.02-.9.05-1.25.08-.18.02-.36-.01-.47.06-.04.02-.02.04-.05.08-.12-.01-.22.1-.21.25s.12.28.24.3c.03.05.02.06.06.09.13.1.31.08.51.11.36.05.81.09,1.29.1,1.37.04,3.08-.05,4.22,0,.51.01,1.62.04,2.62-.03.37-.03.73-.07,1.03-.12.15-.02.29-.05.41-.08.11-.03.19-.07.27-.1.09,0,.14-.09.13-.2-.02-.11-.1-.19-.18-.19Z"/>
        <path class="cls-6" d="m72.68,39.41s.05.02.07.03c.16.03.26-.13.24-.36,0-.09-.06-.33-.3-.47-.05-.03-.16-.06-.31-.11-.19-.06-.45-.14-.77-.21-.49-.1-1.1-.2-1.75-.25-.32-.03-.65-.03-.98-.03-.5,0-1,.04-1.45.08-.23.02-.44.05-.64.09-.39.08-.7.19-.93.29-.12.02-.18.19-.13.37.05.19.19.32.31.3.27,0,.64.08,1.08.13.49.05,1.05.09,1.62.14.45.03.91.07,1.35.08.48.01.94,0,1.33-.02.55-.02.97-.06,1.18-.05.03,0,.07.02.07,0Zm-.23-.31c.02.07.04.14.1.2-.04-.06-.08-.12-.1-.2Z"/>
        <path class="cls-6" d="m61.05,18.05h0s0-.05,0-.05c.03.08.11.14.21.13.11-.01.19-.11.17-.21.01-.09-.1-.24-.4-.37-.38-.17-1.2-.32-2.18-.44-.18-.02-.36-.04-.54-.05-.35-.03-.72-.05-1.09-.06-.89-.02-1.78,0-2.53.05-.13,0-.25,0-.36.03-.22.05-.37.14-.54.2-.16,0-.28.13-.27.29,0,.16.13.28.29.27.17.06.32.14.52.18.07.01.15.01.22.01.86.03,1.94.09,2.97.11.46,0,.92,0,1.34,0,.86-.02,1.57-.06,1.98-.05.08,0,.17-.03.22-.03Zm0,0s.02,0,.02.02c0,.03-.01.01-.02-.02Z"/>
        <path class="cls-6" d="m49.53,17.09c-.62-.17-1.27-.33-1.93-.45-.96-.18-1.95-.29-2.93-.37-1.2-.09-2.37-.15-3.45-.04-.52.05-1,.16-1.46.26-.22.04-.36.26-.32.5s.25.4.46.37c.45-.05.92-.06,1.42-.09,1.05-.07,2.18-.14,3.34-.11.96.02,1.93.09,2.88.18.66.06,1.3.13,1.92.22.12.02.23-.06.25-.19.02-.13-.06-.25-.18-.27Z"/>
        <path class="cls-4" d="m56.21,6.12c-11.98,0-21.71,9.73-21.71,21.71s9.73,21.71,21.71,21.71,21.71-9.73,21.71-21.71-9.73-21.71-21.71-21.71Zm0,2.81c10.43,0,18.9,8.47,18.9,18.9s-8.47,18.9-18.9,18.9-18.9-8.47-18.9-18.9,8.47-18.9,18.9-18.9Z"/>
      </g>
    </g>
  </g>
</svg>