<?xml version="1.0" encoding="UTF-8"?>
<svg id="Ebene_2" data-name="Ebene 2" xmlns="http://www.w3.org/2000/svg" viewBox="0 0 56.25 112.5">
  <defs>
    <style>
      .cls-1 {
        fill: rgba(219, 212, 163, .05);
      }

      .cls-2 {
        fill: #dbd4a3;
      }

      .cls-3 {
        fill: #a49358;
        fill-rule: evenodd;
      }
    </style>
  </defs>
  <g id="Ebene_1-2" data-name="Ebene 1">
    <g id="Ebene9">
      <g id="Ebene29">
        <rect class="cls-1" width="56.25" height="112.5"/>
        <rect class="cls-2" x="20.1" y="0" width="16.06" height="112.5"/>
        <path class="cls-3" d="m48.23,43.73c0-5.81-4.73-10.52-10.57-10.52h-19.08c-5.84,0-10.57,4.71-10.57,10.52v18.99c0,5.81,4.73,10.52,10.57,10.52h19.08c5.84,0,10.57-4.71,10.57-10.52v-18.99Zm-2.81,0v18.99c0,4.26-3.47,7.71-7.75,7.71h-19.08c-4.28,0-7.75-3.45-7.75-7.71v-18.99c0-4.26,3.47-7.71,7.75-7.71h19.08c4.28,0,7.75,3.45,7.75,7.71Z"/>
      </g>
    </g>
  </g>
</svg>