<?xml version="1.0" encoding="UTF-8"?>
<svg id="Ebene_2" data-name="Ebene 2" xmlns="http://www.w3.org/2000/svg" viewBox="0 0 189.76 189.76">
  <defs>
    <style>
      .cls-1 {
        fill: #fcf09a;
      }

      .cls-1, .cls-2 {
        fill-rule: evenodd;
      }

      .cls-2 {
        fill: rgba(102, 153, 102, .5);
      }
    </style>
  </defs>
  <g id="Ebene_1-2" data-name="Ebene 1">
    <g id="Ebene9">
      <g id="Ebene6">
        <path class="cls-2" d="m94.88,0c52.42,0,94.88,42.57,94.88,94.88s-42.57,94.88-94.88,94.88S0,147.18,0,94.88C-.11,42.46,42.46,0,94.88,0Zm0,47.44c26.21,0,47.44,21.23,47.44,47.44s-21.23,47.44-47.44,47.44-47.44-21.23-47.44-47.44c-.11-26.21,21.23-47.44,47.44-47.44Z"/>
        <g id="Ebene13">
          <path class="cls-1" d="m71.44,115.08c-2.87,1.73-8.02-10.2-12.48-17.81-6.19-10.61-14.37-26.24-20.64-38.98-3.99-8.13.28-20,11.24-25.62,8.54-4.36,21.24-3.64,25.43,7.5,5.88,15.67,9.75,26.45,14.3,40.95,2.52,7.97,8.21,20.96,4.95,22.5-1.18.6-17.05,7.99-22.8,11.45Z"/>
          <path class="cls-1" d="m67.89,163.33c-4.56,4.06-13.8-2.51-9.21-10.08,4.73-7.83,7.83-13.82,13.97-19.41,7.82-7.09,15.56-11.86,28.04-15.47s22.79-4.3,34.61-.87c8.38,2.44,16.08,5.3,20.6,11.47,3.21,4.38-.39,13.12-8.65,9.01-3.13-1.57-7.18-3.23-13.61-5.04-9.41-2.63-22.37-1.93-29.32-.26-6.84,1.63-17.3,7.98-22.72,12.83-5,4.42-8.59,13.24-13.71,17.83Z"/>
          <path class="cls-1" d="m73.44,109.12c2,4.32,9.03,20.44,9.03,20.44l14.82-7-9.41-20.72s-18.73,9.45-14.44,7.28Z"/>
          <path class="cls-1" d="m83.43,164.24c-4.47-.04.79-4.57,3.79-6.67,4.62-3.16,7.79-5.17,13.72-7.31,3.87-1.41,10.55-3.76,17.71-3.59,5.97.13,14.27,1.33,18.97,3.12,4.82,1.84,13.04,6.28,16.88,10.13,4.31,4.36,3.24,4.75-4.51,4.62-16.05-.21-28.5-.17-44.35-.13-8.18.09-16.52-.13-22.21-.17Z"/>
        </g>
      </g>
    </g>
  </g>
</svg>