<?xml version="1.0" encoding="UTF-8"?>
<svg id="Ebene_2" data-name="Ebene 2" xmlns="http://www.w3.org/2000/svg" viewBox="0 0 183.09 183.17">
  <defs>
    <style>
      .cls-1 {
        fill: #fcf09a;
      }

      .cls-1, .cls-2 {
        fill-rule: evenodd;
      }

      .cls-2 {
        fill: rgba(102, 153, 102, .5);
      }
    </style>
  </defs>
  <g id="Ebene_1-2" data-name="Ebene 1">
    <g id="Ebene9">
      <g id="Ebene8">
        <path class="cls-2" d="m66.26,15.54c4.8-9.53,14.49-15.54,25.19-15.54s20.39,6.01,25.19,15.54c19.29,38.56,45.48,91.07,63.47,126.91,4.4,8.73,3.9,19.05-1.2,27.33-5.1,8.28-14.19,13.38-23.89,13.38H28.08c-9.8,0-18.79-5.1-23.89-13.38s-5.6-18.6-1.2-27.33C20.78,106.5,47.07,53.99,66.26,15.54Z"/>
        <g id="Ebene34">
          <path class="cls-1" d="m76.6,117.27c-3.11-1.27,2.09-13.27,4.64-21.9,3.57-12.01,9.45-28.93,14.49-42.38,3.23-8.57,14.49-12.69,25.64-7.19,8.67,4.3,16.4,15.34,11.15,26.03-7.39,15.02-12.6,25.21-20.02,38.37-4.07,7.25-9.67,20.38-12.89,18.66-1.19-.6-16.79-9.04-23.01-11.59Z"/>
          <path class="cls-1" d="m21.32,153.44c-5.89,1.06-10.9-9.69-3.34-13.78,7.8-4.24,13.31-7.76,21.3-9.28,10.16-1.91,19.16-1.85,31.77,1.8,12.34,3.57,21.95,8.66,30.68,18.08,6.19,6.68,11.59,13.37,12.66,21.19.76,5.56-6.48,11.21-11.78,3.13-2-3.07-4.77-6.72-9.54-11.79-7-7.41-18.67-13.85-25.53-16.19-6.74-2.31-18.86-2.47-25.88-1.21-6.44,1.12-13.74,6.84-20.33,8.05Z"/>
          <path class="cls-1" d="m82.17,115.09c-1.8,4.46-8.77,20.73-8.77,20.73l14.64,7.82,8.72-21.23s-18.9-9.48-14.59-7.32Z"/>
          <path class="cls-1" d="m15.94,178.26c-4.51-.04.8-4.6,3.83-6.7,4.67-3.18,7.87-5.2,13.86-7.35,3.91-1.42,10.66-3.78,17.89-3.61,6.03.13,14.42,1.33,19.17,3.14,4.87,1.85,13.18,6.32,17.06,10.19,4.35,4.38,3.28,4.77-4.55,4.64-16.22-.21-28.8-.17-44.82-.13-8.31.09-16.74-.13-22.45-.17Z"/>
        </g>
      </g>
    </g>
  </g>
</svg>