<?xml version="1.0" encoding="UTF-8"?>
<svg id="Ebene_2" data-name="Ebene 2" xmlns="http://www.w3.org/2000/svg" viewBox="0 0 189.76 189.76">
  <defs>
    <style>
      .cls-1 {
        fill: #fcf09a;
      }

      .cls-1, .cls-2 {
        fill-rule: evenodd;
      }

      .cls-2 {
        fill: rgba(102, 153, 102, .5);
      }
    </style>
  </defs>
  <g id="Ebene_1-2" data-name="Ebene 1">
    <g id="Ebene9">
      <g id="Ebene6">
        <path class="cls-2" d="m94.88,0c52.42,0,94.88,42.57,94.88,94.88s-42.57,94.88-94.88,94.88S0,147.18,0,94.88C-.11,42.46,42.46,0,94.88,0Zm0,47.44c26.21,0,47.44,21.23,47.44,47.44s-21.23,47.44-47.44,47.44-47.44-21.23-47.44-47.44,21.23-47.44,47.44-47.44Z"/>
        <g id="Ebene33">
          <path class="cls-1" d="m102,103.74c-3.11-1.27,2.09-13.27,4.64-21.9,3.57-12.01,9.45-28.93,14.49-42.38,3.23-8.57,14.49-12.69,25.64-7.19,8.67,4.3,16.4,15.34,11.15,26.03-7.39,15.02-12.6,25.21-20.02,38.37-4.07,7.25-9.67,20.38-12.89,18.66-1.19-.6-16.83-9.06-23.01-11.59Z"/>
          <path class="cls-1" d="m46.7,139.92c-5.89,1.06-10.9-9.69-3.34-13.78,7.8-4.24,13.31-7.76,21.3-9.28,10.16-1.91,19.16-1.85,31.77,1.8s21.95,8.66,30.68,18.08c6.19,6.68,11.59,13.37,12.66,21.19.76,5.56-6.48,11.21-11.78,3.13-2-3.07-4.77-6.72-9.54-11.79-7-7.41-18.67-13.85-25.53-16.19-6.74-2.31-18.86-2.47-25.88-1.21-6.44,1.12-13.74,6.84-20.33,8.05Z"/>
          <path class="cls-1" d="m107.56,101.6c-1.8,4.46-8.77,20.73-8.77,20.73l14.64,7.82,8.72-21.23s-18.93-9.5-14.59-7.32Z"/>
          <path class="cls-1" d="m41.32,164.74c-4.51-.04.8-4.6,3.83-6.7,4.67-3.18,7.87-5.2,13.86-7.35,3.91-1.42,10.66-3.78,17.89-3.61,6.03.13,14.42,1.33,19.17,3.14,4.87,1.85,13.18,6.32,17.06,10.19,4.35,4.38,3.28,4.77-4.55,4.64-16.22-.21-28.8-.17-44.82-.13-8.31.09-16.74-.13-22.45-.17Z"/>
        </g>
      </g>
    </g>
  </g>
</svg>