<?xml version="1.0" encoding="UTF-8"?>
<svg id="Ebene_2" data-name="Ebene 2" xmlns="http://www.w3.org/2000/svg" viewBox="0 0 176.19 178.86">
  <defs>
    <style>
      .cls-1 {
        fill: #fcf09a;
      }

      .cls-1, .cls-2 {
        fill-rule: evenodd;
      }

      .cls-2 {
        fill: rgba(102, 153, 102, .5);
      }
    </style>
  </defs>
  <g id="Ebene_1-2" data-name="Ebene 1">
    <g id="Ebene9">
      <g id="Ebene4">
        <path class="cls-2" d="m62.44,8.63c15.11-11.51,36.09-11.51,51.2,0,14.27,10.93,32,24.45,45.96,35.1,14.06,10.74,19.94,29.06,14.69,45.94-5.56,17.93-12.7,41.24-18.36,59.46-5.46,17.65-21.82,29.73-40.29,29.73h-55.09c-18.47,0-34.84-12.08-40.29-29.73-5.67-18.22-12.8-41.53-18.36-59.46-5.25-16.88.63-35.29,14.69-45.94,13.85-10.65,31.48-24.17,45.85-35.1Z"/>
        <g id="Ebene32">
          <path class="cls-1" d="m98.89,108.7c-3.11-1.27,2.09-13.27,4.64-21.9,3.57-12.01,9.45-28.93,14.49-42.38,3.23-8.57,14.49-12.69,25.64-7.19,8.67,4.3,16.4,15.34,11.15,26.03-7.39,15.02-12.6,25.21-20.02,38.37-4.07,7.25-9.67,20.38-12.89,18.66-1.16-.58-16.79-9.04-23.01-11.59Z"/>
          <path class="cls-1" d="m43.62,144.87c-5.89,1.06-10.9-9.69-3.34-13.78,7.8-4.24,13.31-7.76,21.3-9.28,10.16-1.91,19.16-1.85,31.77,1.8,12.34,3.57,21.95,8.66,30.68,18.08,6.19,6.68,11.59,13.37,12.66,21.19.76,5.56-6.48,11.21-11.78,3.13-2-3.07-4.77-6.72-9.54-11.79-7-7.41-18.67-13.85-25.53-16.19-6.74-2.31-18.86-2.47-25.88-1.21-6.44,1.12-13.74,6.84-20.33,8.05Z"/>
          <path class="cls-1" d="m104.44,106.55c-1.8,4.46-8.77,20.73-8.77,20.73l14.64,7.82,8.72-21.23s-18.9-9.48-14.59-7.32Z"/>
          <path class="cls-1" d="m38.19,169.73c-4.51-.04.8-4.6,3.83-6.7,4.67-3.18,7.87-5.2,13.86-7.35,3.91-1.42,10.66-3.78,17.89-3.61,6.03.13,14.42,1.33,19.17,3.14,4.87,1.85,13.18,6.32,17.06,10.19,4.35,4.38,3.28,4.77-4.55,4.64-16.22-.21-28.8-.17-44.82-.13-8.27.04-16.7-.13-22.45-.17Z"/>
        </g>
      </g>
    </g>
  </g>
</svg>