<?xml version="1.0" encoding="UTF-8"?>
<svg id="Ebene_2" data-name="Ebene 2" xmlns="http://www.w3.org/2000/svg" viewBox="0 0 337.4 323.1">
  <defs>
    <style>
      .cls-1 {
        fill: #353535;
      }

      .cls-1, .cls-2, .cls-3, .cls-4 {
        fill-rule: evenodd;
      }

      .cls-2 {
        stroke-width: 4.57px;
      }

      .cls-2, .cls-3 {
        fill: #8badac;
        stroke: #bed2d3;
        stroke-linecap: round;
        stroke-linejoin: round;
      }

      .cls-3 {
        stroke-width: 4.59px;
      }

      .cls-4 {
        fill: #537c7c;
      }
    </style>
  </defs>
  <g id="Ebene_1-2" data-name="Ebene 1">
    <g id="Ebene111">
      <path class="cls-4" d="m52.79,318.71c-1.2.7-24.2.9-35.3.6-2.5-.1-13.9.7-15.4-.8-.7-.7-.6-17.6-.7-22.8-.2-18,0-34.2-.2-51.4-.1-7.4-.6-39.8-.6-49.1,0-19.9,4.7-40.5,10.6-59.9,4.9-16.1,12.1-34.3,19-48.9,6.4-13.5,38.3-50.8,51.2-57.4C105.19,16.91,126.19.31,170.39.01c42.2-.4,59.4,11.2,74.6,20.1,16.5,9.6,38.5,25.5,43.3,31.7,10,12.8,16.4,22.2,21.9,32.5,6.8,12.6,18.4,36.1,20.6,50,3.6,22.5,6.6,47.4,6.3,68.9-.3,21.2-1.7,50-2.1,60.6-.6,14.3,1,42.1,0,48.2-.4,2.4-12.8,2.3-20,2.2-9.5,0-19.2-.3-28.5-.1-4.1.1-7.3.2-8.6.2-2.2-.1-4.7-3.1-6.5-4.5-2.2-1.6-3.4-1.4-4.6-3.7-1.5-3-.9-15.9-.9-19.4,0-4.4.5-34.6.2-45.8-.5-22.8.3-42.1-.1-65.7-.1-7.9-1.5-18.1-4.3-31-1.8-8.3-10.1-24.3-14.1-31.9-5.2-9.8-14.6-19.3-24.6-26.2-13.5-9.4-29.9-12.4-47.1-12.8-10.6-.3-39.3,4.1-48.8,8.3-35.4,15.7-45.9,54.6-52.9,75.2-4.9,14.5-3.9,64.3-3.9,73.5v54.5c0,5-1.1,23.8-.2,23.8.4.2-14.6,8.4-17.3,10.1Z"/>
      <g id="Ebene10">
        <path class="cls-3" d="m245.65,26.72c.42-1.01.4-2.2-.06-3.25s-1.29-1.82-2.26-2.22l-18.16-7.5c-.98-.4-2.22-.49-3.17-.02-1.06.42-1.81,1.29-2.23,2.3l-18.54,44.88c-.42,1.01-.4,2.2-.05,3.2.46,1.05,1.29,1.82,2.26,2.22l18.16,7.5c.98.4,2.22.49,3.17.02,1.06-.42,1.92-1.25,2.33-2.26l18.54-44.88Z"/>
        <path class="cls-3" d="m205.52,9.25c.12-1.09-.23-2.22-.97-3.1s-1.75-1.39-2.8-1.5l-19.54-2.1c-1.05-.11-2.27.16-3.05.87-.9.7-1.37,1.75-1.49,2.84l-5.18,48.28c-.12,1.09.23,2.22.85,3.09.73.88,1.75,1.39,2.8,1.5l19.54,2.1c1.05.11,2.27-.16,3.05-.87.9-.7,1.49-1.74,1.61-2.82l5.18-48.28Z"/>
        <path class="cls-3" d="m163.8,6.73c-.09-1.09-.65-2.14-1.54-2.86s-1.97-1.03-3.03-.94l-19.59,1.62c-1.06.09-2.2.58-2.83,1.43-.76.86-1.02,1.98-.93,3.07l4,48.39c.09,1.09.65,2.14,1.42,2.87.89.72,1.97,1.03,3.03.94l19.59-1.62c1.06-.09,2.2-.58,2.83-1.43.76-.86,1.13-1.99,1.04-3.08l-4-48.39Z"/>
        <path class="cls-3" d="m119.95,19.16c-.39-1.02-1.22-1.87-2.28-2.32s-2.19-.44-3.17-.06l-18.34,7.06c-.99.38-1.94,1.17-2.32,2.17-.48,1.04-.42,2.18-.03,3.2l17.44,45.32c.39,1.02,1.22,1.87,2.17,2.36,1.05.45,2.19.44,3.17.06l18.34-7.06c.99-.38,1.94-1.17,2.32-2.17.48-1.04.53-2.23.14-3.25l-17.44-45.32Z"/>
        <path class="cls-3" d="m79.12,40.02c-.72-.82-1.79-1.34-2.93-1.4s-2.2.34-3,1.03l-14.84,12.89c-.8.69-1.43,1.77-1.44,2.83-.1,1.14.35,2.2,1.07,3.02l31.85,36.66c.72.82,1.79,1.34,2.84,1.48,1.14.06,2.2-.34,3-1.03l14.84-12.89c.8-.69,1.43-1.77,1.44-2.83.1-1.14-.26-2.27-.98-3.1l-31.85-36.66Z"/>
        <path class="cls-2" d="m48.51,70.95c-.91-.63-2.09-.86-3.22-.64s-2.06.87-2.66,1.75c-2.99,4.37-8.11,11.85-11.1,16.22-.6.87-.93,2.07-.66,3.11.2,1.13.91,2.05,1.83,2.68l40.71,27.85c.91.63,2.09.86,3.16.73,1.13-.23,2.06-.87,2.66-1.75,2.99-4.37,8.11-11.85,11.1-16.22.6-.87.93-2.07.66-3.11-.2-1.13-.85-2.15-1.76-2.77l-40.71-27.85Z"/>
        <path class="cls-3" d="m29.56,107.32c-.98-.47-2.17-.52-3.25-.12s-1.89,1.18-2.35,2.14l-8.51,17.72c-.46.95-.61,2.19-.2,3.17.36,1.09,1.19,1.88,2.18,2.35l43.77,21.03c.98.47,2.17.52,3.19.23,1.07-.4,1.89-1.18,2.35-2.14l8.51-17.72c.46-.95.61-2.19.2-3.17-.36-1.09-1.14-1.98-2.12-2.46l-43.77-21.03Z"/>
        <path class="cls-3" d="m12.97,148.53c-1.07-.21-2.23.04-3.17.69s-1.54,1.62-1.74,2.65l-3.82,19.28c-.21,1.04-.05,2.27.6,3.12.62.96,1.62,1.52,2.69,1.73l47.63,9.45c1.07.21,2.23-.04,3.15-.57.94-.65,1.54-1.62,1.74-2.65l3.82-19.28c.21-1.04.05-2.27-.6-3.12-.62-.96-1.6-1.64-2.67-1.85l-47.63-9.45Z"/>
        <path class="cls-3" d="m6.6,189.3c-1.09,0-2.19.46-2.99,1.28s-1.2,1.88-1.21,2.94l-.11,19.65c0,1.06.38,2.24,1.18,2.95.79.83,1.88,1.19,2.97,1.19l48.56.27c1.09,0,2.19-.46,2.99-1.16.8-.82,1.2-1.88,1.21-2.94l.11-19.65c0-1.06-.38-2.24-1.18-2.95-.79-.83-1.88-1.3-2.97-1.31l-48.56-.27Z"/>
        <path class="cls-3" d="m6.58,222.67c-1.09,0-2.19.47-2.98,1.29s-1.2,1.88-1.2,2.94c-.01,5.3-.03,14.36-.05,19.65,0,1.06.39,2.24,1.18,2.95.79.83,1.88,1.18,2.98,1.18l48.56.12c1.09,0,2.19-.47,2.98-1.17.8-.82,1.2-1.88,1.2-2.94l.05-19.65c0-1.06-.39-2.24-1.18-2.95-.79-.83-1.88-1.3-2.98-1.3l-48.56-.12Z"/>
        <path class="cls-3" d="m6.64,256.04c-1.09,0-2.18.47-2.98,1.3s-1.19,1.88-1.19,2.94v19.65c.01,1.06.41,2.24,1.21,2.94.79.82,1.89,1.18,2.98,1.17l48.56-.03c1.09,0,2.18-.47,2.98-1.18.79-.82,1.19-1.88,1.19-2.94v-19.65c-.01-1.06-.41-2.24-1.21-2.94-.79-.82-1.89-1.29-2.98-1.29l-48.56.03Z"/>
        <path class="cls-3" d="m6.74,289.41c-1.09,0-2.18.48-2.97,1.31s-1.18,1.89-1.18,2.95c.02,5.3.05,14.36.07,19.65,0,1.06.41,2.23,1.2,2.94.8.82,1.89,1.17,2.98,1.17l48.56-.18c1.09,0,2.18-.48,2.97-1.19.79-.83,1.18-1.89,1.18-2.95l-.07-19.65c0-1.06-.41-2.23-1.2-2.94-.8-.82-1.89-1.29-2.98-1.28l-48.56.18Z"/>
        <path class="cls-3" d="m279.56,284.43c-1.09,0-2.18.49-2.97,1.31s-1.18,1.89-1.17,2.95l.13,19.65c0,1.06.41,2.23,1.21,2.93.8.82,1.89,1.16,2.99,1.16l48.56-.33c1.09,0,2.18-.49,2.97-1.2.79-.83,1.18-1.89,1.17-2.95l-.13-19.65c0-1.06-.41-2.23-1.21-2.93-.8-.82-1.9-1.28-2.99-1.27l-48.56.33Z"/>
        <path class="cls-3" d="m279.55,253.34c-1.09,0-2.18.49-2.97,1.31s-1.18,1.89-1.17,2.95l.13,19.65c0,1.06.41,2.23,1.21,2.93.8.82,1.89,1.16,2.99,1.16l48.56-.33c1.09,0,2.18-.49,2.97-1.2.79-.83,1.18-1.89,1.17-2.95l-.13-19.65c0-1.06-.41-2.23-1.21-2.93-.8-.82-1.9-1.28-2.99-1.27l-48.56.33Z"/>
        <path class="cls-3" d="m279.54,222.37c-1.09,0-2.18.49-2.97,1.31s-1.18,1.89-1.17,2.95l.13,19.65c0,1.06.41,2.23,1.21,2.93.8.82,1.89,1.16,2.99,1.16l48.56-.33c1.09,0,2.18-.49,2.97-1.2.79-.83,1.18-1.89,1.17-2.95l-.13-19.65c0-1.06-.41-2.23-1.21-2.93-.8-.82-1.9-1.28-2.99-1.27l-48.56.33Z"/>
        <path class="cls-3" d="m282.14,189.4c-1.09,0-2.18.49-2.97,1.31s-1.18,1.89-1.17,2.95l.13,19.65c0,1.06.41,2.23,1.21,2.93.8.82,1.89,1.16,2.99,1.16l48.56-.33c1.09,0,2.18-.49,2.97-1.2.79-.83,1.18-1.89,1.17-2.95l-.13-19.65c0-1.06-.41-2.23-1.21-2.93-.8-.82-1.9-1.28-2.99-1.27l-48.56.33Z"/>
        <path class="cls-3" d="m278.78,158.24c-1.07.2-2.06.87-2.69,1.83s-.82,2.07-.62,3.11l3.66,19.31c.2,1.04.81,2.12,1.72,2.67.93.66,2.07.81,3.15.6l47.71-9.03c1.07-.2,2.06-.87,2.71-1.71.63-.96.82-2.07.62-3.11l-3.66-19.31c-.2-1.04-.81-2.12-1.72-2.67-.93-.66-2.09-.92-3.17-.72l-47.71,9.03Z"/>
        <path class="cls-3" d="m269.45,127.78c-1,.44-1.8,1.32-2.19,2.39-.39,1.08-.32,2.21.11,3.17l8,17.95c.43.97,1.27,1.88,2.29,2.2,1.06.43,2.2.31,3.2-.14l44.36-19.76c1-.44,1.8-1.32,2.24-2.29.39-1.08.32-2.2-.11-3.17l-8-17.95c-.43-.97-1.27-1.88-2.29-2.2-1.06-.43-2.25-.41-3.25.03l-44.36,19.76Z"/>
        <path class="cls-3" d="m252.55,100.54c-.9.62-1.54,1.62-1.73,2.75-.19,1.13.08,2.23.67,3.1l11.07,16.24c.6.88,1.59,1.62,2.64,1.76,1.12.23,2.22-.09,3.12-.71l40.13-27.35c.9-.62,1.54-1.62,1.8-2.65.19-1.13-.08-2.23-.67-3.1l-11.07-16.24c-.6-.88-1.59-1.62-2.64-1.76-1.12-.23-2.29,0-3.19.61l-40.13,27.35Z"/>
        <path class="cls-3" d="m232.29,73.7c-.78.77-1.23,1.87-1.22,3.01.01,1.14.47,2.18,1.21,2.93l13.78,14.01c.74.75,1.85,1.32,2.91,1.26,1.14.03,2.17-.48,2.95-1.25l34.61-34.06c.78-.77,1.23-1.87,1.3-2.93-.01-1.14-.47-2.18-1.21-2.93l-13.78-14.01c-.74-.75-1.85-1.32-2.91-1.26-1.14-.03-2.25.4-3.03,1.17l-34.61,34.06Z"/>
      </g>
      <path class="cls-1" d="m50.38,51.78c-.1,4.5-.7,18.1-.6,23.6.1,9.8-.3,63-.3,81.5,0,8.8.6,58.5.6,74.6,0,20.2-.2,36.5-.2,56.7,0,6.8-.1,16.7,0,23.6,0,4.6-.3,11.8,1.4,11.3,3.9-1,13.7-7,16.1-8.4,1.8-1,3.9-1.8,3.9-3.8.2-12.3.6-34.1.6-46.3,0-31-.4-63.9-.4-95,0-12.2-.6-29.6-1.6-40.4-1.3-13.6-2.7-24.7-3.9-33.7-.6-4.7-3.9-22.2-5.8-27.9-1.8-5.3-3.8-11.7-6-16.8-1.1-2.2-3.8-1.4-3.8,1Z"/>
      <path class="cls-1" d="m286.37,47.85c.1,4.5.7,18.1.6,23.6-.1,9.8.3,63,.3,81.5,0,8.8-.6,58.5-.6,74.6,0,20.2.2,36.5.2,56.7,0,6.8.1,16.7,0,23.6,0,4.6.3,11.8-1.4,11.3-3.9-1-13.7-7-16.1-8.4-1.8-1-3.9-1.8-3.9-3.8-.2-12.3-.6-34.1-.6-46.3,0-31,.4-63.9.4-95,0-12.2.6-29.6,1.6-40.4,1.3-13.6,2.7-24.7,3.9-33.7.6-4.7,3.9-22.2,5.8-27.9,1.8-5.3,3.8-11.7,6-16.8,1.1-2.2,3.8-1.4,3.8,1Z"/>
    </g>
  </g>
</svg>