<?xml version="1.0" encoding="UTF-8" standalone="no"?>
<!DOCTYPE svg PUBLIC "-//W3C//DTD SVG 1.1//EN" "http://www.w3.org/Graphics/SVG/1.1/DTD/svg11.dtd">
<svg width="100%" height="100%" viewBox="0 0 293 345" version="1.1" xmlns="http://www.w3.org/2000/svg" xmlns:xlink="http://www.w3.org/1999/xlink" xml:space="preserve" xmlns:serif="http://www.serif.com/" style="fill-rule:evenodd;clip-rule:evenodd;stroke-linejoin:round;stroke-miterlimit:2;">
    <g transform="matrix(1,0,0,1,-788.491,-281.255)">
        <g id="Ebene3">
            <path d="M820.024,491.514C814.667,497.509 810.463,505.883 808.665,511.12C806.479,517.487 801.167,532.318 799.416,537.531C797.529,543.145 800.497,550.455 802.301,555.945C805.616,566.039 811.655,571.452 812.317,581.356C812.558,584.958 812.121,590.125 811.459,593.167C809.689,601.308 810.483,598.575 808.73,605.566C807.685,609.73 813.909,620.624 826.783,623.151C839.874,625.721 886.211,615.689 899.543,615.689C937.49,615.689 944.347,620.264 982.295,620.264C994.018,620.264 1065.5,616.996 1062.91,602.449C1062.15,598.123 1060.46,588.246 1060.2,582.915C1059.98,578.123 1062.7,572.807 1066.96,565.384C1068.52,562.687 1070.65,556.178 1072.66,549.414C1074.59,542.963 1074.03,538.77 1070.22,527.562C1069.07,524.184 1066.01,514.826 1064.27,511.136C1062.24,506.811 1058.49,495.35 1053.12,494.198C1043.44,492.124 992.245,481.659 981.047,481.228C946.232,479.889 912.86,480.387 878.296,483.483C846.542,486.327 828.884,481.598 820.024,491.514Z" style="fill:rgb(87,63,47);"/>
            <path d="M818.532,490.182C812.988,496.386 808.634,505.05 806.773,510.471C804.586,516.841 799.272,531.679 797.52,536.894C796.667,539.433 796.655,542.277 797.123,545.176C797.76,549.125 799.289,553.185 800.4,556.569C802.096,561.732 804.477,565.704 806.53,569.646C808.413,573.26 810.011,576.844 810.321,581.489C810.551,584.921 810.135,589.844 809.505,592.742C807.743,600.842 808.534,598.123 806.79,605.08C806.396,606.649 806.701,609.003 807.93,611.583C810.407,616.781 816.618,623.194 826.397,625.113C831.758,626.166 842.565,625.21 854.475,623.617C871.826,621.296 891.59,617.689 899.543,617.689C937.49,617.689 944.347,622.264 982.295,622.264C990.569,622.264 1028.37,620.635 1049.4,614.635C1055.14,613.001 1059.67,610.996 1062.22,608.698C1064.4,606.727 1065.31,604.497 1064.88,602.099C1064.12,597.829 1062.45,588.082 1062.2,582.821C1061.99,578.312 1064.68,573.364 1068.7,566.381C1070.29,563.61 1072.51,556.933 1074.58,549.985C1076.61,543.179 1076.13,538.744 1072.12,526.918C1070.95,523.497 1067.84,514.021 1066.08,510.284C1064.84,507.645 1062.96,502.399 1060.49,498.366C1058.53,495.186 1056.12,492.797 1053.54,492.243C1043.81,490.159 992.375,479.663 981.124,479.23C946.222,477.887 912.768,478.387 878.117,481.491C859.052,483.199 845.065,482.18 835.01,483.233C827.726,483.997 822.386,485.868 818.532,490.181L818.532,490.182ZM821.515,492.847C824.75,489.227 829.313,487.852 835.427,487.212C845.467,486.159 859.435,487.18 878.474,485.475C912.953,482.387 946.242,481.891 980.97,483.227C992.116,483.656 1043.07,494.09 1052.7,496.154C1054.41,496.521 1055.78,498.351 1057.08,500.459C1059.47,504.356 1061.26,509.437 1062.46,511.988C1064.17,515.63 1067.19,524.871 1068.33,528.205C1071.93,538.798 1072.56,542.747 1070.75,548.843C1068.79,555.422 1066.74,561.764 1065.23,564.387C1060.71,572.25 1057.97,577.933 1058.21,583.01C1058.46,588.41 1060.17,598.417 1060.95,602.799C1061.21,604.285 1060.1,605.45 1058.4,606.608C1056.05,608.216 1052.53,609.584 1048.31,610.789C1027.61,616.69 990.433,618.264 982.295,618.264C944.347,618.264 937.49,613.689 899.543,613.689C891.497,613.689 871.499,617.305 853.945,619.652C842.584,621.171 832.281,622.192 827.168,621.188C820.077,619.796 815.172,615.659 812.599,611.731C811.121,609.475 810.339,607.369 810.67,606.053C812.432,599.027 811.634,601.773 813.414,593.592C814.106,590.406 814.565,584.995 814.313,581.222C813.961,575.964 812.209,571.889 810.078,567.798C808.117,564.033 805.82,560.252 804.201,555.321C803.317,552.629 802.142,549.494 801.425,546.341C800.779,543.501 800.478,540.648 801.311,538.168C803.062,532.957 808.372,518.133 810.557,511.769C812.292,506.715 816.345,498.633 821.515,492.847L821.515,492.847Z"/>
            <path d="M1070.46,442.479C1073.79,438.905 1074.83,443.576 1076.12,446.743C1077.7,450.594 1077.48,457.539 1076.81,460.253C1075.77,464.411 1073.64,471.832 1071.97,475.717C1066.48,488.523 1059.6,504.593 1052.8,513.96C1050.54,517.076 1045.11,524.716 1041.19,523.958C1035.56,522.868 1041,512.126 1042.99,507.657C1043.76,505.926 1050.17,491.11 1052.01,485.587C1055.04,476.5 1061.53,455.913 1061.94,454.664C1063.24,450.777 1067.81,445.319 1070.46,442.479Z" style="fill:rgb(221,182,135);"/>
            <path d="M1069,441.114C1066.19,444.117 1061.42,449.922 1060.05,454.031C1059.63,455.28 1053.14,475.868 1050.11,484.954C1048.29,490.433 1041.92,505.128 1041.16,506.845C1039.67,510.183 1036.5,516.839 1036.72,520.909C1036.87,523.546 1038.09,525.394 1040.81,525.921C1042.44,526.238 1044.31,525.655 1046.15,524.354C1049.4,522.051 1052.74,517.437 1054.41,515.135C1061.28,505.671 1068.26,489.443 1073.81,476.505C1075.51,472.543 1077.69,464.978 1078.75,460.738C1079.49,457.775 1079.7,450.191 1077.97,445.986C1077.26,444.245 1076.58,442.111 1075.65,440.883C1074.79,439.735 1073.72,439.161 1072.52,439.193C1071.57,439.217 1070.35,439.664 1069,441.114ZM1072.47,443.362C1072.65,443.654 1072.95,444.153 1073.12,444.539C1073.53,445.487 1073.89,446.561 1074.27,447.501C1075.7,450.997 1075.48,457.304 1074.87,459.768C1073.85,463.844 1071.77,471.12 1070.13,474.929C1064.7,487.602 1057.91,503.516 1051.18,512.786C1049.88,514.575 1047.5,517.933 1044.99,520.169C1044.26,520.813 1043.53,521.361 1042.82,521.706C1042.38,521.917 1041.96,522.071 1041.57,521.994C1040.99,521.883 1040.79,521.445 1040.73,520.906C1040.68,520.428 1040.72,519.893 1040.8,519.322C1041.32,515.733 1043.68,511.03 1044.81,508.469C1045.59,506.724 1052.05,491.787 1053.91,486.219C1056.94,477.133 1063.43,456.545 1063.84,455.296C1065.06,451.631 1069.42,446.521 1071.92,443.843C1072.09,443.666 1072.3,443.488 1072.47,443.362Z"/>
            <path d="M801.381,444.582C798.379,441.513 795.96,445.445 795.698,449.232C794.976,459.677 801.493,477.274 806.629,489.177C808.691,493.954 810.079,498.798 812.472,502.687C813.979,505.135 816.066,507.299 817.488,509.858C819.538,513.547 822.24,516.766 825.031,520.041C827.907,523.416 830.987,523.417 833.591,522.043C838.03,519.701 830.957,515.212 829.506,511.22C827.743,506.372 824.554,501.855 823.164,496.99C820.838,488.847 817.585,481.245 815.401,473.055C813.531,466.04 810.987,459.128 808.607,451.684C808.34,450.848 802.537,445.764 801.381,444.582Z" style="fill:rgb(221,182,135);"/>
            <path d="M802.811,443.184C801.284,441.622 799.775,441.305 798.497,441.554C797.328,441.781 796.234,442.557 795.398,443.79C794.47,445.158 793.838,447.137 793.703,449.094C792.964,459.776 799.54,477.796 804.793,489.969C806.895,494.84 808.329,499.77 810.769,503.736C812.26,506.159 814.332,508.296 815.74,510.83C817.853,514.634 820.63,517.961 823.509,521.338C825.324,523.468 827.238,524.478 829.074,524.794C830.97,525.12 832.828,524.707 834.525,523.812C835.767,523.156 836.429,522.341 836.763,521.512C837.252,520.299 837.067,518.887 836.235,517.397C835.579,516.22 834.483,514.928 833.421,513.617C832.586,512.586 831.755,511.553 831.386,510.537C829.638,505.732 826.465,501.262 825.087,496.441C822.764,488.309 819.515,480.719 817.334,472.539C815.455,465.494 812.902,458.551 810.512,451.075C810.419,450.786 810.039,450.133 809.322,449.369C807.655,447.594 803.74,444.133 802.811,443.184ZM806.776,452.523C809.124,459.848 811.626,466.659 813.469,473.57C815.656,481.772 818.911,489.385 821.241,497.54C822.644,502.448 825.847,507.012 827.626,511.904C828.272,513.678 829.868,515.574 831.294,517.337C831.809,517.974 832.292,518.591 832.647,519.181C832.776,519.396 832.886,519.604 832.963,519.806C832.986,519.868 833.009,519.962 833.022,520.024C832.947,520.084 832.791,520.204 832.658,520.274C831.751,520.753 830.767,521.026 829.752,520.852C828.678,520.667 827.615,519.989 826.553,518.743C823.849,515.571 821.222,512.46 819.237,508.887C817.8,506.301 815.697,504.112 814.176,501.639C811.829,497.826 810.487,493.069 808.466,488.384C803.446,476.751 796.987,459.578 797.693,449.37C797.755,448.466 797.968,447.551 798.305,446.779C798.465,446.416 798.649,446.087 798.867,445.821C798.993,445.668 799.092,445.5 799.258,445.481C799.494,445.454 799.674,445.697 799.951,445.98C800.962,447.013 805.608,451.078 806.776,452.523Z"/>
            <path d="M809.348,454.467C810.082,457.798 811.74,464.208 812.385,466.468C814.693,474.546 816.8,483.074 820.242,490.722C822.218,495.115 823.999,500.223 825.688,504.728C827.186,508.723 829.211,513.652 830.704,517.534C832.162,521.325 833.768,526.366 835.957,529.886C838.916,534.646 842.345,540.017 847.638,544.736C858.427,554.355 862.984,559.213 873.516,565.994C885.56,573.748 893.644,578.073 907.601,582.546C915.971,585.23 927.848,587.107 936.575,586.866C944.816,586.638 951.976,585.305 959.496,583.572C964.251,582.476 982.228,574.363 987.193,571.329C997.414,565.083 1006.9,559.825 1016.06,551.295C1021.59,546.138 1025.05,543.263 1027.3,540.305C1030.67,535.882 1035.23,530.454 1038.21,522.192C1042.75,509.594 1047.38,498.942 1051.47,486.7C1054.18,478.593 1057.01,473.219 1059.24,465.578C1060.34,461.798 1065.06,449.851 1067.04,440.022C1068.37,433.424 1063.49,406.731 1056.58,401.059C1040.89,388.161 1021.7,383.924 1002.09,379.94C988.75,377.231 947.471,372.04 923.648,372.775C914.016,373.072 842.731,386.821 823.522,405.019C819.01,409.294 805.069,433.563 805.545,438.323C806.049,443.355 808.387,450.106 809.348,454.467Z" style="fill:rgb(219,196,168);"/>
            <path d="M807.395,454.897C808.136,458.262 809.81,464.735 810.462,467.017C812.796,475.187 814.937,483.808 818.418,491.543C820.378,495.899 822.141,500.963 823.816,505.43C825.316,509.43 827.342,514.365 828.837,518.252C830.336,522.15 832.008,527.323 834.258,530.942C837.307,535.846 840.854,541.368 846.307,546.229C857.197,555.938 861.803,560.831 872.434,567.676C884.643,575.536 892.841,579.916 906.99,584.451C915.553,587.196 927.703,589.112 936.63,588.865C945.013,588.633 952.296,587.283 959.946,585.521C964.801,584.402 983.165,576.134 988.236,573.036C998.574,566.718 1008.16,561.386 1017.42,552.758C1023.08,547.49 1026.59,544.538 1028.89,541.517C1032.36,536.967 1037.03,531.369 1040.09,522.871C1044.63,510.256 1049.28,499.591 1053.37,487.333C1056.08,479.198 1058.92,473.805 1061.16,466.137C1062.27,462.333 1067.01,450.308 1069,440.417C1069.83,436.307 1068.42,424.676 1065.55,414.767C1063.57,407.933 1060.82,401.95 1057.85,399.514C1041.9,386.404 1022.42,382.029 1002.49,377.98C989.07,375.255 947.549,370.036 923.586,370.776C917.756,370.956 889.529,375.994 863.7,383.982C846.287,389.368 829.985,396.141 822.147,403.567C818.907,406.636 810.881,419.724 806.553,428.992C804.533,433.32 803.396,436.927 803.555,438.522C804.066,443.625 806.42,450.475 807.395,454.897ZM811.301,454.037C810.354,449.737 808.032,443.085 807.536,438.124C807.496,437.728 807.653,437.145 807.873,436.406C808.326,434.881 809.142,432.902 810.178,430.684C814.289,421.879 821.82,409.387 824.898,406.471C832.427,399.338 848.156,392.977 864.882,387.804C890.26,379.955 917.981,374.951 923.71,374.774C947.393,374.043 988.43,379.207 1001.69,381.9C1020.98,385.818 1039.87,389.919 1055.31,402.604C1057.87,404.706 1060,409.987 1061.71,415.881C1064.37,425.065 1065.85,435.819 1065.08,439.628C1063.12,449.394 1058.41,461.263 1057.32,465.019C1055.1,472.634 1052.27,477.987 1049.57,486.066C1045.49,498.293 1040.86,508.932 1036.33,521.514C1033.43,529.538 1028.98,534.797 1025.71,539.093C1023.5,541.987 1020.11,544.786 1014.7,549.832C1005.65,558.264 996.254,563.448 986.15,569.623C981.29,572.593 963.701,580.551 959.047,581.623C951.655,583.326 944.619,584.642 936.519,584.867C927.993,585.102 916.39,583.263 908.211,580.642C894.446,576.23 886.477,571.959 874.599,564.312C864.164,557.594 859.658,552.773 848.969,543.243C843.836,538.667 840.525,533.447 837.655,528.83C835.528,525.409 833.988,520.501 832.571,516.816C831.079,512.939 829.057,508.016 827.561,504.026C825.857,499.482 824.059,494.332 822.065,489.902C818.663,482.34 816.59,473.905 814.308,465.918C813.669,463.681 812.028,457.335 811.301,454.037Z"/>
            <g transform="matrix(1,0,0,1,-1.53844,4.72404)">
                <path d="M804.238,445.18C801.744,442.506 799.145,437.361 796.625,434.139C794.177,431.009 794.317,427.989 795.054,424.792C795.633,422.282 796.987,416.922 797.94,413.43C798.856,410.076 798.689,408.486 798.678,406.01C798.645,398.534 798.103,385.064 799.651,378.726C802.959,365.185 807.056,346.716 813.049,339.376C834.197,313.469 855.494,304.86 878.931,293.759C895.702,285.815 917.309,283.504 937.024,283.26C951.69,283.078 981.917,288.433 995.979,294.427C1006.92,299.09 1016.97,304.686 1026.86,310.248C1030.75,312.437 1051.68,329.421 1059.21,341.063C1064.24,348.843 1069.09,357.463 1071.25,363.458C1074.02,371.187 1077.51,379.481 1077.48,387.64C1077.45,397.891 1076.96,405.871 1076.83,411.648C1076.8,413.478 1077.9,418.258 1078.93,422.09C1079.83,425.448 1079.39,430.36 1077.55,433.364C1075.88,436.077 1074.13,438.494 1072.29,441.164C1069.43,445.287 1067.37,446.502 1064.21,449.674C1062.78,451.114 1060.5,453.356 1057.86,455.613C1055.82,457.355 1053.64,455.737 1051.33,453.987C1045.08,449.255 1044.75,447.3 1043.45,440.31C1042.93,437.473 1041.83,432.481 1041.73,428.453C1041.56,421.753 1041.29,421.809 1038.61,423.472C1038.06,423.81 1034.12,425.673 1031.26,426.974C1028.83,428.081 1023.15,429.401 1020.37,430.133C1014,431.81 1013.83,431.342 1009.9,428.89C1008.69,428.131 1003.09,425.023 1001.17,423.896C998.994,422.615 996.558,421.179 994.419,420.012C992.756,419.105 990.165,416.54 987.17,417.209C983.427,418.045 980.447,418.612 977.315,419.395C970.017,421.22 963.209,424.761 955.437,424.543C951.029,424.42 945.993,423.936 942.821,423.143C939.547,422.325 935.987,421.572 932.393,421.523C926.402,421.442 926.612,422.968 920.124,424.027C919.012,424.208 910.007,424.732 908.071,424.468C899.576,423.307 898.246,420.894 889.662,418.97C884.387,417.788 879.414,416.557 876.982,417.908C871.924,420.718 867.536,423.305 862.19,426.51C859.703,428.001 854.083,431.604 852.28,431.118C850.439,430.622 847.817,429.971 844.848,429.054C843.014,428.487 841.172,428.132 838.27,426.951C835.719,425.913 831.705,424.019 828.323,422.235C826.458,421.251 827.436,427.973 827.328,429.859C826.962,436.222 825.937,437.876 825.026,443.84C824.397,447.961 822.794,449.306 820.105,451.884C816.365,455.468 819.517,458.284 816.615,456.12C810.662,451.681 806.663,447.779 804.238,445.18Z" style="fill:rgb(87,63,47);"/>
            </g>
            <path d="M800.148,444.915C797.654,442.242 795.054,437.096 792.534,433.874C790.086,430.744 790.226,427.724 790.964,424.528C791.543,422.017 792.896,416.658 793.849,413.166C794.765,409.811 794.598,408.221 794.587,405.745C794.554,398.269 794.012,384.8 795.561,378.461C798.869,364.92 807.056,346.716 813.049,339.376C834.197,313.469 855.494,304.86 878.931,293.759C895.702,285.815 917.309,283.504 937.024,283.26C951.69,283.078 981.917,288.433 995.979,294.427C1006.92,299.09 1016.97,304.686 1026.86,310.248C1030.75,312.437 1051.68,329.421 1059.21,341.063C1064.24,348.843 1069.09,357.463 1071.25,363.458C1074.02,371.187 1077.51,379.481 1077.48,387.64C1077.45,397.891 1076.96,405.871 1076.83,411.648C1076.8,413.478 1077.9,418.258 1078.93,422.09C1079.83,425.448 1079.39,430.36 1077.55,433.364C1075.88,436.077 1074.13,438.494 1072.29,441.164C1069.43,445.287 1067.37,446.502 1064.21,449.674C1062.78,451.114 1060.5,453.356 1057.86,455.613C1055.82,457.355 1053.64,455.737 1051.33,453.987C1045.08,449.255 1044.75,447.3 1043.45,440.31C1042.93,437.473 1041.83,432.481 1041.73,428.453C1041.56,421.753 1041.29,421.809 1038.61,423.472C1038.06,423.81 1034.12,425.673 1031.26,426.974C1028.83,428.081 1023.15,429.401 1020.37,430.133C1014,431.81 1013.83,431.342 1009.9,428.89C1008.69,428.131 1003.09,425.023 1001.17,423.896C998.994,422.615 996.558,421.179 994.419,420.012C992.756,419.105 990.165,416.54 987.17,417.209C983.427,418.045 980.447,418.612 977.315,419.395C970.017,421.22 963.209,424.761 955.437,424.543C951.029,424.42 945.993,423.936 942.821,423.143C939.547,422.325 935.987,421.572 932.393,421.523C926.402,421.442 926.612,422.968 920.124,424.027C919.012,424.208 910.007,424.732 908.071,424.468C899.576,423.307 898.246,420.894 889.662,418.97C884.387,417.788 879.414,416.557 876.982,417.908C871.924,420.718 867.536,423.305 862.19,426.51C859.703,428.001 854.083,431.604 852.28,431.118C850.439,430.622 847.817,429.971 844.848,429.054C843.014,428.487 841.172,428.132 838.27,426.951C835.719,425.913 831.705,424.019 828.323,422.235C826.458,421.251 827.436,427.973 827.328,429.859C826.962,436.222 825.937,437.876 825.026,443.84C824.397,447.961 822.794,449.306 820.105,451.884C816.365,455.468 815.426,458.019 812.525,455.856C806.571,451.417 802.573,447.515 800.148,444.915Z" style="fill:rgb(112,78,56);"/>
            <path d="M829.171,424.924C832.165,426.443 835.356,427.924 837.516,428.803C840.49,430.014 842.378,430.384 844.258,430.965C847.254,431.891 849.901,432.548 851.759,433.049C852.573,433.268 853.934,433.107 855.499,432.472C858.014,431.449 861.415,429.307 863.219,428.225C868.544,425.033 872.915,422.456 877.953,419.657C878.652,419.269 879.654,419.269 880.834,419.353C883.215,419.523 886.166,420.237 889.225,420.922C897.883,422.862 899.231,425.278 907.8,426.449C909.831,426.727 919.28,426.191 920.446,426.001C923.2,425.551 924.816,425.023 926.172,424.555C927.899,423.96 929.126,423.479 932.366,423.523C935.803,423.57 939.205,424.301 942.336,425.083C945.616,425.903 950.823,426.415 955.381,426.542C963.339,426.765 970.327,423.204 977.8,421.335C980.916,420.556 983.882,419.993 987.606,419.161C988.603,418.938 989.517,419.328 990.336,419.775C991.566,420.446 992.63,421.314 993.462,421.768C995.583,422.925 997.998,424.349 1000.16,425.619C1002.06,426.741 1007.64,429.831 1008.85,430.586C1011.13,432.012 1012.36,432.786 1013.9,433.034C1015.41,433.276 1017.27,433.016 1020.88,432.067C1023.75,431.314 1029.59,429.934 1032.09,428.794C1034.88,427.524 1038.67,425.724 1039.54,425.239C1039.62,426.096 1039.7,427.272 1039.73,428.502C1039.83,432.636 1040.95,437.762 1041.49,440.675C1042.9,448.305 1043.3,450.416 1050.12,455.582C1051.45,456.584 1052.75,457.519 1054,457.984C1055.77,458.646 1057.49,458.557 1059.16,457.134C1061.85,454.836 1064.17,452.553 1065.63,451.085C1068.88,447.818 1070.99,446.55 1073.93,442.302C1075.8,439.602 1077.57,437.155 1079.26,434.41C1081.36,430.989 1081.89,425.397 1080.87,421.572C1079.89,417.942 1078.8,413.423 1078.83,411.69C1078.96,405.904 1079.45,397.913 1079.48,387.646C1079.51,379.262 1075.98,370.725 1073.13,362.782C1070.94,356.68 1066.01,347.897 1060.89,339.977C1053.2,328.086 1031.82,310.741 1027.84,308.505C1017.89,302.908 1007.77,297.279 996.763,292.587C982.508,286.511 951.867,281.076 937,281.26C916.999,281.508 895.088,283.893 878.074,291.952C854.381,303.175 832.88,311.92 811.499,338.111C805.384,345.603 796.994,364.167 793.618,377.987C792.042,384.438 792.553,398.145 792.587,405.754C792.598,408.051 792.769,409.528 791.92,412.639C790.96,416.155 789.598,421.551 789.015,424.078C788.143,427.855 788.066,431.408 790.959,435.106C793.511,438.37 796.159,443.572 798.685,446.28L798.685,446.28C801.163,448.935 805.247,452.924 811.329,457.459C812.49,458.325 813.487,458.637 814.375,458.652C815.355,458.668 816.275,458.334 817.216,457.613C818.321,456.767 819.548,455.188 821.489,453.328C824.544,450.399 826.288,448.824 827.003,444.142C827.926,438.099 828.954,436.421 829.324,429.974C829.378,429.043 829.182,426.967 829.167,425.172L829.171,424.924ZM852.69,429.157C850.873,428.669 848.321,428.034 845.439,427.143C843.651,426.59 841.853,426.25 839.024,425.098C836.519,424.079 832.578,422.218 829.257,420.466C828.472,420.052 827.792,420.074 827.23,420.255C826.664,420.438 826.139,420.823 825.765,421.499C825.449,422.069 825.223,423.068 825.179,424.27C825.11,426.143 825.391,428.696 825.331,429.744C824.97,436.023 823.948,437.653 823.049,443.538C822.506,447.099 821.044,448.213 818.721,450.44C817.225,451.874 816.177,453.143 815.272,454.01C815.093,454.183 814.922,454.335 814.753,454.461C814.639,454.546 814.562,454.658 814.441,454.652C814.218,454.641 814.01,454.468 813.72,454.252C807.896,449.91 803.983,446.094 801.61,443.551L801.61,443.551C799.148,440.912 796.597,435.822 794.11,432.642C792.106,430.08 792.309,427.594 792.912,424.977C793.487,422.484 794.832,417.161 795.779,413.692C796.761,410.095 796.599,408.391 796.587,405.736C796.554,398.393 795.982,385.162 797.503,378.936C800.744,365.674 808.729,347.83 814.598,340.641C835.514,315.018 856.607,306.546 879.787,295.567C896.316,287.737 917.618,285.501 937.049,285.26C951.514,285.08 981.326,290.355 995.195,296.267C1006.06,300.9 1016.05,306.464 1025.88,311.991C1029.69,314.133 1050.16,330.757 1057.53,342.149C1062.47,349.789 1067.25,358.247 1069.36,364.134C1072.06,371.649 1075.51,379.7 1075.48,387.634C1075.45,397.87 1074.96,405.837 1074.84,411.605C1074.79,413.532 1075.92,418.574 1077,422.609C1077.78,425.499 1077.43,429.732 1075.85,432.317C1074.2,434.999 1072.47,437.387 1070.64,440.025C1067.88,444.024 1065.86,445.186 1062.79,448.262C1061.38,449.676 1059.16,451.877 1056.56,454.091C1056.04,454.531 1055.51,454.322 1054.95,454.037C1054.16,453.634 1053.37,453.018 1052.54,452.393C1046.86,448.094 1046.6,446.296 1045.42,439.946C1044.91,437.183 1043.82,432.325 1043.73,428.404C1043.65,425.265 1043.49,423.461 1043.18,422.556C1042.81,421.471 1042.18,420.969 1041.55,420.719C1041.08,420.529 1040.52,420.467 1039.88,420.62C1039.32,420.754 1038.55,421.155 1037.55,421.773C1037.03,422.1 1033.2,423.894 1030.43,425.154C1028.07,426.228 1022.56,427.489 1019.87,428.199C1017.1,428.926 1015.69,429.271 1014.54,429.085C1013.43,428.906 1012.61,428.22 1010.97,427.194C1009.75,426.431 1004.11,423.305 1002.19,422.172C999.99,420.88 997.534,419.432 995.377,418.256C994.545,417.802 993.482,416.934 992.252,416.264C990.61,415.368 988.732,414.811 986.734,415.257C982.973,416.098 979.977,416.668 976.83,417.455C969.707,419.236 963.078,422.756 955.493,422.544C951.235,422.425 946.369,421.968 943.306,421.203C939.888,420.349 936.171,419.574 932.421,419.523C929.091,419.478 927.486,419.891 925.811,420.45C924.378,420.929 922.887,421.549 919.802,422.053C918.745,422.226 910.182,422.738 908.342,422.486C899.921,421.335 898.608,418.925 890.099,417.019C886.827,416.286 883.666,415.545 881.119,415.363C879.013,415.213 877.258,415.467 876.011,416.16C870.933,418.981 866.528,421.578 861.162,424.795C859.708,425.666 857.157,427.283 854.967,428.331C854.116,428.739 852.846,429.112 852.69,429.157Z"/>
            <path d="M903.251,550.019C904.685,550.338 914.331,553.12 917.852,553.662C921.806,554.27 925.593,554.855 929.603,555.022C937.115,555.335 944.15,554.888 952.087,553.724C956.949,553.011 962.428,550.509 965.254,550.081C966.345,549.916 967.097,548.896 966.932,547.804C966.767,546.713 965.747,545.961 964.656,546.126C961.833,546.553 956.363,549.054 951.506,549.766C943.834,550.891 937.032,551.329 929.77,551.026C925.91,550.865 922.266,550.294 918.46,549.708C915.001,549.176 905.528,546.428 904.119,546.115C903.041,545.875 901.972,546.556 901.732,547.633C901.493,548.711 902.173,549.78 903.251,550.019Z"/>
            <path d="M914.817,527.846C912.53,535.983 923.587,539.227 932.841,539.035C940.182,538.883 951.633,537.09 953.691,531.226C955.291,526.669 950.501,521.436 948.903,518.239C947.68,515.793 944.573,510.597 940.52,505.099C934.632,497.114 930.673,500.911 925.026,507.762C923.481,509.637 915.33,526.019 914.817,527.846Z" style="fill:rgb(210,153,84);"/>
            <path d="M923.996,533.301C919.769,530.73 917.321,524.421 918.73,519.626C920.563,513.391 927.909,509.335 934.047,508.777C937.536,508.46 945.014,511.079 947.062,515.593C951.528,525.434 949.585,530.264 941.525,534.424C938.158,536.162 930.116,537.025 923.996,533.301Z" style="fill:rgb(227,207,182);"/>
            <path d="M922.956,535.01C929.758,539.149 938.7,538.133 942.442,536.201C947.063,533.816 949.826,531.133 950.898,527.742C951.947,524.424 951.388,520.286 948.884,514.767C947.906,512.611 945.936,510.774 943.604,509.422C940.273,507.491 936.245,506.569 933.866,506.785C926.994,507.41 918.863,512.082 916.811,519.062C915.168,524.654 918.027,532.011 922.956,535.01L922.956,535.01ZM925.035,531.593C921.512,529.449 919.474,524.187 920.649,520.19C922.263,514.7 928.823,511.26 934.229,510.768C936.036,510.604 939.067,511.415 941.598,512.882C943.174,513.796 944.58,514.963 945.241,516.42C947.203,520.742 947.905,523.938 947.084,526.536C946.286,529.061 944.048,530.871 940.608,532.647C937.616,534.191 930.473,534.902 925.035,531.593L925.035,531.593Z"/>
            <path d="M972.73,469.134C976.94,464.269 977.444,464.66 978.441,463.995C979.972,462.974 981.86,460.95 983.535,460.469C989.083,458.874 997.061,458.175 1003.65,459.117C1007.67,459.691 1011.37,460.523 1014.52,462.767C1016.53,464.21 1019.38,466.826 1020.84,468.91C1022.76,471.626 1024.2,473.25 1024.95,475.258C1026.74,480.009 1026.95,489.717 1026.4,494.674C1025.92,498.99 1022.7,506.257 1021.22,508.412C1017.6,513.665 1013.71,517.043 1010.07,518.984C1001,523.808 990.215,523.052 984.496,519.705C981.168,517.757 974.584,513.035 971.814,508.337C969.179,503.869 966.06,497.746 966.248,490.543C966.439,483.212 967.807,474.823 972.73,469.134Z" style="fill:rgb(240,242,230);"/>
            <clipPath id="_clip1">
                <path d="M972.73,469.134C976.94,464.269 977.444,464.66 978.441,463.995C979.972,462.974 981.86,460.95 983.535,460.469C989.083,458.874 997.061,458.175 1003.65,459.117C1007.67,459.691 1011.37,460.523 1014.52,462.767C1016.53,464.21 1019.38,466.826 1020.84,468.91C1022.76,471.626 1024.2,473.25 1024.95,475.258C1026.74,480.009 1026.95,489.717 1026.4,494.674C1025.92,498.99 1022.7,506.257 1021.22,508.412C1017.6,513.665 1013.71,517.043 1010.07,518.984C1001,523.808 990.215,523.052 984.496,519.705C981.168,517.757 974.584,513.035 971.814,508.337C969.179,503.869 966.06,497.746 966.248,490.543C966.439,483.212 967.807,474.823 972.73,469.134Z"/>
            </clipPath>
            <g clip-path="url(#_clip1)">
                <g transform="matrix(1.10663,0,0,1.10663,-648.873,-49.0146)">
                    <path d="M1484.15,480.367C1481.99,480.639 1481.08,482.944 1481.08,483.96C1481.06,487.628 1481.9,488.022 1482.75,489.014C1485.12,491.784 1489.75,488.98 1490.08,486.01C1490.45,482.681 1487.44,479.953 1484.15,480.367Z"/>
                </g>
            </g>
            <path d="M971.217,467.826C965.999,473.857 964.451,482.719 964.249,490.491C964.05,498.12 967.3,504.621 970.091,509.353C973.025,514.328 979.961,519.368 983.486,521.431C989.641,525.033 1001.25,525.94 1011.01,520.749C1014.88,518.689 1019.02,515.124 1022.87,509.547C1024.45,507.248 1027.87,499.497 1028.38,494.895C1028.96,489.701 1028.69,479.534 1026.83,474.555C1026.03,472.413 1024.52,470.656 1022.48,467.757C1020.9,465.515 1017.85,462.692 1015.68,461.14C1012.28,458.71 1008.28,457.758 1003.94,457.137C997.07,456.156 988.761,456.886 982.982,458.547C982.11,458.797 981.177,459.339 980.263,460.021C979.24,460.784 978.225,461.735 977.332,462.33C976.265,463.042 975.722,462.62 971.217,467.826L971.217,467.826ZM974.242,470.443C978.158,465.918 978.623,466.277 979.551,465.659C980.356,465.122 981.26,464.325 982.178,463.595C982.828,463.079 983.464,462.57 984.087,462.391C989.405,460.863 997.052,460.194 1003.37,461.097C1007.06,461.623 1010.47,462.336 1013.35,464.395C1015.22,465.728 1017.85,468.137 1019.21,470.062C1021,472.596 1022.38,474.087 1023.08,475.96C1024.78,480.485 1024.93,489.733 1024.41,494.453C1023.96,498.482 1020.96,505.266 1019.57,507.278C1016.18,512.207 1012.55,515.397 1009.13,517.218C1000.75,521.675 990.79,521.071 985.506,517.979C982.374,516.146 976.143,511.742 973.536,507.321C971.057,503.117 968.071,497.373 968.247,490.595C968.427,483.704 969.615,475.79 974.242,470.443L974.242,470.443Z"/>
            <path d="M980.118,461.382C977.109,463.414 979.682,464.223 981.434,463.988C986.436,463.319 993.987,462.568 997.608,462.956C1003.83,463.622 1007.28,464.083 1013.32,466.996C1016.59,468.572 1021.05,472.334 1022.95,473.576C1024.98,474.896 1025.76,472.697 1023.7,470.016C1021.65,467.347 1018.72,464.333 1017.71,463.324C1015.57,461.179 1012.7,460.13 1009.47,459.231C1007.42,458.661 1003,457.471 999.814,457.42C992.936,457.309 985.351,457.847 980.118,461.382Z" style="fill:rgb(209,151,81);"/>
            <path d="M978.999,459.724C976.512,461.404 976.562,463.092 976.919,463.987C977.157,464.582 977.631,465.127 978.353,465.498C979.206,465.935 980.561,466.123 981.7,465.971C986.554,465.321 993.88,464.568 997.395,464.944C1003.35,465.583 1006.66,466.007 1012.45,468.798C1015.64,470.339 1020,474.036 1021.86,475.251C1023.93,476.599 1025.48,475.915 1026.27,474.885C1026.63,474.417 1026.89,473.775 1026.91,472.968C1026.94,471.926 1026.52,470.402 1025.29,468.797C1023.18,466.051 1020.17,462.948 1019.13,461.91C1016.75,459.528 1013.59,458.303 1010,457.305C1007.85,456.705 1003.19,455.474 999.846,455.42C992.559,455.302 984.543,455.98 978.999,459.724ZM1020.62,469.402C1018.58,467.883 1016.17,466.15 1014.19,465.195C1007.89,462.159 1004.3,461.662 997.821,460.967C994.662,460.629 988.595,461.115 983.685,461.692C988.367,459.603 994.319,459.331 999.781,459.419C1002.8,459.468 1006.99,460.617 1008.93,461.158C1011.8,461.958 1014.39,462.829 1016.3,464.738C1017.05,465.49 1018.9,467.388 1020.62,469.402Z"/>
            <path d="M969.885,443.657C967.998,445.548 965.619,449.615 970.73,450.088C975.938,450.569 978.093,451.081 982.444,448.26C988.338,444.439 998.701,444.372 1008,444.85C1011.95,445.053 1016.97,446.478 1019.64,447.367C1021.75,448.069 1023.59,447.981 1024.04,447.538C1024.92,446.652 1023.68,446.181 1021.86,444.915C1018.3,442.448 1014.98,440.642 1010.71,439.575C1001.05,437.158 990.899,437.313 980.784,439.511C976.571,440.427 971.6,441.938 969.885,443.657Z" style="fill:rgb(87,63,47);"/>
            <path d="M968.469,442.244C967.48,443.235 966.407,444.721 965.939,446.136C965.485,447.511 965.567,448.843 966.247,449.917C966.878,450.914 968.132,451.856 970.546,452.079C976.328,452.614 978.702,453.07 983.532,449.938C989.146,446.298 999.039,446.392 1007.9,446.848C1011.67,447.041 1016.46,448.416 1019.01,449.265C1020.87,449.884 1022.57,449.972 1023.61,449.804C1024.51,449.659 1025.11,449.289 1025.45,448.952C1026.03,448.372 1026.25,447.798 1026.31,447.295C1026.39,446.65 1026.25,446.011 1025.77,445.384C1025.35,444.839 1024.33,444.195 1023,443.272C1019.24,440.662 1015.72,438.764 1011.2,437.634C1001.24,435.144 990.781,435.292 980.359,437.557C975.742,438.56 970.349,440.36 968.469,442.244ZM1017.91,444.74C1015.05,443.911 1011.25,443.014 1008.11,442.853C998.363,442.352 987.529,442.58 981.356,446.582C977.484,449.093 975.549,448.525 970.914,448.096C970.503,448.058 970.162,447.994 969.886,447.894C969.816,447.868 969.726,447.82 969.668,447.787C969.71,447.613 969.852,447.065 970.024,446.75C970.37,446.116 970.854,445.517 971.3,445.069C971.846,444.523 972.83,444.046 974,443.572C976.111,442.717 978.791,441.991 981.209,441.466C991.016,439.334 1000.85,439.171 1010.23,441.515C1013.12,442.237 1015.54,443.325 1017.91,444.74Z"/>
            <path d="M890.574,462.996C888.356,460.835 885.34,459.967 882.015,459.22C872.312,457.038 866.876,458.037 858.948,460.416C854.9,461.63 851.342,463.209 848.445,466.685C846.05,469.559 844.39,474.977 843.799,478.526C841.909,489.873 842.436,496.299 846.012,505.521C848.293,511.404 855.148,517.468 860.568,519.649C866.626,522.086 871.088,522.61 876.916,522.319C879.299,522.201 890.1,515.98 891.701,514.112C898.215,506.513 899.5,504.51 901.931,494.786C902.865,491.05 901.63,481.011 900.233,477.397C897.386,470.035 893.206,465.562 890.574,462.996Z" style="fill:rgb(240,242,230);"/>
            <clipPath id="_clip2">
                <path d="M890.574,462.996C888.356,460.835 885.34,459.967 882.015,459.22C872.312,457.038 866.876,458.037 858.948,460.416C854.9,461.63 851.342,463.209 848.445,466.685C846.05,469.559 844.39,474.977 843.799,478.526C841.909,489.873 842.436,496.299 846.012,505.521C848.293,511.404 855.148,517.468 860.568,519.649C866.626,522.086 871.088,522.61 876.916,522.319C879.299,522.201 890.1,515.98 891.701,514.112C898.215,506.513 899.5,504.51 901.931,494.786C902.865,491.05 901.63,481.011 900.233,477.397C897.386,470.035 893.206,465.562 890.574,462.996Z"/>
            </clipPath>
            <g clip-path="url(#_clip2)">
                <g transform="matrix(-1.10663,0,0,1.10663,2521.49,-49.0146)">
                    <path d="M1484.15,480.367C1481.99,480.639 1481.08,482.944 1481.08,483.96C1481.06,487.628 1481.9,488.022 1482.75,489.014C1485.12,491.784 1489.75,488.98 1490.08,486.01C1490.45,482.681 1487.44,479.953 1484.15,480.367Z"/>
                </g>
            </g>
            <path d="M891.97,461.564C889.494,459.152 886.164,458.102 882.454,457.268C872.324,454.991 866.649,456.017 858.374,458.5C853.945,459.829 850.078,461.601 846.908,465.405C844.317,468.515 842.466,474.357 841.826,478.197C839.862,489.987 840.431,496.662 844.147,506.244C846.607,512.589 853.976,519.153 859.821,521.504C866.193,524.067 870.885,524.623 877.016,524.317C878.1,524.263 880.757,523.199 883.623,521.685C887.665,519.55 892.193,516.612 893.22,515.414C900.007,507.495 901.338,505.404 903.872,495.271C904.87,491.277 903.592,480.539 902.098,476.676C899.112,468.952 894.731,464.255 891.97,461.564L891.97,461.564ZM889.178,464.429C891.681,466.868 895.66,471.118 898.367,478.119C899.668,481.482 900.861,490.823 899.991,494.301C897.662,503.617 896.423,505.53 890.183,512.811C889.289,513.853 885.272,516.291 881.755,518.149C879.581,519.297 877.639,520.281 876.817,520.322C871.29,520.598 867.059,520.104 861.314,517.793C856.319,515.784 849.979,510.22 847.876,504.798C844.44,495.936 843.955,489.759 845.772,478.854C846.314,475.597 847.783,470.603 849.981,467.966C852.606,464.817 855.856,463.431 859.523,462.331C867.103,460.058 872.299,459.085 881.577,461.171C884.516,461.832 887.217,462.518 889.178,464.429L889.178,464.429Z"/>
            <path d="M889.581,461.594C892.084,462.973 891.433,463.737 888.226,463.5C885.922,463.329 879.048,462.73 876.555,462.668C867.771,462.448 859.289,464.489 854.447,467.493C851.893,469.077 847.51,472.367 846.564,473.223C844.721,474.892 843.582,473.534 844.483,471.886C847.585,466.212 850.6,462.873 854.129,461.108C862.961,456.692 870.111,456.284 879.736,457.488C881.229,457.674 888.305,460.892 889.581,461.594Z" style="fill:rgb(209,151,81);"/>
            <path d="M890.546,459.842C889.18,459.09 881.582,455.703 879.984,455.503C869.928,454.246 862.462,454.706 853.235,459.32C849.414,461.23 846.086,464.785 842.728,470.927C841.685,472.836 842.278,474.551 843.211,475.332C844.098,476.075 845.874,476.546 847.906,474.706C848.817,473.882 853.041,470.718 855.501,469.192C860.099,466.34 868.165,464.458 876.504,464.667C878.977,464.729 885.793,465.325 888.078,465.494C889.547,465.603 890.604,465.499 891.22,465.308C891.935,465.087 892.376,464.71 892.643,464.355C893.137,463.698 893.29,462.93 892.927,462.042C892.709,461.51 892.025,460.657 890.546,459.842ZM883.958,461.155C881.217,460.938 878.115,460.706 876.605,460.668C867.378,460.437 858.48,462.638 853.392,465.793C851.989,466.664 850.054,468.032 848.399,469.26C850.497,466.144 852.611,464.104 855.023,462.897C863.46,458.679 870.294,458.323 879.488,459.472C880.162,459.556 882.054,460.318 883.958,461.155Z"/>
            <path d="M898.44,444.091C897.512,443.46 896.557,442.484 893.568,441.761C890.007,440.9 884.299,439.694 880.488,439.149C869.763,437.617 864.742,437.362 854.276,440.851C851.559,441.757 849.116,442.149 846.065,445.103C844.177,446.93 844.917,448.897 848.247,447.581C851.412,446.331 856.203,445.032 859.568,444.615C864.173,444.046 868.393,444.678 871.903,444.797C883.066,445.176 884.287,448.349 891.242,450.164C892.723,450.55 895.8,450.258 897.265,450C901.11,449.326 901.06,445.873 898.44,444.091Z" style="fill:rgb(87,63,47);"/>
            <path d="M899.564,442.437C898.514,441.723 897.424,440.636 894.038,439.817C890.426,438.943 884.636,437.722 880.771,437.17C869.671,435.584 864.476,435.343 853.644,438.953C850.666,439.946 848.018,440.429 844.674,443.666C842.806,445.474 842.805,447.519 843.528,448.619C844.189,449.625 845.969,450.632 848.982,449.441C852.01,448.245 856.594,446.999 859.814,446.6C864.302,446.045 868.414,446.68 871.835,446.796C878.129,447.01 881.062,448.156 883.811,449.418C885.858,450.356 887.818,451.337 890.737,452.099C892.427,452.54 895.939,452.264 897.611,451.97C900.011,451.549 901.344,450.297 901.931,448.933C902.823,446.862 902.048,444.127 899.565,442.437L899.564,442.437ZM849.185,445.107C851.196,443.714 852.985,443.39 854.909,442.748C865.008,439.382 869.856,439.651 880.205,441.129C883.961,441.666 889.587,442.856 893.097,443.705C895.691,444.332 896.51,445.197 897.315,445.745L897.315,445.745C897.984,446.2 898.498,446.793 898.257,447.351C898.091,447.739 897.601,447.911 896.919,448.031C895.661,448.251 893.019,448.561 891.747,448.229C889.102,447.538 887.333,446.633 885.479,445.782C882.377,444.359 879.073,443.039 871.971,442.798C868.372,442.676 864.044,442.046 859.323,442.63C856.365,442.996 852.35,444.014 849.185,445.107Z"/>
            <path d="M896.378,577.429C889.126,575.023 886.564,572.496 886.549,580.67C886.541,584.994 887.935,593.47 889.535,595.069C894.162,599.697 898.44,601.976 903.403,605.591C910.417,610.7 926.857,615.533 937.384,615.18C950.12,614.752 960.585,610.439 977.038,597.577C982.559,593.26 984.942,588.599 985.349,582.205C985.912,573.384 982.972,572.544 976.698,576.221C972.855,578.474 965.076,580.958 961.002,582.184C945.445,586.864 944.027,588.186 927.703,586.976C921.327,586.503 904.008,579.96 896.378,577.429Z" style="fill:rgb(178,71,130);"/>
            <path d="M897.008,575.531C893.827,574.475 891.502,573.423 889.884,573.161C888.687,572.967 887.724,573.125 886.947,573.561C886.208,573.976 885.575,574.658 885.155,575.788C884.774,576.813 884.553,578.377 884.549,580.667C884.543,583.842 885.257,589.151 886.262,592.627C886.796,594.475 887.496,595.859 888.12,596.484C892.831,601.194 897.174,603.528 902.226,607.208C909.498,612.505 926.536,617.545 937.451,617.178C950.551,616.738 961.348,612.382 978.269,599.152C984.308,594.431 986.899,589.325 987.345,582.332C987.537,579.329 987.32,577.145 986.802,575.665C986.31,574.264 985.537,573.353 984.602,572.803C983.664,572.251 982.514,572.036 981.136,572.248C979.672,572.473 977.843,573.232 975.687,574.496C971.952,576.685 964.385,579.077 960.426,580.268C945.205,584.848 943.822,586.165 927.851,584.981C921.57,584.516 904.524,578.024 897.008,575.531L897.008,575.531ZM888.951,577.093C889.198,577.132 889.922,577.256 890.442,577.425C891.828,577.875 893.577,578.607 895.748,579.327C903.492,581.896 921.083,588.491 927.555,588.97C944.233,590.207 945.684,588.881 961.578,584.099C965.768,582.838 973.758,580.263 977.71,577.946C979.087,577.139 980.273,576.563 981.282,576.299C981.809,576.161 982.24,576.054 982.572,576.25C982.911,576.449 983.032,576.896 983.169,577.486C983.431,578.606 983.478,580.121 983.353,582.077C982.984,587.873 980.81,592.089 975.806,596.001C959.822,608.497 949.69,612.765 937.317,613.181C927.178,613.521 911.336,608.895 904.581,603.975C899.706,600.424 895.494,598.2 890.949,593.655C890.613,593.32 890.391,592.509 890.104,591.516C889.193,588.365 888.544,583.552 888.549,580.674C888.552,579.259 888.623,578.213 888.817,577.464C888.848,577.343 888.907,577.194 888.951,577.093Z"/>
            <path d="M795.62,407.409C795.925,406.716 799.528,394.671 803.091,387.477C807.506,378.56 815.511,363.453 825.954,356.14C836.109,349.029 846.043,342.832 859.225,337.155C876.304,329.8 892.687,323.918 920.414,323.119C945.835,322.386 966.176,323.03 983.533,328.01C1006.88,334.71 1021.11,341.387 1044.18,356.219C1052.54,361.595 1062.11,375.139 1068.52,389.891C1072.75,399.612 1076.23,414.469 1076.41,414.469C1077.88,414.469 1077.39,406.362 1077.42,405.43C1077.68,395.051 1076.4,387.757 1075.01,379.382C1074.37,375.514 1072.48,369.271 1070.75,364.916C1068.5,359.27 1064.16,352.017 1060.75,347.19C1048.45,329.745 1032.97,318.508 1013.46,308.363C1007.74,305.39 987.74,297.005 981.516,295.43C965.634,291.41 944.617,290.146 923.818,290.722C901.277,291.345 876.297,299.317 855.826,309.272C831.656,321.026 817.878,335.25 811.047,345.771C803.684,357.11 796.402,374.386 795.162,384.266C793.899,394.321 793.158,412.994 795.62,407.409Z" style="fill:rgb(178,71,130);"/>
            <path d="M797.45,408.216C797.754,407.526 801.335,395.528 804.883,388.364C809.186,379.674 816.923,364.905 827.101,357.778C837.148,350.743 846.974,344.608 860.016,338.992C876.89,331.725 893.076,325.908 920.472,325.118C945.646,324.392 965.792,325.001 982.982,329.933C1006.13,336.575 1020.23,343.199 1043.1,357.901C1051.23,363.127 1060.45,376.348 1066.69,390.689C1070.46,399.351 1073.62,412.136 1074.34,414.605C1074.54,415.299 1074.79,415.657 1074.85,415.731C1075.39,416.393 1076.01,416.469 1076.41,416.469C1077.34,416.469 1078.49,415.868 1078.99,414.192C1079.66,411.952 1079.4,406.274 1079.42,405.481C1079.68,394.951 1078.4,387.55 1076.98,379.053C1076.32,375.076 1074.38,368.655 1072.6,364.177C1070.31,358.4 1065.87,350.976 1062.39,346.037C1049.9,328.323 1034.2,316.89 1014.38,306.588C1008.59,303.576 988.314,295.087 982.007,293.491C965.974,289.433 944.759,288.141 923.763,288.722C900.952,289.354 875.667,297.399 854.951,307.474C830.334,319.445 816.327,333.966 809.369,344.681C801.849,356.264 794.444,373.925 793.177,384.017C792.46,389.731 791.91,398.187 792.002,403.527C792.048,406.179 792.325,408.156 792.688,408.947C793.3,410.278 794.315,410.522 795.138,410.41C795.661,410.338 796.707,409.901 797.45,408.216ZM1075.45,403.707C1074.06,399.018 1072.29,393.527 1070.36,389.093C1063.76,373.931 1053.86,360.062 1045.26,354.537C1021.99,339.576 1007.64,332.846 984.085,326.088C966.559,321.059 946.023,320.379 920.357,321.12C892.297,321.929 875.717,327.875 858.434,335.318C845.111,341.055 835.069,347.315 824.807,354.502C814.098,362.001 805.827,377.446 801.299,386.589C799.381,390.462 797.449,395.734 796.024,399.9C796.141,394.988 796.594,388.915 797.146,384.515C798.36,374.848 805.52,357.956 812.724,346.86C819.429,336.534 832.979,322.607 856.701,311.071C876.927,301.235 901.602,293.337 923.873,292.721C944.475,292.151 965.294,293.387 981.025,297.369C987.166,298.922 1006.9,307.205 1012.54,310.137C1031.75,320.126 1047.01,331.166 1059.12,348.342C1062.44,353.057 1066.69,360.139 1068.89,365.655C1070.57,369.887 1072.41,375.952 1073.04,379.711C1074.34,387.506 1075.54,394.351 1075.45,403.707Z"/>
        </g>
    </g>
</svg>
