<?xml version="1.0" encoding="UTF-8" standalone="no"?>
<!DOCTYPE svg PUBLIC "-//W3C//DTD SVG 1.1//EN" "http://www.w3.org/Graphics/SVG/1.1/DTD/svg11.dtd">
<svg width="100%" height="100%" viewBox="0 0 236 277" version="1.1" xmlns="http://www.w3.org/2000/svg" xmlns:xlink="http://www.w3.org/1999/xlink" xml:space="preserve" xmlns:serif="http://www.serif.com/" style="fill-rule:evenodd;clip-rule:evenodd;stroke-linejoin:round;stroke-miterlimit:2;">
    <g transform="matrix(1,0,0,1,-789.488,-282.255)">
        <g id="Ebene3" transform="matrix(0.807112,0,0,0.807112,152.476,54.6366)">
            <path d="M820.024,491.514C814.667,497.509 810.463,505.883 808.665,511.12C806.479,517.487 801.167,532.318 799.416,537.531C797.529,543.145 800.497,550.455 802.301,555.945C805.616,566.039 811.655,571.452 812.317,581.356C812.558,584.958 812.121,590.125 811.459,593.167C809.689,601.308 810.483,598.575 808.73,605.566C807.685,609.73 813.909,620.624 826.783,623.151C839.874,625.721 886.211,615.689 899.543,615.689C937.49,615.689 944.347,620.264 982.295,620.264C994.018,620.264 1065.5,616.996 1062.91,602.449C1062.15,598.123 1060.46,588.246 1060.2,582.915C1059.98,578.123 1062.7,572.807 1066.96,565.384C1068.52,562.687 1070.65,556.178 1072.66,549.414C1074.59,542.963 1074.03,538.77 1070.22,527.562C1069.07,524.184 1066.01,514.826 1064.27,511.136C1062.24,506.811 1058.49,495.35 1053.12,494.198C1043.44,492.124 992.245,481.659 981.047,481.228C946.232,479.889 912.86,480.387 878.296,483.483C846.542,486.327 828.884,481.598 820.024,491.514Z" style="fill:rgb(87,63,47);"/>
            <path d="M819.1,490.689C813.627,496.814 809.33,505.367 807.493,510.718C805.307,517.087 799.993,531.922 798.241,537.137C797.426,539.564 797.427,542.284 797.874,545.054C798.505,548.964 800.023,552.982 801.123,556.332C802.805,561.451 805.169,565.386 807.205,569.294C809.135,572.999 810.763,576.676 811.081,581.438C811.314,584.935 810.891,589.951 810.249,592.903C808.483,601.019 809.276,598.295 807.528,605.265C807.165,606.712 807.483,608.877 808.617,611.256C811.02,616.299 817.057,622.504 826.544,624.367C831.857,625.41 842.569,624.441 854.374,622.862C871.764,620.537 891.572,616.928 899.543,616.928C937.49,616.928 944.347,621.503 982.295,621.503C990.543,621.503 1028.22,619.884 1049.2,613.903C1054.79,612.309 1059.22,610.375 1061.71,608.132C1063.67,606.366 1064.52,604.382 1064.13,602.232C1063.37,597.941 1061.69,588.145 1061.44,582.857C1061.22,578.24 1063.93,573.152 1068.04,566.002C1069.62,563.259 1071.8,556.646 1073.85,549.767C1075.84,543.096 1075.33,538.754 1071.39,527.163C1070.24,523.759 1067.14,514.327 1065.39,510.608C1064.16,507.986 1062.3,502.771 1059.84,498.764C1058.01,495.789 1055.8,493.505 1053.38,492.987C1043.67,490.907 992.325,480.422 981.095,479.99C946.226,478.649 912.803,479.148 878.185,482.249C859.125,483.956 845.141,482.937 835.089,483.99C828.028,484.73 822.836,486.507 819.1,490.689ZM820.948,492.34C824.3,488.588 829.011,487.119 835.347,486.455C845.391,485.402 859.362,486.423 878.406,484.717C912.917,481.626 946.238,481.129 981,482.466C992.165,482.896 1043.21,493.342 1052.86,495.41C1054.74,495.813 1056.31,497.749 1057.72,500.061C1060.13,503.984 1061.94,509.096 1063.15,511.663C1064.87,515.324 1067.91,524.609 1069.05,527.96C1072.73,538.787 1073.33,542.829 1071.48,549.06C1069.5,555.71 1067.41,562.115 1065.89,564.766C1061.47,572.462 1058.73,578.005 1058.97,582.974C1059.22,588.348 1060.92,598.305 1061.69,602.665C1061.93,604.007 1061.27,605.189 1060.05,606.292C1057.76,608.353 1053.66,610.055 1048.52,611.52C1027.76,617.44 990.459,619.025 982.295,619.025C944.347,619.025 937.49,614.45 899.543,614.45C891.515,614.45 871.561,618.064 854.046,620.406C842.581,621.94 832.181,622.948 827.021,621.935C819.69,620.496 814.622,616.21 811.962,612.148C810.336,609.665 809.568,607.317 809.931,605.867C811.69,598.855 810.894,601.596 812.67,593.43C813.351,590.299 813.801,584.981 813.553,581.273C813.21,576.131 811.487,572.15 809.403,568.149C807.424,564.351 805.112,560.533 803.478,555.558C802.587,552.847 801.405,549.686 800.683,546.51C800.004,543.527 799.715,540.53 800.59,537.926C802.341,532.714 807.652,517.887 809.837,511.522C811.596,506.398 815.707,498.205 820.948,492.34Z"/>
            <path d="M1070.46,442.479C1073.79,438.905 1074.83,443.576 1076.12,446.743C1077.7,450.594 1077.48,457.539 1076.81,460.253C1075.77,464.411 1073.64,471.832 1071.97,475.717C1066.48,488.523 1059.6,504.593 1052.8,513.96C1050.54,517.076 1045.11,524.716 1041.19,523.958C1035.56,522.868 1041,512.126 1042.99,507.657C1043.76,505.926 1050.17,491.11 1052.01,485.587C1055.04,476.5 1061.53,455.913 1061.94,454.664C1063.24,450.777 1067.81,445.319 1070.46,442.479Z" style="fill:rgb(221,182,135);"/>
            <path d="M1069.55,441.634C1066.81,444.575 1062.11,450.247 1060.77,454.272C1060.35,455.521 1053.87,476.108 1050.84,485.195C1049,490.69 1042.62,505.432 1041.85,507.154C1040.41,510.412 1037.27,516.896 1037.48,520.868C1037.61,523.123 1038.62,524.723 1040.95,525.174C1042.41,525.457 1044.07,524.895 1045.71,523.733C1048.9,521.476 1052.16,516.944 1053.8,514.688C1060.64,505.261 1067.59,489.093 1073.11,476.205C1074.8,472.272 1076.96,464.762 1078.01,460.554C1078.72,457.685 1078.94,450.344 1077.27,446.274C1076.58,444.593 1075.93,442.526 1075.05,441.34C1074.35,440.416 1073.51,439.928 1072.54,439.953C1071.72,439.974 1070.71,440.395 1069.55,441.633L1069.55,441.634ZM1071.37,443.324C1071.67,442.992 1071.95,442.747 1072.21,442.586C1072.38,442.485 1072.51,442.404 1072.63,442.433C1072.78,442.467 1072.88,442.598 1073,442.739C1073.15,442.932 1073.3,443.167 1073.44,443.427C1074.02,444.518 1074.47,445.984 1074.98,447.213C1076.46,450.844 1076.24,457.394 1075.6,459.953C1074.58,464.059 1072.48,471.391 1070.83,475.229C1065.38,487.952 1058.55,503.926 1051.79,513.233C1050.47,515.052 1048.05,518.464 1045.49,520.738C1044.71,521.433 1043.92,522.02 1043.15,522.392C1042.55,522.681 1041.97,522.847 1041.42,522.742C1039.86,522.439 1039.8,520.951 1040.05,519.213C1040.57,515.56 1042.96,510.766 1044.12,508.16C1044.89,506.421 1051.34,491.529 1053.19,485.978C1056.21,476.892 1062.7,456.304 1063.12,455.056C1064.37,451.306 1068.81,446.064 1071.37,443.324Z"/>
            <path d="M801.381,444.582C798.379,441.513 795.96,445.445 795.698,449.232C794.976,459.677 801.493,477.274 806.629,489.177C808.691,493.954 810.079,498.798 812.472,502.687C813.979,505.135 816.066,507.299 817.488,509.858C819.538,513.547 822.24,516.766 825.031,520.041C827.907,523.416 830.987,523.417 833.591,522.043C838.03,519.701 830.957,515.212 829.506,511.22C827.743,506.372 824.554,501.855 823.164,496.99C820.838,488.847 817.585,481.245 815.401,473.055C813.531,466.04 810.987,459.128 808.607,451.684C808.34,450.848 802.537,445.764 801.381,444.582Z" style="fill:rgb(221,182,135);"/>
            <path d="M802.267,443.716C801.451,442.881 800.647,442.46 799.911,442.31C798.605,442.042 797.406,442.558 796.455,443.658C795.362,444.922 794.607,447.047 794.462,449.146C793.73,459.739 800.283,477.597 805.492,489.667C807.578,494.503 808.995,499.4 811.417,503.337C812.914,505.769 814.992,507.916 816.405,510.46C818.494,514.22 821.243,517.506 824.088,520.844C825.76,522.806 827.512,523.753 829.203,524.044C830.931,524.341 832.623,523.955 834.17,523.139C835.209,522.59 835.778,521.921 836.057,521.228C836.469,520.206 836.271,519.023 835.571,517.767C834.932,516.623 833.863,515.371 832.83,514.096C831.938,512.994 831.065,511.882 830.67,510.797C828.917,505.976 825.738,501.488 824.356,496.65C822.031,488.514 818.781,480.919 816.598,472.735C814.723,465.702 812.173,458.771 809.787,451.306C809.709,451.064 809.369,450.531 808.767,449.89C807.103,448.118 803.194,444.664 802.267,443.716ZM807.461,452.168C809.825,459.551 812.348,466.412 814.204,473.374C816.39,481.572 819.644,489.18 821.973,497.331C823.371,502.223 826.569,506.768 828.342,511.644C829.101,513.733 831.296,515.977 832.756,517.98C833.166,518.543 833.511,519.078 833.693,519.586C833.788,519.854 833.854,520.101 833.748,520.327C833.634,520.569 833.38,520.754 833.013,520.947C831.956,521.505 830.805,521.805 829.623,521.602C828.404,521.392 827.179,520.651 825.974,519.237C823.237,516.026 820.581,512.874 818.571,509.257C817.14,506.681 815.043,504.501 813.528,502.038C811.163,498.196 809.804,493.406 807.767,488.686C802.703,476.95 796.222,459.616 796.934,449.317C797.002,448.325 797.238,447.321 797.608,446.474C797.839,445.947 798.119,445.482 798.454,445.144C798.671,444.924 798.902,444.755 799.171,444.725C799.588,444.677 800.006,444.948 800.495,445.448C801.307,446.278 804.399,449.024 806.274,450.884C806.813,451.419 807.355,452.044 807.461,452.168Z"/>
            <path d="M809.348,454.467C810.082,457.798 811.74,464.208 812.385,466.468C814.693,474.546 816.8,483.074 820.242,490.722C822.218,495.115 823.999,500.223 825.688,504.728C827.186,508.723 829.211,513.652 830.704,517.534C832.162,521.325 833.768,526.366 835.957,529.886C838.916,534.646 842.345,540.017 847.638,544.736C858.427,554.355 862.984,559.213 873.516,565.994C885.56,573.748 893.644,578.073 907.601,582.546C915.971,585.23 927.848,587.107 936.575,586.866C944.816,586.638 951.976,585.305 959.496,583.572C964.251,582.476 982.228,574.363 987.193,571.329C997.414,565.083 1006.9,559.825 1016.06,551.295C1021.59,546.138 1025.05,543.263 1027.3,540.305C1030.67,535.882 1035.23,530.454 1038.21,522.192C1042.75,509.594 1047.38,498.942 1051.47,486.7C1054.18,478.593 1057.01,473.219 1059.24,465.578C1060.34,461.798 1065.06,449.851 1067.04,440.022C1068.37,433.424 1063.49,406.731 1056.58,401.059C1040.89,388.161 1021.7,383.924 1002.09,379.94C988.75,377.231 947.471,372.04 923.648,372.775C914.016,373.072 842.731,386.821 823.522,405.019C819.01,409.294 805.069,433.563 805.545,438.323C806.049,443.355 808.387,450.106 809.348,454.467Z" style="fill:rgb(219,196,168);"/>
            <path d="M808.138,454.734C808.876,458.085 810.544,464.534 811.194,466.808C813.518,474.943 815.646,483.529 819.112,491.231C821.078,495.601 822.848,500.681 824.528,505.163C826.027,509.161 828.053,514.094 829.547,517.979C831.031,521.836 832.677,526.959 834.904,530.541C837.919,535.39 841.422,540.854 846.813,545.661C857.665,555.336 862.252,560.215 872.846,567.036C884.992,574.856 893.146,579.214 907.222,583.726C915.712,586.448 927.758,588.349 936.609,588.104C944.938,587.874 952.174,586.531 959.775,584.779C964.592,583.669 982.808,575.46 987.839,572.386C998.133,566.096 1007.69,560.792 1016.9,552.202C1022.51,546.976 1026,544.053 1028.29,541.056C1031.72,536.554 1036.34,531.021 1039.37,522.612C1043.92,510.004 1048.56,499.344 1052.65,487.092C1055.36,478.968 1058.2,473.582 1060.43,465.924C1061.53,462.129 1066.27,450.134 1068.26,440.267C1069.07,436.214 1067.65,424.75 1064.82,414.979C1062.89,408.324 1060.26,402.474 1057.37,400.102C1041.51,387.072 1022.15,382.75 1002.34,378.726C988.948,376.007 947.52,370.799 923.61,371.537C917.799,371.716 889.668,376.747 863.925,384.709C846.643,390.054 830.449,396.75 822.67,404.119C819.461,407.159 811.529,420.134 807.243,429.314C806.127,431.704 805.257,433.839 804.768,435.482C804.391,436.748 804.245,437.767 804.313,438.447C804.82,443.522 807.169,450.335 808.138,454.734L808.138,454.734ZM810.558,454.201C809.605,449.878 807.277,443.187 806.778,438.2C806.732,437.737 806.886,437.052 807.143,436.189C807.605,434.636 808.434,432.621 809.488,430.363C813.641,421.469 821.266,408.863 824.374,405.918C831.962,398.73 847.8,392.29 864.657,387.077C890.121,379.201 917.939,374.191 923.686,374.013C947.423,373.281 988.552,378.455 1001.84,381.154C1021.25,385.097 1040.26,389.25 1055.8,402.016C1058.43,404.181 1060.68,409.596 1062.44,415.669C1065.14,424.991 1066.6,435.912 1065.83,439.778C1063.86,449.568 1059.14,461.466 1058.05,465.231C1055.83,472.856 1053,478.218 1050.3,486.307C1046.21,498.54 1041.58,509.184 1037.04,521.772C1034.12,529.887 1029.62,535.21 1026.31,539.554C1024.09,542.472 1020.68,545.3 1015.21,550.389C1006.12,558.858 996.696,564.07 986.547,570.272C981.647,573.266 963.911,581.283 959.218,582.365C951.777,584.079 944.694,585.402 936.541,585.627C927.938,585.865 916.231,584.012 907.979,581.367C894.141,576.931 886.128,572.64 874.187,564.952C863.715,558.21 859.19,553.375 848.462,543.811C843.269,539.181 839.913,533.903 837.009,529.232C834.858,525.773 833.293,520.814 831.86,517.089C830.368,513.21 828.345,508.285 826.848,504.293C825.15,499.764 823.359,494.63 821.371,490.214C817.954,482.619 815.869,474.149 813.577,466.127C812.935,463.881 811.287,457.511 810.558,454.201L810.558,454.201Z"/>
            <g transform="matrix(1,0,0,1,-1.53844,4.72404)">
                <path d="M804.238,445.18C801.744,442.506 799.145,437.361 796.625,434.139C794.177,431.009 794.317,427.989 795.054,424.792C795.633,422.282 796.987,416.922 797.94,413.43C798.856,410.076 798.689,408.486 798.678,406.01C798.645,398.534 798.103,385.064 799.651,378.726C802.959,365.185 807.056,346.716 813.049,339.376C834.197,313.469 855.494,304.86 878.931,293.759C895.702,285.815 917.309,283.504 937.024,283.26C951.69,283.078 981.917,288.433 995.979,294.427C1006.92,299.09 1016.97,304.686 1026.86,310.248C1030.75,312.437 1051.68,329.421 1059.21,341.063C1064.24,348.843 1069.09,357.463 1071.25,363.458C1074.02,371.187 1077.51,379.481 1077.48,387.64C1077.45,397.891 1076.96,405.871 1076.83,411.648C1076.8,413.478 1077.9,418.258 1078.93,422.09C1079.83,425.448 1079.39,430.36 1077.55,433.364C1075.88,436.077 1074.13,438.494 1072.29,441.164C1069.43,445.287 1067.37,446.502 1064.21,449.674C1062.78,451.114 1060.5,453.356 1057.86,455.613C1055.82,457.355 1053.64,455.737 1051.33,453.987C1045.08,449.255 1044.75,447.3 1043.45,440.31C1042.93,437.473 1041.83,432.481 1041.73,428.453C1041.56,421.753 1041.29,421.809 1038.61,423.472C1038.06,423.81 1034.12,425.673 1031.26,426.974C1028.83,428.081 1023.15,429.401 1020.37,430.133C1014,431.81 1013.83,431.342 1009.9,428.89C1008.69,428.131 1003.09,425.023 1001.17,423.896C998.994,422.615 996.558,421.179 994.419,420.012C992.756,419.105 990.165,416.54 987.17,417.209C983.427,418.045 980.447,418.612 977.315,419.395C970.017,421.22 963.209,424.761 955.437,424.543C951.029,424.42 945.993,423.936 942.821,423.143C939.547,422.325 935.987,421.572 932.393,421.523C926.402,421.442 926.612,422.968 920.124,424.027C919.012,424.208 910.007,424.732 908.071,424.468C899.576,423.307 898.246,420.894 889.662,418.97C884.387,417.788 879.414,416.557 876.982,417.908C871.924,420.718 867.536,423.305 862.19,426.51C859.703,428.001 854.083,431.604 852.28,431.118C850.439,430.622 847.817,429.971 844.848,429.054C843.014,428.487 841.172,428.132 838.27,426.951C835.719,425.913 831.705,424.019 828.323,422.235C826.458,421.251 827.436,427.973 827.328,429.859C826.962,436.222 825.937,437.876 825.026,443.84C824.397,447.961 822.794,449.306 820.105,451.884C816.365,455.468 819.517,458.284 816.615,456.12C810.662,451.681 806.663,447.779 804.238,445.18Z" style="fill:rgb(87,63,47);"/>
            </g>
            <g transform="matrix(1,0,0,1,-1.53844,4.72404)">
                <path d="M828.472,423.711C831.726,425.399 835.404,427.122 837.803,428.098C840.75,429.298 842.62,429.662 844.482,430.238C847.468,431.16 850.106,431.815 851.957,432.314C852.667,432.505 853.847,432.321 855.212,431.767C857.694,430.758 861.048,428.64 862.827,427.573C868.16,424.376 872.538,421.795 877.584,418.991C878.386,418.545 879.532,418.497 880.888,418.594C883.301,418.766 886.292,419.485 889.391,420.179C898.021,422.113 899.362,424.528 907.903,425.695C909.898,425.968 919.178,425.437 920.324,425.25C923.017,424.81 924.598,424.293 925.924,423.836C927.723,423.216 929.002,422.716 932.377,422.762C935.873,422.81 939.335,423.549 942.521,424.345C945.759,425.154 950.901,425.656 955.402,425.782C963.29,426.003 970.209,422.449 977.616,420.597C980.738,419.817 983.709,419.252 987.44,418.418C988.628,418.153 989.726,418.575 990.701,419.107C991.931,419.778 992.994,420.646 993.826,421.1C995.954,422.26 998.377,423.689 1000.54,424.964C1002.45,426.087 1008.04,429.185 1009.25,429.94C1011.41,431.291 1012.56,432.048 1014.02,432.283C1015.46,432.514 1017.24,432.238 1020.69,431.331C1023.52,430.586 1029.3,429.229 1031.78,428.102C1034.69,426.775 1038.7,424.869 1039.26,424.524C1039.58,424.326 1039.94,424.13 1040.21,423.988C1040.23,424.083 1040.25,424.183 1040.26,424.281C1040.39,425.183 1040.44,426.539 1040.49,428.484C1040.59,432.577 1041.7,437.652 1042.24,440.536C1043.61,447.923 1043.98,449.975 1050.58,454.975C1051.84,455.929 1053.08,456.829 1054.26,457.27C1055.78,457.835 1057.24,457.768 1058.66,456.555C1061.34,454.273 1063.64,452.005 1065.09,450.548C1068.31,447.317 1070.4,446.069 1073.31,441.869C1075.17,439.18 1076.93,436.745 1078.61,434.012C1080.61,430.75 1081.11,425.416 1080.13,421.769C1079.13,418.062 1078.04,413.444 1078.07,411.674C1078.19,405.891 1078.69,397.905 1078.72,387.644C1078.75,379.345 1075.23,370.901 1072.41,363.039C1070.24,356.978 1065.33,348.257 1060.25,340.39C1052.62,328.594 1031.41,311.386 1027.47,309.168C1017.54,303.584 1007.45,297.968 996.465,293.287C982.283,287.242 951.8,281.838 937.009,282.021C917.117,282.268 895.322,284.624 878.4,292.64C854.805,303.816 833.381,312.51 812.089,338.592C806.018,346.029 801.799,364.714 798.448,378.432C796.882,384.84 797.405,398.457 797.439,406.015C797.449,408.38 797.619,409.9 796.745,413.104C795.788,416.611 794.428,421.993 793.847,424.514C793.027,428.07 792.926,431.42 795.649,434.902C798.189,438.15 800.818,443.33 803.332,446.025C805.79,448.659 809.841,452.615 815.875,457.114C816.452,457.544 816.833,457.799 817.078,457.92C817.382,458.07 817.628,458.111 817.811,458.115C818.155,458.122 818.427,458.018 818.654,457.853C818.909,457.668 819.183,457.333 819.251,456.736C819.316,456.16 819.085,454.578 820.962,452.778C823.878,449.983 825.569,448.496 826.251,444.027C827.169,438.014 828.196,436.345 828.565,429.93C828.629,428.801 828.303,425.936 828.434,424.036C828.441,423.933 828.455,423.821 828.472,423.711ZM816.99,454.852C811.318,450.587 807.487,446.846 805.144,444.335C802.67,441.683 800.101,436.571 797.601,433.376C795.428,430.597 795.607,427.908 796.261,425.071C796.838,422.571 798.186,417.234 799.135,413.757C800.092,410.252 799.928,408.591 799.917,406.004C799.884,398.611 799.323,385.289 800.855,379.02C804.12,365.655 808.094,347.404 814.008,340.159C835.013,314.429 856.184,305.905 879.461,294.879C896.083,287.006 917.5,284.741 937.04,284.499C951.581,284.318 981.551,289.624 995.493,295.567C1006.39,300.211 1016.4,305.788 1026.25,311.328C1030.09,313.488 1050.74,330.249 1058.17,341.736C1063.14,349.429 1067.95,357.949 1070.08,363.877C1072.81,371.473 1076.27,379.617 1076.25,387.636C1076.21,397.878 1075.72,405.85 1075.6,411.622C1075.56,413.512 1076.67,418.454 1077.74,422.411C1078.56,425.479 1078.18,429.971 1076.5,432.715C1074.84,435.409 1073.1,437.808 1071.27,440.458C1068.47,444.504 1066.43,445.687 1063.33,448.799C1061.91,450.223 1059.67,452.44 1057.05,454.67C1056.27,455.34 1055.45,455.148 1054.6,454.714C1053.78,454.293 1052.94,453.653 1052.08,453C1046.18,448.536 1045.9,446.678 1044.67,440.085C1044.15,437.293 1043.06,432.384 1042.97,428.423C1042.89,425.408 1042.76,423.673 1042.46,422.803C1042.19,421.998 1041.74,421.612 1041.27,421.426C1040.92,421.288 1040.52,421.25 1040.06,421.361C1039.55,421.482 1038.86,421.859 1037.95,422.419C1037.42,422.751 1033.55,424.571 1030.75,425.847C1028.36,426.933 1022.79,428.217 1020.06,428.935C1017.13,429.704 1015.64,430.033 1014.42,429.836C1013.22,429.644 1012.33,428.941 1010.56,427.839C1009.34,427.078 1003.72,423.959 1001.8,422.828C999.611,421.54 997.163,420.097 995.013,418.924C994.181,418.471 993.117,417.603 991.887,416.932C990.403,416.122 988.708,415.596 986.9,416C983.146,416.839 980.156,417.408 977.015,418.193C969.825,419.99 963.128,423.519 955.471,423.305C951.157,423.184 946.226,422.717 943.122,421.941C939.758,421.1 936.101,420.334 932.41,420.284C929.208,420.241 927.664,420.634 926.052,421.172C924.591,421.661 923.07,422.291 919.925,422.804C918.847,422.98 910.116,423.497 908.239,423.24C899.789,422.086 898.47,419.674 889.933,417.761C886.702,417.037 883.58,416.302 881.065,416.122C879.135,415.984 877.523,416.19 876.38,416.825C871.31,419.642 866.912,422.235 861.553,425.447C859.851,426.468 856.652,428.507 854.279,429.471C853.834,429.652 853.423,429.793 853.065,429.87C852.879,429.91 852.723,429.954 852.602,429.922C850.772,429.428 848.165,428.782 845.214,427.87C843.409,427.312 841.594,426.966 838.737,425.803C836.215,424.776 832.246,422.903 828.901,421.139C828.205,420.772 827.631,420.852 827.169,421.108C826.718,421.357 826.279,421.93 826.092,422.843C825.724,424.647 826.169,428.433 826.091,429.788C825.728,436.098 824.704,437.738 823.801,443.653C823.225,447.427 821.71,448.629 819.247,450.989C817.862,452.318 817.255,453.776 816.99,454.852Z" style="fill:none;"/>
            </g>
            <path d="M800.148,444.915C797.654,442.242 795.054,437.096 792.534,433.874C790.086,430.744 790.226,427.724 790.964,424.528C791.543,422.017 792.896,416.658 793.849,413.166C794.765,409.811 794.598,408.221 794.587,405.745C794.554,398.269 794.012,384.8 795.561,378.461C798.869,364.92 807.056,346.716 813.049,339.376C834.197,313.469 855.494,304.86 878.931,293.759C895.702,285.815 917.309,283.504 937.024,283.26C951.69,283.078 981.917,288.433 995.979,294.427C1006.92,299.09 1016.97,304.686 1026.86,310.248C1030.75,312.437 1051.68,329.421 1059.21,341.063C1064.24,348.843 1069.09,357.463 1071.25,363.458C1074.02,371.187 1077.51,379.481 1077.48,387.64C1077.45,397.891 1076.96,405.871 1076.83,411.648C1076.8,413.478 1077.9,418.258 1078.93,422.09C1079.83,425.448 1079.39,430.36 1077.55,433.364C1075.88,436.077 1074.13,438.494 1072.29,441.164C1069.43,445.287 1067.37,446.502 1064.21,449.674C1062.78,451.114 1060.5,453.356 1057.86,455.613C1055.82,457.355 1053.64,455.737 1051.33,453.987C1045.08,449.255 1044.75,447.3 1043.45,440.31C1042.93,437.473 1041.83,432.481 1041.73,428.453C1041.56,421.753 1041.29,421.809 1038.61,423.472C1038.06,423.81 1034.12,425.673 1031.26,426.974C1028.83,428.081 1023.15,429.401 1020.37,430.133C1014,431.81 1013.83,431.342 1009.9,428.89C1008.69,428.131 1003.09,425.023 1001.17,423.896C998.994,422.615 996.558,421.179 994.419,420.012C992.756,419.105 990.165,416.54 987.17,417.209C983.427,418.045 980.447,418.612 977.315,419.395C970.017,421.22 963.209,424.761 955.437,424.543C951.029,424.42 945.993,423.936 942.821,423.143C939.547,422.325 935.987,421.572 932.393,421.523C926.402,421.442 926.612,422.968 920.124,424.027C919.012,424.208 910.007,424.732 908.071,424.468C899.576,423.307 898.246,420.894 889.662,418.97C884.387,417.788 879.414,416.557 876.982,417.908C871.924,420.718 867.536,423.305 862.19,426.51C859.703,428.001 854.083,431.604 852.28,431.118C850.439,430.622 847.817,429.971 844.848,429.054C843.014,428.487 841.172,428.132 838.27,426.951C835.719,425.913 831.705,424.019 828.323,422.235C826.458,421.251 827.436,427.973 827.328,429.859C826.962,436.222 825.937,437.876 825.026,443.84C824.397,447.961 822.794,449.306 820.105,451.884C816.365,455.468 815.426,458.019 812.525,455.856C806.571,451.417 802.573,447.515 800.148,444.915Z" style="fill:rgb(112,78,56);"/>
            <path d="M828.472,423.711C831.726,425.399 835.404,427.122 837.803,428.098C840.75,429.298 842.62,429.662 844.482,430.238C847.468,431.16 850.106,431.815 851.957,432.314C852.667,432.505 853.847,432.321 855.212,431.767C857.694,430.758 861.048,428.64 862.827,427.573C868.16,424.376 872.538,421.795 877.584,418.991C878.386,418.545 879.532,418.497 880.888,418.594C883.301,418.766 886.292,419.485 889.391,420.179C898.021,422.113 899.362,424.528 907.903,425.695C909.898,425.968 919.178,425.437 920.324,425.25C923.017,424.81 924.598,424.293 925.924,423.836C927.723,423.216 929.002,422.716 932.377,422.762C935.873,422.81 939.335,423.549 942.521,424.345C945.759,425.154 950.901,425.656 955.402,425.782C963.29,426.003 970.209,422.449 977.616,420.597C980.738,419.817 983.709,419.252 987.44,418.418C988.628,418.153 989.726,418.575 990.701,419.107C991.931,419.778 992.994,420.646 993.826,421.1C995.954,422.26 998.377,423.689 1000.54,424.964C1002.45,426.087 1008.04,429.185 1009.25,429.94C1011.41,431.291 1012.56,432.048 1014.02,432.283C1015.46,432.514 1017.24,432.238 1020.69,431.331C1023.52,430.586 1029.3,429.229 1031.78,428.102C1034.69,426.775 1038.7,424.869 1039.26,424.524C1039.58,424.326 1039.94,424.13 1040.21,423.988C1040.23,424.083 1040.25,424.183 1040.26,424.281C1040.39,425.183 1040.44,426.539 1040.49,428.484C1040.59,432.577 1041.7,437.652 1042.24,440.536C1043.61,447.923 1043.98,449.975 1050.58,454.975C1051.84,455.929 1053.08,456.829 1054.26,457.27C1055.78,457.835 1057.24,457.768 1058.66,456.555C1061.34,454.273 1063.64,452.005 1065.09,450.548C1068.31,447.317 1070.4,446.069 1073.31,441.869C1075.17,439.18 1076.93,436.745 1078.61,434.012C1080.61,430.75 1081.11,425.416 1080.13,421.769C1079.13,418.062 1078.04,413.444 1078.07,411.674C1078.19,405.891 1078.69,397.905 1078.72,387.644C1078.75,379.345 1075.23,370.901 1072.41,363.039C1070.24,356.978 1065.33,348.257 1060.25,340.39C1052.62,328.594 1031.41,311.386 1027.47,309.168C1017.54,303.584 1007.45,297.968 996.465,293.287C982.283,287.242 951.8,281.838 937.009,282.021C917.117,282.268 895.322,284.624 878.4,292.64C854.805,303.816 833.381,312.51 812.089,338.592C806.02,346.026 797.708,364.453 794.357,378.167C792.791,384.576 793.315,398.192 793.348,405.75C793.359,408.116 793.529,409.636 792.654,412.839C791.697,416.346 790.338,421.728 789.756,424.249C788.936,427.805 788.835,431.156 791.559,434.638C794.099,437.885 796.728,443.066 799.242,445.76L799.242,445.76C801.699,448.395 805.751,452.35 811.784,456.849C812.779,457.591 813.627,457.878 814.387,457.891C815.205,457.904 815.968,457.611 816.754,457.009C817.843,456.175 819.048,454.613 820.962,452.778C823.878,449.983 825.569,448.496 826.251,444.027C827.169,438.014 828.196,436.345 828.565,429.93C828.629,428.801 828.303,425.936 828.434,424.036C828.441,423.933 828.455,423.821 828.472,423.711ZM801.054,444.07C798.58,441.418 796.01,436.307 793.51,433.111C791.337,430.333 791.516,427.643 792.171,424.806C792.747,422.306 794.095,416.969 795.045,413.492C796.001,409.987 795.838,408.327 795.826,405.739C795.793,398.346 795.233,385.024 796.764,378.755C800.03,365.387 808.093,347.406 814.008,340.159C835.013,314.429 856.184,305.905 879.461,294.879C896.083,287.006 917.5,284.741 937.04,284.499C951.581,284.318 981.551,289.624 995.493,295.567C1006.39,300.211 1016.4,305.788 1026.25,311.328C1030.09,313.488 1050.74,330.249 1058.17,341.736C1063.14,349.429 1067.95,357.949 1070.08,363.877C1072.81,371.473 1076.27,379.617 1076.25,387.636C1076.21,397.878 1075.72,405.85 1075.6,411.622C1075.56,413.512 1076.67,418.454 1077.74,422.411C1078.56,425.479 1078.18,429.971 1076.5,432.715C1074.84,435.409 1073.1,437.808 1071.27,440.458C1068.47,444.504 1066.43,445.687 1063.33,448.799C1061.91,450.223 1059.67,452.44 1057.05,454.67C1056.27,455.34 1055.45,455.148 1054.6,454.714C1053.78,454.293 1052.94,453.653 1052.08,453C1046.18,448.536 1045.9,446.678 1044.67,440.085C1044.15,437.293 1043.06,432.384 1042.97,428.423C1042.89,425.408 1042.76,423.673 1042.46,422.803C1042.19,421.998 1041.74,421.612 1041.27,421.426C1040.92,421.288 1040.52,421.25 1040.06,421.361C1039.55,421.482 1038.86,421.859 1037.95,422.419C1037.42,422.751 1033.55,424.571 1030.75,425.847C1028.36,426.933 1022.79,428.217 1020.06,428.935C1017.13,429.704 1015.64,430.033 1014.42,429.836C1013.22,429.644 1012.33,428.941 1010.56,427.839C1009.34,427.078 1003.72,423.959 1001.8,422.828C999.611,421.54 997.163,420.097 995.013,418.924C994.181,418.471 993.117,417.603 991.887,416.932C990.403,416.122 988.708,415.596 986.9,416C983.146,416.839 980.156,417.408 977.015,418.193C969.825,419.99 963.128,423.519 955.471,423.305C951.157,423.184 946.226,422.717 943.122,421.941C939.758,421.1 936.101,420.334 932.41,420.284C929.208,420.241 927.664,420.634 926.052,421.172C924.591,421.661 923.07,422.291 919.925,422.804C918.847,422.98 910.116,423.497 908.239,423.24C899.789,422.086 898.47,419.674 889.933,417.761C886.702,417.037 883.58,416.302 881.065,416.122C879.135,415.984 877.523,416.19 876.38,416.825C871.31,419.642 866.912,422.235 861.553,425.447C859.851,426.468 856.652,428.507 854.279,429.471C853.834,429.652 853.423,429.793 853.065,429.87C852.879,429.91 852.723,429.954 852.602,429.922C850.772,429.428 848.165,428.782 845.214,427.87C843.409,427.312 841.594,426.966 838.737,425.803C836.215,424.776 832.246,422.903 828.901,421.139C828.205,420.772 827.631,420.852 827.169,421.108C826.718,421.357 826.279,421.93 826.092,422.843C825.724,424.647 826.169,428.433 826.091,429.788C825.728,436.098 824.704,437.738 823.801,443.653C823.225,447.427 821.71,448.629 819.247,450.989C817.751,452.423 816.704,453.692 815.799,454.559C815.344,454.996 814.979,455.338 814.545,455.405C814.162,455.465 813.782,455.248 813.265,454.862C807.392,450.483 803.446,446.635 801.054,444.07L801.054,444.07Z"/>
            <path d="M903.416,549.277C904.845,549.594 914.458,552.37 917.967,552.91C921.893,553.514 925.654,554.096 929.635,554.262C937.099,554.573 944.09,554.127 951.976,552.971C956.838,552.258 962.314,549.756 965.14,549.329C965.816,549.226 966.282,548.594 966.18,547.918C966.078,547.242 965.446,546.776 964.769,546.879C961.946,547.306 956.474,549.807 951.617,550.519C943.894,551.652 937.048,552.091 929.738,551.786C925.85,551.624 922.178,551.05 918.344,550.46C914.873,549.926 905.367,547.172 903.953,546.858C903.286,546.709 902.624,547.131 902.475,547.798C902.327,548.466 902.748,549.128 903.416,549.277Z"/>
            <path d="M914.817,527.846C912.53,535.983 923.587,539.227 932.841,539.035C940.182,538.883 951.633,537.09 953.691,531.226C955.291,526.669 950.501,521.436 948.903,518.239C947.68,515.793 944.573,510.597 940.52,505.099C934.632,497.114 930.673,500.911 925.026,507.762C923.481,509.637 915.33,526.019 914.817,527.846Z" style="fill:rgb(210,153,84);"/>
            <path d="M923.996,533.301C919.769,530.73 917.321,524.421 918.73,519.626C920.563,513.391 927.909,509.335 934.047,508.777C937.536,508.46 945.014,511.079 947.062,515.593C951.528,525.434 949.585,530.264 941.525,534.424C938.158,536.162 930.116,537.025 923.996,533.301Z" style="fill:rgb(227,207,182);"/>
            <path d="M923.352,534.36C929.894,538.341 938.494,537.383 942.093,535.525C946.489,533.256 949.152,530.739 950.172,527.512C951.178,524.332 950.592,520.372 948.191,515.081C947.273,513.059 945.41,511.349 943.222,510.08C940.044,508.238 936.205,507.336 933.935,507.543C927.342,508.142 919.51,512.58 917.542,519.277C915.987,524.565 918.69,531.524 923.352,534.36ZM924.64,532.243C920.849,529.936 918.655,524.276 919.919,519.975C921.616,514.202 928.475,510.527 934.16,510.011C936.076,509.836 939.296,510.669 941.979,512.224C943.699,513.221 945.213,514.516 945.934,516.105C947.999,520.655 948.674,524.031 947.81,526.765C946.959,529.455 944.621,531.432 940.957,533.323C937.822,534.941 930.337,535.71 924.64,532.243Z"/>
            <path d="M972.73,469.134C976.94,464.269 977.444,464.66 978.441,463.995C979.972,462.974 981.86,460.95 983.535,460.469C989.083,458.874 997.061,458.175 1003.65,459.117C1007.67,459.691 1011.37,460.523 1014.52,462.767C1016.53,464.21 1019.38,466.826 1020.84,468.91C1022.76,471.626 1024.2,473.25 1024.95,475.258C1026.74,480.009 1026.95,489.717 1026.4,494.674C1025.92,498.99 1022.7,506.257 1021.22,508.412C1017.6,513.665 1013.71,517.043 1010.07,518.984C1001,523.808 990.215,523.052 984.496,519.705C981.168,517.757 974.584,513.035 971.814,508.337C969.179,503.869 966.06,497.746 966.248,490.543C966.439,483.212 967.807,474.823 972.73,469.134Z" style="fill:rgb(240,242,230);"/>
            <clipPath id="_clip1">
                <path d="M972.73,469.134C976.94,464.269 977.444,464.66 978.441,463.995C979.972,462.974 981.86,460.95 983.535,460.469C989.083,458.874 997.061,458.175 1003.65,459.117C1007.67,459.691 1011.37,460.523 1014.52,462.767C1016.53,464.21 1019.38,466.826 1020.84,468.91C1022.76,471.626 1024.2,473.25 1024.95,475.258C1026.74,480.009 1026.95,489.717 1026.4,494.674C1025.92,498.99 1022.7,506.257 1021.22,508.412C1017.6,513.665 1013.71,517.043 1010.07,518.984C1001,523.808 990.215,523.052 984.496,519.705C981.168,517.757 974.584,513.035 971.814,508.337C969.179,503.869 966.06,497.746 966.248,490.543C966.439,483.212 967.807,474.823 972.73,469.134Z"/>
            </clipPath>
            <g clip-path="url(#_clip1)">
                <g transform="matrix(1.10663,0,0,1.10663,-648.873,-49.0146)">
                    <path d="M1484.15,480.367C1481.99,480.639 1481.08,482.944 1481.08,483.96C1481.06,487.628 1481.9,488.022 1482.75,489.014C1485.12,491.784 1489.75,488.98 1490.08,486.01C1490.45,482.681 1487.44,479.953 1484.15,480.367Z"/>
                </g>
            </g>
            <path d="M971.793,468.324C966.687,474.224 965.208,482.907 965.009,490.51C964.815,497.978 968.015,504.335 970.746,508.966C973.618,513.836 980.42,518.755 983.87,520.774C989.86,524.279 1001.16,525.129 1010.65,520.078C1014.44,518.062 1018.48,514.569 1022.24,509.115C1023.78,506.871 1027.13,499.304 1027.63,494.811C1028.2,489.707 1027.95,479.715 1026.12,474.822C1025.33,472.732 1023.85,471.025 1021.86,468.196C1020.32,466.014 1017.35,463.269 1015.24,461.759C1011.93,459.4 1008.05,458.494 1003.83,457.89C997.067,456.925 988.884,457.642 983.192,459.278C982.397,459.507 981.551,460.01 980.718,460.631C979.684,461.402 978.657,462.362 977.754,462.964C976.713,463.658 976.185,463.248 971.793,468.324L971.793,468.324ZM973.667,469.945C977.694,465.29 978.174,465.662 979.129,465.025C979.919,464.499 980.804,463.716 981.705,462.999C982.439,462.416 983.172,461.862 983.877,461.66C989.283,460.106 997.056,459.426 1003.48,460.344C1007.29,460.888 1010.82,461.646 1013.8,463.776C1015.72,465.15 1018.43,467.638 1019.83,469.624C1021.67,472.227 1023.07,473.769 1023.8,475.693C1025.52,480.304 1025.7,489.727 1025.17,494.537C1024.71,498.675 1021.62,505.643 1020.2,507.709C1016.72,512.762 1012.99,516.023 1009.48,517.89C1000.85,522.486 990.571,521.824 985.122,518.635C981.915,516.759 975.55,512.234 972.881,507.708C970.342,503.403 967.306,497.515 967.487,490.575C967.671,483.517 968.927,475.422 973.667,469.945L973.667,469.945Z"/>
            <path d="M980.118,461.382C977.109,463.414 979.682,464.223 981.434,463.988C986.436,463.319 993.987,462.568 997.608,462.956C1003.83,463.622 1007.28,464.083 1013.32,466.996C1016.59,468.572 1021.05,472.334 1022.95,473.576C1024.98,474.896 1025.76,472.697 1023.7,470.016C1021.65,467.347 1018.72,464.333 1017.71,463.324C1015.57,461.179 1012.7,460.13 1009.47,459.231C1007.42,458.661 1003,457.471 999.814,457.42C992.936,457.309 985.351,457.847 980.118,461.382Z" style="fill:rgb(209,151,81);"/>
            <path d="M979.425,460.355C977.431,461.701 977.34,462.987 977.626,463.704C977.803,464.147 978.163,464.545 978.701,464.821C979.439,465.199 980.613,465.348 981.599,465.216C986.509,464.559 993.921,463.807 997.476,464.188C1003.53,464.837 1006.9,465.275 1012.78,468.112C1016,469.667 1020.4,473.388 1022.28,474.614C1023.86,475.648 1025.06,475.212 1025.67,474.421C1026.01,473.975 1026.22,473.3 1026.13,472.443C1026.03,471.581 1025.6,470.452 1024.68,469.261C1022.6,466.544 1019.62,463.475 1018.59,462.448C1016.3,460.157 1013.25,458.998 1009.8,458.038C1007.69,457.449 1003.12,456.234 999.834,456.181C992.702,456.066 984.851,456.69 979.425,460.355ZM1023.62,472.533C1021.69,471.267 1017.16,467.475 1013.86,465.88C1007.66,462.891 1004.12,462.408 997.74,461.724C994.053,461.329 986.363,462.078 981.27,462.76C981.026,462.793 980.684,462.758 980.391,462.712C980.511,462.617 980.651,462.517 980.812,462.408C985.852,459.005 993.17,458.552 999.794,458.659C1002.87,458.708 1007.15,459.873 1009.13,460.425C1012.14,461.263 1014.84,462.201 1016.84,464.2C1017.83,465.191 1020.71,468.15 1022.72,470.77C1023.13,471.31 1023.41,471.822 1023.56,472.275C1023.59,472.354 1023.61,472.444 1023.62,472.533Z"/>
            <path d="M969.885,443.657C967.998,445.548 965.619,449.615 970.73,450.088C975.938,450.569 978.093,451.081 982.444,448.26C988.338,444.439 998.701,444.372 1008,444.85C1011.95,445.053 1016.97,446.478 1019.64,447.367C1021.75,448.069 1023.59,447.981 1024.04,447.538C1024.92,446.652 1023.68,446.181 1021.86,444.915C1018.3,442.448 1014.98,440.642 1010.71,439.575C1001.05,437.158 990.899,437.313 980.784,439.511C976.571,440.427 971.6,441.938 969.885,443.657Z" style="fill:rgb(87,63,47);"/>
            <path d="M969.008,442.781C968.094,443.698 967.094,445.066 966.662,446.375C966.286,447.515 966.327,448.62 966.89,449.51C967.433,450.368 968.538,451.129 970.616,451.321C976.18,451.836 978.47,452.313 983.118,449.3C988.839,445.591 998.911,445.624 1007.94,446.088C1011.77,446.285 1016.65,447.679 1019.25,448.543C1020.97,449.113 1022.53,449.208 1023.49,449.052C1024.18,448.941 1024.65,448.673 1024.91,448.414C1025.34,447.987 1025.51,447.571 1025.55,447.2C1025.61,446.743 1025.5,446.291 1025.16,445.845C1024.77,445.337 1023.8,444.758 1022.56,443.897C1018.88,441.342 1015.44,439.479 1011.01,438.373C1001.16,435.91 990.826,436.061 980.521,438.3C977.925,438.865 975.05,439.652 972.783,440.57C971.126,441.242 969.781,442.007 969.008,442.781ZM1022.15,446.63C1021.54,446.588 1020.81,446.449 1020.03,446.192C1017.28,445.278 1012.12,443.821 1008.07,443.613C998.491,443.121 987.837,443.287 981.77,447.22C977.716,449.849 975.697,449.303 970.844,448.854C969.852,448.762 969.243,448.594 968.984,448.185C968.799,447.892 968.891,447.527 969.015,447.152C969.332,446.192 970.091,445.204 970.762,444.532L970.762,444.532C971.361,443.932 972.43,443.388 973.714,442.867C975.861,441.997 978.587,441.257 981.047,440.722C990.971,438.565 1000.93,438.405 1010.41,440.777C1014.53,441.806 1017.73,443.555 1021.15,445.932L1022.15,446.63Z"/>
            <path d="M890.574,462.996C888.356,460.835 885.34,459.967 882.015,459.22C872.312,457.038 866.876,458.037 858.948,460.416C854.9,461.63 851.342,463.209 848.445,466.685C846.05,469.559 844.39,474.977 843.799,478.526C841.909,489.873 842.436,496.299 846.012,505.521C848.293,511.404 855.148,517.468 860.568,519.649C866.626,522.086 871.088,522.61 876.916,522.319C879.299,522.201 890.1,515.98 891.701,514.112C898.215,506.513 899.5,504.51 901.931,494.786C902.865,491.05 901.63,481.011 900.233,477.397C897.386,470.035 893.206,465.562 890.574,462.996Z" style="fill:rgb(240,242,230);"/>
            <clipPath id="_clip2">
                <path d="M890.574,462.996C888.356,460.835 885.34,459.967 882.015,459.22C872.312,457.038 866.876,458.037 858.948,460.416C854.9,461.63 851.342,463.209 848.445,466.685C846.05,469.559 844.39,474.977 843.799,478.526C841.909,489.873 842.436,496.299 846.012,505.521C848.293,511.404 855.148,517.468 860.568,519.649C866.626,522.086 871.088,522.61 876.916,522.319C879.299,522.201 890.1,515.98 891.701,514.112C898.215,506.513 899.5,504.51 901.931,494.786C902.865,491.05 901.63,481.011 900.233,477.397C897.386,470.035 893.206,465.562 890.574,462.996Z"/>
            </clipPath>
            <g clip-path="url(#_clip2)">
                <g transform="matrix(-1.10663,0,0,1.10663,2521.49,-49.0146)">
                    <path d="M1484.15,480.367C1481.99,480.639 1481.08,482.944 1481.08,483.96C1481.06,487.628 1481.9,488.022 1482.75,489.014C1485.12,491.784 1489.75,488.98 1490.08,486.01C1490.45,482.681 1487.44,479.953 1484.15,480.367Z"/>
                </g>
            </g>
            <path d="M891.438,462.109C889.061,459.792 885.851,458.812 882.287,458.011C872.32,455.77 866.735,456.786 858.592,459.229C854.308,460.514 850.559,462.213 847.493,465.892C844.976,468.912 843.198,474.593 842.577,478.322C840.641,489.944 841.194,496.524 844.857,505.969C847.249,512.138 854.422,518.512 860.105,520.798C866.358,523.313 870.962,523.857 876.978,523.557C878.012,523.505 880.534,522.457 883.268,521.013C887.209,518.93 891.64,516.087 892.642,514.918C899.325,507.121 900.639,505.064 903.133,495.086C904.107,491.191 902.845,480.718 901.388,476.951C898.455,469.364 894.151,464.752 891.438,462.109ZM889.709,463.884C892.261,466.371 896.317,470.706 899.077,477.844C900.414,481.303 901.623,490.91 900.729,494.485C898.362,503.957 897.105,505.904 890.761,513.306C889.841,514.378 885.727,516.911 882.11,518.822C879.805,520.039 877.727,521.038 876.854,521.082C871.213,521.363 866.894,520.858 861.03,518.499C855.873,516.425 849.337,510.671 847.167,505.073C843.677,496.074 843.177,489.802 845.021,478.729C845.582,475.361 847.124,470.206 849.397,467.479C852.125,464.205 855.492,462.746 859.304,461.602C867.016,459.289 872.304,458.307 881.743,460.428C884.829,461.122 887.65,461.877 889.709,463.884Z"/>
            <path d="M889.581,461.594C892.084,462.973 891.433,463.737 888.226,463.5C885.922,463.329 879.048,462.73 876.555,462.668C867.771,462.448 859.289,464.489 854.447,467.493C851.893,469.077 847.51,472.367 846.564,473.223C844.721,474.892 843.582,473.534 844.483,471.886C847.585,466.212 850.6,462.873 854.129,461.108C862.961,456.692 870.111,456.284 879.736,457.488C881.229,457.674 888.305,460.892 889.581,461.594Z" style="fill:rgb(209,151,81);"/>
            <path d="M890.179,460.509C888.847,459.776 881.448,456.453 879.89,456.258C869.997,455.022 862.652,455.462 853.575,460C849.865,461.855 846.656,465.328 843.396,471.292C842.579,472.787 842.969,474.137 843.699,474.748C844.401,475.336 845.788,475.597 847.395,474.142C848.319,473.305 852.604,470.094 855.1,468.546C859.791,465.636 868.015,463.693 876.524,463.906C879.004,463.968 885.842,464.566 888.134,464.735C889.471,464.834 890.434,464.755 890.995,464.581C891.515,464.42 891.841,464.156 892.035,463.898C892.37,463.452 892.468,462.932 892.223,462.331C892.039,461.881 891.428,461.197 890.179,460.509ZM888.135,462.25C885.659,462.063 879.03,461.49 876.586,461.429C867.528,461.202 858.788,463.342 853.793,466.44C851.181,468.06 846.7,471.429 845.732,472.305C845.695,472.339 845.654,472.372 845.613,472.403C848.541,467.065 851.35,463.883 854.683,462.217C863.27,457.923 870.224,457.547 879.582,458.717C880.803,458.87 885.915,461.166 888.135,462.25Z"/>
            <path d="M898.44,444.091C897.512,443.46 896.557,442.484 893.568,441.761C890.007,440.9 884.299,439.694 880.488,439.149C869.763,437.617 864.742,437.362 854.276,440.851C851.559,441.757 849.116,442.149 846.065,445.103C844.177,446.93 844.917,448.897 848.247,447.581C851.412,446.331 856.203,445.032 859.568,444.615C864.173,444.046 868.393,444.678 871.903,444.797C883.066,445.176 884.287,448.349 891.242,450.164C892.723,450.55 895.8,450.258 897.265,450C901.11,449.326 901.06,445.873 898.44,444.091Z" style="fill:rgb(87,63,47);"/>
            <path d="M899.136,443.067C898.133,442.384 897.094,441.339 893.859,440.557C890.266,439.688 884.508,438.472 880.663,437.923C869.706,436.358 864.577,436.111 853.884,439.675C851.006,440.635 848.436,441.084 845.204,444.212C843.689,445.679 843.578,447.309 844.164,448.201C844.47,448.667 844.97,449.043 845.713,449.188C846.403,449.322 847.406,449.246 848.703,448.734C851.782,447.517 856.445,446.25 859.721,445.845C864.253,445.284 868.406,445.918 871.861,446.035C878.308,446.254 881.312,447.434 884.129,448.726C886.139,449.648 888.062,450.614 890.929,451.363C892.539,451.783 895.886,451.5 897.479,451.221C899.551,450.857 900.725,449.809 901.232,448.632C901.999,446.85 901.273,444.52 899.136,443.067ZM846.362,446.73L846.364,446.725C846.478,446.488 846.671,446.241 846.927,445.993C849.797,443.215 852.112,442.878 854.668,442.026C864.907,438.613 869.821,438.877 880.313,440.376C884.09,440.915 889.747,442.112 893.276,442.965C896.021,443.629 896.891,444.536 897.743,445.116C898.753,445.803 899.319,446.81 898.956,447.652C898.71,448.224 898.057,448.603 897.051,448.78C895.714,449.015 892.906,449.318 891.555,448.965C888.858,448.261 887.053,447.341 885.162,446.474C882.127,445.081 878.893,443.795 871.945,443.559C868.38,443.438 864.093,442.807 859.416,443.386C855.961,443.813 851.041,445.146 847.792,446.429C847.259,446.64 846.675,446.708 846.362,446.73Z"/>
            <path d="M896.378,577.429C889.126,575.023 886.564,572.496 886.549,580.67C886.541,584.994 887.935,593.47 889.535,595.069C894.162,599.697 898.44,601.976 903.403,605.591C910.417,610.7 926.857,615.533 937.384,615.18C950.12,614.752 960.585,610.439 977.038,597.577C982.559,593.26 984.942,588.599 985.349,582.205C985.912,573.384 982.972,572.544 976.698,576.221C972.855,578.474 965.076,580.958 961.002,582.184C945.445,586.864 944.027,588.186 927.703,586.976C921.327,586.503 904.008,579.96 896.378,577.429Z" style="fill:rgb(178,71,130);"/>
            <path d="M896.768,576.253C894.126,575.376 892.097,574.487 890.584,574.09C889.194,573.725 888.122,573.775 887.32,574.225C886.716,574.564 886.211,575.13 885.868,576.053C885.508,577.022 885.314,578.503 885.31,580.668C885.304,583.787 886.006,589.002 886.993,592.415C887.48,594.1 888.089,595.376 888.658,595.946C893.337,600.625 897.656,602.937 902.674,606.593C909.848,611.818 926.658,616.78 937.425,616.418C950.387,615.982 961.058,611.643 977.801,598.553C983.643,593.986 986.154,589.049 986.586,582.283C986.769,579.416 986.579,577.329 986.083,575.917C985.663,574.718 985.016,573.93 984.216,573.459C983.414,572.987 982.429,572.819 981.251,573C979.859,573.215 978.124,573.949 976.072,575.152C972.296,577.365 964.648,579.793 960.645,580.997C945.296,585.615 943.9,586.934 927.794,585.74C921.477,585.272 904.328,578.761 896.768,576.253L896.768,576.253ZM895.988,578.605C903.689,581.16 921.176,587.734 927.611,588.211C944.155,589.438 945.593,588.114 961.359,583.37C965.505,582.123 973.415,579.582 977.325,577.29C978.775,576.44 980.027,575.841 981.089,575.563C981.852,575.364 982.478,575.311 982.959,575.594C983.444,575.88 983.713,576.469 983.91,577.313C984.184,578.487 984.244,580.075 984.113,582.126C983.729,588.149 981.475,592.535 976.275,596.601C960.113,609.236 949.854,613.521 937.342,613.941C927.056,614.287 910.986,609.582 904.133,604.59C899.224,601.014 894.987,598.77 890.411,594.193C890.02,593.803 889.707,592.882 889.373,591.727C888.444,588.515 887.783,583.607 887.788,580.672C887.791,579.174 887.875,578.067 888.08,577.274C888.194,576.834 888.289,576.522 888.533,576.386C888.883,576.189 889.348,576.328 889.955,576.487C891.431,576.874 893.409,577.749 895.988,578.605L895.988,578.605Z"/>
            <path d="M795.62,407.409C795.925,406.716 799.528,394.671 803.091,387.477C807.506,378.56 815.511,363.453 825.954,356.14C836.109,349.029 846.043,342.832 859.225,337.155C876.304,329.8 892.687,323.918 920.414,323.119C945.835,322.386 966.176,323.03 983.533,328.01C1006.88,334.71 1021.11,341.387 1044.18,356.219C1052.54,361.595 1062.11,375.139 1068.52,389.891C1072.75,399.612 1076.23,414.469 1076.41,414.469C1077.88,414.469 1077.39,406.362 1077.42,405.43C1077.68,395.051 1076.4,387.757 1075.01,379.382C1074.37,375.514 1072.48,369.271 1070.75,364.916C1068.5,359.27 1064.16,352.017 1060.75,347.19C1048.45,329.745 1032.97,318.508 1013.46,308.363C1007.74,305.39 987.74,297.005 981.516,295.43C965.634,291.41 944.617,290.146 923.818,290.722C901.277,291.345 876.297,299.317 855.826,309.272C831.656,321.026 817.878,335.25 811.047,345.771C803.684,357.11 796.402,374.386 795.162,384.266C793.899,394.321 793.158,412.994 795.62,407.409Z" style="fill:rgb(178,71,130);"/>
            <path d="M796.754,407.909C797.058,407.218 800.648,395.202 804.201,388.027C808.547,379.25 816.386,364.353 826.665,357.155C836.752,350.091 846.62,343.932 859.715,338.293C876.667,330.992 892.928,325.151 920.45,324.357C945.718,323.628 965.938,324.251 983.192,329.201C1006.42,335.865 1020.56,342.51 1043.51,357.261C1051.73,362.544 1061.08,375.888 1067.39,390.385C1071.17,399.08 1074.34,411.912 1075.07,414.392C1075.22,414.916 1075.4,415.193 1075.44,415.249C1075.78,415.661 1076.16,415.708 1076.41,415.708C1077.1,415.708 1077.89,415.21 1078.26,413.974C1078.92,411.785 1078.64,406.237 1078.66,405.462C1078.92,394.989 1077.64,387.629 1076.23,379.178C1075.58,375.243 1073.66,368.89 1071.9,364.458C1069.62,358.731 1065.22,351.372 1061.77,346.476C1049.35,328.864 1033.73,317.506 1014.03,307.263C1008.27,304.266 988.095,295.817 981.82,294.229C965.845,290.186 944.705,288.904 923.784,289.483C901.076,290.112 875.907,298.129 855.284,308.158C830.837,320.047 816.917,334.454 810.008,345.096C802.547,356.586 795.189,374.101 793.932,384.112C793.219,389.794 792.671,398.204 792.763,403.514C792.806,406.015 793.037,407.883 793.38,408.629C793.797,409.538 794.473,409.733 795.035,409.656C795.299,409.62 795.597,409.51 795.893,409.245C796.135,409.027 796.446,408.607 796.754,407.909ZM1076.24,409.269C1074.8,404.05 1072.38,395.663 1069.66,389.397C1063.13,374.391 1053.36,360.646 1044.85,355.177C1021.65,340.265 1007.35,333.556 983.875,326.82C966.413,321.809 945.952,321.143 920.379,321.88C892.445,322.686 875.94,328.607 858.735,336.017C845.466,341.731 835.465,347.967 825.243,355.125C814.635,362.553 806.466,377.87 801.981,386.927C799.293,392.354 796.58,400.535 795.271,404.549L795.269,404.524C795.074,399.438 795.641,390.394 796.391,384.42C797.615,374.672 804.821,357.634 812.086,346.445C818.839,336.045 832.475,322.005 856.368,310.386C876.687,300.505 901.479,292.579 923.852,291.96C944.529,291.388 965.424,292.635 981.212,296.631C987.384,298.193 1007.22,306.514 1012.89,309.462C1032.21,319.51 1047.56,330.625 1059.74,347.904C1063.1,352.661 1067.38,359.808 1069.59,365.374C1071.3,369.653 1073.15,375.785 1073.79,379.586C1075.17,387.885 1076.44,395.113 1076.18,405.399C1076.17,405.791 1076.25,407.471 1076.24,409.269Z"/>
        </g>
    </g>
</svg>
