<?xml version="1.0" encoding="UTF-8" standalone="no"?>
<!DOCTYPE svg PUBLIC "-//W3C//DTD SVG 1.1//EN" "http://www.w3.org/Graphics/SVG/1.1/DTD/svg11.dtd">
<svg width="100%" height="100%" viewBox="0 0 295 381" version="1.1" xmlns="http://www.w3.org/2000/svg" xmlns:xlink="http://www.w3.org/1999/xlink" xml:space="preserve" xmlns:serif="http://www.serif.com/" style="fill-rule:evenodd;clip-rule:evenodd;stroke-linejoin:round;stroke-miterlimit:2;">
    <g transform="matrix(1,0,0,1,-1267.11,-261.423)">
        <g id="Ebene1">
            <path d="M1376.53,594.761C1379.24,596.023 1381.4,594.991 1383.91,593.235C1388.64,589.924 1392.3,587.548 1396.84,581.351C1397.76,580.096 1399.17,576.546 1400.77,575.749C1402.6,574.833 1433.1,576.044 1433.88,576.689C1436.86,579.177 1437.12,582.882 1439.91,585.667C1441.82,587.58 1444.22,590.039 1446.3,591.255C1449.55,593.157 1452.27,594.919 1455.81,594.558C1458.59,594.273 1459,599.312 1458.93,600.067C1458.32,606.81 1451.53,611.665 1447.41,616.242C1445.13,618.773 1436.69,624.165 1435.31,625.202C1431.64,627.952 1428.28,629.457 1424.25,631.718C1418.81,634.774 1413.3,633.415 1409.36,631.718C1407.16,630.772 1405,629.361 1402.84,628.576C1401.35,628.035 1385.46,619.094 1384.22,618.104C1382.66,616.853 1374.61,610.66 1373.63,607.747C1372.64,604.761 1372.08,599.389 1374.1,596.693C1374.44,596.246 1375.94,594.485 1376.53,594.761Z" style="fill:rgb(219,196,168);"/>
            <path d="M1377.38,592.949C1376.82,592.687 1376.07,592.614 1375.24,592.999C1374.3,593.438 1372.86,595.008 1372.5,595.493C1371.49,596.847 1370.93,598.719 1370.78,600.741C1370.58,603.432 1371.07,606.384 1371.74,608.38C1372.09,609.442 1373.16,610.911 1374.62,612.422C1377.48,615.389 1381.85,618.769 1382.97,619.665C1384.25,620.686 1400.62,629.898 1402.16,630.456C1404.28,631.228 1406.4,632.624 1408.57,633.555C1412.98,635.453 1419.14,636.881 1425.23,633.462C1429.34,631.155 1432.77,629.608 1436.51,626.802C1437.92,625.739 1446.56,620.176 1448.89,617.58C1450.96,615.284 1453.7,612.917 1455.99,610.28C1458.56,607.326 1460.58,604.036 1460.92,600.248C1460.97,599.673 1460.83,597.138 1459.93,595.282C1459.07,593.517 1457.62,592.362 1455.61,592.568C1452.5,592.885 1450.16,591.198 1447.31,589.529C1445.35,588.386 1443.12,586.052 1441.32,584.254C1440.09,583.026 1439.45,581.576 1438.76,580.178C1437.85,578.349 1436.88,576.588 1435.16,575.153C1435.01,575.028 1434.67,574.79 1434.08,574.658C1433.55,574.538 1432.26,574.394 1430.46,574.261C1423.79,573.768 1409.68,573.266 1403.54,573.462C1401.57,573.526 1400.25,573.77 1399.87,573.96C1398.98,574.406 1398.06,575.401 1397.27,576.628C1396.46,577.904 1395.76,579.44 1395.23,580.17C1390.86,586.136 1387.32,588.408 1382.76,591.596C1380.91,592.89 1379.37,593.879 1377.38,592.949ZM1432.93,578.527C1433.98,579.527 1434.57,580.739 1435.18,581.956C1436.06,583.728 1436.94,585.523 1438.49,587.081C1440.52,589.109 1443.08,591.692 1445.29,592.982C1448.94,595.116 1452.04,596.953 1456.02,596.547C1456.15,596.533 1456.16,596.716 1456.22,596.828C1456.35,597.048 1456.46,597.299 1456.54,597.556C1456.87,598.535 1456.96,599.606 1456.94,599.886C1456.67,602.841 1454.98,605.349 1452.98,607.653C1450.69,610.274 1447.98,612.623 1445.92,614.904C1443.7,617.37 1435.45,622.592 1434.11,623.602C1430.52,626.295 1427.22,627.76 1423.27,629.974C1418.48,632.667 1413.62,631.376 1410.15,629.881C1407.92,628.92 1405.72,627.494 1403.53,626.697C1402.08,626.172 1386.67,617.502 1385.47,616.542C1384.4,615.687 1380.23,612.473 1377.49,609.643C1376.55,608.669 1375.76,607.8 1375.53,607.115C1375,605.527 1374.61,603.178 1374.77,601.037C1374.86,599.837 1375.1,598.697 1375.7,597.893C1375.81,597.747 1376.28,597.27 1376.61,596.945C1379.62,597.962 1382.17,596.89 1385.05,594.874C1389.96,591.44 1393.75,588.96 1398.45,582.533C1398.94,581.867 1399.57,580.599 1400.28,579.386C1400.69,578.68 1401.06,577.936 1401.53,577.613C1401.82,577.584 1402.79,577.489 1403.67,577.46C1409.71,577.267 1423.6,577.765 1430.16,578.25C1431.29,578.333 1432.43,578.465 1432.93,578.527Z"/>
            <path d="M1374.37,593.053C1371.14,591.121 1367.08,589.917 1363.68,589.85C1359.88,589.774 1356.43,588.804 1356.33,593.817C1356.21,599.465 1358.7,602.47 1362.01,606.024C1370.23,614.824 1374.81,620.506 1385.17,627.034C1394.03,632.614 1409.05,639.617 1415.3,639.51C1421.21,639.41 1427.62,636.131 1431.6,634.291C1436.48,632.033 1441.08,630.081 1445.37,627.552C1451.47,623.966 1455.78,620.632 1459.76,616.602C1461.69,614.647 1465.48,611.397 1469.53,605.76C1471.27,603.349 1472.63,603.109 1472.9,594.088C1473.11,587.322 1463.68,590.164 1459.94,591.801C1458.04,592.635 1454.4,594.544 1454.4,594.544C1454.4,594.544 1457.37,596.143 1457.26,599.77C1457.11,604.679 1454.45,606.675 1450.95,610.483C1445.14,616.818 1438.81,620.479 1435.21,622.142C1426.12,626.344 1424.07,627.424 1420.31,629.819C1416.65,632.147 1414.84,632.754 1410.09,629.371C1406.01,626.472 1391.72,619.214 1387.24,616.442C1384.08,614.485 1379.09,607.08 1376.41,603.348C1374,600.007 1376.12,596.744 1378.3,595.598C1379.25,595.098 1375.4,593.673 1374.37,593.053Z" style="fill:rgb(90,157,225);"/>
            <path d="M1375.4,591.338C1371.88,589.228 1367.43,587.924 1363.72,587.85C1362.02,587.816 1360.38,587.634 1359.05,587.807C1357.7,587.982 1356.59,588.474 1355.76,589.396C1354.97,590.274 1354.38,591.62 1354.33,593.776C1354.2,600.053 1356.87,603.439 1360.55,607.388C1368.9,616.333 1373.57,622.091 1384.1,628.726C1390.42,632.707 1399.82,637.395 1407.07,639.814C1410.39,640.92 1413.29,641.545 1415.33,641.51C1421.53,641.405 1428.27,638.034 1432.43,636.106C1437.38,633.819 1442.04,631.838 1446.39,629.276C1452.66,625.587 1457.09,622.153 1461.18,618.008C1463.16,616.01 1467.02,612.684 1471.16,606.927C1473.06,604.285 1474.6,604.036 1474.9,594.149C1474.96,592.15 1474.37,590.744 1473.48,589.753C1472.58,588.76 1471.32,588.154 1469.82,587.914C1466.44,587.372 1461.64,588.874 1459.14,589.969C1457.19,590.822 1453.47,592.772 1453.47,592.772C1452.81,593.116 1452.4,593.793 1452.4,594.532C1452.39,595.272 1452.8,595.954 1453.45,596.304C1453.45,596.304 1455.33,597.362 1455.26,599.71C1455.13,604.074 1452.59,605.745 1449.48,609.131C1443.9,615.212 1437.83,618.73 1434.37,620.326C1425.13,624.596 1423.06,625.698 1419.23,628.131C1417.79,629.046 1416.76,629.721 1415.58,629.737C1414.39,629.753 1413.14,629.085 1411.25,627.741C1407.15,624.828 1392.79,617.527 1388.3,614.742C1385.28,612.874 1380.59,605.742 1378.03,602.18C1376.54,600.103 1377.88,598.08 1379.23,597.368C1380.11,596.906 1380.38,596.235 1380.44,595.619C1380.49,595.123 1380.39,594.517 1379.89,593.923C1379.63,593.604 1379.09,593.181 1378.37,592.792C1377.39,592.257 1375.96,591.677 1375.4,591.338ZM1375.09,595.681C1373.26,597.836 1372.36,601.149 1374.78,604.516C1377.59,608.418 1382.88,616.096 1386.19,618.143C1390.64,620.901 1404.87,628.115 1408.93,631.001C1411.8,633.041 1413.82,633.76 1415.63,633.736C1417.46,633.712 1419.16,632.92 1421.38,631.506C1425.08,629.149 1427.1,628.093 1436.05,623.957C1439.8,622.228 1446.38,618.425 1452.43,611.836C1456.31,607.604 1459.09,605.285 1459.26,599.83C1459.32,597.755 1458.63,596.174 1457.81,595.041C1458.82,594.532 1459.94,593.985 1460.74,593.633C1462.44,592.892 1465.41,591.856 1467.95,591.793C1468.98,591.767 1469.95,591.818 1470.51,592.437C1470.83,592.788 1470.93,593.318 1470.9,594.027C1470.66,602.181 1469.48,602.413 1467.91,604.593C1463.94,610.109 1460.23,613.283 1458.34,615.197C1454.47,619.111 1450.28,622.345 1444.36,625.829C1440.12,628.325 1435.57,630.247 1430.76,632.476C1426.97,634.227 1420.89,637.415 1415.26,637.511C1412.94,637.55 1409.32,636.477 1405.27,634.907C1398.86,632.422 1391.46,628.631 1386.24,625.341C1376.04,618.921 1371.56,613.314 1363.48,604.659C1360.53,601.502 1358.23,598.876 1358.33,593.858C1358.35,592.926 1358.41,592.327 1358.79,592.017C1359.2,591.69 1359.79,591.727 1360.44,591.726C1361.42,591.724 1362.52,591.827 1363.64,591.849C1366.73,591.911 1370.41,593.015 1373.34,594.769C1373.64,594.952 1374.37,595.324 1375.09,595.681Z"/>
            <path d="M1521.14,530.125C1522.64,527.328 1530.09,511.02 1536.28,502.689C1538.08,500.279 1547.12,497.947 1546.98,498.627C1545.07,508.188 1535.94,526.266 1530.31,532.905C1527.45,536.269 1518.98,534.163 1521.14,530.125Z" style="fill:rgb(229,189,140);"/>
            <path d="M1519.38,529.18C1518.76,530.341 1518.67,531.422 1518.91,532.379C1519.23,533.687 1520.22,534.839 1521.69,535.595C1523.4,536.475 1525.79,536.821 1527.9,536.39C1529.46,536.072 1530.86,535.338 1531.83,534.2C1537.62,527.386 1546.98,508.832 1548.94,499.019C1549.07,498.368 1548.91,497.808 1548.53,497.327C1548.29,497.03 1547.81,496.578 1546.9,496.515C1545.96,496.45 1542.51,497.192 1539.52,498.399C1537.36,499.274 1535.47,500.429 1534.68,501.496C1528.43,509.905 1520.89,526.357 1519.38,529.18ZM1544.32,501.054C1541.52,510.745 1533.76,525.752 1528.78,531.61C1528.38,532.087 1527.76,532.338 1527.1,532.471C1525.89,532.719 1524.51,532.545 1523.52,532.038C1523.09,531.816 1522.65,531.538 1522.9,531.071L1522.9,531.071C1524.39,528.3 1531.75,512.136 1537.89,503.883C1538.38,503.214 1539.67,502.655 1541.02,502.108C1542.04,501.694 1543.27,501.33 1544.32,501.054Z"/>
            <path d="M1296.01,508.272C1293.57,505.193 1289.95,505.704 1290.41,507.111C1292.65,513.985 1299.47,528.206 1304.68,533.421C1305.06,533.793 1311.22,535.763 1311.21,534.123C1311.19,529.451 1296.3,508.632 1296.01,508.272Z" style="fill:rgb(229,189,140);"/>
            <path d="M1297.58,507.03C1295.13,503.934 1291.72,503.681 1290.19,504.311C1289.33,504.667 1288.8,505.273 1288.55,505.927C1288.34,506.466 1288.29,507.073 1288.51,507.73C1290.82,514.819 1297.89,529.458 1303.27,534.835C1303.4,534.966 1303.77,535.256 1304.39,535.509C1305.53,535.97 1308.15,536.727 1309.83,536.764C1312.11,536.814 1313.22,535.539 1313.21,534.114C1313.21,532.542 1311.83,529.283 1309.71,525.558C1305.25,517.704 1297.78,507.285 1297.58,507.03ZM1292.93,508.273C1293.45,508.514 1293.98,508.92 1294.45,509.515C1294.64,509.763 1301.89,519.898 1306.24,527.536C1307.32,529.432 1308.21,531.167 1308.76,532.541L1308.79,532.623C1308.72,532.613 1308.66,532.602 1308.6,532.59C1307.63,532.392 1306.29,531.932 1305.88,531.785C1301.28,526.999 1295.51,515.257 1292.93,508.273Z"/>
            <path d="M1494.72,364.902C1485.11,362.127 1436.85,361.848 1416.08,362.318C1408.5,362.49 1350.88,363.303 1344.49,364.103C1323.2,366.763 1300.5,374.522 1287.47,392.758C1279.56,403.837 1274.81,420.027 1275.65,433.525C1276.53,447.576 1278.26,465.953 1282.8,479.228C1289.93,500.072 1301.04,520.693 1313.75,541.867C1317.65,548.367 1323.11,554.389 1327.67,558.951C1329.91,561.186 1346.3,571.037 1355.44,574.085C1376.35,581.055 1397.16,582.421 1419.54,582.624C1431.57,582.733 1450.61,578.859 1459.2,577.566C1475.41,575.127 1483.34,570.832 1492.86,566.63C1499.13,563.865 1509.29,553.317 1516.23,543.384C1520.29,537.57 1523.02,532.319 1526.73,525.559C1532.56,514.951 1537.57,506.135 1541.38,496.241C1547.13,481.291 1548.72,462.917 1551.32,447.344C1552.94,437.583 1554.15,429.033 1551.87,418.754C1549.57,408.428 1542.81,399.626 1535.91,391.872C1531.72,387.149 1506.59,368.331 1494.72,364.902Z" style="fill:rgb(219,196,168);"/>
            <path d="M1495.27,362.98C1485.6,360.185 1436.96,359.845 1416.03,360.319C1408.43,360.491 1350.65,361.317 1344.24,362.118C1322.42,364.845 1299.2,372.901 1285.84,391.595C1277.68,403.024 1272.79,419.725 1273.66,433.65C1274.55,447.863 1276.31,466.447 1280.91,479.875C1288.08,500.844 1299.25,521.594 1312.03,542.896C1316.02,549.54 1321.6,555.702 1326.26,560.365C1328.56,562.665 1345.4,572.846 1354.81,575.983C1375.92,583.019 1396.92,584.419 1419.52,584.624C1431.65,584.734 1450.84,580.847 1459.5,579.544C1475.95,577.068 1484,572.725 1493.67,568.46C1500.14,565.604 1510.71,554.785 1517.87,544.529C1521.97,538.655 1524.74,533.351 1528.49,526.521C1534.36,515.826 1539.41,506.934 1543.24,496.959C1549.04,481.888 1550.67,463.372 1553.29,447.673C1554.96,437.651 1556.16,428.874 1553.82,418.32C1551.45,407.663 1544.52,398.546 1537.41,390.543C1533.12,385.713 1507.41,366.487 1495.27,362.98L1495.27,362.98ZM1494.16,366.823C1505.77,370.175 1530.32,388.584 1534.42,393.2C1541.09,400.706 1547.69,409.193 1549.91,419.188C1552.14,429.193 1550.93,437.514 1549.34,447.015C1546.77,462.463 1545.21,480.694 1539.51,495.523C1535.74,505.336 1530.76,514.075 1524.98,524.596C1521.31,531.286 1518.61,536.486 1514.59,542.239C1507.88,551.848 1498.12,562.125 1492.05,564.801C1482.67,568.94 1474.87,573.186 1458.91,575.589C1450.38,576.871 1431.5,580.733 1419.55,580.624C1397.39,580.423 1376.78,579.09 1356.07,572.188C1347.19,569.228 1331.26,559.707 1329.09,557.537C1324.63,553.075 1319.28,547.194 1315.46,540.838C1302.83,519.791 1291.78,499.299 1284.69,478.581C1280.2,465.458 1278.52,447.29 1277.65,433.4C1276.83,420.328 1281.43,404.65 1289.1,393.92C1301.8,376.142 1323.99,368.681 1344.73,366.087C1351.11,365.29 1408.56,364.489 1416.12,364.318C1436.73,363.851 1484.63,364.07 1494.16,366.823L1494.16,366.823Z"/>
            <path d="M1315.81,462.081C1311.84,467.067 1310.4,478.238 1310.68,485.043C1311.02,493.47 1314.66,501.803 1319.55,508.68C1322.08,512.233 1326.02,515.436 1329.19,517.398C1332.52,519.45 1338.97,521.741 1345.88,521.571C1354.95,521.349 1360.97,515.659 1363.11,513.049C1367.51,507.672 1371.18,500.551 1372.42,493.908C1374.04,485.266 1373.67,474.28 1369.82,466.564C1368,462.933 1366.11,459.121 1360.89,454.085C1359.14,452.397 1351.68,448.566 1345.26,448.363C1335.01,448.038 1322.76,453.36 1315.81,462.081Z" style="fill:rgb(240,242,230);"/>
            <clipPath id="_clip1">
                <path d="M1315.81,462.081C1311.84,467.067 1310.4,478.238 1310.68,485.043C1311.02,493.47 1314.66,501.803 1319.55,508.68C1322.08,512.233 1326.02,515.436 1329.19,517.398C1332.52,519.45 1338.97,521.741 1345.88,521.571C1354.95,521.349 1360.97,515.659 1363.11,513.049C1367.51,507.672 1371.18,500.551 1372.42,493.908C1374.04,485.266 1373.67,474.28 1369.82,466.564C1368,462.933 1366.11,459.121 1360.89,454.085C1359.14,452.397 1351.68,448.566 1345.26,448.363C1335.01,448.038 1322.76,453.36 1315.81,462.081Z"/>
            </clipPath>
            <g clip-path="url(#_clip1)">
                <g transform="matrix(-1.10663,0,0,1.10663,2995.32,-51.5273)">
                    <path d="M1484.15,480.367C1481.99,480.639 1481.08,482.944 1481.08,483.96C1481.06,487.628 1481.9,488.022 1482.75,489.014C1485.12,491.784 1489.75,488.98 1490.08,486.01C1490.45,482.681 1487.44,479.953 1484.15,480.367Z"/>
                </g>
            </g>
            <path d="M1314.25,460.835C1310.04,466.116 1308.39,477.917 1308.68,485.125C1309.04,493.932 1312.81,502.652 1317.92,509.84C1320.6,513.608 1324.77,517.018 1328.14,519.099C1331.68,521.288 1338.56,523.752 1345.92,523.571C1355.79,523.329 1362.33,517.152 1364.65,514.316C1369.26,508.689 1373.09,501.228 1374.39,494.276C1376.08,485.234 1375.64,473.743 1371.61,465.67C1369.71,461.878 1367.73,457.903 1362.28,452.645C1360.38,450.812 1352.3,446.585 1345.32,446.364C1334.51,446.021 1321.58,451.632 1314.25,460.835ZM1317.38,463.327C1323.94,455.087 1335.51,450.055 1345.19,450.362C1351.07,450.548 1357.9,453.983 1359.5,455.524C1364.49,460.339 1366.29,463.987 1368.03,467.459C1371.71,474.816 1372,485.298 1370.46,493.539C1369.27,499.873 1365.75,506.656 1361.56,511.783C1359.61,514.166 1354.11,519.369 1345.83,519.572C1339.38,519.73 1333.35,517.613 1330.24,515.696C1327.26,513.854 1323.55,510.857 1321.18,507.521C1316.51,500.954 1313.01,493.009 1312.68,484.962C1312.42,478.559 1313.64,468.019 1317.38,463.327Z"/>
            <path d="M1315.89,466.573C1313.87,469.021 1310.49,473.973 1310.74,472.748C1311.1,471.01 1311.5,468.703 1312.36,467.212C1314.97,462.64 1316.07,459.987 1320.29,456.618C1324.31,453.398 1330.23,450.004 1335.04,449.172C1339.65,448.375 1345.84,447.714 1350.3,448.996C1353.51,449.92 1358.44,451.585 1359.99,452.79C1363.59,455.591 1362.84,456.59 1360.55,455.915C1359.05,455.473 1355.98,455.103 1354.42,454.881C1349.84,454.226 1346.92,454.308 1340.59,454.762C1334.61,455.19 1326.79,458.035 1323.21,460.208C1321.57,461.205 1317.44,464.688 1315.89,466.573Z" style="fill:rgb(209,151,81);"/>
            <path d="M1317.43,467.844C1318.88,466.089 1322.72,462.846 1324.25,461.917C1327.65,459.857 1335.06,457.163 1340.73,456.756C1346.87,456.317 1349.7,456.226 1354.14,456.861C1355.63,457.073 1358.55,457.412 1359.98,457.834C1361.05,458.148 1361.93,458.163 1362.49,458.036C1363.11,457.896 1363.56,457.595 1363.87,457.242C1364.39,456.661 1364.7,455.846 1364.33,454.736C1364.08,454.009 1363.22,452.766 1361.22,451.212C1359.56,449.92 1354.3,448.065 1350.85,447.074C1346.13,445.717 1339.59,446.358 1334.7,447.201C1329.6,448.083 1323.3,451.642 1319.04,455.056C1314.59,458.616 1313.38,461.389 1310.62,466.22C1309.67,467.873 1309.18,470.417 1308.78,472.345C1308.55,473.484 1309.07,474.086 1309.35,474.358C1309.75,474.749 1310.97,475.508 1312.32,474.301C1313.15,473.554 1315.76,469.877 1317.43,467.844ZM1356.36,453.132C1355.73,453.043 1355.16,452.965 1354.71,452.901C1349.98,452.226 1346.97,452.299 1340.44,452.767C1334.16,453.217 1325.94,456.213 1322.18,458.498C1321.25,459.062 1319.57,460.369 1317.96,461.774C1318.87,460.577 1319.97,459.428 1321.54,458.18C1325.32,455.153 1330.86,451.924 1335.38,451.143C1339.73,450.392 1345.55,449.711 1349.74,450.918C1351.7,451.481 1354.36,452.311 1356.36,453.132Z"/>
            <path d="M1365.6,436.016C1366.29,436.115 1376.28,436.185 1378.26,436.188C1380.94,436.192 1381.28,427.443 1377.22,426.949C1376.3,426.838 1368.63,426.805 1365.8,426.199C1364.49,425.917 1361.91,424.847 1359.17,423.818C1357.42,423.164 1351.65,420.397 1349.47,419.443C1347.29,418.489 1339.76,416.459 1333.51,416.414C1330.49,416.393 1324.2,417.215 1321.02,418.799C1317.53,420.537 1314.08,423.278 1310.98,426.294C1308.98,428.252 1307.65,429.63 1306.68,432.43C1306.02,434.364 1306.66,436.149 1308.26,434.914C1310.75,432.997 1313.44,431.627 1315.19,430.877C1319.09,429.207 1322.71,427.731 1328.03,428.391C1333.41,429.056 1337.74,429.266 1342.95,430.431C1346.82,431.295 1352.32,432.804 1356.44,433.367C1359.1,433.73 1362.95,435.637 1365.6,436.016Z" style="fill:rgb(179,154,108);"/>
            <path d="M1365.32,437.996C1366.02,438.097 1376.23,438.185 1378.26,438.188C1379.28,438.19 1380.21,437.735 1380.92,436.832C1381.56,436.029 1382.05,434.756 1382.21,433.302C1382.43,431.341 1382.08,429.068 1381.13,427.474C1380.31,426.091 1379.08,425.16 1377.46,424.964C1376.56,424.854 1369,424.84 1366.22,424.243C1364.96,423.974 1362.5,422.931 1359.87,421.946C1358.14,421.298 1352.43,418.555 1350.27,417.611C1347.98,416.61 1340.08,414.461 1333.53,414.415C1330.29,414.391 1323.54,415.309 1320.13,417.009C1316.47,418.833 1312.84,421.697 1309.59,424.862C1307.33,427.061 1305.88,428.634 1304.79,431.779C1304.36,433.043 1304.35,434.272 1304.59,435.124C1304.77,435.755 1305.09,436.247 1305.46,436.597C1306.33,437.395 1307.71,437.863 1309.49,436.498C1311.82,434.701 1314.34,433.419 1315.98,432.715C1319.56,431.179 1322.88,429.768 1327.79,430.375C1333.1,431.033 1337.37,431.233 1342.52,432.383C1346.43,433.257 1351.99,434.779 1356.17,435.349C1358.83,435.711 1362.67,437.617 1365.32,437.996ZM1377.86,434.186C1375.24,434.179 1366.52,434.127 1365.88,434.036C1363.23,433.656 1359.38,431.749 1356.71,431.385C1352.63,430.83 1347.21,429.332 1343.39,428.479C1338.11,427.3 1333.73,427.08 1328.28,426.406C1322.53,425.693 1318.61,427.236 1314.4,429.038C1313.01,429.637 1311.05,430.605 1309.05,431.911C1309.85,430.201 1310.92,429.145 1312.38,427.726C1315.32,424.859 1318.59,422.241 1321.91,420.589C1324.86,419.12 1330.7,418.394 1333.5,418.414C1339.43,418.457 1346.6,420.369 1348.67,421.275C1350.87,422.239 1356.7,425.03 1358.47,425.691C1361.32,426.762 1364.01,427.861 1365.38,428.154C1368.25,428.77 1376.05,428.821 1376.98,428.935C1377.47,428.994 1377.7,429.451 1377.89,429.922C1378.25,430.802 1378.34,431.897 1378.23,432.858C1378.18,433.319 1377.97,433.909 1377.86,434.186Z"/>
            <g transform="matrix(0.999654,0,0,0.999654,0.503435,0.155392)">
                <path d="M1482.94,448.617C1476.88,448.341 1469.74,451.086 1466.47,454.085C1462.56,457.672 1458.39,463.607 1456.31,468.463C1454.1,473.608 1453.1,479.656 1453.42,486.579C1453.84,495.936 1457.58,503.845 1461.75,509.975C1464.02,513.318 1469.6,518.227 1471.82,519.437C1475.04,521.185 1480.49,522.268 1485.22,522.325C1488.51,522.365 1495.07,519.571 1497.7,517.802C1500.35,516.015 1506.88,512.639 1512.13,503.549C1515,498.587 1516.99,493.796 1517.17,484.272C1517.39,472.252 1515.16,465.188 1507.03,457.687C1502.82,453.803 1497.5,451.776 1494.5,450.577C1492.71,449.861 1489.08,448.898 1482.94,448.617Z" style="fill:rgb(240,242,230);"/>
                <clipPath id="_clip2">
                    <path d="M1482.94,448.617C1476.88,448.341 1469.74,451.086 1466.47,454.085C1462.56,457.672 1458.39,463.607 1456.31,468.463C1454.1,473.608 1453.1,479.656 1453.42,486.579C1453.84,495.936 1457.58,503.845 1461.75,509.975C1464.02,513.318 1469.6,518.227 1471.82,519.437C1475.04,521.185 1480.49,522.268 1485.22,522.325C1488.51,522.365 1495.07,519.571 1497.7,517.802C1500.35,516.015 1506.88,512.639 1512.13,503.549C1515,498.587 1516.99,493.796 1517.17,484.272C1517.39,472.252 1515.16,465.188 1507.03,457.687C1502.82,453.803 1497.5,451.776 1494.5,450.577C1492.71,449.861 1489.08,448.898 1482.94,448.617Z"/>
                </clipPath>
                <g clip-path="url(#_clip2)">
                    <g transform="matrix(1.10701,0,0,1.10701,-164.298,-51.7006)">
                        <path d="M1484.15,480.367C1481.99,480.639 1481.08,482.944 1481.08,483.96C1481.06,487.628 1481.9,488.022 1482.75,489.014C1485.12,491.784 1489.75,488.98 1490.08,486.01C1490.45,482.681 1487.44,479.953 1484.15,480.367Z"/>
                    </g>
                </g>
                <path d="M1483.03,446.619C1476.43,446.318 1468.68,449.346 1465.12,452.61C1461.02,456.369 1456.65,462.587 1454.47,467.675C1452.16,473.071 1451.09,479.41 1451.42,486.67C1451.86,496.438 1455.74,504.7 1460.09,511.099C1462.52,514.67 1468.49,519.902 1470.87,521.194C1474.3,523.065 1480.14,524.265 1485.2,524.326C1488.78,524.369 1495.95,521.39 1498.82,519.462C1501.59,517.596 1508.38,514.044 1513.87,504.55C1516.88,499.339 1518.98,494.311 1519.17,484.309C1519.4,471.596 1516.98,464.149 1508.38,456.217C1503.96,452.137 1498.39,449.978 1495.24,448.719C1493.35,447.963 1489.52,446.915 1483.03,446.619ZM1482.85,450.616C1488.64,450.881 1492.07,451.76 1493.76,452.435C1496.6,453.573 1501.67,455.468 1505.67,459.157C1513.33,466.227 1515.37,472.907 1515.17,484.235C1515,493.281 1513.13,497.835 1510.4,502.548C1505.38,511.235 1499.12,514.435 1496.58,516.143C1494.19,517.753 1488.24,520.361 1485.24,520.325C1480.85,520.272 1475.77,519.305 1472.78,517.679C1470.71,516.552 1465.52,511.966 1463.4,508.85C1459.42,502.989 1455.82,495.435 1455.41,486.487C1455.11,479.902 1456.05,474.146 1458.15,469.251C1460.13,464.628 1464.1,458.976 1467.82,455.559C1470.8,452.826 1477.33,450.364 1482.85,450.616Z"/>
            </g>
            <path d="M1468.46,455.54C1466.24,456.272 1463.82,456.548 1466.25,453.854C1467.47,452.508 1470.7,450.593 1472.41,449.963C1478.23,447.814 1482.57,447.823 1489.3,448.879C1495.21,449.806 1500.8,452.726 1505.41,456.02C1507.05,457.185 1510.49,460.767 1511.62,462.65C1512.85,464.697 1514.1,465.489 1515.24,467.596C1516.15,469.282 1516.49,471.993 1514.58,469.964C1513.5,468.817 1509.81,465.076 1508.64,464.024C1505.93,461.585 1502.95,460.143 1499.69,458.505C1493.94,455.611 1485.44,454.553 1478.27,454.779C1475.86,454.855 1469.47,455.208 1468.46,455.54Z" style="fill:rgb(209,151,81);"/>
            <path d="M1469.09,457.44C1470.04,457.127 1476.06,456.849 1478.33,456.778C1485.18,456.562 1493.3,457.528 1498.79,460.292C1501.89,461.847 1504.73,463.195 1507.3,465.511C1508.45,466.541 1512.07,470.211 1513.13,471.335C1514.64,472.947 1515.95,472.747 1516.51,472.511C1517.12,472.256 1517.66,471.744 1517.88,470.858C1518.09,469.996 1517.76,468.06 1517,466.645C1515.84,464.507 1514.58,463.698 1513.33,461.621C1512.1,459.569 1508.35,455.662 1506.58,454.392C1501.73,450.927 1495.83,447.879 1489.61,446.903C1482.48,445.784 1477.88,445.81 1471.72,448.086C1469.79,448.8 1466.14,450.991 1464.77,452.513C1463.88,453.495 1463.49,454.262 1463.34,454.777C1463.04,455.85 1463.36,456.605 1463.85,457.152C1464.24,457.594 1464.88,457.973 1465.8,458.031C1466.62,458.082 1467.88,457.837 1469.09,457.44L1469.09,457.44ZM1507.23,460.403C1505.16,458.999 1502.95,457.903 1500.59,456.718C1494.58,453.693 1485.7,452.544 1478.21,452.78C1476.46,452.835 1472.75,453.053 1470.24,453.298C1471.27,452.668 1472.36,452.115 1473.1,451.839C1478.57,449.818 1482.66,449.862 1488.99,450.855C1494.6,451.734 1499.88,454.526 1504.25,457.647C1504.99,458.175 1506.14,459.248 1507.23,460.403Z"/>
            <path d="M1445.56,435.361C1444.1,434.68 1444.94,427.72 1447.51,427.266C1448.96,427.01 1452.86,426.893 1456.42,426.425C1461.8,425.718 1463.25,424.545 1469.72,422.259C1480.38,418.495 1489.92,413.862 1502.01,417.489C1504.72,418.3 1511.23,422.006 1512.76,423.42C1515.15,425.636 1517.88,428.111 1519.35,430.185C1520.51,431.814 1520.95,434.191 1521.19,435.361C1521.51,437.018 1520.1,436.557 1519,435.361C1517.41,433.626 1516.24,433.108 1514.31,432.02C1509.16,429.121 1504.98,429.16 1498.34,428.818C1490.54,428.417 1487.05,429.475 1479.39,430.753C1474.68,431.537 1469.53,433.125 1464.89,434.279C1460.5,435.374 1457,436.359 1452.27,436.333C1450.09,436.321 1447.07,436.068 1445.56,435.361Z" style="fill:rgb(179,154,108);"/>
            <path d="M1444.71,437.172C1446.41,437.969 1449.8,438.319 1452.26,438.333C1457.18,438.36 1460.81,437.357 1465.38,436.22C1469.96,435.078 1475.06,433.501 1479.71,432.726C1487.21,431.477 1490.61,430.424 1498.23,430.816C1504.51,431.138 1508.46,431.026 1513.33,433.763C1515.05,434.732 1516.11,435.167 1517.52,436.713C1518.25,437.507 1519.1,438.052 1519.76,438.274C1520.37,438.475 1520.91,438.472 1521.36,438.362C1522.02,438.197 1522.55,437.81 1522.9,437.163C1523.15,436.714 1523.35,436.008 1523.15,434.974C1522.88,433.625 1522.32,430.904 1520.98,429.025C1519.44,426.861 1516.61,424.264 1514.12,421.952C1512.48,420.434 1505.49,416.444 1502.59,415.573C1490.04,411.809 1480.11,416.467 1469.05,420.373C1462.77,422.591 1461.38,423.756 1456.16,424.442C1452.57,424.915 1448.62,425.039 1447.16,425.297C1446.04,425.496 1445,426.265 1444.25,427.512C1443.5,428.77 1443.01,430.569 1442.88,432.19C1442.77,433.618 1442.96,434.912 1443.31,435.694C1443.65,436.444 1444.16,436.917 1444.71,437.172L1444.71,437.172ZM1518.07,431.907C1517.25,431.351 1516.38,430.893 1515.29,430.278C1509.85,427.216 1505.46,427.182 1498.44,426.821C1490.46,426.411 1486.9,427.473 1479.06,428.78C1474.31,429.572 1469.09,431.172 1464.41,432.338C1460.18,433.391 1456.83,434.358 1452.28,434.333C1450.6,434.324 1448.33,434.202 1446.92,433.747C1446.88,433.428 1446.84,432.907 1446.87,432.507C1446.94,431.639 1447.15,430.685 1447.5,429.924C1447.62,429.665 1447.88,429.316 1447.96,429.22C1449.47,428.977 1453.24,428.861 1456.68,428.408C1462.22,427.679 1463.72,426.499 1470.38,424.145C1480.64,420.523 1489.81,415.914 1501.44,419.404C1503.94,420.156 1509.98,423.578 1511.4,424.888C1513.69,427.008 1516.31,429.361 1517.72,431.345C1517.85,431.522 1517.96,431.711 1518.07,431.907Z"/>
            <path d="M1388.56,524.927C1388.01,522.314 1388.86,518.714 1390.23,516.505C1392.07,513.537 1393.94,511.623 1396.27,509.298C1398.64,506.925 1402.67,503.601 1404.62,502.771C1407.65,501.479 1412.98,501.19 1416.29,501.438C1420.17,501.728 1422.45,503.748 1425.03,505.546C1426.91,506.858 1428.98,508 1430.91,510.006C1432.72,511.892 1434.14,513.507 1435.91,515.793C1437.29,517.567 1438.13,519.271 1438.06,520.466C1437.92,522.616 1436.28,525.174 1434.52,527.188C1433.47,528.383 1429.18,531.552 1428.77,531.93C1426.59,533.969 1421.31,536.477 1417.87,536.921C1415.04,537.288 1409.81,537.087 1406.87,536.752C1403.69,536.389 1398.62,534.639 1394.1,531.409C1392.33,530.147 1389.01,527.12 1388.56,524.927Z" style="fill:rgb(210,153,84);"/>
            <path d="M1393.92,518.927C1394,515.355 1395.24,511.402 1399.08,508.13C1401.46,506.097 1406.29,502.209 1411.93,502.471C1415.36,502.63 1420.58,503.481 1422.22,504.611C1424.17,505.947 1425.56,507.321 1428.64,511.178C1430.61,513.639 1434.04,519.701 1432.93,523.567C1432.18,526.206 1428.78,532.713 1421.79,533.222C1414.77,533.733 1408.79,533.705 1404.84,532.352C1401.73,531.285 1399.44,529.544 1397.8,528.059C1395.61,526.073 1393.84,522.935 1393.92,518.927Z" style="fill:rgb(227,207,182);"/>
            <path d="M1391.93,518.883C1391.82,523.563 1393.89,527.223 1396.46,529.542C1398.26,531.172 1400.77,533.073 1404.19,534.244C1408.33,535.66 1414.59,535.752 1421.94,535.217C1430.01,534.629 1433.99,527.165 1434.86,524.116C1435.39,522.229 1435.13,519.906 1434.37,517.613C1433.35,514.549 1431.49,511.535 1430.2,509.929C1426.92,505.826 1425.42,504.384 1423.36,502.963C1421.54,501.716 1415.81,500.649 1412.02,500.473C1405.8,500.183 1400.42,504.363 1397.78,506.608C1393.41,510.327 1392.01,514.822 1391.93,518.883L1391.93,518.883ZM1395.92,518.971C1395.99,515.887 1397.06,512.476 1400.37,509.653C1402.51,507.832 1406.79,504.234 1411.84,504.468C1413.79,504.559 1416.36,504.886 1418.43,505.364C1419.58,505.63 1420.57,505.902 1421.09,506.26C1422.91,507.51 1424.19,508.816 1427.08,512.428C1428.16,513.775 1429.71,516.305 1430.57,518.876C1431.06,520.34 1431.35,521.812 1431.01,523.017C1430.37,525.246 1427.55,530.798 1421.65,531.227C1414.96,531.714 1409.26,531.749 1405.49,530.46C1402.68,529.497 1400.62,527.916 1399.14,526.576C1397.32,524.923 1395.85,522.307 1395.92,518.971L1395.92,518.971Z"/>
            <path d="M1446.8,547.191C1440.82,549.026 1430.11,549.694 1415.2,549.55C1408.08,549.481 1398.92,549.777 1391.69,549.234C1386.16,548.818 1381.77,547.62 1380.24,547.134C1377.74,546.339 1376.74,548.259 1379.34,549.111C1381.1,549.688 1388.28,551.265 1390.12,551.417C1395.54,551.868 1410.13,551.868 1414.94,551.835C1422.06,551.786 1427,551.789 1433.94,551.266C1436.92,551.041 1441.29,550.84 1447.24,549.171C1449.27,548.601 1449.08,546.491 1446.8,547.191Z"/>
            <path d="M1446.51,546.234C1440.58,548.052 1429.97,548.693 1415.21,548.55C1408.11,548.481 1398.98,548.778 1391.77,548.236C1386.35,547.829 1382.04,546.657 1380.54,546.181C1379.32,545.794 1378.36,545.942 1377.78,546.254C1377.4,546.462 1377.13,546.752 1376.98,547.068C1376.58,547.881 1376.86,549.349 1379.03,550.061C1380.82,550.65 1388.16,552.258 1390.03,552.414C1395.47,552.866 1410.12,552.869 1414.95,552.835C1422.09,552.785 1427.05,552.788 1434.01,552.263C1437.04,552.035 1441.47,551.827 1447.51,550.134C1449.19,549.664 1449.76,548.395 1449.63,547.553C1449.49,546.645 1448.53,545.614 1446.51,546.234ZM1379.19,547.946C1379.41,547.952 1379.66,547.999 1379.94,548.087C1381.49,548.583 1385.98,549.807 1391.62,550.231C1398.87,550.775 1408.05,550.481 1415.19,550.55C1430.24,550.696 1441.05,550 1447.1,548.147C1447.12,548.138 1447.15,548.13 1447.18,548.123C1447.12,548.158 1447.05,548.188 1446.97,548.208C1441.11,549.852 1436.8,550.047 1433.86,550.269C1426.94,550.79 1422.02,550.786 1414.93,550.835C1410.14,550.868 1395.6,550.87 1390.2,550.421C1388.4,550.271 1381.37,548.725 1379.65,548.161C1379.49,548.106 1379.33,548.026 1379.19,547.946Z"/>
            <g id="Ebene2">
                <g transform="matrix(1,0,0,1,-1.24902,3.64797)">
                    <path d="M1301.83,334.414C1300.2,335.614 1288.47,375.111 1288.13,393.754C1288.03,399.466 1295.06,401.641 1296.08,402.163C1302.53,405.458 1302.54,405.489 1308.57,398.25C1309.49,397.146 1317.5,388.087 1319.34,385.748C1320.9,383.765 1320.77,383.732 1324.42,385.698C1329.11,388.218 1341.52,393.211 1346.79,395.957C1352.31,398.833 1352.48,398.511 1356.5,396.419C1360.46,394.356 1363.54,393.598 1367.2,392.051C1372.05,390.004 1375.97,387.309 1380.02,384.709C1384.41,381.894 1384.64,383.04 1390.39,383.93C1394.34,384.54 1404.39,387.664 1408.62,388.973C1412.58,390.2 1413.17,389.763 1415.46,388.873C1421.53,386.519 1429.85,384.713 1435.86,383.89C1441.97,383.054 1441.44,383.06 1446.1,385.717C1450.7,388.339 1461.45,394.107 1467.44,396.561C1473.34,398.976 1472.92,399.131 1476.9,396.783C1482.66,393.382 1496.6,387.419 1502.67,385.133C1505.63,384.018 1505.03,384.211 1506.77,385.922C1508.05,387.171 1519.49,399.846 1522.05,403.357C1523.61,405.489 1523.55,405.039 1526.72,403.831C1529.51,402.765 1534.39,401.803 1534.9,403.108C1536.04,406.016 1536.88,407.712 1538.01,410.276C1540.65,416.258 1543.07,422.099 1545.22,429.238C1546.04,431.982 1548.05,437.126 1550.17,439.238C1551.41,440.487 1556.59,450.228 1557.33,438.385C1557.45,436.523 1559.47,431.641 1559.32,427.051C1558.96,416.208 1558.66,406.886 1558.06,397.603C1557.59,390.512 1558.23,387.875 1554.11,381.006C1552.38,378.12 1550.31,375.437 1549.01,372.595C1547.59,369.484 1547.55,370.104 1549.9,365.272C1550.93,363.152 1552.21,360.436 1550.48,357.427C1547.49,352.206 1540.88,346.575 1535.68,343.428C1533.43,342.067 1529.41,337.749 1526.64,335.723C1524.88,334.444 1524.96,334.093 1525.08,329.036C1525.18,325.192 1523.52,321.126 1521.12,316.03C1518.41,310.27 1518.79,310.741 1513.54,309.394C1510.31,308.566 1505.76,307.311 1503.03,306.539C1500.78,305.905 1498.2,305.479 1495.94,304.476C1491.69,302.586 1487.1,302.016 1482.79,300.29C1478.94,298.75 1455.85,293.318 1450.68,292.074C1447.24,291.246 1445.25,289.301 1439.98,283.656C1438.07,281.618 1433.73,277.767 1430.41,274.984C1425.6,270.952 1420.08,266.21 1417.25,264.403C1414.56,262.692 1413.79,263.451 1411.62,264.93C1409.42,266.434 1405.85,269.024 1402.03,272.357C1396.69,277.017 1389.84,283.291 1385.06,288.935C1382.57,291.88 1382.99,290.976 1372.54,293.151C1366.41,294.428 1359.74,295.625 1351.2,297.705C1346.58,298.831 1332.54,303.293 1326.71,305.67C1323.35,307.041 1314.28,308.474 1312.2,310.206C1310.35,311.753 1308.39,315.715 1307.73,317.856C1306.95,320.391 1305.76,325.013 1305.5,327.507C1305.07,331.766 1305.2,331.926 1301.83,334.414Z" style="fill:rgb(158,131,75);"/>
                </g>
                <path d="M1276.34,477.155C1276.46,480.265 1278.85,484.337 1279.75,486.628C1281.31,490.582 1285.2,499.432 1286.73,502.458C1287.69,504.372 1292.11,508.174 1291.84,504.601C1291.56,500.895 1291.8,498.052 1290.37,493.597C1288.34,487.267 1285.73,477.757 1284.38,471.257C1282.53,462.288 1280.51,456.07 1279.74,446.156C1279.37,441.489 1280.87,439.808 1282.22,437.684C1285.28,432.876 1287.17,428.4 1288.21,422.808C1288.91,419.083 1290.93,408.504 1291.87,404.619C1292.81,400.766 1291.73,399.939 1296.08,402.163C1302.53,405.458 1302.54,405.489 1308.57,398.25C1309.49,397.146 1317.5,388.087 1319.34,385.748C1320.9,383.765 1320.77,383.732 1324.42,385.698C1329.11,388.218 1341.52,393.211 1346.79,395.957C1352.31,398.833 1352.48,398.511 1356.5,396.419C1360.46,394.356 1363.54,393.598 1367.2,392.051C1372.05,390.004 1375.97,387.309 1380.02,384.709C1384.41,381.894 1384.64,383.04 1390.39,383.93C1394.34,384.54 1404.39,387.664 1408.62,388.973C1412.58,390.2 1413.17,389.763 1415.46,388.873C1421.53,386.519 1429.85,384.713 1435.86,383.89C1441.97,383.054 1441.44,383.06 1446.1,385.717C1450.7,388.339 1461.45,394.107 1467.44,396.561C1473.34,398.976 1472.92,399.131 1476.9,396.783C1482.66,393.382 1496.6,387.419 1502.67,385.133C1505.63,384.018 1505.03,384.211 1506.77,385.922C1508.05,387.171 1519.49,399.846 1522.05,403.357C1523.61,405.489 1523.55,405.039 1526.72,403.831C1529.51,402.765 1534.39,401.803 1534.9,403.108C1536.04,406.016 1536.88,407.712 1538.01,410.276C1540.65,416.258 1543.07,422.099 1545.22,429.238C1546.04,431.982 1548.05,437.126 1550.17,439.238C1551.41,440.487 1550.99,441.281 1550.96,442.922C1550.81,450.162 1550.21,452.45 1548.78,459.595C1546.83,469.35 1546.3,473.346 1543.17,482.734C1541.96,486.355 1541.71,488.424 1540.38,492.453C1540.19,493.023 1540.2,502.708 1540.86,503.311C1541.48,503.87 1544.65,505.953 1545.76,503.769C1548.39,498.576 1552.17,487.674 1553.92,482.378C1555.58,477.335 1556.09,473.365 1556.24,466.023C1556.48,454.215 1556.59,450.228 1557.33,438.385C1557.45,436.523 1559.47,431.641 1559.32,427.051C1558.96,416.208 1558.66,406.886 1558.06,397.603C1557.59,390.512 1558.23,387.875 1554.11,381.006C1552.38,378.12 1550.31,375.437 1549.01,372.595C1547.59,369.484 1547.55,370.104 1549.9,365.272C1550.93,363.152 1552.21,360.436 1550.48,357.427C1547.49,352.206 1540.88,346.575 1535.68,343.428C1533.43,342.067 1529.41,337.749 1526.64,335.723C1524.88,334.444 1524.96,334.093 1525.08,329.036C1525.18,325.192 1523.52,321.126 1521.12,316.03C1518.41,310.27 1518.79,310.741 1513.54,309.394C1510.31,308.566 1505.76,307.311 1503.03,306.539C1500.78,305.905 1498.2,305.479 1495.94,304.476C1491.69,302.586 1487.1,302.016 1482.79,300.29C1478.94,298.75 1455.85,293.318 1450.68,292.074C1447.24,291.246 1445.25,289.301 1439.98,283.656C1438.07,281.618 1433.73,277.767 1430.41,274.984C1425.6,270.952 1420.08,266.21 1417.25,264.403C1414.56,262.692 1413.79,263.451 1411.62,264.93C1409.42,266.434 1405.85,269.024 1402.03,272.357C1396.69,277.017 1389.84,283.291 1385.06,288.935C1382.57,291.88 1382.99,290.976 1372.54,293.151C1366.41,294.428 1359.74,295.625 1351.2,297.705C1346.58,298.831 1332.54,303.293 1326.71,305.67C1323.35,307.041 1314.28,308.474 1312.2,310.206C1310.35,311.753 1308.39,315.715 1307.73,317.856C1306.95,320.391 1305.76,325.013 1305.5,327.507C1305.07,331.766 1305.2,331.926 1301.83,334.414C1299.7,335.982 1295.8,339.825 1292.29,342.398C1288.12,345.456 1281.69,349.899 1279.07,352.068C1277.16,353.646 1277.2,362.196 1279.56,366.855C1281.8,371.26 1282.33,373.519 1279.75,376.95C1278.72,378.319 1277.58,380.249 1275.68,382.601C1274.59,383.964 1274.71,383.999 1274.53,386.457C1274.34,389.014 1273.82,397.317 1273.38,399.496C1272.43,404.263 1270.46,410.049 1269.79,415.419C1269.37,418.885 1268.6,424.973 1269.62,427.026C1271.38,430.537 1271.62,435.614 1272.02,439.553C1272.92,448.599 1275.36,454.293 1276.06,463.36C1276.58,470.065 1276.16,472.567 1276.34,477.155Z" style="fill:rgb(194,171,103);"/>
                <path d="M1294.16,403.457C1294.48,403.601 1294.82,403.768 1295.17,403.944C1297.27,405.02 1298.76,405.754 1299.97,406.073C1301.12,406.376 1302.11,406.368 1303.08,406.067C1303.94,405.8 1304.81,405.278 1305.78,404.386C1306.89,403.373 1308.22,401.796 1310.11,399.53C1311.03,398.422 1319.07,389.331 1320.91,386.984C1321.07,386.787 1321.24,386.575 1321.38,386.405C1321.83,386.619 1322.65,387.015 1323.48,387.46C1328.17,389.983 1340.59,394.982 1345.87,397.731C1349.07,399.396 1350.75,400.03 1352.18,400.051C1353.67,400.072 1354.99,399.461 1357.42,398.194C1361.33,396.159 1364.37,395.419 1367.98,393.893C1372.94,391.799 1376.96,389.052 1381.1,386.393C1383.48,384.868 1384.26,384.775 1386.05,385.135C1387.07,385.338 1388.32,385.634 1390.09,385.906C1393.98,386.507 1403.86,389.595 1408.02,390.883C1412.75,392.346 1413.45,391.798 1416.19,390.737C1422.12,388.436 1430.25,386.676 1436.13,385.871C1438.84,385.501 1440.08,385.256 1441.15,385.459C1442.21,385.659 1443.08,386.297 1445.11,387.454C1449.76,390.104 1460.63,395.931 1466.68,398.412C1468.91,399.325 1470.29,399.921 1471.32,400.207C1472.32,400.483 1473.1,400.524 1473.9,400.384C1474.93,400.201 1476.02,399.624 1477.91,398.506C1483.61,395.146 1497.38,389.262 1503.37,387.004C1503.84,386.829 1504.29,386.671 1504.61,386.565C1504.81,386.785 1505.1,387.083 1505.37,387.35C1506.63,388.582 1517.91,401.076 1520.44,404.538C1521.43,405.894 1522.14,406.455 1522.8,406.683C1523.4,406.889 1524.04,406.921 1524.88,406.677C1525.44,406.514 1526.22,406.163 1527.43,405.7C1529,405.1 1532.28,404.682 1533.32,404.561C1534.33,407.073 1535.14,408.711 1536.18,411.083C1538.79,416.992 1541.18,422.762 1543.3,429.815C1544.2,432.797 1546.46,438.356 1548.75,440.653C1549.06,440.961 1549.06,441.198 1549.04,441.507C1549.02,441.908 1548.97,442.353 1548.96,442.88C1548.81,449.968 1548.22,452.207 1546.82,459.203C1544.89,468.856 1544.37,472.812 1541.27,482.102C1540.06,485.725 1539.81,487.795 1538.48,491.827C1538.43,491.974 1538.34,492.494 1538.31,493.276C1538.24,495.279 1538.28,499.915 1538.55,502.242C1538.66,503.098 1538.83,503.731 1538.98,504.049C1539.14,504.396 1539.34,504.632 1539.52,504.792C1540.02,505.249 1541.79,506.442 1543.44,506.69C1545.09,506.938 1546.63,506.463 1547.54,504.673C1550.21,499.411 1554.05,488.37 1555.82,483.003C1557.54,477.78 1558.08,473.67 1558.24,466.064C1558.48,454.292 1558.59,450.317 1559.33,438.51C1559.45,436.617 1561.47,431.65 1561.32,426.985C1560.96,416.118 1560.66,406.776 1560.05,397.473C1559.56,389.991 1560.18,387.224 1555.83,379.976C1554.13,377.157 1552.09,374.542 1550.83,371.765C1550.4,370.821 1550.07,370.356 1550.02,369.872C1550,369.667 1550.11,369.482 1550.24,369.175C1550.54,368.481 1551.01,367.553 1551.7,366.149C1552.98,363.527 1554.35,360.154 1552.22,356.432C1549.08,350.955 1542.17,345.018 1536.71,341.716C1534.5,340.375 1530.55,336.105 1527.82,334.108C1527.52,333.89 1527.28,333.777 1527.16,333.552C1527.03,333.295 1527.05,332.956 1527.03,332.421C1527.01,331.622 1527.05,330.559 1527.08,329.085C1527.18,324.981 1525.49,320.618 1522.93,315.178C1521.38,311.88 1520.61,310.422 1519.58,309.539C1518.53,308.63 1517.13,308.251 1514.04,307.456C1510.82,306.632 1506.29,305.382 1503.57,304.614C1501.41,304.004 1498.93,303.613 1496.76,302.649C1492.48,300.748 1487.87,300.168 1483.53,298.433C1479.65,296.88 1456.37,291.384 1451.15,290.13C1447.99,289.371 1446.27,287.463 1441.44,282.291C1439.5,280.215 1435.07,276.287 1431.69,273.452C1426.82,269.358 1421.2,264.552 1418.32,262.717C1416.81,261.753 1415.7,261.432 1414.75,261.424C1413.39,261.411 1412.25,262.086 1410.5,263.277C1408.25,264.812 1404.61,267.452 1400.71,270.85C1395.31,275.569 1388.38,281.927 1383.54,287.643C1382.42,288.955 1382.1,289.252 1380.34,289.617C1378.76,289.945 1376.31,290.323 1372.13,291.193C1365.98,292.474 1359.29,293.676 1350.73,295.762C1346.05,296.901 1331.85,301.414 1325.96,303.818C1323.64,304.763 1318.57,305.725 1315.03,306.809C1313.17,307.381 1311.68,308.04 1310.92,308.67C1308.83,310.415 1306.56,314.852 1305.82,317.268C1305.01,319.903 1303.78,324.712 1303.51,327.305C1303.33,329.069 1303.35,329.996 1302.98,330.728C1302.64,331.41 1301.94,331.845 1300.64,332.805C1298.52,334.373 1294.61,338.213 1291.11,340.785C1286.91,343.865 1280.43,348.343 1277.79,350.527C1276.97,351.209 1276.22,352.718 1275.91,354.785C1275.37,358.475 1275.96,364.167 1277.78,367.76C1278.89,369.952 1279.61,371.469 1279.45,372.974C1279.36,373.872 1278.91,374.73 1278.15,375.749C1277.13,377.104 1276.01,379.017 1274.13,381.346C1272.7,383.111 1272.76,383.127 1272.53,386.312C1272.35,388.821 1271.85,396.967 1271.42,399.104C1270.46,403.914 1268.48,409.755 1267.81,415.174C1267.5,417.687 1267.03,421.532 1267.13,424.341C1267.18,425.855 1267.43,427.118 1267.83,427.92C1269.49,431.233 1269.66,436.036 1270.03,439.752C1270.93,448.781 1273.37,454.463 1274.07,463.513C1274.58,470.181 1274.17,472.669 1274.34,477.231C1274.47,480.546 1276.93,484.919 1277.89,487.361C1279.46,491.356 1283.4,500.298 1284.94,503.356C1285.68,504.829 1288.03,507.156 1289.71,507.806C1290.95,508.285 1292.01,508.077 1292.73,507.515C1293.34,507.044 1293.96,506.144 1293.84,504.45C1293.54,500.587 1293.76,497.628 1292.27,492.986C1290.26,486.714 1287.68,477.292 1286.34,470.852C1284.51,461.971 1282.5,455.817 1281.73,446.001C1281.42,442.002 1282.75,440.577 1283.91,438.757C1287.11,433.722 1289.09,429.031 1290.18,423.174C1290.87,419.471 1292.88,408.954 1293.82,405.092C1293.95,404.528 1294.07,403.95 1294.16,403.457ZM1544.05,502.716C1543.86,502.677 1543.53,502.598 1543.34,502.514C1543.07,502.393 1542.82,502.252 1542.61,502.124C1542.54,500.697 1542.23,494.351 1542.33,492.96L1542.34,492.912C1543.62,488.995 1543.87,486.935 1545.06,483.367C1548.23,473.881 1548.77,469.844 1550.74,459.987C1552.2,452.692 1552.8,450.355 1552.96,442.963C1553.01,440.646 1553.34,439.588 1551.58,437.824C1549.65,435.896 1547.88,431.166 1547.13,428.662C1544.96,421.436 1542.51,415.524 1539.84,409.47C1538.73,406.933 1537.88,405.256 1536.76,402.38C1536.4,401.461 1535.34,400.588 1533.54,400.49C1531.54,400.381 1528.2,401.126 1526,401.963C1525.26,402.246 1524.51,402.538 1524.08,402.707C1523.95,402.55 1523.8,402.355 1523.67,402.177C1521.06,398.616 1509.46,385.76 1508.17,384.493C1507.5,383.832 1507.13,383.385 1506.81,383.124C1506.45,382.83 1506.1,382.649 1505.72,382.542C1505.27,382.418 1504.77,382.381 1504.08,382.539C1503.62,382.645 1502.97,382.881 1501.96,383.261C1495.82,385.575 1481.71,391.618 1475.88,395.061C1474.59,395.822 1473.9,396.321 1473.2,396.445C1472.84,396.51 1472.49,396.397 1471.97,396.223C1471.08,395.921 1469.92,395.413 1468.2,394.711C1462.27,392.283 1451.64,386.573 1447.09,383.98C1444.46,382.479 1443.27,381.787 1441.89,381.528C1440.55,381.273 1438.99,381.443 1435.59,381.908C1429.44,382.749 1420.94,384.603 1414.74,387.008C1412.89,387.727 1412.41,388.054 1409.21,387.062C1404.92,385.733 1394.71,382.573 1390.7,381.953C1384.17,380.944 1383.92,379.83 1378.94,383.026C1374.98,385.566 1371.16,388.209 1366.43,390.208C1362.71,391.777 1359.6,392.553 1355.58,394.645C1353.99,395.471 1353.21,396.065 1352.24,396.051C1351.2,396.036 1350.04,395.394 1347.71,394.183C1342.45,391.44 1330.06,386.454 1325.37,383.937C1323.9,383.146 1322.97,382.662 1322.31,382.448C1321.36,382.139 1320.66,382.199 1320.03,382.44C1319.37,382.693 1318.72,383.303 1317.77,384.512C1315.93,386.843 1307.95,395.871 1307.03,396.971C1305.57,398.725 1304.48,400.041 1303.56,400.975C1302.91,401.634 1302.42,402.081 1301.89,402.247C1301.49,402.372 1301.08,402.255 1300.57,402.073C1299.63,401.742 1298.5,401.153 1296.99,400.382C1295.59,399.668 1294.67,399.249 1294.06,399.083C1293.48,398.922 1293.01,398.922 1292.64,398.988C1291.75,399.146 1291.11,399.616 1290.7,400.587C1290.44,401.189 1290.36,402.371 1289.93,404.146C1288.98,408.054 1286.94,418.694 1286.25,422.441C1285.25,427.769 1283.45,432.03 1280.53,436.61C1278.99,439.039 1277.33,440.975 1277.74,446.312C1278.52,456.323 1280.55,462.604 1282.43,471.662C1283.78,478.222 1286.41,487.819 1288.46,494.208C1289.59,497.71 1289.62,500.175 1289.74,502.909C1289.21,502.435 1288.69,501.917 1288.51,501.56C1287.01,498.566 1283.15,489.807 1281.61,485.895C1280.77,483.754 1278.45,479.983 1278.34,477.078C1278.16,472.465 1278.57,469.949 1278.05,463.206C1277.36,454.122 1274.91,448.417 1274.01,439.354C1273.59,435.193 1273.27,429.841 1271.41,426.131C1271.1,425.504 1271.1,424.373 1271.12,423.084C1271.16,420.625 1271.53,417.686 1271.78,415.663C1272.43,410.343 1274.4,404.611 1275.34,399.889C1275.78,397.668 1276.34,389.208 1276.52,386.601C1276.65,384.869 1276.47,384.817 1277.24,383.857C1279.16,381.482 1280.31,379.534 1281.35,378.151C1282.64,376.425 1283.27,374.914 1283.43,373.392C1283.65,371.267 1282.92,369.044 1281.35,365.949C1280.07,363.432 1279.58,359.647 1279.74,356.72C1279.79,355.803 1279.9,354.975 1280.09,354.309C1280.17,354.025 1280.35,353.64 1280.39,353.573C1283.01,351.408 1289.36,347.03 1293.47,344.011C1296.98,341.436 1300.89,337.592 1303.02,336.023C1305.09,334.494 1306.01,333.606 1306.55,332.521C1307.07,331.486 1307.24,330.205 1307.49,327.709C1307.74,325.315 1308.89,320.878 1309.64,318.444C1310.22,316.578 1311.87,313.091 1313.48,311.743C1314.18,311.158 1315.86,310.702 1317.77,310.186C1321.23,309.245 1325.4,308.365 1327.47,307.521C1333.22,305.172 1347.1,300.761 1351.67,299.648C1360.18,297.575 1366.84,296.382 1372.95,295.109C1377.13,294.239 1379.57,293.862 1381.15,293.534C1384.14,292.915 1384.71,292.449 1386.59,290.228C1391.31,284.655 1398.07,278.464 1403.34,273.864C1407.09,270.596 1410.59,268.057 1412.75,266.582C1413.24,266.249 1413.65,265.953 1414.03,265.72C1414.28,265.57 1414.47,265.421 1414.71,265.423C1415.11,265.427 1415.53,265.683 1416.17,266.089C1418.96,267.869 1424.39,272.547 1429.12,276.516C1432.38,279.247 1436.65,283.022 1438.52,285.022C1444.23,291.139 1446.48,293.121 1450.21,294.019C1455.34,295.252 1478.23,300.62 1482.05,302.147C1486.34,303.863 1490.9,304.424 1495.13,306.304C1497.48,307.346 1500.15,307.805 1502.49,308.464C1505.23,309.239 1509.8,310.499 1513.04,311.331C1514.31,311.656 1515.24,311.869 1515.96,312.096C1516.39,312.234 1516.72,312.35 1516.98,312.576C1517.75,313.235 1518.15,314.42 1519.31,316.883C1521.55,321.635 1523.17,325.403 1523.08,328.988C1523.03,331.243 1523,332.617 1523.1,333.553C1523.21,334.536 1523.46,335.199 1523.84,335.775C1524.19,336.312 1524.69,336.779 1525.46,337.338C1528.27,339.394 1532.36,343.759 1534.64,345.139C1539.59,348.132 1545.9,353.458 1548.75,358.421C1550.06,360.72 1548.89,362.777 1548.1,364.396C1547.21,366.23 1546.65,367.322 1546.36,368.117C1546.05,368.966 1545.98,369.612 1546.04,370.258C1546.12,371.051 1546.48,371.88 1547.19,373.426C1548.52,376.332 1550.62,379.084 1552.39,382.035C1556.29,388.526 1555.62,391.032 1556.06,397.733C1556.66,406.996 1556.96,416.298 1557.32,427.117C1557.4,429.67 1556.74,432.317 1556.19,434.402C1555.75,436.066 1555.39,437.434 1555.34,438.26C1554.59,450.139 1554.48,454.138 1554.24,465.982C1554.09,473.061 1553.62,476.89 1552.02,481.752C1550.31,486.929 1546.64,497.536 1544.05,502.716Z"/>
                <path d="M1381.69,294.089C1383.05,293.579 1390.64,291.065 1392.45,290.481C1399.13,288.316 1401.64,288.084 1407.76,286.477C1413.11,285.071 1414.87,285.097 1420.21,286.598C1425.32,288.036 1430,289.03 1435.82,290.485C1439.39,291.38 1445.88,292.781 1447.76,293.467C1448.8,293.845 1449.94,293.311 1450.32,292.274C1450.7,291.237 1450.17,290.088 1449.13,289.709C1447.19,289 1440.48,287.53 1436.79,286.605C1431.01,285.16 1426.37,284.175 1421.29,282.747C1415.05,280.993 1412.99,280.965 1406.74,282.608C1400.54,284.238 1397.99,284.48 1391.21,286.676C1389.37,287.271 1381.61,289.843 1380.27,290.351C1379.6,290.602 1379.31,290.937 1379.27,290.988C1378.85,291.471 1378.78,291.948 1378.77,292.295C1378.77,292.862 1378.97,293.367 1379.42,293.785C1379.62,293.965 1380.02,294.309 1380.78,294.309C1381.11,294.309 1381.42,294.23 1381.69,294.089ZM1382.62,293.088L1382.61,293.103L1382.62,293.088ZM1382.66,292.996L1382.62,293.08L1382.65,293.005C1382.66,292.977 1382.67,292.949 1382.68,292.921L1382.69,292.909L1382.66,292.996ZM1382.71,292.832L1382.7,292.868L1382.71,292.838L1382.71,292.832ZM1382.34,291.059C1382.52,291.289 1382.66,291.562 1382.73,291.861C1382.67,291.571 1382.54,291.303 1382.34,291.059ZM1380.89,290.312C1381.31,290.335 1381.7,290.491 1382.02,290.74C1381.81,290.566 1381.46,290.338 1380.89,290.312Z"/>
                <path d="M1393.42,333.675C1393.34,334.458 1392.89,339.428 1393.23,342.696C1393.59,346.188 1395.12,349.761 1396.51,351.895C1398.43,354.848 1402.63,358.013 1406.33,358.16C1410.74,358.335 1417.8,358.346 1422.81,357.718C1425.22,357.416 1427.19,356.934 1428.35,356.324C1429.32,355.808 1429.69,354.597 1429.18,353.621C1428.66,352.645 1427.45,352.272 1426.48,352.788C1425.61,353.245 1424.11,353.523 1422.31,353.749C1417.5,354.352 1410.72,354.332 1406.48,354.163C1403.95,354.063 1401.18,351.737 1399.86,349.713C1398.74,347.989 1397.5,345.102 1397.21,342.281C1396.86,338.897 1397.42,334.362 1397.43,333.597C1397.43,332.28 1396.54,331.805 1396.36,331.709C1395.7,331.352 1394.85,331.199 1393.99,332.058C1393.55,332.5 1393.36,333.098 1393.42,333.675ZM1394.7,335.343C1395.32,335.607 1396.07,335.64 1396.82,334.886C1396.25,335.459 1395.41,335.612 1394.7,335.343Z"/>
                <path d="M1330.85,327.389C1329.43,329.379 1324.38,335.299 1323.33,336.486C1320.86,339.259 1319.27,341.502 1315.98,346.306C1314.38,348.632 1314.8,350.79 1315.98,352.563C1316.91,353.972 1318.42,355.095 1319.51,355.72C1324.41,358.548 1330.02,361.645 1334.91,363.791C1337.75,365.035 1340.94,366.573 1343.76,367.831C1344.76,368.282 1345.95,367.83 1346.4,366.822C1346.85,365.814 1346.4,364.63 1345.39,364.18C1342.57,362.918 1339.36,361.375 1336.52,360.127C1331.75,358.036 1326.28,355.012 1321.51,352.255C1320.84,351.871 1319.88,351.212 1319.31,350.345C1318.97,349.842 1318.82,349.23 1319.27,348.569C1322.44,343.961 1323.95,341.803 1326.32,339.144C1327.41,337.912 1332.64,331.767 1334.11,329.703C1334.75,328.803 1334.53,327.553 1333.63,326.915C1332.73,326.276 1331.48,326.489 1330.85,327.389Z"/>
                <path d="M1284.28,370.58C1284.28,370.525 1284.28,370.468 1284.27,370.412C1284.19,369.311 1283.23,368.483 1282.13,368.565C1282.05,368.571 1280.15,368.982 1280.29,370.9C1280.37,372.022 1280.95,377.723 1280.78,379.821C1280.57,382.262 1279.72,384.385 1278.7,386.635C1278.03,388.115 1276.78,391.089 1275.93,392.445C1274.87,394.15 1273.96,395.251 1272.21,397.991C1271.62,398.921 1271.89,400.159 1272.82,400.753C1273.75,401.348 1274.99,401.075 1275.58,400.145C1277.34,397.389 1278.25,396.28 1279.32,394.565C1280.24,393.098 1281.61,389.891 1282.34,388.29C1283.56,385.611 1284.51,383.068 1284.76,380.162C1284.95,377.917 1284.36,371.819 1284.28,370.619L1284.28,370.58Z"/>
                <path d="M1311.38,324.419C1310.06,326.388 1307.55,328.973 1305.16,330.434C1304.22,331.011 1303.93,332.243 1304.51,333.184C1305.08,334.125 1306.32,334.421 1307.26,333.844C1310.13,332.082 1313.16,328.958 1314.74,326.594C1315.18,325.933 1315.48,324.708 1315.61,323.339C1315.67,322.625 1315.72,321.865 1315.8,321.197C1315.84,320.876 1315.95,320.393 1315.96,320.324C1318.77,315.658 1321.56,312.408 1326.02,309.062C1326.9,308.4 1327.08,307.145 1326.42,306.262C1325.76,305.379 1324.5,305.2 1323.62,305.862C1318.69,309.558 1315.61,313.143 1312.51,318.307C1312.12,318.953 1311.87,320.154 1311.75,321.493C1311.68,322.194 1311.64,322.94 1311.55,323.595C1311.51,323.894 1311.4,324.343 1311.38,324.419Z"/>
                <path d="M1498.59,307.646C1499.88,308.784 1503.3,311.577 1504.32,312.962C1506.53,315.942 1509.54,319.346 1511.04,322.618C1512.95,326.783 1516.27,330.109 1523.06,335.082C1523.95,335.735 1525.21,335.541 1525.86,334.651C1526.51,333.76 1526.32,332.508 1525.43,331.855C1519.42,327.457 1516.37,324.632 1514.67,320.949C1513.07,317.449 1509.89,313.772 1507.54,310.585C1506.4,309.051 1502.66,305.907 1501.24,304.647C1500.41,303.916 1499.14,303.995 1498.41,304.823C1497.68,305.651 1497.76,306.916 1498.59,307.646Z"/>
                <path d="M1547.7,372.075C1548.39,371.739 1548.86,371.014 1548.83,370.195C1548.78,369.092 1547.85,368.232 1546.75,368.276C1544.88,368.35 1543.8,369.58 1543.67,371.73C1543.53,374.023 1544.89,377.954 1545.12,379.018C1546.3,384.311 1547.51,389.368 1549.41,394.435C1549.67,395.116 1549.66,395.818 1549.71,396.507C1549.77,397.246 1549.87,397.978 1550.11,398.693C1550.79,400.748 1551.98,402.23 1553.06,404.019C1553.62,404.965 1554.85,405.273 1555.8,404.705C1556.75,404.137 1557.06,402.907 1556.49,401.961C1555.57,400.428 1554.49,399.189 1553.9,397.428C1553.67,396.735 1553.69,396.011 1553.63,395.291C1553.56,394.533 1553.44,393.777 1553.16,393.03C1551.32,388.141 1550.16,383.258 1549.03,378.15C1548.88,377.481 1548.22,375.582 1547.85,373.776C1547.75,373.24 1547.71,372.5 1547.7,372.075Z"/>
                <path d="M1558.28,434.419C1559.16,434.333 1559.9,433.663 1560.05,432.747C1560.23,431.658 1559.49,430.63 1558.4,430.454C1556.76,430.191 1555.85,430.804 1555.18,431.731C1554.93,432.071 1554.73,432.487 1554.55,432.941C1554.43,433.239 1554.34,433.576 1554.14,433.849C1552.76,435.785 1551.3,438.045 1549.63,439.716C1548.85,440.496 1548.85,441.764 1549.63,442.544C1550.41,443.325 1551.67,443.325 1552.45,442.544C1554.27,440.724 1555.89,438.283 1557.39,436.174C1557.68,435.781 1557.89,435.341 1558.07,434.899L1558.28,434.419Z"/>
                <path d="M1268.33,429.285C1269.18,430.604 1271.02,432.939 1271.85,433.796C1274.25,436.271 1276.11,438.554 1279.41,440.758C1280.33,441.371 1281.57,441.124 1282.18,440.207C1282.8,439.289 1282.55,438.046 1281.63,437.432C1278.6,435.409 1276.93,433.282 1274.72,431.009C1274,430.271 1272.42,428.257 1271.69,427.121C1271.1,426.193 1269.86,425.924 1268.93,426.521C1268,427.118 1267.73,428.356 1268.33,429.285Z"/>
            </g>
        </g>
    </g>
</svg>
