<?xml version="1.0" encoding="UTF-8" standalone="no"?>
<!DOCTYPE svg PUBLIC "-//W3C//DTD SVG 1.1//EN" "http://www.w3.org/Graphics/SVG/1.1/DTD/svg11.dtd">
<svg width="100%" height="100%" viewBox="0 0 214 276" version="1.1" xmlns="http://www.w3.org/2000/svg" xmlns:xlink="http://www.w3.org/1999/xlink" xml:space="preserve" xmlns:serif="http://www.serif.com/" style="fill-rule:evenodd;clip-rule:evenodd;stroke-linejoin:round;stroke-miterlimit:2;">
    <g transform="matrix(1,0,0,1,-1081.05,-288.175)">
        <g id="Ebene1" transform="matrix(0.727655,0,0,0.727655,158.572,97.4937)">
            <path d="M1376.53,594.761C1379.24,596.023 1381.4,594.991 1383.91,593.235C1388.64,589.924 1392.3,587.548 1396.84,581.351C1397.76,580.096 1399.17,576.546 1400.77,575.749C1402.6,574.833 1433.1,576.044 1433.88,576.689C1436.86,579.177 1437.12,582.882 1439.91,585.667C1441.82,587.58 1444.22,590.039 1446.3,591.255C1449.55,593.157 1452.27,594.919 1455.81,594.558C1458.59,594.273 1459,599.312 1458.93,600.067C1458.32,606.81 1451.53,611.665 1447.41,616.242C1445.13,618.773 1436.69,624.165 1435.31,625.202C1431.64,627.952 1428.28,629.457 1424.25,631.718C1418.81,634.774 1413.3,633.415 1409.36,631.718C1407.16,630.772 1405,629.361 1402.84,628.576C1401.35,628.035 1385.46,619.094 1384.22,618.104C1382.66,616.853 1374.61,610.66 1373.63,607.747C1372.64,604.761 1372.08,599.389 1374.1,596.693C1374.44,596.246 1375.94,594.485 1376.53,594.761Z" style="fill:rgb(219,196,168);"/>
            <path d="M1377.11,593.515C1376.69,593.319 1376.13,593.277 1375.51,593.566C1374.64,593.969 1373.34,595.423 1373,595.868C1372.05,597.136 1371.55,598.894 1371.4,600.787C1371.21,603.392 1371.69,606.25 1372.33,608.182C1372.66,609.185 1373.69,610.56 1375.07,611.987C1377.91,614.933 1382.25,618.287 1383.37,619.177C1384.63,620.187 1400.85,629.315 1402.37,629.868C1404.51,630.644 1406.64,632.045 1408.82,632.98C1413.08,634.816 1419.04,636.222 1424.92,632.917C1429.01,630.624 1432.41,629.09 1436.13,626.301C1437.54,625.247 1446.11,619.737 1448.43,617.161C1450.5,614.868 1453.23,612.504 1455.52,609.869C1458,607.017 1459.96,603.849 1460.3,600.192C1460.35,599.655 1460.21,597.288 1459.37,595.556C1458.63,594.038 1457.4,593.013 1455.67,593.19C1452.43,593.522 1449.97,591.811 1446.99,590.069C1445,588.903 1442.71,586.53 1440.88,584.696C1439.6,583.417 1438.92,581.913 1438.2,580.456C1437.33,578.703 1436.41,577.009 1434.76,575.633C1434.64,575.54 1434.39,575.368 1433.94,575.268C1433.43,575.152 1432.16,575.015 1430.41,574.885C1423.77,574.393 1409.68,573.892 1403.56,574.088C1401.73,574.146 1400.5,574.343 1400.15,574.519C1399.34,574.926 1398.51,575.848 1397.8,576.965C1396.98,578.253 1396.27,579.802 1395.73,580.54C1391.31,586.578 1387.73,588.882 1383.12,592.109C1381.06,593.547 1379.33,594.55 1377.11,593.515ZM1433.21,577.932C1434.41,579.012 1435.07,580.338 1435.74,581.677C1436.59,583.391 1437.43,585.133 1438.93,586.638C1440.92,588.631 1443.44,591.175 1445.6,592.442C1449.13,594.503 1452.11,596.317 1455.95,595.925C1456.45,595.874 1456.68,596.322 1456.89,596.757C1457.47,597.95 1457.59,599.573 1457.56,599.943C1457.28,603.028 1455.54,605.659 1453.45,608.064C1451.16,610.687 1448.44,613.039 1446.39,615.323C1444.15,617.809 1435.84,623.084 1434.48,624.102C1430.87,626.813 1427.55,628.291 1423.58,630.52C1418.58,633.326 1413.52,632.014 1409.9,630.456C1407.68,629.499 1405.49,628.078 1403.31,627.285C1401.85,626.755 1386.29,618 1385.08,617.031C1384.01,616.169 1379.8,612.929 1377.04,610.077C1376.02,609.02 1375.19,608.057 1374.94,607.313C1374.39,605.661 1373.98,603.218 1374.15,600.991C1374.25,599.662 1374.53,598.407 1375.2,597.517C1375.35,597.311 1376.12,596.572 1376.48,596.232C1379.43,597.376 1381.89,596.32 1384.69,594.362C1389.55,590.965 1393.3,588.518 1397.95,582.163C1398.51,581.395 1399.26,579.786 1400.12,578.443C1400.5,577.838 1400.88,577.269 1401.31,577.015C1401.5,576.993 1402.58,576.869 1403.65,576.835C1409.7,576.641 1423.63,577.14 1430.21,577.626C1431.58,577.727 1432.81,577.88 1433.21,577.932Z"/>
            <path d="M1374.37,593.053C1371.14,591.121 1367.08,589.917 1363.68,589.85C1359.88,589.774 1356.43,588.804 1356.33,593.817C1356.21,599.465 1358.7,602.47 1362.01,606.024C1370.23,614.824 1374.81,620.506 1385.17,627.034C1394.03,632.614 1409.05,639.617 1415.3,639.51C1421.21,639.41 1427.62,636.131 1431.6,634.291C1436.48,632.033 1441.08,630.081 1445.37,627.552C1451.47,623.966 1455.78,620.632 1459.76,616.602C1461.69,614.647 1465.48,611.397 1469.53,605.76C1471.27,603.349 1472.63,603.109 1472.9,594.088C1473.11,587.322 1463.68,590.164 1459.94,591.801C1458.04,592.635 1454.4,594.544 1454.4,594.544C1454.4,594.544 1457.37,596.143 1457.26,599.77C1457.11,604.679 1454.45,606.675 1450.95,610.483C1445.14,616.818 1438.81,620.479 1435.21,622.142C1426.12,626.344 1424.07,627.424 1420.31,629.819C1416.65,632.147 1414.84,632.754 1410.09,629.371C1406.01,626.472 1391.72,619.214 1387.24,616.442C1384.08,614.485 1379.09,607.08 1376.41,603.348C1374,600.007 1376.12,596.744 1378.3,595.598C1379.25,595.098 1375.4,593.673 1374.37,593.053Z" style="fill:rgb(90,157,225);"/>
            <path d="M1375.07,591.875C1371.65,589.82 1367.32,588.548 1363.71,588.476C1362.04,588.443 1360.43,588.258 1359.13,588.428C1357.94,588.581 1356.96,589.002 1356.23,589.815C1355.51,590.61 1355,591.837 1354.96,593.789C1354.83,599.869 1357.44,603.136 1361.01,606.961C1369.32,615.861 1373.96,621.595 1384.44,628.196C1390.72,632.154 1400.06,636.816 1407.27,639.221C1410.51,640.299 1413.33,640.918 1415.32,640.884C1421.43,640.781 1428.06,637.439 1432.17,635.538C1437.1,633.26 1441.74,631.288 1446.07,628.737C1452.29,625.08 1456.68,621.677 1460.74,617.568C1462.7,615.584 1466.54,612.281 1470.65,606.562C1472.5,603.992 1473.98,603.746 1474.28,594.13C1474.33,592.333 1473.82,591.064 1473.01,590.173C1472.2,589.281 1471.07,588.747 1469.72,588.532C1466.45,588.008 1461.81,589.482 1459.39,590.542C1457.46,591.389 1453.76,593.327 1453.76,593.327C1453.31,593.563 1453.03,594.028 1453.02,594.536C1453.02,595.044 1453.3,595.512 1453.75,595.754C1453.75,595.754 1455.97,596.981 1455.88,599.729C1455.75,604.263 1453.17,606.036 1449.94,609.554C1444.28,615.714 1438.14,619.277 1434.64,620.894C1425.44,625.143 1423.37,626.238 1419.57,628.659C1418.01,629.652 1416.87,630.345 1415.59,630.362C1414.3,630.379 1412.93,629.704 1410.88,628.251C1406.79,625.342 1392.45,618.055 1387.97,615.274C1384.9,613.378 1380.12,606.16 1377.52,602.545C1375.75,600.073 1377.33,597.662 1378.94,596.814C1379.57,596.482 1379.77,596.001 1379.82,595.557C1379.85,595.196 1379.77,594.756 1379.41,594.323C1379.18,594.044 1378.7,593.682 1378.07,593.341C1377.08,592.802 1375.64,592.216 1375.07,591.875ZM1376.17,595.454C1374.12,597.366 1372.83,600.727 1375.29,604.15C1378.06,607.999 1383.26,615.592 1386.52,617.611C1390.98,620.373 1405.23,627.601 1409.29,630.491C1412.01,632.422 1413.91,633.133 1415.63,633.111C1417.35,633.088 1418.94,632.314 1421.04,630.978C1424.77,628.61 1426.79,627.546 1435.79,623.389C1439.49,621.681 1445.99,617.922 1451.97,611.413C1455.73,607.314 1458.47,605.095 1458.63,599.812C1458.7,597.52 1457.77,595.883 1456.84,594.829C1458.01,594.235 1459.49,593.497 1460.49,593.06C1462.24,592.294 1465.32,591.232 1467.93,591.168C1469.17,591.137 1470.31,591.277 1470.97,592.017C1471.38,592.468 1471.56,593.136 1471.53,594.046C1471.27,602.471 1470.04,602.706 1468.42,604.958C1464.42,610.512 1460.69,613.71 1458.78,615.637C1454.88,619.587 1450.65,622.852 1444.68,626.368C1440.42,628.875 1435.86,630.805 1431.02,633.044C1427.17,634.822 1420.99,638.039 1415.28,638.136C1412.89,638.177 1409.18,637.097 1405.04,635.49C1398.59,632.992 1391.15,629.179 1385.9,625.871C1375.66,619.417 1371.14,613.787 1363.02,605.086C1359.96,601.805 1357.6,599.06 1357.7,593.845C1357.73,592.657 1357.91,591.924 1358.4,591.529C1358.91,591.122 1359.63,591.102 1360.44,591.1C1361.43,591.098 1362.53,591.201 1363.65,591.224C1366.84,591.287 1370.64,592.422 1373.66,594.232L1373.66,594.232C1374.14,594.522 1375.22,594.987 1376.17,595.454Z"/>
            <path d="M1521.14,530.125C1522.64,527.328 1530.09,511.02 1536.28,502.689C1538.08,500.279 1547.12,497.947 1546.98,498.627C1545.07,508.188 1535.94,526.266 1530.31,532.905C1527.45,536.269 1518.98,534.163 1521.14,530.125Z" style="fill:rgb(229,189,140);"/>
            <path d="M1519.93,529.475C1519.39,530.476 1519.32,531.405 1519.52,532.23C1519.8,533.378 1520.69,534.374 1521.98,535.039C1523.58,535.86 1525.81,536.179 1527.78,535.777C1529.2,535.488 1530.47,534.829 1531.35,533.795C1537.09,527.036 1546.38,508.631 1548.33,498.896C1548.42,498.442 1548.31,498.052 1548.04,497.717C1547.87,497.502 1547.51,497.185 1546.86,497.14C1545.95,497.077 1542.63,497.816 1539.76,498.98C1537.72,499.802 1535.93,500.865 1535.18,501.87C1528.95,510.254 1521.44,526.661 1519.93,529.475ZM1545.2,500.202C1542.65,509.911 1534.45,525.902 1529.26,532.015C1528.76,532.596 1528.02,532.922 1527.23,533.084C1525.87,533.361 1524.34,533.16 1523.24,532.595C1522.73,532.334 1522.3,532.022 1522.19,531.571C1522.13,531.33 1522.2,531.067 1522.35,530.775C1523.85,527.996 1531.23,511.787 1537.39,503.509C1537.93,502.779 1539.31,502.126 1540.79,501.528C1542.19,500.96 1543.97,500.492 1545.2,500.202Z"/>
            <path d="M1296.01,508.272C1293.57,505.193 1289.95,505.704 1290.41,507.111C1292.65,513.985 1299.47,528.206 1304.68,533.421C1305.06,533.793 1311.22,535.763 1311.21,534.123C1311.19,529.451 1296.3,508.632 1296.01,508.272Z" style="fill:rgb(229,189,140);"/>
            <path d="M1297.09,507.418C1294.87,504.617 1291.81,504.319 1290.43,504.889C1289.75,505.169 1289.33,505.638 1289.13,506.153C1288.97,506.566 1288.94,507.032 1289.1,507.536C1291.39,514.558 1298.38,529.067 1303.71,534.392C1303.82,534.499 1304.12,534.724 1304.63,534.929C1305.71,535.372 1308.23,536.103 1309.85,536.139C1311.65,536.178 1312.59,535.247 1312.59,534.117C1312.58,532.598 1311.22,529.466 1309.17,525.868C1304.72,518.047 1297.29,507.672 1297.09,507.418ZM1291.96,507.399C1292.11,507.398 1292.27,507.406 1292.41,507.436C1293.22,507.61 1294.15,508.135 1294.94,509.126C1295.13,509.375 1302.42,519.555 1306.78,527.226C1307.88,529.153 1308.79,530.915 1309.34,532.312C1309.49,532.702 1309.62,533.056 1309.71,533.367C1309.54,533.362 1309.37,533.351 1309.21,533.33C1307.91,533.151 1305.91,532.455 1305.52,532.315C1300.61,527.286 1294.34,514.293 1291.96,507.399Z"/>
            <path d="M1494.72,364.902C1485.11,362.127 1436.85,361.848 1416.08,362.318C1408.5,362.49 1350.88,363.303 1344.49,364.103C1323.2,366.763 1300.5,374.522 1287.47,392.758C1279.56,403.837 1274.81,420.027 1275.65,433.525C1276.53,447.576 1278.26,465.953 1282.8,479.228C1289.93,500.072 1301.04,520.693 1313.75,541.867C1317.65,548.367 1323.11,554.389 1327.67,558.951C1329.91,561.186 1346.3,571.037 1355.44,574.085C1376.35,581.055 1397.16,582.421 1419.54,582.624C1431.57,582.733 1450.61,578.859 1459.2,577.566C1475.41,575.127 1483.34,570.832 1492.86,566.63C1499.13,563.865 1509.29,553.317 1516.23,543.384C1520.29,537.57 1523.02,532.319 1526.73,525.559C1532.56,514.951 1537.57,506.135 1541.38,496.241C1547.13,481.291 1548.72,462.917 1551.32,447.344C1552.94,437.583 1554.15,429.033 1551.87,418.754C1549.57,408.428 1542.81,399.626 1535.91,391.872C1531.72,387.149 1506.59,368.331 1494.72,364.902Z" style="fill:rgb(219,196,168);"/>
            <path d="M1495.1,363.581C1485.44,360.792 1436.92,360.472 1416.05,360.944C1408.45,361.116 1350.72,361.938 1344.32,362.739C1322.67,365.445 1299.6,373.408 1286.35,391.959C1278.27,403.278 1273.42,419.82 1274.28,433.611C1275.17,447.773 1276.92,466.293 1281.5,479.672C1288.66,500.603 1299.81,521.312 1312.57,542.574C1316.53,549.173 1322.07,555.291 1326.7,559.923C1328.98,562.202 1345.68,572.28 1355.01,575.389C1376.05,582.404 1397,583.794 1419.52,583.998C1431.63,584.108 1450.77,580.225 1459.41,578.925C1475.78,576.461 1483.79,572.133 1493.41,567.888C1499.82,565.06 1510.26,554.326 1517.36,544.171C1521.44,538.315 1524.2,533.028 1527.94,526.22C1533.79,515.552 1538.83,506.684 1542.66,496.734C1548.44,481.701 1550.06,463.23 1552.67,447.57C1554.33,437.63 1555.53,428.924 1553.21,418.456C1550.86,407.902 1543.99,398.884 1536.94,390.959C1532.68,386.162 1507.16,367.064 1495.1,363.581ZM1494.34,366.222C1506.03,369.598 1530.75,388.135 1534.89,392.785C1541.63,400.368 1548.28,408.954 1550.52,419.052C1552.77,429.143 1551.56,437.535 1549.96,447.118C1547.38,462.605 1545.81,480.881 1540.1,495.748C1536.31,505.586 1531.32,514.349 1525.53,524.897C1521.84,531.609 1519.13,536.825 1515.1,542.598C1508.32,552.308 1498.43,562.669 1492.3,565.373C1482.88,569.532 1475.04,573.793 1459,576.207C1450.45,577.493 1431.52,581.359 1419.55,581.25C1397.32,581.048 1376.64,579.705 1355.87,572.781C1346.91,569.794 1330.84,560.17 1328.65,557.979C1324.15,553.486 1318.77,547.561 1314.92,541.159C1302.27,520.073 1291.2,499.541 1284.1,478.783C1279.6,465.613 1277.9,447.38 1277.03,433.439C1276.2,420.233 1280.85,404.395 1288.59,393.557C1301.39,375.635 1323.74,368.081 1344.66,365.466C1351.04,364.669 1408.54,363.863 1416.11,363.692C1436.77,363.225 1484.78,363.462 1494.34,366.222Z"/>
            <path d="M1315.81,462.081C1311.84,467.067 1310.4,478.238 1310.68,485.043C1311.02,493.47 1314.66,501.803 1319.55,508.68C1322.08,512.233 1326.02,515.436 1329.19,517.398C1332.52,519.45 1338.97,521.741 1345.88,521.571C1354.95,521.349 1360.97,515.659 1363.11,513.049C1367.51,507.672 1371.18,500.551 1372.42,493.908C1374.04,485.266 1373.67,474.28 1369.82,466.564C1368,462.933 1366.11,459.121 1360.89,454.085C1359.14,452.397 1351.68,448.566 1345.26,448.363C1335.01,448.038 1322.76,453.36 1315.81,462.081Z" style="fill:rgb(240,242,230);"/>
            <clipPath id="_clip1">
                <path d="M1315.81,462.081C1311.84,467.067 1310.4,478.238 1310.68,485.043C1311.02,493.47 1314.66,501.803 1319.55,508.68C1322.08,512.233 1326.02,515.436 1329.19,517.398C1332.52,519.45 1338.97,521.741 1345.88,521.571C1354.95,521.349 1360.97,515.659 1363.11,513.049C1367.51,507.672 1371.18,500.551 1372.42,493.908C1374.04,485.266 1373.67,474.28 1369.82,466.564C1368,462.933 1366.11,459.121 1360.89,454.085C1359.14,452.397 1351.68,448.566 1345.26,448.363C1335.01,448.038 1322.76,453.36 1315.81,462.081Z"/>
            </clipPath>
            <g clip-path="url(#_clip1)">
                <g transform="matrix(-1.10663,0,0,1.10663,2995.32,-51.5273)">
                    <path d="M1484.15,480.367C1481.99,480.639 1481.08,482.944 1481.08,483.96C1481.06,487.628 1481.9,488.022 1482.75,489.014C1485.12,491.784 1489.75,488.98 1490.08,486.01C1490.45,482.681 1487.44,479.953 1484.15,480.367Z"/>
                </g>
            </g>
            <path d="M1314.74,461.225C1310.61,466.413 1309.02,478.018 1309.31,485.099C1309.66,493.787 1313.39,502.387 1318.43,509.477C1321.06,513.178 1325.16,516.523 1328.47,518.567C1331.94,520.713 1338.69,523.123 1345.91,522.945C1355.52,522.709 1361.91,516.685 1364.17,513.919C1368.71,508.371 1372.49,501.016 1373.77,494.161C1375.45,485.244 1375.03,473.911 1371.05,465.95C1369.17,462.208 1367.22,458.284 1361.84,453.096C1359.99,451.308 1352.11,447.205 1345.3,446.989C1334.66,446.652 1321.95,452.172 1314.74,461.225ZM1316.89,462.938C1323.58,454.547 1335.35,449.424 1345.21,449.737C1351.26,449.928 1358.29,453.487 1359.93,455.074C1365,459.958 1366.83,463.657 1368.59,467.179C1372.32,474.648 1372.64,485.288 1371.07,493.654C1369.87,500.085 1366.3,506.974 1362.04,512.179C1360.04,514.633 1354.37,519.988 1345.84,520.198C1339.25,520.359 1333.09,518.188 1329.91,516.228C1326.87,514.349 1323.09,511.287 1320.67,507.884C1315.93,501.22 1312.38,493.153 1312.05,484.987C1311.79,478.458 1313.08,467.721 1316.89,462.938Z"/>
            <path d="M1315.89,466.573C1313.87,469.021 1310.49,473.973 1310.74,472.748C1311.1,471.01 1311.5,468.703 1312.36,467.212C1314.97,462.64 1316.07,459.987 1320.29,456.618C1324.31,453.398 1330.23,450.004 1335.04,449.172C1339.65,448.375 1345.84,447.714 1350.3,448.996C1353.51,449.92 1358.44,451.585 1359.99,452.79C1363.59,455.591 1362.84,456.59 1360.55,455.915C1359.05,455.473 1355.98,455.103 1354.42,454.881C1349.84,454.226 1346.92,454.308 1340.59,454.762C1334.61,455.19 1326.79,458.035 1323.21,460.208C1321.57,461.205 1317.44,464.688 1315.89,466.573Z" style="fill:rgb(209,151,81);"/>
            <path d="M1316.95,467.446C1318.43,465.651 1322.36,462.332 1323.93,461.383C1327.38,459.287 1334.92,456.546 1340.69,456.132C1346.88,455.688 1349.74,455.6 1354.23,456.241C1355.74,456.456 1358.7,456.806 1360.16,457.234C1361.1,457.509 1361.86,457.537 1362.35,457.426C1362.83,457.319 1363.17,457.094 1363.41,456.826C1363.79,456.389 1364.02,455.772 1363.73,454.936C1363.51,454.264 1362.68,453.142 1360.84,451.706C1359.21,450.441 1354.05,448.645 1350.68,447.675C1346.04,446.342 1339.61,446.989 1334.81,447.818C1329.8,448.684 1323.62,452.191 1319.43,455.545C1315.05,459.045 1313.88,461.78 1311.16,466.531C1310.25,468.132 1309.78,470.602 1309.39,472.472C1309.23,473.284 1309.59,473.717 1309.79,473.91C1310.07,474.19 1310.94,474.695 1311.9,473.835C1312.73,473.097 1315.3,469.456 1316.95,467.446L1316.95,467.446ZM1359.65,454.295C1358.02,453.97 1355.86,453.697 1354.62,453.52C1349.94,452.852 1346.95,452.927 1340.49,453.391C1334.3,453.835 1326.21,456.783 1322.5,459.033C1320.78,460.077 1316.45,463.725 1314.83,465.7L1314.67,465.885C1316.48,462.646 1317.75,460.404 1321.14,457.691C1325,454.604 1330.66,451.323 1335.28,450.526C1339.7,449.761 1345.64,449.087 1349.92,450.317C1352.97,451.195 1357.68,452.73 1359.15,453.875C1359.32,454.012 1359.49,454.154 1359.65,454.295Z"/>
            <path d="M1365.6,436.016C1366.29,436.115 1376.28,436.185 1378.26,436.188C1380.94,436.192 1381.28,427.443 1377.22,426.949C1376.3,426.838 1368.63,426.805 1365.8,426.199C1364.49,425.917 1361.91,424.847 1359.17,423.818C1357.42,423.164 1351.65,420.397 1349.47,419.443C1347.29,418.489 1339.76,416.459 1333.51,416.414C1330.49,416.393 1324.2,417.215 1321.02,418.799C1317.53,420.537 1314.08,423.278 1310.98,426.294C1308.98,428.252 1307.65,429.63 1306.68,432.43C1306.02,434.364 1306.66,436.149 1308.26,434.914C1310.75,432.997 1313.44,431.627 1315.19,430.877C1319.09,429.207 1322.71,427.731 1328.03,428.391C1333.41,429.056 1337.74,429.266 1342.95,430.431C1346.82,431.295 1352.32,432.804 1356.44,433.367C1359.1,433.73 1362.95,435.637 1365.6,436.016Z" style="fill:rgb(179,154,108);"/>
            <path d="M1365.4,437.376C1366.11,437.477 1376.25,437.559 1378.26,437.562C1379.1,437.564 1379.85,437.182 1380.43,436.443C1381.02,435.714 1381.44,434.553 1381.59,433.233C1381.79,431.404 1381.48,429.281 1380.59,427.794C1379.87,426.583 1378.8,425.757 1377.39,425.585C1376.48,425.475 1368.88,425.455 1366.09,424.855C1364.81,424.582 1362.32,423.53 1359.65,422.531C1357.92,421.882 1352.19,419.131 1350.02,418.184C1347.77,417.198 1339.98,415.086 1333.52,415.04C1330.35,415.018 1323.75,415.905 1320.4,417.569C1316.8,419.366 1313.22,422.191 1310.03,425.31C1307.85,427.434 1306.43,428.946 1305.39,431.982C1304.9,433.379 1305,434.724 1305.4,435.495C1305.7,436.061 1306.14,436.427 1306.67,436.596C1307.28,436.791 1308.13,436.756 1309.1,436.003C1311.48,434.168 1314.06,432.858 1315.73,432.14C1319.41,430.562 1322.83,429.131 1327.87,429.754C1333.2,430.414 1337.49,430.618 1342.65,431.772C1346.55,432.643 1352.09,434.161 1356.25,434.729C1358.91,435.091 1362.76,436.998 1365.4,437.376L1365.4,437.376ZM1378.2,434.814C1376.12,434.809 1366.47,434.752 1365.79,434.655L1365.79,434.655C1363.14,434.276 1359.29,432.369 1356.63,432.005C1352.54,431.447 1347.09,429.946 1343.25,429.09C1337.99,427.915 1333.63,427.698 1328.2,427.027C1322.58,426.331 1318.76,427.853 1314.65,429.614C1312.92,430.353 1310.33,431.668 1307.86,433.496C1307.88,433.287 1307.92,433.066 1307.98,432.877C1308.87,430.315 1310.11,429.07 1311.94,427.278C1314.93,424.364 1318.26,421.708 1321.63,420.029C1324.65,418.524 1330.63,417.768 1333.5,417.789C1339.53,417.832 1346.81,419.781 1348.92,420.702C1351.12,421.663 1356.93,424.446 1358.69,425.105C1361.51,426.163 1364.16,427.253 1365.51,427.542C1368.37,428.155 1376.13,428.201 1377.05,428.314C1377.77,428.401 1378.19,428.995 1378.47,429.685C1378.87,430.657 1378.97,431.866 1378.86,432.928C1378.8,433.459 1378.68,433.953 1378.5,434.353C1378.44,434.486 1378.38,434.606 1378.3,434.707C1378.28,434.742 1378.23,434.789 1378.2,434.814Z"/>
            <g transform="matrix(0.999654,0,0,0.999654,0.503435,0.155392)">
                <path d="M1482.94,448.617C1476.88,448.341 1469.74,451.086 1466.47,454.085C1462.56,457.672 1458.39,463.607 1456.31,468.463C1454.1,473.608 1453.1,479.656 1453.42,486.579C1453.84,495.936 1457.58,503.845 1461.75,509.975C1464.02,513.318 1469.6,518.227 1471.82,519.437C1475.04,521.185 1480.49,522.268 1485.22,522.325C1488.51,522.365 1495.07,519.571 1497.7,517.802C1500.35,516.015 1506.88,512.639 1512.13,503.549C1515,498.587 1516.99,493.796 1517.17,484.272C1517.39,472.252 1515.16,465.188 1507.03,457.687C1502.82,453.803 1497.5,451.776 1494.5,450.577C1492.71,449.861 1489.08,448.898 1482.94,448.617Z" style="fill:rgb(240,242,230);"/>
                <clipPath id="_clip2">
                    <path d="M1482.94,448.617C1476.88,448.341 1469.74,451.086 1466.47,454.085C1462.56,457.672 1458.39,463.607 1456.31,468.463C1454.1,473.608 1453.1,479.656 1453.42,486.579C1453.84,495.936 1457.58,503.845 1461.75,509.975C1464.02,513.318 1469.6,518.227 1471.82,519.437C1475.04,521.185 1480.49,522.268 1485.22,522.325C1488.51,522.365 1495.07,519.571 1497.7,517.802C1500.35,516.015 1506.88,512.639 1512.13,503.549C1515,498.587 1516.99,493.796 1517.17,484.272C1517.39,472.252 1515.16,465.188 1507.03,457.687C1502.82,453.803 1497.5,451.776 1494.5,450.577C1492.71,449.861 1489.08,448.898 1482.94,448.617Z"/>
                </clipPath>
                <g clip-path="url(#_clip2)">
                    <g transform="matrix(1.10701,0,0,1.10701,-164.298,-51.7006)">
                        <path d="M1484.15,480.367C1481.99,480.639 1481.08,482.944 1481.08,483.96C1481.06,487.628 1481.9,488.022 1482.75,489.014C1485.12,491.784 1489.75,488.98 1490.08,486.01C1490.45,482.681 1487.44,479.953 1484.15,480.367Z"/>
                    </g>
                </g>
            </g>
            <g transform="matrix(0.999654,0,0,0.999654,0.503435,0.155392)">
                <path d="M1483,447.244C1476.57,446.95 1469.01,449.89 1465.54,453.072C1461.5,456.777 1457.19,462.906 1455.05,467.922C1452.77,473.239 1451.71,479.487 1452.04,486.642C1452.48,496.281 1456.32,504.433 1460.61,510.747C1462.99,514.247 1468.84,519.378 1471.17,520.644C1474.53,522.477 1480.25,523.64 1485.2,523.7C1488.7,523.742 1495.68,520.821 1498.47,518.943C1501.2,517.101 1507.91,513.604 1513.33,504.237C1516.29,499.103 1518.36,494.15 1518.54,484.297C1518.77,471.801 1516.41,464.474 1507.96,456.677C1503.61,452.658 1498.11,450.541 1495.01,449.301C1493.15,448.557 1489.38,447.536 1483,447.244L1483,447.244ZM1482.88,449.991C1488.78,450.26 1492.27,451.166 1493.99,451.853C1496.88,453.011 1502.03,454.947 1506.1,458.697C1513.9,465.902 1516,472.702 1515.79,484.247C1515.62,493.442 1513.71,498.07 1510.94,502.861C1505.85,511.674 1499.51,514.929 1496.93,516.662C1494.47,518.322 1488.33,520.988 1485.24,520.951C1480.74,520.897 1475.54,519.893 1472.48,518.229C1470.36,517.076 1465.05,512.389 1462.88,509.202C1458.84,503.257 1455.2,495.592 1454.79,486.516C1454.48,479.825 1455.44,473.978 1457.57,469.005C1459.59,464.308 1463.61,458.568 1467.4,455.098C1470.47,452.281 1477.19,449.731 1482.88,449.991L1482.88,449.991Z"/>
            </g>
            <path d="M1468.46,455.54C1466.24,456.272 1463.82,456.548 1466.25,453.854C1467.47,452.508 1470.7,450.593 1472.41,449.963C1478.23,447.814 1482.57,447.823 1489.3,448.879C1495.21,449.806 1500.8,452.726 1505.41,456.02C1507.05,457.185 1510.49,460.767 1511.62,462.65C1512.85,464.697 1514.1,465.489 1515.24,467.596C1516.15,469.282 1516.49,471.993 1514.58,469.964C1513.5,468.817 1509.81,465.076 1508.64,464.024C1505.93,461.585 1502.95,460.143 1499.69,458.505C1493.94,455.611 1485.44,454.553 1478.27,454.779C1475.86,454.855 1469.47,455.208 1468.46,455.54Z" style="fill:rgb(209,151,81);"/>
            <path d="M1468.89,456.846C1469.86,456.527 1476,456.225 1478.31,456.152C1485.26,455.934 1493.5,456.929 1499.08,459.733C1502.22,461.314 1505.1,462.692 1507.72,465.045C1508.87,466.083 1512.52,469.775 1513.58,470.906C1514.24,471.601 1514.78,471.891 1515.13,471.991C1515.58,472.119 1515.96,472.063 1516.27,471.934C1516.72,471.745 1517.11,471.362 1517.27,470.709C1517.46,469.937 1517.13,468.21 1516.45,466.942C1515.3,464.814 1514.04,464.011 1512.8,461.943C1511.6,459.944 1507.94,456.139 1506.21,454.901C1501.44,451.49 1495.64,448.482 1489.51,447.521C1482.51,446.422 1477.99,446.437 1471.93,448.673C1470.07,449.361 1466.56,451.465 1465.23,452.932C1464.44,453.809 1464.07,454.485 1463.94,454.945C1463.72,455.753 1463.94,456.324 1464.31,456.736C1464.62,457.08 1465.13,457.361 1465.84,457.406C1466.6,457.454 1467.77,457.215 1468.89,456.846L1468.89,456.846ZM1511.53,464.906C1510.71,464.089 1509.97,463.377 1509.56,463.002C1506.75,460.479 1503.68,458.972 1500.31,457.277C1494.38,454.293 1485.62,453.173 1478.23,453.405C1475.72,453.484 1469.08,453.89 1468.03,454.235L1468.03,454.235C1467.93,454.268 1467.83,454.301 1467.73,454.331C1469.05,453.165 1471.51,451.759 1472.89,451.252C1478.46,449.191 1482.63,449.224 1489.09,450.236C1494.79,451.131 1500.17,453.963 1504.62,457.138C1506.15,458.231 1509.38,461.59 1510.44,463.357C1510.8,463.962 1511.17,464.456 1511.53,464.906Z"/>
            <path d="M1445.56,435.361C1444.1,434.68 1444.94,427.72 1447.51,427.266C1448.96,427.01 1452.86,426.893 1456.42,426.425C1461.8,425.718 1463.25,424.545 1469.72,422.259C1480.38,418.495 1489.92,413.862 1502.01,417.489C1504.72,418.3 1511.23,422.006 1512.76,423.42C1515.15,425.636 1517.88,428.111 1519.35,430.185C1520.51,431.814 1520.95,434.191 1521.19,435.361C1521.51,437.018 1520.1,436.557 1519,435.361C1517.41,433.626 1516.24,433.108 1514.31,432.02C1509.16,429.121 1504.98,429.16 1498.34,428.818C1490.54,428.417 1487.05,429.475 1479.39,430.753C1474.68,431.537 1469.53,433.125 1464.89,434.279C1460.5,435.374 1457,436.359 1452.27,436.333C1450.09,436.321 1447.07,436.068 1445.56,435.361Z" style="fill:rgb(179,154,108);"/>
            <path d="M1444.97,436.606C1446.61,437.374 1449.89,437.694 1452.26,437.707C1457.12,437.734 1460.71,436.737 1465.23,435.612C1469.82,434.467 1474.94,432.887 1479.61,432.109C1487.16,430.851 1490.59,429.796 1498.27,430.191C1504.65,430.519 1508.68,430.43 1513.63,433.218C1515.42,434.224 1516.51,434.685 1517.99,436.29C1518.63,436.992 1519.37,437.484 1519.96,437.68C1520.43,437.837 1520.86,437.841 1521.2,437.755C1522,437.557 1522.89,436.878 1522.53,435.095C1522.28,433.802 1521.75,431.188 1520.47,429.388C1518.95,427.252 1516.16,424.694 1513.69,422.412C1512.09,420.926 1505.25,417.024 1502.41,416.172C1490.01,412.451 1480.19,417.102 1469.26,420.963C1462.92,423.203 1461.51,424.37 1456.24,425.062C1452.66,425.534 1448.73,425.655 1447.27,425.913C1446.31,426.084 1445.43,426.764 1444.79,427.834C1444.08,429.018 1443.63,430.713 1443.51,432.239C1443.4,433.541 1443.56,434.722 1443.88,435.435C1444.15,436.026 1444.55,436.405 1444.97,436.606ZM1519.45,433.856C1518.01,432.432 1516.83,431.862 1514.98,430.823C1509.63,427.812 1505.31,427.801 1498.41,427.446C1490.49,427.038 1486.95,428.1 1479.16,429.398C1474.42,430.187 1469.23,431.783 1464.56,432.945C1460.28,434.011 1456.88,434.984 1452.28,434.959C1450.39,434.948 1447.8,434.781 1446.36,434.21C1446.33,434.102 1446.28,433.925 1446.26,433.786C1446.21,433.396 1446.21,432.939 1446.25,432.457C1446.34,431.349 1446.63,430.108 1447.15,429.248C1447.33,428.951 1447.48,428.667 1447.75,428.62C1449.19,428.365 1453.07,428.252 1456.6,427.788C1462.09,427.066 1463.57,425.888 1470.18,423.555C1480.56,419.888 1489.84,415.272 1501.62,418.805C1504.18,419.575 1510.37,423.086 1511.82,424.429C1514.15,426.579 1516.8,428.97 1518.23,430.982C1518.83,431.826 1519.21,432.899 1519.45,433.856Z"/>
            <path d="M1388.56,524.927C1388.01,522.314 1388.86,518.714 1390.23,516.505C1392.07,513.537 1393.94,511.623 1396.27,509.298C1398.64,506.925 1402.67,503.601 1404.62,502.771C1407.65,501.479 1412.98,501.19 1416.29,501.438C1420.17,501.728 1422.45,503.748 1425.03,505.546C1426.91,506.858 1428.98,508 1430.91,510.006C1432.72,511.892 1434.14,513.507 1435.91,515.793C1437.29,517.567 1438.13,519.271 1438.06,520.466C1437.92,522.616 1436.28,525.174 1434.52,527.188C1433.47,528.383 1429.18,531.552 1428.77,531.93C1426.59,533.969 1421.31,536.477 1417.87,536.921C1415.04,537.288 1409.81,537.087 1406.87,536.752C1403.69,536.389 1398.62,534.639 1394.1,531.409C1392.33,530.147 1389.01,527.12 1388.56,524.927Z" style="fill:rgb(210,153,84);"/>
            <path d="M1393.92,518.927C1394,515.355 1395.24,511.402 1399.08,508.13C1401.46,506.097 1406.29,502.209 1411.93,502.471C1415.36,502.63 1420.58,503.481 1422.22,504.611C1424.17,505.947 1425.56,507.321 1428.64,511.178C1430.61,513.639 1434.04,519.701 1432.93,523.567C1432.18,526.206 1428.78,532.713 1421.79,533.222C1414.77,533.733 1408.79,533.705 1404.84,532.352C1401.73,531.285 1399.44,529.544 1397.8,528.059C1395.61,526.073 1393.84,522.935 1393.92,518.927Z" style="fill:rgb(227,207,182);"/>
            <path d="M1392.55,518.897C1392.45,523.367 1394.43,526.863 1396.88,529.078C1398.63,530.662 1401.07,532.514 1404.4,533.652C1408.48,535.048 1414.64,535.12 1421.89,534.593C1429.62,534.03 1433.42,526.865 1434.25,523.944C1434.76,522.163 1434.49,519.974 1433.77,517.811C1432.78,514.824 1430.97,511.885 1429.72,510.32C1426.5,506.293 1425.03,504.873 1423,503.479C1421.24,502.268 1415.67,501.269 1411.99,501.098C1405.95,500.817 1400.74,504.905 1398.19,507.084C1393.98,510.663 1392.64,514.989 1392.55,518.897ZM1395.3,518.957C1395.37,515.721 1396.49,512.14 1399.97,509.176C1402.18,507.289 1406.63,503.6 1411.87,503.843C1413.85,503.936 1416.46,504.268 1418.57,504.755C1419.82,505.043 1420.88,505.357 1421.45,505.744C1423.3,507.021 1424.62,508.348 1427.57,512.037C1428.68,513.424 1430.28,516.031 1431.16,518.678C1431.69,520.272 1431.99,521.877 1431.61,523.189C1430.94,525.546 1427.93,531.397 1421.69,531.851C1414.9,532.346 1409.11,532.361 1405.29,531.052C1402.38,530.056 1400.25,528.425 1398.72,527.04C1396.78,525.283 1395.22,522.504 1395.3,518.957Z"/>
            <path d="M1446.8,547.191C1440.82,549.026 1430.11,549.694 1415.2,549.55C1408.08,549.481 1398.92,549.777 1391.69,549.234C1386.16,548.818 1381.77,547.62 1380.24,547.134C1377.74,546.339 1376.74,548.259 1379.34,549.111C1381.1,549.688 1388.28,551.265 1390.12,551.417C1395.54,551.868 1410.13,551.868 1414.94,551.835C1422.06,551.786 1427,551.789 1433.94,551.266C1436.92,551.041 1441.29,550.84 1447.24,549.171C1449.27,548.601 1449.08,546.491 1446.8,547.191Z"/>
            <g id="Ebene2">
                <g transform="matrix(1,0,0,1,-1.24902,3.64797)">
                    <path d="M1301.83,334.414C1300.2,335.614 1288.47,375.111 1288.13,393.754C1288.03,399.466 1295.06,401.641 1296.08,402.163C1302.53,405.458 1302.54,405.489 1308.57,398.25C1309.49,397.146 1317.5,388.087 1319.34,385.748C1320.9,383.765 1320.77,383.732 1324.42,385.698C1329.11,388.218 1341.52,393.211 1346.79,395.957C1352.31,398.833 1352.48,398.511 1356.5,396.419C1360.46,394.356 1363.54,393.598 1367.2,392.051C1372.05,390.004 1375.97,387.309 1380.02,384.709C1384.41,381.894 1384.64,383.04 1390.39,383.93C1394.34,384.54 1404.39,387.664 1408.62,388.973C1412.58,390.2 1413.17,389.763 1415.46,388.873C1421.53,386.519 1429.85,384.713 1435.86,383.89C1441.97,383.054 1441.44,383.06 1446.1,385.717C1450.7,388.339 1461.45,394.107 1467.44,396.561C1473.34,398.976 1472.92,399.131 1476.9,396.783C1482.66,393.382 1496.6,387.419 1502.67,385.133C1505.63,384.018 1505.03,384.211 1506.77,385.922C1508.05,387.171 1519.49,399.846 1522.05,403.357C1523.61,405.489 1523.55,405.039 1526.72,403.831C1529.51,402.765 1534.39,401.803 1534.9,403.108C1536.04,406.016 1536.88,407.712 1538.01,410.276C1540.65,416.258 1543.07,422.099 1545.22,429.238C1546.04,431.982 1548.05,437.126 1550.17,439.238C1551.41,440.487 1556.59,450.228 1557.33,438.385C1557.45,436.523 1559.47,431.641 1559.32,427.051C1558.96,416.208 1558.66,406.886 1558.06,397.603C1557.59,390.512 1558.23,387.875 1554.11,381.006C1552.38,378.12 1550.31,375.437 1549.01,372.595C1547.59,369.484 1547.55,370.104 1549.9,365.272C1550.93,363.152 1552.21,360.436 1550.48,357.427C1547.49,352.206 1540.88,346.575 1535.68,343.428C1533.43,342.067 1529.41,337.749 1526.64,335.723C1524.88,334.444 1524.96,334.093 1525.08,329.036C1525.18,325.192 1523.52,321.126 1521.12,316.03C1518.41,310.27 1518.79,310.741 1513.54,309.394C1510.31,308.566 1505.76,307.311 1503.03,306.539C1500.78,305.905 1498.2,305.479 1495.94,304.476C1491.69,302.586 1487.1,302.016 1482.79,300.29C1478.94,298.75 1455.85,293.318 1450.68,292.074C1447.24,291.246 1445.25,289.301 1439.98,283.656C1438.07,281.618 1433.73,277.767 1430.41,274.984C1425.6,270.952 1420.08,266.21 1417.25,264.403C1414.56,262.692 1413.79,263.451 1411.62,264.93C1409.42,266.434 1405.85,269.024 1402.03,272.357C1396.69,277.017 1389.84,283.291 1385.06,288.935C1382.57,291.88 1382.99,290.976 1372.54,293.151C1366.41,294.428 1359.74,295.625 1351.2,297.705C1346.58,298.831 1332.54,303.293 1326.71,305.67C1323.35,307.041 1314.28,308.474 1312.2,310.206C1310.35,311.753 1308.39,315.715 1307.73,317.856C1306.95,320.391 1305.76,325.013 1305.5,327.507C1305.07,331.766 1305.2,331.926 1301.83,334.414Z" style="fill:rgb(158,131,75);"/>
                </g>
                <path d="M1276.34,477.155C1276.46,480.265 1278.85,484.337 1279.75,486.628C1281.31,490.582 1285.2,499.432 1286.73,502.458C1287.69,504.372 1292.11,508.174 1291.84,504.601C1291.56,500.895 1291.8,498.052 1290.37,493.597C1288.34,487.267 1285.73,477.757 1284.38,471.257C1282.53,462.288 1280.51,456.07 1279.74,446.156C1279.37,441.489 1280.87,439.808 1282.22,437.684C1285.28,432.876 1287.17,428.4 1288.21,422.808C1288.91,419.083 1290.93,408.504 1291.87,404.619C1292.81,400.766 1291.73,399.939 1296.08,402.163C1302.53,405.458 1302.54,405.489 1308.57,398.25C1309.49,397.146 1317.5,388.087 1319.34,385.748C1320.9,383.765 1320.77,383.732 1324.42,385.698C1329.11,388.218 1341.52,393.211 1346.79,395.957C1352.31,398.833 1352.48,398.511 1356.5,396.419C1360.46,394.356 1363.54,393.598 1367.2,392.051C1372.05,390.004 1375.97,387.309 1380.02,384.709C1384.41,381.894 1384.64,383.04 1390.39,383.93C1394.34,384.54 1404.39,387.664 1408.62,388.973C1412.58,390.2 1413.17,389.763 1415.46,388.873C1421.53,386.519 1429.85,384.713 1435.86,383.89C1441.97,383.054 1441.44,383.06 1446.1,385.717C1450.7,388.339 1461.45,394.107 1467.44,396.561C1473.34,398.976 1472.92,399.131 1476.9,396.783C1482.66,393.382 1496.6,387.419 1502.67,385.133C1505.63,384.018 1505.03,384.211 1506.77,385.922C1508.05,387.171 1519.49,399.846 1522.05,403.357C1523.61,405.489 1523.55,405.039 1526.72,403.831C1529.51,402.765 1534.39,401.803 1534.9,403.108C1536.04,406.016 1536.88,407.712 1538.01,410.276C1540.65,416.258 1543.07,422.099 1545.22,429.238C1546.04,431.982 1548.05,437.126 1550.17,439.238C1551.41,440.487 1550.99,441.281 1550.96,442.922C1550.81,450.162 1550.21,452.45 1548.78,459.595C1546.83,469.35 1546.3,473.346 1543.17,482.734C1541.96,486.355 1541.71,488.424 1540.38,492.453C1540.19,493.023 1540.2,502.708 1540.86,503.311C1541.48,503.87 1544.65,505.953 1545.76,503.769C1548.39,498.576 1552.17,487.674 1553.92,482.378C1555.58,477.335 1556.09,473.365 1556.24,466.023C1556.48,454.215 1556.59,450.228 1557.33,438.385C1557.45,436.523 1559.47,431.641 1559.32,427.051C1558.96,416.208 1558.66,406.886 1558.06,397.603C1557.59,390.512 1558.23,387.875 1554.11,381.006C1552.38,378.12 1550.31,375.437 1549.01,372.595C1547.59,369.484 1547.55,370.104 1549.9,365.272C1550.93,363.152 1552.21,360.436 1550.48,357.427C1547.49,352.206 1540.88,346.575 1535.68,343.428C1533.43,342.067 1529.41,337.749 1526.64,335.723C1524.88,334.444 1524.96,334.093 1525.08,329.036C1525.18,325.192 1523.52,321.126 1521.12,316.03C1518.41,310.27 1518.79,310.741 1513.54,309.394C1510.31,308.566 1505.76,307.311 1503.03,306.539C1500.78,305.905 1498.2,305.479 1495.94,304.476C1491.69,302.586 1487.1,302.016 1482.79,300.29C1478.94,298.75 1455.85,293.318 1450.68,292.074C1447.24,291.246 1445.25,289.301 1439.98,283.656C1438.07,281.618 1433.73,277.767 1430.41,274.984C1425.6,270.952 1420.08,266.21 1417.25,264.403C1414.56,262.692 1413.79,263.451 1411.62,264.93C1409.42,266.434 1405.85,269.024 1402.03,272.357C1396.69,277.017 1389.84,283.291 1385.06,288.935C1382.57,291.88 1382.99,290.976 1372.54,293.151C1366.41,294.428 1359.74,295.625 1351.2,297.705C1346.58,298.831 1332.54,303.293 1326.71,305.67C1323.35,307.041 1314.28,308.474 1312.2,310.206C1310.35,311.753 1308.39,315.715 1307.73,317.856C1306.95,320.391 1305.76,325.013 1305.5,327.507C1305.07,331.766 1305.2,331.926 1301.83,334.414C1299.7,335.982 1295.8,339.825 1292.29,342.398C1288.12,345.456 1281.69,349.899 1279.07,352.068C1277.16,353.646 1277.2,362.196 1279.56,366.855C1281.8,371.26 1282.33,373.519 1279.75,376.95C1278.72,378.319 1277.58,380.249 1275.68,382.601C1274.59,383.964 1274.71,383.999 1274.53,386.457C1274.34,389.014 1273.82,397.317 1273.38,399.496C1272.43,404.263 1270.46,410.049 1269.79,415.419C1269.37,418.885 1268.6,424.973 1269.62,427.026C1271.38,430.537 1271.62,435.614 1272.02,439.553C1272.92,448.599 1275.36,454.293 1276.06,463.36C1276.58,470.065 1276.16,472.567 1276.34,477.155Z" style="fill:rgb(194,171,103);"/>
                <path d="M1293.7,402.534C1294.15,402.727 1294.72,403.012 1295.45,403.386C1297.13,404.246 1298.4,404.887 1299.45,405.256C1300.78,405.727 1301.85,405.793 1302.89,405.469C1303.68,405.225 1304.47,404.739 1305.36,403.924C1306.45,402.924 1307.76,401.366 1309.62,399.129C1310.54,398.023 1318.58,388.942 1320.42,386.597C1320.72,386.21 1321.07,385.811 1321.21,385.648C1321.34,385.687 1321.55,385.762 1321.73,385.846C1322.24,386.08 1322.89,386.435 1323.77,386.909C1328.47,389.431 1340.88,394.428 1346.16,397.176C1349.22,398.77 1350.82,399.406 1352.19,399.425C1353.6,399.445 1354.83,398.836 1357.13,397.639C1361.06,395.595 1364.11,394.849 1367.74,393.317C1372.66,391.237 1376.65,388.507 1380.76,385.866C1383.36,384.202 1384.22,384.129 1386.17,384.521C1387.18,384.724 1388.43,385.017 1390.18,385.288C1394.09,385.892 1404.03,388.991 1408.21,390.286C1412.69,391.674 1413.37,391.162 1415.96,390.154C1421.93,387.837 1430.12,386.062 1436.05,385.251C1438.87,384.866 1440.15,384.633 1441.27,384.844C1442.38,385.053 1443.3,385.7 1445.42,386.911C1450.05,389.552 1460.89,395.36 1466.92,397.833C1469.12,398.732 1470.47,399.322 1471.49,399.604C1472.38,399.85 1473.08,399.893 1473.79,399.768C1474.77,399.594 1475.8,399.029 1477.6,397.967C1483.31,394.594 1497.14,388.685 1503.15,386.419C1503.84,386.159 1504.51,385.944 1504.79,385.855C1504.97,386.055 1505.38,386.477 1505.81,386.903C1507.07,388.14 1518.4,400.692 1520.94,404.168C1521.82,405.367 1522.42,405.89 1523.01,406.092C1523.49,406.26 1524.02,406.276 1524.71,406.076C1525.26,405.916 1526.02,405.569 1527.21,405.115C1528.77,404.521 1531.02,403.955 1532.68,403.864C1533.05,403.844 1533.51,403.893 1533.74,403.922C1534.83,406.663 1535.66,408.34 1536.76,410.831C1539.37,416.763 1541.77,422.554 1543.9,429.634C1544.78,432.542 1546.96,437.971 1549.19,440.21C1549.68,440.696 1549.7,441.062 1549.67,441.548C1549.64,441.941 1549.59,442.377 1549.58,442.893C1549.43,450.029 1548.84,452.283 1547.43,459.326C1545.49,469.011 1544.97,472.979 1541.86,482.299C1540.65,485.922 1540.4,487.992 1539.08,492.023C1539.04,492.153 1538.96,492.611 1538.94,493.299C1538.86,495.281 1538.9,499.867 1539.17,502.168C1539.25,502.795 1539.35,503.284 1539.46,503.575C1539.59,503.952 1539.79,504.189 1539.94,504.329C1540.4,504.748 1542.02,505.844 1543.53,506.071C1544.92,506.28 1546.22,505.893 1546.98,504.39C1549.64,499.15 1553.46,488.152 1555.22,482.807C1556.93,477.641 1557.46,473.574 1557.61,466.051C1557.85,454.268 1557.97,450.289 1558.7,438.471C1558.82,436.587 1560.85,431.647 1560.69,427.005C1560.33,416.146 1560.03,406.811 1559.43,397.513C1558.95,390.154 1559.57,387.427 1555.29,380.298C1553.58,377.458 1551.53,374.822 1550.26,372.025C1549.79,370.987 1549.45,370.465 1549.4,369.933C1549.37,369.643 1549.48,369.366 1549.67,368.932C1549.96,368.231 1550.44,367.293 1551.14,365.874C1552.34,363.41 1553.68,360.242 1551.67,356.743C1548.58,351.347 1541.77,345.505 1536.39,342.252C1534.16,340.904 1530.19,336.619 1527.45,334.613C1527.05,334.323 1526.77,334.141 1526.61,333.842C1526.44,333.521 1526.42,333.103 1526.41,332.436C1526.39,331.63 1526.42,330.557 1526.46,329.07C1526.56,325.047 1524.88,320.777 1522.36,315.445C1520.87,312.278 1520.17,310.862 1519.18,310.014C1518.17,309.149 1516.83,308.819 1513.88,308.063C1510.66,307.237 1506.13,305.986 1503.4,305.216C1501.21,304.599 1498.7,304.197 1496.5,303.221C1492.24,301.323 1487.63,300.746 1483.3,299.014C1479.43,297.465 1456.21,291.989 1451,290.738C1447.76,289.957 1445.95,288.038 1440.98,282.718C1439.05,280.654 1434.65,276.75 1431.29,273.932C1426.44,269.857 1420.85,265.071 1417.98,263.244C1416.61,262.368 1415.61,262.057 1414.74,262.049C1413.5,262.038 1412.46,262.698 1410.85,263.794C1408.61,265.319 1405,267.943 1401.12,271.321C1395.74,276.022 1388.83,282.354 1384.01,288.047C1382.78,289.501 1382.42,289.825 1380.47,290.23C1378.88,290.558 1376.44,290.936 1372.26,291.806C1366.12,293.085 1359.43,294.286 1350.87,296.37C1346.21,297.505 1332.06,302.001 1326.19,304.397C1323.87,305.347 1318.77,306.318 1315.22,307.408C1313.45,307.948 1312.04,308.555 1311.32,309.15C1309.3,310.834 1307.13,315.122 1306.42,317.452C1305.62,320.056 1304.39,324.806 1304.13,327.368C1303.94,329.246 1303.93,330.229 1303.54,331.009C1303.16,331.753 1302.43,332.259 1301.01,333.308C1298.89,334.876 1294.98,338.717 1291.48,341.29C1287.29,344.363 1280.82,348.83 1278.19,351.009C1277.45,351.626 1276.81,353.008 1276.53,354.876C1276,358.46 1276.57,363.988 1278.34,367.477C1279.52,369.81 1280.24,371.437 1280.07,373.039C1279.97,374.035 1279.5,374.995 1278.65,376.124C1277.63,377.484 1276.5,379.403 1274.62,381.738C1273.29,383.378 1273.37,383.4 1273.16,386.357C1272.98,388.882 1272.46,397.076 1272.03,399.227C1271.07,404.023 1269.1,409.847 1268.43,415.25C1268.12,417.737 1267.65,421.54 1267.75,424.319C1267.8,425.722 1268.02,426.897 1268.39,427.64C1270.08,431.015 1270.27,435.904 1270.65,439.69C1271.55,448.724 1273.99,454.41 1274.69,463.465C1275.2,470.145 1274.79,472.637 1274.96,477.207C1275.09,480.458 1277.53,484.736 1278.47,487.132C1280.04,491.114 1283.97,500.027 1285.5,503.075C1286.18,504.446 1288.38,506.617 1289.94,507.223C1290.92,507.604 1291.77,507.469 1292.35,507.02C1292.84,506.635 1293.32,505.884 1293.21,504.497C1292.92,500.684 1293.15,497.761 1291.68,493.177C1289.66,486.887 1287.07,477.437 1285.73,470.979C1283.89,462.07 1281.87,455.896 1281.11,446.049C1280.78,441.842 1282.16,440.337 1283.38,438.421C1286.54,433.457 1288.49,428.834 1289.56,423.059C1290.25,419.349 1292.27,408.813 1293.21,404.944C1293.43,404.049 1293.6,403.123 1293.7,402.534ZM1542,502.463C1541.69,501.024 1541.63,497.029 1541.66,494.566C1541.67,493.763 1541.71,492.954 1541.72,492.781C1543.02,488.821 1543.27,486.757 1544.47,483.169C1547.62,473.714 1548.16,469.69 1550.12,459.865C1551.58,452.616 1552.18,450.295 1552.33,442.95C1552.38,440.845 1552.74,439.869 1551.14,438.267C1549.15,436.281 1547.31,431.421 1546.53,428.842C1544.37,421.644 1541.93,415.754 1539.27,409.722C1538.15,407.177 1537.31,405.494 1536.18,402.608C1535.88,401.855 1534.98,401.195 1533.51,401.115C1531.58,401.009 1528.35,401.739 1526.23,402.547C1525.43,402.85 1524.84,403.105 1524.38,403.284C1524.21,403.348 1524.01,403.409 1523.89,403.443C1523.75,403.287 1523.43,402.913 1523.16,402.546C1520.57,399.001 1509.02,386.201 1507.73,384.94C1507.2,384.418 1506.88,384.036 1506.62,383.786C1506.25,383.441 1505.91,383.248 1505.55,383.144C1505.19,383.043 1504.78,383.021 1504.22,383.149C1503.78,383.251 1503.16,383.481 1502.18,383.847C1496.07,386.152 1482.01,392.17 1476.2,395.6C1474.82,396.416 1474.07,396.928 1473.31,397.062C1472.86,397.142 1472.41,397.032 1471.77,396.816C1470.87,396.511 1469.69,395.999 1467.96,395.29C1462.02,392.853 1451.34,387.126 1446.78,384.523C1444.25,383.077 1443.1,382.393 1441.78,382.143C1440.47,381.896 1438.97,382.078 1435.67,382.528C1429.57,383.364 1421.12,385.202 1414.97,387.592C1412.98,388.364 1412.46,388.725 1409.02,387.66C1404.75,386.337 1394.6,383.189 1390.6,382.572C1384.31,381.6 1384.07,380.476 1379.28,383.553C1375.29,386.111 1371.44,388.77 1366.67,390.785C1362.97,392.346 1359.87,393.117 1355.86,395.2C1354.14,396.094 1353.28,396.692 1352.23,396.677C1351.13,396.661 1349.89,396.02 1347.43,394.738C1342.16,391.994 1329.76,387.006 1325.08,384.488C1323.65,383.723 1322.75,383.25 1322.12,383.043C1321.34,382.79 1320.77,382.828 1320.26,383.024C1319.67,383.25 1319.11,383.82 1318.26,384.898C1316.42,387.232 1308.43,396.27 1307.51,397.371C1306.04,399.143 1304.93,400.471 1304,401.414C1303.26,402.168 1302.69,402.654 1302.08,402.844C1301.55,403.006 1301.03,402.899 1300.36,402.663C1299.4,402.325 1298.25,401.727 1296.7,400.939C1295.36,400.253 1294.48,399.846 1293.9,399.686C1293.42,399.556 1293.05,399.55 1292.75,399.604C1292.07,399.725 1291.59,400.09 1291.27,400.831C1291.02,401.417 1290.96,402.568 1290.54,404.294C1289.59,408.194 1287.56,418.816 1286.86,422.556C1285.85,427.966 1284.02,432.295 1281.06,436.946C1279.58,439.28 1277.97,441.136 1278.37,446.263C1279.14,456.244 1281.17,462.505 1283.04,471.536C1284.39,478.076 1287.02,487.646 1289.06,494.017C1290.41,498.222 1290.21,500.951 1290.45,504.407C1290.26,504.289 1290.07,504.149 1289.88,503.995C1289.07,503.349 1288.27,502.478 1287.95,501.841C1286.44,498.837 1282.58,490.05 1281.03,486.124C1280.17,483.937 1277.83,480.071 1277.71,477.102C1277.54,472.497 1277.95,469.986 1277.43,463.254C1276.73,454.176 1274.29,448.474 1273.38,439.416C1272.98,435.325 1272.67,430.058 1270.85,426.411C1270.51,425.723 1270.47,424.487 1270.49,423.074C1270.53,420.593 1270.91,417.627 1271.16,415.587C1271.82,410.251 1273.78,404.502 1274.73,399.766C1275.17,397.558 1275.71,389.147 1275.9,386.556C1276.04,384.597 1275.88,384.55 1276.76,383.464C1278.66,381.096 1279.81,379.154 1280.85,377.775C1282.06,376.16 1282.66,374.751 1282.81,373.326C1283.02,371.299 1282.29,369.186 1280.79,366.233C1279.25,363.2 1278.79,358.392 1279.25,355.278C1279.34,354.673 1279.46,354.137 1279.63,353.704C1279.72,353.454 1279.81,353.241 1279.95,353.126C1282.55,350.968 1288.95,346.549 1293.1,343.506C1296.61,340.932 1300.52,337.088 1302.64,335.519C1304.59,334.08 1305.48,333.263 1305.99,332.24C1306.49,331.253 1306.63,330.027 1306.87,327.646C1307.12,325.22 1308.29,320.726 1309.04,318.26C1309.64,316.308 1311.39,312.672 1313.08,311.262C1313.83,310.644 1315.59,310.128 1317.6,309.582C1321.04,308.648 1325.18,307.779 1327.23,306.942C1333.01,304.584 1346.94,300.158 1351.52,299.04C1360.04,296.965 1366.7,295.771 1372.82,294.497C1377,293.627 1379.44,293.249 1381.02,292.921C1383.82,292.342 1384.35,291.903 1386.11,289.823C1390.85,284.229 1397.64,278.011 1402.93,273.392C1406.7,270.104 1410.22,267.55 1412.4,266.065C1412.9,265.725 1413.32,265.424 1413.71,265.186C1414.07,264.967 1414.36,264.794 1414.72,264.798C1415.2,264.802 1415.73,265.069 1416.51,265.562C1419.31,267.35 1424.77,272.048 1429.53,276.037C1432.8,278.784 1437.09,282.583 1438.97,284.595C1444.55,290.563 1446.72,292.535 1450.36,293.411C1455.5,294.647 1478.45,300.035 1482.28,301.566C1486.58,303.285 1491.15,303.849 1495.39,305.732C1497.7,306.762 1500.35,307.21 1502.66,307.862C1505.4,308.636 1509.96,309.894 1513.2,310.725C1515.5,311.316 1516.6,311.424 1517.39,312.101C1518.2,312.795 1518.65,314.023 1519.88,316.616C1522.17,321.476 1523.8,325.337 1523.71,329.003C1523.66,331.217 1523.62,332.566 1523.72,333.485C1523.81,334.344 1524.03,334.926 1524.36,335.429C1524.68,335.914 1525.13,336.329 1525.83,336.832C1528.63,338.879 1532.69,343.229 1534.97,344.604C1540,347.644 1546.4,353.066 1549.29,358.11C1550.73,360.631 1549.53,362.895 1548.67,364.67C1547.79,366.474 1547.23,367.548 1546.95,368.331C1546.68,369.072 1546.61,369.634 1546.66,370.198C1546.74,370.942 1547.1,371.714 1547.76,373.166C1549.08,376.052 1551.17,378.782 1552.93,381.713C1556.9,388.322 1556.24,390.869 1556.68,397.692C1557.29,406.962 1557.59,416.27 1557.95,427.096C1558.03,429.712 1557.36,432.426 1556.8,434.562C1556.37,436.174 1556.01,437.498 1555.96,438.299C1555.22,450.167 1555.11,454.162 1554.86,465.995C1554.72,473.156 1554.23,477.029 1552.61,481.948C1550.88,487.196 1547.14,498.001 1544.53,503.148C1544.33,503.544 1543.9,503.373 1543.54,503.258C1542.92,503.064 1542.34,502.71 1542,502.463Z"/>
                <path d="M1381.43,293.516L1381.46,293.508C1382.78,293.007 1390.44,290.473 1392.25,289.886C1398.95,287.716 1401.47,287.483 1407.6,285.872C1413.09,284.428 1414.9,284.455 1420.38,285.995C1425.49,287.432 1430.16,288.425 1435.97,289.878C1439.56,290.777 1446.08,292.189 1447.97,292.879C1448.68,293.139 1449.48,292.772 1449.74,292.059C1450,291.347 1449.63,290.557 1448.91,290.297C1446.98,289.591 1440.31,288.132 1436.63,287.212C1430.85,285.766 1426.2,284.779 1421.12,283.349C1415.02,281.635 1413.01,281.607 1406.9,283.213C1400.71,284.84 1398.17,285.08 1391.4,287.271C1389.57,287.865 1381.83,290.43 1380.49,290.937C1379.99,291.123 1379.77,291.362 1379.74,291.401C1379.45,291.732 1379.4,292.061 1379.4,292.299C1379.4,292.688 1379.53,293.036 1379.85,293.323C1379.98,293.447 1380.26,293.683 1380.78,293.683C1381.02,293.683 1381.24,293.623 1381.43,293.516ZM1381.92,291.547C1381.99,291.655 1382.05,291.773 1382.09,291.9C1382.05,291.776 1382,291.658 1381.92,291.547ZM1381.9,291.511L1381.91,291.533L1381.9,291.519L1381.9,291.511ZM1380.85,290.937C1381.13,290.952 1381.39,291.049 1381.6,291.204C1381.45,291.089 1381.22,290.953 1380.85,290.937Z"/>
                <path d="M1394.04,333.657C1393.98,334.36 1393.51,339.356 1393.85,342.631C1394.21,346.018 1395.68,349.484 1397.03,351.554C1398.86,354.362 1402.84,357.395 1406.35,357.535C1410.74,357.709 1417.75,357.721 1422.73,357.097C1425.04,356.807 1426.94,356.357 1428.05,355.771C1428.72,355.416 1428.98,354.584 1428.63,353.914C1428.27,353.243 1427.44,352.987 1426.77,353.341C1425.86,353.822 1424.29,354.132 1422.39,354.37C1417.54,354.977 1410.73,354.958 1406.46,354.788C1403.75,354.681 1400.75,352.224 1399.34,350.055C1398.17,348.266 1396.89,345.272 1396.59,342.346C1396.23,338.935 1396.8,334.364 1396.8,333.593C1396.81,332.668 1396.19,332.327 1396.07,332.26C1395.61,332.014 1395.02,331.909 1394.43,332.5C1394.12,332.816 1393.99,333.247 1394.04,333.657ZM1394.96,334.773C1395.38,334.939 1395.88,334.945 1396.38,334.444C1395.99,334.826 1395.44,334.936 1394.96,334.773Z"/>
                <path d="M1331.36,327.751C1329.94,329.752 1324.86,335.708 1323.79,336.902C1321.34,339.657 1319.77,341.886 1316.49,346.66C1315.07,348.725 1315.45,350.641 1316.5,352.216C1317.38,353.54 1318.8,354.591 1319.82,355.178C1324.7,357.995 1330.29,361.08 1335.16,363.218C1338,364.462 1341.2,366.001 1344.01,367.26C1344.7,367.57 1345.52,367.259 1345.83,366.567C1346.14,365.874 1345.83,365.061 1345.13,364.751C1342.31,363.49 1339.11,361.948 1336.27,360.7C1331.48,358.6 1325.99,355.565 1321.19,352.797C1320.46,352.375 1319.42,351.644 1318.78,350.692C1318.32,349.99 1318.12,349.136 1318.76,348.215C1321.94,343.576 1323.47,341.405 1325.85,338.728C1326.94,337.504 1332.14,331.393 1333.6,329.341C1334.04,328.723 1333.89,327.864 1333.27,327.425C1332.65,326.986 1331.8,327.132 1331.36,327.751Z"/>
                <path d="M1283.65,370.599C1283.65,370.553 1283.65,370.506 1283.65,370.458C1283.59,369.702 1282.93,369.133 1282.17,369.189C1281.85,369.213 1281.17,369.33 1280.94,370.229C1280.93,370.27 1280.89,370.488 1280.91,370.856C1280.99,371.99 1281.58,377.753 1281.4,379.874C1281.18,382.388 1280.32,384.577 1279.27,386.894C1278.59,388.392 1277.32,391.403 1276.46,392.777C1275.39,394.483 1274.49,395.586 1272.74,398.328C1272.33,398.967 1272.52,399.817 1273.15,400.226C1273.79,400.635 1274.64,400.447 1275.05,399.808C1276.81,397.055 1277.72,395.947 1278.79,394.233C1279.7,392.783 1281.05,389.613 1281.77,388.031C1282.96,385.419 1283.89,382.942 1284.14,380.108C1284.33,377.887 1283.74,371.85 1283.65,370.663L1283.65,370.599Z"/>
                <path d="M1324,306.363C1319.14,310.005 1316.1,313.539 1313.04,318.629C1312.62,319.333 1312.43,320.808 1312.31,322.299C1312.26,322.881 1312.21,323.463 1312.13,323.969C1312.08,324.279 1312.04,324.553 1311.93,324.722C1310.58,326.757 1307.97,329.45 1305.49,330.967C1304.85,331.364 1304.64,332.21 1305.04,332.857C1305.43,333.504 1306.28,333.707 1306.93,333.31C1309.73,331.594 1312.68,328.55 1314.22,326.247C1314.62,325.645 1314.87,324.525 1314.98,323.28C1315.06,322.431 1315.11,321.515 1315.22,320.771C1315.27,320.471 1315.3,320.208 1315.4,320.043C1318.26,315.28 1321.1,311.97 1325.64,308.561C1326.25,308.106 1326.38,307.244 1325.92,306.637C1325.46,306.031 1324.6,305.908 1324,306.363Z"/>
                <path d="M1499,307.177C1500.31,308.334 1503.78,311.182 1504.83,312.59C1507.05,315.603 1510.09,319.05 1511.61,322.357C1513.49,326.447 1516.77,329.694 1523.43,334.578C1524.05,335.026 1524.91,334.893 1525.36,334.281C1525.8,333.669 1525.67,332.808 1525.06,332.36C1518.93,327.872 1515.83,324.969 1514.11,321.21C1512.52,317.746 1509.37,314.112 1507.04,310.957C1505.92,309.446 1502.23,306.357 1500.82,305.116C1500.25,304.614 1499.38,304.668 1498.88,305.237C1498.38,305.806 1498.43,306.675 1499,307.177Z"/>
                <path d="M1547.1,371.622C1547.75,371.492 1548.23,370.904 1548.2,370.22C1548.17,369.462 1547.53,368.871 1546.77,368.901C1545.25,368.962 1544.4,370.006 1544.29,371.768C1544.16,374.008 1545.51,377.843 1545.74,378.882C1546.91,384.146 1548.11,389.176 1550,394.215C1550.22,394.806 1550.26,395.412 1550.3,396.012C1550.37,396.852 1550.43,397.685 1550.7,398.495C1551.37,400.504 1552.54,401.948 1553.59,403.697C1553.98,404.347 1554.83,404.558 1555.48,404.168C1556.13,403.778 1556.34,402.933 1555.95,402.283C1555.01,400.71 1553.91,399.433 1553.31,397.626C1553.11,397.034 1553.09,396.42 1553.04,395.806C1552.98,394.95 1552.89,394.093 1552.57,393.25C1550.73,388.333 1549.56,383.422 1548.42,378.286C1548.26,377.59 1547.55,375.559 1547.2,373.689C1547.14,373.353 1547.09,373.023 1547.06,372.709C1547.02,372.34 1547.07,371.851 1547.1,371.622Z"/>
                <path d="M1557.87,433.787C1558.62,433.901 1559.32,433.393 1559.43,432.648C1559.56,431.899 1559.05,431.193 1558.3,431.072C1556.97,430.859 1556.23,431.347 1555.69,432.098C1555.47,432.4 1555.29,432.771 1555.13,433.175C1554.99,433.516 1554.87,433.899 1554.65,434.213C1553.25,436.176 1551.76,438.464 1550.07,440.158C1549.53,440.695 1549.53,441.565 1550.07,442.102C1550.6,442.638 1551.48,442.638 1552.01,442.102C1553.81,440.305 1555.4,437.892 1556.89,435.811C1557.19,435.384 1557.4,434.894 1557.59,434.418C1557.65,434.262 1557.71,434.108 1557.78,433.964C1557.8,433.912 1557.84,433.842 1557.87,433.787Z"/>
                <path d="M1268.86,428.946C1269.68,430.237 1271.48,432.521 1272.3,433.36C1274.67,435.804 1276.5,438.062 1279.76,440.238C1280.39,440.659 1281.24,440.489 1281.66,439.859C1282.08,439.228 1281.91,438.374 1281.28,437.953C1278.21,435.901 1276.51,433.75 1274.27,431.445C1273.54,430.689 1271.92,428.624 1271.17,427.46C1270.76,426.822 1269.91,426.637 1269.27,427.047C1268.63,427.457 1268.44,428.308 1268.86,428.946Z"/>
            </g>
        </g>
    </g>
</svg>
