<?xml version="1.0" encoding="utf-8"?>
<!-- Generator: $$$/GeneralStr/196=Adobe Illustrator 27.6.0, SVG Export Plug-In . SVG Version: 6.00 Build 0)  -->
<svg version="1.1" id="Ebene_1" xmlns:serif="http://www.serif.com/"
	 xmlns="http://www.w3.org/2000/svg" xmlns:xlink="http://www.w3.org/1999/xlink" x="0px" y="0px" viewBox="0 0 1920 1080"
	 style="enable-background:new 0 0 1920 1080;" xml:space="preserve">
<style type="text/css">
	.st0{fill-rule:evenodd;clip-rule:evenodd;fill:#4D7F21;fill-opacity:0.5;}
	.st1{fill-rule:evenodd;clip-rule:evenodd;fill:#FCEF9B;}
	.st2{fill-rule:evenodd;clip-rule:evenodd;fill:#537C7C;}
	
		.st3{fill-rule:evenodd;clip-rule:evenodd;fill:#8BADAC;stroke:#BED2D3;stroke-width:4.59;stroke-linecap:round;stroke-linejoin:round;stroke-miterlimit:1.5;}
	
		.st4{fill-rule:evenodd;clip-rule:evenodd;fill:#8BADAC;stroke:#BED2D3;stroke-width:4.57;stroke-linecap:round;stroke-linejoin:round;stroke-miterlimit:1.5;}
	.st5{fill-rule:evenodd;clip-rule:evenodd;fill:#353535;}
	.st6{fill-rule:evenodd;clip-rule:evenodd;fill:#363434;}
</style>
<g id="Ebene9">
	<g id="Ebene2">
		<g transform="matrix(0.381155,-3.39988e-17,-2.45152e-17,0.381155,-347.624,-163.64)">
			<path class="st0" d="M2117.4,740.4c0-61.1-49.6-110.7-110.7-110.7h-230.6c-61.1,0-110.7,49.6-110.7,110.7V971
				c0,61.1,49.6,110.7,110.7,110.7h230.6c61.1,0,110.7-49.6,110.7-110.7V740.4z"/>
		</g>
		<g id="Ebene3" transform="matrix(0.946522,-1.5374e-16,-2.56234e-17,0.946522,-250.185,60.2499)">
			<g transform="matrix(0.382452,0.191887,-0.17834,0.411504,94.1543,-554.904)">
				<path class="st1" d="M1863.2,756.4c-8.3,0.6-8.3-30.2-11-51.1c-3.7-29.1-7-71-8.8-104.7c-1.1-21.5,20.4-42.1,51.1-42.3
					c23.9-0.1,52.3,15,50.9,43.1c-2,39.5-3.8,66.5-7.7,102.1c-2.1,19.6-1.9,53.2-10.9,53C1923.5,756.5,1879.8,755.2,1863.2,756.4z"
					/>
			</g>
			<g transform="matrix(0.407527,0.117848,-0.109528,0.438484,-40.2805,-476.837)">
				<path class="st1" d="M1855.6,935.6c-13.6,6.2-32.2-14.7-16.4-28.8c16.3-14.6,27.5-26.1,45.9-34.7c23.4-10.9,45.2-16.6,77.9-16.6
					c32,0,58.3,5.2,85.1,20.7c19,11,36.1,22.5,43.4,39.4c5.2,12-8.9,29.4-26.6,14.7c-6.7-5.6-15.6-12-30.2-20.3
					c-21.4-12.1-53.5-19-71.5-19.8c-17.7-0.8-47.1,6.7-63.3,14.1C1885,911,1870.8,928.6,1855.6,935.6z"/>
			</g>
			<g transform="matrix(0.382452,0.191887,-0.17834,0.411504,94.1543,-554.904)">
				<path class="st1" d="M1873.7,746c0.3,11.3,0.5,53,0.5,53l40.9,1l-1.1-54C1914.1,746,1861.7,746,1873.7,746z"/>
			</g>
			<g transform="matrix(0.421989,-6.72384e-17,-7.80612e-17,0.454044,-217.803,-311.57)">
				<path class="st1" d="M1956.3,1079c-11.3-0.1,2-10.7,9.6-15.6c11.7-7.4,19.7-12.1,34.7-17.1c9.8-3.3,26.7-8.8,44.8-8.4
					c15.1,0.3,36.1,3.1,48,7.3c12.2,4.3,33,14.7,42.7,23.7c10.9,10.2,8.2,11.1-11.4,10.8c-40.6-0.5-72.1-0.4-112.2-0.3
					C1991.7,1079.5,1970.6,1079.1,1956.3,1079z"/>
			</g>
		</g>
		<g transform="matrix(0.381155,0,0,0.381155,-94.4422,-163.64)">
			<path class="st0" d="M1920.2,740.4c0-61.1-49.6-110.7-110.7-110.7H1579c-61.1,0-110.7,49.6-110.7,110.7V971
				c0,61.1,49.6,110.7,110.7,110.7h230.6c61.1,0,110.7-49.6,110.7-110.7V740.4z"/>
		</g>
		<g id="Ebene1" transform="matrix(0.612061,0,0,0.658556,-184.432,494.917)">
			<g transform="matrix(0.585261,-0.274339,0.272912,0.588322,-226.702,-591.677)">
				<path class="st1" d="M1875.6,1062.8c-8.3,0.6-8.3-30.2-11-51.1c-3.7-29.1-7-71-8.8-104.7c-1.1-21.5,20.4-42.1,51.1-42.3
					c23.9-0.1,52.3,15,50.9,43.1c-2,39.5-3.8,66.5-7.7,102.1c-2.1,19.6-1.9,53.2-10.9,53C1935.9,1062.9,1892.2,1061.6,1875.6,1062.8
					z"/>
			</g>
			<g transform="matrix(0.62376,-0.16801,0.167136,0.627022,-138.026,-814.364)">
				<path class="st1" d="M1772.4,1123.5c-13.6,6.2-32.2-14.7-16.4-28.8c16.3-14.6,27.5-26.1,45.9-34.7
					c23.4-10.9,45.2-16.6,77.9-16.6c32,0,58.3,5.2,85.1,20.7c19,11,36.1,22.5,43.4,39.4c5.2,12-8.9,29.4-26.6,14.7
					c-6.7-5.6-15.6-12-30.2-20.3c-21.4-12.1-53.5-19-71.5-19.8c-17.7-0.8-47.1,6.7-63.3,14.1
					C1801.8,1098.9,1787.6,1116.5,1772.4,1123.5z"/>
			</g>
			<g transform="matrix(0.585261,-0.274339,0.272912,0.588322,-226.702,-591.677)">
				<path class="st1" d="M1886.1,1052.3c0.3,11.3,0.5,53,0.5,53l40.9,1l-1.1-54C1926.5,1052.3,1874.2,1052.3,1886.1,1052.3z"/>
			</g>
			<g transform="matrix(0.645764,0,0,0.649141,60.9661,-1107.03)">
				<path class="st1" d="M1733.9,1079.5c-11.3-0.1,2-10.7,9.6-15.6c11.7-7.4,19.7-12.1,34.7-17.1c9.8-3.3,26.7-8.8,44.8-8.4
					c15.1,0.3,36.1,3.1,48,7.3c12.2,4.3,33,14.7,42.7,23.7c10.9,10.2,8.2,11.1-11.4,10.8c-40.6-0.5-72.1-0.4-112.2-0.3
					C1769.4,1080,1748.3,1079.6,1733.9,1079.5z"/>
			</g>
		</g>
	</g>
	<g id="Ebene5" transform="matrix(1.10204,0,0,1.10204,-25.2553,-53.523)">
		<g transform="matrix(1.09598,0,0,1.23497,-198.782,-223.905)">
			<path class="st0" d="M511.4,462.2c16.5-27.9,49.6-27.9,66.2-13.9c16.5,13.9,16.5,41.8,0,69.7c-11.6,20.9-41.4,41.8-66.2,55.8
				c-24.8-13.9-54.6-34.9-66.2-55.8c-16.5-27.9-16.5-55.8,0-69.7C461.7,434.3,494.8,434.3,511.4,462.2z"/>
		</g>
		<g id="Ebene31" transform="matrix(0.858881,-1.39505e-16,-2.32508e-17,0.858881,-101.845,378.018)" serif:id="Ebene3">
			<g transform="matrix(0.382452,0.191887,-0.17834,0.411504,-25.8678,-559.265)">
				<path class="st1" d="M1776.6,569.1c-8.3,0.6-8.3-30.2-11-51.1c-3.7-29.1-7-71-8.8-104.7c-1.1-21.5,20.4-42.1,51.1-42.3
					c23.9-0.1,52.3,15,50.9,43.1c-2,39.5-3.8,66.5-7.7,102.1c-2.1,19.6-1.9,53.2-10.9,53C1836.9,569.2,1793.2,567.9,1776.6,569.1z"
					/>
			</g>
			<g transform="matrix(0.407527,0.117848,-0.109528,0.438484,-160.303,-481.198)">
				<path class="st1" d="M1802.7,736.2c-13.6,6.2-32.2-14.7-16.4-28.8c16.3-14.6,27.5-26.1,45.9-34.7c23.4-10.9,45.2-16.6,77.9-16.6
					c32,0,58.3,5.2,85.1,20.7c19,11,36.1,22.5,43.4,39.4c5.2,12-8.9,29.4-26.6,14.7c-6.7-5.6-15.6-12-30.2-20.3
					c-21.4-12.1-53.5-19-71.5-19.8c-17.7-0.8-47.1,6.7-63.3,14.1C1832.1,711.6,1817.9,729.2,1802.7,736.2z"/>
			</g>
			<g transform="matrix(0.382452,0.191887,-0.17834,0.411504,-25.8678,-559.265)">
				<path class="st1" d="M1787.1,558.7c0.3,11.3,0.5,53,0.5,53l40.9,1l-1.1-54C1827.5,558.7,1775.2,558.7,1787.1,558.7z"/>
			</g>
			<g transform="matrix(0.421989,-6.72384e-17,-7.80612e-17,0.454044,-337.825,-315.931)">
				<path class="st1" d="M1957,872.7c-11.3-0.1,2-10.7,9.6-15.6c11.7-7.4,19.7-12.1,34.7-17.1c9.8-3.3,26.7-8.8,44.8-8.4
					c15.1,0.3,36.1,3.1,48,7.3c12.2,4.3,33,14.7,42.7,23.7c10.9,10.2,8.2,11.1-11.4,10.8c-40.6-0.5-72.1-0.4-112.2-0.3
					C1992.4,873.2,1971.3,872.7,1957,872.7z"/>
			</g>
		</g>
		<g transform="matrix(1.09598,0,0,1.23497,57.2694,-223.905)">
			<path class="st0" d="M442,462.2c16.5-27.9,49.6-27.9,66.2-13.9c16.5,13.9,16.5,41.8,0,69.7c-11.6,20.9-41.4,41.8-66.2,55.8
				c-24.8-13.9-54.6-34.9-66.2-55.8c-16.5-27.9-16.5-55.8,0-69.7C392.4,434.3,425.5,434.3,442,462.2z"/>
		</g>
		<g id="Ebene11" transform="matrix(0.555389,0,0,0.597578,-25.4022,773.332)" serif:id="Ebene1">
			<g transform="matrix(0.585261,-0.274339,0.272912,0.588322,-412.311,-597.945)">
				<path class="st1" d="M1951.6,868.6c-8.3,0.6-8.3-30.2-11-51.1c-3.7-29.1-7-71-8.8-104.7c-1.1-21.5,20.4-42.1,51.1-42.3
					c23.9-0.1,52.3,15,50.9,43.1c-2,39.5-3.8,66.5-7.7,102.1c-2.1,19.6-1.9,53.2-10.9,53C2011.9,868.7,1968.2,867.4,1951.6,868.6z"
					/>
			</g>
			<g transform="matrix(0.62376,-0.16801,0.167136,0.627022,-323.634,-820.631)">
				<path class="st1" d="M1813.5,919.1c-13.6,6.2-32.2-14.7-16.4-28.8c16.3-14.6,27.5-26.1,45.9-34.7c23.4-10.9,45.2-16.6,77.9-16.6
					c32,0,58.3,5.2,85.1,20.7c19,11,36.1,22.5,43.4,39.4c5.2,12-8.9,29.4-26.6,14.7c-6.7-5.6-15.6-12-30.2-20.3
					c-21.4-12.1-53.5-19-71.5-19.8c-17.7-0.8-47.1,6.7-63.3,14.1C1842.9,894.5,1828.7,912.1,1813.5,919.1z"/>
			</g>
			<g transform="matrix(0.585261,-0.274339,0.272912,0.588322,-412.311,-597.945)">
				<path class="st1" d="M1962.1,858.1c0.3,11.3,0.5,53,0.5,53l40.9,1l-1.1-54C2002.5,858.1,1950.1,858.1,1962.1,858.1z"/>
			</g>
			<g transform="matrix(0.645764,0,0,0.649141,-124.642,-1113.29)">
				<path class="st1" d="M1720.7,871.4c-11.3-0.1,2-10.7,9.6-15.6c11.7-7.4,19.7-12.1,34.7-17.1c9.8-3.3,26.7-8.8,44.8-8.4
					c15.1,0.3,36.1,3.1,48,7.3c12.2,4.3,33,14.7,42.7,23.7c10.9,10.2,8.2,11.1-11.4,10.8c-40.6-0.5-72.1-0.4-112.2-0.3
					C1756.2,871.9,1735.1,871.4,1720.7,871.4z"/>
			</g>
		</g>
	</g>
	<g id="Ebene4" transform="matrix(1,0,0,1,21.7353,15.5649)">
		<g transform="matrix(1.04926,0,0,0.959013,-92.2296,-678.152)">
			<path class="st0" d="M926.3,772.6c14.4-12,34.4-12,48.8,0c13.6,11.4,30.5,25.5,43.8,36.6c13.4,11.2,19,30.3,14,47.9
				c-5.3,18.7-12.1,43-17.5,62c-5.2,18.4-20.8,31-38.4,31c-16.2,0-36.3,0-52.5,0c-17.6,0-33.2-12.6-38.4-31
				c-5.4-19-12.2-43.3-17.5-62c-5-17.6,0.6-36.8,14-47.9C895.8,798.1,912.6,784,926.3,772.6z"/>
		</g>
		<g id="Ebene12" transform="matrix(0.612061,0,0,0.658556,431.062,499.295)" serif:id="Ebene1">
			<g transform="matrix(0.585261,-0.274339,0.272912,0.588322,-412.311,-597.945)">
				<path class="st1" d="M1523.8,886.6c-8.3,0.6-8.3-30.2-11-51.1c-3.7-29.1-7-71-8.8-104.7c-1.1-21.5,20.4-42.1,51.1-42.3
					c23.9-0.1,52.3,15,50.9,43.1c-2,39.5-3.8,66.5-7.7,102.1c-2.1,19.6-1.9,53.2-10.9,53C1584.1,886.7,1540.4,885.4,1523.8,886.6z"
					/>
			</g>
			<g transform="matrix(0.62376,-0.16801,0.167136,0.627022,-323.634,-820.631)">
				<path class="st1" d="M1395.3,1011.1c-13.6,6.2-32.2-14.7-16.4-28.8c16.3-14.6,27.5-26.1,45.9-34.7
					c23.4-10.9,45.2-16.6,77.9-16.6c32,0,58.3,5.2,85.1,20.7c19,11,36.1,22.5,43.4,39.4c5.2,12-8.9,29.4-26.6,14.7
					c-6.7-5.6-15.6-12-30.2-20.3c-21.4-12.1-53.5-19-71.5-19.8c-17.7-0.8-47.1,6.7-63.3,14.1
					C1424.8,986.5,1410.6,1004.1,1395.3,1011.1z"/>
			</g>
			<g transform="matrix(0.585261,-0.274339,0.272912,0.588322,-412.311,-597.945)">
				<path class="st1" d="M1534.3,876.2c0.3,11.3,0.5,53,0.5,53l40.9,1l-1.1-54C1574.7,876.2,1522.3,876.2,1534.3,876.2z"/>
			</g>
			<g transform="matrix(0.645764,0,0,0.649141,-124.642,-1113.29)">
				<path class="st1" d="M1340.6,1068.5c-11.3-0.1,2-10.7,9.6-15.6c11.7-7.4,19.7-12.1,34.7-17.1c9.8-3.3,26.7-8.8,44.8-8.4
					c15.1,0.3,36.1,3.1,48,7.3c12.2,4.3,33,14.7,42.7,23.7c10.9,10.2,8.2,11.1-11.4,10.8c-40.6-0.5-72.1-0.4-112.2-0.3
					C1376.1,1069,1355,1068.6,1340.6,1068.5z"/>
			</g>
		</g>
		<g transform="matrix(1.04926,0,0,0.959013,-355.186,-678.152)">
			<path class="st0" d="M1000.7,772.6c14.4-12,34.4-12,48.8,0c13.6,11.4,30.5,25.5,43.8,36.6c13.4,11.2,19,30.3,14,47.9
				c-5.3,18.7-12.1,43-17.5,62c-5.2,18.4-20.8,31-38.4,31c-16.2,0-36.3,0-52.5,0c-17.6,0-33.2-12.6-38.4-31
				c-5.4-19-12.2-43.3-17.5-62c-5-17.6,0.6-36.8,14-47.9C970.2,798.1,987,784,1000.7,772.6z"/>
		</g>
		<g id="Ebene32" transform="matrix(0.946522,-1.5374e-16,-2.56234e-17,0.946522,364.022,63.5852)" serif:id="Ebene3">
			<g transform="matrix(0.382452,0.191887,-0.17834,0.411504,-25.8678,-559.265)">
				<path class="st1" d="M1507,911.2c-8.3,0.6-8.3-30.2-11-51.1c-3.7-29.1-7-71-8.8-104.7c-1.1-21.5,20.4-42.1,51.1-42.3
					c23.9-0.1,52.3,15,50.9,43.1c-2,39.5-3.8,66.5-7.7,102.1c-2.1,19.6-1.9,53.2-10.9,53C1567.4,911.3,1523.6,910,1507,911.2z"/>
			</g>
			<g transform="matrix(0.407527,0.117848,-0.109528,0.438484,-160.303,-481.198)">
				<path class="st1" d="M1478,1026.5c-13.6,6.2-32.2-14.7-16.4-28.8c16.3-14.6,27.5-26.1,45.9-34.7c23.4-10.9,45.2-16.6,77.9-16.6
					c32,0,58.3,5.2,85.1,20.7c19,11,36.1,22.5,43.4,39.4c5.2,12-8.9,29.4-26.6,14.7c-6.7-5.6-15.6-12-30.2-20.3
					c-21.4-12.1-53.5-19-71.5-19.8c-17.7-0.8-47.1,6.7-63.3,14.1C1507.4,1001.9,1493.2,1019.5,1478,1026.5z"/>
			</g>
			<g transform="matrix(0.382452,0.191887,-0.17834,0.411504,-25.8678,-559.265)">
				<path class="st1" d="M1517.5,900.8c0.3,11.3,0.5,53,0.5,53l40.9,1l-1.1-54C1557.9,900.8,1505.6,900.8,1517.5,900.8z"/>
			</g>
			<g transform="matrix(0.421989,-6.72384e-17,-7.80612e-17,0.454044,-337.825,-315.931)">
				<path class="st1" d="M1568,1068.8c-11.3-0.1,2-10.7,9.6-15.6c11.7-7.4,19.7-12.1,34.7-17.1c9.8-3.3,26.7-8.8,44.8-8.4
					c15.1,0.3,36.1,3.1,48,7.3c12.2,4.3,33,14.7,42.7,23.7c10.9,10.2,8.2,11.1-11.4,10.8c-40.6-0.5-72.1-0.4-112.2-0.3
					C1603.5,1069.3,1582.4,1068.9,1568,1068.8z"/>
			</g>
		</g>
	</g>
	<g id="Ebene6">
		<g transform="matrix(1.10581,0,0,1.10581,113.731,-114.456)">
			<path class="st0" d="M787.7,366.5c47.4,0,85.8,38.5,85.8,85.8c0,47.4-38.5,85.8-85.8,85.8c-47.4,0-85.8-38.5-85.8-85.8
				C701.8,404.9,740.3,366.5,787.7,366.5z M787.7,409.4c23.7,0,42.9,19.2,42.9,42.9c0,23.7-19.2,42.9-42.9,42.9
				c-23.7,0-42.9-19.2-42.9-42.9C744.7,428.6,764,409.4,787.7,409.4z"/>
		</g>
		<g id="Ebene13" transform="matrix(0.612061,0,0,0.658556,548.012,822.932)" serif:id="Ebene1">
			<g transform="matrix(0.585261,-0.274339,0.272912,0.588322,-412.311,-597.945)">
				<path class="st1" d="M1549.4,662.5c-8.3,0.6-8.3-30.2-11-51.1c-3.7-29.1-7-71-8.8-104.7c-1.1-21.5,20.4-42.1,51.1-42.3
					c23.9-0.1,52.3,15,50.9,43.1c-2,39.5-3.8,66.5-7.7,102.1c-2.1,19.6-1.9,53.2-10.9,53C1609.7,662.6,1566,661.3,1549.4,662.5z"/>
			</g>
			<g transform="matrix(0.62376,-0.16801,0.167136,0.627022,-323.634,-820.631)">
				<path class="st1" d="M1381.6,785.9c-13.6,6.2-32.2-14.7-16.4-28.8c16.3-14.6,27.5-26.1,45.9-34.7c23.4-10.9,45.2-16.6,77.9-16.6
					c32,0,58.3,5.2,85.1,20.7c19,11,36.1,22.5,43.4,39.4c5.2,12-8.9,29.4-26.6,14.7c-6.7-5.6-15.6-12-30.2-20.3
					c-21.4-12.1-53.5-19-71.5-19.8c-17.7-0.8-47.1,6.7-63.3,14.1C1411,761.3,1396.9,778.9,1381.6,785.9z"/>
			</g>
			<g transform="matrix(0.585261,-0.274339,0.272912,0.588322,-412.311,-597.945)">
				<path class="st1" d="M1559.9,652c0.3,11.3,0.5,53,0.5,53l40.9,1l-1.1-54C1600.3,652,1547.9,652,1559.9,652z"/>
			</g>
			<g transform="matrix(0.645764,0,0,0.649141,-124.642,-1113.29)">
				<path class="st1" d="M1269.1,854.5c-11.3-0.1,2-10.7,9.6-15.6c11.7-7.4,19.7-12.1,34.7-17.1c9.8-3.3,26.7-8.8,44.8-8.4
					c15.1,0.3,36.1,3.1,48,7.3c12.2,4.3,33,14.7,42.7,23.7c10.9,10.2,8.2,11.1-11.4,10.8c-40.6-0.5-72.1-0.4-112.2-0.3
					C1304.6,855.1,1283.5,854.6,1269.1,854.5z"/>
			</g>
		</g>
		<g transform="matrix(1.10581,0,0,1.10581,-170.503,-114.456)">
			<path class="st0" d="M864,366.5c47.4,0,85.8,38.5,85.8,85.8c0,47.4-38.5,85.8-85.8,85.8c-47.4,0-85.8-38.5-85.8-85.8
				C778.1,404.9,816.6,366.5,864,366.5z M864,409.4c23.7,0,42.9,19.2,42.9,42.9c0,23.7-19.2,42.9-42.9,42.9
				c-23.7,0-42.9-19.2-42.9-42.9C821.1,428.6,840.3,409.4,864,409.4z"/>
		</g>
		<g id="Ebene33" transform="matrix(0.946522,-1.5374e-16,-2.56234e-17,0.946522,441.276,386.552)" serif:id="Ebene3">
			<g transform="matrix(0.382452,0.191887,-0.17834,0.411504,-25.8678,-559.265)">
				<path class="st1" d="M1379.9,736.2c-8.3,0.6-8.3-30.2-11-51.1c-3.7-29.1-7-71-8.8-104.7c-1.1-21.5,20.4-42.1,51.1-42.3
					c23.9-0.1,52.3,15,50.9,43.1c-2,39.5-3.8,66.5-7.7,102.1c-2.1,19.6-1.9,53.2-10.9,53C1440.2,736.3,1396.4,735,1379.9,736.2z"/>
			</g>
			<g transform="matrix(0.407527,0.117848,-0.109528,0.438484,-160.303,-481.198)">
				<path class="st1" d="M1383,832.2c-13.6,6.2-32.2-14.7-16.4-28.8c16.3-14.6,27.5-26.1,45.9-34.7c23.4-10.9,45.2-16.6,77.9-16.6
					c32,0,58.3,5.2,85.1,20.7c19,11,36.1,22.5,43.4,39.4c5.2,12-8.9,29.4-26.6,14.7c-6.7-5.6-15.6-12-30.2-20.3
					c-21.4-12.1-53.5-19-71.5-19.8c-17.7-0.8-47.1,6.7-63.3,14.1C1412.4,807.6,1398.2,825.2,1383,832.2z"/>
			</g>
			<g transform="matrix(0.382452,0.191887,-0.17834,0.411504,-25.8678,-559.265)">
				<path class="st1" d="M1390.4,725.8c0.3,11.3,0.5,53,0.5,53l40.9,1l-1.1-54C1430.8,725.8,1378.4,725.8,1390.4,725.8z"/>
			</g>
			<g transform="matrix(0.421989,-6.72384e-17,-7.80612e-17,0.454044,-337.825,-315.931)">
				<path class="st1" d="M1526.8,856.4c-11.3-0.1,2-10.7,9.6-15.6c11.7-7.4,19.7-12.1,34.7-17.1c9.8-3.3,26.7-8.8,44.8-8.4
					c15.1,0.3,36.1,3.1,48,7.3c12.2,4.3,33,14.7,42.7,23.7c10.9,10.2,8.2,11.1-11.4,10.8c-40.6-0.5-72.1-0.4-112.2-0.3
					C1562.2,857,1541.1,856.5,1526.8,856.4z"/>
			</g>
		</g>
	</g>
	<g id="Ebene8">
		<g transform="matrix(0.999498,0,0,1.13416,-125.573,-222.619)">
			<path class="st0" d="M474.9,684.5c4.8-8.4,14.5-13.7,25.2-13.7c10.7,0,20.4,5.3,25.2,13.7c19.3,34,45.5,80.3,63.5,111.9
				c4.4,7.7,3.9,16.8-1.2,24.1c-5.1,7.3-14.2,11.8-23.9,11.8h-127c-9.8,0-18.8-4.5-23.9-11.8c-5.1-7.3-5.6-16.4-1.2-24.1
				C429.4,764.7,455.7,718.4,474.9,684.5z"/>
		</g>
		<g id="Ebene34" transform="matrix(0.946522,-1.5374e-16,-2.56234e-17,0.946522,-173.967,757.566)" serif:id="Ebene3">
			<g transform="matrix(0.382452,0.191887,-0.17834,0.411504,-25.8678,-559.265)">
				<path class="st1" d="M1686,310.7c-8.3,0.6-8.3-30.2-11-51.1c-3.7-29.1-7-71-8.8-104.7c-1.1-21.5,20.4-42.1,51.1-42.3
					c23.9-0.1,52.3,15,50.9,43.1c-2,39.5-3.8,66.5-7.7,102.1c-2.1,19.6-1.9,53.2-10.9,53C1746.3,310.8,1702.6,309.5,1686,310.7z"/>
			</g>
			<g transform="matrix(0.407527,0.117848,-0.109528,0.438484,-160.303,-481.198)">
				<path class="st1" d="M1758.1,466c-13.6,6.2-32.2-14.7-16.4-28.8c16.3-14.6,27.5-26.1,45.9-34.7c23.4-10.9,45.2-16.6,77.9-16.6
					c32,0,58.3,5.2,85.1,20.7c19,11,36.1,22.5,43.4,39.4c5.2,12-8.9,29.4-26.6,14.7c-6.7-5.6-15.6-12-30.2-20.3
					c-21.4-12.1-53.5-19-71.5-19.8c-17.7-0.8-47.1,6.7-63.3,14.1C1787.5,441.4,1773.3,459,1758.1,466z"/>
			</g>
			<g transform="matrix(0.382452,0.191887,-0.17834,0.411504,-25.8678,-559.265)">
				<path class="st1" d="M1696.5,300.2c0.3,11.3,0.5,53,0.5,53l40.9,1l-1.1-54C1736.9,300.2,1684.6,300.2,1696.5,300.2z"/>
			</g>
			<g transform="matrix(0.421989,-6.72384e-17,-7.80612e-17,0.454044,-337.825,-315.931)">
				<path class="st1" d="M1984.1,600.1c-11.3-0.1,2-10.7,9.6-15.6c11.7-7.4,19.7-12.1,34.7-17.1c9.8-3.3,26.7-8.8,44.8-8.4
					c15.1,0.3,36.1,3.1,48,7.3c12.2,4.3,33,14.7,42.7,23.7c10.9,10.2,8.2,11.1-11.4,10.8c-40.6-0.5-72.1-0.4-112.2-0.3
					C2019.5,600.7,1998.4,600.2,1984.1,600.1z"/>
			</g>
		</g>
		<g transform="matrix(0.999498,0,0,1.13416,149.422,-222.619)">
			<path class="st0" d="M393.3,684.5c4.8-8.4,14.5-13.7,25.2-13.7c10.7,0,20.4,5.3,25.2,13.7c19.3,34,45.5,80.3,63.5,111.9
				c4.4,7.7,3.9,16.8-1.2,24.1c-5.1,7.3-14.2,11.8-23.9,11.8h-127c-9.8,0-18.8-4.5-23.9-11.8c-5.1-7.3-5.6-16.4-1.2-24.1
				C347.7,764.7,374,718.4,393.3,684.5z"/>
		</g>
		<g id="Ebene14" transform="matrix(0.612061,0,0,0.658556,-25.3446,1194)" serif:id="Ebene1">
			<g transform="matrix(0.585261,-0.274339,0.272912,0.588322,-412.311,-597.945)">
				<path class="st1" d="M2048.6,611c-8.3,0.6-8.3-30.2-11-51.1c-3.7-29.1-7-71-8.8-104.7c-1.1-21.5,20.4-42.1,51.1-42.3
					c23.9-0.1,52.3,15,50.9,43.1c-2,39.5-3.8,66.5-7.7,102.1c-2.1,19.6-1.9,53.2-10.9,53C2108.9,611,2065.2,609.7,2048.6,611z"/>
			</g>
			<g transform="matrix(0.62376,-0.16801,0.167136,0.627022,-323.634,-820.631)">
				<path class="st1" d="M1864.3,648.5c-13.6,6.2-32.2-14.7-16.4-28.8c16.3-14.6,27.5-26.1,45.9-34.7c23.4-10.9,45.2-16.6,77.9-16.6
					c32,0,58.3,5.2,85.1,20.7c19,11,36.1,22.5,43.4,39.4c5.2,12-8.9,29.4-26.6,14.7c-6.7-5.6-15.6-12-30.2-20.3
					c-21.4-12.1-53.5-19-71.5-19.8c-17.7-0.8-47.1,6.7-63.3,14.1C1893.7,623.9,1879.5,641.5,1864.3,648.5z"/>
			</g>
			<g transform="matrix(0.585261,-0.274339,0.272912,0.588322,-412.311,-597.945)">
				<path class="st1" d="M2059.1,600.5c0.3,11.3,0.5,53,0.5,53l40.9,1l-1.1-54C2099.5,600.5,2047.2,600.5,2059.1,600.5z"/>
			</g>
			<g transform="matrix(0.645764,0,0,0.649141,-124.642,-1113.29)">
				<path class="st1" d="M1699.8,596.9c-11.3-0.1,2-10.7,9.6-15.6c11.7-7.4,19.7-12.1,34.7-17.1c9.8-3.3,26.7-8.8,44.8-8.4
					c15.1,0.3,36.1,3.1,48,7.3c12.2,4.3,33,14.7,42.7,23.7c10.9,10.2,8.2,11.1-11.4,10.8c-40.6-0.5-72.1-0.4-112.2-0.3
					C1735.2,597.4,1714.1,596.9,1699.8,596.9z"/>
			</g>
		</g>
	</g>
</g>
<g id="Ebene111" serif:id="Ebene11">
	<path class="st2" d="M1365.4,386.9c-1.2,0.7-24.2,0.9-35.3,0.6c-2.5-0.1-13.9,0.7-15.4-0.8c-0.7-0.7-0.6-17.6-0.7-22.8
		c-0.2-18,0-34.2-0.2-51.4c-0.1-7.4-0.6-39.8-0.6-49.1c0-19.9,4.7-40.5,10.6-59.9c4.9-16.1,12.1-34.3,19-48.9
		c6.4-13.5,38.3-50.8,51.2-57.4c23.8-12.1,44.8-28.7,89-29c42.2-0.4,59.4,11.2,74.6,20.1c16.5,9.6,38.5,25.5,43.3,31.7
		c10,12.8,16.4,22.2,21.9,32.5c6.8,12.6,18.4,36.1,20.6,50c3.6,22.5,6.6,47.4,6.3,68.9c-0.3,21.2-1.7,50-2.1,60.6
		c-0.6,14.3,1,42.1,0,48.2c-0.4,2.4-12.8,2.3-20,2.2c-9.5,0-19.2-0.3-28.5-0.1c-4.1,0.1-7.3,0.2-8.6,0.2c-2.2-0.1-4.7-3.1-6.5-4.5
		c-2.2-1.6-3.4-1.4-4.6-3.7c-1.5-3-0.9-15.9-0.9-19.4c0-4.4,0.5-34.6,0.2-45.8c-0.5-22.8,0.3-42.1-0.1-65.7
		c-0.1-7.9-1.5-18.1-4.3-31c-1.8-8.3-10.1-24.3-14.1-31.9c-5.2-9.8-14.6-19.3-24.6-26.2c-13.5-9.4-29.9-12.4-47.1-12.8
		c-10.6-0.3-39.3,4.1-48.8,8.3c-35.4,15.7-45.9,54.6-52.9,75.2c-4.9,14.5-3.9,64.3-3.9,73.5c0,20.1,0,34.5,0,54.5
		c0,5-1.1,23.8-0.2,23.8C1383.1,377,1368.1,385.2,1365.4,386.9z"/>
	<g id="Ebene10" transform="matrix(0.997664,-0.0683166,0.0683166,0.997664,-6.48421,126.128)">
		<g transform="matrix(1.05447,0.522623,-0.440982,0.889749,-43.9623,-953.331)">
			<path class="st3" d="M1611.9,209.8c0-1.1-0.4-2.2-1.1-3c-0.7-0.8-1.6-1.2-2.5-1.2l-16.7,0c-0.9,0-1.9,0.4-2.5,1.2
				c-0.7,0.8-1,1.9-1,3v48.9c0,1.1,0.4,2.2,1,3c0.7,0.8,1.6,1.2,2.5,1.2l16.7,0c0.9,0,1.9-0.4,2.5-1.2c0.7-0.8,1.1-1.9,1.1-3V209.8z
				"/>
		</g>
		<g transform="matrix(1.15885,0.205226,-0.173167,0.977819,-328.458,-398.407)">
			<path class="st3" d="M1617.5,124.8c0-1.1-0.4-2.2-1.1-3c-0.7-0.8-1.6-1.2-2.5-1.2l-16.7,0c-0.9,0-1.9,0.4-2.5,1.2
				c-0.7,0.8-1,1.9-1,3v48.9c0,1.1,0.4,2.2,1,3c0.7,0.8,1.6,1.2,2.5,1.2h16.7c0.9,0,1.9-0.4,2.5-1.2c0.7-0.8,1.1-1.9,1.1-3V124.8z"
				/>
		</g>
		<g transform="matrix(1.17676,-0.0166944,0.0140865,0.992935,-444.419,7.84341)">
			<path class="st3" d="M1637,70.2c0-1.1-0.4-2.2-1.1-3c-0.7-0.8-1.6-1.2-2.5-1.2c-4.5,0-12.2,0-16.7,0c-0.9,0-1.9,0.4-2.5,1.2
				c-0.7,0.8-1,1.9-1,3v48.9c0,1.1,0.4,2.2,1,3c0.7,0.8,1.6,1.2,2.5,1.2h16.7c0.9,0,1.9-0.4,2.5-1.2c0.7-0.8,1.1-1.9,1.1-3
				L1637,70.2z"/>
		</g>
		<g transform="matrix(1.12466,-0.34669,0.292532,0.948969,-445.034,644.971)">
			<path class="st3" d="M1675.8-4.6c0-1.1-0.4-2.2-1.1-3c-0.7-0.8-1.6-1.2-2.5-1.2l-16.7,0c-0.9,0-1.9,0.4-2.5,1.2
				c-0.7,0.8-1,1.9-1,3v48.9c0,1.1,0.4,2.2,1,3c0.7,0.8,1.6,1.2,2.5,1.2l16.7,0c0.9,0,1.9-0.4,2.5-1.2c0.7-0.8,1.1-1.9,1.1-3V-4.6z"
				/>
		</g>
		<g transform="matrix(0.939102,-0.709319,0.598513,0.792401,-195.808,1369.69)">
			<path class="st3" d="M1741.1-72c0-1.1-0.4-2.2-1.1-3c-0.7-0.8-1.6-1.2-2.5-1.2l-16.7,0c-0.9,0-1.9,0.4-2.5,1.2
				c-0.7,0.8-1,1.9-1,3l0,48.9c0,1.1,0.4,2.2,1,3c0.7,0.8,1.6,1.2,2.5,1.2l16.7,0c0.9,0,1.9-0.4,2.5-1.2c0.7-0.8,1.1-1.9,1.1-3V-72z
				"/>
		</g>
		<g transform="matrix(0.729212,-0.923741,0.790114,0.623725,127.119,1833.64)">
			<path class="st4" d="M1802.9-99.1c0-1.1-0.4-2.2-1.1-3c-0.7-0.8-1.6-1.2-2.5-1.2c-4.5,0-12.2,0-16.7,0c-0.9,0-1.9,0.4-2.5,1.2
				c-0.7,0.8-1,1.9-1,3c0,10.6,0,38.4,0,49c0,1.1,0.4,2.2,1,3c0.7,0.8,1.6,1.2,2.5,1.2c4.5,0,12.2,0,16.7,0c0.9,0,1.9-0.4,2.5-1.2
				c0.7-0.8,1.1-1.9,1.1-3C1802.9-60.6,1802.9-88.5,1802.9-99.1z"/>
		</g>
		<g transform="matrix(0.580957,-1.02349,0.863608,0.490203,365.155,2086.85)">
			<path class="st3" d="M1847.4-111.5c0-1.1-0.4-2.2-1.1-3c-0.7-0.8-1.6-1.2-2.5-1.2l-16.7,0c-0.9,0-1.9,0.4-2.5,1.2
				c-0.7,0.8-1,1.9-1,3v48.9c0,1.1,0.4,2.2,1,3c0.7,0.8,1.6,1.2,2.5,1.2l16.7,0c0.9,0,1.9-0.4,2.5-1.2c0.7-0.8,1.1-1.9,1.1-3V-111.5
				z"/>
		</g>
		<g transform="matrix(0.307262,-1.13606,0.958593,0.259264,838.435,2383.63)">
			<path class="st3" d="M1913.8-108.2c0-1.1-0.4-2.2-1.1-3c-0.7-0.8-1.6-1.2-2.5-1.2l-16.7,0c-0.9,0-1.9,0.4-2.5,1.2
				c-0.7,0.8-1,1.9-1,3v48.9c0,1.1,0.4,2.2,1,3c0.7,0.8,1.6,1.2,2.5,1.2l16.7,0c0.9,0,1.9-0.4,2.5-1.2c0.7-0.8,1.1-1.9,1.1-3
				L1913.8-108.2z"/>
		</g>
		<g transform="matrix(0.086886,-1.17367,0.990325,0.0733131,1234.49,2534.66)">
			<path class="st3" d="M1965-92.5c0-1.1-0.4-2.2-1.1-3c-0.7-0.8-1.6-1.2-2.5-1.2l-16.7,0c-0.9,0-1.9,0.4-2.5,1.2
				c-0.7,0.8-1,1.9-1,3v48.9c0,1.1,0.4,2.2,1,3c0.7,0.8,1.6,1.2,2.5,1.2l16.7,0c0.9,0,1.9-0.4,2.5-1.2c0.7-0.8,1.1-1.9,1.1-3V-92.5z
				"/>
		</g>
		<g transform="matrix(0.0832524,-1.17393,0.990547,0.0702472,1237.92,2582.83)">
			<path class="st3" d="M1977.5-92.1c0-1.1-0.4-2.2-1.1-3c-0.7-0.8-1.6-1.2-2.5-1.2c-4.5,0-12.2,0-16.7,0c-0.9,0-1.9,0.4-2.5,1.2
				c-0.7,0.8-1,1.9-1,3v48.9c0,1.1,0.4,2.2,1,3c0.7,0.8,1.6,1.2,2.5,1.2l16.7,0c0.9,0,1.9-0.4,2.5-1.2c0.7-0.8,1.1-1.9,1.1-3V-92.1z
				"/>
		</g>
		<g transform="matrix(0.0796181,-1.17418,0.99076,0.0671806,1241.51,2630.99)">
			<path class="st3" d="M1990-91.7c0-1.1-0.4-2.2-1.1-3c-0.7-0.8-1.6-1.2-2.5-1.2l-16.7,0c-0.9,0-1.9,0.4-2.5,1.2
				c-0.7,0.8-1,1.9-1,3v48.9c0,1.1,0.4,2.2,1,3c0.7,0.8,1.6,1.2,2.5,1.2l16.7,0c0.9,0,1.9-0.4,2.5-1.2c0.7-0.8,1.1-1.9,1.1-3V-91.7z
				"/>
		</g>
		<g transform="matrix(0.0759829,-1.17442,0.990963,0.0641133,1245.24,2679.14)">
			<path class="st3" d="M2002.5-91.3c0-1.1-0.4-2.2-1.1-3c-0.7-0.8-1.6-1.2-2.5-1.2c-4.5,0-12.2,0-16.7,0c-0.9,0-1.9,0.4-2.5,1.2
				c-0.7,0.8-1,1.9-1,3v48.9c0,1.1,0.4,2.2,1,3c0.7,0.8,1.6,1.2,2.5,1.2l16.7,0c0.9,0,1.9-0.4,2.5-1.2c0.7-0.8,1.1-1.9,1.1-3V-91.3z
				"/>
		</g>
		<g transform="matrix(0.0723471,-1.17465,0.991156,0.0610454,1639.57,2699.45)">
			<path class="st3" d="M2002-206.8c0-1.1-0.4-2.2-1.1-3c-0.7-0.8-1.6-1.2-2.5-1.2h-16.7c-0.9,0-1.9,0.4-2.5,1.2c-0.7,0.8-1,1.9-1,3
				v48.9c0,1.1,0.4,2.2,1,3c0.7,0.8,1.6,1.2,2.5,1.2h16.7c0.9,0,1.9-0.4,2.5-1.2c0.7-0.8,1.1-1.9,1.1-3L2002-206.8z"/>
		</g>
		<g transform="matrix(0.0723471,-1.17465,0.991156,0.0610454,1642.59,2655.4)">
			<path class="st3" d="M1990.9-206.9c0-1.1-0.4-2.2-1.1-3c-0.7-0.8-1.6-1.2-2.5-1.2h-16.7c-0.9,0-1.9,0.4-2.5,1.2
				c-0.7,0.8-1,1.9-1,3v48.9c0,1.1,0.4,2.2,1,3c0.7,0.8,1.6,1.2,2.5,1.2h16.7c0.9,0,1.9-0.4,2.5-1.2c0.7-0.8,1.1-1.9,1.1-3V-206.9z"
				/>
		</g>
		<g transform="matrix(0.0723471,-1.17465,0.991156,0.0610454,1645.6,2611.35)">
			<path class="st3" d="M1979.7-207c0-1.1-0.4-2.2-1.1-3c-0.7-0.8-1.6-1.2-2.5-1.2l-16.7,0c-0.9,0-1.9,0.4-2.5,1.2
				c-0.7,0.8-1,1.9-1,3v48.9c0,1.1,0.4,2.2,1,3c0.7,0.8,1.6,1.2,2.5,1.2l16.7,0c0.9,0,1.9-0.4,2.5-1.2c0.7-0.8,1.1-1.9,1.1-3
				L1979.7-207z"/>
		</g>
		<g transform="matrix(0.0723471,-1.17465,0.991156,0.0610454,1652.59,2564.85)">
			<path class="st3" d="M1967.9-208.3c0-1.1-0.4-2.2-1.1-3c-0.7-0.8-1.6-1.2-2.5-1.2l-16.7,0c-0.9,0-1.9,0.4-2.5,1.2
				c-0.7,0.8-1,1.9-1,3v48.9c0,1.1,0.4,2.2,1,3c0.7,0.8,1.6,1.2,2.5,1.2h16.7c0.9,0,1.9-0.4,2.5-1.2c0.7-0.8,1.1-1.9,1.1-3
				L1967.9-208.3z"/>
		</g>
		<g transform="matrix(-0.139425,-1.16859,0.986041,-0.117644,2048.16,2531.45)">
			<path class="st3" d="M2005.7-183.8c0-1.1-0.4-2.2-1.1-3c-0.7-0.8-1.6-1.2-2.5-1.2l-16.7,0c-0.9,0-1.9,0.4-2.5,1.2
				c-0.7,0.8-1,1.9-1,3v48.9c0,1.1,0.4,2.2,1,3c0.7,0.8,1.6,1.2,2.5,1.2l16.7,0c0.9,0,1.9-0.4,2.5-1.2c0.7-0.8,1.1-1.9,1.1-3V-183.8
				z"/>
		</g>
		<g transform="matrix(-0.404314,-1.10525,0.932594,-0.341154,2540.91,2396.68)">
			<path class="st3" d="M2050.8-141.2c0-1.1-0.4-2.2-1.1-3c-0.7-0.8-1.6-1.2-2.5-1.2l-16.7,0c-0.9,0-1.9,0.4-2.5,1.2
				c-0.7,0.8-1,1.9-1,3v48.9c0,1.1,0.4,2.2,1,3c0.7,0.8,1.6,1.2,2.5,1.2l16.7,0c0.9,0,1.9-0.4,2.5-1.2c0.7-0.8,1.1-1.9,1.1-3
				L2050.8-141.2z"/>
		</g>
		<g transform="matrix(-0.594747,-1.01554,0.856898,-0.501839,2885.91,2208.36)">
			<path class="st3" d="M2076.5-100.2c0-1.1-0.4-2.2-1.1-3c-0.7-0.8-1.6-1.2-2.5-1.2l-16.7,0c-0.9,0-1.9,0.4-2.5,1.2
				c-0.7,0.8-1,1.9-1,3v48.9c0,1.1,0.4,2.2,1,3c0.7,0.8,1.6,1.2,2.5,1.2l16.7,0c0.9,0,1.9-0.4,2.5-1.2c0.7-0.8,1.1-1.9,1.1-3V-100.2
				z"/>
		</g>
		<g transform="matrix(-0.766153,-0.89334,0.753787,-0.646469,3193.83,1957.49)">
			<path class="st3" d="M2095.2-55.6c0-1.1-0.4-2.2-1.1-3c-0.7-0.8-1.6-1.2-2.5-1.2l-16.7,0c-0.9,0-1.9,0.4-2.5,1.2
				c-0.7,0.8-1,1.9-1,3l0,48.9c0,1.1,0.4,2.2,1,3c0.7,0.8,1.6,1.2,2.5,1.2l16.7,0c0.9,0,1.9-0.4,2.5-1.2c0.7-0.8,1.1-1.9,1.1-3
				V-55.6z"/>
		</g>
	</g>
	<g transform="matrix(1,0,0,1,0.983296,4.96891)">
		<path class="st5" d="M1362,115c-0.1,4.5-0.7,18.1-0.6,23.6c0.1,9.8-0.3,63-0.3,81.5c0,8.8,0.6,58.5,0.6,74.6
			c0,20.2-0.2,36.5-0.2,56.7c0,6.8-0.1,16.7,0,23.6c0,4.6-0.3,11.8,1.4,11.3c3.9-1,13.7-7,16.1-8.4c1.8-1,3.9-1.8,3.9-3.8
			c0.2-12.3,0.6-34.1,0.6-46.3c0-31-0.4-63.9-0.4-95c0-12.2-0.6-29.6-1.6-40.4c-1.3-13.6-2.7-24.7-3.9-33.7
			c-0.6-4.7-3.9-22.2-5.8-27.9c-1.8-5.3-3.8-11.7-6-16.8C1364.7,111.8,1362,112.6,1362,115z"/>
	</g>
	<g transform="matrix(-1,0,0,1,3528.88,-0.657003)">
		<path class="st5" d="M1929.9,116.7c-0.1,4.5-0.7,18.1-0.6,23.6c0.1,9.8-0.3,63-0.3,81.5c0,8.8,0.6,58.5,0.6,74.6
			c0,20.2-0.2,36.5-0.2,56.7c0,6.8-0.1,16.7,0,23.6c0,4.6-0.3,11.8,1.4,11.3c3.9-1,13.7-7,16.1-8.4c1.8-1,3.9-1.8,3.9-3.8
			c0.2-12.3,0.6-34.1,0.6-46.3c0-31-0.4-63.9-0.4-95c0-12.2-0.6-29.6-1.6-40.4c-1.3-13.6-2.7-24.7-3.9-33.7
			c-0.6-4.7-3.9-22.2-5.8-27.9c-1.8-5.3-3.8-11.7-6-16.8C1932.6,113.5,1929.9,114.3,1929.9,116.7z"/>
	</g>
</g>
<g id="Ebene131" transform="matrix(1,0,0,1,28.4176,87.5525)" serif:id="Ebene13">
	<g transform="matrix(1,0,0,1,-53.9553,439.059)">
		<path class="st2" d="M1373,230.5c-1.2,0.7-24.2,0.9-35.3,0.6c-2.5-0.1-13.9,0.7-15.4-0.8c-0.7-0.7-0.6-17.6-0.7-22.8
			c-0.2-18,0-34.2-0.2-51.4c-0.1-7.4-0.6-39.8-0.6-49.1c0-19.9,4.7-40.5,10.6-59.9c4.9-16.1,12.1-34.3,19-48.9
			c6.4-13.5,38.3-50.8,51.2-57.4c23.8-12.1,44.8-28.7,89-29c42.2-0.4,59.4,11.2,74.6,20.1c16.5,9.6,38.5,25.5,43.3,31.7
			c10,12.8,16.4,22.2,21.9,32.5c6.8,12.6,18.4,36.1,20.6,50c3.6,22.5,6.6,47.4,6.3,68.9c-0.3,21.2-1.7,50-2.1,60.6
			c-0.6,14.3,1,42.1,0,48.2c-0.4,2.4-12.8,2.3-20,2.2c-9.5,0-19.2-0.3-28.5-0.1c-4,0.1-7.3,0.2-8.6,0.2c-2.2-0.1-4.7-3.1-6.5-4.5
			c-2.2-1.6-3.4-1.4-4.6-3.7c-1.5-3-0.9-15.9-0.9-19.4c0-4.4,0.5-34.6,0.2-45.8c-0.5-22.8,0.3-42.1-0.1-65.7
			c-0.1-7.9-1.5-18.1-4.3-31c-1.8-8.3-10.1-24.3-14.1-31.9c-5.2-9.8-14.6-19.3-24.6-26.2c-13.5-9.4-29.9-12.4-47.1-12.8
			c-10.6-0.3-39.3,4.1-48.8,8.3c-35.4,15.7-45.9,54.6-52.9,75.2c-4.9,14.5-3.9,64.3-3.9,73.5c0,20.1,0,34.5,0,54.5
			c0,5-1.1,23.8-0.2,23.8C1390.7,220.6,1375.7,228.9,1373,230.5z"/>
	</g>
	<g id="Ebene101" transform="matrix(0.997664,-0.0683166,0.0683166,0.997664,-60.4395,565.187)" serif:id="Ebene10">
		<g transform="matrix(1.05447,0.522623,-0.440982,0.889749,-43.9623,-953.331)">
			<path class="st3" d="M1567.2,61.4c0-1.1-0.4-2.2-1.1-3c-0.7-0.8-1.6-1.2-2.5-1.2l-16.7,0c-0.9,0-1.9,0.4-2.5,1.2
				c-0.7,0.8-1,1.9-1,3v48.9c0,1.1,0.4,2.2,1,3c0.7,0.8,1.6,1.2,2.5,1.2l16.7,0c0.9,0,1.9-0.4,2.5-1.2c0.7-0.8,1.1-1.9,1.1-3V61.4z"
				/>
		</g>
		<g transform="matrix(1.15885,0.205226,-0.173167,0.977819,-328.458,-398.407)">
			<path class="st3" d="M1609.7-32.5c0-1.1-0.4-2.2-1.1-3c-0.7-0.8-1.6-1.2-2.5-1.2l-16.7,0c-0.9,0-1.9,0.4-2.5,1.2
				c-0.7,0.8-1,1.9-1,3v48.9c0,1.1,0.4,2.2,1,3c0.7,0.8,1.6,1.2,2.5,1.2l16.7,0c0.9,0,1.9-0.4,2.5-1.2c0.7-0.8,1.1-1.9,1.1-3V-32.5z
				"/>
		</g>
		<g transform="matrix(1.17676,-0.0166944,0.0140865,0.992935,-444.419,7.84341)">
			<path class="st3" d="M1654.3-86.1c0-1.1-0.4-2.2-1.1-3c-0.7-0.8-1.6-1.2-2.5-1.2c-4.5,0-12.2,0-16.7,0c-0.9,0-1.9,0.4-2.5,1.2
				c-0.7,0.8-1,1.9-1,3v48.9c0,1.1,0.4,2.2,1,3c0.7,0.8,1.6,1.2,2.5,1.2l16.7,0c0.9,0,1.9-0.4,2.5-1.2c0.7-0.8,1.1-1.9,1.1-3V-86.1z
				"/>
		</g>
		<g transform="matrix(1.12466,-0.34669,0.292532,0.948969,-445.034,644.971)">
			<path class="st3" d="M1729.6-148.8c0-1.1-0.4-2.2-1.1-3c-0.7-0.8-1.6-1.2-2.5-1.2l-16.7,0c-0.9,0-1.9,0.4-2.5,1.2
				c-0.7,0.8-1,1.9-1,3v48.9c0,1.1,0.4,2.2,1,3c0.7,0.8,1.6,1.2,2.5,1.2l16.7,0c0.9,0,1.9-0.4,2.5-1.2c0.7-0.8,1.1-1.9,1.1-3V-148.8
				z"/>
		</g>
		<g transform="matrix(0.939102,-0.709319,0.598513,0.792401,-195.808,1369.69)">
			<path class="st3" d="M1833.1-185.9c0-1.1-0.4-2.2-1.1-3c-0.7-0.8-1.6-1.2-2.5-1.2h-16.7c-0.9,0-1.9,0.4-2.5,1.2
				c-0.7,0.8-1,1.9-1,3v48.9c0,1.1,0.4,2.2,1,3c0.7,0.8,1.6,1.2,2.5,1.2l16.7,0c0.9,0,1.9-0.4,2.5-1.2c0.7-0.8,1.1-1.9,1.1-3
				L1833.1-185.9z"/>
		</g>
		<g transform="matrix(0.729212,-0.923741,0.790114,0.623725,127.119,1833.64)">
			<path class="st4" d="M1916.1-180.5c0-1.1-0.4-2.2-1.1-3c-0.7-0.8-1.6-1.2-2.5-1.2c-4.5,0-12.2,0-16.7,0c-0.9,0-1.9,0.4-2.5,1.2
				c-0.7,0.8-1,1.9-1,3c0,10.6,0,38.4,0,49c0,1.1,0.4,2.2,1,3c0.7,0.8,1.6,1.2,2.5,1.2c4.5,0,12.2,0,16.7,0c0.9,0,1.9-0.4,2.5-1.2
				c0.7-0.8,1.1-1.9,1.1-3C1916.1-142.1,1916.1-169.9,1916.1-180.5z"/>
		</g>
		<g transform="matrix(0.580957,-1.02349,0.863608,0.490203,365.155,2086.85)">
			<path class="st3" d="M1969.9-172.8c0-1.1-0.4-2.2-1.1-3c-0.7-0.8-1.6-1.2-2.5-1.2h-16.7c-0.9,0-1.9,0.4-2.5,1.2
				c-0.7,0.8-1,1.9-1,3v48.9c0,1.1,0.4,2.2,1,3c0.7,0.8,1.6,1.2,2.5,1.2l16.7,0c0.9,0,1.9-0.4,2.5-1.2c0.7-0.8,1.1-1.9,1.1-3V-172.8
				z"/>
		</g>
		<g transform="matrix(0.307262,-1.13606,0.958593,0.259264,838.435,2383.63)">
			<path class="st3" d="M2045.3-131.4c0-1.1-0.4-2.2-1.1-3c-0.7-0.8-1.6-1.2-2.5-1.2l-16.7,0c-0.9,0-1.9,0.4-2.5,1.2
				c-0.7,0.8-1,1.9-1,3l0,48.9c0,1.1,0.4,2.2,1,3c0.7,0.8,1.6,1.2,2.5,1.2l16.7,0c0.9,0,1.9-0.4,2.5-1.2c0.7-0.8,1.1-1.9,1.1-3
				V-131.4z"/>
		</g>
		<g transform="matrix(0.086886,-1.17367,0.990325,0.0733131,1234.49,2534.66)">
			<path class="st3" d="M2097.8-85.7c0-1.1-0.4-2.2-1.1-3c-0.7-0.8-1.6-1.2-2.5-1.2l-16.7,0c-0.9,0-1.9,0.4-2.5,1.2
				c-0.7,0.8-1,1.9-1,3v48.9c0,1.1,0.4,2.2,1,3c0.7,0.8,1.6,1.2,2.5,1.2l16.7,0c0.9,0,1.9-0.4,2.5-1.2c0.7-0.8,1.1-1.9,1.1-3V-85.7z
				"/>
		</g>
		<g transform="matrix(0.0832524,-1.17393,0.990547,0.0702472,1237.92,2582.83)">
			<path class="st3" d="M2110.3-84.9c0-1.1-0.4-2.2-1.1-3c-0.7-0.8-1.6-1.2-2.5-1.2c-4.5,0-12.2,0-16.7,0c-0.9,0-1.9,0.4-2.5,1.2
				c-0.7,0.8-1,1.9-1,3V-36c0,1.1,0.4,2.2,1,3c0.7,0.8,1.6,1.2,2.5,1.2l16.7,0c0.9,0,1.9-0.4,2.5-1.2c0.7-0.8,1.1-1.9,1.1-3V-84.9z"
				/>
		</g>
		<g transform="matrix(0.0796181,-1.17418,0.99076,0.0671806,1241.51,2630.99)">
			<path class="st3" d="M2122.9-84c0-1.1-0.4-2.2-1.1-3c-0.7-0.8-1.6-1.2-2.5-1.2l-16.7,0c-0.9,0-1.9,0.4-2.5,1.2
				c-0.7,0.8-1,1.9-1,3v48.9c0,1.1,0.4,2.2,1,3c0.7,0.8,1.6,1.2,2.5,1.2l16.7,0c0.9,0,1.9-0.4,2.5-1.2c0.7-0.8,1.1-1.9,1.1-3V-84z"
				/>
		</g>
		<g transform="matrix(0.0759829,-1.17442,0.990963,0.0641133,1245.24,2679.14)">
			<path class="st3" d="M2135.4-83.1c0-1.1-0.4-2.2-1.1-3c-0.7-0.8-1.6-1.2-2.5-1.2c-4.5,0-12.2,0-16.7,0c-0.9,0-1.9,0.4-2.5,1.2
				c-0.7,0.8-1,1.9-1,3v48.9c0,1.1,0.4,2.2,1,3c0.7,0.8,1.6,1.2,2.5,1.2l16.7,0c0.9,0,1.9-0.4,2.5-1.2c0.7-0.8,1.1-1.9,1.1-3V-83.1z
				"/>
		</g>
		<g transform="matrix(0.0723471,-1.17465,0.991156,0.0610454,1639.57,2699.45)">
			<path class="st3" d="M2134.8-198.1c0-1.1-0.4-2.2-1.1-3c-0.7-0.8-1.6-1.2-2.5-1.2h-16.7c-0.9,0-1.9,0.4-2.5,1.2
				c-0.7,0.8-1,1.9-1,3v48.9c0,1.1,0.4,2.2,1,3c0.7,0.8,1.6,1.2,2.5,1.2h16.7c0.9,0,1.9-0.4,2.5-1.2c0.7-0.8,1.1-1.9,1.1-3V-198.1z"
				/>
		</g>
		<g transform="matrix(0.0723471,-1.17465,0.991156,0.0610454,1642.59,2655.4)">
			<path class="st3" d="M2123.7-198.2c0-1.1-0.4-2.2-1.1-3c-0.7-0.8-1.6-1.2-2.5-1.2h-16.7c-0.9,0-1.9,0.4-2.5,1.2
				c-0.7,0.8-1,1.9-1,3l0,48.9c0,1.1,0.4,2.2,1,3c0.7,0.8,1.6,1.2,2.5,1.2h16.7c0.9,0,1.9-0.4,2.5-1.2c0.7-0.8,1.1-1.9,1.1-3V-198.2
				z"/>
		</g>
		<g transform="matrix(0.0723471,-1.17465,0.991156,0.0610454,1645.6,2611.35)">
			<path class="st3" d="M2112.5-198.3c0-1.1-0.4-2.2-1.1-3c-0.7-0.8-1.6-1.2-2.5-1.2l-16.7,0c-0.9,0-1.9,0.4-2.5,1.2
				c-0.7,0.8-1,1.9-1,3v48.9c0,1.1,0.4,2.2,1,3c0.7,0.8,1.6,1.2,2.5,1.2l16.7,0c0.9,0,1.9-0.4,2.5-1.2c0.7-0.8,1.1-1.9,1.1-3
				L2112.5-198.3z"/>
		</g>
		<g transform="matrix(0.0723471,-1.17465,0.991156,0.0610454,1652.59,2564.85)">
			<path class="st3" d="M2100.7-199.5c0-1.1-0.4-2.2-1.1-3c-0.7-0.8-1.6-1.2-2.5-1.2l-16.7,0c-0.9,0-1.9,0.4-2.5,1.2
				c-0.7,0.8-1,1.9-1,3v48.9c0,1.1,0.4,2.2,1,3c0.7,0.8,1.6,1.2,2.5,1.2h16.7c0.9,0,1.9-0.4,2.5-1.2c0.7-0.8,1.1-1.9,1.1-3
				L2100.7-199.5z"/>
		</g>
		<g transform="matrix(-0.139425,-1.16859,0.986041,-0.117644,2048.16,2531.45)">
			<path class="st3" d="M2135-147c0-1.1-0.4-2.2-1.1-3c-0.7-0.8-1.6-1.2-2.5-1.2l-16.7,0c-0.9,0-1.9,0.4-2.5,1.2c-0.7,0.8-1,1.9-1,3
				l0,48.9c0,1.1,0.4,2.2,1,3c0.7,0.8,1.6,1.2,2.5,1.2l16.7,0c0.9,0,1.9-0.4,2.5-1.2c0.7-0.8,1.1-1.9,1.1-3V-147z"/>
		</g>
		<g transform="matrix(-0.404314,-1.10525,0.932594,-0.341154,2540.91,2396.68)">
			<path class="st3" d="M2169.5-70.2c0-1.1-0.4-2.2-1.1-3c-0.7-0.8-1.6-1.2-2.5-1.2l-16.7,0c-0.9,0-1.9,0.4-2.5,1.2
				c-0.7,0.8-1,1.9-1,3v48.9c0,1.1,0.4,2.2,1,3c0.7,0.8,1.6,1.2,2.5,1.2l16.7,0c0.9,0,1.9-0.4,2.5-1.2c0.7-0.8,1.1-1.9,1.1-3V-70.2z
				"/>
		</g>
		<g transform="matrix(-0.594747,-1.01554,0.856898,-0.501839,2885.91,2208.36)">
			<path class="st3" d="M2182.6-5.2c0-1.1-0.4-2.2-1.1-3c-0.7-0.8-1.6-1.2-2.5-1.2l-16.7,0c-0.9,0-1.9,0.4-2.5,1.2
				c-0.7,0.8-1,1.9-1,3v48.9c0,1.1,0.4,2.2,1,3c0.7,0.8,1.6,1.2,2.5,1.2l16.7,0c0.9,0,1.9-0.4,2.5-1.2c0.7-0.8,1.1-1.9,1.1-3V-5.2z"
				/>
		</g>
		<g transform="matrix(-0.766153,-0.89334,0.753787,-0.646469,3193.83,1957.49)">
			<path class="st3" d="M2185.4,60.3c0-1.1-0.4-2.2-1.1-3c-0.7-0.8-1.6-1.2-2.5-1.2l-16.7,0c-0.9,0-1.9,0.4-2.5,1.2
				c-0.7,0.8-1,1.9-1,3v48.9c0,1.1,0.4,2.2,1,3c0.7,0.8,1.6,1.2,2.5,1.2l16.7,0c0.9,0,1.9-0.4,2.5-1.2c0.7-0.8,1.1-1.9,1.1-3V60.3z"
				/>
		</g>
	</g>
	<g id="Ebene121" serif:id="Ebene12">
		<path class="st6" d="M1334.2,504.6c0-3-1.1-8.7-2.6-8.8c-1.6,0-2.6,6.6-2.6,9.4c0,22.2,0.9,159.1,0.9,159.1l4.3,0
			C1334.2,664.3,1334.2,532.6,1334.2,504.6z"/>
		<g transform="matrix(0.999973,-0.00733257,0.00733257,0.999973,18.2267,-31.6211)">
			<path class="st6" d="M1328.9,515.6c0-3-1.1-8.7-2.6-8.8c-1.6,0-2.6,6.6-2.6,9.4c0,22.2,0.7,188.5,0.7,188.5l4.4,0
				C1328.8,704.7,1328.9,543.7,1328.9,515.6z"/>
		</g>
		<g transform="matrix(0.999973,-0.00733257,0.00733257,0.999973,43.7357,-30.913)">
			<path class="st6" d="M1321.7,493.4c0-3-1.1-8.7-2.6-8.8c-1.6,0-2.6,6.6-2.6,9.4c0,22.2,0.4,210.4,0.4,210.4l4.4,0
				C1321.2,704.4,1321.7,521.5,1321.7,493.4z"/>
		</g>
		<g transform="matrix(0.999973,-0.00733257,0.00733257,0.999973,70.1851,-51.4011)">
			<path class="st6" d="M1313.8,499.5c0-3-1.1-8.7-2.6-8.8c-1.6,0-2.6,6.6-2.6,9.4c0,22.2,0.4,224.5,0.4,224.5l4.4,0
				C1313.3,724.6,1313.8,527.5,1313.8,499.5z"/>
		</g>
		<g transform="matrix(0.999973,-0.00733257,0.00733257,0.999973,97.6021,-58.8221)">
			<path class="st6" d="M1305.7,501.6c0-3-1.1-8.7-2.6-8.8c-1.6,0-2.6,6.6-2.6,9.4c0,22.2,0.3,229.8,0.3,229.8l4.4,0
				C1305,732,1305.6,529.7,1305.7,501.6z"/>
		</g>
		<g transform="matrix(0.999973,-0.00733257,0.00733257,0.999973,125.023,-65.0395)">
			<path class="st6" d="M1297.5,503.4c0-3-1.1-8.7-2.6-8.8c-1.6,0-2.6,6.6-2.6,9.4c0,22.2,0.4,235,0.4,235l4.3,0
				C1297.1,739,1297.5,531.4,1297.5,503.4z"/>
		</g>
		<g transform="matrix(0.999973,-0.00733257,0.00733257,0.999973,164.26,-65.8989)">
			<path class="st6" d="M1285.9,503.6c0-3-1.1-8.7-2.6-8.8c-1.6,0-2.6,6.6-2.6,9.4c0,22.2,0.4,235,0.4,235l4.3,0
				C1285.4,739.2,1285.8,531.6,1285.9,503.6z"/>
		</g>
		<g transform="matrix(0.999973,-0.00733257,0.00733257,0.999973,191.767,-57.6269)">
			<path class="st6" d="M1277.7,501.1c0-3-1.1-8.7-2.6-8.8c-1.6,0-2.6,6.6-2.6,9.4c0,22.2-2.6,229.8-2.6,229.8l4.3,0
				C1274.2,731.5,1277.7,529.1,1277.7,501.1z"/>
		</g>
		<g transform="matrix(0.999973,-0.00733257,0.00733257,0.999973,218.719,-50.7799)">
			<path class="st6" d="M1269.7,499c0-3-1.1-8.7-2.6-8.8c-1.6,0-2.6,6.6-2.6,9.4c0,22.2-2,224.1-2,224.1l4.3,0
				C1266.8,723.7,1269.7,527,1269.7,499z"/>
		</g>
		<g transform="matrix(0.999973,-0.00733257,0.00733257,0.999973,245.115,-30.004)">
			<path class="st6" d="M1261.9,492.7c0-3-1.1-8.7-2.6-8.8c-1.6,0-2.6,6.6-2.6,9.4c0,22.2-3,209.5-3,209.5l4.4,0
				C1258,702.8,1261.9,520.8,1261.9,492.7z"/>
		</g>
		<g transform="matrix(0.999973,-0.00733257,0.00733257,0.999973,269.898,-29.5257)">
			<path class="st6" d="M1254.2,514.5c0-3-1.1-8.7-2.6-8.8c-1.6,0-2.6,6.6-2.6,9.4c0,22.2-1.9,187.2-1.9,187.2l4.4,0
				C1251.4,702.3,1254.2,542.5,1254.2,514.5z"/>
		</g>
		<g transform="matrix(1,0,0,1,297.649,-0.949813)">
			<path class="st6" d="M1247,506.5c0-3-1.1-8.7-2.6-8.8c-1.6,0-2.6,6.6-2.6,9.4c0,22.2-0.3,157.5-0.3,157.5l4.3,0
				C1245.8,664.6,1247,534.5,1247,506.5z"/>
		</g>
		<g transform="matrix(-0.000678144,1,-1,-0.000678144,2613.85,-768.649)">
			<path class="st6" d="M1304.8,1074.9c0-3-1.3-3.1-2.9-3.2c-1.6,0-2.2,1-2.2,3.8c0,22.2-0.9,169.5-0.6,203.8c0,1,0.6,2,2,2
				c1.2,0,3.2-0.9,3.2-2.1C1304.1,1244.7,1304.8,1103,1304.8,1074.9z"/>
		</g>
		<g transform="matrix(-0.000678144,1,-1,-0.000678144,2613.84,-598.178)">
			<path class="st6" d="M1254.2,1074.9c0-3-1.3-3.1-2.9-3.2c-1.6,0-2.2,1-2.2,3.8c0,22.2-0.9,169.5-0.6,203.8c0,1,0.6,2,2,2
				c1.2,0,3.2-0.9,3.2-2.1C1253.4,1244.7,1254.2,1103,1254.2,1074.9z"/>
		</g>
		<g transform="matrix(-0.000678144,1,-1,-0.000678144,2596.53,-748.23)">
			<path class="st6" d="M1298.7,1045.7c0-3-1.3-4-2.9-4c-1.6,0-2.2,1.9-2.2,4.7c0,22.2-0.2,188.6,0.2,227c0,1.4,0.7,3.5,2.1,3.5
				c1.2,0,2.4-2.3,2.4-3.6C1298.1,1238.6,1298.6,1073.7,1298.7,1045.7z"/>
		</g>
		<g transform="matrix(-0.000678144,1,-1,-0.000678144,2596.53,-619.391)">
			<path class="st6" d="M1260.4,1045.7c0-3-1.3-4-2.9-4c-1.6,0-2.2,1.9-2.2,4.7c0,22.2-0.2,188.6,0.2,227c0,1.4,0.7,3.5,2.1,3.5
				c1.2,0,2.4-2.3,2.4-3.6C1259.8,1238.7,1260.4,1073.8,1260.4,1045.7z"/>
		</g>
	</g>
</g>
</svg>
