<?xml version="1.0" encoding="UTF-8"?>
<svg id="Ebene_2" data-name="Ebene 2" xmlns="http://www.w3.org/2000/svg" viewBox="0 0 335.58 226.75">
  <defs>
    <style>
      .cls-1 {
        fill: #a39359;
      }

      .cls-1, .cls-2, .cls-3, .cls-4, .cls-5 {
        fill-rule: evenodd;
      }

      .cls-2 {
        fill: #020000;
      }

      .cls-3 {
        fill: #e1ce8d;
      }

      .cls-4 {
        fill: #50472d;
      }
    </style>
  </defs>
  <g id="Ebene_1-2" data-name="Ebene 1">
    <g id="Ebene1">
      <path class="cls-2" d="m106.49,10.19c-.05-.6-.76-9.21-1.35-9.06-3.02.81-6.19,1.48-8.49,2.06-6.24,1.6-9.71,2.39-14.27,3.49-2.82.68-5.77,1.46-5.84,1.71-1.41,5.02-4.02,12.28-6.8,16.63-17.67,27.64-31.3,50.49-49.88,74.68-4.35,5.66-8.24,10-12.83,16.54-1.44,2.05-5.99,8.11-5.91,8.43.71,2.88,15.97,12.64,19.8,14.96,3.48,2.1,10.97,7.76,15.79,11.74,6.44,5.32,39.92,32.56,61.49,51.03,4.26,3.66,11.49,9.85,15.14,14.14,2.46,2.89,5.94,5.69,8.3,8.54.49.59,6.32-.73,8.78-1.39,3.62-.97,7.99-2.02,11.02-3.93.32-.2-.76-4.69-1.22-7.25-1.39-7.71-3.82-19.62-4.46-22.22-.16-.65-1.16-4.83-1.16-4.83,0,0,11.94-1.06,21.7-1.76,17.65-1.25,33.18-.81,50.8-2.38,23.35-2.07,31.5-3.4,57.02-4.37,8.22-.32,28.27-.52,38.23.49,3.03.31,9.91-.31,13.04-.29.6,0,9.05-7.72,15.29-13.66,3.13-2.99,3.51-3.24,3.65-7.24.14-3.63.41-12.95-.7-26.06-.48-5.64-1.72-12.92-3-28.51-.5-6.11-.74-9.06-1.26-25.82-.23-7.38-2.2-22.12.75-34.33.05-.2-12.69,3.12-34.94,2.88-36.27-.38-54.75-1.24-65.08-1.4-16.95-.25-43.69.4-58.55.94-20.89.77-37.85.87-60.7,1.68-.17,0-3.41-24.02-4.35-35.44Z"/>
      <path class="cls-5" d="m111.77,44.47c-.73-4.61-3.33-24.35-4.15-34.37-.04-.49-.51-6.21-1.01-8.39-.17-.78-.47-1.26-.65-1.41-.36-.32-.75-.36-1.11-.26-3.02.81-6.17,1.47-8.47,2.06-6.23,1.6-9.7,2.39-14.25,3.49-2.32.55-4.72,1.19-5.63,1.55-.74.29-.99.79-1.04.96-1.38,4.92-3.93,12.05-6.66,16.32-17.65,27.61-31.26,50.43-49.82,74.6-4.36,5.67-8.26,10.02-12.86,16.58-1.31,1.86-5.16,7.02-5.86,8.26-.3.54-.25.96-.22,1.08.09.37.33.84.73,1.36.69.89,1.95,2.04,3.52,3.31,5.01,4.03,13.36,9.34,16.06,10.98,3.45,2.09,10.87,7.71,15.65,11.65,6.44,5.31,39.91,32.54,61.47,51.02,4.23,3.62,11.4,9.75,15.02,14.01,2.45,2.88,5.94,5.68,8.3,8.53.14.17.34.33.65.44.24.08.62.13,1.12.12,1.88-.06,6.14-1.03,8.17-1.57,3.73-1,8.21-2.1,11.32-4.06.18-.11.36-.29.48-.59.07-.17.13-.53.08-1.06-.13-1.35-.9-4.68-1.27-6.76-1.4-7.73-3.84-19.68-4.48-22.29-.1-.42-.55-2.26-.85-3.55,3.35-.29,12.56-1.09,20.37-1.64,17.66-1.25,33.19-.81,50.82-2.37,23.33-2.07,31.47-3.4,56.96-4.37,8.19-.32,28.15-.52,38.07.48,3.06.31,9.99-.3,13.15-.29.13,0,.35-.02.61-.16.23-.11.7-.44,1.33-.95,2.68-2.17,9.12-8.1,14.13-12.87,2.07-1.97,3-2.9,3.49-4.26.32-.9.45-2,.52-3.76.13-3.65.41-13.02-.71-26.2-.48-5.64-1.72-12.92-2.99-28.51-.5-6.1-.73-9.04-1.26-25.76-.23-7.32-2.21-21.92.72-34.03.12-.48,0-.91-.49-1.22-.1-.06-.23-.14-.44-.17-.07-.01-.32-.02-.73.05-2.21.38-14.46,3.03-34.37,2.83-36.27-.38-54.74-1.25-65.08-1.4-16.97-.25-43.73.4-58.61.94-20.6.76-37.36.86-59.73,1.65Zm-7.4-41.96c.26,1.98.95,7.35.99,7.78.85,10.31,3.57,30.85,4.22,34.85.1.59.2.92.23.99.31.64.84.65,1.06.64,22.86-.82,39.81-.91,60.71-1.68,14.84-.55,41.55-1.19,58.49-.94,10.33.16,28.81,1.02,65.09,1.4,17.65.18,29.35-1.85,33.49-2.62-2.44,11.98-.64,25.86-.42,32.98.52,16.79.76,19.75,1.26,25.87,1.27,15.6,2.51,22.88,2.99,28.52,1.11,13.04.84,22.31.7,25.92-.05,1.44-.12,2.35-.38,3.08-.39,1.1-1.24,1.78-2.92,3.39-5.57,5.31-12.9,12.04-14.75,13.33l-.03.02c-3.21.02-9.73.6-12.66.3-10-1.02-30.14-.81-38.39-.49-25.54.98-33.7,2.31-57.08,4.38-17.62,1.56-33.14,1.13-50.78,2.38-9.77.69-21.72,1.76-21.72,1.76-.33.03-.63.2-.82.47s-.26.61-.18.92c0,0,1,4.18,1.16,4.84.64,2.59,3.07,14.46,4.45,22.15.33,1.83.97,5.27,1.18,6.42-2.9,1.65-6.85,2.58-10.15,3.47-1.52.4-4.35,1.07-6.36,1.36-.54.08-1.2.11-1.5.12-2.36-2.76-5.7-5.47-8.08-8.27-3.68-4.33-10.97-10.57-15.27-14.26-21.58-18.48-55.07-45.73-61.51-51.04-4.86-4.02-12.41-9.73-15.92-11.85-2.66-1.61-10.88-6.83-15.81-10.81-1.22-.98-2.23-1.88-2.89-2.62-.17-.2-.33-.37-.44-.52.98-1.56,4.39-6.1,5.58-7.81,4.59-6.53,8.47-10.86,12.81-16.51,18.6-24.22,32.25-47.09,49.93-74.76,2.74-4.28,5.33-11.35,6.79-16.42.81-.24,3.2-.94,5.17-1.42,4.56-1.1,8.04-1.89,14.28-3.49,2.04-.52,4.74-1.1,7.43-1.79Z"/>
      <g>
        <path class="cls-4" d="m93.57,102.66c-.17,0-91.27,21.27-91.19,21.58.69,2.88,15.83,12.75,19.63,15.09,3.45,2.13,10.88,7.84,15.66,11.85,6.39,5.36,39.58,32.83,60.96,51.45,4.22,3.69,11.39,9.92,15.01,14.24,2.43,2.9,5.89,5.73,8.23,8.6.48.59,6.29-.69,8.73-1.33,3.61-.95,7.95-1.97,10.97-3.86.32-.2-.74-4.7-1.19-7.26-1.36-7.72-3.73-19.65-4.36-22.25-.16-.65-12.54-33.58-12.54-33.58,0,0,63.56-7.07,81.09-8.51,23.22-1.92,33.34-6.79,58.71-7.61,8.17-.26,26.29-1.55,36.19-.48,3.01.33-2.9-40.34-25.03-40.72-36.06-.62-41.84,5.05-52.11,4.83-16.86-.37-106.02-2.71-128.75-2.04Z"/>
        <path class="cls-5" d="m93.54,101.53c-.13,0-58.63,13.63-81.98,19.25-5.29,1.27-8.79,2.14-9.42,2.35-1.01.33-.87,1.29-.85,1.38.09.37.32.84.72,1.36.68.89,1.93,2.06,3.49,3.34,4.97,4.07,13.24,9.44,15.93,11.09,3.42,2.11,10.78,7.78,15.52,11.76,6.38,5.36,39.57,32.82,60.94,51.44,4.19,3.65,11.3,9.83,14.88,14.11,2.43,2.9,5.88,5.72,8.21,8.58.14.17.34.33.65.44.23.08.62.14,1.11.13,1.87-.05,6.11-.99,8.13-1.52,3.71-.97,8.18-2.05,11.28-3.99.18-.11.37-.29.48-.59.06-.17.13-.53.09-1.05-.13-1.35-.87-4.69-1.24-6.77-1.36-7.74-3.75-19.71-4.37-22.32-.14-.57-9.73-26.11-12.07-32.35,9.55-1.05,63.66-7.03,79.61-8.35,23.2-1.92,33.31-6.79,58.66-7.6,8.14-.26,26.17-1.56,36.04-.49.6.06,1.22-.18,1.6-1.03.31-.69.46-2.19.33-4.24-.41-6.29-3.28-18.39-9.4-27.14-4.21-6.01-9.95-10.44-17.41-10.56-21.77-.38-32.57,1.53-39.96,3.07-4.8.99-8.12,1.84-12.14,1.76-16.86-.36-106.07-2.7-128.81-2.03Zm205.38,37.87c-10.07-.96-27.66.28-35.69.54-25.4.81-35.53,5.68-58.77,7.6-17.53,1.45-81.12,8.51-81.12,8.51-.35.04-.66.24-.84.53-.18.3-.22.66-.1.99,0,0,12.34,32.8,12.5,33.45.62,2.59,2.99,14.49,4.35,22.19.32,1.83.95,5.28,1.16,6.43-2.89,1.63-6.82,2.53-10.11,3.4-1.51.39-4.32,1.04-6.32,1.32-.53.07-1.19.1-1.48.11-2.33-2.77-5.64-5.51-8-8.32-3.64-4.35-10.87-10.65-15.13-14.36-21.39-18.63-54.59-46.11-60.97-51.47-4.82-4.04-12.31-9.8-15.79-11.95-2.64-1.63-10.79-6.91-15.68-10.91-1.15-.94-2.11-1.81-2.77-2.53.31-.08.66-.17,1.03-.26,14.66-3.67,88.27-20.87,88.42-20.87,22.72-.66,111.85,1.67,128.7,2.04,3.17.07,5.92-.4,9.22-1.09,7.45-1.54,17.79-4.18,42.89-3.74,6.7.12,11.81,4.19,15.59,9.6,5.87,8.38,8.61,19.98,9.01,26,.07,1.09-.03,2.24-.1,2.81Z"/>
      </g>
      <path class="cls-1" d="m106.49,10.19c-.05-.6-.76-9.21-1.35-9.06-3.02.81-6.31,9.05-9.85,14.94-7.64,12.71-11.59,18.58-15.76,24.49-9.44,13.39-19.62,27.4-37.01,52.5-5.41,7.81-9.48,15.05-13.79,21.78-4.24,6.62-5.25,6.23-1.97,8.94,5.79,4.78,10.81,8.84,14.64,11.16,3.48,2.1,9.92,8.97,14.74,12.95,6.44,5.32,15.29,12.48,36.86,30.96,4.26,3.66,21.17,14.79,24.82,19.08,2.46,2.89,19.58,19.45,22.6,17.55.31-.2.26-.43-.2-2.99-1.39-7.71-3.82-19.62-4.46-22.22-.16-.65-5.12-18.36-5.12-18.36,0,0,17.05-.27,26.82-.96,17.65-1.25,31.72-2.08,49.34-3.64,23.35-2.07,32.15-2.3,57.67-3.28,8.22-.32,55.16-4.65,65.44-5.31,4.32-.28,4.27,1.5,4.42-2.5.14-3.63.41-12.95-.7-26.06-.48-5.64-1.72-12.92-3-28.51-.5-6.11-.74-9.06-1.26-25.82-.23-7.38-2.2-22.12.75-34.33.05-.2-12.69,3.12-34.94,2.88-36.27-.38-54.75-1.24-65.08-1.4-16.95-.25-43.69.4-58.55.94-20.89.77-37.85.87-60.7,1.68-.17,0-3.41-24.02-4.35-35.44Z"/>
      <path class="cls-2" d="m111.77,44.47c-.73-4.61-3.33-24.35-4.15-34.37-.04-.49-.51-6.21-1.01-8.39-.17-.78-.47-1.26-.65-1.41-.36-.32-.75-.36-1.11-.26-1.09.29-2.27,1.32-3.41,2.9-2.24,3.09-4.62,8.4-7.11,12.55-7.62,12.68-11.55,18.53-15.71,24.43-9.44,13.39-19.63,27.4-37.02,52.51-5.41,7.82-9.49,15.07-13.81,21.81-1.8,2.82-3.03,4.39-3.6,5.46-.59,1.12-.63,1.9-.27,2.69.28.63.95,1.31,2.13,2.28,5.84,4.82,10.91,8.91,14.77,11.25,3.45,2.09,9.82,8.91,14.6,12.86,6.44,5.31,15.29,12.47,36.84,30.95,4.24,3.63,21.07,14.69,24.69,18.95,2,2.34,13.53,13.57,19.63,16.98,1.04.59,1.95.95,2.66,1.07.74.12,1.33,0,1.77-.28.24-.15.41-.33.53-.55.1-.18.19-.42.2-.78,0-.39-.11-1.15-.42-2.82-1.4-7.73-3.84-19.68-4.48-22.29-.13-.54-3.56-12.77-4.73-16.98,4.35-.08,17.35-.36,25.41-.93,17.66-1.25,31.73-2.08,49.36-3.64,23.33-2.07,32.12-2.3,57.61-3.28,8.23-.31,55.18-4.66,65.47-5.32,1.75-.11,2.76.13,3.34.16.64.03,1.06-.13,1.37-.41.22-.19.42-.47.54-.89.12-.43.18-1.18.22-2.44.13-3.65.41-13.02-.71-26.2-.48-5.64-1.72-12.92-2.99-28.51-.5-6.1-.73-9.04-1.26-25.76-.23-7.32-2.21-21.92.72-34.03.12-.48,0-.91-.49-1.22-.1-.06-.23-.14-.44-.17-.07-.01-.32-.02-.73.05-2.21.38-14.46,3.03-34.37,2.83-36.27-.38-54.74-1.25-65.08-1.4-16.97-.25-43.73.4-58.61.94-20.6.76-37.36.86-59.73,1.65Zm-7.35-41.57c.29,2.22.9,6.99.93,7.39.85,10.31,3.57,30.85,4.22,34.85.1.59.2.92.23.99.31.64.84.65,1.06.64,22.86-.82,39.81-.91,60.71-1.68,14.84-.55,41.55-1.19,58.49-.94,10.33.16,28.81,1.02,65.09,1.4,17.65.18,29.35-1.85,33.49-2.62-2.44,11.98-.64,25.86-.42,32.98.52,16.79.76,19.75,1.26,25.87,1.27,15.6,2.51,22.88,2.99,28.52,1.11,13.04.84,22.31.7,25.92-.02.61-.07,1.18-.1,1.53-.08,0-.15-.01-.22-.02-.68-.08-1.65-.19-3.04-.1-10.28.66-57.19,4.99-65.41,5.31-25.54.98-34.35,1.21-57.73,3.28-17.62,1.56-31.68,2.4-49.32,3.65-9.74.69-26.75.95-26.75.95-.35,0-.68.18-.89.45-.21.28-.28.64-.18.98,0,0,4.95,17.68,5.11,18.32.64,2.59,3.07,14.46,4.45,22.15.13.72.22,1.32.29,1.74-.09-.02-.18-.04-.25-.07-1.01-.34-2.33-1.14-3.82-2.2-6.14-4.34-14.94-12.96-16.64-14.95-3.67-4.31-20.66-15.53-24.95-19.21-21.57-18.49-30.43-25.65-36.88-30.97-4.86-4.01-11.36-10.93-14.87-13.05-3.79-2.3-8.76-6.33-14.5-11.06-.53-.43-.94-.78-1.23-1.09-.14-.16-.26-.28-.3-.43-.03-.16.06-.31.16-.52.15-.31.37-.65.65-1.07.66-1,1.65-2.36,2.93-4.36,4.31-6.72,8.37-13.95,13.77-21.75,17.38-25.1,27.56-39.11,37.01-52.49,4.18-5.93,8.15-11.82,15.8-24.57,2.12-3.52,4.15-7.9,6.08-11.01.6-.97,1.19-1.81,1.78-2.44.1-.11.2-.21.3-.31Z"/>
      <g>
        <path class="cls-3" d="m94.95,16.22c2.45-3.26,10.25-14.46,9.58-14.56-3.16-.44-14.33,3.14-17.33,4.11-4.5,1.45-9.22,1.69-9.67,3.18-.72,2.39-6.2,12.68-8.04,15.87-5.67,9.82-10.85,19.61-16.46,28.2-9.39,14.37-14.62,22.28-25.48,35.86-2.93,3.66-12.97,17.3-15.29,20.39-1.57,2.09-6.74,9.02-7.72,10.64-.2.33-3.42,4.5-2.83,4.74,1.27.53,9.78-1.39,14.62-2.58,1.35-.33,7.95-1.18,7.99-1.25,1.65-2.82,4.18-5.14,6-8.48,4.42-8.12,10.76-17.07,16.76-26.09,1.59-2.38,3.18-4.92,4.79-7.23,2.51-3.59,10.28-13.42,11.13-15.49,2.29-5.61,7.12-10.57,10.25-15.74,2.6-4.3,6.85-9.14,9.75-13.2,4.45-6.22,7.35-12.24,11.95-18.37Z"/>
        <path class="cls-5" d="m95.86,16.9c2.24-2.98,8.87-12.52,9.68-14.46.54-1.28-.44-1.84-.85-1.9-1.03-.14-2.84.07-4.96.52-4.6.97-10.75,2.94-12.88,3.63-3.16,1.02-6.44,1.45-8.27,2.12-1.22.45-1.92,1.11-2.13,1.8-.71,2.35-6.12,12.49-7.93,15.63-5.66,9.8-10.83,19.58-16.43,28.14-9.37,14.34-14.58,22.23-25.42,35.77-2.93,3.66-12.99,17.33-15.31,20.42-1.58,2.1-6.79,9.1-7.78,10.74-.16.27-2.3,3.08-2.85,4.32-.23.52-.24.94-.19,1.17.1.44.36.73.73.88.2.09.5.16.9.17.57.03,1.44-.04,2.5-.19,3.27-.46,8.51-1.67,11.93-2.51,1.21-.3,6.61-1,7.71-1.19.7-.12.96-.55.98-.59,1.66-2.83,4.19-5.15,6.02-8.51,4.41-8.09,10.73-17.02,16.71-26.01,1.58-2.38,3.17-4.91,4.78-7.2,2.54-3.63,10.39-13.61,11.25-15.7,2.27-5.56,7.07-10.46,10.18-15.59,2.59-4.27,6.81-9.09,9.7-13.13,4.45-6.21,7.34-12.23,11.94-18.35Zm6.91-14.07c-1.9,3.19-6.87,10.25-8.73,12.71-4.61,6.14-7.51,12.17-11.97,18.39-2.92,4.08-7.19,8.95-9.8,13.27-3.16,5.22-8.02,10.23-10.34,15.9-.83,2.04-8.53,11.72-11.01,15.26-1.62,2.31-3.22,4.86-4.81,7.25-6.02,9.05-12.38,18.03-16.81,26.18-1.72,3.16-4.07,5.39-5.71,8-1.59.24-6.42.89-7.56,1.17-3.36.83-8.49,2.01-11.7,2.46-.32.05-.66.08-.97.1.82-1.28,2.01-2.84,2.13-3.04.98-1.61,6.1-8.48,7.66-10.55,2.32-3.08,12.35-16.71,15.27-20.36,10.9-13.61,16.14-21.54,25.55-35.95,5.62-8.6,10.81-18.41,16.49-28.25,1.85-3.21,7.32-13.52,8.12-16.05.04-.03.15-.11.23-.16.33-.18.79-.33,1.31-.48,1.9-.53,4.69-.97,7.41-1.85,2.08-.67,8.13-2.61,12.65-3.57.95-.2,1.83-.36,2.57-.45Z"/>
      </g>
      <g id="Ebene2">
        <path class="cls-5" d="m329.45,88.33c-.26-.04-.56-.1-.91-.14-.4-.05-.86-.08-1.36-.12-1.01-.08-2.18-.16-3.41-.21-3.27-.14-6.87-.18-8.5-.28-3.74-.19-9.4-.24-13.9-.2-1.56.01-2.99.04-4.14.07-.61.01-1.16-.08-1.58.05-.09.03-.11.07-.18.12-.25-.02-.46.16-.49.4-.02.25.16.46.4.49.07.06.08.11.17.15.41.2.99.16,1.62.23,1.16.11,2.6.19,4.18.23,4.48.12,10.11.01,13.83.2,1.65.07,5.28.17,8.57.1,1.23-.03,2.41-.09,3.42-.16.51-.03.96-.07,1.37-.12.36-.05.65-.11.91-.16.17,0,.31-.14.31-.32,0-.17-.15-.31-.32-.31Z"/>
        <path class="cls-5" d="m273.61,88.52c-.68-.12-1.53-.32-2.53-.43-.21-.02-.42-.03-.63-.03-1.46-.03-3.06,0-4.43.06-1.28.06-2.36.18-2.98.26-.33.02-.57.31-.55.63.02.33.31.57.64.55.61-.01,1.67.04,2.91.07,1.37.02,2.96.04,4.41.02.21,0,.42-.01.63-.03.99-.1,1.85-.28,2.53-.38.19,0,.35-.15.36-.35,0-.19-.15-.35-.35-.36Z"/>
        <path class="cls-5" d="m323.32,113.36s.1.03.15.04c.26.02.49-.17.51-.43.02-.11-.02-.4-.41-.53-.12-.04-.38-.09-.76-.14-.49-.07-1.19-.16-2.05-.23-1.31-.1-2.97-.18-4.76-.2-.89-.01-1.8,0-2.72.04-1.4.04-2.8.13-4.07.23-.64.05-1.25.1-1.81.18-1.11.14-2.03.32-2.71.48-.21.03-.35.23-.32.44.03.21.23.35.44.32.81-.06,1.97-.03,3.34-.03,1.52,0,3.28,0,5.05,0,1.14,0,2.28,0,3.37-.02,1.98-.04,3.78-.11,5.05-.13.79-.02,1.36-.04,1.63-.02.02,0,.05.01.06,0Z"/>
        <path class="cls-5" d="m332.97,135.53s-.38.07-.95-.03c-.1-.02-.18-.07-.28-.09-.33-.07-.72-.08-1.14-.12-1.75-.13-4.07-.21-5.56-.28-1.8-.07-3.69-.08-5.62-.03-4.36.1-8.91.43-12.98.48-7.09.14-13.25.32-19.4.62-6.16.3-12.3.73-19.37,1.31-2.2.2-5.54.46-8.93.82-3.25.34-6.54.78-8.92,1.23-.33.05-.56.36-.5.69s.37.56.7.5c1.49-.2,3.34-.37,5.31-.53,4.46-.36,9.52-.64,12.5-.83,7.04-.55,13.17-.93,19.31-1.23,6.13-.3,12.27-.53,19.34-.71,4.08-.13,8.63-.52,13-.74,1.89-.09,3.75-.16,5.52-.14,1.49,0,3.81.05,5.57.02.42,0,.82,0,1.15-.05.11-.02.19-.07.29-.08.58-.07.95.03.95.03.23,0,.42-.18.43-.41s-.17-.42-.4-.43Z"/>
        <path class="cls-5" d="m249.94,121.79c.23-.04.3-.14.28-.25.05-.14-.03-.29-.37-.3-.01,0-.03,0-.04,0-.06,0-.18,0-.36,0-1.05.03-3.89.1-4.69-.03-1.69-.25-3.41-.37-5.14-.42-2.57-.07-5.16.03-7.69.07-6.22.1-12.44.2-18.67.25-6.21.06-12.43.07-18.66,0-4.18-.04-8.37.04-12.55.19-4.87.17-9.73.4-14.6.63-4.86.23-9.71.47-14.57.55-1.55.03-3.69.05-6.16.12-4.29.12-9.54.42-14.36.54-6.62.17-12.41.18-13.66.15-6.33-.24-14.13-.17-21.64.24-2.96.16-5.87.37-8.63.64-2.01.2-3.93.45-5.73.68-.33.03-.58.33-.54.66.03.33.33.57.66.54,2.02-.15,4.19-.27,6.45-.42,2.43-.16,4.96-.34,7.53-.5,2.5-.16,5.03-.33,7.53-.47,5.09-.27,10.06-.43,14.35-.38,1.26.03,7.06-.13,13.7-.18,4.82-.03,10.09.07,14.37.05,2.47-.01,4.61-.06,6.15-.08,4.46-.05,8.92-.21,13.38-.43,6.67-.33,13.33-.78,19.99-1.01,2.77-.09,5.55-.16,8.32-.16,4.99-.01,9.98-.08,14.95-.18,7.49-.15,14.95-.37,22.41-.59,2.51-.07,5.09-.18,7.65-.15,1.7.02,3.39.11,5.06.33.82.11,3.73-.01,4.81-.08.19-.01.32-.02.38-.03.03,0,.06,0,.09-.02Z"/>
        <path class="cls-5" d="m214.52,141.1s.01.07.03.04c0,0,0-.01,0-.02h0s-.01-.02-.02-.02v-.05s-.01-.02-.01-.02c0,.03.02.05.03.08h0s0,0,0,0c.07.11.19.16.32.14.17-.03.28-.19.25-.36,0-.18-.3-.47-.95-.65-1.04-.28-3.19-.43-5.73-.48-.46,0-.94,0-1.42,0-.92.02-1.88.04-2.84.09-2.32.13-4.65.33-6.6.56-.32.04-.64.06-.94.13-.52.12-.96.3-1.38.44-.25.03-.43.25-.4.49.03.25.25.42.49.4.43.05.87.15,1.39.17.19,0,.39-.01.59-.03,2.13-.12,4.79-.24,7.38-.37,1.08-.06,2.14-.12,3.16-.2,2.79-.21,5.16-.37,6.25-.32.15,0,.34-.04.41-.03Z"/>
        <path class="cls-5" d="m164.83,141.31c-1.73-.23-3.53-.42-5.36-.54-2.67-.17-5.4-.19-8.09-.1-3.28.1-6.5.32-9.42.83-1.4.24-2.72.59-3.97.93-.36.09-.58.45-.49.81s.45.58.81.49c1.23-.26,2.54-.45,3.91-.66,2.88-.45,6.01-.86,9.23-1.05,2.65-.16,5.34-.21,7.98-.17,1.82.02,3.6.07,5.33.19.2.02.37-.12.4-.32.02-.2-.13-.38-.33-.4Z"/>
        <path class="cls-5" d="m94.79,147.3c-.18.03-.35.06-.53.09-.07.01-.14.03-.21.03-.09,0-.14-.05-.23-.06-.58-.05-1.15.07-1.71.09-.91.05-1.79.08-2.66.09-2.76,0-5.35-.23-8.03-.45-4.92-.32-9.42-1.06-12.3-1.37-.91-.1-1.67-.16-2.23-.15-.56.01-.95.08-1.17.16-.43.1-.69.54-.58.96s.54.69.96.58c.13-.01.32.06.61.1.47.06,1.11.14,1.88.24,1.65.21,3.91.46,6.5.7,1.93.18,4.05.34,6.25.43,2.73.08,5.36.2,8.16.03.89-.06,1.8-.13,2.73-.27.57-.09,1.17-.11,1.72-.33.08-.03.12-.09.2-.12.07-.03.14-.03.21-.04.18-.03.36-.06.54-.09.17-.03.28-.19.25-.36s-.19-.28-.36-.25Z"/>
        <path class="cls-5" d="m59.97,124.4c-2.03.05-3.43-.01-5.3.03-.69.02-1.43.07-2.29.12l-7.07.19c-.51-.01-.93.39-.95.9-.01.51.39.93.9.95.1.03.19.06.3.07.84.1,1.76-.02,2.64-.09,2.07-.15,3.96-.44,4.33-.49l7.49-.93c.21-.02.36-.2.34-.41-.02-.21-.2-.36-.41-.35Z"/>
        <path class="cls-5" d="m104.78,74.31h0s-.03-.04-.03-.02h0s.03.02.03.02h0s-.03,0-.03-.01c-.3-.16-.68-.13-.96.1-.11.06-.14.17-.2.24-.21.24-.26.75.44,1.26.1.07.28.16.56.25.12.04.27.06.44.09,1.54.25,4.9.44,8.42.19,3.25-.25,6.83-.4,10.21-.64,1.52-.11,3-.24,4.39-.38.17,0,.3-.16.29-.33,0-.17-.16-.3-.33-.29l-14.64.1c-3.38.08-6.57-.3-8.04-.56-.12-.02-.23-.05-.33-.06-.08,0-.19.04-.25.03Zm.42.69c0,.11-.01.22-.05.33.05-.11.08-.21.05-.33Zm-.15-.44l-.02-.03c.05.05.08.11.1.17l-.04-.07s-.02-.04-.04-.07Z"/>
        <path class="cls-5" d="m89.28,75.39l-15.71-1.12c-4.19-.27-7.44-.39-10.52-.31-3.37.09-6.54.42-10.5,1.04-3.22.51-9.64,1.36-15.01,2.39-.57.11-1.11.25-1.65.37-.36.06-.6.4-.54.75.06.36.4.6.75.54.55-.06,1.11-.1,1.68-.18,5.41-.73,11.78-1.9,14.99-2.41,3.89-.63,7-.96,10.31-1.08,3.04-.11,6.26-.04,10.4.18,3.33.14,7.3.33,11.03.41,1.65.04,3.25.04,4.73.05.17,0,.32-.13.32-.3,0-.17-.13-.32-.3-.32Z"/>
        <path class="cls-5" d="m40.15,125.34c-.6-.03-1.18-.07-1.77-.08-.39,0-.78.02-1.17.05-1.47.11-2.91.33-4.36.57-.41.07-.69.47-.61.88.07.41.47.69.88.61,1.66-.34,3.31-.49,4.97-.82.72-.14,1.4-.36,2.13-.54.18-.02.32-.19.3-.37-.02-.18-.19-.32-.37-.3Z"/>
      </g>
    </g>
  </g>
</svg>