<?xml version="1.0" encoding="UTF-8"?>
<svg id="Ebene_2" data-name="Ebene 2" xmlns="http://www.w3.org/2000/svg" viewBox="0 0 41.51 967.17">
  <defs>
    <style>
      .cls-1 {
        fill: rgba(130, 117, 68, .5);
      }

      .cls-2 {
        fill: #827544;
        fill-rule: evenodd;
      }

      .cls-3 {
        fill: #a39359;
      }
    </style>
  </defs>
  <g id="Ebene_1-2" data-name="Ebene 1">
    <g id="Ebene4">
      <g>
        <rect width="41.51" height="967.17"/>
        <rect class="cls-3" x="3.03" y="2.55" width="36.4" height="964.3"/>
        <rect class="cls-1" x="27.94" y="3.62" width="10.37" height="961.94"/>
      </g>
      <path class="cls-2" d="m3.67,203.19c.43,6.07-.36,17.74.35,23.14.6,4.6,27.77-.15,34.15-1.87.75-.2-.19-8.54-.03-10.46.38-4.76.27-13.69.27-13.69,0,0-.03-.18-2.16-.02-10.89.78-21.91,2.91-32.58,2.91Z"/>
      <path class="cls-2" d="m6.26,404.3c-2.13.18-1.65,6.86-1.83,11.34-.11,2.85.03,9.45-.05,12.17-.08,3.08,28.87-6.69,34.05-8.87,1.03-.43.58-13.56.58-20.06,0-2.33-.31-5-.31-7.16,0-.12-8.59,3.33-16.46,6.71-5.75,2.47-10.43,3.09-15.98,5.87Z"/>
      <path class="cls-2" d="m16.84,608.8c-1.84-.13-13.37-.47-13.26.51.28,2.42.28,15.73.69,15.78,4.24.58,9.18,1.91,14.5,3.06,6.32,1.37,15.59,3.2,19.34,3.18.53,0,.27-11.76.27-16.69,0-1.79-5.94-3.02-6.85-2.96-6.28.42-8.46-2.43-14.7-2.88Z"/>
      <path class="cls-2" d="m4.07,845.92c.06,6.19-.27,22.51-.04,22.55,5.23.98,10.38.39,15.86-.61,3.44-.62,18.73-3.78,18.71-5.04-.07-7.46.1-23.51-.57-22.84-1.29,1.29-34.02-1.05-33.95,5.94Z"/>
    </g>
  </g>
</svg>