<?xml version="1.0" encoding="UTF-8"?>
<svg id="Ebene_2" data-name="Ebene 2" xmlns="http://www.w3.org/2000/svg" viewBox="0 0 353.11 181.45">
  <defs>
    <style>
      .cls-1 {
        fill: #a39359;
      }

      .cls-1, .cls-2, .cls-3, .cls-4, .cls-5 {
        fill-rule: evenodd;
      }

      .cls-2 {
        fill: #020000;
      }

      .cls-3 {
        fill: #e1ce8d;
      }

      .cls-4 {
        fill: #50472d;
      }
    </style>
  </defs>
  <g id="Ebene_1-2" data-name="Ebene 1">
    <g id="Ebene12">
      <g id="Ebene3">
        <g>
          <path class="cls-4" d="m135.19,8.67c.1-.48,1.51-7.35.89-7.35-3.24.05-6.58-.04-9.03-.02-6.66.05-10.34,0-15.19-.02-3-.01-6.16.03-6.29.21-2.65,3.65-7.07,8.83-10.93,11.7-24.56,18.23-43.89,33.48-68.52,48.83-5.76,3.59-10.74,6.23-16.97,10.47-1.95,1.33-8.02,5.19-8.02,5.45,0,2.39,12.91,12.96,16.18,15.51,2.97,2.32,9.09,8.19,12.95,12.23,5.16,5.4,32.04,33.15,49.14,51.76,3.37,3.68,9.11,9.92,11.71,13.97,1.75,2.73,4.56,5.6,6.23,8.28.34.55,6.53.64,9.15.6,3.88-.06,8.52-.04,12.03-.95.37-.09.4-3.82.56-5.91.51-6.3,1.01-16.09,1.01-18.24,0-.54.03-4,.03-4,0,0,12.25,1.46,22.22,2.8,18.03,2.42,33.51,5.75,51.59,7.91,23.95,2.87,32.46,3.4,58.33,7.55,8.33,1.33,28.51,5.03,38.27,7.74,2.97.82,10.03,1.67,13.16,2.28.6.12,11-4.3,18.72-7.75,3.88-1.73,4.32-1.86,5.45-4.96,1.03-2.81,3.61-10.05,5.73-20.52.91-4.5,1.46-10.44,4.03-22.88,1.01-4.87,1.5-7.23,5.11-20.44,1.59-5.82,3.25-17.73,9.24-26.72.1-.15-13.51,0-35.8-4.47-36.32-7.28-54.66-11.51-65-13.62-16.96-3.46-43.96-8.09-59.02-10.53-21.17-3.42-38.22-6.6-61.36-10.36-.17-.03,2.5-19.45,4.39-28.57Z"/>
          <path class="cls-5" d="m132.01,36.29c.48-4.17,2.67-19.58,4.29-27.39h0c.08-.4,1.02-5.01,1.07-6.83.02-.78-.22-1.28-.38-1.47-.26-.29-.58-.41-.93-.4-3.23.05-6.57-.04-9.02-.02-6.65.05-10.33,0-15.17-.02-2.8-.01-5.75.04-6.41.19-.48.1-.71.36-.8.49-2.59,3.57-6.91,8.65-10.69,11.45-24.53,18.21-43.84,33.44-68.44,48.78-5.78,3.6-10.77,6.25-17.02,10.5-1.77,1.2-6.91,4.5-7.93,5.34-.53.44-.58.93-.58,1.05,0,.27.07.6.23.97.24.53.72,1.24,1.4,2.04,3.45,4.06,12.33,11.32,14.98,13.38,2.95,2.3,9,8.11,12.83,12.12,5.15,5.4,32.03,33.14,49.12,51.74,3.34,3.64,9.02,9.81,11.6,13.82,1.75,2.73,4.56,5.58,6.22,8.26.11.16.28.36.58.51.21.1.55.21,1.02.29,1.89.31,6.38.37,8.53.34,3.96-.06,8.71-.06,12.29-.99.2-.05.41-.16.6-.36.13-.15.32-.47.41-.97.21-1.09.26-3.86.4-5.58.51-6.33,1.01-16.17,1.01-18.33,0-.32.01-1.68.02-2.73,3.37.41,12.9,1.57,20.95,2.64,18.03,2.42,33.52,5.75,51.61,7.92,23.93,2.87,32.44,3.4,58.28,7.55,8.3,1.33,28.42,5.01,38.14,7.71,2.99.83,10.09,1.68,13.25,2.3.11.02.29.04.53,0,.25-.04.78-.2,1.52-.47,3.23-1.19,11.15-4.58,17.36-7.35,2.57-1.15,3.74-1.71,4.56-2.67.56-.66.98-1.52,1.49-2.94,1.04-2.84,3.64-10.13,5.78-20.69.91-4.5,1.46-10.44,4.03-22.88,1.01-4.86,1.49-7.2,5.1-20.37,1.57-5.74,3.17-17.51,9.08-26.39.16-.24.2-.47.19-.71-.02-.26-.11-.55-.41-.8-.05-.04-.37-.26-1.04-.29-2.32-.13-15.29-.41-35.25-4.41-36.33-7.28-54.66-11.51-65-13.62-16.98-3.46-44-8.1-59.06-10.54-20.85-3.37-37.71-6.51-60.34-10.2Zm3.05-33.82c-.01.27-.04.57-.08.85-.26,2.02-.84,4.82-.9,5.12-1.7,8.24-4.05,24.86-4.38,28.12-.06.57-.02.91,0,.97.18.64.64.78.91.82,23.15,3.76,40.19,6.94,61.36,10.36,15.04,2.43,42.02,7.06,58.97,10.52,10.34,2.11,28.68,6.34,65,13.62,17.42,3.49,29.56,4.17,34.05,4.38-5.23,8.86-6.84,19.85-8.35,25.4-3.63,13.25-4.11,15.62-5.13,20.51-2.57,12.45-3.13,18.39-4.04,22.89-2.1,10.39-4.65,17.56-5.68,20.36-.39,1.07-.66,1.74-1.09,2.24-.67.78-1.68,1.14-3.77,2.07-6.15,2.75-14.01,6.11-17.21,7.29-.42.15-.85.29-1.03.34-3.21-.6-9.99-1.42-12.88-2.22-9.78-2.72-30.03-6.42-38.39-7.77-25.88-4.15-34.4-4.68-58.37-7.55-18.08-2.17-33.56-5.5-51.58-7.91-9.98-1.34-22.24-2.8-22.24-2.8-.32-.04-.64.06-.89.27-.24.21-.38.52-.38.84,0,0-.03,3.47-.03,4.01,0,2.14-.5,11.88-1,18.15-.11,1.31-.16,3.28-.27,4.57-.01.16-.04.33-.06.48-3.35.74-7.58.71-11.15.77-2.07.03-7.45-.32-8.38-.38-1.69-2.6-4.35-5.35-6.04-7.98-2.63-4.1-8.42-10.41-11.83-14.13-17.1-18.61-44-46.38-49.15-51.78-3.9-4.08-10.08-10-13.08-12.34-2.27-1.77-9.23-7.44-13.19-11.49-.97-.99-1.76-1.88-2.23-2.58-.04-.06-.09-.13-.12-.2,1.58-1.14,5.77-3.82,7.31-4.87,6.21-4.23,11.18-6.87,16.93-10.45,24.66-15.37,44.01-30.64,68.6-48.89,3.82-2.83,8.16-7.86,10.89-11.56.85-.03,3.5-.13,5.65-.13,4.85.02,8.54.07,15.2.02,2.2-.02,5.1.05,8,.03Z"/>
        </g>
        <g>
          <path class="cls-2" d="m135.19,8.67c.1-.48,1.51-7.35.89-7.35-3.24.05-6.58-.04-9.03-.02-6.66.05-10.34,0-15.19-.02-3-.01-6.16.03-6.29.21-2.65,3.65-7.07,8.83-10.93,11.7-24.56,18.23-43.89,33.48-68.52,48.83-5.76,3.59-10.74,6.23-16.97,10.47-1.95,1.33-8.02,5.19-8.02,5.45,0,2.39,42.14-5.53,45.41-2.98,2.97,2.32,73.59,76.23,73.59,76.23,0,0,12.25,1.46,22.22,2.8,18.03,2.42,33.51,5.75,51.59,7.91,23.95,2.87,32.46,3.4,58.33,7.55,8.33,1.33,28.51,5.03,38.27,7.74,2.97.82,10.03,1.67,13.16,2.28.6.12,11-4.3,18.72-7.75,3.88-1.73,4.32-1.86,5.45-4.96,1.03-2.81,3.61-10.05,5.73-20.52.91-4.5,1.46-10.44,4.03-22.88,1.01-4.87,1.5-7.23,5.11-20.44,1.59-5.82,3.25-17.73,9.24-26.72.1-.15-13.51,0-35.8-4.47-36.32-7.28-54.66-11.51-65-13.62-16.96-3.46-43.96-8.09-59.02-10.53-21.17-3.42-38.22-6.6-61.36-10.36-.17-.03,2.5-19.45,4.39-28.57Z"/>
          <path class="cls-5" d="m132.01,36.29c.48-4.17,2.67-19.58,4.29-27.39.08-.4,1.02-5.01,1.07-6.83.02-.78-.22-1.28-.38-1.47-.26-.29-.58-.41-.93-.4-3.23.05-6.57-.04-9.02-.02-6.65.05-10.33,0-15.17-.02-2.8-.01-5.75.04-6.41.19-.48.1-.71.36-.8.49-2.59,3.57-6.91,8.65-10.69,11.45-24.53,18.21-43.84,33.44-68.44,48.78-5.78,3.6-10.77,6.25-17.02,10.5-1.77,1.2-6.91,4.5-7.93,5.34-.53.44-.58.93-.58,1.05,0,.46.2.95.83,1.26.24.12.6.22,1.1.27.8.09,2.07.07,3.68-.04,7.62-.51,23.39-2.94,33.05-3.66,2.42-.18,4.44-.25,5.84-.15.41.03.76.07,1.04.14.13.03.23.04.29.09,2.97,2.31,73.46,76.12,73.46,76.12.18.19.42.31.68.34,0,0,12.24,1.46,22.21,2.79,18.03,2.42,33.52,5.75,51.61,7.92,23.93,2.87,32.44,3.4,58.28,7.55,8.3,1.33,28.42,5.01,38.14,7.71,2.99.83,10.09,1.68,13.25,2.3.11.02.29.04.53,0,.25-.04.78-.2,1.52-.47,3.23-1.19,11.15-4.58,17.36-7.35,2.57-1.15,3.74-1.71,4.56-2.67.56-.66.98-1.52,1.49-2.94,1.04-2.84,3.64-10.13,5.78-20.69.91-4.5,1.46-10.44,4.03-22.88,1.01-4.86,1.49-7.2,5.1-20.37,1.57-5.74,3.17-17.51,9.08-26.39.16-.24.2-.47.19-.71-.02-.26-.11-.55-.41-.8-.05-.04-.37-.26-1.04-.29-2.32-.13-15.29-.41-35.25-4.41-36.33-7.28-54.66-11.51-65-13.62-16.98-3.46-44-8.1-59.06-10.54-20.85-3.37-37.71-6.51-60.34-10.2Zm3.05-33.82c-.01.27-.04.57-.08.85-.26,2.02-.84,4.82-.9,5.12-1.7,8.24-4.05,24.86-4.38,28.12-.06.57-.02.91,0,.97.18.64.64.78.91.82,23.15,3.76,40.19,6.94,61.36,10.36,15.04,2.43,42.02,7.06,58.97,10.52,10.34,2.11,28.68,6.34,65,13.62,17.42,3.49,29.56,4.17,34.05,4.38-5.23,8.86-6.84,19.85-8.35,25.4-3.63,13.25-4.11,15.62-5.13,20.51-2.57,12.45-3.13,18.39-4.04,22.89-2.1,10.39-4.65,17.56-5.68,20.36-.39,1.07-.66,1.74-1.09,2.24-.67.78-1.68,1.14-3.77,2.07-6.15,2.75-14.01,6.11-17.21,7.29-.42.15-.85.29-1.03.34-3.21-.6-9.99-1.42-12.88-2.22-9.78-2.72-30.03-6.42-38.39-7.77-25.88-4.15-34.4-4.68-58.37-7.55-18.08-2.17-33.56-5.5-51.58-7.91-8.91-1.2-19.64-2.49-21.83-2.75-4.84-5.06-70.56-73.82-73.43-76.05-.26-.2-.64-.38-1.17-.51-.82-.19-2.12-.27-3.77-.24-8.74.17-28.1,3.27-36.83,3.85-.54.04-1.03.06-1.48.08,1.92-1.29,4.62-3.03,5.8-3.83,6.21-4.23,11.18-6.87,16.93-10.45,24.66-15.37,44.01-30.64,68.6-48.89,3.82-2.83,8.16-7.86,10.89-11.56.85-.03,3.5-.13,5.65-.13,4.85.02,8.54.07,15.2.02,2.2-.02,5.1.05,8,.03Z"/>
        </g>
        <g>
          <path class="cls-3" d="m122.13,11.16c3.27-2.08,13.87-9.34,13.22-9.54-3.07-.96-15.16-.3-18.41-.12-4.87.27-9.67-.45-10.49.63-1.31,1.73-9.35,8.73-11.99,10.87-8.12,6.59-15.74,13.26-23.49,18.89-12.98,9.44-20.18,14.62-34.44,23.15-3.84,2.3-17.3,11.04-20.39,13.01-2.09,1.33-8.99,5.76-10.38,6.84-.28.22-4.54,2.86-4.02,3.17,1.15.66,10.16.79,15.31.79,1.44,0,8.27.6,8.33.56,2.35-1.89,5.46-3.21,8.12-5.48,6.45-5.5,15.02-11.29,23.27-17.19,2.18-1.56,4.41-3.24,6.59-4.73,3.41-2.32,13.64-8.52,15-9.97,3.69-3.95,9.76-6.9,14.18-10.34,3.67-2.86,9.13-5.83,13.05-8.45,6-4.01,10.4-8.16,16.54-12.08Z"/>
          <path class="cls-5" d="m122.74,12.12c2.99-1.91,12.01-8.09,13.3-9.46.4-.42.46-.82.46-.99,0-.55-.24-.95-.82-1.13-3.13-.98-15.49-.36-18.82-.17-3.43.19-6.81-.11-8.82.07-1.29.11-2.14.52-2.51,1-1.29,1.7-9.21,8.57-11.8,10.68-8.1,6.58-15.71,13.23-23.44,18.86-12.95,9.42-20.13,14.59-34.36,23.1-3.85,2.3-17.32,11.06-20.42,13.03-2.11,1.34-9.06,5.81-10.47,6.9-.18.14-1.93,1.23-3.07,2.1-.69.53-1.17,1.04-1.3,1.31-.18.37-.15.7-.07.94.09.27.26.51.55.68.4.23,1.62.48,3.32.61,3.39.27,8.93.33,12.57.33,1.29,0,6.91.49,8.06.55.63.03.95-.22.98-.24,2.36-1.89,5.48-3.23,8.15-5.5,6.43-5.48,14.98-11.25,23.2-17.13,2.18-1.56,4.39-3.23,6.58-4.72,3.45-2.36,13.81-8.66,15.19-10.14,3.65-3.91,9.68-6.81,14.05-10.22,3.65-2.85,9.09-5.8,12.98-8.4,6-4.01,10.39-8.15,16.52-12.06Zm10.14-9.76c-2.96,2.25-9.04,6.37-11.36,7.85-6.14,3.92-10.55,8.07-16.56,12.09-3.94,2.63-9.43,5.62-13.12,8.5-4.46,3.48-10.59,6.47-14.32,10.46-1.34,1.44-11.45,7.52-14.81,9.81-2.19,1.5-4.43,3.18-6.61,4.75-8.28,5.92-16.88,11.73-23.35,17.25-2.52,2.15-5.45,3.45-7.75,5.19-1.54-.1-6.72-.54-7.96-.54-3.58,0-9.04-.06-12.39-.32-.18-.01-.36-.03-.55-.05,1.03-.72,2.19-1.45,2.33-1.56,1.38-1.07,8.22-5.46,10.29-6.78,3.09-1.97,16.52-10.7,20.36-12.99,14.3-8.55,21.52-13.74,34.53-23.21,7.77-5.65,15.4-12.33,23.54-18.93,2.65-2.15,10.64-9.13,12.13-11,.06-.02.21-.07.32-.1.4-.08.91-.12,1.5-.13,2.03-.05,4.94.14,7.88-.02,2.66-.15,11.35-.65,15.89-.27Z"/>
        </g>
        <g>
          <path class="cls-1" d="m135.05,8.76c.1-.48,1.51-7.35.89-7.35-3.24.05-8.57,5.87-13.58,9.8-10.81,8.48-16.22,12.31-21.87,16.13-12.79,8.66-26.47,17.66-50.12,33.96-7.36,5.07-13.23,9.95-19.23,14.39-5.89,4.36-6.81,3.86-4.18,6.62,4.63,4.85,8.67,9,11.94,11.55,2.97,2.31,7.74,8.93,11.6,12.97,5.15,5.4,12.27,12.71,29.36,31.31,3.38,3.68,17.6,15.65,20.21,19.71,1.75,2.73,14.85,18.99,18.36,18.08.36-.1.37-.29.53-2.38.51-6.3,1.01-16.09,1.01-18.24,0-.54-.61-15.35-.61-15.35,0,0,17.19,3.07,27.16,4.41,18.03,2.42,32.36,4.48,50.44,6.64,23.95,2.87,32.85,4.39,58.71,8.53,8.33,1.33,56.53,6.97,67.02,8.44,4.41.61,3.92,2,5.05-1.11,1.03-2.81,3.61-10.05,5.73-20.52.91-4.5,1.46-10.44,4.03-22.88,1.01-4.87,1.5-7.23,5.11-20.44,1.59-5.82,3.25-17.73,9.24-26.72.1-.15-13.51,0-35.8-4.47-36.32-7.28-54.66-11.51-65-13.62-16.96-3.46-43.96-8.09-59.02-10.53-21.17-3.42-38.22-6.6-61.36-10.36-.17-.03,2.5-19.45,4.39-28.57Z"/>
          <path class="cls-2" d="m131.88,36.37c.48-4.17,2.67-19.58,4.29-27.39.08-.4,1.02-5.01,1.07-6.83.02-.78-.22-1.28-.38-1.47-.26-.29-.58-.41-.93-.4-1.47.02-3.35,1.01-5.4,2.57-2.72,2.06-5.84,5.1-8.85,7.47-10.77,8.45-16.17,12.27-21.81,16.09-12.79,8.65-26.47,17.66-50.13,33.96-7.37,5.08-13.25,9.97-19.26,14.41-2.99,2.21-4.73,3.24-5.42,4.03-.59.67-.72,1.28-.56,1.95.14.58.66,1.3,1.65,2.33,4.68,4.9,8.76,9.08,12.07,11.66,2.94,2.29,7.65,8.86,11.47,12.86,5.15,5.4,12.27,12.7,29.35,31.3,3.35,3.65,17.5,15.52,20.09,19.55,1.25,1.94,8.13,10.61,13.37,15.32,1.68,1.51,3.22,2.61,4.37,3.05.73.27,1.35.32,1.85.19.53-.14.85-.33,1.08-1,.11-.31.19-.96.3-2.39.51-6.33,1.01-16.17,1.01-18.33,0-.44-.4-10.27-.55-13.99,4.29.76,17.54,3.06,25.82,4.17,18.03,2.42,32.37,4.48,50.46,6.64,23.93,2.87,32.83,4.39,58.67,8.53,8.33,1.34,56.54,6.98,67.04,8.44,2.19.31,3.19.79,3.77.85.66.06,1.12-.12,1.54-.62.27-.32.55-.94.96-2.06,1.04-2.84,3.64-10.13,5.78-20.69.91-4.5,1.46-10.44,4.03-22.88,1.01-4.86,1.49-7.2,5.1-20.37,1.57-5.74,3.17-17.51,9.08-26.39.16-.24.2-.47.19-.71-.02-.26-.11-.55-.41-.8-.05-.04-.37-.26-1.04-.29-2.32-.13-15.29-.41-35.25-4.41-36.33-7.28-54.66-11.51-65-13.62-16.98-3.46-44-8.1-59.06-10.54-20.85-3.37-37.71-6.51-60.34-10.2Zm3.03-33.6c-.02.21-.04.43-.07.64-.26,2.02-.84,4.82-.9,5.12h0c-1.7,8.24-4.05,24.86-4.38,28.12-.06.57-.02.91,0,.97.18.64.64.78.91.82,23.15,3.76,40.19,6.94,61.36,10.36,15.04,2.43,42.02,7.06,58.97,10.52,10.34,2.11,28.68,6.34,65,13.62,17.42,3.49,29.56,4.17,34.05,4.38-5.23,8.86-6.84,19.85-8.35,25.4-3.63,13.25-4.11,15.62-5.13,20.51-2.57,12.45-3.13,18.39-4.04,22.89-2.1,10.39-4.65,17.56-5.68,20.36-.16.45-.33.86-.44,1.11-.53-.16-1.78-.52-3.39-.74-10.48-1.46-58.66-7.1-66.99-8.43-25.88-4.15-34.79-5.67-58.76-8.54-18.08-2.17-32.41-4.22-50.43-6.64-9.96-1.34-27.11-4.41-27.11-4.41-.34-.06-.68.04-.95.26-.26.22-.4.55-.38.9,0,0,.6,14.76.6,15.3,0,2.14-.5,11.88-1,18.15-.04.53-.09.98-.12,1.3-.13-.05-.27-.13-.42-.2-.92-.46-2.05-1.35-3.29-2.46-5.09-4.57-11.77-12.98-12.98-14.86-2.62-4.08-16.92-16.15-20.32-19.85-17.1-18.62-24.23-25.93-29.38-31.33-3.9-4.08-8.72-10.74-11.72-13.08-3.24-2.52-7.23-6.63-11.82-11.43-.45-.47-.87-1.02-1.02-1.22.06-.06.14-.15.21-.21.22-.19.5-.4.84-.65.92-.66,2.24-1.53,4.01-2.84,5.99-4.43,11.85-9.3,19.2-14.37,23.65-16.3,37.33-25.3,50.11-33.95,5.67-3.83,11.1-7.68,21.94-16.18,3-2.35,6.11-5.38,8.82-7.44,1.11-.84,2.13-1.54,3.02-1.88Z"/>
        </g>
      </g>
      <g id="Ebene22">
        <path class="cls-5" d="m330.82,107.37c-.24-.1-.52-.23-.85-.36-.38-.14-.81-.29-1.29-.44-.96-.31-2.08-.68-3.26-1.02-3.14-.92-6.63-1.82-8.19-2.31-3.59-1.08-9.07-2.48-13.45-3.52-1.52-.36-2.91-.67-4.04-.92-.6-.13-1.1-.35-1.55-.33-.1,0-.12.05-.21.07-.23-.08-.49.04-.57.27-.08.23.04.49.27.57.05.08.05.12.13.19.35.29.93.4,1.52.61,1.1.39,2.48.8,4,1.22,4.32,1.19,9.81,2.42,13.38,3.5,1.58.46,5.08,1.43,8.3,2.14,1.2.27,2.36.49,3.36.66.5.09.95.17,1.36.21.36.04.66.05.93.06.17.04.33-.07.38-.23.04-.17-.07-.34-.24-.38Z"/>
        <path class="cls-5" d="m318.89,130.21s.09.06.14.07c.24.08.51-.05.6-.29.05-.1.08-.39-.27-.62-.1-.07-.34-.17-.7-.32-.46-.18-1.12-.44-1.93-.71-1.25-.41-2.84-.89-4.57-1.33-.86-.22-1.75-.42-2.65-.61-1.37-.29-2.75-.55-4.01-.75-.63-.1-1.24-.2-1.8-.26-1.11-.13-2.05-.17-2.75-.18-.21-.02-.4.14-.42.35-.02.21.14.4.35.42.8.13,1.92.44,3.25.77,1.47.37,3.18.79,4.9,1.21,1.1.27,2.22.54,3.28.78,1.93.44,3.7.8,4.94,1.08.77.17,1.33.29,1.59.37.02,0,.04.02.05.02Z"/>
        <path class="cls-5" d="m298.88,149.96s-.38-.02-.92-.25c-.09-.04-.15-.11-.25-.16-.3-.15-.68-.25-1.08-.39-1.67-.55-3.91-1.17-5.34-1.6-1.73-.5-3.57-.95-5.45-1.37-4.26-.94-8.75-1.71-12.72-2.63-6.92-1.55-12.94-2.86-18.98-4.03-6.05-1.18-12.12-2.23-19.12-3.35-2.19-.33-5.49-.88-8.86-1.34-3.24-.44-6.54-.8-8.96-.94-.33-.03-.63.22-.65.55s.22.63.55.66c1.5.16,3.34.44,5.28.75,4.41.72,9.4,1.65,12.34,2.18,6.97,1.15,13.01,2.24,19.05,3.41,6.02,1.17,12.04,2.41,18.95,3.93,3.99.85,8.5,1.55,12.8,2.39,1.86.36,3.68.74,5.4,1.18,1.45.36,3.69.96,5.4,1.34.41.09.79.19,1.13.22.11,0,.2-.02.3,0,.58.07.92.25.92.25.22.06.45-.07.51-.29s-.07-.45-.29-.51Z"/>
        <path class="cls-5" d="m245.62,120.87c.23.02.33-.07.33-.18.09-.12.04-.29-.29-.38-.01,0-.03,0-.04-.01-.06-.01-.18-.04-.36-.08-1.03-.23-3.8-.84-4.55-1.15-1.58-.65-3.22-1.18-4.89-1.64-2.48-.68-5.02-1.21-7.48-1.77-6.06-1.39-12.13-2.78-18.19-4.21-6.04-1.43-12.09-2.9-18.13-4.45-4.05-1.04-8.14-1.96-12.23-2.82-4.77-1-9.55-1.94-14.33-2.87-4.77-.93-9.54-1.86-14.28-2.94-1.51-.34-3.6-.83-6.01-1.35-4.19-.9-9.36-1.87-14.08-2.9-6.47-1.41-12.09-2.79-13.3-3.12-6.09-1.75-13.68-3.54-21.07-4.93-2.91-.55-5.79-1.04-8.53-1.44-2-.29-3.92-.5-5.73-.71-.33-.05-.64.18-.69.51-.05.33.18.64.51.68,2,.33,4.13.74,6.37,1.14,2.39.42,4.89.86,7.43,1.31,2.46.44,4.96.88,7.42,1.34,5.01.96,9.87,1.99,14.03,3.06,1.22.33,6.89,1.56,13.35,3.1,4.69,1.12,9.78,2.48,13.94,3.48,2.4.58,4.49,1.04,5.99,1.39,4.34,1.01,8.71,1.93,13.09,2.78,6.55,1.27,13.13,2.43,19.66,3.8,2.72.57,5.42,1.17,8.12,1.83,4.85,1.18,9.71,2.31,14.56,3.4,7.31,1.65,14.61,3.21,21.91,4.78,2.46.53,4.98,1.04,7.46,1.69,1.64.43,3.27.91,4.83,1.53.77.3,3.63.88,4.69,1.07.18.03.31.05.37.06.03,0,.06,0,.09,0Z"/>
        <path class="cls-5" d="m220.49,80.64s0,.07.02.04c0,0,0-.01,0-.02h0s0-.02-.02-.02v-.05s0-.02,0-.02c0,.03,0,.05.01.08h0s0,0,0,0c.04.12.15.2.28.21.17.01.32-.12.33-.29.04-.18-.17-.53-.77-.86-.95-.52-2.99-1.18-5.45-1.83-.45-.12-.91-.23-1.38-.33-.9-.21-1.84-.41-2.78-.59-2.28-.43-4.6-.79-6.54-1.03-.32-.04-.64-.1-.94-.1-.54-.01-1,.06-1.45.1-.25-.03-.47.14-.51.38-.03.24.14.47.38.5.41.15.81.35,1.31.5.18.05.38.08.57.12,2.1.4,4.71.91,7.26,1.4,1.06.2,2.11.39,3.11.56,2.76.46,5.09.87,6.15,1.18.15.04.34.04.41.07Z"/>
        <path class="cls-5" d="m186.29,72.91c-1.63-.64-3.32-1.25-5.08-1.8-2.55-.8-5.2-1.47-7.83-2.03-3.21-.69-6.38-1.24-9.35-1.45-1.42-.1-2.78-.08-4.08-.04-.37,0-.67.3-.67.67s.3.67.67.67c1.26.04,2.58.17,3.95.29,2.9.25,6.04.6,9.21,1.18,2.61.48,5.24,1.08,7.79,1.74,1.76.46,3.48.93,5.13,1.45.19.07.39-.03.46-.22.07-.19-.03-.4-.22-.46Z"/>
        <path class="cls-5" d="m88.87,108.59c-.18-.01-.36-.02-.53-.04-.07,0-.14,0-.21-.02-.08-.02-.13-.08-.21-.11-.55-.19-1.13-.21-1.68-.32-.9-.17-1.76-.35-2.6-.55-2.69-.65-5.13-1.5-7.69-2.36-4.7-1.49-8.89-3.28-11.62-4.27-.86-.31-1.58-.56-2.13-.68-.54-.12-.94-.15-1.17-.12-.44,0-.8.36-.8.8s.36.8.8.8c.13.02.3.14.56.24.45.17,1.05.4,1.77.68,1.55.6,3.68,1.38,6.14,2.24,1.83.64,3.85,1.3,5.96,1.91,2.63.73,5.16,1.48,7.92,1.98.88.16,1.78.31,2.71.39.57.05,1.16.17,1.75.09.09-.01.14-.06.23-.07.07,0,.14,0,.22.01.18.01.36.03.54.04.17.01.32-.12.33-.29s-.12-.32-.29-.33Z"/>
        <path class="cls-5" d="m59.62,57.55l7.23,2.19c.36.11,2.17.72,4.18,1.22.86.22,1.75.49,2.59.54.11,0,.2-.01.31-.02.5.07.97-.28,1.05-.78.07-.5-.28-.97-.78-1.05l-6.93-1.39c-.84-.2-1.56-.38-2.23-.51-1.83-.37-3.22-.54-5.21-.94-.2-.05-.41.07-.46.27-.05.2.07.41.27.46Z"/>
        <path class="cls-5" d="m56.39,56.16c-.24-.05-.48-.12-.72-.16-.98-.15-1.95-.21-2.91-.24-1.22-.04-2.43.03-3.66.1-.22,0-.39.18-.38.39,0,.22.18.39.39.38,1.02.04,2.02.12,3.03.18.43.03.86.05,1.3.06.76.02,1.53.07,2.32.03.2-.01.38-.05.58-.07.18.01.35-.13.36-.32.01-.18-.13-.34-.31-.36Z"/>
      </g>
    </g>
  </g>
</svg>