<?xml version="1.0" encoding="UTF-8"?>
<svg id="Ebene_2" data-name="Ebene 2" xmlns="http://www.w3.org/2000/svg" viewBox="0 0 341.61 224.69">
  <defs>
    <style>
      .cls-1 {
        fill: #a39359;
      }

      .cls-1, .cls-2, .cls-3, .cls-4 {
        fill-rule: evenodd;
      }

      .cls-2 {
        fill: #020000;
      }

      .cls-3 {
        fill: #e1ce8d;
      }
    </style>
  </defs>
  <g id="Ebene_1-2" data-name="Ebene 1">
    <g id="Ebene13">
      <path class="cls-2" d="m210.82,10.52c-.1-.6-1.46-9.13-.86-9.12,3.13.07,6.36-.04,8.73-.02,6.44.07,10,0,14.69-.02,2.9-.01,5.96.04,6.08.26,2.57,4.53,6.84,10.96,10.57,14.52,23.76,22.62,42.45,41.55,66.27,60.61,5.57,4.46,10.39,7.74,16.41,13,1.88,1.65,7.75,6.44,7.75,6.77,0,2.96-12.49,16.09-15.65,19.25-2.87,2.87-8.8,10.16-12.53,15.18-4.99,6.7-30.99,41.15-47.52,64.24-3.26,4.57-8.81,12.31-11.33,17.34-1.69,3.39-4.41,6.94-6.02,10.28-.33.69-6.31.8-8.85.75-3.75-.08-8.24-.05-11.63-1.18-.36-.12-.38-4.74-.55-7.33-.49-7.82-.97-19.97-.97-22.64,0-.67-.02-4.97-.02-4.97,0,0-11.84,1.82-21.49,3.48-17.44,3-32.41,7.13-49.9,9.82-23.17,3.56-31.4,4.22-56.41,9.37-8.06,1.66-27.57,6.24-37.01,9.6-2.87,1.02-9.7,2.07-12.73,2.83-.58.15-10.64-5.33-18.11-9.61-3.75-2.15-4.18-2.31-5.27-6.16-1-3.49-3.49-12.47-5.54-25.47-.88-5.59-1.41-12.95-3.9-28.4-.97-6.05-1.45-8.97-4.94-25.37-1.54-7.22-3.14-22-8.93-33.16-.1-.19,13.07,0,34.62-5.55,35.13-9.03,52.87-14.28,62.86-16.9,16.4-4.3,42.52-10.05,57.08-13.07,20.47-4.24,36.96-8.2,59.35-12.86.17-.03-2.42-24.14-4.24-35.45Z"/>
      <path class="cls-4" d="m213.88,45.06c-21.91,4.58-38.21,8.48-58.39,12.67-14.58,3.02-40.71,8.78-57.14,13.08-10,2.62-27.73,7.87-62.86,16.9-19.29,4.96-31.81,5.31-34.05,5.46-.42.03-.66.1-.73.13-.19.08-.31.19-.38.27-.4.42-.41.86-.18,1.3,5.74,11.06,7.31,25.71,8.83,32.87,3.49,16.36,3.96,19.28,4.93,25.32,2.49,15.44,3.02,22.81,3.9,28.4,2.06,13.07,4.56,22.09,5.57,25.61.49,1.69.87,2.73,1.4,3.53.79,1.2,1.92,1.88,4.4,3.3,6.01,3.44,13.68,7.66,16.8,9.13.74.35,1.26.55,1.51.6.29.06.51.03.63,0,3.06-.77,9.94-1.83,12.84-2.86,9.39-3.35,28.83-7.91,36.86-9.56,24.98-5.14,33.21-5.8,56.36-9.36,17.49-2.69,32.47-6.83,49.92-9.83,7.71-1.32,16.85-2.75,20.17-3.27,0,1.32.02,3.22.02,3.65,0,2.68.48,14.87.97,22.71.13,2.11.18,5.53.38,6.87.08.52.22.86.33,1.01.19.26.41.39.61.46,3.49,1.16,8.11,1.16,11.97,1.24,2.1.04,6.47-.03,8.31-.42.49-.1.85-.24,1.06-.38.28-.18.44-.38.53-.58,1.61-3.33,4.32-6.88,6.02-10.26,2.49-4.99,8-12.66,11.24-17.19,16.53-23.09,42.53-57.53,47.51-64.23,3.7-4.97,9.57-12.2,12.42-15.05,2.23-2.24,9.07-9.38,12.97-14.5,1.23-1.61,2.17-3.03,2.63-4.06.27-.6.38-1.11.38-1.5,0-.13-.05-.55-.47-1-.98-1.04-5.95-5.13-7.67-6.62-6.04-5.27-10.87-8.56-16.45-13.03-23.8-19.04-42.47-37.95-66.2-60.55-3.67-3.5-7.85-9.81-10.36-14.26-.09-.15-.45-.57-1.24-.68-.97-.13-3.46-.17-5.84-.16-4.68.02-8.24.09-14.67.02-2.37-.02-5.59.09-8.72.02-.39,0-1.11.19-1.27,1.19-.23,1.43.89,8.68.98,9.24h0c1.59,9.93,3.78,29.71,4.17,34.36ZM238.75,2.63c2.63,4.58,6.83,10.82,10.51,14.33,23.78,22.65,42.49,41.6,66.34,60.67,5.56,4.45,10.37,7.72,16.38,12.97,1.57,1.37,5.96,4.97,7.29,6.25-.07.18-.18.38-.3.61-.46.88-1.23,1.99-2.18,3.23-3.84,5.04-10.57,12.07-12.77,14.27-2.9,2.9-8.87,10.25-12.63,15.31-4.99,6.7-31,41.16-47.54,64.26-3.29,4.61-8.88,12.41-11.42,17.49-1.64,3.28-4.24,6.72-5.87,9.96-.29.06-.94.19-1.48.24-2.02.19-4.92.22-6.5.19-3.42-.07-7.48-.03-10.69-.94-.07-1.16-.27-4.66-.38-6.52-.49-7.79-.96-19.9-.96-22.57,0-.67-.03-4.97-.03-4.97,0-.33-.15-.64-.39-.85s-.58-.31-.91-.26c0,0-11.86,1.81-21.51,3.48-17.43,3-32.4,7.13-49.88,9.82-23.19,3.57-31.43,4.23-56.47,9.38-8.09,1.67-27.69,6.27-37.16,9.65-2.77.99-9.23,1.99-12.36,2.73h-.03c-2.1-.82-10.84-5.61-17.51-9.43-2.02-1.15-3-1.62-3.64-2.59-.43-.65-.71-1.51-1.11-2.9-.99-3.47-3.47-12.41-5.51-25.33-.88-5.59-1.41-12.96-3.91-28.41-.97-6.06-1.45-8.99-4.95-25.42-1.49-6.96-3.05-20.88-8.28-31.92,4.2-.24,16.05-1.06,33.15-5.45,35.13-9.03,52.87-14.28,62.87-16.9,16.39-4.29,42.48-10.04,57.02-13.05,20.47-4.25,36.96-8.2,59.35-12.87.22-.04.73-.19.88-.88.01-.07.03-.42,0-1.01-.32-4.04-2.58-24.64-4.22-34.85h0c-.07-.42-.68-5.8-.9-7.79,2.78.02,5.54-.06,7.65-.04,6.44.06,10.01,0,14.7-.02,2.02,0,4.51.11,5.36.15Z"/>
      <path class="cls-1" d="m210.82,10.52c-.1-.6-1.46-9.13-.86-9.12,3.13.07,8.29,7.29,13.13,12.16,10.45,10.52,15.69,15.28,21.16,20.02,12.37,10.74,25.6,21.92,48.48,42.15,7.12,6.29,12.8,12.35,18.59,17.86,5.7,5.41,6.59,4.8,4.05,8.21-4.48,6.02-8.38,11.17-11.55,14.33-2.87,2.87-7.49,11.08-11.22,16.1-4.98,6.7-11.87,15.77-28.4,38.86-3.27,4.57-17.03,19.42-19.54,24.46-1.69,3.39-14.36,23.57-17.76,22.44-.35-.12-.36-.36-.52-2.95-.49-7.82-.97-19.97-.97-22.64,0-.67.59-19.05.59-19.05,0,0-16.62,3.81-26.27,5.47-17.44,3-31.3,5.56-48.78,8.25-23.17,3.56-31.77,5.44-56.78,10.59-8.06,1.66-54.67,8.65-64.82,10.47-4.26.76-3.79,2.48-4.88-1.37-1-3.49-3.49-12.47-5.54-25.47-.88-5.59-1.41-12.95-3.9-28.4-.97-6.05-1.45-8.97-4.94-25.37-1.54-7.22-3.14-22-8.93-33.16-.1-.19,13.07,0,34.62-5.55,35.13-9.03,52.87-14.28,62.86-16.9,16.4-4.3,42.52-10.05,57.08-13.07,20.47-4.24,36.96-8.2,59.35-12.86.17-.03-2.42-24.14-4.24-35.45Z"/>
      <path class="cls-2" d="m213.88,45.06c-21.91,4.58-38.21,8.48-58.39,12.67-14.58,3.02-40.71,8.78-57.14,13.08-10,2.62-27.73,7.87-62.86,16.9-19.29,4.96-31.81,5.31-34.05,5.46-.42.03-.66.1-.73.13-.19.08-.31.19-.38.27-.4.42-.41.86-.18,1.3,5.74,11.06,7.31,25.71,8.83,32.87,3.49,16.36,3.96,19.28,4.93,25.32,2.49,15.44,3.02,22.81,3.9,28.4,2.06,13.07,4.56,22.09,5.57,25.61.35,1.21.57,1.93.8,2.32.22.38.48.6.74.74.38.19.82.25,1.43.07.56-.17,1.49-.64,3.21-.95,10.15-1.82,56.78-8.82,64.85-10.48,24.98-5.14,33.58-7.02,56.73-10.58,17.49-2.69,31.36-5.25,48.8-8.25,7.96-1.37,20.65-4.2,24.9-5.16-.14,4.37-.54,17.07-.54,17.62,0,2.68.48,14.87.97,22.71.1,1.7.17,2.46.27,2.84.09.34.23.55.38.71.18.19.38.32.65.41.49.17,1.1.14,1.79-.15.66-.28,1.46-.85,2.33-1.67,5.11-4.77,13.63-18.43,15.01-21.18,2.5-5.01,16.2-19.76,19.45-24.3,16.52-23.08,23.4-32.15,28.38-38.85,3.7-4.97,8.26-13.13,11.11-15.97,3.19-3.19,7.13-8.38,11.66-14.45.91-1.22,1.4-2.05,1.52-2.72.16-.85-.06-1.6-.9-2.55-.81-.91-2.38-2.14-4.8-4.44-5.81-5.52-11.5-11.58-18.62-17.88-22.88-20.24-36.12-31.41-48.49-42.15-5.45-4.73-10.67-9.48-21.09-19.97-3.41-3.44-6.98-8.02-9.9-10.49-1.49-1.26-2.88-1.98-4.01-2-.39,0-1.11.19-1.27,1.19-.23,1.43.89,8.68.98,9.24h0c1.59,9.93,3.78,29.71,4.17,34.36Zm-2.8-42.12c.12.07.24.15.36.23.72.47,1.5,1.15,2.31,1.95,2.62,2.56,5.63,6.32,8.53,9.24,10.48,10.55,15.74,15.33,21.21,20.08,12.37,10.74,25.6,21.91,48.47,42.14,7.11,6.28,12.77,12.33,18.57,17.83,1.71,1.63,3,2.72,3.88,3.53.37.34.66.62.88.88.15.18.28.3.28.46,0,.15-.09.3-.19.49-.21.37-.53.81-.94,1.35-4.44,5.97-8.3,11.07-11.44,14.21-2.9,2.9-7.56,11.17-11.32,16.22-4.99,6.71-11.88,15.78-28.41,38.88-3.29,4.59-17.1,19.54-19.64,24.61-1.17,2.34-7.66,12.81-12.58,18.49-1.2,1.38-2.29,2.47-3.19,3.05-.07.05-.15.09-.23.13-.04-.42-.09-1.03-.14-1.75-.49-7.79-.96-19.9-.96-22.57,0-.67.58-19.01.58-19.01.01-.35-.14-.69-.41-.91-.27-.22-.63-.31-.97-.23,0,0-16.58,3.81-26.21,5.46-17.43,3-31.29,5.55-48.76,8.24-23.19,3.57-31.81,5.45-56.84,10.6-8.06,1.66-54.65,8.65-64.79,10.47-1.37.24-2.29.58-2.93.82-.07.02-.14.05-.21.07-.12-.34-.3-.88-.46-1.47-.99-3.47-3.47-12.41-5.51-25.33-.88-5.59-1.41-12.96-3.91-28.41-.97-6.06-1.45-8.99-4.95-25.42-1.49-6.96-3.05-20.88-8.28-31.92,4.2-.24,16.05-1.06,33.15-5.45,35.13-9.03,52.87-14.28,62.87-16.9,16.39-4.29,42.48-10.04,57.02-13.05,20.47-4.25,36.96-8.2,59.35-12.87.22-.04.73-.19.88-.88.01-.07.03-.42,0-1.01-.32-4.04-2.58-24.64-4.22-34.85h0c-.06-.39-.61-5.17-.86-7.4Z"/>
      <g>
        <path class="cls-3" d="m223.46,13.61c-3.16-2.58-13.41-11.6-12.78-11.85,2.96-1.19,14.66-.38,17.81-.15,4.71.34,9.36-.56,10.15.78,1.27,2.15,9.05,10.84,11.6,13.49,7.85,8.18,15.22,16.45,22.72,23.45,12.55,11.72,19.51,18.15,33.31,28.74,3.72,2.85,16.73,13.7,19.72,16.15,2.02,1.65,8.69,7.15,10.04,8.49.27.27,4.39,3.55,3.89,3.93-1.11.82-9.83.98-14.81.98-1.39,0-8,.75-8.05.69-2.28-2.34-5.28-3.99-7.85-6.8-6.23-6.83-14.53-14.01-22.51-21.33-2.11-1.94-4.26-4.02-6.38-5.87-3.29-2.88-13.19-10.57-14.51-12.38-3.57-4.9-9.44-8.56-13.72-12.84-3.55-3.55-8.83-7.24-12.62-10.49-5.81-4.98-10.06-10.13-16-14.99Z"/>
        <path class="cls-4" d="m222.74,14.48c5.93,4.85,10.18,10,15.98,14.97,3.77,3.23,9.02,6.9,12.56,10.43,4.24,4.24,10.07,7.84,13.6,12.7,1.33,1.83,11.34,9.64,14.67,12.56,2.11,1.85,4.25,3.92,6.36,5.85,7.95,7.3,16.22,14.46,22.44,21.26,2.58,2.83,5.59,4.48,7.88,6.83.03.03.38.38,1.1.33,1.11-.08,6.53-.69,7.77-.69,3.52,0,8.89-.08,12.18-.41,1.07-.11,1.93-.25,2.48-.41.38-.11.65-.25.83-.38.33-.24.51-.58.5-1.03,0-.24-.12-.65-.46-1.09-.83-1.07-3.58-3.29-3.8-3.51-1.36-1.36-8.09-6.9-10.12-8.57-2.99-2.45-16.02-13.32-19.74-16.17-13.77-10.56-20.71-16.98-33.23-28.67-7.48-6.98-14.84-15.24-22.68-23.41-2.51-2.62-10.19-11.17-11.44-13.28-.37-.62-1.21-1.1-2.5-1.24-1.94-.22-5.22.15-8.54-.09-2.22-.16-8.67-.6-13.37-.45-2.16.07-3.98.29-4.94.68-.38.15-1.19.93-.37,2.05,1.25,1.69,9.97,9.36,12.85,11.73h0Zm14.95-11.47c1.38,2.27,9.15,10.97,11.72,13.65,7.87,8.2,15.25,16.48,22.76,23.49,12.58,11.75,19.56,18.19,33.4,28.81,3.71,2.85,16.71,13.69,19.69,16.13,2,1.64,8.62,7.08,9.96,8.42.16.16,1.69,1.39,2.8,2.44-.31.05-.64.1-.97.13-3.23.33-8.5.4-11.95.4-1.17,0-6.01.52-7.62.67-2.22-2.14-5.03-3.75-7.45-6.41-6.25-6.85-14.57-14.06-22.58-21.41-2.12-1.94-4.27-4.03-6.4-5.89-3.25-2.85-13.04-10.41-14.33-12.19-3.6-4.95-9.52-8.66-13.83-12.97-3.57-3.57-8.88-7.28-12.69-10.55-5.81-4.98-10.07-10.14-16.02-15h0c-2.39-1.95-8.9-7.62-11.51-10.26.74-.09,1.63-.14,2.61-.18,4.61-.15,10.95.29,13.13.45,2.85.2,5.66-.04,7.64.02.55.02,1.03.06,1.39.15.09.02.21.08.26.1Z"/>
      </g>
      <g id="Ebene23">
        <path class="cls-4" d="m13.11,140.25c.26-.02.57-.02.93-.06.41-.05.86-.12,1.36-.21,1-.17,2.16-.39,3.36-.66,3.22-.72,6.72-1.69,8.3-2.14,3.57-1.07,9.06-2.31,13.38-3.5,1.53-.42,2.9-.83,4-1.22.6-.21,1.17-.32,1.52-.61.07-.06.08-.11.13-.19.23-.08.36-.33.27-.57-.08-.23-.33-.36-.57-.27-.08-.03-.11-.07-.21-.07-.44-.02-.95.2-1.55.33-1.13.25-2.51.56-4.04.92-4.38,1.04-9.86,2.44-13.45,3.52-1.56.49-5.05,1.38-8.19,2.31-1.18.34-2.3.71-3.26,1.02-.48.16-.91.3-1.29.44-.33.13-.61.26-.85.36-.17.04-.27.21-.24.38.04.17.21.27.38.23Z"/>
        <path class="cls-4" d="m67.42,127.16c.68-.07,1.56-.09,2.54-.23.2-.03.41-.07.62-.12,1.42-.32,2.96-.72,4.28-1.07,1.2-.32,2.22-.63,2.81-.76.32-.05.54-.36.49-.68-.05-.32-.36-.54-.68-.48-.62.07-1.7.21-2.96.46-1.35.27-2.91.62-4.32,1-.21.05-.41.11-.61.18-.94.34-1.72.74-2.35,1.02-.19.05-.3.24-.25.43.05.19.24.3.43.25Z"/>
        <path class="cls-4" d="m24.91,162.48s.03-.02.05-.02c.26-.09.82-.2,1.59-.37,1.24-.28,3-.64,4.94-1.08,1.06-.24,2.17-.51,3.28-.78,1.72-.43,3.43-.85,4.9-1.21,1.33-.33,2.45-.64,3.25-.77.21-.02.37-.21.35-.42-.02-.21-.21-.37-.42-.35-.7,0-1.64.05-2.75.18-.57.07-1.17.16-1.8.26-1.27.21-2.64.46-4.01.75-.89.19-1.79.39-2.65.61-1.96.51-3.77,1.06-5.07,1.5-.95.32-1.63.61-1.95.76-.49.24-.49.64-.45.71.08.25.35.38.6.29.05-.02.1-.04.14-.07Z"/>
        <path class="cls-4" d="m21.05,187.12s.34-.18.92-.25c.1-.01.19.02.3,0,.33-.03.71-.13,1.13-.22,1.71-.38,3.96-.99,5.4-1.34,1.72-.44,3.54-.82,5.4-1.18,4.3-.84,8.8-1.54,12.8-2.39,6.91-1.52,12.93-2.76,18.95-3.93,6.04-1.17,12.08-2.27,19.05-3.41,2.94-.53,7.92-1.46,12.34-2.18,1.95-.31,3.78-.6,5.28-.75.33-.03.58-.32.55-.66s-.32-.58-.65-.55c-2.42.14-5.72.5-8.96.94-3.37.46-6.68,1.01-8.86,1.34-6.99,1.12-13.07,2.18-19.12,3.35-6.04,1.18-12.06,2.48-18.98,4.03-3.96.92-8.45,1.69-12.72,2.63-1.88.41-3.72.87-5.45,1.37-1.43.43-3.67,1.05-5.34,1.6-.4.13-.78.24-1.08.39-.1.05-.16.12-.25.16-.54.24-.92.25-.92.25-.22.06-.35.29-.29.51s.29.35.51.29Z"/>
        <path class="cls-4" d="m98.13,152.59c-.33.09-.37.25-.29.38,0,.11.1.2.33.18.03,0,.06,0,.09,0,.06,0,.19-.03.37-.06,1.06-.19,3.92-.77,4.69-1.07,1.57-.61,3.19-1.1,4.83-1.53,2.48-.65,5.01-1.15,7.46-1.69,7.3-1.57,14.6-3.14,21.91-4.78,4.85-1.09,9.71-2.22,14.56-3.4,2.7-.66,5.41-1.26,8.12-1.83,6.53-1.37,13.1-2.53,19.66-3.8,4.38-.85,8.75-1.76,13.09-2.78,1.51-.35,3.6-.82,5.99-1.39,4.17-1,9.25-2.36,13.94-3.48,6.46-1.54,12.13-2.77,13.35-3.1,4.16-1.07,9.02-2.1,14.03-3.06,2.46-.47,4.96-.91,7.42-1.34,2.53-.45,5.04-.88,7.43-1.31,2.23-.39,4.37-.8,6.37-1.14.33-.05.56-.35.51-.68-.05-.33-.35-.56-.69-.51-1.81.21-3.73.42-5.73.71-2.74.4-5.62.89-8.53,1.44-7.39,1.4-14.99,3.18-21.07,4.93-1.21.33-6.83,1.71-13.3,3.12-4.71,1.03-9.88,2-14.08,2.9-2.41.52-4.5,1.01-6.01,1.35-4.74,1.08-9.51,2.01-14.28,2.94-4.78.93-9.56,1.87-14.33,2.87-4.1.86-8.18,1.78-12.23,2.82-6.04,1.55-12.08,3.02-18.13,4.45-6.07,1.43-12.13,2.82-18.19,4.21-2.46.56-5,1.08-7.48,1.77-1.66.46-3.3.99-4.89,1.64-.75.31-3.52.92-4.55,1.15-.18.04-.3.07-.36.08-.01,0-.03,0-.04.01Z"/>
        <path class="cls-4" d="m137.16,163.46h0s0,0,0,0c0-.03.01-.05.01-.08v.07s-.01,0-.01.02h0s0,.02,0,.03c.02.03.02,0,.02-.04.07-.03.26-.03.41-.07,1.06-.31,3.39-.72,6.15-1.18,1-.17,2.05-.36,3.11-.56,2.55-.49,5.16-1,7.26-1.4.2-.04.39-.06.57-.12.5-.14.9-.34,1.31-.5.24-.03.42-.26.38-.5-.03-.25-.26-.42-.51-.38-.45-.04-.91-.11-1.45-.1-.3,0-.62.06-.94.1-1.95.24-4.26.6-6.54,1.03-.94.18-1.88.38-2.78.59-.47.11-.93.21-1.38.33-2.46.66-4.51,1.31-5.45,1.83-.6.33-.81.68-.77.86,0,.17.16.31.33.29.13,0,.24-.09.28-.21Z"/>
        <path class="cls-4" d="m185.73,152.45c1.65-.53,3.37-1,5.13-1.45,2.55-.66,5.18-1.26,7.79-1.74,3.17-.58,6.31-.93,9.21-1.18,1.38-.12,2.7-.25,3.95-.29.37,0,.67-.3.67-.67s-.3-.67-.67-.67c-1.29-.04-2.66-.06-4.08.04-2.96.2-6.14.76-9.35,1.45-2.63.56-5.28,1.23-7.83,2.03-1.75.55-3.45,1.17-5.08,1.8-.19.07-.29.27-.22.46.07.19.27.29.46.22Z"/>
        <path class="cls-4" d="m254.97,141.48c.18-.01.36-.03.54-.04.07,0,.14-.02.22-.01.09.01.14.06.23.07.59.08,1.18-.03,1.75-.09.93-.08,1.83-.23,2.71-.39,2.76-.5,5.29-1.25,7.92-1.98,2.12-.61,4.13-1.27,5.96-1.91,2.46-.86,4.59-1.64,6.14-2.24.73-.28,1.33-.51,1.77-.68.26-.1.44-.23.56-.24.44,0,.8-.36.8-.8s-.36-.8-.8-.8c-.24-.03-.63,0-1.17.12-.55.12-1.27.37-2.13.68-2.73.99-6.92,2.78-11.62,4.27-2.55.85-5,1.71-7.69,2.36-.84.21-1.71.38-2.6.55-.55.11-1.13.13-1.68.32-.08.03-.12.09-.21.11-.07.02-.14.02-.21.02-.18.02-.35.03-.53.04-.17.01-.3.16-.29.33s.16.3.33.29Z"/>
        <path class="cls-4" d="m283.38,111.05l7.5-.88c.37-.04,2.27-.21,4.32-.56.87-.15,1.8-.25,2.59-.54.1-.04.18-.09.27-.14.49-.13.78-.64.64-1.13-.13-.49-.64-.78-1.13-.64l-6.91,1.5c-.85.15-1.58.28-2.25.43-1.82.4-3.16.8-5.15,1.23-.21.03-.35.23-.31.43.03.21.23.35.43.31Z"/>
        <path class="cls-4" d="m227.82,72.35s0,.02-.02.02h0s.02-.02.02-.02h0s-.01,0-.02.02h0c-.05.02-.17,0-.25.03-.09.03-.19.08-.31.13-1.36.6-4.37,1.73-7.67,2.46l-14.24,3.4c-.17.03-.28.19-.25.36.03.17.19.28.36.25,1.38-.2,2.85-.42,4.35-.68,3.34-.58,6.85-1.28,10.07-1.82,3.49-.6,6.7-1.58,8.14-2.2.16-.07.3-.12.41-.19.25-.16.41-.29.49-.38.55-.67.38-1.15.12-1.33-.08-.05-.14-.16-.25-.19-.32-.16-.7-.1-.95.13Zm-.28.62c-.04.17.01.31.12.45-.08-.14-.12-.29-.12-.45Z"/>
        <path class="cls-4" d="m243.27,70.31c1.43-.36,2.99-.74,4.58-1.18,3.6-.97,7.41-2.1,10.61-3.03,3.97-1.19,7.08-2.03,10.06-2.65,3.25-.68,6.35-1.1,10.27-1.42,3.25-.27,9.71-.65,15.14-1.24.57-.06,1.13-.15,1.67-.23.36-.03.63-.34.6-.7-.03-.36-.34-.63-.7-.6-.55.01-1.12,0-1.69.04-5.46.28-11.89.99-15.14,1.26-3.99.34-7.15.78-10.45,1.49-3.01.66-6.14,1.55-10.14,2.81l-14.99,4.85c-.17.05-.26.22-.22.38.05.17.22.26.39.21Z"/>
        <path class="cls-4" d="m302.84,107.15c.75,0,1.47.05,2.2.02,1.7-.08,3.34-.32,5.03-.39.42-.03.74-.39.71-.81-.03-.42-.39-.74-.81-.71-1.47.12-2.92.24-4.37.49-.38.07-.76.14-1.15.23-.57.14-1.12.32-1.7.5-.18.02-.31.19-.29.38.02.19.2.31.38.29Z"/>
      </g>
    </g>
  </g>
</svg>