<?xml version="1.0" encoding="UTF-8"?>
<svg id="Ebene_2" data-name="Ebene 2" xmlns="http://www.w3.org/2000/svg" viewBox="0 0 336.43 223.76">
  <defs>
    <style>
      .cls-1 {
        fill: #a39359;
      }

      .cls-1, .cls-2, .cls-3, .cls-4 {
        fill-rule: evenodd;
      }

      .cls-2 {
        fill: #020000;
      }

      .cls-3 {
        fill: #e1ce8d;
      }
    </style>
  </defs>
  <g id="Ebene_1-2" data-name="Ebene 1">
    <g id="Ebene11">
      <path class="cls-2" d="m194.45,13.84c-.19-.49-2.85-7.47-2.25-7.57,3.09-.5,6.25-1.18,8.59-1.59,6.34-1.1,9.84-1.79,14.45-2.65,2.85-.53,5.87-1.04,6.02-.87,3.23,3.38,8.42,8.06,12.64,10.4,26.87,14.89,48.18,27.57,74.56,39.43,6.17,2.77,11.41,4.69,18.15,8.06,2.11,1.06,8.62,4.07,8.67,4.34.46,2.51-9.8,15.86-12.43,19.11-2.38,2.95-7.08,10.18-9.98,15.1-3.87,6.57-24.13,40.41-36.83,62.93-2.5,4.45-6.77,12-8.47,16.72-1.14,3.17-3.27,6.67-4.34,9.78-.22.64-6.09,1.81-8.6,2.22-3.7.61-8.11,1.43-11.63,1.09-.37-.04-1.11-3.94-1.67-6.11-1.69-6.54-4.04-16.73-4.46-19-.1-.57-.79-4.2-.79-4.2,0,0-11.37,3.66-20.61,6.8-16.69,5.67-30.78,11.86-47.57,17.27-22.24,7.18-30.24,9.21-54.05,18.06-7.67,2.85-26.16,10.24-34.92,14.77-2.67,1.38-9.22,3.49-12.09,4.68-.55.23-11.29-2.61-19.3-4.89-4.03-1.15-4.47-1.21-6.14-4.27-1.52-2.78-5.36-9.94-9.39-20.58-1.73-4.58-3.39-10.72-8.22-23.35-1.89-4.95-2.81-7.34-8.78-20.6-2.63-5.84-6.49-18.07-13.91-26.48-.12-.14,12.85-2.35,33.2-10.91,33.16-13.95,49.8-21.58,59.23-25.59,15.47-6.58,40.27-16.14,54.13-21.31,19.49-7.27,35.09-13.57,56.4-21.54.16-.06-6.11-20.01-9.65-29.26Z"/>
      <path class="cls-4" d="m202.76,42.4c-20.82,7.8-36.25,14.03-55.45,21.19-13.87,5.17-38.69,14.74-54.18,21.32-9.43,4.01-26.07,11.64-59.23,25.59-18.22,7.67-30.49,10.21-32.68,10.75-.67.16-.94.47-.98.52-.17.22-.22.44-.23.63-.01.28.07.55.28.8,7.34,8.32,11.13,20.42,13.73,26.2,5.95,13.22,6.87,15.6,8.76,20.54,4.83,12.63,6.49,18.77,8.22,23.35,4.05,10.71,7.92,17.92,9.45,20.72.76,1.38,1.31,2.2,1.96,2.79.97.88,2.19,1.26,4.86,2.02,6.44,1.83,14.63,4.03,17.93,4.71.77.16,1.31.23,1.55.24.27,0,.45-.05.56-.1,2.89-1.2,9.49-3.33,12.17-4.72,8.73-4.52,27.16-11.88,34.8-14.72,23.79-8.84,31.78-10.87,54-18.04,16.79-5.42,30.89-11.61,47.59-17.28,7.41-2.52,16.19-5.37,19.37-6.4.21,1.11.49,2.59.55,2.93.41,2.27,2.77,12.52,4.47,19.08.46,1.77,1.04,4.67,1.44,5.78.17.48.4.77.54.89.22.19.45.27.67.29,3.6.36,8.13-.47,11.92-1.09,2.07-.34,6.33-1.18,8.08-1.84.44-.17.77-.35.95-.49.26-.21.39-.44.46-.63,1.07-3.11,3.19-6.59,4.33-9.76,1.68-4.67,5.9-12.14,8.39-16.55,12.69-22.52,32.95-56.35,36.82-62.91,2.87-4.87,7.52-12.04,9.88-14.97,1.85-2.29,7.48-9.58,10.53-14.62.97-1.6,1.68-2.98,1.98-3.94.19-.61.22-1.11.15-1.46-.02-.12-.15-.56-.71-.91-1.12-.71-6.65-3.27-8.56-4.23-6.76-3.38-12.02-5.3-18.2-8.08-26.35-11.85-47.64-24.52-74.47-39.39-4.14-2.29-9.22-6.88-12.37-10.19-.12-.12-.39-.35-.89-.38-.66-.04-3.48.42-6.16.92-4.6.86-8.09,1.55-14.43,2.65-2.34.4-5.49,1.08-8.58,1.59-.42.07-1.03.38-1.03,1.33,0,.42.2,1.31.52,2.37.66,2.14,1.77,5.07,1.89,5.38,3.05,8,8.15,24,9.36,28.15ZM220.78,2.3c3.31,3.41,8.4,7.94,12.57,10.25,26.89,14.91,48.23,27.6,74.64,39.47,6.16,2.77,11.39,4.68,18.12,8.04,1.71.86,6.36,3.01,7.99,3.91-.04.11-.09.22-.14.35-.32.82-.89,1.89-1.63,3.1-3,4.95-8.53,12.11-10.35,14.37-2.4,2.98-7.15,10.28-10.07,15.24-3.87,6.57-24.14,40.42-36.84,62.95-2.54,4.5-6.83,12.13-8.55,16.89-1.1,3.06-3.11,6.41-4.22,9.43-.91.24-5.89,1.52-7.84,1.84-3.38.56-7.37,1.32-10.68,1.13-.26-1.02-.95-3.82-1.34-5.32-1.68-6.51-4.02-16.66-4.43-18.92-.1-.57-.8-4.21-.8-4.21-.06-.32-.25-.6-.53-.76-.28-.17-.62-.2-.92-.1,0,0-11.39,3.66-20.63,6.8-16.68,5.67-30.77,11.85-47.55,17.26-22.26,7.18-30.27,9.22-54.09,18.07-7.7,2.86-26.26,10.27-35.05,14.83-2.58,1.34-8.83,3.36-11.78,4.55-.19-.03-.6-.09-1-.18-3.27-.68-11.39-2.85-17.77-4.67-2.16-.62-3.19-.82-3.97-1.53-.51-.46-.9-1.13-1.49-2.2-1.51-2.76-5.32-9.87-9.32-20.43-1.73-4.58-3.39-10.72-8.23-23.36-1.9-4.96-2.81-7.36-8.8-20.66-2.52-5.59-6.17-16.94-12.91-25.35,4.2-.99,15.65-3.81,31.61-10.53,33.17-13.95,49.81-21.58,59.24-25.59,15.46-6.57,40.24-16.12,54.09-21.29,19.49-7.27,35.09-13.57,56.4-21.54.24-.09.69-.31.73-.99,0-.07-.02-.4-.18-.95-.94-3.37-6.35-20.42-9.54-28.78-.12-.3-1.2-3.15-1.84-5.23-.1-.32-.19-.68-.26-.98,2.75-.48,5.49-1.05,7.57-1.42,6.35-1.1,9.85-1.8,14.46-2.65,2.01-.38,4.51-.73,5.34-.84Z"/>
      <path class="cls-1" d="m194.45,13.84c-.19-.49-2.85-7.47-2.25-7.57,3.09-.5,9.28,4.68,14.8,7.94,11.91,7.03,17.8,10.12,23.91,13.16,13.82,6.88,28.57,13.97,54.2,26.99,7.97,4.05,14.5,8.16,21.05,11.79,6.44,3.56,7.22,2.88,5.25,6.23-3.48,5.91-6.52,10.96-9.15,14.21-2.38,2.94-5.65,10.73-8.55,15.64-3.87,6.57-9.24,15.48-21.93,38.01-2.51,4.45-13.75,19.5-15.45,24.22-1.14,3.17-10.49,22.53-14,22.19-.36-.04-.4-.24-.96-2.41-1.69-6.54-4.04-16.73-4.46-19-.1-.57-2.36-16.24-2.36-16.24,0,0-15.76,6.21-25,9.35-16.69,5.67-29.93,10.32-46.72,15.74-22.24,7.18-30.42,10.31-54.22,19.16-7.67,2.85-52.45,17.14-62.15,20.5-4.07,1.41-3.34,2.78-5.02-.29-1.52-2.78-5.36-9.94-9.39-20.58-1.73-4.58-3.39-10.72-8.22-23.35-1.89-4.95-2.81-7.34-8.78-20.6-2.63-5.84-6.49-18.07-13.91-26.48-.12-.14,12.85-2.35,33.2-10.91,33.16-13.95,49.8-21.58,59.23-25.59,15.47-6.58,40.27-16.14,54.13-21.31,19.49-7.27,35.09-13.57,56.4-21.54.16-.06-6.11-20.01-9.65-29.26Z"/>
      <path class="cls-2" d="m202.76,42.4c-20.82,7.8-36.25,14.03-55.45,21.19-13.87,5.17-38.69,14.74-54.18,21.32-9.43,4.01-26.07,11.64-59.23,25.59-18.22,7.67-30.49,10.21-32.68,10.75-.67.16-.94.47-.98.52-.17.22-.22.44-.23.63-.01.28.07.55.28.8,7.34,8.32,11.13,20.42,13.73,26.2,5.95,13.22,6.87,15.6,8.76,20.54,4.83,12.63,6.49,18.77,8.22,23.35,4.05,10.71,7.92,17.92,9.45,20.72.45.81.74,1.34,1,1.66.35.45.71.64,1.05.73.37.09.78.06,1.31-.18.53-.25,1.37-.82,3.02-1.39,9.7-3.36,54.5-17.65,62.17-20.51,23.79-8.84,31.96-11.97,54.18-19.14,16.79-5.42,30.04-10.07,46.73-15.74,7.64-2.59,19.72-7.28,23.72-8.85.56,3.87,2.08,14.4,2.17,14.87.41,2.27,2.77,12.52,4.47,19.08.37,1.46.56,2.11.73,2.42.17.31.35.49.54.61.2.13.42.2.69.23.53.05,1.15-.1,1.81-.54,1.02-.66,2.28-2.09,3.59-3.98,4.08-5.85,8.96-16.15,9.78-18.41,1.69-4.68,12.88-19.62,15.37-24.04,12.69-22.51,18.06-31.43,21.93-37.99,2.87-4.87,6.09-12.59,8.45-15.51,2.65-3.28,5.72-8.38,9.24-14.35.73-1.24,1.09-2.06,1.11-2.68.02-.68-.21-1.25-.86-1.82-.81-.71-2.66-1.48-5.93-3.29-6.56-3.63-13.1-7.75-21.09-11.81-25.63-13.03-40.38-20.12-54.21-27-6.09-3.03-11.96-6.11-23.83-13.12-3.89-2.3-8.11-5.54-11.36-7.11-1.64-.79-3.09-1.15-4.19-.97-.42.07-1.03.38-1.03,1.33,0,.42.2,1.31.52,2.37.66,2.14,1.77,5.07,1.89,5.38,3.05,8,8.15,24,9.36,28.15Zm-9.28-34.91c.18.04.36.1.55.17.78.27,1.65.7,2.57,1.23,2.98,1.69,6.52,4.34,9.83,6.3,11.94,7.05,17.85,10.15,23.98,13.2,13.82,6.88,28.56,13.96,54.19,26.99,7.96,4.04,14.47,8.15,21.02,11.76,1.94,1.07,3.37,1.76,4.36,2.29.58.31,1.11.7,1.25.8-.02.07-.06.21-.1.31-.15.34-.38.75-.68,1.26-3.45,5.85-6.46,10.85-9.05,14.07-2.41,2.98-5.72,10.82-8.65,15.78-3.87,6.57-9.24,15.49-21.95,38.03-2.52,4.48-13.82,19.64-15.53,24.39-.79,2.19-5.54,12.2-9.51,17.88-.96,1.38-1.87,2.5-2.65,3.15-.09.08-.19.15-.28.21-.1-.34-.23-.8-.37-1.36-1.68-6.51-4.02-16.66-4.43-18.92-.1-.56-2.36-16.19-2.36-16.19-.05-.34-.25-.64-.55-.82-.3-.18-.66-.2-.98-.08,0,0-15.73,6.2-24.95,9.33-16.68,5.67-29.92,10.32-46.7,15.73-22.26,7.18-30.44,10.33-54.27,19.18-7.67,2.85-52.43,17.13-62.12,20.49-1.3.45-2.14.9-2.73,1.21-.09.05-.19.1-.27.14-.16-.25-.41-.66-.65-1.11-1.51-2.76-5.32-9.87-9.32-20.43-1.73-4.58-3.39-10.72-8.23-23.36-1.9-4.96-2.81-7.36-8.8-20.66-2.52-5.59-6.17-16.94-12.91-25.35,4.2-.99,15.65-3.81,31.61-10.53,33.17-13.95,49.81-21.58,59.24-25.59,15.46-6.57,40.24-16.12,54.09-21.29,19.49-7.27,35.09-13.57,56.4-21.54.24-.09.69-.31.73-.99,0-.07-.02-.4-.18-.95-.94-3.37-6.35-20.42-9.54-28.78-.12-.3-1.2-3.15-1.84-5.23-.07-.23-.14-.48-.2-.71Z"/>
      <g>
        <path class="cls-3" d="m207.36,14.19c-3.51-1.62-14.98-7.41-14.4-7.74,2.73-1.54,14.37-2.95,17.5-3.32,4.69-.56,9.12-2.15,10.1-1.16,1.58,1.59,10.57,7.55,13.49,9.34,8.99,5.52,17.51,11.2,25.97,15.78,14.16,7.67,22,11.87,37.21,18.36,4.1,1.75,18.58,8.6,21.89,10.14,2.24,1.04,9.66,4.49,11.19,5.39.31.18,4.87,2.22,4.43,2.63-.96.89-9.52,2.6-14.42,3.49-1.37.25-7.76,2.07-7.82,2.03-2.6-1.57-5.81-2.43-8.78-4.35-7.19-4.66-16.46-9.26-25.44-14.03-2.37-1.26-4.81-2.64-7.18-3.83-3.69-1.85-14.61-6.58-16.18-7.88-4.27-3.51-10.61-5.56-15.48-8.41-4.04-2.37-9.81-4.55-14.04-6.62-6.48-3.17-11.46-6.77-18.05-9.82Z"/>
        <path class="cls-4" d="m206.89,15.22c6.58,3.04,11.56,6.64,18.03,9.81,4.21,2.06,9.94,4.22,13.96,6.58,4.82,2.82,11.11,4.83,15.33,8.31,1.59,1.31,12.65,6.14,16.39,8.02,2.36,1.19,4.79,2.56,7.16,3.82,8.95,4.76,18.19,9.33,25.35,13.98,2.97,1.93,6.2,2.79,8.81,4.37.03.02.42.25,1.06.09,1.08-.27,6.33-1.75,7.55-1.98,3.46-.63,8.72-1.66,11.9-2.53,1.61-.44,2.74-.92,3.08-1.24.39-.36.71-1.32-.34-2.14-.98-.76-4.04-2.15-4.29-2.3-1.54-.91-9.02-4.4-11.28-5.44-3.32-1.54-17.82-8.4-21.92-10.15-15.17-6.47-22.99-10.66-37.12-18.31-8.44-4.57-16.95-10.24-25.92-15.75-2.87-1.76-11.72-7.61-13.28-9.18-.45-.46-1.35-.73-2.63-.62-1.94.16-5.11,1.07-8.41,1.46-2.21.26-8.62,1.04-13.2,2.02-2.1.44-3.83.95-4.71,1.45-.4.23-1.13,1.19,0,2.12,1.49,1.21,11.26,6.15,14.47,7.63Zm12.93-12.4c1.76,1.7,10.71,7.65,13.64,9.45,9,5.53,17.55,11.22,26.03,15.81,14.19,7.69,22.06,11.9,37.3,18.4,4.09,1.75,18.55,8.59,21.86,10.13,2.22,1.03,9.57,4.45,11.09,5.34.16.1,1.57.73,2.74,1.35-.21.07-.43.13-.65.19-3.13.86-8.31,1.87-11.71,2.49-1.17.21-5.94,1.55-7.43,1.94-2.51-1.42-5.54-2.28-8.34-4.1-7.21-4.68-16.51-9.29-25.52-14.08-2.38-1.27-4.83-2.65-7.21-3.84-3.63-1.82-14.42-6.47-15.97-7.74-4.31-3.55-10.71-5.63-15.62-8.51-4.06-2.38-9.86-4.57-14.11-6.66-6.49-3.18-11.48-6.78-18.08-9.83-2.54-1.17-9.34-4.56-12.51-6.39.66-.18,1.43-.36,2.26-.54,4.52-.96,10.83-1.72,13-1.98,2.83-.34,5.56-1.05,7.51-1.35.56-.09,1.04-.14,1.43-.12.1,0,.24.03.29.04Z"/>
      </g>
      <g id="Ebene21">
        <path class="cls-4" d="m28.51,182.94c.26-.05.55-.09.9-.17.39-.09.83-.21,1.31-.34.97-.27,2.09-.58,3.25-.94,3.1-.96,6.48-2.14,8.03-2.6,3.54-1.09,8.84-2.94,13.03-4.48,1.46-.54,2.77-1.04,3.84-1.46.57-.22,1.11-.32,1.46-.59.08-.06.08-.1.13-.17.24-.06.38-.31.31-.55-.06-.24-.31-.38-.55-.32-.09-.03-.11-.07-.21-.08-.45-.04-.98.19-1.59.34-1.12.29-2.48.7-3.97,1.19-4.22,1.39-9.44,3.38-12.97,4.47-1.55.5-4.97,1.62-8.03,2.8-1.14.44-2.21.89-3.14,1.3-.46.2-.88.39-1.24.57-.32.16-.57.32-.8.45-.16.06-.24.24-.18.4.06.16.24.25.4.18Z"/>
        <path class="cls-4" d="m80.65,164.08c.68-.12,1.54-.22,2.51-.45.2-.05.4-.11.6-.18,1.37-.46,2.86-1.02,4.12-1.54,1.17-.48,2.15-.95,2.7-1.23.3-.13.44-.48.31-.78s-.48-.44-.78-.31c-.57.21-1.58.51-2.75.9-1.29.43-2.78.95-4.13,1.46-.2.08-.39.15-.58.24-.89.43-1.63.89-2.23,1.21-.18.06-.28.26-.22.45.06.18.26.28.45.22Z"/>
        <path class="cls-4" d="m28.25,159.86s-.07,0-.1,0c-.25.04-.43.29-.38.54.01.11.14.42.59.4.12,0,.37-.05.74-.13.48-.1,1.16-.25,1.98-.48,1.26-.35,2.84-.83,4.51-1.41.83-.29,1.68-.61,2.53-.94,1.3-.51,2.57-1.05,3.73-1.57.58-.26,1.13-.51,1.64-.76.99-.49,1.8-.96,2.39-1.33.19-.1.26-.33.16-.52-.1-.19-.33-.26-.52-.17-.75.32-1.85.67-3.14,1.12-1.42.5-3.07,1.08-4.73,1.67-1.06.38-2.13.76-3.14,1.15-1.84.7-3.5,1.37-4.68,1.83-.73.28-1.26.5-1.52.58-.02,0-.06,0-.07.02Zm.26.09c.06.04.11.1.14.17-.03-.06-.07-.13-.14-.17Z"/>
        <path class="cls-4" d="m14.11,144.63s.32-.2.9-.3c.1-.02.19,0,.3,0,.33-.05.7-.16,1.1-.28,1.67-.47,3.87-1.18,5.28-1.62,1.7-.54,3.47-1.17,5.27-1.85,4.06-1.54,8.23-3.33,12.02-4.74,6.6-2.5,12.32-4.7,17.99-7.02,5.68-2.31,11.31-4.73,17.77-7.58,2.01-.91,5.07-2.25,8.14-3.69,2.95-1.38,5.9-2.86,8.02-4.04.3-.16.41-.52.26-.82-.16-.3-.52-.41-.82-.26-1.35.67-3.04,1.42-4.85,2.21-4.09,1.79-8.76,3.71-11.51,4.87-6.45,2.82-12.09,5.19-17.75,7.49-5.66,2.31-11.35,4.56-17.92,7.08-3.77,1.48-7.92,3.33-11.95,4.98-1.75.72-3.47,1.4-5.13,1.99-1.39.5-3.57,1.24-5.19,1.87-.39.15-.76.28-1.05.44-.1.05-.16.13-.24.17-.52.26-.9.3-.9.3-.22.07-.34.31-.27.53.07.22.31.34.53.26Z"/>
        <path class="cls-4" d="m94.86,128.24c-.21.11-.24.24-.18.34,0,.15.12.26.44.16.02,0,.03,0,.04-.01.05-.02.17-.06.34-.13.98-.37,3.63-1.38,4.4-1.54,1.65-.36,3.29-.83,4.92-1.37,2.42-.8,4.81-1.75,7.15-2.63,5.79-2.16,11.58-4.32,17.39-6.45,5.8-2.13,11.61-4.22,17.46-6.25,3.92-1.37,7.82-2.83,11.7-4.36,4.51-1.77,9-3.58,13.49-5.41,4.48-1.82,8.96-3.65,13.48-5.35,1.44-.54,3.44-1.28,5.72-2.17,3.97-1.55,8.79-3.57,13.26-5.3,6.14-2.37,11.56-4.31,12.74-4.7,5.98-1.91,13.28-4.57,20.21-7.43,2.72-1.12,5.39-2.27,7.9-3.42,1.82-.84,3.55-1.7,5.17-2.5.3-.14.44-.5.3-.8-.14-.3-.5-.44-.8-.3-1.85.8-3.86,1.61-5.94,2.49-2.23.94-4.55,1.94-6.91,2.94-2.29.97-4.61,1.97-6.91,2.92-4.7,1.94-9.3,3.75-13.33,5.16-1.18.4-6.56,2.48-12.76,4.74-4.5,1.64-9.46,3.29-13.47,4.74-2.31.83-4.29,1.59-5.74,2.12-4.15,1.54-8.29,3.16-12.4,4.84-6.15,2.51-12.26,5.12-18.43,7.55-2.57,1.01-5.15,2-7.74,2.93-4.66,1.69-9.3,3.42-13.93,5.17-6.95,2.63-13.87,5.33-20.78,8.02-2.33.9-4.7,1.85-7.1,2.68-1.6.55-3.2,1.05-4.82,1.43-.79.19-3.48,1.27-4.47,1.69-.17.07-.29.13-.34.15-.03.01-.05.03-.08.05Z"/>
        <path class="cls-4" d="m123.35,100.2c-.09-.05-.21-.06-.31,0-.15.08-.21.27-.13.42.05.15.43.34,1.13.27,1.07-.11,3.11-.69,5.51-1.49.43-.14.88-.31,1.33-.48.86-.32,1.75-.66,2.63-1.02,2.13-.88,4.25-1.84,6-2.68.29-.14.58-.26.84-.42.45-.28.8-.59,1.16-.86.23-.1.32-.37.22-.6-.1-.23-.37-.32-.6-.22-.47.11-.98.18-1.54.36-.69.22-1.4.55-2.16.86-1.62.66-3.43,1.38-5.18,2.12-1.19.49-2.35.99-3.43,1.47-2.29,1.01-4.19,1.82-5.1,2.13-.17.06-.36.06-.36.14h0Z"/>
        <path class="cls-4" d="m169.84,83.46c1.69-.39,3.43-.82,5.19-1.34,2.54-.75,5.1-1.65,7.6-2.61,3.03-1.17,5.98-2.42,8.58-3.82,1.24-.67,2.38-1.4,3.45-2.11.31-.19.41-.61.22-.92s-.61-.41-.92-.22c-1.09.62-2.27,1.21-3.49,1.84-2.58,1.34-5.4,2.74-8.34,3.98-2.44,1.03-4.95,1.98-7.42,2.84-1.71.6-3.39,1.17-5.04,1.66-.19.05-.31.25-.26.44.05.19.25.31.44.26Z"/>
        <path class="cls-4" d="m233.85,54.98c.16-.09.31-.17.47-.25.06-.03.12-.07.19-.09.08-.02.15,0,.23-.02.56-.14,1.06-.43,1.58-.63.84-.34,1.66-.66,2.47-.95,2.6-.93,5.08-1.59,7.66-2.3,4.69-1.38,9.08-2.26,11.85-2.97.87-.22,1.59-.42,2.11-.63.49-.19.83-.38,1.01-.52.37-.23.49-.72.26-1.1s-.72-.49-1.1-.26c-.12.05-.34.05-.62.12-.46.1-1.08.25-1.83.43-1.6.38-3.76.93-6.24,1.6-1.84.49-3.85,1.07-5.92,1.73-2.56.86-5.05,1.64-7.62,2.74-.81.35-1.64.71-2.46,1.14-.5.27-1.06.48-1.51.87-.07.05-.09.12-.15.18-.05.05-.12.07-.19.11-.16.09-.32.17-.48.25-.15.08-.21.27-.13.42.08.15.27.21.42.13Z"/>
        <path class="cls-4" d="m271.79,62.48c1.9-.71,3.23-1.11,4.97-1.77.64-.24,1.32-.53,2.11-.86l6.59-2.52c.48-.16.75-.68.58-1.17-.16-.48-.68-.74-1.17-.58-.1.01-.2.01-.3.03-.81.19-1.63.61-2.44.96-1.89.83-3.57,1.71-3.91,1.88l-6.75,3.33c-.19.09-.28.31-.19.5.09.19.31.28.5.19Z"/>
        <path class="cls-4" d="m241.81,119.45h.01s.03.03.02.01h0s0-.01,0-.01h-.01s0,0,0,0c0,0,.02,0,.02,0,.3.03.61-.09.79-.36.09-.08.09-.2.13-.28.11-.22-.01-.41-.07-.62-.05-.16-.28-.36-.8-.49-.11-.03-.3-.04-.59-.03-.13,0-.27.04-.44.07-1.5.31-4.65,1.28-7.86,2.67-2.97,1.3-6.28,2.64-9.37,3.99-1.39.61-2.73,1.22-3.99,1.81-.16.07-.24.25-.17.41.07.16.25.24.41.17l13.7-4.94c3.14-1.19,6.22-1.93,7.66-2.21.12-.02.23-.04.33-.06.09-.02.18-.11.23-.13Zm-.47-.24s.07.06.11.09c.03.02.06.04.09.06-.09-.03-.15-.09-.2-.15Zm-.25-.61c-.02.14,0,.26.08.36-.05-.11-.08-.24-.08-.36Z"/>
        <path class="cls-4" d="m255.96,113.3l14.98-4.29c3.99-1.18,7.07-2.17,9.94-3.27,3.11-1.2,5.98-2.54,9.53-4.37,2.89-1.51,8.7-4.34,13.46-7.02.5-.28.98-.59,1.45-.87.32-.17.44-.57.27-.88-.17-.32-.56-.44-.88-.27-.5.23-1.02.45-1.54.7-4.9,2.41-10.56,5.54-13.44,7.05-3.48,1.83-6.3,3.15-9.36,4.35-2.83,1.12-5.86,2.14-9.79,3.36-3.14,1-6.89,2.18-10.39,3.37-1.55.53-3.04,1.07-4.41,1.56-.16.05-.26.23-.2.39.05.17.23.25.39.2Z"/>
        <path class="cls-4" d="m290.09,55.05c.58-.17,1.13-.31,1.69-.5.37-.13.73-.27,1.09-.42,1.35-.58,2.64-1.24,3.94-1.93.37-.2.5-.66.3-1.03-.2-.37-.66-.51-1.03-.3-1.47.84-2.98,1.52-4.45,2.37-.63.36-1.2.79-1.83,1.2-.17.08-.24.28-.16.45.08.17.28.24.45.17Z"/>
      </g>
    </g>
  </g>
</svg>