<?xml version="1.0" encoding="UTF-8"?>
<svg id="Ebene_2" data-name="Ebene 2" xmlns="http://www.w3.org/2000/svg" viewBox="0 0 430.87 967.17">
  <defs>
    <style>
      .cls-1, .cls-2, .cls-3, .cls-4, .cls-5, .cls-6 {
        fill-rule: evenodd;
      }

      .cls-1, .cls-7 {
        fill: #a39359;
      }

      .cls-8 {
        fill: rgba(130, 117, 68, .5);
      }

      .cls-2 {
        fill: #020000;
      }

      .cls-3 {
        fill: #e1ce8d;
      }

      .cls-4 {
        fill: #827544;
      }

      .cls-5 {
        fill: #50472d;
      }
    </style>
  </defs>
  <g id="Ebene_1-2" data-name="Ebene 1">
    <g id="Ebene4">
      <g>
        <rect x="187.3" width="41.51" height="967.17"/>
        <rect class="cls-7" x="190.33" y="2.55" width="36.4" height="964.3"/>
        <rect class="cls-8" x="215.24" y="3.62" width="10.37" height="961.94"/>
      </g>
      <path class="cls-4" d="m190.98,203.19c.43,6.07-.36,17.74.35,23.14.6,4.6,27.77-.15,34.15-1.87.75-.2-.19-8.54-.03-10.46.38-4.76.27-13.69.27-13.69,0,0-.03-.18-2.16-.02-10.89.78-21.91,2.91-32.58,2.91Z"/>
      <path class="cls-4" d="m193.56,404.3c-2.13.18-1.65,6.86-1.83,11.34-.11,2.85.03,9.45-.05,12.17-.08,3.08,28.87-6.69,34.05-8.87,1.03-.43.58-13.56.58-20.06,0-2.33-.31-5-.31-7.16,0-.12-8.59,3.33-16.46,6.71-5.75,2.47-10.43,3.09-15.98,5.87Z"/>
      <path class="cls-4" d="m204.14,608.8c-1.84-.13-13.37-.47-13.26.51.28,2.42.28,15.73.69,15.78,4.24.58,9.18,1.91,14.5,3.06,6.32,1.37,15.59,3.2,19.34,3.18.53,0,.27-11.76.27-16.69,0-1.79-5.94-3.02-6.85-2.96-6.28.42-8.46-2.43-14.7-2.88Z"/>
      <path class="cls-4" d="m191.37,845.92c.06,6.19-.27,22.51-.04,22.55,5.23.98,10.38.39,15.86-.61,3.44-.62,18.73-3.78,18.71-5.04-.07-7.46.1-23.51-.57-22.84-1.29,1.29-34.02-1.05-33.95,5.94Z"/>
    </g>
    <g id="Ebene1">
      <path class="cls-2" d="m106.49,39.75c-.05-.6-.76-9.21-1.35-9.06-3.02.81-6.19,1.48-8.49,2.06-6.24,1.6-9.71,2.39-14.27,3.49-2.82.68-5.77,1.46-5.84,1.71-1.41,5.02-4.02,12.28-6.8,16.63-17.67,27.64-31.3,50.49-49.88,74.68-4.35,5.66-8.24,10-12.83,16.54-1.44,2.05-5.99,8.11-5.91,8.43.71,2.88,15.97,12.64,19.8,14.96,3.48,2.1,10.97,7.76,15.79,11.74,6.44,5.32,39.92,32.56,61.49,51.03,4.26,3.66,11.49,9.85,15.14,14.14,2.46,2.89,5.94,5.69,8.3,8.54.49.59,6.32-.73,8.78-1.39,3.62-.97,7.99-2.02,11.02-3.93.32-.2-.76-4.69-1.22-7.25-1.39-7.71-3.82-19.62-4.46-22.22-.16-.65-1.16-4.83-1.16-4.83,0,0,11.94-1.06,21.7-1.76,17.65-1.25,33.18-.81,50.8-2.38,23.35-2.07,31.5-3.4,57.02-4.37,8.22-.32,28.27-.52,38.23.49,3.03.31,9.91-.31,13.04-.29.6,0,9.05-7.72,15.29-13.66,3.13-2.99,3.51-3.24,3.65-7.24.14-3.63.41-12.95-.7-26.06-.48-5.64-1.72-12.92-3-28.51-.5-6.11-.74-9.06-1.26-25.82-.23-7.38-2.2-22.12.75-34.33.05-.2-12.69,3.12-34.94,2.88-36.27-.38-54.75-1.24-65.08-1.4-16.95-.25-43.69.4-58.55.94-20.89.77-37.85.87-60.7,1.68-.17,0-3.41-24.02-4.35-35.44Z"/>
      <path class="cls-6" d="m111.77,74.02c-.73-4.61-3.33-24.35-4.15-34.37-.04-.49-.51-6.21-1.01-8.39-.17-.78-.47-1.26-.65-1.41-.36-.32-.75-.36-1.11-.26-3.02.81-6.17,1.47-8.47,2.06-6.23,1.6-9.7,2.39-14.25,3.49-2.32.55-4.72,1.19-5.63,1.55-.74.29-.99.79-1.04.96-1.38,4.92-3.93,12.05-6.66,16.32-17.65,27.61-31.26,50.43-49.82,74.6-4.36,5.67-8.26,10.02-12.86,16.58-1.31,1.86-5.16,7.02-5.86,8.26-.3.54-.25.96-.22,1.08.09.37.33.84.73,1.36.69.89,1.95,2.04,3.52,3.31,5.01,4.03,13.36,9.34,16.06,10.98,3.45,2.09,10.87,7.71,15.65,11.65,6.44,5.31,39.91,32.54,61.47,51.02,4.23,3.62,11.4,9.75,15.02,14.01,2.45,2.88,5.94,5.68,8.3,8.53.14.17.34.33.65.44.24.08.62.13,1.12.12,1.88-.06,6.14-1.03,8.17-1.57,3.73-1,8.21-2.1,11.32-4.06.18-.11.36-.29.48-.59.07-.17.13-.53.08-1.06-.13-1.35-.9-4.68-1.27-6.76-1.4-7.73-3.84-19.68-4.48-22.29-.1-.42-.55-2.26-.85-3.55,3.35-.29,12.56-1.09,20.37-1.64,17.66-1.25,33.19-.81,50.82-2.37,23.33-2.07,31.47-3.4,56.96-4.37,8.19-.32,28.15-.52,38.07.48,3.06.31,9.99-.3,13.15-.29.13,0,.35-.02.61-.16.23-.11.7-.44,1.33-.95,2.68-2.17,9.12-8.1,14.13-12.87,2.07-1.97,3-2.9,3.49-4.26.32-.9.45-2,.52-3.76.13-3.65.41-13.02-.71-26.2-.48-5.64-1.72-12.92-2.99-28.51-.5-6.1-.73-9.04-1.26-25.76-.23-7.32-2.21-21.92.72-34.03.12-.48,0-.91-.49-1.22-.1-.06-.23-.14-.44-.17-.07-.01-.32-.02-.73.05-2.21.38-14.46,3.03-34.37,2.83-36.27-.38-54.74-1.25-65.08-1.4-16.97-.25-43.73.4-58.61.94-20.6.76-37.36.86-59.73,1.65Zm-7.4-41.96c.26,1.98.95,7.35.99,7.78.85,10.31,3.57,30.85,4.22,34.85.1.59.2.92.23.99.31.64.84.65,1.06.64,22.86-.82,39.81-.91,60.71-1.68,14.84-.55,41.55-1.19,58.49-.94,10.33.16,28.81,1.02,65.09,1.4,17.65.18,29.35-1.85,33.49-2.62-2.44,11.98-.64,25.86-.42,32.98.52,16.79.76,19.75,1.26,25.87,1.27,15.6,2.51,22.88,2.99,28.52,1.11,13.04.84,22.31.7,25.92-.05,1.44-.12,2.35-.38,3.08-.39,1.1-1.24,1.78-2.92,3.39-5.57,5.31-12.9,12.04-14.75,13.33l-.03.02c-3.21.02-9.73.6-12.66.3-10-1.02-30.14-.81-38.39-.49-25.54.98-33.7,2.31-57.08,4.38-17.62,1.56-33.14,1.13-50.78,2.38-9.77.69-21.72,1.76-21.72,1.76-.33.03-.63.2-.82.47s-.26.61-.18.92c0,0,1,4.18,1.16,4.84.64,2.59,3.07,14.46,4.45,22.15.33,1.83.97,5.27,1.18,6.42-2.9,1.65-6.85,2.58-10.15,3.47-1.52.4-4.35,1.07-6.36,1.36-.54.08-1.2.11-1.5.12-2.36-2.76-5.7-5.47-8.08-8.27-3.68-4.33-10.97-10.57-15.27-14.26-21.58-18.48-55.07-45.73-61.51-51.04-4.86-4.02-12.41-9.73-15.92-11.85-2.66-1.61-10.88-6.83-15.81-10.81-1.22-.98-2.23-1.88-2.89-2.62-.17-.2-.33-.37-.44-.52.98-1.56,4.39-6.1,5.58-7.81,4.59-6.53,8.47-10.86,12.81-16.51,18.6-24.22,32.25-47.09,49.93-74.76,2.74-4.28,5.33-11.35,6.79-16.42.81-.24,3.2-.94,5.17-1.42,4.56-1.1,8.04-1.89,14.28-3.49,2.04-.52,4.74-1.1,7.43-1.79Z"/>
      <g>
        <path class="cls-5" d="m93.57,132.21c-.17,0-91.27,21.27-91.19,21.58.69,2.88,15.83,12.75,19.63,15.09,3.45,2.13,10.88,7.84,15.66,11.85,6.39,5.36,39.58,32.83,60.96,51.45,4.22,3.69,11.39,9.92,15.01,14.24,2.43,2.9,5.89,5.73,8.23,8.6.48.59,6.29-.69,8.73-1.33,3.61-.95,7.95-1.97,10.97-3.86.32-.2-.74-4.7-1.19-7.26-1.36-7.72-3.73-19.65-4.36-22.25-.16-.65-12.54-33.58-12.54-33.58,0,0,63.56-7.07,81.09-8.51,23.22-1.92,33.34-6.79,58.71-7.61,8.17-.26,26.29-1.55,36.19-.48,3.01.33-2.9-40.34-25.03-40.72-36.06-.62-41.84,5.05-52.11,4.83-16.86-.37-106.02-2.71-128.75-2.04Z"/>
        <path class="cls-6" d="m93.54,131.08c-.13,0-58.63,13.63-81.98,19.25-5.29,1.27-8.79,2.14-9.42,2.35-1.01.33-.87,1.29-.85,1.38.09.37.32.84.72,1.36.68.89,1.93,2.06,3.49,3.34,4.97,4.07,13.24,9.44,15.93,11.09,3.42,2.11,10.78,7.78,15.52,11.76,6.38,5.36,39.57,32.82,60.94,51.44,4.19,3.65,11.3,9.83,14.88,14.11,2.43,2.9,5.88,5.72,8.21,8.58.14.17.34.33.65.44.23.08.62.14,1.11.13,1.87-.05,6.11-.99,8.13-1.52,3.71-.97,8.18-2.05,11.28-3.99.18-.11.37-.29.48-.59.06-.17.13-.53.09-1.05-.13-1.35-.87-4.69-1.24-6.77-1.36-7.74-3.75-19.71-4.37-22.32-.14-.57-9.73-26.11-12.07-32.35,9.55-1.05,63.66-7.03,79.61-8.35,23.2-1.92,33.31-6.79,58.66-7.6,8.14-.26,26.17-1.56,36.04-.49.6.06,1.22-.18,1.6-1.03.31-.69.46-2.19.33-4.24-.41-6.29-3.28-18.39-9.4-27.14-4.21-6.01-9.95-10.44-17.41-10.56-21.77-.38-32.57,1.53-39.96,3.07-4.8.99-8.12,1.84-12.14,1.76-16.86-.36-106.07-2.7-128.81-2.03Zm205.38,37.87c-10.07-.96-27.66.28-35.69.54-25.4.81-35.53,5.68-58.77,7.6-17.53,1.45-81.12,8.51-81.12,8.51-.35.04-.66.24-.84.53-.18.3-.22.66-.1.99,0,0,12.34,32.8,12.5,33.45.62,2.59,2.99,14.49,4.35,22.19.32,1.83.95,5.28,1.16,6.43-2.89,1.63-6.82,2.53-10.11,3.4-1.51.39-4.32,1.04-6.32,1.32-.53.07-1.19.1-1.48.11-2.33-2.77-5.64-5.51-8-8.32-3.64-4.35-10.87-10.65-15.13-14.36-21.39-18.63-54.59-46.11-60.97-51.47-4.82-4.04-12.31-9.8-15.79-11.95-2.64-1.63-10.79-6.91-15.68-10.91-1.15-.94-2.11-1.81-2.77-2.53.31-.08.66-.17,1.03-.26,14.66-3.67,88.27-20.87,88.42-20.87,22.72-.66,111.85,1.67,128.7,2.04,3.17.07,5.92-.4,9.22-1.09,7.45-1.54,17.79-4.18,42.89-3.74,6.7.12,11.81,4.19,15.59,9.6,5.87,8.38,8.61,19.98,9.01,26,.07,1.09-.03,2.24-.1,2.81Z"/>
      </g>
      <path class="cls-1" d="m106.49,39.75c-.05-.6-.76-9.21-1.35-9.06-3.02.81-6.31,9.05-9.85,14.94-7.64,12.71-11.59,18.58-15.76,24.49-9.44,13.39-19.62,27.4-37.01,52.5-5.41,7.81-9.48,15.05-13.79,21.78-4.24,6.62-5.25,6.23-1.97,8.94,5.79,4.78,10.81,8.84,14.64,11.16,3.48,2.1,9.92,8.97,14.74,12.95,6.44,5.32,15.29,12.48,36.86,30.96,4.26,3.66,21.17,14.79,24.82,19.08,2.46,2.89,19.58,19.45,22.6,17.55.31-.2.26-.43-.2-2.99-1.39-7.71-3.82-19.62-4.46-22.22-.16-.65-5.12-18.36-5.12-18.36,0,0,17.05-.27,26.82-.96,17.65-1.25,31.72-2.08,49.34-3.64,23.35-2.07,32.15-2.3,57.67-3.28,8.22-.32,55.16-4.65,65.44-5.31,4.32-.28,4.27,1.5,4.42-2.5.14-3.63.41-12.95-.7-26.06-.48-5.64-1.72-12.92-3-28.51-.5-6.11-.74-9.06-1.26-25.82-.23-7.38-2.2-22.12.75-34.33.05-.2-12.69,3.12-34.94,2.88-36.27-.38-54.75-1.24-65.08-1.4-16.95-.25-43.69.4-58.55.94-20.89.77-37.85.87-60.7,1.68-.17,0-3.41-24.02-4.35-35.44Z"/>
      <path class="cls-2" d="m111.77,74.02c-.73-4.61-3.33-24.35-4.15-34.37-.04-.49-.51-6.21-1.01-8.39-.17-.78-.47-1.26-.65-1.41-.36-.32-.75-.36-1.11-.26-1.09.29-2.27,1.32-3.41,2.9-2.24,3.09-4.62,8.4-7.11,12.55-7.62,12.68-11.55,18.53-15.71,24.43-9.44,13.39-19.63,27.4-37.02,52.51-5.41,7.82-9.49,15.07-13.81,21.81-1.8,2.82-3.03,4.39-3.6,5.46-.59,1.12-.63,1.9-.27,2.69.28.63.95,1.31,2.13,2.28,5.84,4.82,10.91,8.91,14.77,11.25,3.45,2.09,9.82,8.91,14.6,12.86,6.44,5.31,15.29,12.47,36.84,30.95,4.24,3.63,21.07,14.69,24.69,18.95,2,2.34,13.53,13.57,19.63,16.98,1.04.59,1.95.95,2.66,1.07.74.12,1.33,0,1.77-.28.24-.15.41-.33.53-.55.1-.18.19-.42.2-.78,0-.39-.11-1.15-.42-2.82-1.4-7.73-3.84-19.68-4.48-22.29-.13-.54-3.56-12.77-4.73-16.98,4.35-.08,17.35-.36,25.41-.93,17.66-1.25,31.73-2.08,49.36-3.64,23.33-2.07,32.12-2.3,57.61-3.28,8.23-.31,55.18-4.66,65.47-5.32,1.75-.11,2.76.13,3.34.16.64.03,1.06-.13,1.37-.41.22-.19.42-.47.54-.89.12-.43.18-1.18.22-2.44.13-3.65.41-13.02-.71-26.2-.48-5.64-1.72-12.92-2.99-28.51-.5-6.1-.73-9.04-1.26-25.76-.23-7.32-2.21-21.92.72-34.03.12-.48,0-.91-.49-1.22-.1-.06-.23-.14-.44-.17-.07-.01-.32-.02-.73.05-2.21.38-14.46,3.03-34.37,2.83-36.27-.38-54.74-1.25-65.08-1.4-16.97-.25-43.73.4-58.61.94-20.6.76-37.36.86-59.73,1.65Zm-7.35-41.57c.29,2.22.9,6.99.93,7.39.85,10.31,3.57,30.85,4.22,34.85.1.59.2.92.23.99.31.64.84.65,1.06.64,22.86-.82,39.81-.91,60.71-1.68,14.84-.55,41.55-1.19,58.49-.94,10.33.16,28.81,1.02,65.09,1.4,17.65.18,29.35-1.85,33.49-2.62-2.44,11.98-.64,25.86-.42,32.98.52,16.79.76,19.75,1.26,25.87,1.27,15.6,2.51,22.88,2.99,28.52,1.11,13.04.84,22.31.7,25.92-.02.61-.07,1.18-.1,1.53-.08,0-.15-.01-.22-.02-.68-.08-1.65-.19-3.04-.1-10.28.66-57.19,4.99-65.41,5.31-25.54.98-34.35,1.21-57.73,3.28-17.62,1.56-31.68,2.4-49.32,3.65-9.74.69-26.75.95-26.75.95-.35,0-.68.18-.89.45-.21.28-.28.64-.18.98,0,0,4.95,17.68,5.11,18.32.64,2.59,3.07,14.46,4.45,22.15.13.72.22,1.32.29,1.74-.09-.02-.18-.04-.25-.07-1.01-.34-2.33-1.14-3.82-2.2-6.14-4.34-14.94-12.96-16.64-14.95-3.67-4.31-20.66-15.53-24.95-19.21-21.57-18.49-30.43-25.65-36.88-30.97-4.86-4.01-11.36-10.93-14.87-13.05-3.79-2.3-8.76-6.33-14.5-11.06-.53-.43-.94-.78-1.23-1.09-.14-.16-.26-.28-.3-.43-.03-.16.06-.31.16-.52.15-.31.37-.65.65-1.07.66-1,1.65-2.36,2.93-4.36,4.31-6.72,8.37-13.95,13.77-21.75,17.38-25.1,27.56-39.11,37.01-52.49,4.18-5.93,8.15-11.82,15.8-24.57,2.12-3.52,4.15-7.9,6.08-11.01.6-.97,1.19-1.81,1.78-2.44.1-.11.2-.21.3-.31Z"/>
      <g>
        <path class="cls-3" d="m94.95,45.77c2.45-3.26,10.25-14.46,9.58-14.56-3.16-.44-14.33,3.14-17.33,4.11-4.5,1.45-9.22,1.69-9.67,3.18-.72,2.39-6.2,12.68-8.04,15.87-5.67,9.82-10.85,19.61-16.46,28.2-9.39,14.37-14.62,22.28-25.48,35.86-2.93,3.66-12.97,17.3-15.29,20.39-1.57,2.09-6.74,9.02-7.72,10.64-.2.33-3.42,4.5-2.83,4.74,1.27.53,9.78-1.39,14.62-2.58,1.35-.33,7.95-1.18,7.99-1.25,1.65-2.82,4.18-5.14,6-8.48,4.42-8.12,10.76-17.07,16.76-26.09,1.59-2.38,3.18-4.92,4.79-7.23,2.51-3.59,10.28-13.42,11.13-15.49,2.29-5.61,7.12-10.57,10.25-15.74,2.6-4.3,6.85-9.14,9.75-13.2,4.45-6.22,7.35-12.24,11.95-18.37Z"/>
        <path class="cls-6" d="m95.86,46.45c2.24-2.98,8.87-12.52,9.68-14.46.54-1.28-.44-1.84-.85-1.9-1.03-.14-2.84.07-4.96.52-4.6.97-10.75,2.94-12.88,3.63-3.16,1.02-6.44,1.45-8.27,2.12-1.22.45-1.92,1.11-2.13,1.8-.71,2.35-6.12,12.49-7.93,15.63-5.66,9.8-10.83,19.58-16.43,28.14-9.37,14.34-14.58,22.23-25.42,35.77-2.93,3.66-12.99,17.33-15.31,20.42-1.58,2.1-6.79,9.1-7.78,10.74-.16.27-2.3,3.08-2.85,4.32-.23.52-.24.94-.19,1.17.1.44.36.73.73.88.2.09.5.16.9.17.57.03,1.44-.04,2.5-.19,3.27-.46,8.51-1.67,11.93-2.51,1.21-.3,6.61-1,7.71-1.19.7-.12.96-.55.98-.59,1.66-2.83,4.19-5.15,6.02-8.51,4.41-8.09,10.73-17.02,16.71-26.01,1.58-2.38,3.17-4.91,4.78-7.2,2.54-3.63,10.39-13.61,11.25-15.7,2.27-5.56,7.07-10.46,10.18-15.59,2.59-4.27,6.81-9.09,9.7-13.13,4.45-6.21,7.34-12.23,11.94-18.35Zm6.91-14.07c-1.9,3.19-6.87,10.25-8.73,12.71-4.61,6.14-7.51,12.17-11.97,18.39-2.92,4.08-7.19,8.95-9.8,13.27-3.16,5.22-8.02,10.23-10.34,15.9-.83,2.04-8.53,11.72-11.01,15.26-1.62,2.31-3.22,4.86-4.81,7.25-6.02,9.05-12.38,18.03-16.81,26.18-1.72,3.16-4.07,5.39-5.71,8-1.59.24-6.42.89-7.56,1.17-3.36.83-8.49,2.01-11.7,2.46-.32.05-.66.08-.97.1.82-1.28,2.01-2.84,2.13-3.04.98-1.61,6.1-8.48,7.66-10.55,2.32-3.08,12.35-16.71,15.27-20.36,10.9-13.61,16.14-21.54,25.55-35.95,5.62-8.6,10.81-18.41,16.49-28.25,1.85-3.21,7.32-13.52,8.12-16.05.04-.03.15-.11.23-.16.33-.18.79-.33,1.31-.48,1.9-.53,4.69-.97,7.41-1.85,2.08-.67,8.13-2.61,12.65-3.57.95-.2,1.83-.36,2.57-.45Z"/>
      </g>
      <g id="Ebene2">
        <path class="cls-6" d="m329.45,117.88c-.26-.04-.56-.1-.91-.14-.4-.05-.86-.08-1.36-.12-1.01-.08-2.18-.16-3.41-.21-3.27-.14-6.87-.18-8.5-.28-3.74-.19-9.4-.24-13.9-.2-1.56.01-2.99.04-4.14.07-.61.01-1.16-.08-1.58.05-.09.03-.11.07-.18.12-.25-.02-.46.16-.49.4-.02.25.16.46.4.49.07.06.08.11.17.15.41.2.99.16,1.62.23,1.16.11,2.6.19,4.18.23,4.48.12,10.11.01,13.83.2,1.65.07,5.28.17,8.57.1,1.23-.03,2.41-.09,3.42-.16.51-.03.96-.07,1.37-.12.36-.05.65-.11.91-.16.17,0,.31-.14.31-.32,0-.17-.15-.31-.32-.31Z"/>
        <path class="cls-6" d="m273.61,118.07c-.68-.12-1.53-.32-2.53-.43-.21-.02-.42-.03-.63-.03-1.46-.03-3.06,0-4.43.06-1.28.06-2.36.18-2.98.26-.33.02-.57.31-.55.63.02.33.31.57.64.55.61-.01,1.67.04,2.91.07,1.37.02,2.96.04,4.41.02.21,0,.42-.01.63-.03.99-.1,1.85-.28,2.53-.38.19,0,.35-.15.36-.35,0-.19-.15-.35-.35-.36Z"/>
        <path class="cls-6" d="m323.32,142.91s.1.03.15.04c.26.02.49-.17.51-.43.02-.11-.02-.4-.41-.53-.12-.04-.38-.09-.76-.14-.49-.07-1.19-.16-2.05-.23-1.31-.1-2.97-.18-4.76-.2-.89-.01-1.8,0-2.72.04-1.4.04-2.8.13-4.07.23-.64.05-1.25.1-1.81.18-1.11.14-2.03.32-2.71.48-.21.03-.35.23-.32.44.03.21.23.35.44.32.81-.06,1.97-.03,3.34-.03,1.52,0,3.28,0,5.05,0,1.14,0,2.28,0,3.37-.02,1.98-.04,3.78-.11,5.05-.13.79-.02,1.36-.04,1.63-.02.02,0,.05.01.06,0Z"/>
        <path class="cls-6" d="m332.97,165.09s-.38.07-.95-.03c-.1-.02-.18-.07-.28-.09-.33-.07-.72-.08-1.14-.12-1.75-.13-4.07-.21-5.56-.28-1.8-.07-3.69-.08-5.62-.03-4.36.1-8.91.43-12.98.48-7.09.14-13.25.32-19.4.62-6.16.3-12.3.73-19.37,1.31-2.2.2-5.54.46-8.93.82-3.25.34-6.54.78-8.92,1.23-.33.05-.56.36-.5.69s.37.56.7.5c1.49-.2,3.34-.37,5.31-.53,4.46-.36,9.52-.64,12.5-.83,7.04-.55,13.17-.93,19.31-1.23,6.13-.3,12.27-.53,19.34-.71,4.08-.13,8.63-.52,13-.74,1.89-.09,3.75-.16,5.52-.14,1.49,0,3.81.05,5.57.02.42,0,.82,0,1.15-.05.11-.02.19-.07.29-.08.58-.07.95.03.95.03.23,0,.42-.18.43-.41s-.17-.42-.4-.43Z"/>
        <path class="cls-6" d="m249.94,151.34c.23-.04.3-.14.28-.25.05-.14-.03-.29-.37-.3-.01,0-.03,0-.04,0-.06,0-.18,0-.36,0-1.05.03-3.89.1-4.69-.03-1.69-.25-3.41-.37-5.14-.42-2.57-.07-5.16.03-7.69.07-6.22.1-12.44.2-18.67.25-6.21.06-12.43.07-18.66,0-4.18-.04-8.37.04-12.55.19-4.87.17-9.73.4-14.6.63-4.86.23-9.71.47-14.57.55-1.55.03-3.69.05-6.16.12-4.29.12-9.54.42-14.36.54-6.62.17-12.41.18-13.66.15-6.33-.24-14.13-.17-21.64.24-2.96.16-5.87.37-8.63.64-2.01.2-3.93.45-5.73.68-.33.03-.58.33-.54.66.03.33.33.57.66.54,2.02-.15,4.19-.27,6.45-.42,2.43-.16,4.96-.34,7.53-.5,2.5-.16,5.03-.33,7.53-.47,5.09-.27,10.06-.43,14.35-.38,1.26.03,7.06-.13,13.7-.18,4.82-.03,10.09.07,14.37.05,2.47-.01,4.61-.06,6.15-.08,4.46-.05,8.92-.21,13.38-.43,6.67-.33,13.33-.78,19.99-1.01,2.77-.09,5.55-.16,8.32-.16,4.99-.01,9.98-.08,14.95-.18,7.49-.15,14.95-.37,22.41-.59,2.51-.07,5.09-.18,7.65-.15,1.7.02,3.39.11,5.06.33.82.11,3.73-.01,4.81-.08.19-.01.32-.02.38-.03.03,0,.06,0,.09-.02Z"/>
        <path class="cls-6" d="m214.52,170.65s.01.07.03.04c0,0,0-.01,0-.02h0s-.01-.02-.02-.02v-.05s-.01-.02-.01-.02c0,.03.02.05.03.08h0s0,0,0,0c.07.11.19.16.32.14.17-.03.28-.19.25-.36,0-.18-.3-.47-.95-.65-1.04-.28-3.19-.43-5.73-.48-.46,0-.94,0-1.42,0-.92.02-1.88.04-2.84.09-2.32.13-4.65.33-6.6.56-.32.04-.64.06-.94.13-.52.12-.96.3-1.38.44-.25.03-.43.25-.4.49.03.25.25.42.49.4.43.05.87.15,1.39.17.19,0,.39-.01.59-.03,2.13-.12,4.79-.24,7.38-.37,1.08-.06,2.14-.12,3.16-.2,2.79-.21,5.16-.37,6.25-.32.15,0,.34-.04.41-.03Z"/>
        <path class="cls-6" d="m164.83,170.86c-1.73-.23-3.53-.42-5.36-.54-2.67-.17-5.4-.19-8.09-.1-3.28.1-6.5.32-9.42.83-1.4.24-2.72.59-3.97.93-.36.09-.58.45-.49.81s.45.58.81.49c1.23-.26,2.54-.45,3.91-.66,2.88-.45,6.01-.86,9.23-1.05,2.65-.16,5.34-.21,7.98-.17,1.82.02,3.6.07,5.33.19.2.02.37-.12.4-.32.02-.2-.13-.38-.33-.4Z"/>
        <path class="cls-6" d="m94.79,176.85c-.18.03-.35.06-.53.09-.07.01-.14.03-.21.03-.09,0-.14-.05-.23-.06-.58-.05-1.15.07-1.71.09-.91.05-1.79.08-2.66.09-2.76,0-5.35-.23-8.03-.45-4.92-.32-9.42-1.06-12.3-1.37-.91-.1-1.67-.16-2.23-.15-.56.01-.95.08-1.17.16-.43.1-.69.54-.58.96s.54.69.96.58c.13-.01.32.06.61.1.47.06,1.11.14,1.88.24,1.65.21,3.91.46,6.5.7,1.93.18,4.05.34,6.25.43,2.73.08,5.36.2,8.16.03.89-.06,1.8-.13,2.73-.27.57-.09,1.17-.11,1.72-.33.08-.03.12-.09.2-.12.07-.03.14-.03.21-.04.18-.03.36-.06.54-.09.17-.03.28-.19.25-.36s-.19-.28-.36-.25Z"/>
        <path class="cls-6" d="m59.97,153.95c-2.03.05-3.43-.01-5.3.03-.69.02-1.43.07-2.29.12l-7.07.19c-.51-.01-.93.39-.95.9-.01.51.39.93.9.95.1.03.19.06.3.07.84.1,1.76-.02,2.64-.09,2.07-.15,3.96-.44,4.33-.49l7.49-.93c.21-.02.36-.2.34-.41-.02-.21-.2-.36-.41-.35Z"/>
        <path class="cls-6" d="m104.78,103.87h0s-.03-.04-.03-.02h0s.03.02.03.02h0s-.03,0-.03-.01c-.3-.16-.68-.13-.96.1-.11.06-.14.17-.2.24-.21.24-.26.75.44,1.26.1.07.28.16.56.25.12.04.27.06.44.09,1.54.25,4.9.44,8.42.19,3.25-.25,6.83-.4,10.21-.64,1.52-.11,3-.24,4.39-.38.17,0,.3-.16.29-.33,0-.17-.16-.3-.33-.29l-14.64.1c-3.38.08-6.57-.3-8.04-.56-.12-.02-.23-.05-.33-.06-.08,0-.19.04-.25.03Zm.42.69c0,.11-.01.22-.05.33.05-.11.08-.21.05-.33Zm-.15-.44l-.02-.03c.05.05.08.11.1.17l-.04-.07s-.02-.04-.04-.07Z"/>
        <path class="cls-6" d="m89.28,104.94l-15.71-1.12c-4.19-.27-7.44-.39-10.52-.31-3.37.09-6.54.42-10.5,1.04-3.22.51-9.64,1.36-15.01,2.39-.57.11-1.11.25-1.65.37-.36.06-.6.4-.54.75.06.36.4.6.75.54.55-.06,1.11-.1,1.68-.18,5.41-.73,11.78-1.9,14.99-2.41,3.89-.63,7-.96,10.31-1.08,3.04-.11,6.26-.04,10.4.18,3.33.14,7.3.33,11.03.41,1.65.04,3.25.04,4.73.05.17,0,.32-.13.32-.3,0-.17-.13-.32-.3-.32Z"/>
        <path class="cls-6" d="m40.15,154.9c-.6-.03-1.18-.07-1.77-.08-.39,0-.78.02-1.17.05-1.47.11-2.91.33-4.36.57-.41.07-.69.47-.61.88.07.41.47.69.88.61,1.66-.34,3.31-.49,4.97-.82.72-.14,1.4-.36,2.13-.54.18-.02.32-.19.3-.37-.02-.18-.19-.32-.37-.3Z"/>
      </g>
    </g>
    <g id="Ebene11">
      <path class="cls-2" d="m237.57,234.57c-.19-.49-2.85-7.47-2.25-7.57,3.09-.5,6.25-1.18,8.59-1.59,6.34-1.1,9.84-1.79,14.45-2.65,2.85-.53,5.87-1.04,6.02-.87,3.23,3.38,8.42,8.06,12.64,10.4,26.87,14.89,48.18,27.57,74.56,39.43,6.17,2.77,11.41,4.69,18.15,8.06,2.11,1.06,8.62,4.07,8.67,4.34.46,2.51-9.8,15.86-12.43,19.11-2.38,2.95-7.08,10.18-9.98,15.1-3.87,6.57-24.13,40.41-36.83,62.93-2.5,4.45-6.77,12-8.47,16.72-1.14,3.17-3.27,6.67-4.34,9.78-.22.64-6.09,1.81-8.6,2.22-3.7.61-8.11,1.43-11.63,1.09-.37-.04-1.11-3.94-1.67-6.11-1.69-6.54-4.04-16.73-4.46-19-.1-.57-.79-4.2-.79-4.2,0,0-11.37,3.66-20.61,6.8-16.69,5.67-30.78,11.86-47.57,17.27-22.24,7.18-30.24,9.21-54.05,18.06-7.67,2.85-26.16,10.24-34.92,14.77-2.67,1.38-9.22,3.49-12.09,4.68-.55.23-11.29-2.61-19.3-4.89-4.03-1.15-4.47-1.21-6.14-4.27-1.52-2.78-5.36-9.94-9.39-20.58-1.73-4.58-3.39-10.72-8.22-23.35-1.89-4.95-2.81-7.34-8.78-20.6-2.63-5.84-6.49-18.07-13.91-26.48-.12-.14,12.85-2.35,33.2-10.91,33.16-13.95,49.8-21.58,59.23-25.59,15.47-6.58,40.27-16.14,54.13-21.31,19.49-7.27,35.09-13.57,56.4-21.54.16-.06-6.11-20.01-9.65-29.26Z"/>
      <path class="cls-6" d="m245.87,263.13c-20.82,7.8-36.25,14.03-55.45,21.19-13.87,5.17-38.69,14.74-54.18,21.32-9.43,4.01-26.07,11.64-59.23,25.59-18.22,7.67-30.49,10.21-32.68,10.75-.67.16-.94.47-.98.52-.17.22-.22.44-.23.63-.01.28.07.55.28.8,7.34,8.32,11.13,20.42,13.73,26.2,5.95,13.22,6.87,15.6,8.76,20.54,4.83,12.63,6.49,18.77,8.22,23.35,4.05,10.71,7.92,17.92,9.45,20.72.76,1.38,1.31,2.2,1.96,2.79.97.88,2.19,1.26,4.86,2.02,6.44,1.83,14.63,4.03,17.93,4.71.77.16,1.31.23,1.55.24.27,0,.45-.05.56-.1,2.89-1.2,9.49-3.33,12.17-4.72,8.73-4.52,27.16-11.88,34.8-14.72,23.79-8.84,31.78-10.87,54-18.04,16.79-5.42,30.89-11.61,47.59-17.28,7.41-2.52,16.19-5.37,19.37-6.4.21,1.11.49,2.59.55,2.93.41,2.27,2.77,12.52,4.47,19.08.46,1.77,1.04,4.67,1.44,5.78.17.48.4.77.54.89.22.19.45.27.67.29,3.6.36,8.13-.47,11.92-1.09,2.07-.34,6.33-1.18,8.08-1.84.44-.17.77-.35.95-.49.26-.21.39-.44.46-.63,1.07-3.11,3.19-6.59,4.33-9.76,1.68-4.67,5.9-12.14,8.39-16.55,12.69-22.52,32.95-56.35,36.82-62.91,2.87-4.87,7.52-12.04,9.88-14.97,1.85-2.29,7.48-9.58,10.53-14.62.97-1.6,1.68-2.98,1.98-3.94.19-.61.22-1.11.15-1.46-.02-.12-.15-.56-.71-.91-1.12-.71-6.65-3.27-8.56-4.23-6.76-3.38-12.02-5.3-18.2-8.08-26.35-11.85-47.64-24.52-74.47-39.39-4.14-2.29-9.22-6.88-12.37-10.19-.12-.12-.39-.35-.89-.38-.66-.04-3.48.42-6.16.92-4.6.86-8.09,1.55-14.43,2.65-2.34.4-5.49,1.08-8.58,1.59-.42.07-1.03.38-1.03,1.33,0,.42.2,1.31.52,2.37.66,2.14,1.77,5.07,1.89,5.38,3.05,8,8.15,24,9.36,28.15Zm18.03-40.09c3.31,3.41,8.4,7.94,12.57,10.25,26.89,14.91,48.23,27.6,74.64,39.47,6.16,2.77,11.39,4.68,18.12,8.04,1.71.86,6.36,3.01,7.99,3.91-.04.11-.09.22-.14.35-.32.82-.89,1.89-1.63,3.1-3,4.95-8.53,12.11-10.35,14.37-2.4,2.98-7.15,10.28-10.07,15.24-3.87,6.57-24.14,40.42-36.84,62.95-2.54,4.5-6.83,12.13-8.55,16.89-1.1,3.06-3.11,6.41-4.22,9.43-.91.24-5.89,1.52-7.84,1.84-3.38.56-7.37,1.32-10.68,1.13-.26-1.02-.95-3.82-1.34-5.32-1.68-6.51-4.02-16.66-4.43-18.92-.1-.57-.8-4.21-.8-4.21-.06-.32-.25-.6-.53-.76-.28-.17-.62-.2-.92-.1,0,0-11.39,3.66-20.63,6.8-16.68,5.67-30.77,11.85-47.55,17.26-22.26,7.18-30.27,9.22-54.09,18.07-7.7,2.86-26.26,10.27-35.05,14.83-2.58,1.34-8.83,3.36-11.78,4.55-.19-.03-.6-.09-1-.18-3.27-.68-11.39-2.85-17.77-4.67-2.16-.62-3.19-.82-3.97-1.53-.51-.46-.9-1.13-1.49-2.2-1.51-2.76-5.32-9.87-9.32-20.43-1.73-4.58-3.39-10.72-8.23-23.36-1.9-4.96-2.81-7.36-8.8-20.66-2.52-5.59-6.17-16.94-12.91-25.35,4.2-.99,15.65-3.81,31.61-10.53,33.17-13.95,49.81-21.58,59.24-25.59,15.46-6.57,40.24-16.12,54.09-21.29,19.49-7.27,35.09-13.57,56.4-21.54.24-.09.69-.31.73-.99,0-.07-.02-.4-.18-.95-.94-3.37-6.35-20.42-9.54-28.78-.12-.3-1.2-3.15-1.84-5.23-.1-.32-.19-.68-.26-.98,2.75-.48,5.49-1.05,7.57-1.42,6.35-1.1,9.85-1.8,14.46-2.65,2.01-.38,4.51-.73,5.34-.84Z"/>
      <path class="cls-1" d="m237.57,234.57c-.19-.49-2.85-7.47-2.25-7.57,3.09-.5,9.28,4.68,14.8,7.94,11.91,7.03,17.8,10.12,23.91,13.16,13.82,6.88,28.57,13.97,54.2,26.99,7.97,4.05,14.5,8.16,21.05,11.79,6.44,3.56,7.22,2.88,5.25,6.23-3.48,5.91-6.52,10.96-9.15,14.21-2.38,2.94-5.65,10.73-8.55,15.64-3.87,6.57-9.24,15.48-21.93,38.01-2.51,4.45-13.75,19.5-15.45,24.22-1.14,3.17-10.49,22.53-14,22.19-.36-.04-.4-.24-.96-2.41-1.69-6.54-4.04-16.73-4.46-19-.1-.57-2.36-16.24-2.36-16.24,0,0-15.76,6.21-25,9.35-16.69,5.67-29.93,10.32-46.72,15.74-22.24,7.18-30.42,10.31-54.22,19.16-7.67,2.85-52.45,17.14-62.15,20.5-4.07,1.41-3.34,2.78-5.02-.29-1.52-2.78-5.36-9.94-9.39-20.58-1.73-4.58-3.39-10.72-8.22-23.35-1.89-4.95-2.81-7.34-8.78-20.6-2.63-5.84-6.49-18.07-13.91-26.48-.12-.14,12.85-2.35,33.2-10.91,33.16-13.95,49.8-21.58,59.23-25.59,15.47-6.58,40.27-16.14,54.13-21.31,19.49-7.27,35.09-13.57,56.4-21.54.16-.06-6.11-20.01-9.65-29.26Z"/>
      <path class="cls-2" d="m245.87,263.13c-20.82,7.8-36.25,14.03-55.45,21.19-13.87,5.17-38.69,14.74-54.18,21.32-9.43,4.01-26.07,11.64-59.23,25.59-18.22,7.67-30.49,10.21-32.68,10.75-.67.16-.94.47-.98.52-.17.22-.22.44-.23.63-.01.28.07.55.28.8,7.34,8.32,11.13,20.42,13.73,26.2,5.95,13.22,6.87,15.6,8.76,20.54,4.83,12.63,6.49,18.77,8.22,23.35,4.05,10.71,7.92,17.92,9.45,20.72.45.81.74,1.34,1,1.66.35.45.71.64,1.05.73.37.09.78.06,1.31-.18.53-.25,1.37-.82,3.02-1.39,9.7-3.36,54.5-17.65,62.17-20.51,23.79-8.84,31.96-11.97,54.18-19.14,16.79-5.42,30.04-10.07,46.73-15.74,7.64-2.59,19.72-7.28,23.72-8.85.56,3.87,2.08,14.4,2.17,14.87.41,2.27,2.77,12.52,4.47,19.08.37,1.46.56,2.11.73,2.42.17.31.35.49.54.61.2.13.42.2.69.23.53.05,1.15-.1,1.81-.54,1.02-.66,2.28-2.09,3.59-3.98,4.08-5.85,8.96-16.15,9.78-18.41,1.69-4.68,12.88-19.62,15.37-24.04,12.69-22.51,18.06-31.43,21.93-37.99,2.87-4.87,6.09-12.59,8.45-15.51,2.65-3.28,5.72-8.38,9.24-14.35.73-1.24,1.09-2.06,1.11-2.68.02-.68-.21-1.25-.86-1.82-.81-.71-2.66-1.48-5.93-3.29-6.56-3.63-13.1-7.75-21.09-11.81-25.63-13.03-40.38-20.12-54.21-27-6.09-3.03-11.96-6.11-23.83-13.12-3.89-2.3-8.11-5.54-11.36-7.11-1.64-.79-3.09-1.15-4.19-.97-.42.07-1.03.38-1.03,1.33,0,.42.2,1.31.52,2.37.66,2.14,1.77,5.07,1.89,5.38,3.05,8,8.15,24,9.36,28.15Zm-9.28-34.91c.18.04.36.1.55.17.78.27,1.65.7,2.57,1.23,2.98,1.69,6.52,4.34,9.83,6.3,11.94,7.05,17.85,10.15,23.98,13.2,13.82,6.88,28.56,13.96,54.19,26.99,7.96,4.04,14.47,8.15,21.02,11.76,1.94,1.07,3.37,1.76,4.36,2.29.58.31,1.11.7,1.25.8-.02.07-.06.21-.1.31-.15.34-.38.75-.68,1.26-3.45,5.85-6.46,10.85-9.05,14.07-2.41,2.98-5.72,10.82-8.65,15.78-3.87,6.57-9.24,15.49-21.95,38.03-2.52,4.48-13.82,19.64-15.53,24.39-.79,2.19-5.54,12.2-9.51,17.88-.96,1.38-1.87,2.5-2.65,3.15-.09.08-.19.15-.28.21-.1-.34-.23-.8-.37-1.36-1.68-6.51-4.02-16.66-4.43-18.92-.1-.56-2.36-16.19-2.36-16.19-.05-.34-.25-.64-.55-.82-.3-.18-.66-.2-.98-.08,0,0-15.73,6.2-24.95,9.33-16.68,5.67-29.92,10.32-46.7,15.73-22.26,7.18-30.44,10.33-54.27,19.18-7.67,2.85-52.43,17.13-62.12,20.49-1.3.45-2.14.9-2.73,1.21-.09.05-.19.1-.27.14-.16-.25-.41-.66-.65-1.11-1.51-2.76-5.32-9.87-9.32-20.43-1.73-4.58-3.39-10.72-8.23-23.36-1.9-4.96-2.81-7.36-8.8-20.66-2.52-5.59-6.17-16.94-12.91-25.35,4.2-.99,15.65-3.81,31.61-10.53,33.17-13.95,49.81-21.58,59.24-25.59,15.46-6.57,40.24-16.12,54.09-21.29,19.49-7.27,35.09-13.57,56.4-21.54.24-.09.69-.31.73-.99,0-.07-.02-.4-.18-.95-.94-3.37-6.35-20.42-9.54-28.78-.12-.3-1.2-3.15-1.84-5.23-.07-.23-.14-.48-.2-.71Z"/>
      <g>
        <path class="cls-3" d="m250.48,234.92c-3.51-1.62-14.98-7.41-14.4-7.74,2.73-1.54,14.37-2.95,17.5-3.32,4.69-.56,9.12-2.15,10.1-1.16,1.58,1.59,10.57,7.55,13.49,9.34,8.99,5.52,17.51,11.2,25.97,15.78,14.16,7.67,22,11.87,37.21,18.36,4.1,1.75,18.58,8.6,21.89,10.14,2.24,1.04,9.66,4.49,11.19,5.39.31.18,4.87,2.22,4.43,2.63-.96.89-9.52,2.6-14.42,3.49-1.37.25-7.76,2.07-7.82,2.03-2.6-1.57-5.81-2.43-8.78-4.35-7.19-4.66-16.46-9.26-25.44-14.03-2.37-1.26-4.81-2.64-7.18-3.83-3.69-1.85-14.61-6.58-16.18-7.88-4.27-3.51-10.61-5.56-15.48-8.41-4.04-2.37-9.81-4.55-14.04-6.62-6.48-3.17-11.46-6.77-18.05-9.82Z"/>
        <path class="cls-6" d="m250,235.95c6.58,3.04,11.56,6.64,18.03,9.81,4.21,2.06,9.94,4.22,13.96,6.58,4.82,2.82,11.11,4.83,15.33,8.31,1.59,1.31,12.65,6.14,16.39,8.02,2.36,1.19,4.79,2.56,7.16,3.82,8.95,4.76,18.19,9.33,25.35,13.98,2.97,1.93,6.2,2.79,8.81,4.37.03.02.42.25,1.06.09,1.08-.27,6.33-1.75,7.55-1.98,3.46-.63,8.72-1.66,11.9-2.53,1.61-.44,2.74-.92,3.08-1.24.39-.36.71-1.32-.34-2.14-.98-.76-4.04-2.15-4.29-2.3-1.54-.91-9.02-4.4-11.28-5.44-3.32-1.54-17.82-8.4-21.92-10.15-15.17-6.47-22.99-10.66-37.12-18.31-8.44-4.57-16.95-10.24-25.92-15.75-2.87-1.76-11.72-7.61-13.28-9.18-.45-.46-1.35-.73-2.63-.62-1.94.16-5.11,1.07-8.41,1.46-2.21.26-8.62,1.04-13.2,2.02-2.1.44-3.83.95-4.71,1.45-.4.23-1.13,1.19,0,2.12,1.49,1.21,11.26,6.15,14.47,7.63Zm12.93-12.4c1.76,1.7,10.71,7.65,13.64,9.45,9,5.53,17.55,11.22,26.03,15.81,14.19,7.69,22.06,11.9,37.3,18.4,4.09,1.75,18.55,8.59,21.86,10.13,2.22,1.03,9.57,4.45,11.09,5.34.16.1,1.57.73,2.74,1.35-.21.07-.43.13-.65.19-3.13.86-8.31,1.87-11.71,2.49-1.17.21-5.94,1.55-7.43,1.94-2.51-1.42-5.54-2.28-8.34-4.1-7.21-4.68-16.51-9.29-25.52-14.08-2.38-1.27-4.83-2.65-7.21-3.84-3.63-1.82-14.42-6.47-15.97-7.74-4.31-3.55-10.71-5.63-15.62-8.51-4.06-2.38-9.86-4.57-14.11-6.66-6.49-3.18-11.48-6.78-18.08-9.83-2.54-1.17-9.34-4.56-12.51-6.39.66-.18,1.43-.36,2.26-.54,4.52-.96,10.83-1.72,13-1.98,2.83-.34,5.56-1.05,7.51-1.35.56-.09,1.04-.14,1.43-.12.1,0,.24.03.29.04Z"/>
      </g>
      <g id="Ebene21">
        <path class="cls-6" d="m71.63,403.67c.26-.05.55-.09.9-.17.39-.09.83-.21,1.31-.34.97-.27,2.09-.58,3.25-.94,3.1-.96,6.48-2.14,8.03-2.6,3.54-1.09,8.84-2.94,13.03-4.48,1.46-.54,2.77-1.04,3.84-1.46.57-.22,1.11-.32,1.46-.59.08-.06.08-.1.13-.17.24-.06.38-.31.31-.55-.06-.24-.31-.38-.55-.32-.09-.03-.11-.07-.21-.08-.45-.04-.98.19-1.59.34-1.12.29-2.48.7-3.97,1.19-4.22,1.39-9.44,3.38-12.97,4.47-1.55.5-4.97,1.62-8.03,2.8-1.14.44-2.21.89-3.14,1.3-.46.2-.88.39-1.24.57-.32.16-.57.32-.8.45-.16.06-.24.24-.18.4.06.16.24.25.4.18Z"/>
        <path class="cls-6" d="m123.76,384.81c.68-.12,1.54-.22,2.51-.45.2-.05.4-.11.6-.18,1.37-.46,2.86-1.02,4.12-1.54,1.17-.48,2.15-.95,2.7-1.23.3-.13.44-.48.31-.78s-.48-.44-.78-.31c-.57.21-1.58.51-2.75.9-1.29.43-2.78.95-4.13,1.46-.2.08-.39.15-.58.24-.89.43-1.63.89-2.23,1.21-.18.06-.28.26-.22.45.06.18.26.28.45.22Z"/>
        <path class="cls-6" d="m71.37,380.59s-.07,0-.1,0c-.25.04-.43.29-.38.54.01.11.14.42.59.4.12,0,.37-.05.74-.13.48-.1,1.16-.25,1.98-.48,1.26-.35,2.84-.83,4.51-1.41.83-.29,1.68-.61,2.53-.94,1.3-.51,2.57-1.05,3.73-1.57.58-.26,1.13-.51,1.64-.76.99-.49,1.8-.96,2.39-1.33.19-.1.26-.33.16-.52-.1-.19-.33-.26-.52-.17-.75.32-1.85.67-3.14,1.12-1.42.5-3.07,1.08-4.73,1.67-1.06.38-2.13.76-3.14,1.15-1.84.7-3.5,1.37-4.68,1.83-.73.28-1.26.5-1.52.58-.02,0-.06,0-.07.02Zm.26.09c.06.04.11.1.14.17-.03-.06-.07-.13-.14-.17Z"/>
        <path class="cls-6" d="m57.23,365.36s.32-.2.9-.3c.1-.02.19,0,.3,0,.33-.05.7-.16,1.1-.28,1.67-.47,3.87-1.18,5.28-1.62,1.7-.54,3.47-1.17,5.27-1.85,4.06-1.54,8.23-3.33,12.02-4.74,6.6-2.5,12.32-4.7,17.99-7.02,5.68-2.31,11.31-4.73,17.77-7.58,2.01-.91,5.07-2.25,8.14-3.69,2.95-1.38,5.9-2.86,8.02-4.04.3-.16.41-.52.26-.82-.16-.3-.52-.41-.82-.26-1.35.67-3.04,1.42-4.85,2.21-4.09,1.79-8.76,3.71-11.51,4.87-6.45,2.82-12.09,5.19-17.75,7.49-5.66,2.31-11.35,4.56-17.92,7.08-3.77,1.48-7.92,3.33-11.95,4.98-1.75.72-3.47,1.4-5.13,1.99-1.39.5-3.57,1.24-5.19,1.87-.39.15-.76.28-1.05.44-.1.05-.16.13-.24.17-.52.26-.9.3-.9.3-.22.07-.34.31-.27.53.07.22.31.34.53.26Z"/>
        <path class="cls-6" d="m137.98,348.97c-.21.11-.24.24-.18.34,0,.15.12.26.44.16.02,0,.03,0,.04-.01.05-.02.17-.06.34-.13.98-.37,3.63-1.38,4.4-1.54,1.65-.36,3.29-.83,4.92-1.37,2.42-.8,4.81-1.75,7.15-2.63,5.79-2.16,11.58-4.32,17.39-6.45,5.8-2.13,11.61-4.22,17.46-6.25,3.92-1.37,7.82-2.83,11.7-4.36,4.51-1.77,9-3.58,13.49-5.41,4.48-1.82,8.96-3.65,13.48-5.35,1.44-.54,3.44-1.28,5.72-2.17,3.97-1.55,8.79-3.57,13.26-5.3,6.14-2.37,11.56-4.31,12.74-4.7,5.98-1.91,13.28-4.57,20.21-7.43,2.72-1.12,5.39-2.27,7.9-3.42,1.82-.84,3.55-1.7,5.17-2.5.3-.14.44-.5.3-.8-.14-.3-.5-.44-.8-.3-1.85.8-3.86,1.61-5.94,2.49-2.23.94-4.55,1.94-6.91,2.94-2.29.97-4.61,1.97-6.91,2.92-4.7,1.94-9.3,3.75-13.33,5.16-1.18.4-6.56,2.48-12.76,4.74-4.5,1.64-9.46,3.29-13.47,4.74-2.31.83-4.29,1.59-5.74,2.12-4.15,1.54-8.29,3.16-12.4,4.84-6.15,2.51-12.26,5.12-18.43,7.55-2.57,1.01-5.15,2-7.74,2.93-4.66,1.69-9.3,3.42-13.93,5.17-6.95,2.63-13.87,5.33-20.78,8.02-2.33.9-4.7,1.85-7.1,2.68-1.6.55-3.2,1.05-4.82,1.43-.79.19-3.48,1.27-4.47,1.69-.17.07-.29.13-.34.15-.03.01-.05.03-.08.05Z"/>
        <path class="cls-6" d="m166.47,320.93c-.09-.05-.21-.06-.31,0-.15.08-.21.27-.13.42.05.15.43.34,1.13.27,1.07-.11,3.11-.69,5.51-1.49.43-.14.88-.31,1.33-.48.86-.32,1.75-.66,2.63-1.02,2.13-.88,4.25-1.84,6-2.68.29-.14.58-.26.84-.42.45-.28.8-.59,1.16-.86.23-.1.32-.37.22-.6-.1-.23-.37-.32-.6-.22-.47.11-.98.18-1.54.36-.69.22-1.4.55-2.16.86-1.62.66-3.43,1.38-5.18,2.12-1.19.49-2.35.99-3.43,1.47-2.29,1.01-4.19,1.82-5.1,2.13-.17.06-.36.06-.36.14h0Z"/>
        <path class="cls-6" d="m212.96,304.19c1.69-.39,3.43-.82,5.19-1.34,2.54-.75,5.1-1.65,7.6-2.61,3.03-1.17,5.98-2.42,8.58-3.82,1.24-.67,2.38-1.4,3.45-2.11.31-.19.41-.61.22-.92s-.61-.41-.92-.22c-1.09.62-2.27,1.21-3.49,1.84-2.58,1.34-5.4,2.74-8.34,3.98-2.44,1.03-4.95,1.98-7.42,2.84-1.71.6-3.39,1.17-5.04,1.66-.19.05-.31.25-.26.44.05.19.25.31.44.26Z"/>
        <path class="cls-6" d="m276.97,275.71c.16-.09.31-.17.47-.25.06-.03.12-.07.19-.09.08-.02.15,0,.23-.02.56-.14,1.06-.43,1.58-.63.84-.34,1.66-.66,2.47-.95,2.6-.93,5.08-1.59,7.66-2.3,4.69-1.38,9.08-2.26,11.85-2.97.87-.22,1.59-.42,2.11-.63.49-.19.83-.38,1.01-.52.37-.23.49-.72.26-1.1s-.72-.49-1.1-.26c-.12.05-.34.05-.62.12-.46.1-1.08.25-1.83.43-1.6.38-3.76.93-6.24,1.6-1.84.49-3.85,1.07-5.92,1.73-2.56.86-5.05,1.64-7.62,2.74-.81.35-1.64.71-2.46,1.14-.5.27-1.06.48-1.51.87-.07.05-.09.12-.15.18-.05.05-.12.07-.19.11-.16.09-.32.17-.48.25-.15.08-.21.27-.13.42.08.15.27.21.42.13Z"/>
        <path class="cls-6" d="m314.91,283.21c1.9-.71,3.23-1.11,4.97-1.77.64-.24,1.32-.53,2.11-.86l6.59-2.52c.48-.16.75-.68.58-1.17-.16-.48-.68-.74-1.17-.58-.1.01-.2.01-.3.03-.81.19-1.63.61-2.44.96-1.89.83-3.57,1.71-3.91,1.88l-6.75,3.33c-.19.09-.28.31-.19.5.09.19.31.28.5.19Z"/>
        <path class="cls-6" d="m284.93,340.18h.01s.03.03.02.01h0s0-.01,0-.01h-.01s0,0,0,0c0,0,.02,0,.02,0,.3.03.61-.09.79-.36.09-.08.09-.2.13-.28.11-.22-.01-.41-.07-.62-.05-.16-.28-.36-.8-.49-.11-.03-.3-.04-.59-.03-.13,0-.27.04-.44.07-1.5.31-4.65,1.28-7.86,2.67-2.97,1.3-6.28,2.64-9.37,3.99-1.39.61-2.73,1.22-3.99,1.81-.16.07-.24.25-.17.41.07.16.25.24.41.17l13.7-4.94c3.14-1.19,6.22-1.93,7.66-2.21.12-.02.23-.04.33-.06.09-.02.18-.11.23-.13Zm-.47-.24s.07.06.11.09c.03.02.06.04.09.06-.09-.03-.15-.09-.2-.15Zm-.25-.61c-.02.14,0,.26.08.36-.05-.11-.08-.24-.08-.36Z"/>
        <path class="cls-6" d="m299.08,334.03l14.98-4.29c3.99-1.18,7.07-2.17,9.94-3.27,3.11-1.2,5.98-2.54,9.53-4.37,2.89-1.51,8.7-4.34,13.46-7.02.5-.28.98-.59,1.45-.87.32-.17.44-.57.27-.88-.17-.32-.56-.44-.88-.27-.5.23-1.02.45-1.54.7-4.9,2.41-10.56,5.54-13.44,7.05-3.48,1.83-6.3,3.15-9.36,4.35-2.83,1.12-5.86,2.14-9.79,3.36-3.14,1-6.89,2.18-10.39,3.37-1.55.53-3.04,1.07-4.41,1.56-.16.05-.26.23-.2.39.05.17.23.25.39.2Z"/>
        <path class="cls-6" d="m333.2,275.78c.58-.17,1.13-.31,1.69-.5.37-.13.73-.27,1.09-.42,1.35-.58,2.64-1.24,3.94-1.93.37-.2.5-.66.3-1.03-.2-.37-.66-.51-1.03-.3-1.47.84-2.98,1.52-4.45,2.37-.63.36-1.2.79-1.83,1.2-.17.08-.24.28-.16.45.08.17.28.24.45.17Z"/>
      </g>
    </g>
    <g id="Ebene12">
      <g id="Ebene3">
        <g>
          <path class="cls-5" d="m148.58,459.22c.1-.48,1.51-7.35.89-7.35-3.24.05-6.58-.04-9.03-.02-6.66.05-10.34,0-15.19-.02-3-.01-6.16.03-6.29.21-2.65,3.65-7.07,8.83-10.93,11.7-24.56,18.23-43.89,33.48-68.52,48.83-5.76,3.59-10.74,6.23-16.97,10.47-1.95,1.33-8.02,5.19-8.02,5.45,0,2.39,12.91,12.96,16.18,15.51,2.97,2.32,9.09,8.19,12.95,12.23,5.16,5.4,32.04,33.15,49.14,51.76,3.37,3.68,9.11,9.92,11.71,13.97,1.75,2.73,4.56,5.6,6.23,8.28.34.55,6.53.64,9.15.6,3.88-.06,8.52-.04,12.03-.95.37-.09.4-3.82.56-5.91.51-6.3,1.01-16.09,1.01-18.24,0-.54.03-4,.03-4,0,0,12.25,1.46,22.22,2.8,18.03,2.42,33.51,5.75,51.59,7.91,23.95,2.87,32.46,3.4,58.33,7.55,8.33,1.33,28.51,5.03,38.27,7.74,2.97.82,10.03,1.67,13.16,2.28.6.12,11-4.3,18.72-7.75,3.88-1.73,4.32-1.86,5.45-4.96,1.03-2.81,3.61-10.05,5.73-20.52.91-4.5,1.46-10.44,4.03-22.88,1.01-4.87,1.5-7.23,5.11-20.44,1.59-5.82,3.25-17.73,9.24-26.72.1-.15-13.51,0-35.8-4.47-36.32-7.28-54.66-11.51-65-13.62-16.96-3.46-43.96-8.09-59.02-10.53-21.17-3.42-38.22-6.6-61.36-10.36-.17-.03,2.5-19.45,4.39-28.57Z"/>
          <path class="cls-6" d="m145.41,486.84c.48-4.17,2.67-19.58,4.29-27.39h0c.08-.4,1.02-5.01,1.07-6.83.02-.78-.22-1.28-.38-1.47-.26-.29-.58-.41-.93-.4-3.23.05-6.57-.04-9.02-.02-6.65.05-10.33,0-15.17-.02-2.8-.01-5.75.04-6.41.19-.48.1-.71.36-.8.49-2.59,3.57-6.91,8.65-10.69,11.45-24.53,18.21-43.84,33.44-68.44,48.78-5.78,3.6-10.77,6.25-17.02,10.5-1.77,1.2-6.91,4.5-7.93,5.34-.53.44-.58.93-.58,1.05,0,.27.07.6.23.97.24.53.72,1.24,1.4,2.04,3.45,4.06,12.33,11.32,14.98,13.38,2.95,2.3,9,8.11,12.83,12.12,5.15,5.4,32.03,33.14,49.12,51.74,3.34,3.64,9.02,9.81,11.6,13.82,1.75,2.73,4.56,5.58,6.22,8.26.11.16.28.36.58.51.21.1.55.21,1.02.29,1.89.31,6.38.37,8.53.34,3.96-.06,8.71-.06,12.29-.99.2-.05.41-.16.6-.36.13-.15.32-.47.41-.97.21-1.09.26-3.86.4-5.58.51-6.33,1.01-16.17,1.01-18.33,0-.32.01-1.68.02-2.73,3.37.41,12.9,1.57,20.95,2.64,18.03,2.42,33.52,5.75,51.61,7.92,23.93,2.87,32.44,3.4,58.28,7.55,8.3,1.33,28.42,5.01,38.14,7.71,2.99.83,10.09,1.68,13.25,2.3.11.02.29.04.53,0,.25-.04.78-.2,1.52-.47,3.23-1.19,11.15-4.58,17.36-7.35,2.57-1.15,3.74-1.71,4.56-2.67.56-.66.98-1.52,1.49-2.94,1.04-2.84,3.64-10.13,5.78-20.69.91-4.5,1.46-10.44,4.03-22.88,1.01-4.86,1.49-7.2,5.1-20.37,1.57-5.74,3.17-17.51,9.08-26.39.16-.24.2-.47.19-.71-.02-.26-.11-.55-.41-.8-.05-.04-.37-.26-1.04-.29-2.32-.13-15.29-.41-35.25-4.41-36.33-7.28-54.66-11.51-65-13.62-16.98-3.46-44-8.1-59.06-10.54-20.85-3.37-37.71-6.51-60.34-10.2Zm3.05-33.82c-.01.27-.04.57-.08.85-.26,2.02-.84,4.82-.9,5.12-1.7,8.24-4.05,24.86-4.38,28.12-.06.57-.02.91,0,.97.18.64.64.78.91.82,23.15,3.76,40.19,6.94,61.36,10.36,15.04,2.43,42.02,7.06,58.97,10.52,10.34,2.11,28.68,6.34,65,13.62,17.42,3.49,29.56,4.17,34.05,4.38-5.23,8.86-6.84,19.85-8.35,25.4-3.63,13.25-4.11,15.62-5.13,20.51-2.57,12.45-3.13,18.39-4.04,22.89-2.1,10.39-4.65,17.56-5.68,20.36-.39,1.07-.66,1.74-1.09,2.24-.67.78-1.68,1.14-3.77,2.07-6.15,2.75-14.01,6.11-17.21,7.29-.42.15-.85.29-1.03.34-3.21-.6-9.99-1.42-12.88-2.22-9.78-2.72-30.03-6.42-38.39-7.77-25.88-4.15-34.4-4.68-58.37-7.55-18.08-2.17-33.56-5.5-51.58-7.91-9.98-1.34-22.24-2.8-22.24-2.8-.32-.04-.64.06-.89.27-.24.21-.38.52-.38.84,0,0-.03,3.47-.03,4.01,0,2.14-.5,11.88-1,18.15-.11,1.31-.16,3.28-.27,4.57-.01.16-.04.33-.06.48-3.35.74-7.58.71-11.15.77-2.07.03-7.45-.32-8.38-.38-1.69-2.6-4.35-5.35-6.04-7.98-2.63-4.1-8.42-10.41-11.83-14.13-17.1-18.61-44-46.38-49.15-51.78-3.9-4.08-10.08-10-13.08-12.34-2.27-1.77-9.23-7.44-13.19-11.49-.97-.99-1.76-1.88-2.23-2.58-.04-.06-.09-.13-.12-.2,1.58-1.14,5.77-3.82,7.31-4.87,6.21-4.23,11.18-6.87,16.93-10.45,24.66-15.37,44.01-30.64,68.6-48.89,3.82-2.83,8.16-7.86,10.89-11.56.85-.03,3.5-.13,5.65-.13,4.85.02,8.54.07,15.2.02,2.2-.02,5.1.05,8,.03Z"/>
        </g>
        <g>
          <path class="cls-2" d="m148.58,459.22c.1-.48,1.51-7.35.89-7.35-3.24.05-6.58-.04-9.03-.02-6.66.05-10.34,0-15.19-.02-3-.01-6.16.03-6.29.21-2.65,3.65-7.07,8.83-10.93,11.7-24.56,18.23-43.89,33.48-68.52,48.83-5.76,3.59-10.74,6.23-16.97,10.47-1.95,1.33-8.02,5.19-8.02,5.45,0,2.39,42.14-5.53,45.41-2.98,2.97,2.32,73.59,76.23,73.59,76.23,0,0,12.25,1.46,22.22,2.8,18.03,2.42,33.51,5.75,51.59,7.91,23.95,2.87,32.46,3.4,58.33,7.55,8.33,1.33,28.51,5.03,38.27,7.74,2.97.82,10.03,1.67,13.16,2.28.6.12,11-4.3,18.72-7.75,3.88-1.73,4.32-1.86,5.45-4.96,1.03-2.81,3.61-10.05,5.73-20.52.91-4.5,1.46-10.44,4.03-22.88,1.01-4.87,1.5-7.23,5.11-20.44,1.59-5.82,3.25-17.73,9.24-26.72.1-.15-13.51,0-35.8-4.47-36.32-7.28-54.66-11.51-65-13.62-16.96-3.46-43.96-8.09-59.02-10.53-21.17-3.42-38.22-6.6-61.36-10.36-.17-.03,2.5-19.45,4.39-28.57Z"/>
          <path class="cls-6" d="m145.41,486.84c.48-4.17,2.67-19.58,4.29-27.39.08-.4,1.02-5.01,1.07-6.83.02-.78-.22-1.28-.38-1.47-.26-.29-.58-.41-.93-.4-3.23.05-6.57-.04-9.02-.02-6.65.05-10.33,0-15.17-.02-2.8-.01-5.75.04-6.41.19-.48.1-.71.36-.8.49-2.59,3.57-6.91,8.65-10.69,11.45-24.53,18.21-43.84,33.44-68.44,48.78-5.78,3.6-10.77,6.25-17.02,10.5-1.77,1.2-6.91,4.5-7.93,5.34-.53.44-.58.93-.58,1.05,0,.46.2.95.83,1.26.24.12.6.22,1.1.27.8.09,2.07.07,3.68-.04,7.62-.51,23.39-2.94,33.05-3.66,2.42-.18,4.44-.25,5.84-.15.41.03.76.07,1.04.14.13.03.23.04.29.09,2.97,2.31,73.46,76.12,73.46,76.12.18.19.42.31.68.34,0,0,12.24,1.46,22.21,2.79,18.03,2.42,33.52,5.75,51.61,7.92,23.93,2.87,32.44,3.4,58.28,7.55,8.3,1.33,28.42,5.01,38.14,7.71,2.99.83,10.09,1.68,13.25,2.3.11.02.29.04.53,0,.25-.04.78-.2,1.52-.47,3.23-1.19,11.15-4.58,17.36-7.35,2.57-1.15,3.74-1.71,4.56-2.67.56-.66.98-1.52,1.49-2.94,1.04-2.84,3.64-10.13,5.78-20.69.91-4.5,1.46-10.44,4.03-22.88,1.01-4.86,1.49-7.2,5.1-20.37,1.57-5.74,3.17-17.51,9.08-26.39.16-.24.2-.47.19-.71-.02-.26-.11-.55-.41-.8-.05-.04-.37-.26-1.04-.29-2.32-.13-15.29-.41-35.25-4.41-36.33-7.28-54.66-11.51-65-13.62-16.98-3.46-44-8.1-59.06-10.54-20.85-3.37-37.71-6.51-60.34-10.2Zm3.05-33.82c-.01.27-.04.57-.08.85-.26,2.02-.84,4.82-.9,5.12-1.7,8.24-4.05,24.86-4.38,28.12-.06.57-.02.91,0,.97.18.64.64.78.91.82,23.15,3.76,40.19,6.94,61.36,10.36,15.04,2.43,42.02,7.06,58.97,10.52,10.34,2.11,28.68,6.34,65,13.62,17.42,3.49,29.56,4.17,34.05,4.38-5.23,8.86-6.84,19.85-8.35,25.4-3.63,13.25-4.11,15.62-5.13,20.51-2.57,12.45-3.13,18.39-4.04,22.89-2.1,10.39-4.65,17.56-5.68,20.36-.39,1.07-.66,1.74-1.09,2.24-.67.78-1.68,1.14-3.77,2.07-6.15,2.75-14.01,6.11-17.21,7.29-.42.15-.85.29-1.03.34-3.21-.6-9.99-1.42-12.88-2.22-9.78-2.72-30.03-6.42-38.39-7.77-25.88-4.15-34.4-4.68-58.37-7.55-18.08-2.17-33.56-5.5-51.58-7.91-8.91-1.2-19.64-2.49-21.83-2.75-4.84-5.06-70.56-73.82-73.43-76.05-.26-.2-.64-.38-1.17-.51-.82-.19-2.12-.27-3.77-.24-8.74.17-28.1,3.27-36.83,3.85-.54.04-1.03.06-1.48.08,1.92-1.29,4.62-3.03,5.8-3.83,6.21-4.23,11.18-6.87,16.93-10.45,24.66-15.37,44.01-30.64,68.6-48.89,3.82-2.83,8.16-7.86,10.89-11.56.85-.03,3.5-.13,5.65-.13,4.85.02,8.54.07,15.2.02,2.2-.02,5.1.05,8,.03Z"/>
        </g>
        <g>
          <path class="cls-3" d="m135.52,461.71c3.27-2.08,13.87-9.34,13.22-9.54-3.07-.96-15.16-.3-18.41-.12-4.87.27-9.67-.45-10.49.63-1.31,1.73-9.35,8.73-11.99,10.87-8.12,6.59-15.74,13.26-23.49,18.89-12.98,9.44-20.18,14.62-34.44,23.15-3.84,2.3-17.3,11.04-20.39,13.01-2.09,1.33-8.99,5.76-10.38,6.84-.28.22-4.54,2.86-4.02,3.17,1.15.66,10.16.79,15.31.79,1.44,0,8.27.6,8.33.56,2.35-1.89,5.46-3.21,8.12-5.48,6.45-5.5,15.02-11.29,23.27-17.19,2.18-1.56,4.41-3.24,6.59-4.73,3.41-2.32,13.64-8.52,15-9.97,3.69-3.95,9.76-6.9,14.18-10.34,3.67-2.86,9.13-5.83,13.05-8.45,6-4.01,10.4-8.16,16.54-12.08Z"/>
          <path class="cls-6" d="m136.13,462.67c2.99-1.91,12.01-8.09,13.3-9.46.4-.42.46-.82.46-.99,0-.55-.24-.95-.82-1.13-3.13-.98-15.49-.36-18.82-.17-3.43.19-6.81-.11-8.82.07-1.29.11-2.14.52-2.51,1-1.29,1.7-9.21,8.57-11.8,10.68-8.1,6.58-15.71,13.23-23.44,18.86-12.95,9.42-20.13,14.59-34.36,23.1-3.85,2.3-17.32,11.06-20.42,13.03-2.11,1.34-9.06,5.81-10.47,6.9-.18.14-1.93,1.23-3.07,2.1-.69.53-1.17,1.04-1.3,1.31-.18.37-.15.7-.07.94.09.27.26.51.55.68.4.23,1.62.48,3.32.61,3.39.27,8.93.33,12.57.33,1.29,0,6.91.49,8.06.55.63.03.95-.22.98-.24,2.36-1.89,5.48-3.23,8.15-5.5,6.43-5.48,14.98-11.25,23.2-17.13,2.18-1.56,4.39-3.23,6.58-4.72,3.45-2.36,13.81-8.66,15.19-10.14,3.65-3.91,9.68-6.81,14.05-10.22,3.65-2.85,9.09-5.8,12.98-8.4,6-4.01,10.39-8.15,16.52-12.06Zm10.14-9.76c-2.96,2.25-9.04,6.37-11.36,7.85-6.14,3.92-10.55,8.07-16.56,12.09-3.94,2.63-9.43,5.62-13.12,8.5-4.46,3.48-10.59,6.47-14.32,10.46-1.34,1.44-11.45,7.52-14.81,9.81-2.19,1.5-4.43,3.18-6.61,4.75-8.28,5.92-16.88,11.73-23.35,17.25-2.52,2.15-5.45,3.45-7.75,5.19-1.54-.1-6.72-.54-7.96-.54-3.58,0-9.04-.06-12.39-.32-.18-.01-.36-.03-.55-.05,1.03-.72,2.19-1.45,2.33-1.56,1.38-1.07,8.22-5.46,10.29-6.78,3.09-1.97,16.52-10.7,20.36-12.99,14.3-8.55,21.52-13.74,34.53-23.21,7.77-5.65,15.4-12.33,23.54-18.93,2.65-2.15,10.64-9.13,12.13-11,.06-.02.21-.07.32-.1.4-.08.91-.12,1.5-.13,2.03-.05,4.94.14,7.88-.02,2.66-.15,11.35-.65,15.89-.27Z"/>
        </g>
        <g>
          <path class="cls-1" d="m148.44,459.31c.1-.48,1.51-7.35.89-7.35-3.24.05-8.57,5.87-13.58,9.8-10.81,8.48-16.22,12.31-21.87,16.13-12.79,8.66-26.47,17.66-50.12,33.96-7.36,5.07-13.23,9.95-19.23,14.39-5.89,4.36-6.81,3.86-4.18,6.62,4.63,4.85,8.67,9,11.94,11.55,2.97,2.31,7.74,8.93,11.6,12.97,5.15,5.4,12.27,12.71,29.36,31.31,3.38,3.68,17.6,15.65,20.21,19.71,1.75,2.73,14.85,18.99,18.36,18.08.36-.1.37-.29.53-2.38.51-6.3,1.01-16.09,1.01-18.24,0-.54-.61-15.35-.61-15.35,0,0,17.19,3.07,27.16,4.41,18.03,2.42,32.36,4.48,50.44,6.64,23.95,2.87,32.85,4.39,58.71,8.53,8.33,1.33,56.53,6.97,67.02,8.44,4.41.61,3.92,2,5.05-1.11,1.03-2.81,3.61-10.05,5.73-20.52.91-4.5,1.46-10.44,4.03-22.88,1.01-4.87,1.5-7.23,5.11-20.44,1.59-5.82,3.25-17.73,9.24-26.72.1-.15-13.51,0-35.8-4.47-36.32-7.28-54.66-11.51-65-13.62-16.96-3.46-43.96-8.09-59.02-10.53-21.17-3.42-38.22-6.6-61.36-10.36-.17-.03,2.5-19.45,4.39-28.57Z"/>
          <path class="cls-2" d="m145.27,486.92c.48-4.17,2.67-19.58,4.29-27.39.08-.4,1.02-5.01,1.07-6.83.02-.78-.22-1.28-.38-1.47-.26-.29-.58-.41-.93-.4-1.47.02-3.35,1.01-5.4,2.57-2.72,2.06-5.84,5.1-8.85,7.47-10.77,8.45-16.17,12.27-21.81,16.09-12.79,8.65-26.47,17.66-50.13,33.96-7.37,5.08-13.25,9.97-19.26,14.41-2.99,2.21-4.73,3.24-5.42,4.03-.59.67-.72,1.28-.56,1.95.14.58.66,1.3,1.65,2.33,4.68,4.9,8.76,9.08,12.07,11.66,2.94,2.29,7.65,8.86,11.47,12.86,5.15,5.4,12.27,12.7,29.35,31.3,3.35,3.65,17.5,15.52,20.09,19.55,1.25,1.94,8.13,10.61,13.37,15.32,1.68,1.51,3.22,2.61,4.37,3.05.73.27,1.35.32,1.85.19.53-.14.85-.33,1.08-1,.11-.31.19-.96.3-2.39.51-6.33,1.01-16.17,1.01-18.33,0-.44-.4-10.27-.55-13.99,4.29.76,17.54,3.06,25.82,4.17,18.03,2.42,32.37,4.48,50.46,6.64,23.93,2.87,32.83,4.39,58.67,8.53,8.33,1.34,56.54,6.98,67.04,8.44,2.19.31,3.19.79,3.77.85.66.06,1.12-.12,1.54-.62.27-.32.55-.94.96-2.06,1.04-2.84,3.64-10.13,5.78-20.69.91-4.5,1.46-10.44,4.03-22.88,1.01-4.86,1.49-7.2,5.1-20.37,1.57-5.74,3.17-17.51,9.08-26.39.16-.24.2-.47.19-.71-.02-.26-.11-.55-.41-.8-.05-.04-.37-.26-1.04-.29-2.32-.13-15.29-.41-35.25-4.41-36.33-7.28-54.66-11.51-65-13.62-16.98-3.46-44-8.1-59.06-10.54-20.85-3.37-37.71-6.51-60.34-10.2Zm3.03-33.6c-.02.21-.04.43-.07.64-.26,2.02-.84,4.82-.9,5.12h0c-1.7,8.24-4.05,24.86-4.38,28.12-.06.57-.02.91,0,.97.18.64.64.78.91.82,23.15,3.76,40.19,6.94,61.36,10.36,15.04,2.43,42.02,7.06,58.97,10.52,10.34,2.11,28.68,6.34,65,13.62,17.42,3.49,29.56,4.17,34.05,4.38-5.23,8.86-6.84,19.85-8.35,25.4-3.63,13.25-4.11,15.62-5.13,20.51-2.57,12.45-3.13,18.39-4.04,22.89-2.1,10.39-4.65,17.56-5.68,20.36-.16.45-.33.86-.44,1.11-.53-.16-1.78-.52-3.39-.74-10.48-1.46-58.66-7.1-66.99-8.43-25.88-4.15-34.79-5.67-58.76-8.54-18.08-2.17-32.41-4.22-50.43-6.64-9.96-1.34-27.11-4.41-27.11-4.41-.34-.06-.68.04-.95.26-.26.22-.4.55-.38.9,0,0,.6,14.76.6,15.3,0,2.14-.5,11.88-1,18.15-.04.53-.09.98-.12,1.3-.13-.05-.27-.13-.42-.2-.92-.46-2.05-1.35-3.29-2.46-5.09-4.57-11.77-12.98-12.98-14.86-2.62-4.08-16.92-16.15-20.32-19.85-17.1-18.62-24.23-25.93-29.38-31.33-3.9-4.08-8.72-10.74-11.72-13.08-3.24-2.52-7.23-6.63-11.82-11.43-.45-.47-.87-1.02-1.02-1.22.06-.06.14-.15.21-.21.22-.19.5-.4.84-.65.92-.66,2.24-1.53,4.01-2.84,5.99-4.43,11.85-9.3,19.2-14.37,23.65-16.3,37.33-25.3,50.11-33.95,5.67-3.83,11.1-7.68,21.94-16.18,3-2.35,6.11-5.38,8.82-7.44,1.11-.84,2.13-1.54,3.02-1.88Z"/>
        </g>
      </g>
      <g id="Ebene22">
        <path class="cls-6" d="m344.21,557.92c-.24-.1-.52-.23-.85-.36-.38-.14-.81-.29-1.29-.44-.96-.31-2.08-.68-3.26-1.02-3.14-.92-6.63-1.82-8.19-2.31-3.59-1.08-9.07-2.48-13.45-3.52-1.52-.36-2.91-.67-4.04-.92-.6-.13-1.1-.35-1.55-.33-.1,0-.12.05-.21.07-.23-.08-.49.04-.57.27-.08.23.04.49.27.57.05.08.05.12.13.19.35.29.93.4,1.52.61,1.1.39,2.48.8,4,1.22,4.32,1.19,9.81,2.42,13.38,3.5,1.58.46,5.08,1.43,8.3,2.14,1.2.27,2.36.49,3.36.66.5.09.95.17,1.36.21.36.04.66.05.93.06.17.04.33-.07.38-.23.04-.17-.07-.34-.24-.38Z"/>
        <path class="cls-6" d="m332.28,580.77s.09.06.14.07c.24.08.51-.05.6-.29.05-.1.08-.39-.27-.62-.1-.07-.34-.17-.7-.32-.46-.18-1.12-.44-1.93-.71-1.25-.41-2.84-.89-4.57-1.33-.86-.22-1.75-.42-2.65-.61-1.37-.29-2.75-.55-4.01-.75-.63-.1-1.24-.2-1.8-.26-1.11-.13-2.05-.17-2.75-.18-.21-.02-.4.14-.42.35-.02.21.14.4.35.42.8.13,1.92.44,3.25.77,1.47.37,3.18.79,4.9,1.21,1.1.27,2.22.54,3.28.78,1.93.44,3.7.8,4.94,1.08.77.17,1.33.29,1.59.37.02,0,.04.02.05.02Z"/>
        <path class="cls-6" d="m312.27,600.51s-.38-.02-.92-.25c-.09-.04-.15-.11-.25-.16-.3-.15-.68-.25-1.08-.39-1.67-.55-3.91-1.17-5.34-1.6-1.73-.5-3.57-.95-5.45-1.37-4.26-.94-8.75-1.71-12.72-2.63-6.92-1.55-12.94-2.86-18.98-4.03-6.05-1.18-12.12-2.23-19.12-3.35-2.19-.33-5.49-.88-8.86-1.34-3.24-.44-6.54-.8-8.96-.94-.33-.03-.63.22-.65.55s.22.63.55.66c1.5.16,3.34.44,5.28.75,4.41.72,9.4,1.65,12.34,2.18,6.97,1.15,13.01,2.24,19.05,3.41,6.02,1.17,12.04,2.41,18.95,3.93,3.99.85,8.5,1.55,12.8,2.39,1.86.36,3.68.74,5.4,1.18,1.45.36,3.69.96,5.4,1.34.41.09.79.19,1.13.22.11,0,.2-.02.3,0,.58.07.92.25.92.25.22.06.45-.07.51-.29s-.07-.45-.29-.51Z"/>
        <path class="cls-6" d="m259.01,571.43c.23.02.33-.07.33-.18.09-.12.04-.29-.29-.38-.01,0-.03,0-.04-.01-.06-.01-.18-.04-.36-.08-1.03-.23-3.8-.84-4.55-1.15-1.58-.65-3.22-1.18-4.89-1.64-2.48-.68-5.02-1.21-7.48-1.77-6.06-1.39-12.13-2.78-18.19-4.21-6.04-1.43-12.09-2.9-18.13-4.45-4.05-1.04-8.14-1.96-12.23-2.82-4.77-1-9.55-1.94-14.33-2.87-4.77-.93-9.54-1.86-14.28-2.94-1.51-.34-3.6-.83-6.01-1.35-4.19-.9-9.36-1.87-14.08-2.9-6.47-1.41-12.09-2.79-13.3-3.12-6.09-1.75-13.68-3.54-21.07-4.93-2.91-.55-5.79-1.04-8.53-1.44-2-.29-3.92-.5-5.73-.71-.33-.05-.64.18-.69.51-.05.33.18.64.51.68,2,.33,4.13.74,6.37,1.14,2.39.42,4.89.86,7.43,1.31,2.46.44,4.96.88,7.42,1.34,5.01.96,9.87,1.99,14.03,3.06,1.22.33,6.89,1.56,13.35,3.1,4.69,1.12,9.78,2.48,13.94,3.48,2.4.58,4.49,1.04,5.99,1.39,4.34,1.01,8.71,1.93,13.09,2.78,6.55,1.27,13.13,2.43,19.66,3.8,2.72.57,5.42,1.17,8.12,1.83,4.85,1.18,9.71,2.31,14.56,3.4,7.31,1.65,14.61,3.21,21.91,4.78,2.46.53,4.98,1.04,7.46,1.69,1.64.43,3.27.91,4.83,1.53.77.3,3.63.88,4.69,1.07.18.03.31.05.37.06.03,0,.06,0,.09,0Z"/>
        <path class="cls-6" d="m233.88,531.19s0,.07.02.04c0,0,0-.01,0-.02h0s0-.02-.02-.02v-.05s0-.02,0-.02c0,.03,0,.05.01.08h0s0,0,0,0c.04.12.15.2.28.21.17.01.32-.12.33-.29.04-.18-.17-.53-.77-.86-.95-.52-2.99-1.18-5.45-1.83-.45-.12-.91-.23-1.38-.33-.9-.21-1.84-.41-2.78-.59-2.28-.43-4.6-.79-6.54-1.03-.32-.04-.64-.1-.94-.1-.54-.01-1,.06-1.45.1-.25-.03-.47.14-.51.38-.03.24.14.47.38.5.41.15.81.35,1.31.5.18.05.38.08.57.12,2.1.4,4.71.91,7.26,1.4,1.06.2,2.11.39,3.11.56,2.76.46,5.09.87,6.15,1.18.15.04.34.04.41.07Z"/>
        <path class="cls-6" d="m199.68,523.47c-1.63-.64-3.32-1.25-5.08-1.8-2.55-.8-5.2-1.47-7.83-2.03-3.21-.69-6.38-1.24-9.35-1.45-1.42-.1-2.78-.08-4.08-.04-.37,0-.67.3-.67.67s.3.67.67.67c1.26.04,2.58.17,3.95.29,2.9.25,6.04.6,9.21,1.18,2.61.48,5.24,1.08,7.79,1.74,1.76.46,3.48.93,5.13,1.45.19.07.39-.03.46-.22.07-.19-.03-.4-.22-.46Z"/>
        <path class="cls-6" d="m102.26,559.14c-.18-.01-.36-.02-.53-.04-.07,0-.14,0-.21-.02-.08-.02-.13-.08-.21-.11-.55-.19-1.13-.21-1.68-.32-.9-.17-1.76-.35-2.6-.55-2.69-.65-5.13-1.5-7.69-2.36-4.7-1.49-8.89-3.28-11.62-4.27-.86-.31-1.58-.56-2.13-.68-.54-.12-.94-.15-1.17-.12-.44,0-.8.36-.8.8s.36.8.8.8c.13.02.3.14.56.24.45.17,1.05.4,1.77.68,1.55.6,3.68,1.38,6.14,2.24,1.83.64,3.85,1.3,5.96,1.91,2.63.73,5.16,1.48,7.92,1.98.88.16,1.78.31,2.71.39.57.05,1.16.17,1.75.09.09-.01.14-.06.23-.07.07,0,.14,0,.22.01.18.01.36.03.54.04.17.01.32-.12.33-.29s-.12-.32-.29-.33Z"/>
        <path class="cls-6" d="m73.01,508.1l7.23,2.19c.36.11,2.17.72,4.18,1.22.86.22,1.75.49,2.59.54.11,0,.2-.01.31-.02.5.07.97-.28,1.05-.78.07-.5-.28-.97-.78-1.05l-6.93-1.39c-.84-.2-1.56-.38-2.23-.51-1.83-.37-3.22-.54-5.21-.94-.2-.05-.41.07-.46.27-.05.2.07.41.27.46Z"/>
        <path class="cls-6" d="m69.78,506.71c-.24-.05-.48-.12-.72-.16-.98-.15-1.95-.21-2.91-.24-1.22-.04-2.43.03-3.66.1-.22,0-.39.18-.38.39,0,.22.18.39.39.38,1.02.04,2.02.12,3.03.18.43.03.86.05,1.3.06.76.02,1.53.07,2.32.03.2-.01.38-.05.58-.07.18.01.35-.13.36-.32.01-.18-.13-.34-.31-.36Z"/>
      </g>
    </g>
    <g id="Ebene13">
      <path class="cls-2" d="m300.08,652.48c-.1-.6-1.46-9.13-.86-9.12,3.13.07,6.36-.04,8.73-.02,6.44.07,10,0,14.69-.02,2.9-.01,5.96.04,6.08.26,2.57,4.53,6.84,10.96,10.57,14.52,23.76,22.62,42.45,41.55,66.27,60.61,5.57,4.46,10.39,7.74,16.41,13,1.88,1.65,7.75,6.44,7.75,6.77,0,2.96-12.49,16.09-15.65,19.25-2.87,2.87-8.8,10.16-12.53,15.18-4.99,6.7-30.99,41.15-47.52,64.24-3.26,4.57-8.81,12.31-11.33,17.34-1.69,3.39-4.41,6.94-6.02,10.28-.33.69-6.31.8-8.85.75-3.75-.08-8.24-.05-11.63-1.18-.36-.12-.38-4.74-.55-7.33-.49-7.82-.97-19.97-.97-22.64,0-.67-.02-4.97-.02-4.97,0,0-11.84,1.82-21.49,3.48-17.44,3-32.41,7.13-49.9,9.82-23.17,3.56-31.4,4.22-56.41,9.37-8.06,1.66-27.57,6.24-37.01,9.6-2.87,1.02-9.7,2.07-12.73,2.83-.58.15-10.64-5.33-18.11-9.61-3.75-2.15-4.18-2.31-5.27-6.16-1-3.49-3.49-12.47-5.54-25.47-.88-5.59-1.41-12.95-3.9-28.4-.97-6.05-1.45-8.97-4.94-25.37-1.54-7.22-3.14-22-8.93-33.16-.1-.19,13.07,0,34.62-5.55,35.13-9.03,52.87-14.28,62.86-16.9,16.4-4.3,42.52-10.05,57.08-13.07,20.47-4.24,36.96-8.2,59.35-12.86.17-.03-2.42-24.14-4.24-35.45Z"/>
      <path class="cls-6" d="m303.14,687.02c-21.91,4.58-38.21,8.48-58.39,12.67-14.58,3.02-40.71,8.78-57.14,13.08-10,2.62-27.73,7.87-62.86,16.9-19.29,4.96-31.81,5.31-34.05,5.46-.42.03-.66.1-.73.13-.19.08-.31.19-.38.27-.4.42-.41.86-.18,1.3,5.74,11.06,7.31,25.71,8.83,32.87,3.49,16.36,3.96,19.28,4.93,25.32,2.49,15.44,3.02,22.81,3.9,28.4,2.06,13.07,4.56,22.09,5.57,25.61.49,1.69.87,2.73,1.4,3.53.79,1.2,1.92,1.88,4.4,3.3,6.01,3.44,13.68,7.66,16.8,9.13.74.35,1.26.55,1.51.6.29.06.51.03.63,0,3.06-.77,9.94-1.83,12.84-2.86,9.39-3.35,28.83-7.91,36.86-9.56,24.98-5.14,33.21-5.8,56.36-9.36,17.49-2.69,32.47-6.83,49.92-9.83,7.71-1.32,16.85-2.75,20.17-3.27,0,1.32.02,3.22.02,3.65,0,2.68.48,14.87.97,22.71.13,2.11.18,5.53.38,6.87.08.52.22.86.33,1.01.19.26.41.39.61.46,3.49,1.16,8.11,1.16,11.97,1.24,2.1.04,6.47-.03,8.31-.42.49-.1.85-.24,1.06-.38.28-.18.44-.38.53-.58,1.61-3.33,4.32-6.88,6.02-10.26,2.49-4.99,8-12.66,11.24-17.19,16.53-23.09,42.53-57.53,47.51-64.23,3.7-4.97,9.57-12.2,12.42-15.05,2.23-2.24,9.07-9.38,12.97-14.5,1.23-1.61,2.17-3.03,2.63-4.06.27-.6.38-1.11.38-1.5,0-.13-.05-.55-.47-1-.98-1.04-5.95-5.13-7.67-6.62-6.04-5.27-10.87-8.56-16.45-13.03-23.8-19.04-42.47-37.95-66.2-60.55-3.67-3.5-7.85-9.81-10.36-14.26-.09-.15-.45-.57-1.24-.68-.97-.13-3.46-.17-5.84-.16-4.68.02-8.24.09-14.67.02-2.37-.02-5.59.09-8.72.02-.39,0-1.11.19-1.27,1.19-.23,1.43.89,8.68.98,9.24h0c1.59,9.93,3.78,29.71,4.17,34.36Zm24.87-42.43c2.63,4.58,6.83,10.82,10.51,14.33,23.78,22.65,42.49,41.6,66.34,60.67,5.56,4.45,10.37,7.72,16.38,12.97,1.57,1.37,5.96,4.97,7.29,6.25-.07.18-.18.38-.3.61-.46.88-1.23,1.99-2.18,3.23-3.84,5.04-10.57,12.07-12.77,14.27-2.9,2.9-8.87,10.25-12.63,15.31-4.99,6.7-31,41.16-47.54,64.26-3.29,4.61-8.88,12.41-11.42,17.49-1.64,3.28-4.24,6.72-5.87,9.96-.29.06-.94.19-1.48.24-2.02.19-4.92.22-6.5.19-3.42-.07-7.48-.03-10.69-.94-.07-1.16-.27-4.66-.38-6.52-.49-7.79-.96-19.9-.96-22.57,0-.67-.03-4.97-.03-4.97,0-.33-.15-.64-.39-.85s-.58-.31-.91-.26c0,0-11.86,1.81-21.51,3.48-17.43,3-32.4,7.13-49.88,9.82-23.19,3.57-31.43,4.23-56.47,9.38-8.09,1.67-27.69,6.27-37.16,9.65-2.77.99-9.23,1.99-12.36,2.73h-.03c-2.1-.82-10.84-5.61-17.51-9.43-2.02-1.15-3-1.62-3.64-2.59-.43-.65-.71-1.51-1.11-2.9-.99-3.47-3.47-12.41-5.51-25.33-.88-5.59-1.41-12.96-3.91-28.41-.97-6.06-1.45-8.99-4.95-25.42-1.49-6.96-3.05-20.88-8.28-31.92,4.2-.24,16.05-1.06,33.15-5.45,35.13-9.03,52.87-14.28,62.87-16.9,16.39-4.29,42.48-10.04,57.02-13.05,20.47-4.25,36.96-8.2,59.35-12.87.22-.04.73-.19.88-.88.01-.07.03-.42,0-1.01-.32-4.04-2.58-24.64-4.22-34.85h0c-.07-.42-.68-5.8-.9-7.79,2.78.02,5.54-.06,7.65-.04,6.44.06,10.01,0,14.7-.02,2.02,0,4.51.11,5.36.15Z"/>
      <path class="cls-1" d="m300.08,652.48c-.1-.6-1.46-9.13-.86-9.12,3.13.07,8.29,7.29,13.13,12.16,10.45,10.52,15.69,15.28,21.16,20.02,12.37,10.74,25.6,21.92,48.48,42.15,7.12,6.29,12.8,12.35,18.59,17.86,5.7,5.41,6.59,4.8,4.05,8.21-4.48,6.02-8.38,11.17-11.55,14.33-2.87,2.87-7.49,11.08-11.22,16.1-4.98,6.7-11.87,15.77-28.4,38.86-3.27,4.57-17.03,19.42-19.54,24.46-1.69,3.39-14.36,23.57-17.76,22.44-.35-.12-.36-.36-.52-2.95-.49-7.82-.97-19.97-.97-22.64,0-.67.59-19.05.59-19.05,0,0-16.62,3.81-26.27,5.47-17.44,3-31.3,5.56-48.78,8.25-23.17,3.56-31.77,5.44-56.78,10.59-8.06,1.66-54.67,8.65-64.82,10.47-4.26.76-3.79,2.48-4.88-1.37-1-3.49-3.49-12.47-5.54-25.47-.88-5.59-1.41-12.95-3.9-28.4-.97-6.05-1.45-8.97-4.94-25.37-1.54-7.22-3.14-22-8.93-33.16-.1-.19,13.07,0,34.62-5.55,35.13-9.03,52.87-14.28,62.86-16.9,16.4-4.3,42.52-10.05,57.08-13.07,20.47-4.24,36.96-8.2,59.35-12.86.17-.03-2.42-24.14-4.24-35.45Z"/>
      <path class="cls-2" d="m303.14,687.02c-21.91,4.58-38.21,8.48-58.39,12.67-14.58,3.02-40.71,8.78-57.14,13.08-10,2.62-27.73,7.87-62.86,16.9-19.29,4.96-31.81,5.31-34.05,5.46-.42.03-.66.1-.73.13-.19.08-.31.19-.38.27-.4.42-.41.86-.18,1.3,5.74,11.06,7.31,25.71,8.83,32.87,3.49,16.36,3.96,19.28,4.93,25.32,2.49,15.44,3.02,22.81,3.9,28.4,2.06,13.07,4.56,22.09,5.57,25.61.35,1.21.57,1.93.8,2.32.22.38.48.6.74.74.38.19.82.25,1.43.07.56-.17,1.49-.64,3.21-.95,10.15-1.82,56.78-8.82,64.85-10.48,24.98-5.14,33.58-7.02,56.73-10.58,17.49-2.69,31.36-5.25,48.8-8.25,7.96-1.37,20.65-4.2,24.9-5.16-.14,4.37-.54,17.07-.54,17.62,0,2.68.48,14.87.97,22.71.1,1.7.17,2.46.27,2.84.09.34.23.55.38.71.18.19.38.32.65.41.49.17,1.1.14,1.79-.15.66-.28,1.46-.85,2.33-1.67,5.11-4.77,13.63-18.43,15.01-21.18,2.5-5.01,16.2-19.76,19.45-24.3,16.52-23.08,23.4-32.15,28.38-38.85,3.7-4.97,8.26-13.13,11.11-15.97,3.19-3.19,7.13-8.38,11.66-14.45.91-1.22,1.4-2.05,1.52-2.72.16-.85-.06-1.6-.9-2.55-.81-.91-2.38-2.14-4.8-4.44-5.81-5.52-11.5-11.58-18.62-17.88-22.88-20.24-36.12-31.41-48.49-42.15-5.45-4.73-10.67-9.48-21.09-19.97-3.41-3.44-6.98-8.02-9.9-10.49-1.49-1.26-2.88-1.98-4.01-2-.39,0-1.11.19-1.27,1.19-.23,1.43.89,8.68.98,9.24h0c1.59,9.93,3.78,29.71,4.17,34.36Zm-2.8-42.12c.12.07.24.15.36.23.72.47,1.5,1.15,2.31,1.95,2.62,2.56,5.63,6.32,8.53,9.24,10.48,10.55,15.74,15.33,21.21,20.08,12.37,10.74,25.6,21.91,48.47,42.14,7.11,6.28,12.77,12.33,18.57,17.83,1.71,1.63,3,2.72,3.88,3.53.37.34.66.62.88.88.15.18.28.3.28.46,0,.15-.09.3-.19.49-.21.37-.53.81-.94,1.35-4.44,5.97-8.3,11.07-11.44,14.21-2.9,2.9-7.56,11.17-11.32,16.22-4.99,6.71-11.88,15.78-28.41,38.88-3.29,4.59-17.1,19.54-19.64,24.61-1.17,2.34-7.66,12.81-12.58,18.49-1.2,1.38-2.29,2.47-3.19,3.05-.07.05-.15.09-.23.13-.04-.42-.09-1.03-.14-1.75-.49-7.79-.96-19.9-.96-22.57,0-.67.58-19.01.58-19.01.01-.35-.14-.69-.41-.91-.27-.22-.63-.31-.97-.23,0,0-16.58,3.81-26.21,5.46-17.43,3-31.29,5.55-48.76,8.24-23.19,3.57-31.81,5.45-56.84,10.6-8.06,1.66-54.65,8.65-64.79,10.47-1.37.24-2.29.58-2.93.82-.07.02-.14.05-.21.07-.12-.34-.3-.88-.46-1.47-.99-3.47-3.47-12.41-5.51-25.33-.88-5.59-1.41-12.96-3.91-28.41-.97-6.06-1.45-8.99-4.95-25.42-1.49-6.96-3.05-20.88-8.28-31.92,4.2-.24,16.05-1.06,33.15-5.45,35.13-9.03,52.87-14.28,62.87-16.9,16.39-4.29,42.48-10.04,57.02-13.05,20.47-4.25,36.96-8.2,59.35-12.87.22-.04.73-.19.88-.88.01-.07.03-.42,0-1.01-.32-4.04-2.58-24.64-4.22-34.85h0c-.06-.39-.61-5.17-.86-7.4Z"/>
      <g>
        <path class="cls-3" d="m312.72,655.57c-3.16-2.58-13.41-11.6-12.78-11.85,2.96-1.19,14.66-.38,17.81-.15,4.71.34,9.36-.56,10.15.78,1.27,2.15,9.05,10.84,11.6,13.49,7.85,8.18,15.22,16.45,22.72,23.45,12.55,11.72,19.51,18.15,33.31,28.74,3.72,2.85,16.73,13.7,19.72,16.15,2.02,1.65,8.69,7.15,10.04,8.49.27.27,4.39,3.55,3.89,3.93-1.11.82-9.83.98-14.81.98-1.39,0-8,.75-8.05.69-2.28-2.34-5.28-3.99-7.85-6.8-6.23-6.83-14.53-14.01-22.51-21.33-2.11-1.94-4.26-4.02-6.38-5.87-3.29-2.88-13.19-10.57-14.51-12.38-3.57-4.9-9.44-8.56-13.72-12.84-3.55-3.55-8.83-7.24-12.62-10.49-5.81-4.98-10.06-10.13-16-14.99Z"/>
        <path class="cls-6" d="m312,656.44c5.93,4.85,10.18,10,15.98,14.97,3.77,3.23,9.02,6.9,12.56,10.43,4.24,4.24,10.07,7.84,13.6,12.7,1.33,1.83,11.34,9.64,14.67,12.56,2.11,1.85,4.25,3.92,6.36,5.85,7.95,7.3,16.22,14.46,22.44,21.26,2.58,2.83,5.59,4.48,7.88,6.83.03.03.38.38,1.1.33,1.11-.08,6.53-.69,7.77-.69,3.52,0,8.89-.08,12.18-.41,1.07-.11,1.93-.25,2.48-.41.38-.11.65-.25.83-.38.33-.24.51-.58.5-1.03,0-.24-.12-.65-.46-1.09-.83-1.07-3.58-3.29-3.8-3.51-1.36-1.36-8.09-6.9-10.12-8.57-2.99-2.45-16.02-13.32-19.74-16.17-13.77-10.56-20.71-16.98-33.23-28.67-7.48-6.98-14.84-15.24-22.68-23.41-2.51-2.62-10.19-11.17-11.44-13.28-.37-.62-1.21-1.1-2.5-1.24-1.94-.22-5.22.15-8.54-.09-2.22-.16-8.67-.6-13.37-.45-2.16.07-3.98.29-4.94.68-.38.15-1.19.93-.37,2.05,1.25,1.69,9.97,9.36,12.85,11.73h0Zm14.95-11.47c1.38,2.27,9.15,10.97,11.72,13.65,7.87,8.2,15.25,16.48,22.76,23.49,12.58,11.75,19.56,18.19,33.4,28.81,3.71,2.85,16.71,13.69,19.69,16.13,2,1.64,8.62,7.08,9.96,8.42.16.16,1.69,1.39,2.8,2.44-.31.05-.64.1-.97.13-3.23.33-8.5.4-11.95.4-1.17,0-6.01.52-7.62.67-2.22-2.14-5.03-3.75-7.45-6.41-6.25-6.85-14.57-14.06-22.58-21.41-2.12-1.94-4.27-4.03-6.4-5.89-3.25-2.85-13.04-10.41-14.33-12.19-3.6-4.95-9.52-8.66-13.83-12.97-3.57-3.57-8.88-7.28-12.69-10.55-5.81-4.98-10.07-10.14-16.02-15h0c-2.39-1.95-8.9-7.62-11.51-10.26.74-.09,1.63-.14,2.61-.18,4.61-.15,10.95.29,13.13.45,2.85.2,5.66-.04,7.64.02.55.02,1.03.06,1.39.15.09.02.21.08.26.1Z"/>
      </g>
      <g id="Ebene23">
        <path class="cls-6" d="m102.37,782.21c.26-.02.57-.02.93-.06.41-.05.86-.12,1.36-.21,1-.17,2.16-.39,3.36-.66,3.22-.72,6.72-1.69,8.3-2.14,3.57-1.07,9.06-2.31,13.38-3.5,1.53-.42,2.9-.83,4-1.22.6-.21,1.17-.32,1.52-.61.07-.06.08-.11.13-.19.23-.08.36-.33.27-.57-.08-.23-.33-.36-.57-.27-.08-.03-.11-.07-.21-.07-.44-.02-.95.2-1.55.33-1.13.25-2.51.56-4.04.92-4.38,1.04-9.86,2.44-13.45,3.52-1.56.49-5.05,1.38-8.19,2.31-1.18.34-2.3.71-3.26,1.02-.48.16-.91.3-1.29.44-.33.13-.61.26-.85.36-.17.04-.27.21-.24.38.04.17.21.27.38.23Z"/>
        <path class="cls-6" d="m156.68,769.12c.68-.07,1.56-.09,2.54-.23.2-.03.41-.07.62-.12,1.42-.32,2.96-.72,4.28-1.07,1.2-.32,2.22-.63,2.81-.76.32-.05.54-.36.49-.68-.05-.32-.36-.54-.68-.48-.62.07-1.7.21-2.96.46-1.35.27-2.91.62-4.32,1-.21.05-.41.11-.61.18-.94.34-1.72.74-2.35,1.02-.19.05-.3.24-.25.43.05.19.24.3.43.25Z"/>
        <path class="cls-6" d="m114.17,804.44s.03-.02.05-.02c.26-.09.82-.2,1.59-.37,1.24-.28,3-.64,4.94-1.08,1.06-.24,2.17-.51,3.28-.78,1.72-.43,3.43-.85,4.9-1.21,1.33-.33,2.45-.64,3.25-.77.21-.02.37-.21.35-.42-.02-.21-.21-.37-.42-.35-.7,0-1.64.05-2.75.18-.57.07-1.17.16-1.8.26-1.27.21-2.64.46-4.01.75-.89.19-1.79.39-2.65.61-1.96.51-3.77,1.06-5.07,1.5-.95.32-1.63.61-1.95.76-.49.24-.49.64-.45.71.08.25.35.38.6.29.05-.02.1-.04.14-.07Z"/>
        <path class="cls-6" d="m110.31,829.08s.34-.18.92-.25c.1-.01.19.02.3,0,.33-.03.71-.13,1.13-.22,1.71-.38,3.96-.99,5.4-1.34,1.72-.44,3.54-.82,5.4-1.18,4.3-.84,8.8-1.54,12.8-2.39,6.91-1.52,12.93-2.76,18.95-3.93,6.04-1.17,12.08-2.27,19.05-3.41,2.94-.53,7.92-1.46,12.34-2.18,1.95-.31,3.78-.6,5.28-.75.33-.03.58-.32.55-.66s-.32-.58-.65-.55c-2.42.14-5.72.5-8.96.94-3.37.46-6.68,1.01-8.86,1.34-6.99,1.12-13.07,2.18-19.12,3.35-6.04,1.18-12.06,2.48-18.98,4.03-3.96.92-8.45,1.69-12.72,2.63-1.88.41-3.72.87-5.45,1.37-1.43.43-3.67,1.05-5.34,1.6-.4.13-.78.24-1.08.39-.1.05-.16.12-.25.16-.54.24-.92.25-.92.25-.22.06-.35.29-.29.51s.29.35.51.29Z"/>
        <path class="cls-6" d="m187.39,794.55c-.33.09-.37.25-.29.38,0,.11.1.2.33.18.03,0,.06,0,.09,0,.06,0,.19-.03.37-.06,1.06-.19,3.92-.77,4.69-1.07,1.57-.61,3.19-1.1,4.83-1.53,2.48-.65,5.01-1.15,7.46-1.69,7.3-1.57,14.6-3.14,21.91-4.78,4.85-1.09,9.71-2.22,14.56-3.4,2.7-.66,5.41-1.26,8.12-1.83,6.53-1.37,13.1-2.53,19.66-3.8,4.38-.85,8.75-1.76,13.09-2.78,1.51-.35,3.6-.82,5.99-1.39,4.17-1,9.25-2.36,13.94-3.48,6.46-1.54,12.13-2.77,13.35-3.1,4.16-1.07,9.02-2.1,14.03-3.06,2.46-.47,4.96-.91,7.42-1.34,2.53-.45,5.04-.88,7.43-1.31,2.23-.39,4.37-.8,6.37-1.14.33-.05.56-.35.51-.68-.05-.33-.35-.56-.69-.51-1.81.21-3.73.42-5.73.71-2.74.4-5.62.89-8.53,1.44-7.39,1.4-14.99,3.18-21.07,4.93-1.21.33-6.83,1.71-13.3,3.12-4.71,1.03-9.88,2-14.08,2.9-2.41.52-4.5,1.01-6.01,1.35-4.74,1.08-9.51,2.01-14.28,2.94-4.78.93-9.56,1.87-14.33,2.87-4.1.86-8.18,1.78-12.23,2.82-6.04,1.55-12.08,3.02-18.13,4.45-6.07,1.43-12.13,2.82-18.19,4.21-2.46.56-5,1.08-7.48,1.77-1.66.46-3.3.99-4.89,1.64-.75.31-3.52.92-4.55,1.15-.18.04-.3.07-.36.08-.01,0-.03,0-.04.01Z"/>
        <path class="cls-6" d="m226.42,805.42h0s0,0,0,0c0-.03.01-.05.01-.08v.07s-.01,0-.01.02h0s0,.02,0,.03c.02.03.02,0,.02-.04.07-.03.26-.03.41-.07,1.06-.31,3.39-.72,6.15-1.18,1-.17,2.05-.36,3.11-.56,2.55-.49,5.16-1,7.26-1.4.2-.04.39-.06.57-.12.5-.14.9-.34,1.31-.5.24-.03.42-.26.38-.5-.03-.25-.26-.42-.51-.38-.45-.04-.91-.11-1.45-.1-.3,0-.62.06-.94.1-1.95.24-4.26.6-6.54,1.03-.94.18-1.88.38-2.78.59-.47.11-.93.21-1.38.33-2.46.66-4.51,1.31-5.45,1.83-.6.33-.81.68-.77.86,0,.17.16.31.33.29.13,0,.24-.09.28-.21Z"/>
        <path class="cls-6" d="m274.98,794.41c1.65-.53,3.37-1,5.13-1.45,2.55-.66,5.18-1.26,7.79-1.74,3.17-.58,6.31-.93,9.21-1.18,1.38-.12,2.7-.25,3.95-.29.37,0,.67-.3.67-.67s-.3-.67-.67-.67c-1.29-.04-2.66-.06-4.08.04-2.96.2-6.14.76-9.35,1.45-2.63.56-5.28,1.23-7.83,2.03-1.75.55-3.45,1.17-5.08,1.8-.19.07-.29.27-.22.46.07.19.27.29.46.22Z"/>
        <path class="cls-6" d="m344.22,783.44c.18-.01.36-.03.54-.04.07,0,.14-.02.22-.01.09.01.14.06.23.07.59.08,1.18-.03,1.75-.09.93-.08,1.83-.23,2.71-.39,2.76-.5,5.29-1.25,7.92-1.98,2.12-.61,4.13-1.27,5.96-1.91,2.46-.86,4.59-1.64,6.14-2.24.73-.28,1.33-.51,1.77-.68.26-.1.44-.23.56-.24.44,0,.8-.36.8-.8s-.36-.8-.8-.8c-.24-.03-.63,0-1.17.12-.55.12-1.27.37-2.13.68-2.73.99-6.92,2.78-11.62,4.27-2.55.85-5,1.71-7.69,2.36-.84.21-1.71.38-2.6.55-.55.11-1.13.13-1.68.32-.08.03-.12.09-.21.11-.07.02-.14.02-.21.02-.18.02-.35.03-.53.04-.17.01-.3.16-.29.33s.16.3.33.29Z"/>
        <path class="cls-6" d="m372.64,753.01l7.5-.88c.37-.04,2.27-.21,4.32-.56.87-.15,1.8-.25,2.59-.54.1-.04.18-.09.27-.14.49-.13.78-.64.64-1.13-.13-.49-.64-.78-1.13-.64l-6.91,1.5c-.85.15-1.58.28-2.25.43-1.82.4-3.16.8-5.15,1.23-.21.03-.35.23-.31.43.03.21.23.35.43.31Z"/>
        <path class="cls-6" d="m317.08,714.31s0,.02-.02.02h0s.02-.02.02-.02h0s-.01,0-.02.02h0c-.05.02-.17,0-.25.03-.09.03-.19.08-.31.13-1.36.6-4.37,1.73-7.67,2.46l-14.24,3.4c-.17.03-.28.19-.25.36.03.17.19.28.36.25,1.38-.2,2.85-.42,4.35-.68,3.34-.58,6.85-1.28,10.07-1.82,3.49-.6,6.7-1.58,8.14-2.2.16-.07.3-.12.41-.19.25-.16.41-.29.49-.38.55-.67.38-1.15.12-1.33-.08-.05-.14-.16-.25-.19-.32-.16-.7-.1-.95.13Zm-.28.62c-.04.17.01.31.12.45-.08-.14-.12-.29-.12-.45Z"/>
        <path class="cls-6" d="m332.53,712.27c1.43-.36,2.99-.74,4.58-1.18,3.6-.97,7.41-2.1,10.61-3.03,3.97-1.19,7.08-2.03,10.06-2.65,3.25-.68,6.35-1.1,10.27-1.42,3.25-.27,9.71-.65,15.14-1.24.57-.06,1.13-.15,1.67-.23.36-.03.63-.34.6-.7-.03-.36-.34-.63-.7-.6-.55.01-1.12,0-1.69.04-5.46.28-11.89.99-15.14,1.26-3.99.34-7.15.78-10.45,1.49-3.01.66-6.14,1.55-10.14,2.81l-14.99,4.85c-.17.05-.26.22-.22.38.05.17.22.26.39.21Z"/>
        <path class="cls-6" d="m392.09,749.11c.75,0,1.47.05,2.2.02,1.7-.08,3.34-.32,5.03-.39.42-.03.74-.39.71-.81-.03-.42-.39-.74-.81-.71-1.47.12-2.92.24-4.37.49-.38.07-.76.14-1.15.23-.57.14-1.12.32-1.7.5-.18.02-.31.19-.29.38.02.19.2.31.38.29Z"/>
      </g>
    </g>
  </g>
</svg>